<svg width="360" height="424" viewBox="0 0 360 424" fill="none" xmlns="http://www.w3.org/2000/svg">
<path d="M0 388.528C0 388.528 14.4487 423.207 98.8386 423.207C98.8386 423.207 129.626 425.199 188.553 414.434C247.48 403.669 332.64 431.702 360 404.69V-10H0L0 388.528Z" fill="#221F7A"/>
<path d="M0 389.176C0 389.176 14.4487 423.855 98.8386 423.855C98.8386 423.855 129.626 425.847 188.553 415.082C247.48 404.317 332.64 432.35 360 405.338V-9.35232H0L0 389.176Z" fill="#221F7A"/>
<mask id="mask0_39_20793" style="mask-type:alpha" maskUnits="userSpaceOnUse" x="0" y="-10" width="360" height="434">
<path d="M0 388.528C0 388.528 14.4487 423.207 98.8386 423.207C98.8386 423.207 129.626 425.199 188.553 414.434C247.48 403.669 332.64 431.702 360 404.69V-10H0L0 388.528Z" fill="#221F7A"/>
<path d="M0 389.176C0 389.176 14.4487 423.855 98.8386 423.855C98.8386 423.855 129.626 425.847 188.553 415.082C247.48 404.317 332.64 432.35 360 405.338V-9.35232H0L0 389.176Z" fill="#221F7A"/>
</mask>
<g mask="url(#mask0_39_20793)">
<path d="M343.999 263.442C343.999 263.442 233.078 196.81 171.617 241.322C125.517 274.696 86.4459 258.875 69.7845 260.718C59.2206 261.882 48.8509 264.444 39.0832 268.654C15.392 278.88 -20.2806 301.679 -30.9998 348.5L-30.9998 507.249L343.999 507.249L343.999 263.442Z" fill="#030062"/>
<path d="M360.999 259.442C360.999 259.442 250.078 192.81 188.617 237.322C142.517 270.696 103.446 253.221 86.7844 255.064C76.2205 256.228 65.8508 258.789 56.0831 263C32.392 273.226 -3.28063 296.025 -13.9999 342.846L-13.9999 503.249L360.999 503.249L360.999 259.442Z" fill="#3531B3"/>
</g>
<path d="M0.313431 95.0137C56.336 124.517 113.692 129.351 140.87 124.517V62.0095H0.313431V95.0137Z" fill="#030062"/>
<path fill-rule="evenodd" clip-rule="evenodd" d="M-14 -13H390.47V60.1782H464V152.245C464 152.245 401.475 240.032 321.443 164.023C304.459 143.515 284.293 123.029 255.416 118.517C238.816 115.923 223.797 118.149 206.556 120.705C185.775 123.785 161.765 127.344 127.865 123.517C127.865 123.517 9.58694 109.732 -13.6982 60.8257H-14L-14 60.1782L-14 -13Z" fill="#3531B3"/>
<path d="M388.683 244.867C416.162 250.546 427.684 217.546 422.006 201.279L421.982 201.21C419.926 195.389 415.656 191.735 409.112 192.81C409.112 192.81 384.387 201.641 373.968 187.879C363.545 174.12 338.498 173.917 333.173 192.219C331.358 198.446 331.653 204.113 333.449 209.227C340.681 229.812 372.252 241.472 388.683 244.867Z" fill="#FF8500"/>
<path d="M374.599 137.722C359.784 121.66 338.876 121.371 332.61 133.112C326.382 144.785 336.213 165.341 358.723 164.827C372.302 164.516 380.938 172.155 385.652 178.264C387.107 180.149 390.085 179.024 389.898 176.667C388.488 158.965 382.389 146.169 374.607 137.724C374.602 137.724 374.599 137.722 374.599 137.722Z" fill="#B22DA4"/>
<path d="M261.973 124.941C253.875 141.704 296.142 193.759 337.953 173.915C340.006 172.939 339.677 169.932 337.469 169.396C329.42 167.446 316.271 161.254 308.767 141.669C301.524 122.773 287.122 115.693 275.959 116.543C269.624 117.025 264.326 120.062 261.973 124.941Z" fill="#FFB70A"/>
<path d="M308.469 108.383C308.469 108.383 304.094 113.334 310.512 119.542C316.929 125.75 313.673 130.218 317.862 131.263C322.055 132.315 329.285 116.272 324.636 109.658C319.99 103.035 309.783 105.554 308.469 108.383Z" fill="white"/>
<path d="M324.894 208.51C324.894 214.833 319.77 219.957 313.447 219.957C307.124 219.957 302 214.833 302 208.51C302 202.187 307.124 197.062 313.447 197.062C319.763 197.062 324.894 202.187 324.894 208.51Z" fill="#3532B3"/>
<path d="M279.717 192.978C277.59 191.634 275.153 190.439 272.497 189.485C261.646 185.595 251.149 187.183 249.051 193.033C246.953 198.883 254.048 206.78 264.901 210.671C275.752 214.561 286.249 212.973 288.347 207.123C289.927 202.707 286.272 197.127 279.717 192.978Z" fill="#FF8500"/>
<path d="M319.5 188.062C305 190.062 285 185.062 268.5 167.062" stroke="#030062" stroke-width="6" stroke-linecap="round"/>
<circle cx="263" cy="158.062" r="3" fill="#030062"/>
<circle cx="258" cy="149.062" r="3" fill="#030062"/>
</svg>
