<svg width="360" height="416" viewBox="0 0 360 416" fill="none" xmlns="http://www.w3.org/2000/svg">
<mask id="mask0_2_20430" style="mask-type:alpha" maskUnits="userSpaceOnUse" x="0" y="0" width="360" height="416">
<rect width="360" height="416" fill="#C4C4C4"/>
</mask>
<g mask="url(#mask0_2_20430)">
<path d="M210.873 328.854C172.266 314.885 135.268 326.124 111.943 335.597L101.326 257.084H376.883V364.016H367.232C312.699 388.582 244.901 341.166 210.873 328.854Z" fill="#030062"/>
<path d="M96.5 347.328C62.9119 374.739 21.699 384.166 5.29104 385.453H-0.5V-14.5H373.022V329.473L366.749 331.886C320.903 367.597 251.893 343.468 232.59 329.955C217.644 319.494 192.052 313.065 182.4 313.065C167.762 313.065 130.088 319.917 96.5 347.328Z" fill="#3531B3"/>
<path d="M5.77344 398.001C24.4335 395.427 51.1366 398.001 96.0172 362.289" stroke="#030062" stroke-width="6" stroke-linecap="round"/>
<circle cx="104.222" cy="354.567" r="2.89552" fill="#030062"/>
<circle cx="111.942" cy="348.776" r="2.89552" fill="#030062"/>
</g>
<path d="M201.487 24.8609C201.487 24.8609 214.82 61.9559 257.041 64.9235C316.987 74.3609 300.987 121.361 360 113.518V24.8609H201.487Z" fill="#FF8500"/>
<path d="M359.854 109.861C359.854 109.861 336.053 59.6862 261.125 59.6862C186.197 59.6862 189.014 24.0004 189.014 24.0004L359.854 24.0004L359.854 109.861Z" fill="#FFB70A"/>
<path d="M307.125 80.0099C310.463 81.1436 312.692 85.1294 313.815 88.8878C314.927 92.6316 314.917 96.1593 313.644 99.6501C312.356 103.152 309.816 106.632 306.881 107.032C303.961 107.422 300.643 104.757 297.384 102.048C294.128 99.3129 290.917 96.5439 290.51 93.2645C290.117 89.9738 292.543 86.1614 295.968 83.3814C299.379 80.6126 303.799 78.8909 307.125 80.0099Z" fill="#B22DA4"/>
<ellipse cx="247.251" cy="66.6538" rx="9" ry="27" transform="rotate(-44.0905 247.251 66.6538)" fill="white"/>
</svg>
