<svg width="360" height="272" viewBox="0 0 360 272" fill="none" xmlns="http://www.w3.org/2000/svg">
<g clip-path="url(#clip0_71_19560)">
<path d="M1.78813e-07 236.408C1.78813e-07 236.408 14.4487 271.204 98.8386 271.204C98.8386 271.204 129.626 273.203 188.553 262.402C247.48 251.6 332.64 279.728 360 252.625V-24H0L1.78813e-07 236.408Z" fill="#3531B3"/>
<mask id="mask0_71_19560" style="mask-type:alpha" maskUnits="userSpaceOnUse" x="0" y="-24" width="360" height="296">
<path d="M0 236.408C0 236.408 14.4487 271.204 98.8386 271.204C98.8386 271.204 129.626 273.203 188.553 262.402C247.48 251.6 332.64 279.728 360 252.625V-24L0 -24L0 236.408Z" fill="#221F7A"/>
</mask>
<g mask="url(#mask0_71_19560)">
<path d="M103.673 223.69C65.3141 265.092 8.57479 258.593 -15 250.168V397H359V125C303.379 125 279.085 151.478 273.891 164.717C266.699 184.375 241.046 220.561 195.974 208.044C150.903 195.527 115.66 213.259 103.673 223.69Z" fill="#030062"/>
<path d="M103.673 236.69C65.3141 278.092 8.57479 271.593 -15 263.168V410H359V138C303.379 138 279.085 164.478 273.891 177.717C266.699 197.375 241.046 233.561 195.974 221.044C150.903 208.527 115.66 226.259 103.673 236.69Z" fill="#221F7A"/>
<path d="M201.488 0.860893C201.488 0.860893 214.82 37.9559 257.041 40.9235C316.988 50.3609 300.988 97.3609 360 89.518V0.860893H201.488Z" fill="#FF8500"/>
<path d="M359.855 85.8613C359.855 85.8613 336.053 35.6862 261.125 35.6862C186.197 35.6862 189.014 0.00039689 189.014 0.00039689L359.855 0.000404358L359.855 85.8613Z" fill="#540A7F"/>
<path d="M317.98 58.8712C321.317 60.0049 323.547 63.9907 324.67 67.7492C325.781 71.4929 325.772 75.0206 324.499 78.5114C323.211 82.0135 320.67 85.4934 317.735 85.8938C314.815 86.283 311.497 83.6187 308.238 80.9094C304.983 78.1742 301.771 75.4052 301.364 72.1258C300.972 68.8351 303.398 65.0227 306.823 62.2427C310.233 59.4739 314.653 57.7522 317.98 58.8712Z" fill="#B22DA4"/>
<ellipse cx="250.105" cy="42.5152" rx="9" ry="27" transform="rotate(-44.0905 250.105 42.5152)" fill="#FFC32B"/>
<path d="M276.671 72.9723C275.673 69.7367 275.434 66.4705 276.922 65.3536C278.395 64.2367 281.593 65.2549 284.379 67.1731C287.179 69.1054 289.565 71.9377 288.957 74.65C288.362 77.3622 284.758 79.9686 282.092 79.6765C279.426 79.3843 277.669 76.1937 276.671 72.9723Z" fill="white"/>
</g>
</g>
<defs>
<clipPath id="clip0_71_19560">
<rect width="360" height="272" fill="white"/>
</clipPath>
</defs>
</svg>
