<svg width="360" height="404" viewBox="0 0 360 404" fill="none" xmlns="http://www.w3.org/2000/svg">
<mask id="mask0_73_4309" style="mask-type:alpha" maskUnits="userSpaceOnUse" x="0" y="0" width="360" height="404">
<rect width="360" height="404" fill="#C4C4C4"/>
</mask>
<g mask="url(#mask0_73_4309)">
<path d="M397.283 -195.707C314.403 -218.23 227.239 -200.75 153.41 -187.846C79.2172 -174.195 19.4709 -165.502 -23.7193 -133.9C-66.3539 -102.489 -91.5118 -49.1079 -121.895 1.71613C-152.087 53.0962 -187.696 101.363 -159.387 129.56C-130.523 157.568 -109.578 233.654 -69.5003 269C-23.0004 282 38.4997 296.5 49.4997 341.5C60.4996 386.5 114.708 403.437 164.868 403.005C214.837 402.018 288.19 394.869 318.5 356.5C348.619 317.576 344.728 328.88 398 261.5C450.907 194.867 538.693 33.5817 548.457 -37.513C558.029 -109.164 479.798 -172.437 397.283 -195.707Z" fill="#030062"/>
<path d="M401.283 -210.707C318.403 -233.23 231.239 -215.75 157.411 -202.846C83.2175 -189.195 23.4712 -180.501 -19.719 -148.9C-62.3536 -117.489 -87.5115 -64.1076 -117.895 -13.2836C-148.087 38.0964 -183.695 86.3629 -155.387 114.561C-126.522 142.568 -105.578 218.654 -65.5 254C-25.4221 289.347 39.5 280 51.815 325.624C64.1299 371.247 118.709 388.437 168.868 388.005C218.837 387.018 282.69 392.369 313 354C343.119 315.076 348.728 313.88 402 246.5C454.907 179.868 542.694 18.5819 552.457 -52.5127C562.03 -124.163 483.799 -187.437 401.283 -210.707Z" fill="#3531B3"/>
<mask id="mask1_73_4309" style="mask-type:alpha" maskUnits="userSpaceOnUse" x="-166" y="-222" width="720" height="611">
<path d="M401.283 -210.707C318.403 -233.23 231.239 -215.75 157.411 -202.846C83.2175 -189.195 23.4712 -180.501 -19.719 -148.9C-62.3536 -117.489 -87.5115 -64.1076 -117.895 -13.2836C-148.087 38.0964 -183.695 86.3629 -155.387 114.561C-126.522 142.568 -105.578 218.654 -65.5 254C-25.4221 289.347 39.5 280 51.815 325.624C64.1299 371.247 118.709 388.437 168.868 388.005C218.837 387.018 282.69 392.369 313 354C343.119 315.076 348.728 313.88 402 246.5C454.907 179.868 542.694 18.5819 552.457 -52.5127C562.03 -124.163 483.799 -187.437 401.283 -210.707Z" fill="#3531B3"/>
</mask>
<g mask="url(#mask1_73_4309)">
<path d="M343.643 118.982C358.058 110.648 361.77 95.1365 354.089 88.5078C346.454 81.9187 329.529 85.7933 326.147 102.631C324.106 112.788 316.984 117.936 311.654 120.421C310.009 121.188 310.348 123.593 312.131 123.848C325.527 125.759 336.061 123.365 343.638 118.985C343.641 118.984 343.641 118.984 343.643 118.982Z" fill="#FFB70A"/>
<path d="M141.69 255.289C130.652 232.142 107.29 224.55 96.1763 235.533C85.1287 246.453 89.0127 272.91 114.451 280.157C129.796 284.528 136.831 296.092 139.996 304.577C140.973 307.196 144.707 306.97 145.316 304.263C149.885 283.929 147.493 267.465 141.693 255.297C141.691 255.293 141.691 255.293 141.69 255.289Z" fill="#030062"/>
<path d="M300.282 182C275.492 182 260.259 204.879 259.045 223.42C257.551 246.243 281.506 303.119 215.99 304.245C150.474 305.365 171.068 344.657 171.068 344.657C181.551 370.472 263.54 363.809 297.985 337.925C347.775 300.505 363.127 204.343 318.952 186.007C312.247 183.22 306.015 182 300.282 182Z" fill="#534ED9"/>
<path d="M136.525 106.221C104.769 125.994 134.509 258.58 233.459 269.194C238.319 269.713 240.624 264.285 236.943 261.048C223.518 249.255 204.517 224.909 209.317 183.892C213.944 144.317 193.423 117.146 171.339 106.796C158.808 100.923 145.762 100.459 136.525 106.221Z" fill="#FF8500"/>
<path d="M103 183C103 197.362 91.3618 209 77 209C62.6383 209 51 197.362 51 183C51 168.638 62.6383 157 77 157C91.3618 157 103 168.638 103 183Z" fill="#221F7A"/>
<path d="M363 246C363 246 379.5 153.5 277.378 169.202" stroke="#030149" stroke-width="6.35" stroke-miterlimit="10" stroke-linecap="round"/>
<path d="M259.426 172.766C258.975 174.508 260.024 176.289 261.766 176.74C263.508 177.191 265.289 176.142 265.74 174.4C266.191 172.658 265.142 170.877 263.4 170.426C261.653 169.974 259.878 171.019 259.426 172.766Z" fill="#030149" stroke="#030149"/>
<path d="M246.426 177.766C245.975 179.508 247.024 181.289 248.766 181.74C250.508 182.191 252.289 181.142 252.74 179.4C253.191 177.658 252.142 175.877 250.4 175.426C248.658 174.975 246.877 176.024 246.426 177.766Z" fill="#030149" stroke="#030149"/>
<path d="M112.338 314.169C112.338 320.341 107.341 325.338 101.169 325.338C94.9974 325.338 90 320.341 90 314.169C90 307.997 94.9974 303 101.169 303C107.331 303 112.338 307.997 112.338 314.169Z" fill="#221F7A"/>
<path d="M34.7496 213.659C1.31946 182.529 -42.3113 185.243 -53.5099 210.713C-64.6405 236.033 -40.8862 277.322 5.95534 272.68C34.2124 269.879 53.4255 284.432 64.2215 296.417C67.5534 300.117 73.5828 297.299 72.8186 292.415C67.0723 255.738 52.3275 230.033 34.7654 213.664C34.755 213.664 34.7496 213.659 34.7496 213.659Z" fill="#FF8500"/>
<path d="M246.554 123.229C212.45 99.8768 208.663 90.6957 195.186 92.2264C181.709 93.7571 156.529 63.3327 199.881 40.8064C243.224 18.279 263.769 -31.0951 280.965 -13.1471C298.163 4.7914 294.686 44.5342 294.686 44.5342C294.686 44.5342 294.47 47.4179 293.93 52.104C291.194 75.8767 280.121 146.22 246.554 123.229Z" fill="#FFB70A"/>
<path d="M126.149 65.6844C261.149 -58.3157 94.9618 -66.8259 16.6361 -9.81556C12.7913 -7.01389 -38.1003 59.4376 -33.351 59.6844C-33.351 82.6844 -21.4249 230.341 12.4022 155.43C33.9151 107.789 74.2674 124.505 96.9022 118.43C109.746 114.982 115.149 79.1844 126.149 65.6844Z" fill="#221F7A"/>
</g>
</g>
</svg>
