<svg width="360" height="197" viewBox="0 0 360 197" fill="none" xmlns="http://www.w3.org/2000/svg">
<path d="M204.873 124.854C166.266 110.886 129.268 122.125 105.943 131.598L95.3259 53.0845H370.883V160.017H361.231C306.699 184.582 238.9 137.166 204.873 124.854Z" fill="#030062"/>
<path d="M90.5 143.328C56.9119 170.739 15.699 180.166 -0.708956 181.453H-6.5V0H367.022V125.473L360.749 127.886C314.903 163.597 245.893 139.468 226.59 125.955C211.644 115.494 186.052 109.065 176.4 109.065C161.762 109.065 124.088 115.917 90.5 143.328Z" fill="#3531B3"/>
<path d="M-0.226379 194C18.4337 191.426 45.1368 194 90.0174 158.289" stroke="#030062" stroke-width="6" stroke-linecap="round"/>
<circle cx="98.2214" cy="150.567" r="2.89552" fill="#030062"/>
<circle cx="105.943" cy="144.776" r="2.89552" fill="#030062"/>
</svg>
