<svg width="360" height="565" viewBox="0 0 360 565" fill="none" xmlns="http://www.w3.org/2000/svg">
<path d="M275 45.5C301 24.7 351.833 13.8333 374 11H382.5V600H-9V160H-1.5C28.5 157 97.2 149.7 132 144.5C166.8 139.3 202.5 112.333 216 99.5C224.833 90.1667 249 66.3 275 45.5Z" fill="#3531B3"/>
<path d="M53 122.497C30.2 121.298 8.16667 114.999 0 112V183.981C2.16667 184.148 8.8 183.281 18 178.483C27.2 173.684 39.5 172.484 44.5 172.484C101 172.484 95.9251 152.928 95 145.991C94 138.493 81.5 123.997 53 122.497Z" fill="#FFB70A"/>
<path d="M102.858 136.086C120.458 136.886 130.358 145.584 130.358 151.582C129.363 178.933 86.3064 174.622 80.9382 174.084L80.8575 174.076C75.8575 173.576 68.8575 174.576 53.8575 177.575C41.8575 179.975 36.5242 172.91 35.3575 169.078C34.3575 163.579 34.8575 152.382 44.8575 151.582C54.8575 150.782 66.6909 145.584 71.3575 143.084C77.3575 139.871 85.2575 135.286 102.858 136.086Z" fill="#FF8500"/>
<path d="M306.5 17C316.261 6.8577 358.317 0 374.65 0V19.5C368.65 27.5 342.388 35.641 336.5 33.5C331 31.5 321 30.2815 316.65 33C313.984 34.6667 307.45 37 302.65 33C297.85 29 302.65 21 306.5 17Z" fill="#030062"/>
</svg>
