<svg width="360" height="289" viewBox="0 0 360 289" fill="none" xmlns="http://www.w3.org/2000/svg">
<g clip-path="url(#clip0_2_4056)">
<mask id="mask0_2_4056" style="mask-type:alpha" maskUnits="userSpaceOnUse" x="0" y="-101" width="360" height="390">
<rect y="-101" width="360" height="390" fill="#C4C4C4"/>
</mask>
<g mask="url(#mask0_2_4056)">
<path d="M-1.49986 220C-1.49986 220 100.5 290 252.545 236.779C287.002 194.377 321.284 177.4 336.276 171.551C345.783 167.846 354.762 162.895 362.773 156.563C382.201 141.195 409.615 111.19 407.921 65.1096L321.428 -257.689L-26.3054 -164.514L-1.49986 220Z" fill="#390557"/>
<path d="M-2.50012 215.528C-2.50012 215.528 140 294 246.851 215.528C281.308 173.126 315.59 156.15 330.582 150.3C340.088 146.596 349.068 141.644 357.079 135.313C376.507 119.944 403.921 89.9394 402.227 43.8594L315.734 -278.939L-31.9995 -185.764L-2.50012 215.528Z" fill="#540A7F"/>
<path d="M135.708 124.558C138.33 130.816 136.008 137.664 131.291 140.961C130.272 141.662 127.373 142.906 126.533 143.251C119.777 146.048 114.253 141.926 111.284 134.789C108.276 127.615 109.262 120.394 115.98 117.598C116.895 117.212 120.004 116.348 120.968 116.192C126.943 115.173 133.166 118.374 135.708 124.558Z" fill="#FF9A2E"/>
<path d="M130.39 122.64C130.474 122.791 130.632 122.863 130.785 122.817L133.953 121.485C133.829 121.296 133.706 121.146 133.543 120.959L130.528 122.207C130.376 122.291 130.305 122.449 130.39 122.64Z" fill="#EF7F18"/>
<path d="M127.511 119.613C127.595 119.765 127.753 119.836 127.907 119.791L130.959 118.502C130.759 118.355 130.559 118.208 130.322 118.101L127.651 119.219C127.537 119.301 127.466 119.459 127.511 119.613Z" fill="#EF7F18"/>
<path d="M125.159 118.078C125.243 118.23 125.401 118.301 125.554 118.256L128.379 117.093C128.103 116.988 127.827 116.883 127.551 116.778L125.337 117.683C125.145 117.73 125.075 117.927 125.159 118.078Z" fill="#EF7F18"/>
<path d="M132.18 126.564C132.264 126.716 132.422 126.787 132.575 126.742L136.011 125.322C135.925 125.131 135.879 124.939 135.793 124.748L132.358 126.169C132.205 126.214 132.135 126.411 132.18 126.564Z" fill="#EF7F18"/>
<path d="M133.291 130.012C133.375 130.164 133.533 130.235 133.686 130.19L136.777 128.9C136.768 128.668 136.721 128.476 136.712 128.243L133.43 129.619C133.277 129.664 133.207 129.861 133.291 130.012Z" fill="#EF7F18"/>
<path d="M133.414 133.035C133.497 133.187 133.656 133.258 133.809 133.213L136.671 132.009C136.7 131.775 136.73 131.541 136.759 131.307L133.553 132.641C133.399 132.686 133.33 132.883 133.414 133.035Z" fill="#EF7F18"/>
<path d="M133.117 136.23C133.201 136.381 133.359 136.453 133.512 136.408L135.688 135.504C135.793 135.228 135.898 134.952 136.005 134.715L133.256 135.836C133.104 135.92 133.033 136.078 133.117 136.23Z" fill="#EF7F18"/>
<path d="M126.349 143.333C133.229 140.464 136.414 132.402 133.463 125.324C130.512 118.247 122.543 114.835 115.663 117.704C108.784 120.572 105.599 128.635 108.55 135.712C111.501 142.789 119.47 146.201 126.349 143.333Z" fill="#FFCB48"/>
<path d="M113.809 136.369C114.021 136.969 114.662 137.276 115.262 137.064C115.861 136.853 116.168 136.212 115.957 135.612L115.206 133.478L116.921 132.874L119.947 134.787C120.325 135.015 120.715 135.144 121.203 134.972C121.719 134.79 122.084 134.223 121.873 133.623C121.755 133.288 121.537 133.114 121.234 132.923L119.103 131.635C120.117 130.729 120.555 129.525 120.009 127.977L119.999 127.949C119.67 127.014 119.131 126.373 118.377 126.012C117.49 125.587 116.424 125.586 115.182 126.024L111.793 127.217C111.193 127.429 110.886 128.07 111.098 128.67L113.809 136.369ZM114.537 131.581L113.55 128.778L115.684 128.026C116.744 127.653 117.534 127.892 117.863 128.827L117.873 128.854C118.168 129.691 117.773 130.442 116.713 130.815L114.537 131.581Z" fill="#FF931C"/>
<path d="M124.177 135.241C124.389 135.841 125.011 136.139 125.611 135.928C126.211 135.716 126.509 135.094 126.298 134.494L125.511 132.263C126.225 132.686 127.104 132.956 128.234 132.558C130.005 131.934 131.156 129.993 130.276 127.496L130.266 127.468C129.387 124.971 127.246 124.189 125.502 124.803C124.387 125.196 123.866 125.944 123.6 126.837L123.566 126.739C123.355 126.14 122.732 125.842 122.133 126.053C121.533 126.264 121.235 126.886 121.446 127.486L124.177 135.241ZM127.056 130.95C126.066 131.299 124.953 130.766 124.516 129.525L124.506 129.497C124.069 128.256 124.602 127.143 125.592 126.794C126.582 126.445 127.709 126.973 128.146 128.215L128.156 128.243C128.598 129.498 128.046 130.602 127.056 130.95Z" fill="#FF931C"/>
<path d="M241.822 38.4744C236.933 20.1038 224.442 10.4634 217.744 16.1851C211.086 21.8739 211.859 41.2718 225.513 51.0495C233.75 56.9477 237.031 66.4031 238.337 72.9761C238.741 75.0049 240.811 75.5287 241.287 73.7284C244.859 60.2035 244.393 48.1372 241.824 38.4803C241.823 38.4774 241.823 38.4774 241.822 38.4744Z" fill="#FF8500"/>
<path d="M311.62 26.0719L308.043 23.8187L310.537 20.0259L314.115 22.2792L311.62 26.0719Z" fill="#3531B3"/>
<path d="M316.117 20.722L315.432 20.2889L313.272 18.9279L313.243 18.9101L311.849 18.0324L311.158 17.596C310.762 17.3471 310.235 17.4589 309.981 17.8442L308.991 19.3498C308.736 19.7367 308.851 20.251 309.247 20.5L309.938 20.9364L310.67 21.3971L311.332 21.8141L312.091 22.2925L312.783 22.7289L313.515 23.1896L314.206 23.626L314.206 23.6245C314.6 23.8655 315.121 23.7536 315.372 23.3714L316.362 21.8657C316.616 21.482 316.506 20.9724 316.117 20.722Z" fill="#FF8500"/>
<path d="M301.947 15.5775L295.333 15.462L295.211 22.4787L301.825 22.5942L301.947 15.5775Z" fill="#3531B3"/>
<path d="M297.764 65.4614C310.693 65.687 321.353 55.6169 321.573 42.9692C321.794 30.3214 311.492 19.8854 298.564 19.6597C285.635 19.434 274.975 29.5041 274.755 42.1519C274.534 54.7997 284.836 65.2357 297.764 65.4614Z" fill="#FF8500"/>
<path d="M297.816 62.4997C309.097 62.6966 318.398 53.9101 318.591 42.8745C318.784 31.839 309.795 22.7333 298.514 22.5363C287.233 22.3394 277.931 31.1259 277.739 42.1615C277.546 53.197 286.535 62.3028 297.816 62.4997Z" fill="white"/>
<path d="M299.26 26.7252C299.268 26.3057 298.927 25.9588 298.501 25.9513C298.075 25.9439 297.723 26.2788 297.715 26.6983L297.446 42.1331L289.017 46.6882C288.833 46.7871 288.7 46.953 288.642 47.1516C288.585 47.3486 288.61 47.5549 288.712 47.7343C288.852 47.9819 289.111 48.1231 289.381 48.1279C289.511 48.1301 289.644 48.0995 289.766 48.034L298.578 43.2718C298.849 43.1257 299.004 42.8392 298.978 42.537C298.981 42.5151 298.983 42.4931 298.984 42.4711L299.259 26.7252L299.26 26.7252Z" fill="#030062"/>
<path d="M303.291 11.9125L303.274 11.9107L302.011 11.8886L300.659 11.865L299.379 11.8427L298.027 11.8191L296.746 11.7967L295.394 11.7731L294.114 11.7508C293.382 11.738 292.78 12.3074 292.767 13.0223L292.719 15.8079C292.706 16.5228 293.289 17.1128 294.02 17.1256L295.3 17.148L296.653 17.1716L297.933 17.1939L299.285 17.2175L300.565 17.2399L301.917 17.2635L303.18 17.2855L303.198 17.2858L303.198 17.2842C303.92 17.2874 304.515 16.7226 304.527 16.0124L304.576 13.2284C304.588 12.5198 304.014 11.933 303.291 11.9125Z" fill="#FF8500"/>
<path d="M281.226 150.246C317.531 156.841 347.433 196.776 341.365 230.176C335.298 263.576 293.241 290.554 256.937 283.959C220.632 277.364 190.192 237.216 196.259 203.816C202.327 170.416 244.922 143.651 281.226 150.246Z" fill="#200032"/>
<path d="M336.612 185.351C345.72 219.341 321.89 267.073 286.904 276.447C251.919 285.821 205.661 256.87 196.553 222.879C187.414 188.772 215.425 149.626 250.411 140.251C285.397 130.877 327.473 151.243 336.612 185.351Z" fill="#AA4CE0"/>
<path d="M138.629 160.616C139.098 171.929 176.731 187.657 193.47 164.997C194.291 163.884 193.251 162.368 191.912 162.715C187.033 163.987 178.198 164.452 168.547 156.118C159.235 148.078 149.472 148.428 143.725 152.095C140.464 154.176 138.495 157.325 138.629 160.616Z" fill="#3531B3"/>
<path d="M69.3344 136.681C49.3552 135.77 33.3129 131.723 13.3497 117.662" stroke="#FFB70A" stroke-width="6" stroke-linecap="round"/>
<circle cx="6.05458" cy="110.044" r="2.5" transform="rotate(-12.33 6.05458 110.044)" fill="#FFB70A" stroke="#FFB70A"/>
<circle cx="-0.751813" cy="102.319" r="2.5" transform="rotate(-12.33 -0.751813 102.319)" fill="#FFB70A" stroke="#FFB70A"/>
<path d="M34.5961 53.2648L56.5532 41.3185L58.4769 39.5864C61.7307 36.4531 63.9809 33.4667 64.9569 25.7665C65.9133 18.2718 59.397 5.67325 59.397 5.67325C59.397 5.67325 56.2976 11.8553 48.5155 17.2807C40.7333 22.706 36.9751 23.4051 36.9751 23.4051C36.9751 23.4051 42.5166 31.084 42.0236 37.283C41.4254 45.0151 34.5961 53.2648 34.5961 53.2648Z" fill="#089531"/>
<path d="M41.7558 45.3573C41.7716 45.3373 41.9051 45.1728 42.1135 44.8725C43.8532 45.4957 49.5571 44.6299 49.5571 44.6299L52.5813 42.9282L53.3043 43.6491C59.9709 37.8756 63.3484 31.8678 63.3504 25.7881C63.3499 22.783 62.6982 19.299 61.4143 15.4392C60.464 12.5746 59.517 10.6134 59.4819 10.5304L58.9852 9.50711L58.1861 10.3196C58.1409 10.3685 53.2603 15.3188 50.3294 17.6048C46.3599 20.7059 40.0328 23.4924 39.9676 23.5254L39.1591 23.8817L39.5863 24.6518C39.6128 24.6922 41.9934 29.0185 42.8384 33.1658C43.4005 35.909 43.182 38.6241 42.1881 41.2306C41.4459 43.1906 40.5162 44.3487 40.5027 44.3576L41.7558 45.3573ZM44.4164 32.8353C43.7278 29.4717 42.1488 26.1039 41.3965 24.6316C43.2544 23.771 47.9954 21.4648 51.3184 18.8642C53.6163 17.0699 56.9562 13.8032 58.5001 12.2717C59.4952 14.6156 61.7459 20.4815 61.7461 25.7987C61.7403 30.2818 59.8947 35.0935 55.9036 39.6345C56.4444 37.4114 55.5438 34.7551 51.4593 36.4289C47.788 37.938 45.4255 39.7072 43.87 41.2944C44.5589 39.2827 45.1308 36.3264 44.4164 32.8353Z" fill="#333333" fill-opacity="0.8"/>
<path d="M52.0451 28.8398C53.1172 28.282 53.6834 27.2464 53.3094 26.5282C52.9353 25.8099 51.7619 25.6827 50.6897 26.2406C49.6176 26.7984 49.0514 27.8339 49.4255 28.5522C49.7995 29.2705 50.973 29.3976 52.0451 28.8398Z" fill="#333333" fill-opacity="0.8"/>
<path d="M58.477 39.5863C58.477 39.5863 54.2841 43.6719 42.168 42.7465C34.432 42.1596 17.1634 35.622 17.1634 35.622C17.1634 35.622 17.3636 40.5963 15.052 45.9926C11.2944 54.7635 8.21393 58.5443 8.21393 58.5443C8.21393 58.5443 17.0207 61.7819 25.1968 59.6531C44.9127 54.5212 58.477 39.5863 58.477 39.5863Z" fill="#0EAE3D"/>
<path d="M11.3934 58.2727C11.7128 58.3332 19.3472 59.7958 26.5645 58.8249C27.6195 58.6828 28.7018 58.494 29.7934 58.2606C32.8141 57.2162 35.6576 55.9604 38.3006 54.6047C40.0074 53.8817 41.9447 52.892 45.2731 50.6827C49.2902 48.0224 52.8483 44.8824 52.8483 44.8824C53.8355 44.0623 54.5666 43.3522 55.3154 42.669C52.5648 43.5365 47.1809 44.9055 41.3537 44.5228C35.8665 44.1582 20.0912 38.28 19.9284 38.2229L19.1122 37.9195L18.9347 38.7678C18.9253 38.8125 17.8772 43.7664 16.3086 47.8668C14.227 53.3051 11.0084 57.0222 10.9767 57.0622L10.1269 58.0331L11.3934 58.2727ZM17.7023 48.3892C18.9434 45.1583 19.839 41.518 20.2111 39.9064C23.5653 41.1385 36.2201 45.6701 41.2535 46.0045C45.1263 46.2611 48.8583 45.743 51.5996 45.1706C48.8679 45.9197 43.0011 48.0096 39.7203 50.9101C35.923 54.2742 35.2862 55.7028 37.0231 55.1141C34.3611 56.3377 31.0315 57.6615 25.9938 57.8212C20.6406 57.9853 15.359 57.3896 12.9079 57.0205C14.051 55.5107 16.1521 52.4293 17.7023 48.3892Z" fill="#333333" fill-opacity="0.6"/>
<path d="M26.9864 52.8267C27.5061 51.7349 27.3307 50.5687 26.5999 50.219C25.8691 49.8692 24.8502 50.4789 24.3305 51.5707C23.8108 52.6625 23.9863 53.8287 24.717 54.1784C25.4501 54.517 26.4667 53.9185 26.9864 52.8267Z" fill="#333333" fill-opacity="0.6"/>
<path fill-rule="evenodd" clip-rule="evenodd" d="M211.225 114.417C210.397 112.934 208.523 112.402 207.039 113.23L183.873 126.163C182.39 126.992 181.859 128.866 182.687 130.35L182.688 130.35C183.516 131.834 185.39 132.366 186.874 131.538L210.039 118.605C211.523 117.776 212.054 115.901 211.225 114.417C211.226 114.418 211.226 114.418 211.225 114.417Z" fill="#3531B3"/>
<path d="M203.527 105.284L178.952 119.005L184.828 129.53L209.403 115.809L203.527 105.284Z" fill="#030062"/>
<path d="M199.531 110.083L185.133 118.122L188.733 124.57L203.131 116.531L199.531 110.083Z" fill="#FEEDB4"/>
<path d="M201.688 116.535L189.494 123.343C189.379 123.407 189.235 123.366 189.171 123.251L186.43 118.342C186.366 118.227 186.407 118.082 186.521 118.019L198.715 111.211C198.83 111.147 198.974 111.188 199.038 111.302L201.78 116.212C201.843 116.327 201.802 116.471 201.688 116.535ZM189.47 122.813L201.249 116.236L198.739 111.742L186.96 118.318L189.47 122.813Z" fill="#FBCB22"/>
<path fill-rule="evenodd" clip-rule="evenodd" d="M178.209 117.674C177.071 115.455 183.788 111.105 187.065 104.667C194.548 105.685 201.495 101.825 202.784 103.954L202.785 103.953L203.523 105.275L178.946 118.996L178.209 117.674Z" fill="#FBCB22"/>
<path d="M201.065 105.21L180.18 116.87C180.087 116.921 179.97 116.888 179.918 116.796C179.867 116.703 179.9 116.586 179.993 116.534L200.877 104.874C200.97 104.823 201.088 104.856 201.139 104.948C201.191 105.041 201.157 105.158 201.065 105.21Z" fill="#ECA400"/>
<path fill-rule="evenodd" clip-rule="evenodd" d="M180.119 99.6753C180.119 99.6753 181.408 100.335 183.031 101.869C183.561 102.37 184.115 102.906 184.493 103.599C184.873 104.297 185.012 105.052 185.159 105.773C185.599 107.94 185.537 109.381 185.537 109.381C186.514 111.131 192.856 107.591 191.879 105.841C191.879 105.841 190.619 105.137 189.006 103.625C188.47 103.123 187.899 102.608 187.505 101.917C187.113 101.232 186.948 100.479 186.799 99.7647C186.345 97.579 186.46 96.1347 186.46 96.1347C185.483 94.3844 183.27 93.7569 181.519 94.7341C179.769 95.7113 179.141 97.925 180.119 99.6753Z" fill="#ECA400"/>
<path d="M165.272 98.3976C163.458 99.4103 161.096 100.124 158.654 99.7521C155.678 99.2996 153.176 97.4026 151.218 94.1156C149.553 91.3232 149.183 88.8815 150.116 86.8589C151.564 83.7211 155.599 83.0003 155.77 82.9713C156.428 82.8595 157.051 83.3013 157.163 83.9589C157.275 84.6154 156.834 85.2376 156.179 85.3517C156.136 85.3595 153.21 85.9025 152.305 87.8798C151.731 89.1351 152.063 90.8175 153.292 92.8802C154.863 95.5169 156.789 97.0265 159.017 97.3656C161.678 97.7704 164.259 96.4457 165.66 95.1888C166.156 94.7432 166.919 94.7844 167.365 95.2812C167.811 95.7772 167.769 96.5409 167.273 96.9865C166.733 97.4694 166.054 97.9613 165.272 98.3976Z" fill="#FFCE4E"/>
<path d="M193.078 82.8722C192.296 83.3085 191.521 83.6289 190.825 83.8339C190.186 84.0223 189.514 83.6569 189.325 83.0177C189.137 82.378 189.502 81.7066 190.141 81.5175C191.947 80.9852 194.429 79.4833 195.48 77.0046C196.361 74.9304 196.087 72.4991 194.667 69.777C193.556 67.6483 192.298 66.4831 190.928 66.3131C188.765 66.0448 186.763 68.2624 186.743 68.2846C186.301 68.7815 185.539 68.8281 185.04 68.3874C184.542 67.9464 184.493 67.1876 184.932 66.688C185.046 66.5577 187.777 63.5009 191.208 63.9149C193.42 64.1817 195.304 65.7786 196.807 68.6605C198.578 72.0527 198.879 75.1774 197.703 77.9487C196.739 80.2223 194.892 81.8595 193.078 82.8722Z" fill="#FFCE4E"/>
<path fill-rule="evenodd" clip-rule="evenodd" d="M155.266 85.061L152.897 80.8176C151.922 79.0708 152.547 76.8648 154.294 75.8896L179.678 61.7177C180.517 61.2496 181.508 61.1336 182.432 61.3961C183.356 61.6582 184.138 62.2761 184.607 63.1153C185.747 65.1567 187.018 67.4341 187.018 67.4341C194.171 80.3118 192.899 94.7002 184.166 99.5756C175.417 104.46 162.466 97.9574 155.266 85.061Z" fill="#FFB70A"/>
<path fill-rule="evenodd" clip-rule="evenodd" d="M184.839 61.1248C184.301 60.162 183.085 59.8168 182.121 60.3547C176.301 63.6041 157.586 74.0523 151.766 77.3017C150.803 77.8396 150.458 79.0564 150.996 80.0192C150.996 80.0198 150.996 80.0198 150.996 80.0203C151.534 80.9832 152.751 81.3283 153.714 80.7905C159.534 77.5411 178.249 67.0929 184.069 63.8435C185.032 63.3056 185.377 62.0888 184.839 61.126C184.839 61.1248 184.839 61.1248 184.839 61.1248Z" fill="#FEEDB4"/>
<path d="M182.37 62.9018L153.976 78.7542C153.808 78.8478 153.596 78.7878 153.502 78.6201C153.409 78.4524 153.469 78.2404 153.637 78.1468L182.031 62.2944C182.199 62.2008 182.411 62.2608 182.504 62.4285C182.597 62.5966 182.538 62.8083 182.37 62.9018Z" fill="#FBCB22"/>
<ellipse cx="144.931" cy="27.5479" rx="14.2109" ry="14.9588" transform="rotate(-15 144.931 27.5479)" fill="#FFB70A"/>
<path d="M204.887 191.523C202.398 187.506 202.754 182.347 205.77 178.709L252.579 122.257C257.405 116.438 266.527 117.108 270.45 123.57L296.885 167.111C299.212 170.944 298.979 175.805 296.298 179.398L251.904 238.885C247.265 245.101 237.822 244.692 233.737 238.098L204.887 191.523Z" fill="#FFCE4E"/>
<path d="M246.973 181.112C246.973 181.112 243.056 172.422 244.029 161.657C244.822 152.914 249.781 128.148 250.139 121.174C250.806 108.417 247.708 97.953 247.708 97.953L279.824 81.2432C279.824 81.2432 283.192 90.6012 284.134 101.026C285.08 111.589 276.071 132.767 278.043 147.096C279.32 156.369 288.224 171.475 288.224 171.475L246.973 181.112Z" fill="#0EAE3D"/>
<g opacity="0.6">
<path d="M249.726 98.9137L249.854 99.5808C249.877 99.7056 252.127 111.851 251.753 118.905C251.484 123.859 250.146 132.436 248.844 140.729C247.862 147.012 246.926 152.954 246.487 157.166C245.065 170.636 248.359 176.966 248.494 177.232L248.816 177.843L283.955 170.328L283.329 169.24C283.263 169.126 276.855 157.865 275.758 150.641C274.301 141.024 276.511 132.429 278.652 124.112C280.179 118.168 281.634 112.549 281.854 106.571C282.107 99.8622 281.33 94.256 280.647 90.7233C279.894 86.8779 279.092 84.6504 279.062 84.5582L278.698 83.5656L249.726 98.9137ZM273.95 150.908C274.607 155.2 276.941 160.671 278.887 164.679C277.791 164.845 276.392 165.517 275.989 166.21C275.03 167.847 275.841 169.22 277.506 169.826L254.679 174.712C254.694 174.647 254.712 174.596 254.717 174.526C255.284 171.226 250.926 170.171 248.749 171.975C248.736 171.894 248.718 171.821 248.696 171.734C248.122 168.882 247.595 164.065 248.308 157.35C248.748 153.175 249.677 147.266 250.657 141.006C250.769 140.286 250.881 139.567 250.994 138.847C252.074 141.819 255.201 144.066 261.283 143.069C266.9 142.151 271.673 138.07 274.464 134.077C273.486 139.392 273.035 144.936 273.95 150.908ZM280.03 106.496C279.812 112.267 278.388 117.793 276.882 123.639C276.735 124.191 276.598 124.747 276.451 125.299C274.803 121.9 270.127 119.203 265.586 120.337C261.068 121.473 255.378 123.885 252.444 129.12C253.002 125.139 253.437 121.588 253.571 118.989C253.835 114.044 252.896 106.903 252.229 102.691C253.284 103.165 254.224 103.053 255.051 101.84C255.702 100.879 255.939 99.1522 254.837 98.4287C254.791 98.4016 254.737 98.3691 254.687 98.351L274.8 87.7045C273.389 90.6075 276.749 91.9733 278.502 89.4844C279.365 93.2485 280.301 99.2453 280.03 106.496Z" fill="#333333"/>
<path d="M259.285 158.111C259.429 159.182 260.765 159.885 262.269 159.694C263.779 159.494 264.883 158.473 264.748 157.408C264.604 156.338 263.268 155.634 261.764 155.825C260.26 156.016 259.149 157.047 259.285 158.111Z" fill="#333333"/>
<path d="M265.025 100.955C263.564 101.381 262.622 102.562 262.925 103.592C263.223 104.632 264.646 105.129 266.116 104.708C267.577 104.282 268.519 103.102 268.215 102.071C267.903 101.035 266.48 100.538 265.025 100.955Z" fill="#333333"/>
</g>
<rect x="200.227" y="184.584" width="104.857" height="82.828" rx="11" transform="rotate(-31.7759 200.227 184.584)" fill="#FFB70A"/>
<rect x="207" y="186.085" width="94.9689" height="73.1428" rx="11" transform="rotate(-31.7759 207 186.085)" stroke="#C36600" stroke-width="2" stroke-linecap="round" stroke-linejoin="round" stroke-dasharray="5 5"/>
<path d="M281.886 172.763C279.57 169.001 280.741 164.073 284.503 161.756L302.897 150.428C304.308 149.559 306.156 149.999 307.025 151.409L316.185 166.284C317.054 167.695 316.615 169.543 315.204 170.411L296.81 181.739C293.048 184.056 288.12 182.885 285.803 179.123L281.886 172.763Z" fill="#FF8500"/>
<circle cx="291.856" cy="170.535" r="5.28689" transform="rotate(-26.8117 291.856 170.535)" fill="white"/>
<ellipse rx="7.15873" ry="15.009" transform="matrix(0.465646 -0.884971 0.885378 0.464871 101.579 170.229)" fill="#FF8500"/>
<path d="M101.006 50.7379L108.25 60.6606C108.425 60.8999 108.375 61.2327 108.136 61.4074C108.133 61.4091 108.133 61.4091 108.133 61.4091L69.1145 89.8961C68.8794 90.0714 68.5424 90.021 68.3695 89.7841C68.3677 89.7817 68.3677 89.7817 68.3659 89.7793L61.1216 79.8566C60.9468 79.6173 60.9966 79.2845 61.2359 79.1098C61.2383 79.1081 61.2383 79.1081 61.2408 79.1063L100.259 50.6194C100.499 50.4446 100.832 50.4944 101.006 50.7337C101.004 50.7355 101.004 50.7355 101.006 50.7379Z" fill="#FF8500"/>
<path d="M105.547 63.2267L119.228 81.965C119.648 82.5511 119.521 83.3666 118.942 83.7967L87.0999 107.044C86.5138 107.465 85.6983 107.337 85.2682 106.758L71.5876 88.02L105.547 63.2267Z" fill="#FF8500"/>
<path d="M93.3595 72.1249L83.7728 79.124L98.2263 98.921L107.813 91.9219L93.3595 72.1249Z" fill="#FDD333"/>
<path d="M85.5168 61.3826L75.9302 68.3817L83.8081 79.1722L93.3948 72.1731L85.5168 61.3826Z" fill="#FDD333"/>
<path d="M80.8927 64.7587L78.7245 66.3417C73.8995 63.8797 70.1205 64.5709 67.6741 65.7678C66.374 66.3575 65.2114 67.2064 64.2537 68.265C63.9634 67.6135 63.8252 66.9066 63.8505 66.1951C63.9061 63.6421 65.6879 61.5298 68.0715 60.7493C75.7756 58.1558 80.8927 64.7587 80.8927 64.7587Z" fill="#FCC800"/>
<path d="M75.1132 68.9784L72.5582 70.8438C66.5797 71.9587 64.2513 68.267 64.2513 68.267C65.2089 67.2083 66.3716 66.3595 67.6716 65.7698C70.5778 69.0398 75.1132 68.9784 75.1132 68.9784Z" fill="#E3B400"/>
<path d="M80.6027 64.9703L82.7709 63.3873C81.8974 58.0441 83.707 54.6552 85.5929 52.6855C86.5505 51.6268 87.7132 50.778 89.0132 50.1883C88.4812 49.7133 87.8499 49.3664 87.1645 49.1738C84.7159 48.4491 82.1612 49.5027 80.6917 51.5353C75.8723 58.0851 80.6027 64.9703 80.6027 64.9703Z" fill="#FCC800"/>
<path d="M86.3364 60.7844L88.8889 58.9208C91.772 53.566 88.9649 50.2237 88.9649 50.2237C87.6649 50.8134 86.5022 51.6622 85.5446 52.7208C87.7739 56.485 86.3364 60.7844 86.3364 60.7844Z" fill="#E3B400"/>
<path opacity="0.15" d="M105.708 63.2689L71.6249 88.1522L73.2132 90.3277L107.296 65.4444L105.708 63.2689Z" fill="#131514"/>
</g>
</g>
<defs>
<clipPath id="clip0_2_4056">
<rect width="360" height="289" fill="white"/>
</clipPath>
</defs>
</svg>
