<svg width="360" height="342" viewBox="0 0 360 342" fill="none" xmlns="http://www.w3.org/2000/svg">
<g clip-path="url(#clip0_1_3967)">
<path d="M0 304.438C0 304.438 110.921 370.875 172.382 326.493C218.482 293.216 257.553 285.4 274.215 283.562C284.779 282.401 295.148 279.847 304.916 275.649C328.607 265.453 364.28 242.72 374.999 196.036V61.3413H0V304.438Z" fill="#2E2B9F"/>
<path d="M0 -48.8569V293.119C0 293.119 118.598 355.431 198.724 289.924C244.983 252.108 272.268 236.656 287.085 230.343C303.068 223.528 317.633 213.788 329.964 201.55C350.549 181.122 375.019 150.838 375.019 122.141V-48.8569H0Z" fill="#221F7A"/>
</g>
<defs>
<clipPath id="clip0_1_3967">
<rect width="360" height="342" fill="white"/>
</clipPath>
</defs>
</svg>
