<svg width="360" height="243" viewBox="0 0 360 243" fill="none" xmlns="http://www.w3.org/2000/svg">
<g clip-path="url(#clip0_2_4727)">
<path d="M0 222.264C0 222.264 106.78 259.165 165.947 234.514C210.326 216.032 247.939 211.69 263.978 210.669C274.148 210.025 284.13 208.606 293.533 206.274C316.34 200.611 350.681 187.985 361 162.055L361 -79L0 -79L0 222.264Z" fill="#030062"/>
<path d="M0 210.732C0 210.732 106.484 247.691 165.487 223.001C209.744 204.49 247.252 200.142 263.247 199.119C273.388 198.473 283.343 197.053 292.72 194.717C315.464 189.045 349.71 176.399 360 150.429L360 -91L0 -91L0 210.732Z" fill="#3531B3"/>
</g>
<defs>
<clipPath id="clip0_2_4727">
<rect width="360" height="243" fill="white"/>
</clipPath>
</defs>
</svg>
