<svg width="360" height="430" viewBox="0 0 360 430" fill="none" xmlns="http://www.w3.org/2000/svg">
<mask id="mask0_2_4750" style="mask-type:alpha" maskUnits="userSpaceOnUse" x="0" y="0" width="360" height="430">
<rect width="360" height="430" fill="#C4C4C4"/>
</mask>
<g mask="url(#mask0_2_4750)">
<path d="M-1.52588e-05 354.555C-1.52588e-05 354.555 106.484 418.522 165.487 375.791C209.744 343.751 247.252 336.226 263.247 334.456C273.388 333.339 283.343 330.88 292.72 326.838C315.464 317.021 349.709 295.133 360 250.185V-84H-1.52588e-05V354.555Z" fill="#2E2B9F"/>
<path d="M-1.52588e-05 332.555C-1.52588e-05 332.555 106.484 396.522 165.487 353.791C209.744 321.751 247.252 314.226 263.247 312.456C273.388 311.339 283.343 308.88 292.72 304.838C315.464 295.021 349.709 273.133 360 228.185V-106H-1.52588e-05V332.555Z" fill="#221F7A"/>
<path d="M98.3463 322.72C84.8521 328.391 64.2392 328.716 43.6562 315.579" stroke="#030062" stroke-width="6" stroke-linecap="round"/>
<circle cx="36.0218" cy="308.301" r="2.5" transform="rotate(-14.9406 36.0218 308.301)" fill="#030062" stroke="#030062"/>
<circle cx="28.8704" cy="300.895" r="2.5" transform="rotate(-14.9406 28.8704 300.895)" fill="#030062" stroke="#030062"/>
<ellipse rx="7.15873" ry="15.009" transform="matrix(0.678827 -0.734298 0.734892 0.678184 36.8895 276.435)" fill="#FF8500"/>
<path d="M215.587 299.63C248.947 315.396 267.495 361.709 252.99 392.401C238.484 423.092 190.878 438.266 157.518 422.499C124.157 406.733 105.145 360.075 119.65 329.383C134.155 298.692 182.226 283.863 215.587 299.63Z" fill="#221F7A"/>
<path d="M260 347.873C260 383.062 224.628 423 188.409 423C152.189 423 115 383.062 115 347.873C115 312.562 152.189 282 188.409 282C224.628 282 260 312.562 260 347.873Z" fill="#534ED9"/>
<path d="M248.383 234.534C255.176 231.466 258.124 223.314 254.968 216.326C251.812 209.338 243.746 206.16 236.953 209.228C230.161 212.296 227.212 220.448 230.369 227.436C233.525 234.424 241.59 237.602 248.383 234.534Z" fill="#FFCB48"/>
<path d="M235.645 227.939C235.874 228.533 236.524 228.821 237.117 228.592C237.71 228.364 237.999 227.714 237.77 227.12L236.956 225.009L238.653 224.355L241.734 226.179C242.118 226.396 242.512 226.513 242.995 226.327C243.505 226.13 243.853 225.553 243.625 224.959C243.497 224.628 243.274 224.46 242.966 224.278L240.798 223.053C241.785 222.118 242.188 220.901 241.597 219.37L241.587 219.342C241.23 218.418 240.673 217.793 239.908 217.453C239.01 217.055 237.944 217.085 236.716 217.559L233.363 218.851C232.769 219.079 232.481 219.729 232.71 220.323L235.645 227.939ZM236.233 223.133L235.164 220.359L237.275 219.546C238.324 219.142 239.12 219.358 239.477 220.282L239.487 220.31C239.806 221.138 239.434 221.899 238.386 222.303L236.233 223.133Z" fill="#FF931C"/>
<path d="M245.976 226.51C246.204 227.103 246.835 227.383 247.429 227.154C248.022 226.925 248.302 226.295 248.073 225.701L247.222 223.494C247.948 223.895 248.834 224.14 249.952 223.709C251.704 223.034 252.798 221.06 251.846 218.59L251.835 218.562C250.883 216.092 248.72 215.373 246.995 216.037C245.892 216.463 245.393 217.225 245.154 218.126L245.116 218.029C244.888 217.436 244.257 217.156 243.664 217.385C243.07 217.614 242.79 218.244 243.019 218.838L245.976 226.51ZM248.728 222.137C247.748 222.514 246.62 222.014 246.147 220.786L246.136 220.758C245.663 219.53 246.164 218.402 247.143 218.025C248.123 217.647 249.265 218.142 249.738 219.37L249.748 219.398C250.227 220.64 249.708 221.759 248.728 222.137Z" fill="#FF931C"/>
<path d="M330.884 154.076C338.275 148.83 339.891 138.414 334.495 130.811C329.098 123.208 318.732 121.297 311.342 126.543C303.951 131.789 302.334 142.205 307.731 149.808C313.127 157.411 323.493 159.322 330.884 154.076Z" fill="#FFCB48"/>
<path d="M314.145 149.178C314.556 149.832 315.399 150.025 316.053 149.614C316.708 149.202 316.901 148.359 316.489 147.705L315.026 145.375L316.899 144.199L321 145.657C321.509 145.825 322.007 145.874 322.54 145.539C323.103 145.185 323.383 144.415 322.972 143.76C322.743 143.395 322.437 143.247 322.027 143.101L319.155 142.145C320.114 140.799 320.311 139.253 319.249 137.563L319.23 137.532C318.589 136.512 317.778 135.896 316.786 135.67C315.621 135.404 314.356 135.689 313.001 136.54L309.301 138.864C308.646 139.275 308.454 140.118 308.865 140.773L314.145 149.178ZM313.725 143.304L311.803 140.244L314.132 138.781C315.29 138.054 316.29 138.126 316.931 139.146L316.95 139.176C317.524 140.09 317.258 141.086 316.101 141.812L313.725 143.304Z" fill="#FF931C"/>
<path d="M326.139 145.062C326.551 145.716 327.369 145.903 328.023 145.492C328.678 145.081 328.865 144.263 328.454 143.608L326.923 141.172C327.883 141.482 328.998 141.567 330.231 140.792C332.165 139.578 333.009 136.967 331.297 134.241L331.278 134.211C329.566 131.485 326.817 131.131 324.914 132.327C323.695 133.092 323.278 134.118 323.203 135.249L323.136 135.142C322.725 134.488 321.907 134.301 321.252 134.712C320.597 135.123 320.41 135.941 320.822 136.596L326.139 145.062ZM328.404 139.201C327.323 139.88 325.86 139.546 325.009 138.191L324.99 138.161C324.138 136.806 324.472 135.343 325.554 134.664C326.635 133.985 328.112 134.309 328.964 135.665L328.983 135.695C329.844 137.065 329.485 138.522 328.404 139.201Z" fill="#FF931C"/>
<path d="M89.5794 226.071C84.5019 231.875 76.3518 232.928 70.6288 229.761C69.4035 229.071 66.6852 226.733 65.9137 226.048C59.6814 220.55 61.1282 212.852 66.9294 206.255C72.7485 199.598 80.6118 196.997 86.8231 202.455C87.6754 203.197 90.1109 205.938 90.7516 206.844C94.7781 212.433 94.6214 220.386 89.5794 226.071Z" fill="#FF9A2E"/>
<path d="M88.8795 219.684C88.7664 219.845 88.7728 220.042 88.8955 220.176L91.8381 222.743C91.969 222.522 92.0611 222.322 92.171 222.062L89.3898 219.608C89.2284 219.495 89.0314 219.501 88.8795 219.684Z" fill="#EF7F18"/>
<path d="M90.5302 215.232C90.4171 215.394 90.4234 215.591 90.5461 215.725L93.387 218.197C93.4372 217.919 93.4874 217.641 93.4778 217.346L91.0017 215.178C90.8612 215.103 90.6642 215.11 90.5302 215.232Z" fill="#EF7F18"/>
<path d="M90.9206 212.065C90.8075 212.226 90.8138 212.423 90.9365 212.557L93.5353 214.859C93.5048 214.525 93.4742 214.191 93.4437 213.857L91.4131 212.049C91.2694 211.876 91.0337 211.903 90.9206 212.065Z" fill="#EF7F18"/>
<path d="M85.7681 223.472C85.655 223.634 85.6614 223.831 85.7841 223.965L88.951 226.761C89.1029 226.579 89.2757 226.435 89.4276 226.253L86.2606 223.456C86.1379 223.322 85.9022 223.35 85.7681 223.472Z" fill="#EF7F18"/>
<path d="M82.8039 226.329C82.6908 226.491 82.6972 226.688 82.8199 226.822L85.6818 229.332C85.9144 229.207 86.0872 229.063 86.3198 228.937L83.2755 226.275C83.1528 226.141 82.917 226.168 82.8039 226.329Z" fill="#EF7F18"/>
<path d="M79.7803 227.965C79.6672 228.127 79.6735 228.324 79.7962 228.458L82.4547 230.778C82.7083 230.69 82.9618 230.603 83.2154 230.516L80.2518 227.91C80.1291 227.776 79.8934 227.804 79.7803 227.965Z" fill="#EF7F18"/>
<path d="M76.3711 229.259C76.258 229.421 76.2643 229.618 76.387 229.752L78.3966 231.521C78.7309 231.49 79.0652 231.46 79.3607 231.45L76.8426 229.204C76.6812 229.091 76.4842 229.098 76.3711 229.259Z" fill="#EF7F18"/>
<path d="M65.7385 225.901C72.1048 231.49 81.9261 230.711 87.6752 224.162C93.4242 217.613 92.9238 207.773 86.5576 202.185C80.1914 196.596 70.37 197.375 64.621 203.924C58.872 210.473 59.3723 220.313 65.7385 225.901Z" fill="#FFCB48"/>
<path d="M66.579 209.621C66.0724 210.136 66.0793 210.944 66.5947 211.451C67.1101 211.957 67.9181 211.95 68.4247 211.435L70.2273 209.601L71.7015 211.05L71.2608 215.095C71.2176 215.594 71.281 216.057 71.7005 216.47C72.1439 216.906 72.9053 216.994 73.4119 216.479C73.6946 216.191 73.7633 215.881 73.8073 215.477L74.0565 212.658C75.4875 213.24 76.9361 213.085 78.2438 211.755L78.2674 211.731C79.0567 210.928 79.4414 210.057 79.4332 209.106C79.4236 207.989 78.8914 206.901 77.8247 205.852L74.9122 202.989C74.3969 202.483 73.5888 202.49 73.0822 203.005L66.579 209.621ZM71.8295 207.971L74.1975 205.562L76.0313 207.365C76.9422 208.26 77.0927 209.186 76.3034 209.989L76.2798 210.013C75.573 210.732 74.6101 210.705 73.6992 209.809L71.8295 207.971Z" fill="#FF931C"/>
<path d="M72.912 219.64C72.4054 220.155 72.4122 220.94 72.9276 221.446C73.4429 221.953 74.2272 221.946 74.7338 221.431L76.6188 219.513C76.5437 220.453 76.7071 221.485 77.6779 222.439C79.2 223.936 81.7569 224.14 83.8657 221.994L83.8893 221.97C85.9981 219.825 85.7264 217.248 84.2282 215.776C83.2694 214.833 82.246 214.676 81.2017 214.851L81.2842 214.767C81.7908 214.252 81.784 213.467 81.2686 212.961C80.7533 212.454 79.969 212.461 79.4624 212.976L72.912 219.64ZM78.7302 220.434C77.8793 219.597 77.8672 218.195 78.9157 217.129L78.9393 217.105C79.9878 216.038 81.3901 216.026 82.241 216.862C83.092 217.699 83.116 219.113 82.0675 220.179L82.0439 220.203C80.9836 221.282 79.5812 221.27 78.7302 220.434Z" fill="#FF931C"/>
<path d="M166.242 126.598C165.028 138.15 155.907 146.519 146.113 147.585C144.006 147.799 138.631 147.28 137.087 147.106C124.644 145.746 119.745 135.013 121.162 121.857C122.55 108.612 129.973 98.5866 142.356 99.9172C144.049 100.091 149.426 101.352 151.001 101.912C160.808 105.298 167.516 115.224 166.242 126.598Z" fill="#FF9A2E"/>
<path d="M159.838 119.343C159.839 119.64 160.018 119.877 160.285 119.936L166.135 120.543C166.105 120.157 166.044 119.831 165.954 119.415L160.401 118.807C160.104 118.808 159.867 118.987 159.838 119.343Z" fill="#EF7F18"/>
<path d="M158.008 112.431C158.009 112.728 158.187 112.965 158.455 113.023L164.097 113.601C163.918 113.216 163.739 112.83 163.47 112.475L158.541 111.954C158.303 111.985 158.066 112.164 158.008 112.431Z" fill="#EF7F18"/>
<path d="M155.739 108.192C155.74 108.489 155.919 108.726 156.186 108.785L161.383 109.364C161.056 108.979 160.728 108.594 160.4 108.209L156.332 107.745C156.005 107.657 155.739 107.895 155.739 108.192Z" fill="#EF7F18"/>
<path d="M159.295 126.707C159.296 127.004 159.475 127.241 159.742 127.299L166.068 127.994C166.096 127.638 166.184 127.311 166.213 126.954L159.888 126.26C159.62 126.201 159.354 126.439 159.295 126.707Z" fill="#EF7F18"/>
<path d="M158.125 132.796C158.126 133.093 158.305 133.33 158.572 133.389L164.274 133.996C164.451 133.639 164.539 133.313 164.716 132.956L158.658 132.32C158.391 132.261 158.124 132.499 158.125 132.796Z" fill="#EF7F18"/>
<path d="M155.822 137.434C155.823 137.731 156.002 137.968 156.269 138.027L161.555 138.576C161.792 138.248 162.028 137.921 162.265 137.594L156.355 136.958C156.088 136.899 155.821 137.137 155.822 137.434Z" fill="#EF7F18"/>
<path d="M152.748 141.986C152.749 142.283 152.927 142.52 153.195 142.578L157.204 143.012C157.589 142.685 157.974 142.357 158.329 142.089L153.281 141.509C152.984 141.51 152.747 141.689 152.748 141.986Z" fill="#EF7F18"/>
<path d="M136.744 147.078C149.431 148.434 160.847 138.953 162.241 125.902C163.636 112.85 154.482 101.171 141.795 99.8151C129.108 98.4594 117.693 107.941 116.298 120.992C114.903 134.043 124.058 145.723 136.744 147.078Z" fill="#FFCB48"/>
<path d="M123.652 126.306C123.475 127.38 124.185 128.368 125.259 128.545C126.333 128.721 127.322 128.012 127.499 126.938L128.126 123.116L131.199 123.621L134.166 128.982C134.546 129.635 135.026 130.15 135.9 130.293C136.824 130.445 137.838 129.893 138.015 128.819C138.113 128.22 137.929 127.779 137.632 127.243L135.493 123.557C137.76 123.031 139.409 121.583 139.864 118.811L139.873 118.761C140.148 117.087 139.865 115.681 139.03 114.518C138.049 113.151 136.449 112.273 134.226 111.907L128.157 110.91C127.082 110.734 126.094 111.444 125.917 112.518L123.652 126.306ZM128.685 119.719L129.509 114.698L133.331 115.326C135.229 115.638 136.218 116.647 135.943 118.32L135.935 118.37C135.689 119.869 134.48 120.671 132.581 120.359L128.685 119.719Z" fill="#FF931C"/>
<path d="M140.143 133.145C139.966 134.219 140.655 135.179 141.729 135.355C142.803 135.532 143.763 134.843 143.939 133.769L144.596 129.772C145.319 130.994 146.416 132.123 148.439 132.456C151.611 132.977 154.936 131.009 155.671 126.538L155.679 126.488C156.413 122.017 153.843 119.081 150.721 118.568C148.723 118.24 147.326 118.934 146.192 120.056L146.221 119.881C146.398 118.807 145.709 117.847 144.635 117.671C143.561 117.494 142.601 118.183 142.424 119.257L140.143 133.145ZM147.994 129.074C146.221 128.782 144.989 127.066 145.355 124.843L145.363 124.793C145.728 122.57 147.444 121.339 149.217 121.63C150.991 121.921 152.247 123.641 151.882 125.864L151.874 125.914C151.505 128.162 149.768 129.365 147.994 129.074Z" fill="#FF931C"/>
<path d="M241.276 179.222C241.276 179.222 240.529 172.032 243.89 164.049C246.622 157.566 256.358 139.631 258.335 134.417C261.961 124.88 262.252 116.479 262.252 116.479L289.993 108.94C289.993 108.94 290.173 116.547 288.304 124.577C286.405 132.711 274.571 147.291 272.5 158.435C271.162 165.646 274.003 178.476 274.003 178.476L241.276 179.222Z" fill="#0EAE3D"/>
<g opacity="0.6">
<path d="M263.501 117.525L263.431 118.05C263.418 118.148 262.089 127.685 260.08 132.958C258.665 136.659 255.572 142.931 252.576 148.992C250.31 153.587 248.161 157.93 246.803 161.044C242.446 171 243.315 176.307 243.349 176.529L243.436 177.042L271.143 176.933L270.95 176.011C270.929 175.914 268.98 166.386 269.948 160.752C271.239 153.252 274.977 147.105 278.597 141.157C281.181 136.907 283.633 132.891 285.264 128.406C287.099 123.375 287.904 119.014 288.27 116.236C288.661 113.21 288.618 111.399 288.618 111.324L288.595 110.517L263.501 117.525ZM268.552 160.667C267.981 164.015 268.354 168.521 268.801 171.859C267.954 171.811 266.759 172.097 266.292 172.557C265.184 173.643 265.444 174.808 266.52 175.531L248.52 175.605C248.547 175.558 248.573 175.523 248.594 175.47C249.822 173.066 246.874 171.578 244.828 172.596C244.839 172.533 244.843 172.475 244.849 172.406C245.127 170.159 245.923 166.435 248.098 161.471C249.447 158.386 251.583 154.066 253.842 149.489C254.102 148.963 254.361 148.437 254.621 147.911C254.685 150.329 256.435 152.523 261.155 152.734C265.515 152.93 270.031 150.602 273.066 148.026C271.04 151.889 269.346 156.008 268.552 160.667ZM283.94 128.061C282.361 132.388 279.955 136.339 277.41 140.52C277.167 140.913 276.929 141.312 276.686 141.706C276.308 138.875 273.529 136.096 269.908 136.233C266.304 136.375 261.524 137.296 258.079 140.788C259.467 137.868 260.66 135.253 261.398 133.309C262.806 129.613 263.871 124.067 264.414 120.777C265.075 121.302 265.794 121.367 266.701 120.581C267.416 119.958 268.015 118.69 267.381 117.969C267.355 117.941 267.323 117.908 267.29 117.886L284.708 113.027C282.956 114.998 285.094 116.563 286.995 114.959C286.706 117.941 285.921 122.623 283.94 128.061Z" fill="#333333"/>
<path d="M255.989 163.787C255.832 164.619 256.642 165.363 257.796 165.457C258.956 165.545 260.02 164.948 260.182 164.122C260.339 163.29 259.529 162.546 258.375 162.452C257.221 162.358 256.151 162.961 255.989 163.787Z" fill="#333333"/>
<path d="M274.258 121.494C273.079 121.584 272.095 122.327 272.065 123.154C272.029 123.987 272.954 124.589 274.139 124.504C275.319 124.413 276.302 123.67 276.332 122.843C276.357 122.01 275.432 121.409 274.258 121.494Z" fill="#333333"/>
</g>
<path d="M329.09 213.658L354.015 215.561L356.571 215.153C361.005 214.29 364.517 213.006 369.52 207.072C374.396 201.3 375.771 187.183 375.771 187.183C375.771 187.183 369.81 190.689 360.329 191.014C350.848 191.34 347.313 189.885 347.313 189.885C347.313 189.885 347.793 199.342 344.01 204.278C339.306 210.444 329.09 213.658 329.09 213.658Z" fill="#089531"/>
<path d="M339.398 210.91C339.422 210.902 339.623 210.837 339.962 210.698C341.083 212.166 346.342 214.539 346.342 214.539L349.805 214.754L350.021 215.752C358.754 214.528 364.854 211.32 368.16 206.217C369.792 203.694 371.138 200.415 372.158 196.477C372.917 193.556 373.188 191.395 373.203 191.306L373.342 190.178L372.23 190.425C372.166 190.442 365.378 191.945 361.676 192.272C356.658 192.718 349.833 191.619 349.76 191.611L348.888 191.471L348.828 192.35C348.828 192.398 348.476 197.324 346.932 201.264C345.913 203.873 344.254 206.033 342.003 207.681C340.315 208.923 338.905 209.39 338.889 209.39L339.398 210.91ZM348.436 201.844C349.685 198.647 350.19 194.961 350.359 193.316C352.386 193.604 357.619 194.244 361.822 193.866C364.726 193.609 369.305 192.681 371.433 192.235C370.995 194.743 369.696 200.89 366.807 205.354C364.366 209.114 360.202 212.151 354.384 213.794C356.046 212.222 356.734 209.503 352.395 208.688C348.493 207.96 345.549 208.161 343.38 208.649C345.052 207.334 347.138 205.163 348.436 201.844Z" fill="#333333" fill-opacity="0.8"/>
<path d="M357.011 202.635C358.214 202.75 359.252 202.188 359.328 201.382C359.405 200.576 358.489 199.831 357.286 199.717C356.082 199.603 355.044 200.164 354.968 200.97C354.892 201.777 355.808 202.521 357.011 202.635Z" fill="#333333" fill-opacity="0.8"/>
<path d="M356.571 215.153C356.571 215.153 350.831 216.304 341.163 208.943C334.987 204.247 324.043 189.375 324.043 189.375C324.043 189.375 321.508 193.659 316.635 196.933C308.715 202.255 304.074 203.754 304.074 203.754C304.074 203.754 309.708 211.258 317.729 213.914C337.068 220.319 356.571 215.153 356.571 215.153Z" fill="#0EAE3D"/>
<path d="M306.891 205.254C307.126 205.478 312.74 210.854 319.327 213.961C320.29 214.415 321.301 214.845 322.344 215.242C325.447 216.007 328.517 216.498 331.472 216.796C333.298 217.116 335.462 217.338 339.457 217.292C344.275 217.242 348.968 216.539 348.968 216.539C350.242 216.387 351.242 216.188 352.242 216.022C349.461 215.255 344.198 213.479 339.514 209.991C335.105 206.703 325.057 193.197 324.951 193.06L324.431 192.362L323.821 192.978C323.789 193.01 320.217 196.599 316.672 199.189C311.969 202.623 307.247 203.995 307.199 204.011L305.958 204.364L306.891 205.254ZM317.558 200.385C320.355 198.347 323.085 195.778 324.274 194.627C326.42 197.484 334.581 208.165 338.624 211.181C341.736 213.5 345.151 215.093 347.763 216.103C345.063 215.247 339.002 213.814 334.672 214.466C329.656 215.226 328.345 216.079 330.123 216.529C327.223 216.11 323.709 215.412 319.393 212.808C314.81 210.037 310.7 206.667 308.843 205.025C310.623 204.379 314.061 202.934 317.558 200.385Z" fill="#333333" fill-opacity="0.6"/>
<path d="M322.941 209.155C323.97 208.52 324.457 207.446 324.033 206.755C323.61 206.065 322.423 206.023 321.394 206.657C320.364 207.291 319.877 208.365 320.301 209.056C320.732 209.739 321.911 209.789 322.941 209.155Z" fill="#333333" fill-opacity="0.6"/>
<path d="M25.5011 101.169C52.3195 110.334 75.7643 126.135 94.6084 147.178C87.7632 157.474 80.9171 167.768 74.071 178.063C54.976 157.299 31.3357 141.831 4.39352 133.028C11.4291 122.407 18.4646 111.787 25.5011 101.169Z" fill="#0EAE3D"/>
<path opacity="0.6" d="M26.8635 105.278C26.9101 105.283 26.9575 105.294 27.0019 105.309C51.2309 114.181 72.5847 128.501 90.1935 147.257C90.3039 147.375 90.3705 147.547 90.379 147.735C90.3875 147.924 90.3369 148.111 90.2398 148.259C84.8979 156.292 79.555 164.323 74.2112 172.357C74.0081 172.663 73.6564 172.716 73.4223 172.47C55.633 153.926 34.1336 139.853 9.80726 131.246C9.65906 131.194 9.55497 131.084 9.52191 130.94C9.48691 130.796 9.52435 130.631 9.62439 130.48C15.1038 122.213 20.5831 113.946 26.0653 105.68C26.2442 105.408 26.5778 105.249 26.8635 105.278ZM89.0389 147.922C71.6367 129.536 50.6173 115.461 26.8047 106.652C21.5772 114.535 16.3515 122.416 11.1268 130.299C35.0272 138.868 56.176 152.723 73.7426 170.918C78.8411 163.252 83.9405 155.588 89.0389 147.922Z" fill="#333333"/>
<path opacity="0.6" d="M15.3787 132.586C17.2455 129.807 16.5614 126.325 13.7143 125.354C12.5372 127.128 11.363 128.903 10.186 130.677C11.9277 131.289 13.657 131.925 15.3787 132.586ZM31.7946 107.844C29.8434 110.685 25.9885 112.311 23.0967 111.2C24.2718 109.427 25.4488 107.653 26.6239 105.88C28.3562 106.513 30.0792 107.166 31.7946 107.844ZM69.8318 167.882C71.7119 165.024 75.2225 164.578 77.2338 166.739C76.0862 168.464 74.9397 170.187 73.7921 171.912C72.4932 170.546 71.1754 169.201 69.8318 167.882ZM85.9006 143.733C83.8687 146.664 84.3828 150.756 86.384 152.982C87.5305 151.26 88.6781 149.535 89.8237 147.81C88.5368 146.43 87.2321 145.067 85.9006 143.733ZM43.065 129.462C46.8338 123.802 54.2822 121.438 59.3095 124.765C64.3032 128.071 65.1355 135.8 61.3714 141.46C57.5811 147.161 50.4006 148.687 45.5037 145.511C40.5759 142.315 39.2708 135.165 43.065 129.462Z" fill="#333333"/>
<path d="M293.024 264.284C306.026 258.689 310.71 245.965 304.889 239.602C299.101 233.277 284.426 234.856 279.888 248.732C277.151 257.103 270.624 260.737 265.876 262.302C264.411 262.785 264.456 264.849 265.936 265.243C277.054 268.195 286.185 267.226 293.02 264.286C293.022 264.285 293.022 264.285 293.024 264.284Z" fill="#030062"/>
<path d="M90.165 252.74C87.6894 263.788 119.969 288.721 142.003 271.166C143.084 270.303 142.472 268.569 141.089 268.559C136.047 268.523 127.393 266.686 120.228 256.138C113.313 245.962 103.793 243.773 97.2926 245.828C93.6041 246.994 90.887 249.526 90.165 252.74Z" fill="white"/>
<path d="M217.057 187.989C223.061 169.951 217.917 155.035 209.177 156.138C200.489 157.235 190.481 173.87 196.522 189.54C200.166 198.993 197.714 208.697 195.197 214.907C194.419 216.824 195.862 218.399 197.249 217.156C207.662 207.815 213.899 197.475 217.055 187.994C217.056 187.992 217.056 187.992 217.057 187.989Z" fill="#B22DA4"/>
<path d="M239.16 289.139L241.792 273.201L239.19 269.57L223.396 264.401L204.281 259.964L182.26 257.609L165.438 258.672L161.874 276.377L164.117 278.303L163.397 282.666L153.03 295.04L141.195 366.716L143.391 376.683L156.697 385.283L207.079 394.242L220.889 392.041L229.391 383.2L231.855 364.399L241.015 308.928L236.32 294.707L235.588 291.384L239.16 289.139Z" fill="#3531B3"/>
<path d="M207.131 287.769C213.445 283.808 215.26 275.331 211.186 268.836C207.111 262.34 198.689 260.285 192.375 264.246C186.061 268.207 184.246 276.684 188.32 283.179C192.395 289.675 200.817 291.729 207.131 287.769Z" fill="#FFCB48"/>
<path d="M193.616 282.962C193.923 283.519 194.606 283.717 195.163 283.41C195.72 283.103 195.917 282.42 195.61 281.863L194.518 279.881L196.111 279.003L199.41 280.393C199.82 280.555 200.226 280.618 200.68 280.368C201.159 280.104 201.425 279.484 201.118 278.927C200.947 278.617 200.703 278.481 200.373 278.342L198.059 277.422C198.91 276.362 199.144 275.102 198.351 273.665L198.337 273.639C197.859 272.771 197.221 272.227 196.418 271.995C195.474 271.722 194.422 271.897 193.269 272.532L190.122 274.267C189.566 274.574 189.368 275.257 189.675 275.814L193.616 282.962ZM193.547 278.12L192.112 275.517L194.093 274.425C195.077 273.882 195.896 273.988 196.374 274.856L196.388 274.882C196.817 275.659 196.551 276.464 195.567 277.006L193.547 278.12Z" fill="#FF931C"/>
<path d="M203.658 280.145C203.965 280.701 204.628 280.893 205.185 280.586C205.741 280.279 205.933 279.616 205.626 279.059L204.484 276.987C205.257 277.287 206.169 277.409 207.217 276.831C208.862 275.924 209.678 273.82 208.399 271.502L208.385 271.476C207.107 269.158 204.866 268.739 203.248 269.631C202.212 270.202 201.821 271.025 201.706 271.95L201.656 271.859C201.349 271.302 200.686 271.111 200.13 271.418C199.573 271.725 199.381 272.388 199.688 272.945L203.658 280.145ZM205.791 275.439C204.872 275.946 203.687 275.603 203.051 274.451L203.037 274.425C202.402 273.272 202.744 272.087 203.664 271.58C204.583 271.073 205.781 271.409 206.417 272.561L206.431 272.587C207.074 273.753 206.711 274.932 205.791 275.439Z" fill="#FF931C"/>
<path fill-rule="evenodd" clip-rule="evenodd" d="M229.557 267.529C222.633 265.305 213.585 263.202 204.08 261.607C203.872 261.572 203.661 261.537 203.452 261.502L203.45 261.502C194.072 259.953 184.978 259.024 177.844 258.884C171.223 258.755 168.172 259.329 166.845 259.746C166.9 259.787 166.958 259.829 167.021 259.873L163.9 259.357C163.902 259.323 163.906 259.288 163.911 259.254C164.51 255.689 182.317 255.698 203.826 259.249C204.035 259.284 204.248 259.319 204.458 259.354C226.04 262.976 243.094 268.781 242.829 272.391L242.829 272.391C242.827 272.425 242.823 272.46 242.818 272.494L242.814 272.513L241.454 282.516L240.855 282.417L240.854 282.418L241.454 282.517L240.526 289.34L240.496 289.336C240.352 290.195 239.194 290.845 237.214 291.285L237.507 291.334L237.328 292.416C237.284 292.68 237.82 293.989 238.57 295.822C240.317 300.088 243.223 307.188 242.672 310.524L230.882 381.93C228.876 394.073 211.454 396.245 206.688 395.458L182.566 391.476L158.445 387.493C153.678 386.705 137.879 379.048 139.884 366.905L151.675 295.499C152.343 291.451 157.574 285.727 160.534 282.487C161.702 281.209 162.516 280.318 162.557 280.069L162.785 278.691C161.21 277.683 160.413 276.742 160.551 275.922L161.872 269.376L162.513 269.482L162.513 269.482L161.936 269.386L162.108 268.501C162.091 268.357 162.122 268.219 162.185 268.102L163.867 259.458L163.899 259.504C163.896 259.455 163.897 259.406 163.9 259.358L167.021 259.873C168.249 260.736 171.032 262.247 177.171 264.219C184.095 266.444 193.143 268.547 202.648 270.142C202.856 270.177 203.066 270.212 203.273 270.246L203.274 270.246C212.653 271.795 221.748 272.725 228.883 272.864C235.504 272.994 238.556 272.419 239.882 272.001C239.828 271.961 239.769 271.919 239.707 271.875L239.708 271.875C238.479 271.012 235.696 269.501 229.557 267.529ZM165.797 280.286L165.746 280.597C165.548 281.792 164.939 282.459 162.923 284.666L162.919 284.67C161.474 286.251 159.496 288.417 157.828 290.635C155.515 293.71 154.979 295.333 154.864 296.027L143.074 367.432C142.721 369.567 143.068 371.596 144.133 373.635C145.098 375.48 146.626 377.271 148.677 378.957C152.461 382.068 157.057 383.985 158.972 384.301L183.093 388.284L207.215 392.267C209.129 392.583 214.098 392.246 218.681 390.516C221.166 389.579 223.189 388.375 224.696 386.937C226.36 385.348 227.34 383.539 227.693 381.404L239.483 309.998C239.538 309.667 239.622 308.294 238.405 304.51C237.569 301.908 236.422 299.105 235.583 297.056L235.578 297.044L235.578 297.043C234.292 293.902 233.946 293.058 234.139 291.889L234.163 291.743C226.95 292.442 214.316 291.608 200.078 289.257C199.862 289.221 199.646 289.185 199.429 289.149C184.961 286.721 172.498 283.341 165.797 280.286ZM240.258 274.383L240.498 274.206C234.942 275.915 220.106 275.34 202.903 272.5C202.693 272.465 202.481 272.43 202.271 272.395C184.33 269.385 169.519 264.865 165.184 261.352L165.683 262.07L164.475 268.282C164.894 268.926 166.685 270.679 174.273 273.293C181.295 275.713 190.776 277.987 200.968 279.697C211.158 281.408 220.865 282.352 228.293 282.357C238.53 282.364 239.394 280.616 239.397 280.599L239.475 280.139L240.258 274.383ZM238.399 288.052L239.025 283.45C237.143 284.139 233.928 284.636 228.429 284.641C221.01 284.648 211.364 283.729 201.205 282.052C201.103 282.035 201 282.018 200.898 282C200.795 281.983 200.692 281.966 200.589 281.949C190.205 280.207 180.548 277.883 173.397 275.407C168.33 273.653 165.469 272.165 163.889 270.918L162.886 275.89C163.416 276.44 165.673 278.261 173.979 280.913C181.001 283.154 190.174 285.279 199.809 286.896C200.024 286.932 200.238 286.967 200.452 287.003C209.958 288.572 219.174 289.521 226.402 289.676C235.011 289.86 237.67 288.871 238.318 288.536L238.399 288.052Z" fill="#8884F3"/>
<rect width="2.55064" height="30.8968" rx="1.27532" transform="matrix(-0.987795 -0.15576 -0.155394 0.987853 162.156 310.434)" fill="white" fill-opacity="0.3"/>
<rect width="2.55064" height="6.15928" rx="1.27532" transform="matrix(-0.987795 -0.15576 -0.155394 0.987853 164.239 300.203)" fill="white" fill-opacity="0.3"/>
<path d="M161.559 353.76C184.726 360.293 208.549 364.252 232.585 365.565C234.772 352.407 236.958 339.248 239.145 326.09C215.11 324.777 191.288 320.818 168.12 314.286C165.933 327.444 163.746 340.602 161.559 353.76Z" fill="#FF8500"/>
<path d="M124.14 182.87L136.216 187.462L122.167 195.639L124.14 182.87Z" fill="#534ED9"/>
<path d="M163.603 238.169L169.387 234.92L150.591 201.46L142.224 206.437L131.539 188.99L125.881 192.456L139.988 215.489L148.137 210.639L163.603 238.169Z" fill="#534ED9"/>
</g>
</svg>
