<svg width="360" height="390" viewBox="0 0 360 390" fill="none" xmlns="http://www.w3.org/2000/svg">
<mask id="mask0_2_4715" style="mask-type:alpha" maskUnits="userSpaceOnUse" x="0" y="0" width="360" height="390">
<rect width="360" height="390" fill="#C4C4C4"/>
</mask>
<g mask="url(#mask0_2_4715)">
<path d="M0 314.555C0 314.555 106.484 378.522 165.487 335.791C209.744 303.751 247.252 296.226 263.247 294.456C273.388 293.339 283.343 290.88 292.72 286.838C315.464 277.021 349.71 255.133 360 210.185V-124H0V314.555Z" fill="#390557"/>
<path d="M0 292.555C0 292.555 106.484 356.522 165.487 313.791C209.744 281.751 247.252 274.226 263.247 272.456C273.388 271.339 283.343 268.88 292.72 264.838C315.464 255.021 349.71 233.133 360 188.185V-146H0V292.555Z" fill="#540A7F"/>
<path d="M81.6757 197.154C82.5888 203.878 78.5738 209.891 73.1638 211.855C71.9977 212.269 68.8755 212.719 67.975 212.835C60.7252 213.789 56.4564 208.377 55.4363 200.715C54.3868 193.007 57.2089 186.288 64.4209 185.325C65.4056 185.189 68.6319 185.159 69.6033 185.258C75.638 185.82 80.8213 190.522 81.6757 197.154Z" fill="#FF9A2E"/>
<path d="M77.0355 193.925C77.0772 194.093 77.2115 194.203 77.3714 194.199L80.7754 193.732C80.7045 193.517 80.625 193.34 80.5161 193.117L77.2804 193.542C77.1121 193.584 77.0024 193.718 77.0355 193.925Z" fill="#EF7F18"/>
<path d="M75.0382 190.256C75.0799 190.424 75.2142 190.534 75.3741 190.53L78.6561 190.076C78.501 189.882 78.3458 189.688 78.1443 189.523L75.2746 189.912C75.1441 189.962 75.0344 190.096 75.0382 190.256Z" fill="#EF7F18"/>
<path d="M73.1632 188.165C73.2048 188.333 73.3391 188.443 73.499 188.439L76.5285 188.047C76.2892 187.874 76.0498 187.701 75.8105 187.528L73.4374 187.829C73.2397 187.825 73.1215 187.997 73.1632 188.165Z" fill="#EF7F18"/>
<path d="M77.7487 198.179C77.7903 198.347 77.9247 198.457 78.0845 198.453L81.7705 197.97C81.7373 197.764 81.742 197.566 81.7089 197.36L78.0229 197.843C77.8631 197.847 77.7449 198.019 77.7487 198.179Z" fill="#EF7F18"/>
<path d="M77.9291 201.797C77.9708 201.965 78.1051 202.075 78.2649 202.071L81.5848 201.625C81.6359 201.398 81.6406 201.2 81.6916 200.973L78.1655 201.452C78.0057 201.456 77.8875 201.628 77.9291 201.797Z" fill="#EF7F18"/>
<path d="M77.2656 204.748C77.3073 204.916 77.4416 205.026 77.6014 205.022L80.6773 204.601C80.7662 204.382 80.855 204.164 80.9439 203.945L77.502 204.404C77.3422 204.408 77.224 204.58 77.2656 204.748Z" fill="#EF7F18"/>
<path d="M76.152 207.757C76.1937 207.926 76.328 208.035 76.4878 208.031L78.8231 207.722C78.9962 207.482 79.1692 207.243 79.3338 207.042L76.3884 207.413C76.2201 207.455 76.1104 207.589 76.152 207.757Z" fill="#EF7F18"/>
<path d="M67.7768 212.867C75.1644 211.877 80.3274 204.913 79.3089 197.313C78.2903 189.713 71.4757 184.355 64.0882 185.345C56.7006 186.335 51.5375 193.299 52.5561 200.899C53.5747 208.499 60.3892 213.857 67.7768 212.867Z" fill="#FFCB48"/>
<path d="M57.4663 202.895C57.5151 203.528 58.055 203.991 58.689 203.942C59.323 203.894 59.7857 203.354 59.7369 202.72L59.5632 200.464L61.3767 200.324L63.8039 202.955C64.1102 203.273 64.4539 203.498 64.9699 203.459C65.5154 203.417 66.0144 202.963 65.9656 202.329C65.9383 201.975 65.7727 201.751 65.53 201.488L63.8048 199.692C65.0183 199.08 65.7532 198.029 65.6271 196.393L65.6249 196.363C65.5488 195.376 65.1937 194.617 64.5586 194.073C63.8123 193.433 62.7824 193.156 61.4702 193.257L57.8875 193.533C57.2535 193.582 56.7908 194.122 56.8396 194.756L57.4663 202.895ZM59.4087 198.459L59.1805 195.495L61.4364 195.321C62.5569 195.235 63.2578 195.671 63.3339 196.658L63.3362 196.688C63.4043 197.573 62.8293 198.195 61.7088 198.282L59.4087 198.459Z" fill="#FF931C"/>
<path d="M67.7731 204.489C67.8219 205.123 68.3459 205.572 68.9799 205.523C69.6139 205.474 70.063 204.95 70.0141 204.316L69.8325 201.957C70.4121 202.55 71.1913 203.039 72.3855 202.947C74.258 202.803 75.8718 201.225 75.6686 198.586L75.6663 198.556C75.4631 195.917 73.5973 194.607 71.7543 194.749C70.5748 194.84 69.8785 195.428 69.3908 196.222L69.3829 196.119C69.3341 195.485 68.8101 195.035 68.1761 195.084C67.5421 195.133 67.093 195.657 67.1418 196.291L67.7731 204.489ZM71.6641 201.089C70.6173 201.17 69.6804 200.367 69.5793 199.055L69.5771 199.025C69.476 197.713 70.2789 196.776 71.3257 196.696C72.3726 196.615 73.3242 197.417 73.4252 198.729L73.4275 198.759C73.5297 200.085 72.7109 201.009 71.6641 201.089Z" fill="#FF931C"/>
<path d="M281.945 249.431C294.946 243.836 299.63 231.112 293.809 224.749C288.022 218.423 273.347 220.003 268.809 233.879C266.071 242.25 259.544 245.883 254.797 247.449C253.331 247.932 253.377 249.996 254.857 250.39C265.975 253.342 275.106 252.373 281.941 249.433C281.943 249.432 281.943 249.432 281.945 249.431Z" fill="white"/>
<path d="M206.455 141.468C206.487 122.458 196.916 109.913 188.966 113.706C181.062 117.478 176.788 136.415 187.446 149.394C193.876 157.223 194.598 167.205 194.159 173.892C194.023 175.956 195.888 176.998 196.814 175.383C203.765 163.243 206.437 151.467 206.455 141.474C206.455 141.471 206.455 141.471 206.455 141.468Z" fill="#FF8500"/>
<path d="M277.084 147.553L274.212 144.451L277.603 141.433L280.476 144.536L277.084 147.553Z" fill="#3531B3"/>
<path d="M282.813 143.55L282.263 142.954L280.529 141.08L280.505 141.056L279.386 139.847L278.831 139.247C278.514 138.904 277.976 138.875 277.631 139.182L276.284 140.38C275.939 140.688 275.916 141.214 276.234 141.557L276.789 142.157L277.376 142.792L277.908 143.366L278.518 144.025L279.073 144.625L279.66 145.26L280.215 145.86L280.216 145.859C280.534 146.193 281.066 146.22 281.407 145.916L282.753 144.718C283.098 144.413 283.124 143.892 282.813 143.55Z" fill="#FF8500"/>
<path d="M270.457 134.913L264.098 133.09L262.164 139.835L268.523 141.659L270.457 134.913Z" fill="#3531B3"/>
<path d="M253.506 182.014C265.936 185.579 278.839 178.611 282.325 166.451C285.812 154.291 278.562 141.545 266.133 137.98C253.703 134.416 240.8 141.384 237.313 153.544C233.827 165.704 241.076 178.45 253.506 182.014Z" fill="#FF8500"/>
<path d="M254.322 179.167C265.168 182.277 276.426 176.197 279.469 165.588C282.511 154.978 276.185 143.856 265.34 140.746C254.494 137.636 243.236 143.716 240.193 154.326C237.151 164.935 243.477 176.057 254.322 179.167Z" fill="white"/>
<path d="M264.977 144.985C265.092 144.582 264.853 144.159 264.444 144.041C264.034 143.924 263.607 144.156 263.491 144.559L259.236 159.399L249.916 161.617C249.713 161.665 249.541 161.791 249.434 161.967C249.328 162.143 249.298 162.349 249.35 162.548C249.421 162.824 249.635 163.027 249.894 163.102C250.019 163.137 250.156 163.142 250.291 163.111L260.035 160.792C260.334 160.72 260.559 160.484 260.612 160.185C260.621 160.165 260.628 160.144 260.634 160.123L264.975 144.985L264.977 144.985Z" fill="#030062"/>
<path d="M272.704 131.721L272.688 131.714L271.474 131.366L270.174 130.994L268.943 130.641L267.643 130.268L266.412 129.915L265.112 129.542L263.882 129.189C263.178 128.987 262.449 129.382 262.252 130.069L261.484 132.747C261.287 133.434 261.696 134.155 262.4 134.357L263.631 134.71L264.931 135.082L266.161 135.435L267.461 135.808L268.692 136.161L269.992 136.534L271.206 136.882L271.223 136.887L271.223 136.885C271.92 137.075 272.641 136.683 272.837 136.001L273.604 133.324C273.799 132.643 273.397 131.927 272.704 131.721Z" fill="#FF8500"/>
<path d="M215.587 259.63C248.947 275.397 267.495 321.709 252.99 352.401C238.484 383.093 190.878 398.266 157.518 382.499C124.157 366.733 105.145 320.075 119.65 289.383C134.155 258.692 182.226 243.864 215.587 259.63Z" fill="#200032"/>
<path d="M260 307.873C260 343.062 224.628 383 188.409 383C152.189 383 115 343.062 115 307.873C115 272.562 152.189 242 188.409 242C224.628 242 260 272.562 260 307.873Z" fill="#AA4CE0"/>
<path d="M75.165 232.739C72.6894 243.788 104.969 268.721 127.003 251.166C128.084 250.303 127.472 248.569 126.089 248.558C121.047 248.523 112.393 246.686 105.228 236.138C98.3133 225.962 88.7928 223.773 82.2926 225.828C78.6041 226.994 75.8871 229.526 75.165 232.739Z" fill="#3531B3"/>
<path d="M102 297C82 297 65.7901 293.688 45.2072 280.551" stroke="#540A7F" stroke-width="6" stroke-linecap="round"/>
<circle cx="37.5727" cy="273.273" r="2.5" transform="rotate(-14.9406 37.5727 273.273)" fill="#540A7F" stroke="#540A7F"/>
<circle cx="30.4214" cy="265.867" r="2.5" transform="rotate(-14.9406 30.4214 265.867)" fill="#540A7F" stroke="#540A7F"/>
<path d="M337.934 186.651L359.309 173.691L361.15 171.871C364.254 168.589 366.362 165.501 366.977 157.763C367.582 150.232 360.484 137.952 360.484 137.952C360.484 137.952 357.677 144.272 350.157 150.055C342.637 155.838 338.915 156.712 338.915 156.712C338.915 156.712 344.81 164.124 344.607 170.339C344.371 178.091 337.934 186.651 337.934 186.651Z" fill="#089531"/>
<path d="M344.717 178.417C344.732 178.396 344.857 178.226 345.051 177.916C346.818 178.457 352.476 177.326 352.476 177.326L355.417 175.485L356.173 176.171C362.562 170.092 365.655 163.933 365.373 157.86C365.232 154.858 364.419 151.409 362.956 147.613C361.873 144.796 360.835 142.881 360.796 142.8L360.252 141.801L359.492 142.65C359.449 142.701 354.805 147.874 351.984 150.294C348.164 153.577 341.974 156.657 341.91 156.693L341.119 157.086L341.582 157.836C341.61 157.875 344.191 162.085 345.228 166.188C345.918 168.902 345.827 171.625 344.956 174.275C344.306 176.267 343.431 177.468 343.418 177.477L344.717 178.417ZM346.789 165.784C345.944 162.457 344.21 159.166 343.389 157.731C345.205 156.784 349.833 154.259 353.031 151.506C355.242 149.606 358.426 146.187 359.897 144.585C361 146.88 363.523 152.634 363.771 157.946C363.975 162.424 362.356 167.317 358.582 172.039C359.018 169.793 357.994 167.182 353.992 169.045C350.396 170.724 348.118 172.602 346.639 174.26C347.233 172.218 347.666 169.238 346.789 165.784Z" fill="#333333" fill-opacity="0.8"/>
<path d="M354.223 161.437C355.268 160.83 355.785 159.769 355.378 159.069C354.971 158.369 353.792 158.296 352.748 158.904C351.703 159.511 351.185 160.572 351.593 161.272C352 161.972 353.178 162.044 354.223 161.437Z" fill="#333333" fill-opacity="0.8"/>
<path d="M361.15 171.871C361.15 171.871 357.153 176.148 345.007 175.79C337.252 175.565 319.696 169.842 319.696 169.842C319.696 169.842 320.129 174.801 318.072 180.3C314.728 189.237 311.828 193.157 311.828 193.157C311.828 193.157 320.776 195.98 328.844 193.471C348.298 187.424 361.15 171.871 361.15 171.871Z" fill="#0EAE3D"/>
<path d="M314.991 192.737C315.313 192.783 323.007 193.887 330.171 192.58C331.219 192.389 332.291 192.15 333.37 191.865C336.339 190.681 339.121 189.294 341.697 187.816C343.369 187.014 345.257 185.935 348.479 183.572C352.367 180.727 355.775 177.424 355.775 177.424C356.723 176.559 357.42 175.816 358.136 175.098C355.429 176.093 350.115 177.712 344.276 177.602C338.778 177.495 322.745 172.36 322.58 172.311L321.75 172.046L321.613 172.901C321.605 172.946 320.79 177.944 319.415 182.113C317.589 187.643 314.548 191.506 314.518 191.548L313.715 192.557L314.991 192.737ZM320.831 182.57C321.92 179.284 322.644 175.606 322.941 173.979C326.349 175.053 339.202 178.988 344.245 179.087C348.126 179.162 351.829 178.47 354.541 177.771C351.847 178.647 346.085 181.008 342.943 184.059C339.307 187.597 338.738 189.054 340.445 188.384C337.843 189.731 334.579 191.209 329.554 191.604C324.215 192.018 318.911 191.67 316.445 191.416C317.517 189.854 319.471 186.678 320.831 182.57Z" fill="#333333" fill-opacity="0.6"/>
<path d="M330.312 186.568C330.781 185.453 330.551 184.297 329.805 183.981C329.058 183.666 328.069 184.323 327.601 185.438C327.133 186.553 327.362 187.709 328.109 188.025C328.857 188.329 329.844 187.683 330.312 186.568Z" fill="#333333" fill-opacity="0.6"/>
<path fill-rule="evenodd" clip-rule="evenodd" d="M157.244 206.904C156.828 205.257 155.156 204.258 153.508 204.674L127.784 211.171C126.137 211.587 125.139 213.26 125.555 214.907L125.555 214.908C125.972 216.556 127.644 217.554 129.292 217.138L155.015 210.642C156.662 210.226 157.661 208.552 157.244 206.904C157.245 206.905 157.245 206.905 157.244 206.904Z" fill="#3531B3"/>
<path d="M152.173 196.09L124.883 202.982L127.835 214.669L155.124 207.777L152.173 196.09Z" fill="#030062"/>
<path d="M147.071 199.691L131.082 203.729L132.891 210.889L148.879 206.851L147.071 199.691Z" fill="#FEEDB4"/>
<path d="M147.484 206.481L133.943 209.901C133.816 209.933 133.687 209.856 133.655 209.729L132.278 204.277C132.246 204.15 132.323 204.021 132.45 203.988L145.991 200.569C146.118 200.537 146.247 200.614 146.279 200.741L147.656 206.193C147.688 206.32 147.611 206.449 147.484 206.481ZM134.057 209.382L147.137 206.079L145.877 201.088L132.797 204.391L134.057 209.382Z" fill="#FBCB22"/>
<path fill-rule="evenodd" clip-rule="evenodd" d="M124.51 201.505C123.985 199.066 131.599 196.603 136.431 191.233C143.395 194.153 151.105 192.222 151.799 194.612L151.8 194.612L152.17 196.079L124.88 202.972L124.51 201.505Z" fill="#FBCB22"/>
<path d="M149.813 195.381L126.622 201.238C126.519 201.264 126.414 201.201 126.388 201.099C126.363 200.996 126.425 200.891 126.528 200.865L149.719 195.008C149.822 194.982 149.927 195.045 149.953 195.147C149.979 195.25 149.916 195.355 149.813 195.381Z" fill="#ECA400"/>
<path fill-rule="evenodd" clip-rule="evenodd" d="M131.013 184.613C131.013 184.613 132.088 185.585 133.258 187.486C133.641 188.107 134.038 188.768 134.223 189.535C134.41 190.308 134.348 191.073 134.304 191.808C134.168 194.015 133.735 195.391 133.735 195.391C134.226 197.335 141.268 195.556 140.777 193.612C140.777 193.612 139.743 192.607 138.576 190.729C138.187 190.105 137.769 189.46 137.567 188.691C137.366 187.927 137.402 187.158 137.443 186.429C137.57 184.2 138.055 182.835 138.055 182.835C137.564 180.891 135.589 179.712 133.645 180.203C131.701 180.694 130.522 182.67 131.013 184.613Z" fill="#ECA400"/>
<path d="M117.003 179.536C114.989 180.045 112.522 180.123 110.26 179.132C107.503 177.925 105.577 175.445 104.536 171.763C103.651 168.635 103.926 166.18 105.35 164.468C107.561 161.812 111.645 162.16 111.818 162.177C112.482 162.239 112.97 162.827 112.908 163.491C112.846 164.154 112.259 164.641 111.597 164.582C111.553 164.578 108.586 164.345 107.2 166.021C106.321 167.085 106.206 168.796 106.859 171.106C107.695 174.06 109.164 176.016 111.228 176.921C113.694 178 116.53 177.389 118.208 176.537C118.803 176.235 119.53 176.473 119.832 177.068C120.134 177.662 119.896 178.389 119.301 178.691C118.655 179.018 117.871 179.317 117.003 179.536Z" fill="#FFCE4E"/>
<path d="M147.88 171.737C147.012 171.956 146.18 172.065 145.455 172.083C144.788 172.099 144.235 171.572 144.217 170.906C144.201 170.239 144.728 169.685 145.394 169.668C147.276 169.621 150.062 168.813 151.719 166.691C153.106 164.915 153.472 162.496 152.804 159.499C152.282 157.155 151.369 155.704 150.089 155.185C148.069 154.367 145.562 155.99 145.537 156.007C144.981 156.372 144.232 156.22 143.865 155.665C143.498 155.11 143.647 154.365 144.2 153.996C144.344 153.899 147.774 151.654 150.98 152.941C153.048 153.772 154.454 155.802 155.161 158.974C155.993 162.709 155.475 165.806 153.622 168.178C152.103 170.125 149.894 171.228 147.88 171.737Z" fill="#FFCE4E"/>
<path fill-rule="evenodd" clip-rule="evenodd" d="M110.79 164.065L109.6 159.353C109.11 157.413 110.285 155.444 112.225 154.954L140.412 147.835C141.343 147.6 142.33 147.745 143.155 148.237C143.98 148.73 144.576 149.529 144.811 150.461C145.383 152.728 146.022 155.257 146.022 155.257C149.598 169.547 144.646 183.116 134.949 185.565C125.233 188.019 114.407 178.385 110.79 164.065Z" fill="#FFB70A"/>
<path fill-rule="evenodd" clip-rule="evenodd" d="M145.55 148.598C145.28 147.529 144.194 146.881 143.124 147.151C136.661 148.783 115.88 154.032 109.417 155.664C108.348 155.934 107.7 157.02 107.97 158.089C107.97 158.09 107.97 158.09 107.97 158.091C108.24 159.16 109.326 159.808 110.396 159.538C116.859 157.906 137.64 152.657 144.103 151.025C145.173 150.755 145.82 149.669 145.55 148.599C145.55 148.598 145.55 148.598 145.55 148.598Z" fill="#FEEDB4"/>
<path d="M142.706 149.675L111.176 157.639C110.99 157.686 110.8 157.573 110.753 157.387C110.706 157.2 110.819 157.011 111.006 156.964L142.535 149.001C142.721 148.954 142.911 149.067 142.958 149.253C143.004 149.439 142.892 149.628 142.706 149.675Z" fill="#FBCB22"/>
<ellipse cx="325.5" cy="117" rx="9.5" ry="10" fill="#FFB70A"/>
<path d="M131.165 279.742C129.801 275.218 131.48 270.327 135.335 267.594L195.16 225.18C201.327 220.808 209.965 223.816 212.082 231.073L226.347 279.973C227.603 284.277 226.12 288.913 222.6 291.69L164.323 337.659C158.233 342.463 149.217 339.624 146.978 332.198L131.165 279.742Z" fill="#FFCE4E"/>
<path d="M174.512 280.579C174.512 280.579 172.978 271.171 176.704 261.025C179.733 252.785 190.933 230.146 193.084 223.503C197.03 211.352 196.746 200.443 196.746 200.443L232.092 192.615C232.092 192.615 232.923 202.526 231.135 212.84C229.315 223.287 215.132 241.412 213.327 255.763C212.161 265.05 216.852 281.946 216.852 281.946L174.512 280.579Z" fill="#0EAE3D"/>
<g opacity="0.6">
<path d="M198.446 201.893L198.397 202.571C198.387 202.698 197.417 215.011 195.229 221.728C193.688 226.443 190.175 234.382 186.771 242.055C184.197 247.871 181.754 253.368 180.241 257.323C175.38 269.966 176.924 276.933 176.986 277.224L177.138 277.898L213.025 279.734L212.703 278.52C212.668 278.393 209.393 265.857 210.203 258.595C211.285 248.93 215.644 241.199 219.864 233.719C222.878 228.373 225.738 223.323 227.498 217.605C229.478 211.191 230.178 205.574 230.433 201.985C230.701 198.076 230.503 195.717 230.497 195.62L230.404 194.567L198.446 201.893ZM208.387 258.385C207.911 262.701 208.75 268.59 209.592 272.965C208.491 272.842 206.965 273.129 206.396 273.694C205.046 275.027 205.475 276.563 206.926 277.579L183.613 276.391C183.643 276.332 183.674 276.287 183.697 276.221C185.099 273.181 181.162 271.033 178.592 272.212C178.601 272.13 178.602 272.056 178.604 271.966C178.788 269.062 179.526 264.274 181.952 257.971C183.457 254.053 185.884 248.585 188.451 242.792C188.745 242.126 189.04 241.46 189.335 240.794C189.609 243.945 192.048 246.924 198.18 247.536C203.844 248.102 209.511 245.396 213.24 242.261C210.92 247.142 209.049 252.381 208.387 258.385ZM225.755 217.061C224.051 222.578 221.245 227.548 218.277 232.805C217.993 233.3 217.716 233.802 217.432 234.296C216.72 230.587 212.901 226.771 208.221 226.692C203.562 226.619 197.442 227.477 193.254 231.774C194.823 228.073 196.162 224.756 196.964 222.28C198.499 217.572 199.441 210.431 199.886 206.19C200.783 206.921 201.72 207.056 202.832 206.098C203.71 205.338 204.386 203.732 203.508 202.748C203.471 202.71 203.427 202.664 203.383 202.634L225.566 197.556C223.452 199.995 226.345 202.184 228.682 200.233C228.541 204.092 227.894 210.127 225.755 217.061Z" fill="#333333"/>
<path d="M192.357 261.548C192.22 262.619 193.328 263.645 194.83 263.849C196.34 264.047 197.672 263.346 197.817 262.283C197.954 261.212 196.846 260.186 195.344 259.982C193.841 259.777 192.502 260.485 192.357 261.548Z" fill="#333333"/>
<path d="M212.695 207.825C211.174 207.859 209.958 208.755 209.985 209.829C210.003 210.91 211.249 211.759 212.778 211.733C214.299 211.699 215.515 210.803 215.488 209.729C215.454 208.647 214.209 207.799 212.695 207.825Z" fill="#333333"/>
</g>
<rect x="128.46" y="271.834" width="104.857" height="82.828" rx="11" transform="rotate(-16.7759 128.46 271.834)" fill="#FFB70A"/>
<rect x="134.615" y="275.036" width="94.9689" height="73.1428" rx="11" transform="rotate(-16.7759 134.615 275.036)" stroke="#C36600" stroke-width="2" stroke-linecap="round" stroke-linejoin="round" stroke-dasharray="5 5"/>
<path d="M210.397 281.55C209.133 277.317 211.54 272.86 215.773 271.596L236.473 265.414C238.06 264.94 239.732 265.843 240.206 267.43L245.204 284.169C245.678 285.757 244.776 287.428 243.188 287.902L222.489 294.083C218.255 295.348 213.798 292.94 212.534 288.707L210.397 281.55Z" fill="#FF8500"/>
<circle cx="220.603" cy="281.979" r="5.28689" transform="rotate(-11.8117 220.603 281.979)" fill="white"/>
<ellipse rx="7.15873" ry="15.009" transform="matrix(0.678827 -0.734298 0.734892 0.678184 36.8896 232.435)" fill="#FF8500"/>
<path d="M67.2617 116.868L71.6911 128.327C71.7979 128.604 71.6637 128.912 71.3873 129.019C71.3846 129.02 71.3846 129.02 71.3846 129.02L26.3225 146.438C26.05 146.546 25.7375 146.41 25.6318 146.137C25.6307 146.134 25.6307 146.134 25.6296 146.131L21.2003 134.672C21.0934 134.395 21.2276 134.087 21.504 133.98C21.5068 133.979 21.5068 133.979 21.5096 133.978L66.5717 116.56C66.8481 116.453 67.1566 116.588 67.2635 116.864C67.2607 116.865 67.2607 116.865 67.2617 116.868Z" fill="#FF8500"/>
<path d="M68.4161 130.107L76.7806 151.747C77.0351 152.422 76.7011 153.177 76.0305 153.443L39.2567 167.657C38.5818 167.911 37.827 167.577 37.5614 166.906L29.1968 145.266L68.4161 130.107Z" fill="#FF8500"/>
<path d="M54.3408 135.547L43.2693 139.826L52.1065 162.69L63.178 158.41L54.3408 135.547Z" fill="#FDD333"/>
<path d="M49.5457 123.141L38.4742 127.421L43.2909 139.882L54.3624 135.603L49.5457 123.141Z" fill="#FDD333"/>
<path d="M44.2053 125.205L41.7012 126.173C37.6779 122.546 33.8487 122.236 31.1759 122.759C29.7675 122.992 28.4248 123.511 27.2257 124.286C27.1139 123.581 27.1634 122.863 27.372 122.182C28.0865 119.73 30.3543 118.151 32.8586 118.014C40.9715 117.503 44.2053 125.205 44.2053 125.205Z" fill="#FCC800"/>
<path d="M37.5306 127.785L34.5799 128.926C28.5166 128.455 27.223 124.287 27.223 124.287C28.422 123.512 29.7647 122.993 31.1731 122.76C33.1339 126.671 37.5306 127.785 37.5306 127.785Z" fill="#E3B400"/>
<path d="M43.8703 125.335L46.3744 124.367C46.9136 118.98 49.5386 116.175 51.87 114.76C53.0691 113.985 54.4118 113.466 55.8202 113.233C55.4292 112.637 54.9092 112.138 54.2971 111.775C52.1194 110.441 49.3791 110.798 47.4336 112.381C41.0832 117.46 43.8703 125.335 43.8703 125.335Z" fill="#FCC800"/>
<path d="M50.492 122.775L53.44 121.636C57.6107 117.21 55.7644 113.255 55.7644 113.255C54.356 113.488 53.0132 114.007 51.8142 114.782C52.9934 118.995 50.492 122.775 50.492 122.775Z" fill="#E3B400"/>
<path opacity="0.15" d="M68.5602 130.189L29.1986 145.403L30.1697 147.916L69.5313 132.701L68.5602 130.189Z" fill="#131514"/>
</g>
</svg>
