<svg width="360" height="240" viewBox="0 0 360 240" fill="none" xmlns="http://www.w3.org/2000/svg">
<path d="M15 237.132C15 237.132 93.3361 249.73 142.328 222.12C191.319 194.51 218.103 189.669 257.066 181.926C257.066 181.926 391 161.584 391 87H15V237.132Z" fill="#221F7A"/>
<path fill-rule="evenodd" clip-rule="evenodd" d="M12 0C5.37258 0 0 5.37258 0 12V92V95V234.169C0 234.169 70.0725 252.911 129.534 223.194C151.488 212.222 164.027 204.243 173.781 198.035C190.447 187.429 198.986 181.996 232.461 175.65C232.461 175.65 340.879 168.333 361 92H360V12C360 5.37258 354.627 0 348 0H12Z" fill="#3532B3"/>
</svg>
