<svg width="360" height="144" viewBox="0 0 360 144" fill="none" xmlns="http://www.w3.org/2000/svg">
<g clip-path="url(#clip0_18_9541)">
<path d="M119 102C79.4 134.64 23.1667 126.4 0 118.2V-30H296.5C295.3 26.64 238.5 52.8 200 58.8C175 62.6961 158.6 69.36 119 102Z" fill="url(#paint0_linear_18_9541)"/>
<path fill-rule="evenodd" clip-rule="evenodd" d="M0 143.4C34 142.8 105.944 132.762 127.5 103.2C141.275 84.3087 170.849 75.4547 200.129 66.6889C208.047 64.3184 215.943 61.9543 223.5 59.4C257.167 52.6 324.5 25.2 324.5 -30H296C294.88 26.7982 222.7 53.0312 186.751 59.048C163.407 62.955 148.093 69.6375 111.117 102.369C74.1401 135.1 21.632 126.837 0 118.614V143.4Z" fill="#221F7A"/>
<mask id="mask0_18_9541" style="mask-type:alpha" maskUnits="userSpaceOnUse" x="207" y="-30" width="146" height="106">
<rect x="207" y="-30" width="146" height="105.6" fill="#C4C4C4"/>
</mask>
<g mask="url(#mask0_18_9541)">
<path d="M334.5 -29.3999C337.833 -3.39991 318 46.8001 259.5 61.8001" stroke="#221F7A" stroke-width="6" stroke-linecap="round"/>
<ellipse cx="249" cy="65.9999" rx="3" ry="3.6" fill="#221F7A"/>
<ellipse cx="239" cy="69.6" rx="3" ry="3.6" fill="#221F7A"/>
</g>
</g>
<defs>
<linearGradient id="paint0_linear_18_9541" x1="99.5" y1="-76.2" x2="180.55" y2="116.281" gradientUnits="userSpaceOnUse">
<stop stop-color="#221F7A" stop-opacity="0"/>
<stop offset="1" stop-color="#221F7A"/>
</linearGradient>
<clipPath id="clip0_18_9541">
<rect width="360" height="144" fill="white"/>
</clipPath>
</defs>
</svg>
