<svg width="360" height="170" viewBox="0 0 360 170" fill="none" xmlns="http://www.w3.org/2000/svg">
<g clip-path="url(#clip0_1_3200)">
<mask id="mask0_1_3200" style="mask-type:alpha" maskUnits="userSpaceOnUse" x="0" y="-24" width="360" height="194">
<rect y="-24" width="360" height="194" fill="#C4C4C4"/>
</mask>
<g mask="url(#mask0_1_3200)">
<path d="M506.272 -142.241C509.694 -79.4199 469.042 -14.7375 441.623 46.9286C414.205 108.595 399.802 167.561 361.235 163.431C322.884 158.985 260.584 91.1269 209.246 79.1668C158.125 66.8904 117.966 110.512 70.1662 120.518C22.3668 130.523 -32.8554 106.594 -48.4031 67.5523C-63.7338 28.194 -38.8566 -26.3772 -29.4604 -92.9643C-19.9648 -159.018 -25.7333 -237.404 7.95648 -290.581C41.113 -343.659 113.728 -371.529 186.843 -373.005C259.958 -374.481 333.791 -349.88 394.406 -307.367C455.021 -264.854 502.634 -204.745 506.272 -142.241Z" fill="#030062"/>
<path d="M489.424 -151.891C492.846 -89.0703 452.194 -24.3879 424.775 37.2783C397.356 98.9445 382.954 157.911 344.386 153.781C306.036 149.335 243.736 81.4765 192.398 69.5164C141.277 57.24 101.117 100.862 53.318 110.867C5.51864 120.872 -49.7036 96.9438 -65.2513 57.9019C-80.5819 18.5436 -55.7047 -36.0276 -46.3085 -102.615C-36.813 -168.668 -42.5814 -247.054 -8.89166 -300.232C24.2648 -353.31 96.8795 -381.18 169.995 -382.656C243.11 -384.132 316.943 -359.531 377.558 -317.017C438.172 -274.504 485.785 -214.395 489.424 -151.891Z" fill="#3532B3"/>
<path d="M370.343 185.144C370.343 185.144 365.658 161.66 350.01 159.961C334.363 158.261 322.461 138.759 334.279 126.012C354.484 104.213 388.561 130.693 401.489 144.751C425.065 170.374 378.781 206.452 370.343 185.144Z" fill="#FF8500"/>
<path d="M319.125 84.0099C322.463 85.1436 324.692 89.1294 325.815 92.8878C326.927 96.6316 326.917 100.159 325.644 103.65C324.356 107.152 321.816 110.632 318.881 111.032C315.961 111.422 312.643 108.757 309.384 106.048C306.128 103.313 302.917 100.544 302.51 97.2645C302.117 93.9738 304.543 90.1614 307.968 87.3814C311.379 84.6126 315.799 82.8909 319.125 84.0099Z" fill="white"/>
<ellipse cx="269.251" cy="88.6548" rx="9" ry="27" transform="rotate(-44.0905 269.251 88.6548)" fill="#FF8500"/>
<path d="M312.806 145.948C310.598 138.788 310.071 131.561 313.361 129.09C316.621 126.618 323.698 128.871 329.861 133.116C336.057 137.391 341.338 143.658 339.991 149.66C338.676 155.661 330.701 161.428 324.802 160.782C318.902 160.135 315.014 153.075 312.806 145.948Z" fill="#FFB70A"/>
</g>
</g>
<defs>
<clipPath id="clip0_1_3200">
<rect width="360" height="170" fill="white"/>
</clipPath>
</defs>
</svg>
