<svg width="360" height="456" viewBox="0 0 360 456" fill="none" xmlns="http://www.w3.org/2000/svg">
<path d="M0 420.408C0 420.408 14.4487 455.204 98.8386 455.204C98.8386 455.204 129.626 457.203 188.553 446.402C247.48 435.6 332.64 463.728 360 436.625V63L0 63L0 420.408Z" fill="#221F7A"/>
<mask id="mask0_101_10689" style="mask-type:alpha" maskUnits="userSpaceOnUse" x="0" y="0" width="360" height="233">
<rect width="360" height="233" fill="#C4C4C4"/>
</mask>
<g mask="url(#mask0_101_10689)">
<path d="M397.283 -366.707C314.403 -389.23 227.239 -371.75 153.41 -358.846C79.2172 -345.195 19.4709 -336.502 -23.7193 -304.9C-66.3539 -273.489 -91.5118 -220.108 -121.895 -169.284C-152.087 -117.904 -187.696 -69.6374 -159.387 -41.4395C-130.523 -13.4324 -109.578 62.6538 -69.5003 98.0001C-23.0004 111 38.4997 125.5 49.4997 170.5C60.4996 215.5 114.708 232.437 164.868 232.005C214.837 231.018 288.19 223.869 318.5 185.5C348.619 146.576 344.728 157.88 398 90.5002C450.907 23.8674 538.693 -137.418 548.457 -208.513C558.029 -280.164 479.798 -343.437 397.283 -366.707Z" fill="#030062"/>
<path d="M401.283 -381.707C318.403 -404.23 231.239 -386.75 157.411 -373.846C83.2175 -360.195 23.4712 -351.501 -19.719 -319.9C-62.3536 -288.489 -87.5115 -235.108 -117.895 -184.284C-148.087 -132.904 -183.695 -84.6371 -155.387 -56.4393C-126.522 -28.4321 -105.578 47.6541 -65.5 83.0004C-25.4221 118.347 39.5 109 51.815 154.624C64.1299 200.247 118.709 217.437 168.868 217.005C218.837 216.018 282.69 221.369 313 183C343.119 144.076 348.728 142.88 402 75.5005C454.907 8.86773 542.694 -152.418 552.457 -223.513C562.03 -295.163 483.799 -358.437 401.283 -381.707Z" fill="#3531B3"/>
<mask id="mask1_101_10689" style="mask-type:alpha" maskUnits="userSpaceOnUse" x="-166" y="-393" width="720" height="611">
<path d="M401.283 -381.707C318.403 -404.23 231.239 -386.75 157.411 -373.846C83.2175 -360.195 23.4712 -351.501 -19.719 -319.9C-62.3536 -288.489 -87.5115 -235.108 -117.895 -184.284C-148.087 -132.904 -183.695 -84.6371 -155.387 -56.4393C-126.522 -28.4321 -105.578 47.6541 -65.5 83.0004C-25.4221 118.347 39.5 109 51.815 154.624C64.1299 200.247 118.709 217.437 168.868 217.005C218.837 216.018 282.69 221.369 313 183C343.119 144.076 348.728 142.88 402 75.5005C454.907 8.86773 542.694 -152.418 552.457 -223.513C562.03 -295.163 483.799 -358.437 401.283 -381.707Z" fill="#3531B3"/>
</mask>
<g mask="url(#mask1_101_10689)">
<path d="M141.689 84.2892C130.652 61.1416 107.29 53.5504 96.1759 64.5333C85.1282 75.4525 89.0122 101.91 114.45 109.157C129.796 113.528 136.83 125.092 139.996 133.577C140.973 136.196 144.706 135.97 145.316 133.263C149.884 112.929 147.493 96.4653 141.693 84.2967C141.691 84.293 141.691 84.293 141.689 84.2892Z" fill="#534ED9"/>
<path d="M300.282 11C275.493 11 260.259 33.8785 259.045 52.4202C257.551 75.2428 281.506 132.119 215.991 133.245C150.475 134.365 171.068 173.657 171.068 173.657C181.552 199.472 263.54 192.809 297.985 166.925C347.776 129.505 363.127 33.3434 318.952 15.007C312.247 12.2195 306.016 11 300.282 11Z" fill="#534ED9"/>
<path d="M136.526 -64.7793C104.77 -45.0063 134.51 87.5799 233.46 98.1944C238.319 98.7133 240.624 93.2849 236.943 90.0478C223.518 78.2551 204.517 53.909 209.318 12.8923C213.944 -26.6831 193.423 -53.8541 171.34 -64.204C158.809 -70.0769 145.762 -70.5406 136.526 -64.7793Z" fill="#030062"/>
<path d="M103 12C103 26.3618 91.3618 38 77 38C62.6383 38 51 26.3618 51 12C51 -2.36172 62.6383 -14 77 -14C91.3618 -14 103 -2.36172 103 12Z" fill="#221F7A"/>
<path d="M363 74.9998C363 74.9998 379.5 -17.5002 277.378 -1.79801" stroke="#221F7A" stroke-width="6.35" stroke-miterlimit="10" stroke-linecap="round"/>
<path d="M258.943 1.64059C258.422 3.64989 259.632 5.70394 261.641 6.22411C263.65 6.74427 265.704 5.53503 266.224 3.52573C266.745 1.51643 265.535 -0.537635 263.526 -1.0578C261.512 -1.57923 259.464 -0.373557 258.943 1.64059Z" fill="#221F7A"/>
<path d="M245.943 6.64058C245.422 8.64989 246.632 10.7039 248.641 11.2241C250.65 11.7443 252.704 10.535 253.224 8.52572C253.745 6.51641 252.535 4.46236 250.526 3.94219C248.517 3.42203 246.463 4.63127 245.943 6.64058Z" fill="#221F7A"/>
<path d="M112.338 143.169C112.338 149.341 107.341 154.338 101.169 154.338C94.9974 154.338 90 149.341 90 143.169C90 136.997 94.9974 132 101.169 132C107.331 132 112.338 136.997 112.338 143.169Z" fill="#534ED9"/>
<path d="M34.75 42.6591C1.31995 11.5294 -42.3109 14.2433 -53.5094 39.7126C-64.64 65.033 -40.8857 106.322 5.95583 101.68C34.2129 98.8785 53.4259 113.432 64.2219 125.417C67.5539 129.117 73.5833 126.299 72.8191 121.415C67.0728 84.7376 52.3279 59.0327 34.7659 42.6638C34.7555 42.6641 34.75 42.6591 34.75 42.6591Z" fill="#221F7A"/>
<path d="M126.149 -105.316C261.15 -229.316 94.9623 -237.826 16.6366 -180.816C12.7917 -178.014 -38.0998 -111.562 -33.3505 -111.316C-33.3505 -88.3156 -21.4244 59.3409 12.4027 -15.5703C33.9156 -63.2112 74.2678 -46.4949 96.9027 -52.5703C109.746 -56.0176 115.149 -91.8156 126.149 -105.316Z" fill="#534ED9"/>
</g>
</g>
</svg>
