<svg width="360" height="780" viewBox="0 0 360 780" fill="none" xmlns="http://www.w3.org/2000/svg">
<path d="M539.727 247C455.189 247 403.239 325.063 399.099 388.328C394.004 466.2 475.697 660.264 252.272 664.107C28.847 667.928 99.076 801.996 99.076 801.996C134.827 890.08 414.427 867.342 531.893 779.025C701.691 651.348 754.044 323.237 603.396 260.672C580.531 251.161 559.28 247 539.727 247Z" fill="#FF8500"/>
<path d="M201.711 179.893C138.934 284.239 257.483 378.882 332.255 379.031H332.573C359.366 378.989 380.468 366.76 385.478 338.418C385.478 338.418 384.884 224.476 456.217 201.612C527.55 178.726 564.405 76.4604 497.127 28.3318C474.241 11.9422 450.612 5 427.089 5C332.403 5 239.246 117.498 201.711 179.893Z" fill="#FFB70A"/>
<path d="M60.7558 649.565C60.7558 649.565 -97.0047 515.094 84.5972 378.903" stroke="#FFB70A" stroke-width="13.347" stroke-miterlimit="10" stroke-linecap="round"/>
<path d="M50 668.5C50 673.191 46.1908 677 41.5 677C36.8092 677 33 673.191 33 668.5C33 663.809 36.8092 660 41.5 660C46.2021 660 50 663.798 50 668.5Z" fill="#FFB70A"/>
<path d="M34 653.5C34 658.191 30.1908 662 25.5 662C20.8092 662 17 658.191 17 653.5C17 648.809 20.8092 645 25.5 645C30.1908 645 34 648.809 34 653.5Z" fill="#FFB70A"/>
<path d="M156.673 239.166C156.673 253.115 145.378 264.409 131.43 264.409C117.482 264.409 106.188 253.115 106.188 239.166C106.188 225.218 117.482 213.924 131.43 213.924C145.357 213.924 156.673 225.218 156.673 239.166Z" fill="white"/>
<path d="M-106.013 214.021C-237.214 214.042 -323.599 305.162 -297.274 380.613C-271.098 455.619 -140.342 495.893 -50.9844 394.434C2.91867 333.228 71.789 326.201 117.943 330.256C132.188 331.508 139.343 313.781 128.176 305.013C44.2961 239.179 -37.0151 214.021 -105.97 214C-105.991 214.021 -106.013 214.021 -106.013 214.021Z" fill="#720BAD"/>
<path d="M-34.9712 42.3851C7.84983 123.484 27.1267 134.163 20.3331 163.481C13.5395 192.8 74.215 256.023 134.869 166.178C195.523 76.3532 309.571 43.5952 274.372 1.13509C239.194 -41.325 150.707 -43.7452 150.707 -43.7452C150.707 -43.7452 144.295 -44 133.829 -44C80.7326 -44 -77.1341 -37.4399 -34.9712 42.3851Z" fill="#FF8500"/>
<path d="M257.622 453.611C237.92 453.611 216.796 455.904 195.227 460.702C107.143 480.361 44.3235 534.795 54.9173 582.286C65.511 629.778 145.506 652.345 233.611 632.686C321.694 613.027 384.514 558.593 373.92 511.102C365.895 475.265 318.361 453.632 257.622 453.611Z" fill="#540A7F"/>
<path d="M-258.714 528.85C-298.669 597.466 -135.431 832.376 49.2064 761.574C58.2716 758.092 57.847 745.206 48.6119 742.212C14.9411 731.321 -39.0894 700.75 -64.7141 615.087C-89.4471 532.438 -148.53 497.685 -196.383 497.685C-223.536 497.685 -247.101 508.873 -258.714 528.85Z" fill="white"/>
</svg>
