<svg width="360" height="272" viewBox="0 0 360 272" fill="none" xmlns="http://www.w3.org/2000/svg">
<g clip-path="url(#clip0_58_19951)">
<path d="M1.78813e-07 236.408C1.78813e-07 236.408 14.4487 271.204 98.8386 271.204C98.8386 271.204 129.626 273.203 188.553 262.402C247.48 251.6 332.64 279.728 360 252.625V-24H0L1.78813e-07 236.408Z" fill="#168BC3"/>
<mask id="mask0_58_19951" style="mask-type:alpha" maskUnits="userSpaceOnUse" x="0" y="-24" width="360" height="296">
<path d="M0 236.408C0 236.408 14.4487 271.204 98.8386 271.204C98.8386 271.204 129.626 273.203 188.553 262.402C247.48 251.6 332.64 279.728 360 252.625V-24L0 -24L0 236.408Z" fill="#221F7A"/>
</mask>
<g mask="url(#mask0_58_19951)">
<path d="M93.6731 230.69C55.3141 272.092 -1.42521 265.593 -25 257.168V404H349V132C293.379 132 269.085 158.478 263.891 171.717C256.699 191.375 231.046 227.561 185.974 215.044C140.903 202.527 105.66 220.259 93.6731 230.69Z" fill="#0B425C"/>
<path d="M103.673 236.69C65.3141 278.092 8.57479 271.593 -15 263.168V410H359V138C303.379 138 279.085 164.478 273.891 177.717C266.699 197.375 241.046 233.561 195.974 221.044C150.903 208.527 115.66 226.259 103.673 236.69Z" fill="#136890"/>
<path d="M201.488 0.860893C201.488 0.860893 214.82 37.9559 257.041 40.9235C316.988 50.3609 300.988 97.3609 360 89.518V0.860893H201.488Z" fill="#FF8500"/>
<path d="M359.855 85.8608C359.855 85.8608 336.053 35.6857 261.125 35.6857C186.197 35.6857 189.014 -9.1391e-05 189.014 -9.1391e-05L359.855 -8.39233e-05L359.855 85.8608Z" fill="#3531B3"/>
<path d="M340.125 36.0099C343.463 37.1436 345.692 41.1294 346.815 44.8878C347.927 48.6316 347.917 52.1593 346.644 55.6501C345.356 59.1521 342.816 62.632 339.881 63.0325C336.961 63.4217 333.643 60.7574 330.384 58.0481C327.128 55.3129 323.917 52.5439 323.51 49.2645C323.117 45.9738 325.543 42.1614 328.968 39.3814C332.379 36.6126 336.799 34.8909 340.125 36.0099Z" fill="#B22DA4"/>
<ellipse cx="253.251" cy="35.6548" rx="9" ry="27" transform="rotate(-44.0905 253.251 35.6548)" fill="white"/>
<path d="M287.816 36.111C286.818 32.8754 286.58 29.6091 288.067 28.4922C289.54 27.3754 292.739 28.3936 295.524 30.3117C298.324 32.2441 300.711 35.0764 300.102 37.7886C299.508 40.5008 295.904 43.1073 293.238 42.8152C290.571 42.523 288.814 39.3323 287.816 36.111Z" fill="#FFB70A"/>
<path d="M241.314 112.187L242.136 93.7665L237.138 93.5439L232.143 93.322L231.322 111.741L236.475 108.447L241.314 112.187Z" fill="#B22DA4"/>
<path d="M253.07 108.175L241.156 94.1016L244.974 90.8703L248.791 87.6391L260.703 101.712L254.611 102.256L253.07 108.175Z" fill="#B22DA4"/>
<path d="M252.634 77.9139L254.218 75.2121L251.318 74.0292L252.147 71.0092L249.041 70.6175L249.06 67.4849L245.957 67.9115L245.166 64.8808L242.279 66.0954L240.731 63.3727L238.256 65.2931L236.056 63.0634L234.163 65.5581L231.46 63.9764L230.278 66.8746L227.258 66.0453L226.865 69.1534L223.734 69.1325L224.159 72.2358L221.128 73.0268L222.343 75.914L219.621 77.4634L221.54 79.9371L219.313 82.1378L221.807 84.0299L220.224 86.7331L223.124 87.916L222.295 90.936L225.401 91.3277L225.381 94.4589L228.485 94.0337L229.276 97.0644L232.163 95.8498L233.711 98.5725L236.186 96.6521L238.386 98.8818L240.279 96.3871L242.98 97.9695L244.164 95.0706L247.184 95.8999L247.576 92.7918L250.708 92.8127L250.283 89.7094L253.313 88.9169L252.099 86.0312L254.821 84.4818L252.901 82.0081L255.129 79.8074L252.634 77.9139Z" fill="#FFB70A"/>
<path d="M247.813 78.0012C246.172 72.1511 240.099 68.7393 234.249 70.3807C228.398 72.0222 224.987 78.0953 226.628 83.9455C228.269 89.7956 234.343 93.2074 240.193 91.566C246.043 89.9245 249.455 83.8514 247.813 78.0012Z" fill="white"/>
<path d="M234.983 73.797L238.483 77.1541C238.541 77.2098 238.623 77.2329 238.7 77.2172L243.438 76.2354C243.634 76.1951 243.792 76.3983 243.705 76.5782L241.608 80.9466C241.574 81.0181 241.576 81.1037 241.616 81.1718L244.021 85.3872C244.121 85.5621 243.977 85.7741 243.778 85.7475L238.981 85.0901C238.902 85.0799 238.822 85.1078 238.77 85.1673L235.518 88.7534C235.382 88.902 235.136 88.8304 235.101 88.6335L234.234 83.8586C234.219 83.7795 234.167 83.7137 234.094 83.6804L229.681 81.6827C229.498 81.6006 229.489 81.343 229.665 81.2481L233.924 78.955C233.994 78.9177 234.041 78.8469 234.05 78.7683L234.573 73.9462C234.597 73.7459 234.838 73.6577 234.983 73.797Z" fill="#FFB70A"/>
<path fill-rule="evenodd" clip-rule="evenodd" d="M194.11 79.0211C193.576 77.0293 191.529 75.8465 189.537 76.3803L158.436 84.7139C156.444 85.2476 155.262 87.2955 155.796 89.2873L155.796 89.2882C156.33 91.28 158.377 92.4628 160.369 91.9291L191.47 83.5957C193.462 83.0619 194.644 81.0138 194.11 79.0211C194.11 79.022 194.11 79.022 194.11 79.0211Z" fill="#3531B3"/>
<path d="M187.766 65.9868L154.772 74.8276L158.558 88.958L191.553 80.1171L187.766 65.9868Z" fill="#030062"/>
<path d="M181.639 70.4458L162.308 75.6255L164.627 84.2825L183.958 79.1028L181.639 70.4458Z" fill="#FEEDB4"/>
<path d="M182.259 78.6785L165.887 83.0652C165.734 83.1064 165.576 83.0152 165.534 82.8611L163.768 76.2698C163.727 76.1162 163.818 75.9578 163.972 75.9166L180.343 71.5299C180.497 71.4887 180.655 71.5799 180.696 71.734L182.463 78.3257C182.504 78.4793 182.413 78.6373 182.259 78.6785ZM166.017 82.4338L181.831 78.1964L180.214 72.1619L164.4 76.3993L166.017 82.4338Z" fill="#FBCB22"/>
<path fill-rule="evenodd" clip-rule="evenodd" d="M154.294 73.0416C153.614 70.0916 162.81 66.9694 168.579 60.369C177.081 63.7903 186.403 61.3128 187.287 64.2009L187.288 64.2006L187.764 65.9744L154.768 74.8156L154.294 73.0416Z" fill="#FBCB22"/>
<path d="M184.891 65.1674L156.852 72.6803C156.727 72.7137 156.599 72.6396 156.566 72.5157C156.532 72.3918 156.607 72.2634 156.731 72.23L184.77 64.7171C184.895 64.6836 185.023 64.7577 185.056 64.8817C185.089 65.0056 185.015 65.134 184.891 65.1674Z" fill="#ECA400"/>
<path fill-rule="evenodd" clip-rule="evenodd" d="M161.889 52.4305C161.889 52.4305 163.211 53.5902 164.664 55.8766C165.139 56.6244 165.632 57.4191 165.87 58.3468C166.111 59.2812 166.049 60.2114 166.008 61.1035C165.882 63.7835 165.381 65.4612 165.381 65.4612C166.01 67.8111 174.525 65.5297 173.895 63.1798C173.895 63.1798 172.622 61.9777 171.173 59.7194C170.691 58.9685 170.172 58.1939 169.914 57.2634C169.656 56.3407 169.686 55.4061 169.723 54.521C169.839 51.8142 170.404 50.1491 170.404 50.1491C169.774 47.7991 167.356 46.403 165.006 47.0326C162.656 47.6623 161.26 50.0805 161.889 52.4305Z" fill="#ECA400"/>
<path d="M144.8 46.5155C142.365 47.168 139.373 47.3053 136.61 46.1424C133.243 44.7257 130.863 41.7501 129.535 37.3003C128.407 33.5201 128.697 30.5371 130.396 28.4345C133.032 25.1727 137.994 25.5237 138.204 25.5403C139.011 25.6043 139.613 26.3095 139.549 27.1164C139.486 27.9221 138.783 28.5232 137.978 28.4629C137.924 28.459 134.32 28.2284 132.668 30.2862C131.619 31.5926 131.509 33.6708 132.343 36.4631C133.408 40.0326 135.226 42.3812 137.746 43.4423C140.757 44.7095 144.188 43.9177 146.21 42.8551C146.926 42.4782 147.812 42.7535 148.189 43.4706C148.566 44.1867 148.29 45.0728 147.574 45.4497C146.795 45.8576 145.849 46.2344 144.8 46.5155Z" fill="#FFCE4E"/>
<path d="M182.132 36.5112C181.082 36.7923 180.075 36.9389 179.195 36.9733C178.387 37.005 177.705 36.3755 177.673 35.5671C177.641 34.7585 178.271 34.0771 179.079 34.0445C181.362 33.9547 184.728 32.9252 186.702 30.3211C188.354 28.142 188.755 25.2 187.893 21.575C187.219 18.7402 186.085 16.9952 184.523 16.3881C182.058 15.4296 179.043 17.4439 179.013 17.4641C178.345 17.9172 177.434 17.7456 176.978 17.0789C176.523 16.412 176.691 15.5045 177.356 15.0472C177.529 14.9279 181.651 12.1427 185.565 13.6495C188.089 14.6207 189.83 17.0594 190.743 20.8973C191.818 25.4148 191.244 29.181 189.037 32.0923C187.227 34.4813 184.567 35.8587 182.132 36.5112Z" fill="#FFCE4E"/>
<path fill-rule="evenodd" clip-rule="evenodd" d="M136.99 27.8491L135.463 22.152C134.835 19.8068 136.226 17.397 138.572 16.7686L172.652 7.6369C173.777 7.33525 174.978 7.49324 175.987 8.07662C176.997 8.65974 177.733 9.61927 178.035 10.746C178.77 13.4867 179.589 16.5442 179.589 16.5442C184.178 33.8223 178.406 50.3746 166.681 53.516C154.935 56.6636 141.629 45.1634 136.99 27.8491Z" fill="#FFB70A"/>
<path fill-rule="evenodd" clip-rule="evenodd" d="M178.899 8.47315C178.553 7.18044 177.224 6.41278 175.931 6.75935C168.117 8.85313 142.991 15.5855 135.177 17.6792C133.884 18.0258 133.117 19.3551 133.463 20.6478C133.463 20.6486 133.463 20.6486 133.463 20.6494C133.81 21.9421 135.139 22.7097 136.432 22.3632C144.246 20.2694 169.372 13.537 177.186 11.4433C178.479 11.0967 179.246 9.76737 178.9 8.47466C178.899 8.47315 178.899 8.47315 178.899 8.47315Z" fill="#FEEDB4"/>
<path d="M175.467 9.83L137.345 20.0446C137.12 20.1049 136.889 19.9713 136.828 19.7461C136.768 19.521 136.902 19.2894 137.127 19.2291L175.248 9.01452C175.473 8.95424 175.705 9.08782 175.765 9.31298C175.825 9.53841 175.692 9.76972 175.467 9.83Z" fill="#FBCB22"/>
<path d="M360.089 94.4433C359.679 95.741 358.571 96.6412 357.492 97.3621C350.312 102.163 337.026 105.007 331.838 97.6704C332.705 97.8429 334.774 98.7217 336.564 99.021C340.811 99.7389 345.066 96.585 348.694 93.6704C350.916 91.8855 353.906 85.4035 356.774 85.5313C359.511 85.6497 360.905 91.8587 360.089 94.4433Z" fill="#FFCE4E"/>
<path d="M336.569 89.1543C339.886 85.9774 342.677 84.2181 346.149 82.3844C349.62 80.5543 353.665 79.7459 357.11 81.1161C357.52 81.2777 357.93 81.4817 358.215 81.831C358.543 82.235 358.673 82.7853 358.792 83.3189C359.461 86.2599 361.288 90.5754 360.259 93.8926C354.534 90.9043 347.41 90.5416 341.007 92.4049C336.228 93.7995 331.949 98.1622 331.564 98.0019C327.921 96.469 335.011 90.6508 336.569 89.1543Z" fill="#FFB70A"/>
<path d="M309.617 80.114C309.219 81.4124 309.63 82.7754 310.115 83.9693C313.338 91.9229 322.725 101.646 331.182 98.4434C330.368 98.1055 328.152 97.6849 326.504 96.9421C322.579 95.1797 320.844 90.2111 319.49 85.7901C318.66 83.0773 319.862 76.0555 317.415 74.5706C315.083 73.1567 310.409 77.5244 309.617 80.114Z" fill="#FFCE4E"/>
<path d="M332.092 88.7728C331.151 84.303 329.835 81.2974 327.997 77.8574C326.159 74.4174 323.271 71.5068 319.641 70.736C319.209 70.6418 318.758 70.5827 318.32 70.7186C317.821 70.8688 317.397 71.2561 316.996 71.6308C314.774 73.695 310.816 76.2554 309.788 79.5725C316.221 80.272 322.33 83.919 326.574 89.0136C329.745 92.818 330.812 98.8051 331.221 98.8819C335.11 99.6192 332.536 90.8767 332.092 88.7728Z" fill="#FFB70A"/>
<path d="M348.253 173.912L275.876 151.97L295.835 87.6179L368.213 109.56L348.253 173.912Z" fill="#534ED9"/>
<path d="M368.121 127.311L285.848 102.366L290.89 86.1172L373.158 111.061L368.121 127.311Z" fill="#3531B3"/>
<path d="M315.924 164.111L306.966 161.393L327.175 96.2381C327.379 95.5786 328.036 95.1902 328.641 95.3734L335.411 97.4283C336.015 97.6115 336.337 98.2969 336.133 98.9563L315.924 164.111Z" fill="#FFB70A"/>
<path opacity="0.5" d="M290.734 104.135L363.17 125.812L361.373 131.606L288.936 109.771L290.734 104.135Z" fill="#030062"/>
</g>
</g>
<defs>
<clipPath id="clip0_58_19951">
<rect width="360" height="272" fill="white"/>
</clipPath>
</defs>
</svg>
