<svg width="360" height="338" viewBox="0 0 360 338" fill="none" xmlns="http://www.w3.org/2000/svg">
<g clip-path="url(#clip0_25_11885)">
<path d="M150.826 271.844C74.2018 284.677 18.3486 254.697 0 238.102V40.9854H360V185.909C304.954 249.718 246.606 255.803 150.826 271.844Z" fill="#030062"/>
<path d="M137.781 252.789C74.9838 255.41 19.7615 226.583 0 211.843V-24H360V177.993C299.618 249.514 216.278 249.514 137.781 252.789Z" fill="#3531B3"/>
<mask id="mask0_25_11885" style="mask-type:alpha" maskUnits="userSpaceOnUse" x="0" y="251" width="112" height="46">
<rect y="251.957" width="112" height="44.9939" fill="#C4C4C4"/>
</mask>
<g mask="url(#mask0_25_11885)">
<path d="M-15.5 242.958C5 261.955 34 281.453 85 288.452" stroke="#030062" stroke-width="6" stroke-linecap="round"/>
<circle r="3" transform="matrix(0.994824 -0.101614 0.101641 0.994821 97.8761 291.519)" fill="#030062"/>
<circle r="3" transform="matrix(0.994824 -0.101614 0.101641 0.994821 109.124 293.385)" fill="#030062"/>
</g>
<path d="M339.604 267.889C339.604 267.889 337.397 272.634 330.853 269.934C324.309 267.242 322.099 271.023 320.012 268.313C317.92 265.599 327.27 255.274 333.551 256.55C339.832 257.834 341.239 266.045 339.604 267.889Z" fill="#030062"/>
<path d="M198.914 320.515C178.211 318.557 165.922 302.882 171.19 291.359C176.427 279.904 197.658 275.492 210.264 292.845C217.868 303.313 228.634 305.448 235.978 305.495C238.245 305.51 239.113 308.416 237.221 309.634C223.008 318.777 209.804 321.542 198.921 320.515C198.918 320.515 198.918 320.515 198.914 320.515Z" fill="#030062"/>
<path d="M191.694 139.718C173.249 166.033 167.456 205.048 182.853 237.79C198.249 270.531 234.834 296.847 271.724 297C308.766 297 345.808 270.99 367.607 234.577C389.253 198.163 395.655 151.499 377.058 125.03C358.613 98.5611 315.016 92.2882 277.974 95.9601C240.779 99.6321 209.986 113.249 191.694 139.718Z" fill="#030062"/>
<path d="M182.694 126.718C164.249 153.033 158.456 192.048 173.853 224.79C189.249 257.531 225.834 283.847 262.724 284C299.766 284 336.808 257.99 358.607 221.577C380.253 185.163 386.655 138.499 368.058 112.03C349.613 85.5611 306.016 79.2882 268.974 82.9601C231.779 86.6321 200.986 100.249 182.694 126.718Z" fill="#D63B3B"/>
<path fill-rule="evenodd" clip-rule="evenodd" d="M239.215 149.215C241.544 146.887 245.318 146.887 247.646 149.215L305.775 207.341C308.103 209.669 308.103 213.444 305.775 215.772C303.446 218.1 299.672 218.1 297.344 215.772L239.215 157.646C236.887 155.318 236.887 151.543 239.215 149.215Z" fill="white"/>
<path fill-rule="evenodd" clip-rule="evenodd" d="M305.785 149.216C303.458 146.888 299.684 146.888 297.356 149.216L239.237 207.352C236.91 209.68 236.91 213.456 239.237 215.784C241.565 218.112 245.339 218.112 247.667 215.784L305.785 157.648C308.113 155.32 308.113 151.544 305.785 149.216Z" fill="white"/>
<path d="M342.672 301.445C342.672 301.445 334.541 291.503 321.03 301.748C307.518 311.993 299.988 304.34 296.847 311.996C293.692 319.658 321.977 338.622 335.762 331.882C349.565 325.151 347.644 304.85 342.672 301.445Z" fill="#D63B3B"/>
</g>
<defs>
<clipPath id="clip0_25_11885">
<rect width="360" height="338" fill="white"/>
</clipPath>
</defs>
</svg>
