<svg width="360" height="335" viewBox="0 0 360 335" fill="none" xmlns="http://www.w3.org/2000/svg">
<circle cx="93" cy="332" r="3" fill="#3531B3"/>
<circle cx="83" cy="330" r="3" fill="#3531B3"/>
<path d="M143.04 325.99C83.7582 325.583 23.4745 294.374 0 278.586V0H360V237.651C340.32 241.492 316.8 256.375 288 278.586C251.395 306.816 217.142 326.5 143.04 325.99Z" fill="#3531B3"/>
<path d="M121.021 89.6042C93.1874 70.6237 95.0392 23.2859 99.8029 0H360V206.866C337.496 208.129 286.376 201.017 261.933 162.46C231.38 114.263 217.642 116.184 199.72 111.646C166.729 103.292 146.454 106.948 121.021 89.6042Z" fill="#221F7A"/>
<path d="M-2 292C8.24561 299.398 43.625 319.389 71 326" stroke="#3531B3" stroke-width="6" stroke-linecap="round"/>
</svg>
