<svg width="360" height="177" viewBox="0 0 360 177" fill="none" xmlns="http://www.w3.org/2000/svg">
<path fill-rule="evenodd" clip-rule="evenodd" d="M360 -210V-209.352V45C304.379 45 280.085 71.4779 274.891 84.7168C267.699 104.375 242.046 140.561 196.974 128.044C151.903 115.527 116.66 133.259 104.673 143.69C72.5866 178.322 27.6395 179.437 0 173.945V-209.352V-210H360Z" fill="#030062"/>
<path fill-rule="evenodd" clip-rule="evenodd" d="M360 -222V-221.352V33C304.379 33 280.085 59.4779 274.891 72.7168C267.699 92.3746 242.046 128.561 196.974 116.044C151.903 103.527 116.66 121.259 104.673 131.69C72.5866 166.322 27.6395 167.437 0 161.945V-221.352V-222H360Z" fill="#3531B3"/>
</svg>
