<svg width="360" height="736" viewBox="0 0 360 736" fill="none" xmlns="http://www.w3.org/2000/svg">
<g filter="url(#filter0_b_1_2029)">
<path fill-rule="evenodd" clip-rule="evenodd" d="M-6.10352e-05 851L360 851L360 3.46661C359.286 3.46661 358.571 3.15472 358.026 2.53088L355.815 6.06693e-05L344.24 5.96574e-05L342.029 2.53088C340.938 3.77856 339.171 3.77856 338.081 2.53088L335.869 5.89256e-05L324.293 5.79135e-05L322.081 2.53088C320.991 3.77856 319.224 3.77856 318.134 2.53088L315.922 5.71817e-05L304.347 5.61698e-05L302.136 2.53088C301.046 3.77856 299.278 3.77856 298.188 2.53088L295.977 5.54381e-05L284.4 5.4426e-05L282.189 2.53088C281.099 3.77856 279.331 3.77856 278.241 2.53088L276.03 5.36942e-05L264.453 5.26821e-05L262.241 2.53088C261.151 3.77856 259.384 3.77856 258.294 2.53087L256.082 5.19504e-05L244.507 5.09385e-05L242.296 2.53087C241.206 3.77855 239.439 3.77855 238.348 2.53087L236.137 5.02067e-05L224.56 4.91946e-05L222.349 2.53087C221.259 3.77855 219.491 3.77855 218.401 2.53087L216.19 4.84629e-05L204.615 4.7451e-05L202.404 2.53087C201.313 3.77855 199.546 3.77855 198.456 2.53087L196.244 4.67192e-05L184.668 4.57071e-05L182.456 2.53087C181.366 3.77855 179.599 3.77855 178.509 2.53087L176.297 4.49753e-05L164.72 4.39633e-05L162.509 2.53087C161.419 3.77855 159.651 3.77855 158.561 2.53087L156.35 4.32315e-05L144.775 4.22196e-05L142.564 2.53086C141.474 3.77855 139.706 3.77855 138.616 2.53086L136.405 4.14878e-05L124.828 4.04757e-05L122.616 2.53086C121.526 3.77854 119.759 3.77854 118.669 2.53086L116.457 3.9744e-05L104.882 3.87321e-05L102.671 2.53086C101.581 3.77854 99.8135 3.77854 98.7234 2.53086L96.5121 3.80003e-05L84.9352 3.69882e-05L82.7239 2.53086C81.6338 3.77854 79.8663 3.77854 78.7761 2.53086L76.5648 3.62565e-05L64.9899 3.52445e-05L62.7786 2.53086C61.6885 3.77854 59.9209 3.77854 58.8308 2.53086L56.6195 3.45128e-05L45.0446 3.35009e-05L42.8333 2.53086C41.7431 3.77854 39.9756 3.77854 38.8855 2.53086L36.6742 3.27691e-05L25.0973 3.1757e-05L22.886 2.53085C21.7959 3.77853 20.0284 3.77853 18.9382 2.53085L16.7269 3.10253e-05L5.1501 3.00132e-05L2.93876 2.53091C2.14418 3.44034 0.989729 3.68686 1.30757e-05 3.2706L-6.10352e-05 851Z" fill="white"/>
</g>
<defs>
<filter id="filter0_b_1_2029" x="-30" y="-30" width="420" height="911" filterUnits="userSpaceOnUse" color-interpolation-filters="sRGB">
<feFlood flood-opacity="0" result="BackgroundImageFix"/>
<feGaussianBlur in="BackgroundImage" stdDeviation="15"/>
<feComposite in2="SourceAlpha" operator="in" result="effect1_backgroundBlur_1_2029"/>
<feBlend mode="normal" in="SourceGraphic" in2="effect1_backgroundBlur_1_2029" result="shape"/>
</filter>
</defs>
</svg>
