<svg width="360" height="329" viewBox="0 0 360 329" fill="none" xmlns="http://www.w3.org/2000/svg">
<g filter="url(#filter0_b_1_1640)">
<path fill-rule="evenodd" clip-rule="evenodd" d="M0 329L360 329L360 3.54858C359.292 3.54858 358.584 3.2345 358.044 2.60629L355.804 -3.6687e-07L344.195 -1.38172e-06L341.954 2.60629C340.874 3.86267 339.123 3.86267 338.043 2.60629L335.802 -2.11545e-06L324.193 -3.13034e-06L321.952 2.60629C320.872 3.86267 319.121 3.86267 318.041 2.60629L315.8 -3.86408e-06L304.191 -4.87897e-06L301.95 2.60629C300.87 3.86267 299.119 3.86267 298.039 2.60629L295.798 -5.61271e-06L284.189 -6.6276e-06L281.948 2.60629C280.868 3.86266 279.117 3.86266 278.037 2.60629L275.796 -7.36133e-06L264.187 -8.37622e-06L261.946 2.60628C260.866 3.86266 259.115 3.86266 258.035 2.60628L255.794 -9.10996e-06L244.186 -1.01248e-05L241.945 2.60628C240.865 3.86266 239.114 3.86266 238.033 2.60628L235.793 -1.08585e-05L224.184 -1.18734e-05L221.943 2.60628C220.863 3.86266 219.112 3.86266 218.032 2.60628L215.791 -1.26072e-05L204.182 -1.3622e-05L201.942 2.60628C200.861 3.86266 199.11 3.86266 198.03 2.60628L195.789 -1.43558e-05L184.18 -1.53706e-05L181.94 2.60628C180.86 3.86266 179.108 3.86266 178.028 2.60628L175.787 -1.61044e-05L164.178 -1.71193e-05L161.938 2.60628C160.858 3.86265 159.106 3.86265 158.026 2.60628L155.785 -1.7853e-05L144.177 -1.88679e-05L141.936 2.60627C140.856 3.86265 139.105 3.86265 138.025 2.60627L135.784 -1.96016e-05L124.175 -2.06165e-05L121.934 2.6063C120.854 3.86268 119.103 3.86268 118.023 2.6063L115.782 -2.13502e-05L104.174 -2.23651e-05L101.933 2.6063C100.853 3.86268 99.1014 3.86268 98.0213 2.6063L95.7805 -2.30988e-05L84.1711 -2.41137e-05L81.9304 2.6063C80.8502 3.86268 79.099 3.86268 78.0189 2.6063L75.7781 -2.48475e-05L64.1696 -2.58623e-05L61.9289 2.6063C60.8488 3.86268 59.0975 3.86268 58.0174 2.6063L55.7766 -2.65961e-05L44.1682 -2.76109e-05L41.9274 2.6063C40.8473 3.86267 39.096 3.86267 38.0159 2.6063L35.7752 -2.83446e-05L24.1662 -2.93595e-05L21.9255 2.60629C20.8454 3.86267 19.0941 3.86267 18.014 2.60629L15.7732 -3.00933e-05L4.16452 -3.11081e-05L1.92377 2.60629C1.39184 3.22501 0.697172 3.53903 2.84519e-05 3.54837L0 329Z" fill="white"/>
</g>
<defs>
<filter id="filter0_b_1_1640" x="-30" y="-30" width="420" height="389" filterUnits="userSpaceOnUse" color-interpolation-filters="sRGB">
<feFlood flood-opacity="0" result="BackgroundImageFix"/>
<feGaussianBlur in="BackgroundImage" stdDeviation="15"/>
<feComposite in2="SourceAlpha" operator="in" result="effect1_backgroundBlur_1_1640"/>
<feBlend mode="normal" in="SourceGraphic" in2="effect1_backgroundBlur_1_1640" result="shape"/>
</filter>
</defs>
</svg>
