<svg width="241" height="334" viewBox="0 0 241 334" fill="none" xmlns="http://www.w3.org/2000/svg">
<g clip-path="url(#clip0_1_3988)">
<rect x="0.0722656" y="32.9873" width="189.966" height="305.597" rx="12" transform="rotate(-10 0.0722656 32.9873)" fill="white"/>
<path d="M187.152 0.000109845L0.0722656 32.9873L53.1386 333.942L240.218 300.954L187.152 0.000109845Z" fill="#3532B3"/>
<path d="M6.22485 67.8804C6.22485 67.8804 34.6451 80.858 44.1378 134.693C53.6304 188.529 31.01 208.444 34.7012 229.378L6.22485 67.8804Z" fill="#FFC32B"/>
<path d="M223.551 206.428C223.551 206.428 183.162 202.713 181.372 231.595C179.581 260.478 142.47 274.902 142.47 274.902C142.47 274.902 101.685 288.759 105.203 324.761L240.218 300.954L223.551 206.428Z" fill="#FF8500"/>
<path opacity="0.6" d="M71.9619 330.677C71.9619 330.677 72.0454 260.249 186.566 310.47L71.9619 330.677Z" fill="#540A7F"/>
<path d="M12.7443 30.7529C12.7443 30.7529 19.3671 53.2966 58.8921 46.3273C73.0201 43.8361 80.7757 35.3406 90.1831 25.3764C95.1506 20.1105 101.484 15.1058 108.79 13.8174L12.7443 30.7529Z" fill="#FF8500"/>
<path d="M150.274 6.50259C157.264 5.27012 160.108 21.6075 159.161 25.9272C156.454 38.2694 152.967 42.389 150.387 47.5533C147.379 53.5739 145.814 54.9572 145.295 59.2938C144.512 65.8297 145.692 72.7771 149.502 78.1289C156.858 88.4595 168.715 85.8029 179.466 84.6738C180.967 84.5187 201.672 82.3464 201.491 81.3196L187.152 2.31196e-05C187.152 2.31196e-05 150.581 6.44847 150.274 6.50259Z" fill="#FFC32B"/>
<path opacity="0.6" d="M70.618 20.5482C70.618 20.5482 44.2234 109.903 112.324 96.9912C180.425 84.079 157.114 73.412 199.508 70.0741L210.722 133.673C210.722 133.673 7.05818 190.39 59.9063 22.4369L70.618 20.5482Z" fill="#540A7F"/>
<path d="M143.68 129.718C142.798 129.874 141.957 129.283 141.801 128.398L138.663 110.606C138.507 109.721 139.096 108.878 139.978 108.722C140.861 108.566 141.702 109.157 141.858 110.043L144.995 127.834C145.153 128.728 144.563 129.562 143.68 129.718Z" fill="white"/>
<path d="M158.541 127.098C152.77 128.115 147.245 124.234 146.224 118.445C145.203 112.656 149.067 107.119 154.839 106.102C160.61 105.084 166.135 108.965 167.156 114.754C168.178 120.552 164.312 126.08 158.541 127.098ZM155.404 109.306C151.388 110.014 148.701 113.865 149.411 117.892C150.121 121.92 153.964 124.619 157.979 123.911C161.994 123.203 164.682 119.352 163.971 115.325C163.261 111.297 159.419 108.598 155.404 109.306Z" fill="white"/>
<path d="M178.569 101.927C172.798 102.944 168.934 108.481 169.954 114.27L171.523 123.166C171.679 124.051 172.52 124.642 173.403 124.486C174.285 124.331 174.874 123.488 174.718 122.603L173.149 113.707C172.439 109.679 175.126 105.828 179.142 105.12C183.157 104.412 186.999 107.112 187.709 111.139L189.278 120.035C189.434 120.92 190.275 121.511 191.158 121.356C192.04 121.2 192.629 120.357 192.472 119.472L190.904 110.576C189.865 104.79 184.34 100.909 178.569 101.927Z" fill="white"/>
<path d="M125.119 111.351C122.295 111.849 119.927 113.435 118.362 115.6L116.387 104.403C116.231 103.518 115.39 102.927 114.508 103.082C113.625 103.238 113.037 104.081 113.193 104.966L116.496 123.696C117.516 129.485 123.041 133.366 128.813 132.349C134.584 131.331 138.448 125.794 137.427 120.005C136.415 114.215 130.89 110.334 125.119 111.351ZM128.256 129.143C124.241 129.851 120.399 127.151 119.688 123.124C118.978 119.097 121.666 115.246 125.681 114.538C129.696 113.83 133.539 116.529 134.249 120.557C134.959 124.584 132.271 128.435 128.256 129.143Z" fill="white"/>
<path d="M155.256 121.16C155.088 121.19 154.9 121.159 154.748 121.067L151.893 119.38C151.538 119.169 151.421 118.715 151.631 118.359C151.842 118.002 152.294 117.886 152.65 118.097L154.611 119.257C155.07 117.579 156.431 114.309 160.316 111.725C160.658 111.501 161.121 111.593 161.345 111.936C161.569 112.28 161.478 112.743 161.136 112.968C156.405 116.121 155.882 120.329 155.859 120.506C155.831 120.758 155.678 120.976 155.452 121.089C155.395 121.127 155.326 121.148 155.256 121.16Z" fill="white"/>
<path d="M142.671 133.538C142.641 133.37 142.75 133.214 142.918 133.184L144.144 132.968C144.541 132.898 144.851 132.953 145.088 133.112C145.265 133.236 145.379 133.416 145.418 133.638L145.419 133.647C145.493 134.063 145.301 134.315 145.068 134.493C145.499 134.563 145.812 134.736 145.894 135.206L145.896 135.214C146.004 135.825 145.558 136.241 144.8 136.375L143.52 136.601C143.352 136.63 143.197 136.521 143.167 136.353L142.671 133.538ZM144.284 134.431C144.672 134.362 144.902 134.167 144.847 133.857L144.845 133.848C144.797 133.574 144.557 133.452 144.169 133.52L143.304 133.673L143.465 134.584L144.285 134.44L144.284 134.431ZM144.715 135.843C145.121 135.771 145.348 135.567 145.294 135.257L145.292 135.248C145.241 134.956 144.982 134.828 144.514 134.911L143.561 135.079L143.726 136.017L144.715 135.843Z" fill="white"/>
<path d="M147.645 134.504L146.186 133.091C146.14 133.036 146.093 132.98 146.078 132.891C146.05 132.732 146.159 132.576 146.326 132.546C146.459 132.523 146.559 132.578 146.649 132.672L147.844 133.876L148.562 132.325C148.612 132.198 148.69 132.12 148.822 132.097C148.999 132.066 149.137 132.179 149.165 132.338C149.179 132.417 149.158 132.503 149.123 132.564L148.239 134.363L148.428 135.434C148.457 135.602 148.349 135.758 148.181 135.788C148.013 135.817 147.859 135.717 147.828 135.54L147.645 134.504Z" fill="white"/>
<path d="M151.848 131.919C151.818 131.751 151.927 131.595 152.095 131.566L153.322 131.349C153.719 131.279 154.029 131.334 154.266 131.493C154.443 131.617 154.556 131.798 154.595 132.019L154.597 132.028C154.67 132.444 154.478 132.697 154.246 132.875C154.677 132.945 154.989 133.118 155.072 133.587L155.073 133.596C155.181 134.207 154.736 134.623 153.977 134.757L152.697 134.982C152.53 135.012 152.374 134.902 152.344 134.734L151.848 131.919ZM153.452 132.814C153.841 132.745 154.07 132.55 154.016 132.24L154.014 132.231C153.966 131.957 153.726 131.835 153.337 131.903L152.473 132.056L152.633 132.967L153.454 132.823L153.452 132.814ZM153.883 134.226C154.289 134.154 154.517 133.949 154.463 133.64L154.461 133.631C154.409 133.339 154.15 133.211 153.683 133.293L152.73 133.462L152.895 134.4L153.883 134.226Z" fill="white"/>
<path d="M155.964 134.005L156.727 130.95C156.771 130.787 156.877 130.668 157.045 130.638L157.071 130.633C157.239 130.604 157.369 130.672 157.468 130.819L159.238 133.427C159.273 133.467 159.288 133.501 159.295 133.545C159.324 133.704 159.223 133.859 159.065 133.887C158.923 133.912 158.812 133.849 158.736 133.726L158.35 133.137L156.691 133.429L156.517 134.145C156.486 134.278 156.401 134.366 156.278 134.387C156.119 134.415 155.982 134.312 155.956 134.161C155.937 134.11 155.947 134.062 155.964 134.005ZM158.018 132.648L157.175 131.373L156.818 132.859L158.018 132.648Z" fill="white"/>
<path d="M159.752 130.508C159.722 130.339 159.831 130.183 159.999 130.154L160.06 130.143C160.21 130.116 160.302 130.173 160.4 130.265L162.494 132.178L162.124 130.08C162.096 129.921 162.205 129.765 162.364 129.737C162.531 129.707 162.687 129.817 162.715 129.976L163.221 132.844C163.25 133.012 163.15 133.167 162.983 133.196L162.956 133.201C162.815 133.226 162.714 133.171 162.616 133.078L160.459 131.113L160.841 133.282C160.869 133.441 160.76 133.597 160.602 133.625C160.434 133.655 160.278 133.545 160.25 133.386L159.743 130.509L159.752 130.508Z" fill="white"/>
<path d="M163.906 129.766C163.877 129.598 163.986 129.441 164.153 129.412C164.321 129.382 164.475 129.483 164.507 129.66L164.761 131.103L166.089 129.189C166.147 129.106 166.201 129.051 166.315 129.031C166.483 129.001 166.611 129.106 166.637 129.257C166.651 129.336 166.63 129.422 166.57 129.497L165.693 130.71L167.093 131.942C167.156 131.995 167.194 132.052 167.209 132.14C167.239 132.309 167.129 132.456 166.961 132.485C166.846 132.506 166.756 132.458 166.68 132.389L165.339 131.183L164.879 131.821L165.003 132.529C165.033 132.698 164.933 132.852 164.756 132.883C164.589 132.913 164.435 132.812 164.403 132.635L163.898 129.767L163.906 129.766Z" fill="white"/>
<path d="M169.459 128.796C169.429 128.628 169.538 128.472 169.706 128.442L169.767 128.431C169.9 128.408 170 128.463 170.069 128.542L171.387 129.98L172.141 128.168C172.184 128.051 172.272 127.981 172.387 127.96L172.448 127.949C172.616 127.92 172.772 128.029 172.802 128.197L173.306 131.057C173.335 131.225 173.226 131.381 173.059 131.41C172.9 131.438 172.735 131.331 172.706 131.162L172.344 129.109L171.736 130.512C171.691 130.62 171.623 130.696 171.508 130.716C171.393 130.737 171.312 130.687 171.233 130.601L170.183 129.499L170.544 131.544C170.573 131.712 170.472 131.857 170.295 131.889C170.127 131.918 169.982 131.816 169.952 131.648L169.45 128.798L169.459 128.796Z" fill="white"/>
<path d="M174.856 131.075C174.688 131.105 174.532 130.995 174.503 130.827L174.006 128.012C173.977 127.844 174.086 127.688 174.253 127.659L176.239 127.308C176.389 127.282 176.524 127.377 176.55 127.527C176.577 127.678 176.483 127.813 176.333 127.84L174.647 128.137L174.803 129.022L176.268 128.764C176.418 128.737 176.555 128.841 176.581 128.991C176.608 129.142 176.513 129.277 176.363 129.304L174.898 129.562L175.061 130.482L176.773 130.181C176.923 130.154 177.058 130.249 177.084 130.399C177.111 130.55 177.016 130.685 176.866 130.712L174.854 131.066L174.856 131.075Z" fill="white"/>
<path d="M177.974 130.133C177.894 130.092 177.836 130.02 177.819 129.923C177.791 129.764 177.894 129.627 178.053 129.599C178.132 129.585 178.189 129.593 178.239 129.621C178.571 129.8 178.884 129.872 179.254 129.807C179.625 129.741 179.823 129.524 179.778 129.267L179.776 129.258C179.734 129.019 179.577 128.901 178.917 128.872C178.163 128.831 177.708 128.674 177.599 128.054L177.597 128.045C177.494 127.461 177.908 126.969 178.587 126.849C179.02 126.772 179.374 126.82 179.729 126.976C179.806 126.999 179.883 127.077 179.903 127.192C179.931 127.351 179.828 127.488 179.669 127.516C179.616 127.525 179.56 127.517 179.503 127.5C179.208 127.378 178.946 127.333 178.672 127.381C178.319 127.444 178.147 127.656 178.188 127.887L178.189 127.895C178.236 128.161 178.415 128.248 179.096 128.292C179.844 128.352 180.267 128.533 180.367 129.099L180.369 129.108C180.483 129.754 180.045 130.215 179.33 130.341C178.854 130.425 178.405 130.358 177.974 130.133Z" fill="white"/>
<path d="M181.808 126.901L180.979 127.047C180.82 127.075 180.683 126.972 180.657 126.821C180.63 126.671 180.732 126.525 180.882 126.499L183.15 126.099C183.3 126.072 183.445 126.174 183.472 126.325C183.499 126.475 183.397 126.621 183.247 126.648L182.417 126.794L182.873 129.378C182.903 129.547 182.794 129.703 182.626 129.732C182.458 129.762 182.304 129.661 182.273 129.484L181.817 126.9L181.808 126.901Z" fill="white"/>
<path d="M184.423 126.148C184.394 125.98 184.503 125.824 184.67 125.794C184.838 125.765 184.992 125.865 185.024 126.042L185.529 128.91C185.559 129.078 185.459 129.233 185.282 129.264C185.115 129.294 184.96 129.193 184.929 129.016L184.423 126.148Z" fill="white"/>
<path d="M186.241 125.827C186.212 125.659 186.321 125.503 186.488 125.474C186.656 125.444 186.81 125.545 186.841 125.722L187.096 127.164L188.423 125.251C188.482 125.168 188.536 125.113 188.65 125.092C188.818 125.063 188.946 125.168 188.972 125.319C188.986 125.398 188.965 125.484 188.905 125.559L188.027 126.772L189.427 128.004C189.491 128.056 189.529 128.114 189.544 128.202C189.574 128.37 189.463 128.518 189.296 128.547C189.181 128.567 189.091 128.519 189.015 128.451L187.674 127.245L187.213 127.883L187.338 128.591C187.368 128.759 187.268 128.914 187.091 128.945C186.924 128.975 186.769 128.874 186.738 128.697L186.232 125.829L186.241 125.827Z" fill="white"/>
<path d="M190.301 127.95L191.063 124.895C191.107 124.732 191.214 124.613 191.381 124.584L191.408 124.579C191.575 124.549 191.706 124.618 191.804 124.764L193.575 127.373C193.609 127.412 193.624 127.446 193.632 127.491C193.66 127.65 193.56 127.804 193.401 127.833C193.26 127.857 193.149 127.795 193.072 127.671L192.686 127.082L191.027 127.375L190.853 128.09C190.822 128.223 190.737 128.311 190.614 128.333C190.455 128.361 190.318 128.257 190.292 128.107C190.274 128.055 190.284 128.008 190.301 127.95ZM192.363 126.592L191.52 125.317L191.163 126.803L192.363 126.592Z" fill="white"/>
<path d="M40.9053 79.5443C40.9053 79.5443 42.5556 150.077 123.472 149.847" stroke="#FFC32B" stroke-width="5" stroke-miterlimit="10" stroke-linecap="round"/>
<path d="M132.715 152.57C133.943 152.354 134.762 151.18 134.545 149.948C134.328 148.716 133.156 147.893 131.928 148.109C130.7 148.326 129.88 149.5 130.098 150.732C130.315 151.964 131.487 152.787 132.715 152.57Z" fill="#FFC32B"/>
<path d="M141.046 152.552C142.274 152.336 143.094 151.161 142.877 149.93C142.66 148.698 141.488 147.874 140.26 148.091C139.032 148.308 138.212 149.482 138.429 150.714C138.646 151.946 139.818 152.769 141.046 152.552Z" fill="#FFC32B"/>
<path opacity="0.6" d="M158.475 214.526C151.66 199.409 114.163 201.622 74.7172 219.465C59.9543 226.148 47.0203 234.069 36.955 242.159L45.224 289.055C60.3903 288.17 79.65 283.149 99.3941 274.219C138.838 256.367 165.29 229.643 158.475 214.526Z" fill="#540A7F"/>
<path d="M48.6977 220.866C49.3802 220.746 49.8964 220.443 50.2552 219.944C50.6121 219.434 50.7556 218.727 50.597 217.828L49.77 213.138C49.726 212.888 49.5202 212.735 49.2711 212.779C49.0219 212.823 48.8702 213.039 48.9142 213.288L49.7432 217.99C49.9552 219.192 49.4357 219.921 48.58 220.072C47.8758 220.196 47.3909 219.98 46.8691 219.491C46.7799 219.428 46.6799 219.368 46.5391 219.393C46.3116 219.433 46.151 219.662 46.1911 219.89C46.2121 220.009 46.2726 220.099 46.3618 220.161C46.9403 220.718 47.7011 221.042 48.6977 220.866ZM56.6067 219.494C58.9141 219.087 60.162 216.979 59.7934 214.889L59.7896 214.867C59.4209 212.776 57.5528 211.24 55.2454 211.647C52.938 212.054 51.69 214.162 52.0587 216.252L52.0625 216.274C52.4312 218.365 54.2993 219.901 56.6067 219.494ZM56.4889 218.699C54.7556 219.005 53.2507 217.818 52.947 216.096L52.9432 216.074C52.6395 214.352 53.6299 212.747 55.3632 212.442C57.0964 212.136 58.6014 213.323 58.9051 215.045L58.9089 215.067C59.2126 216.789 58.2222 218.394 56.4889 218.699ZM62.2018 217.994C62.242 218.221 62.4605 218.384 62.688 218.343C62.9371 218.3 63.0761 218.074 63.036 217.847L62.0007 211.975L67.7623 217.158C67.9209 217.298 68.0681 217.372 68.2523 217.34L68.2956 217.332C68.5231 217.292 68.655 217.09 68.6149 216.863L67.4077 210.016C67.3676 209.789 67.1491 209.626 66.9216 209.667C66.6724 209.71 66.5335 209.936 66.5736 210.163L67.5821 215.883L61.9429 210.824C61.795 210.682 61.6714 210.615 61.4656 210.651L61.3464 210.672C61.119 210.712 60.9583 210.941 60.9985 211.169L62.2018 217.994ZM70.246 216.609C70.2842 216.825 70.4881 216.968 70.7047 216.93C70.8997 216.896 71.0234 216.773 71.0648 216.565L71.5443 214.66L75.7041 213.926L76.8024 215.531C76.9088 215.691 77.0745 215.807 77.2803 215.77C77.5078 215.73 77.6595 215.514 77.6194 215.286C77.6098 215.232 77.5748 215.16 77.527 215.079L73.2662 208.905C73.1248 208.673 72.9177 208.576 72.6685 208.62L72.6252 208.627C72.3544 208.675 72.2256 208.832 72.1504 209.102L70.26 216.372C70.2409 216.453 70.2326 216.533 70.246 216.609ZM71.7426 213.82L72.8028 209.635L75.2307 213.205L71.7426 213.82ZM80.3264 214.787C80.3703 215.036 80.587 215.187 80.8361 215.143C81.0853 215.1 81.237 214.883 81.193 214.634L80.0622 208.221L82.2613 207.833C82.478 207.795 82.6316 207.589 82.5934 207.372C82.5552 207.156 82.3385 207.004 82.1219 207.042L76.8571 207.97C76.6404 208.009 76.4887 208.225 76.5269 208.442C76.5651 208.659 76.7799 208.799 76.9965 208.761L79.1956 208.374L80.3264 214.787ZM85.3468 213.901C85.3907 214.151 85.6182 214.3 85.8456 214.26C86.0948 214.216 86.2465 214 86.2026 213.75L85.6677 210.717L90.0442 209.946L90.579 212.979C90.623 213.228 90.8396 213.38 91.0888 213.336C91.3163 213.296 91.4788 213.077 91.4348 212.828L90.2315 206.003C90.1875 205.754 89.9601 205.604 89.7326 205.644C89.4834 205.688 89.3317 205.905 89.3757 206.154L89.9029 209.144L85.5264 209.916L84.9992 206.926C84.9552 206.677 84.7386 206.525 84.4895 206.569C84.262 206.609 84.0994 206.827 84.1434 207.077L85.3468 213.901ZM93.0649 212.585C93.1031 212.802 93.307 212.945 93.5236 212.906C93.7186 212.872 93.8423 212.75 93.8837 212.541L94.3632 210.636L98.523 209.903L99.6213 211.507C99.7277 211.667 99.8934 211.783 100.099 211.747C100.327 211.707 100.478 211.49 100.438 211.263C100.429 211.208 100.394 211.136 100.346 211.056L96.0851 204.882C95.9436 204.65 95.7366 204.552 95.4874 204.596L95.4441 204.604C95.1732 204.651 95.0445 204.808 94.9693 205.078L93.0789 212.348C93.0598 212.43 93.0515 212.509 93.0649 212.585ZM94.5614 209.797L95.6217 205.611L98.0496 209.182L94.5614 209.797ZM102.074 210.963C102.114 211.191 102.333 211.353 102.56 211.313C102.809 211.269 102.948 211.043 102.908 210.816L101.873 204.945L107.634 210.128C107.793 210.267 107.94 210.342 108.124 210.309L108.168 210.302C108.395 210.262 108.527 210.06 108.487 209.832L107.28 202.986C107.24 202.758 107.021 202.596 106.794 202.636C106.545 202.68 106.406 202.905 106.446 203.133L107.454 208.853L101.815 203.793C101.667 203.652 101.544 203.584 101.338 203.62L101.219 203.641C100.991 203.681 100.831 203.911 100.871 204.138L102.074 210.963ZM117.489 208.759C119.796 208.352 121.044 206.244 120.675 204.153L120.672 204.132C120.303 202.041 118.435 200.505 116.127 200.912C113.82 201.319 112.572 203.427 112.941 205.517L112.945 205.539C113.313 207.63 115.181 209.166 117.489 208.759ZM117.371 207.964C115.638 208.27 114.133 207.083 113.829 205.361L113.825 205.339C113.522 203.617 114.512 202.012 116.245 201.707C117.979 201.401 119.483 202.588 119.787 204.31L119.791 204.332C120.095 206.054 119.104 207.659 117.371 207.964ZM123.084 207.258C123.124 207.486 123.343 207.648 123.57 207.608C123.819 207.564 123.958 207.339 123.918 207.111L122.883 201.24L128.644 206.423C128.803 206.563 128.95 206.637 129.134 206.605L129.178 206.597C129.405 206.557 129.537 206.355 129.497 206.128L128.29 199.281C128.25 199.054 128.031 198.891 127.804 198.931C127.554 198.975 127.416 199.201 127.456 199.428L128.464 205.148L122.825 200.088C122.677 199.947 122.554 199.879 122.348 199.916L122.229 199.937C122.001 199.977 121.84 200.206 121.881 200.434L123.084 207.258ZM135.251 205.627C136.378 205.428 137.237 204.852 137.84 204.221C138.012 204.057 138.079 203.866 138.041 203.649L137.634 201.342C137.59 201.093 137.363 200.943 137.135 200.983L134.698 201.413C134.492 201.449 134.349 201.653 134.387 201.87C134.424 202.076 134.628 202.218 134.833 202.182L136.87 201.823L137.202 203.708C136.757 204.222 136.014 204.699 135.148 204.852C133.306 205.177 131.91 204.038 131.591 202.229L131.587 202.207C131.289 200.517 132.242 198.886 133.921 198.59C134.874 198.422 135.518 198.588 136.145 198.913C136.255 198.971 136.348 198.989 136.434 198.973C136.662 198.933 136.824 198.715 136.781 198.465C136.752 198.303 136.657 198.208 136.546 198.149C135.763 197.762 134.973 197.589 133.814 197.793C131.539 198.195 130.336 200.305 130.703 202.385L130.707 202.407C131.089 204.574 132.868 206.047 135.251 205.627Z" fill="white"/>
<path d="M55.9545 257.138C57.7099 256.828 58.7226 255.552 58.4271 253.876L58.4231 253.853C58.1096 252.075 56.764 251.53 55.2011 251.806C54.7594 251.884 54.4863 251.99 54.1831 252.125L54.0321 250.739L56.7049 250.268C57.1239 250.194 57.4151 249.792 57.3412 249.373C57.2673 248.954 56.8543 248.665 56.4353 248.739L52.9924 249.346C52.5733 249.42 52.3142 249.804 52.3541 250.229L52.6688 252.941C52.7001 253.251 52.8419 253.459 53.1097 253.587C53.5067 253.786 53.7039 253.845 53.9644 253.799C54.2022 253.757 54.4607 253.501 55.1289 253.383C55.9557 253.237 56.6031 253.532 56.723 254.211L56.727 254.234C56.8528 254.948 56.377 255.428 55.6409 255.558C55.086 255.656 54.5937 255.579 54.0448 255.314C53.8909 255.236 53.7563 255.202 53.5412 255.24C53.0881 255.319 52.7823 255.77 52.8622 256.223C52.9161 256.529 53.09 256.72 53.3311 256.83C54.0452 257.171 54.8559 257.332 55.9545 257.138ZM63.6996 255.772C65.8175 255.399 66.9156 253.348 66.5102 251.049L66.5062 251.027C66.0988 248.716 64.3717 247.199 62.2765 247.569C60.1587 247.942 59.0605 249.992 59.4659 252.291L59.4699 252.314C59.8773 254.624 61.5705 256.148 63.6996 255.772ZM63.4447 254.194C62.3914 254.38 61.5109 253.426 61.2553 251.976L61.2513 251.953C60.9957 250.504 61.4895 249.331 62.5314 249.147C63.5733 248.963 64.4672 249.927 64.7208 251.365L64.7248 251.388C64.9804 252.837 64.498 254.008 63.4447 254.194ZM68.0566 254.011C68.1505 254.544 68.5988 254.768 69.1424 254.672L73.446 253.913C73.8651 253.84 74.1469 253.451 74.073 253.032C73.9991 252.613 73.5995 252.333 73.1804 252.407L70.4171 252.894L71.5324 251.67C72.743 250.324 73.3107 249.57 73.0751 248.234L73.0711 248.211C72.8095 246.727 71.5412 245.958 69.9104 246.246C68.6986 246.46 68.0383 247.02 67.5339 247.868C67.4259 248.05 67.3899 248.243 67.4259 248.447C67.5038 248.889 67.9167 249.178 68.3584 249.1C68.6302 249.052 68.8008 248.894 68.9034 248.747C69.2592 248.182 69.5744 247.917 70.0727 247.829C70.7069 247.717 71.1992 247.992 71.319 248.672C71.4368 249.34 71.137 249.825 70.2841 250.816L68.3559 253.059C68.092 253.351 67.9967 253.672 68.0566 254.011ZM78.3591 253.164C80.1145 252.854 81.2651 251.764 81.0055 250.292L81.0015 250.269C80.8358 249.329 80.2702 248.903 79.3923 248.626C79.9492 248.143 80.2464 247.576 80.0947 246.716L80.0907 246.693C79.875 245.47 78.5974 244.714 76.9212 245.01C75.2451 245.305 74.305 246.464 74.5186 247.675L74.5226 247.698C74.6744 248.559 75.1473 248.989 75.8361 249.253C75.0566 249.799 74.7241 250.43 74.8938 251.393L74.8978 251.415C75.1415 252.797 76.6036 253.473 78.3591 253.164ZM77.5123 248.362C76.8215 248.484 76.3059 248.143 76.2081 247.588L76.2041 247.565C76.1182 247.078 76.45 246.576 77.1749 246.448C77.8997 246.32 78.3853 246.69 78.4711 247.177L78.4751 247.2C78.573 247.755 78.2032 248.24 77.5123 248.362ZM78.1054 251.726C77.2447 251.877 76.6572 251.526 76.5613 250.982L76.5573 250.959C76.4475 250.336 76.9519 249.885 77.756 249.744C78.5601 249.602 79.1882 249.853 79.2981 250.476L79.3021 250.499C79.3999 251.054 78.9662 251.574 78.1054 251.726ZM85.6418 250.911C85.7357 251.443 86.184 251.667 86.7276 251.572L91.0312 250.813C91.4502 250.739 91.7321 250.35 91.6582 249.931C91.5843 249.512 91.1846 249.233 90.7656 249.306L88.0022 249.794L89.1176 248.569C90.3282 247.223 90.8959 246.469 90.6603 245.133L90.6563 245.11C90.3947 243.627 89.1264 242.858 87.4955 243.145C86.2837 243.359 85.6235 243.919 85.119 244.767C85.0111 244.95 84.9751 245.143 85.011 245.347C85.0889 245.788 85.5019 246.077 85.9436 246C86.2154 245.952 86.386 245.793 86.4886 245.647C86.8444 245.082 87.1595 244.816 87.6579 244.728C88.2921 244.616 88.7843 244.891 88.9042 245.571C89.022 246.239 88.7221 246.724 87.8693 247.715L85.9411 249.959C85.6772 250.25 85.5819 250.571 85.6418 250.911ZM96.5032 249.988C98.621 249.615 99.7191 247.564 99.3137 245.265L99.3097 245.243C98.9024 242.932 97.1752 241.415 95.08 241.784C92.9622 242.158 91.864 244.208 92.2694 246.507L92.2734 246.53C92.6808 248.84 94.374 250.363 96.5032 249.988ZM96.2482 248.41C95.195 248.595 94.3144 247.641 94.0588 246.192L94.0548 246.169C93.7992 244.719 94.293 243.546 95.3349 243.363C96.3769 243.179 97.2707 244.142 97.5243 245.581L97.5283 245.603C97.784 247.053 97.3015 248.224 96.2482 248.41ZM104.217 248.604C105.972 248.295 107.123 247.205 106.863 245.732L106.859 245.71C106.694 244.77 106.128 244.344 105.25 244.067C105.807 243.583 106.104 243.017 105.953 242.156L105.949 242.133C105.733 240.91 104.455 240.155 102.779 240.45C101.103 240.746 100.163 241.904 100.377 243.116L100.381 243.139C100.532 243.999 101.005 244.43 101.694 244.694C100.915 245.24 100.582 245.871 100.752 246.833L100.756 246.856C100.999 248.238 102.462 248.914 104.217 248.604ZM103.37 243.803C102.679 243.924 102.164 243.583 102.066 243.028L102.062 243.006C101.976 242.519 102.308 242.016 103.033 241.889C103.758 241.761 104.243 242.131 104.329 242.618L104.333 242.64C104.431 243.195 104.061 243.681 103.37 243.803ZM103.963 247.166C103.103 247.318 102.515 246.966 102.419 246.422L102.415 246.4C102.305 245.777 102.81 245.326 103.614 245.184C104.418 245.042 105.046 245.294 105.156 245.917L105.16 245.939C105.258 246.494 104.824 247.014 103.963 247.166ZM111.91 247.271C114.027 246.898 115.126 244.848 114.72 242.549L114.716 242.526C114.309 240.216 112.582 238.698 110.486 239.068C108.369 239.441 107.27 241.492 107.676 243.791L107.68 243.813C108.087 246.124 109.78 247.647 111.91 247.271ZM111.655 245.693C110.601 245.879 109.721 244.925 109.465 243.475L109.461 243.453C109.206 242.003 109.699 240.83 110.741 240.646C111.783 240.462 112.677 241.426 112.931 242.864L112.935 242.887C113.19 244.336 112.708 245.508 111.655 245.693ZM122.966 245.322C124.722 245.012 125.734 243.736 125.439 242.06L125.435 242.037C125.121 240.259 123.776 239.714 122.213 239.99C121.771 240.068 121.498 240.174 121.195 240.309L121.044 238.923L123.717 238.452C124.136 238.378 124.427 237.976 124.353 237.557C124.279 237.138 123.866 236.849 123.447 236.923L120.004 237.53C119.585 237.604 119.326 237.988 119.366 238.413L119.68 241.125C119.712 241.435 119.854 241.643 120.121 241.771C120.518 241.97 120.716 242.029 120.976 241.983C121.214 241.941 121.472 241.685 122.141 241.567C122.967 241.421 123.615 241.716 123.735 242.395L123.739 242.418C123.864 243.132 123.389 243.613 122.653 243.742C122.098 243.84 121.605 243.763 121.056 243.498C120.903 243.42 120.768 243.386 120.553 243.424C120.1 243.503 119.794 243.954 119.874 244.407C119.928 244.713 120.102 244.904 120.343 245.014C121.057 245.355 121.868 245.516 122.966 245.322ZM126.796 243.654C126.889 244.186 127.338 244.411 127.881 244.315L132.185 243.556C132.604 243.482 132.886 243.094 132.812 242.675C132.738 242.256 132.338 241.976 131.919 242.05L129.156 242.537L130.271 241.313C131.482 239.967 132.05 239.213 131.814 237.876L131.81 237.854C131.548 236.37 130.28 235.601 128.649 235.889C127.437 236.102 126.777 236.663 126.273 237.51C126.165 237.693 126.129 237.886 126.165 238.09C126.243 238.532 126.656 238.821 127.097 238.743C127.369 238.695 127.54 238.537 127.642 238.39C127.998 237.825 128.313 237.559 128.812 237.472C129.446 237.36 129.938 237.635 130.058 238.314C130.176 238.983 129.876 239.468 129.023 240.459L127.095 242.702C126.831 242.994 126.736 243.314 126.796 243.654ZM137.657 242.731C139.775 242.358 140.873 240.308 140.467 238.009L140.463 237.986C140.056 235.676 138.329 234.159 136.234 234.528C134.116 234.901 133.018 236.952 133.423 239.251L133.427 239.273C133.834 241.584 135.528 243.107 137.657 242.731ZM137.402 241.153C136.349 241.339 135.468 240.385 135.213 238.935L135.209 238.913C134.953 237.463 135.447 236.29 136.489 236.106C137.531 235.922 138.424 236.886 138.678 238.324L138.682 238.347C138.938 239.796 138.455 240.968 137.402 241.153ZM145.93 241.273C148.047 240.899 149.146 238.849 148.74 236.55L148.736 236.527C148.329 234.217 146.602 232.7 144.506 233.069C142.389 233.443 141.291 235.493 141.696 237.792L141.7 237.815C142.107 240.125 143.8 241.648 145.93 241.273ZM145.675 239.695C144.621 239.88 143.741 238.926 143.485 237.477L143.481 237.454C143.226 236.004 143.719 234.831 144.761 234.647C145.803 234.464 146.697 235.427 146.951 236.865L146.955 236.888C147.21 238.338 146.728 239.509 145.675 239.695ZM157.598 239.215C159.716 238.842 160.814 236.792 160.408 234.493L160.404 234.47C159.997 232.16 158.27 230.642 156.175 231.012C154.057 231.385 152.959 233.436 153.364 235.735L153.368 235.757C153.775 238.068 155.469 239.591 157.598 239.215ZM157.343 237.637C156.29 237.823 155.409 236.869 155.153 235.419L155.149 235.396C154.894 233.947 155.388 232.774 156.43 232.59C157.471 232.406 158.365 233.37 158.619 234.808L158.623 234.831C158.879 236.28 158.396 237.451 157.343 237.637ZM165.871 237.757C167.988 237.383 169.087 235.333 168.681 233.034L168.677 233.011C168.27 230.701 166.543 229.184 164.447 229.553C162.33 229.927 161.231 231.977 161.637 234.276L161.641 234.299C162.048 236.609 163.741 238.132 165.871 237.757ZM165.616 236.178C164.562 236.364 163.682 235.41 163.426 233.96L163.422 233.938C163.167 232.488 163.66 231.315 164.702 231.131C165.744 230.948 166.638 231.911 166.892 233.349L166.896 233.372C167.151 234.822 166.669 235.993 165.616 236.178ZM170.228 235.996C170.321 236.528 170.77 236.753 171.313 236.657L175.617 235.898C176.036 235.824 176.318 235.436 176.244 235.017C176.17 234.598 175.77 234.318 175.351 234.392L172.588 234.879L173.703 233.655C174.914 232.309 175.482 231.554 175.246 230.218L175.242 230.195C174.98 228.712 173.712 227.943 172.081 228.23C170.869 228.444 170.209 229.004 169.705 229.852C169.597 230.035 169.561 230.228 169.597 230.432C169.675 230.873 170.088 231.163 170.529 231.085C170.801 231.037 170.972 230.878 171.074 230.732C171.43 230.167 171.745 229.901 172.244 229.813C172.878 229.701 173.37 229.977 173.49 230.656C173.608 231.324 173.308 231.809 172.455 232.8L170.527 235.044C170.263 235.336 170.168 235.656 170.228 235.996ZM180.806 235.123C182.527 234.82 183.634 233.48 183.346 231.849L183.342 231.827C183.051 230.173 181.685 229.515 180.111 229.792C179.33 229.93 178.909 230.261 178.559 230.592C178.5 229.528 178.835 228.651 179.832 228.475C180.319 228.389 180.654 228.435 181.055 228.587C181.193 228.644 181.36 228.661 181.507 228.635C181.96 228.555 182.272 228.139 182.192 227.685C182.13 227.334 181.909 227.14 181.607 227.018C181.07 226.821 180.413 226.738 179.609 226.88C177.242 227.297 176.464 229.373 176.895 231.819L176.899 231.842C177.177 233.416 177.689 234.201 178.368 234.677C179.021 235.134 179.764 235.307 180.806 235.123ZM180.474 233.64C179.614 233.792 179.005 233.386 178.885 232.706L178.881 232.683C178.761 232.004 179.177 231.452 180.038 231.3C180.899 231.148 181.504 231.532 181.624 232.211L181.628 232.234C181.747 232.914 181.335 233.488 180.474 233.64Z" fill="white"/>
<path d="M80.1176 233.077C80.1615 233.326 80.389 233.476 80.6165 233.436C80.8656 233.392 81.0065 233.177 80.9625 232.928L79.7515 226.06C79.7114 225.832 79.5037 225.668 79.2545 225.712L79.2329 225.716C79.092 225.741 78.948 225.811 78.7842 225.895L77.6149 226.548C77.4224 226.66 77.3459 226.797 77.3765 226.97C77.4128 227.176 77.6039 227.31 77.8097 227.274C77.8639 227.264 77.927 227.242 77.9882 227.209L78.9887 226.675L80.1176 233.077ZM82.5338 232.629C82.5777 232.878 82.7886 232.997 83.0378 232.953L87.5984 232.149C87.8151 232.111 87.9687 231.905 87.9305 231.688C87.8923 231.472 87.6776 231.331 87.4609 231.369L83.7886 232.016L85.4972 229.861C86.6253 228.467 87.0899 227.681 86.8951 226.576L86.8913 226.555C86.6735 225.32 85.5273 224.584 84.1623 224.824C82.9057 225.046 82.3277 225.695 81.8413 226.674C81.8005 226.76 81.7814 226.841 81.7967 226.928C81.8349 227.145 82.0388 227.287 82.2554 227.249C82.3963 227.224 82.4823 227.142 82.5429 227.042C82.9674 226.219 83.4205 225.748 84.2329 225.605C85.0562 225.46 85.8597 225.899 86.0163 226.787C86.152 227.556 85.8288 228.194 84.855 229.449L82.6689 232.191C82.5491 232.335 82.5071 232.477 82.5338 232.629ZM88.7642 233.083C88.7967 233.267 88.9643 233.394 89.1701 233.357C89.3109 233.332 89.3951 233.239 89.4461 233.085L92.5112 222.849C92.5342 222.79 92.5335 222.723 92.5221 222.658C92.4896 222.473 92.3112 222.349 92.127 222.381C91.9862 222.406 91.8912 222.501 91.8402 222.655L88.7859 232.889C88.763 232.949 88.7509 233.007 88.7642 233.083ZM94.3082 230.552C94.3521 230.802 94.563 230.921 94.8122 230.877L99.3728 230.073C99.5895 230.034 99.7431 229.829 99.7049 229.612C99.6667 229.395 99.452 229.255 99.2353 229.293L95.563 229.94L97.2716 227.785C98.3997 226.391 98.8643 225.605 98.6695 224.5L98.6657 224.478C98.4479 223.244 97.3017 222.507 95.9367 222.748C94.6801 222.97 94.1021 223.619 93.6158 224.598C93.575 224.684 93.5558 224.765 93.5711 224.852C93.6093 225.068 93.8132 225.211 94.0299 225.173C94.1707 225.148 94.2567 225.066 94.3173 224.966C94.7418 224.143 95.1949 223.672 96.0074 223.529C96.8307 223.383 97.6341 223.823 97.7908 224.711C97.9264 225.48 97.6032 226.118 96.6294 227.373L94.4434 230.115C94.3235 230.259 94.2815 230.401 94.3082 230.552ZM104.718 228.762C104.758 228.989 104.975 229.141 105.203 229.101C105.452 229.057 105.593 228.842 105.552 228.614L105.298 227.174L106.154 227.023C106.36 226.986 106.498 226.817 106.461 226.611C106.425 226.405 106.234 226.272 106.028 226.308L105.172 226.459L104.338 221.725C104.294 221.476 104.064 221.315 103.804 221.361C103.577 221.401 103.475 221.519 103.373 221.705L100.278 227.21C100.184 227.372 100.16 227.488 100.189 227.65C100.232 227.899 100.445 228.029 100.694 227.985L104.464 227.321L104.718 228.762ZM101.153 227.167L103.649 222.695L104.338 226.606L101.153 227.167Z" fill="white"/>
<path d="M50.6855 232.951C50.9819 232.899 51.1482 232.713 51.2111 232.425L52.1236 228.369C52.1403 228.302 52.1521 228.208 52.1375 228.125C52.0852 227.828 51.82 227.655 51.5236 227.707C51.2685 227.752 51.1185 227.949 51.073 228.135L50.4096 231.507L48.6525 228.597C48.5321 228.398 48.3249 228.271 48.0492 228.32C47.7528 228.372 47.5585 228.641 47.6108 228.937C47.6266 229.027 47.6687 229.105 47.7178 229.181L49.9427 232.649C50.1004 232.898 50.3201 233.016 50.6166 232.964L50.6855 232.951ZM52.8205 232.028C52.8691 232.303 53.1217 232.486 53.3974 232.438C53.618 232.399 53.7766 232.25 53.8285 232.02L54.0265 231.168L56.1498 230.794L56.6075 231.495C56.7498 231.697 56.9339 231.814 57.182 231.77C57.4647 231.72 57.6452 231.454 57.5953 231.171C57.5844 231.109 57.5515 231.044 57.5025 230.967L55.1507 227.466C54.9861 227.217 54.7594 227.101 54.463 227.153L54.401 227.164C54.1045 227.217 53.9245 227.405 53.8547 227.694L52.8424 231.789C52.8213 231.871 52.8071 231.952 52.8205 232.028ZM54.2542 230.161L54.642 228.451L55.5915 229.925L54.2542 230.161ZM58.4159 230.963C58.4682 231.259 58.7439 231.452 59.0403 231.4L61.5358 230.96C61.8047 230.913 61.9807 230.661 61.9333 230.392C61.8859 230.123 61.6345 229.947 61.3657 229.995L59.401 230.341L58.8066 226.97C58.7543 226.674 58.4786 226.481 58.1822 226.533C57.8857 226.585 57.6927 226.861 57.745 227.157L58.4159 230.963ZM62.7396 230.243C62.7919 230.539 63.0676 230.733 63.364 230.68C63.6605 230.628 63.8535 230.352 63.8012 230.056L63.123 226.209C63.0707 225.913 62.795 225.72 62.4986 225.772C62.2021 225.824 62.0091 226.1 62.0614 226.396L62.7396 230.243ZM64.9999 229.802C65.0522 230.098 65.3279 230.291 65.6243 230.239L66.9755 230.001C68.4921 229.733 69.3539 228.494 69.1145 227.136L69.112 227.122C68.8726 225.764 67.6412 224.908 66.1246 225.175L64.7734 225.414C64.477 225.466 64.284 225.741 64.3362 226.038L64.9999 229.802ZM65.9862 229.187L65.4732 226.278L66.2936 226.133C67.1553 225.982 67.8539 226.477 68.0046 227.332L68.007 227.345C68.1578 228.2 67.6682 228.891 66.8065 229.043L65.9862 229.187ZM51.1409 240.412C51.1932 240.708 51.4689 240.901 51.7653 240.849C52.0617 240.797 52.2548 240.521 52.2025 240.224L51.6105 236.867L52.6308 236.687C52.8997 236.64 53.0814 236.38 53.034 236.112C52.9865 235.843 52.7271 235.661 52.4582 235.708L49.3561 236.255C49.0872 236.303 48.9055 236.562 48.9529 236.831C49.0003 237.1 49.2598 237.282 49.5287 237.234L50.5489 237.054L51.1409 240.412ZM54.4873 239.822C54.5396 240.118 54.8153 240.311 55.1117 240.259C55.4082 240.207 55.6012 239.931 55.549 239.634L55.2937 238.187L57.2515 237.841L57.5068 239.289C57.559 239.586 57.8347 239.779 58.1312 239.726C58.4276 239.674 58.6206 239.398 58.5684 239.102L57.8901 235.255C57.8378 234.959 57.5621 234.766 57.2657 234.818C56.9693 234.87 56.7762 235.146 56.8285 235.442L57.0789 236.863L55.1211 237.208L54.8707 235.788C54.8184 235.491 54.5427 235.298 54.2463 235.35C53.9498 235.403 53.7568 235.678 53.8091 235.975L54.4873 239.822ZM59.7249 238.898C59.7772 239.194 60.0529 239.388 60.3493 239.335C60.6457 239.283 60.8388 239.007 60.7865 238.711L60.6005 237.656L61.4485 237.507L62.7135 238.634C62.8724 238.77 63.0447 238.86 63.286 238.817C63.5411 238.772 63.7552 238.536 63.7029 238.239C63.6738 238.074 63.5854 237.976 63.4589 237.863L62.5632 237.097C63.1066 236.752 63.4044 236.223 63.2694 235.458L63.267 235.444C63.1856 234.983 62.9833 234.642 62.6589 234.414C62.2778 234.148 61.7798 234.065 61.1663 234.173L59.4911 234.468C59.1947 234.521 59.0016 234.796 59.0539 235.093L59.7249 238.898ZM60.4352 236.719L60.1909 235.333L61.2456 235.147C61.7695 235.055 62.1199 235.227 62.2013 235.689L62.2037 235.703C62.2767 236.117 62.0346 236.437 61.5106 236.529L60.4352 236.719ZM66.8193 238.23C68.1153 238.001 68.8092 237.14 68.5515 235.678L68.1577 233.445C68.1054 233.148 67.8297 232.955 67.5333 233.008C67.2368 233.06 67.0438 233.336 67.096 233.632L67.4972 235.907C67.6333 236.679 67.3153 237.133 66.6604 237.249C66.0055 237.364 65.549 237.032 65.4092 236.24L65.0142 233.999C64.9619 233.703 64.6862 233.51 64.3897 233.562C64.0933 233.614 63.9003 233.89 63.9525 234.186L64.3524 236.454C64.6041 237.881 65.5232 238.458 66.8193 238.23Z" fill="white"/>
<path fill-rule="evenodd" clip-rule="evenodd" d="M213.249 280.449L214.838 289.461C215.071 290.782 216.251 290.512 217.445 290.178C217.499 290.165 217.506 290.152 217.498 290.107C217.493 290.08 216.505 284.138 216.479 283.991C216.885 284.259 220.227 287.605 220.918 288.262C222.234 289.507 221.849 289.432 224.057 289.043C224.442 288.975 224.439 288.868 224.374 288.499L222.785 279.488C222.727 279.158 222.611 278.925 222.455 278.77C221.934 278.26 220.867 278.587 220.294 278.737C220.223 278.756 220.133 278.834 220.14 278.91C220.26 279.59 221.088 284.25 221.26 285.261C221.085 285.171 220.576 284.708 220.405 284.538C218.911 283.046 217.34 281.436 215.796 280.05C215.143 279.463 214.725 279.698 213.568 279.902C213.174 279.971 213.185 280.065 213.252 280.446L213.249 280.449Z" fill="white"/>
<path fill-rule="evenodd" clip-rule="evenodd" d="M207.142 291.874L207.14 291.862L206.643 288.74L209.658 288.178C212.484 287.714 213.196 283.977 211.406 281.883C210.737 281.099 209.918 281.667 208.367 282.295C207.595 282.611 207.028 282.674 207.105 283.071C207.814 283.181 208.364 282.685 209.081 283.155C209.572 283.476 209.907 284.186 209.836 284.971C209.695 286.491 207.8 286.467 206.289 286.733C205.604 282.848 206.076 283.206 204.311 283.897C202.861 284.462 203.274 284.355 203.928 288.064C204.118 289.142 204.282 290.287 204.507 291.35C204.771 292.62 205.834 292.25 206.955 292.052C206.958 292.052 206.967 292.05 206.973 292.049C207.134 292.024 207.163 291.991 207.141 291.868L207.142 291.874Z" fill="white"/>
<path fill-rule="evenodd" clip-rule="evenodd" d="M195.19 286.806L195.249 286.641C195.373 285.804 196.518 285.015 197.187 284.437C197.555 284.115 199.268 282.72 199.432 282.444C197.011 282.355 194.954 283.054 193.64 284.497C192.546 285.7 192.199 288.05 192.913 290.293C193.576 292.37 195.057 293.489 196.985 293.708C198.77 293.909 202.026 293.119 203.016 291.91L202.532 288.971C202.368 288.039 202.342 286.867 201.369 286.804C200.323 286.735 198.635 288.043 197.541 288.677C197.249 288.846 197.193 288.81 197.284 289.183L200.249 288.709L200.526 290.264C200.672 291.016 200.626 290.916 199.841 291.197C198.915 291.527 197.794 291.669 196.962 291.38C195.512 290.879 194.809 288.631 195.185 286.813L195.19 286.806Z" fill="white"/>
<path fill-rule="evenodd" clip-rule="evenodd" d="M215.991 272.015L217.123 271.969C217.075 272.033 217.137 272.1 216.728 272.224C216.497 272.296 216.44 272.294 216.207 272.301L215.991 272.015ZM199.434 282.44C199.27 282.716 197.558 284.112 197.19 284.433C196.521 285.014 195.376 285.803 195.251 286.638L195.222 286.72L195.303 286.681C195.761 286.517 197.027 285.651 197.52 285.332C198.255 284.86 199.279 284.04 199.871 284.244C199.622 284.764 197.303 285.642 197.495 286.68C198.18 286.473 208.465 281.185 209.489 280.683C210.518 280.177 211.457 279.727 212.258 279.042C212.801 278.579 215.714 275.295 216.258 274.698C216.64 274.276 216.795 274.023 217.516 273.788C218.213 273.56 218.767 273.53 218.795 272.824C218.3 273.149 218.204 273.243 217.679 272.974C217.788 272.671 218.159 272.491 218.575 272.476C219.257 272.449 219.179 272.75 219.535 272.891C219.425 271.415 217.997 271.822 217.737 271.728C217.556 271.661 217.384 271.426 217.107 271.311C216.629 271.114 215.913 271.374 215.364 271.486C214.658 271.629 214.088 271.6 213.432 271.706C213.579 272.011 213.765 272.04 214 272.323C213.813 272.488 213.71 272.488 213.401 272.595C213.183 272.67 212.94 272.763 212.794 272.856C212.809 273.295 213.543 273.527 213.346 274.214C213.095 274.119 205.106 266.987 204.537 266.469C204.02 266.001 203.564 265.631 203.05 265.162C201.618 263.861 200.629 263.39 199.112 262.348C198.821 262.149 198.59 261.939 198.298 261.753L193.398 258.462C192.825 258.085 192.318 257.763 191.752 257.384L189.337 255.734C189.018 255.522 188.631 255.167 188.491 255.349C188.364 255.708 188.751 257.499 188.97 257.906C189.351 258.617 189.979 258.898 190.494 259.249C191.618 260.009 192.676 260.712 193.798 261.478C195.35 262.535 197.134 263.818 198.715 264.83C199.088 265.067 200.064 265.584 200.03 266.405C199.777 266.37 195.915 263.705 195.283 263.307L191.16 260.494C190.928 260.347 190.778 260.135 190.441 260.191C190.32 260.515 190.676 262.161 190.842 262.515C191.164 263.212 191.709 263.465 192.167 263.779L198.106 267.786C198.629 268.132 199.021 268.387 199.552 268.797C199.976 269.124 200.684 269.348 200.724 270.268C200.329 270.245 199.13 269.255 198.647 268.941L193.396 265.45C192.231 264.657 192.211 264.541 192.45 265.898C192.661 267.096 192.701 267.355 193.787 268.127C195.512 269.355 197.085 270.323 199.05 271.687C200.257 272.528 201.188 272.83 201.392 273.934C201.046 273.887 196.729 270.892 196.078 270.475C195.445 270.074 194.648 269.328 194.242 269.378C194.102 269.758 194.266 271.518 195.418 272.278C196.861 273.232 198.566 274.469 200.012 275.388C200.41 275.642 200.76 275.874 201.147 276.139C201.524 276.397 201.899 276.705 201.996 277.411C201.642 277.405 200.943 276.787 200.521 276.503C200.011 276.161 199.56 275.873 199.042 275.538L196.876 274.06C196.622 273.898 196.373 273.602 196.036 273.708C196.005 274.615 196.338 275.705 196.93 276.16C197.231 276.394 197.529 276.561 197.849 276.78L200.598 278.658C201.424 279.201 201.576 279.44 202.262 279.628C202.521 279.7 202.369 279.6 202.527 279.751L199.432 282.447L199.434 282.44Z" fill="white"/>
<path fill-rule="evenodd" clip-rule="evenodd" d="M211.428 265.301L211.346 265.229C210.946 264.786 209.167 261.109 208.757 260.891C208.426 261.104 208.181 262.389 208.195 262.754C208.26 264.343 211.334 267.514 210.474 268.558L209.297 266.631C209.057 266.207 208.431 264.89 208.125 264.731C207.862 264.867 207.382 266.326 207.656 267.174C207.785 267.568 208.681 269.14 208.94 269.403C209.438 269.911 210.115 270.468 210.647 270.921L211.939 272.062C212.139 272.243 212.182 272.359 212.46 272.362L214.18 266.579C214.388 265.668 214.036 265.141 213.635 264.43L210.525 258.874C210.216 258.326 209.821 257.516 209.488 257.049C209.132 257.171 209.212 257.305 209.007 257.968C208.895 258.328 208.789 258.646 208.849 259.111C208.937 259.806 210.506 262.38 210.943 263.174C211.246 263.723 211.917 264.655 211.428 265.304L211.428 265.301Z" fill="white"/>
</g>
<defs>
<clipPath id="clip0_1_3988">
<rect x="0.0722656" y="32.9873" width="189.966" height="305.597" rx="12" transform="rotate(-10 0.0722656 32.9873)" fill="white"/>
</clipPath>
</defs>
</svg>
