<svg width="60" height="60" viewBox="0 0 60 60" fill="none" xmlns="http://www.w3.org/2000/svg">
<circle cx="30" cy="30" r="30" fill="white"/>
<path fill-rule="evenodd" clip-rule="evenodd" d="M24.1588 13H35.8412C38.1474 13 40 14.8932 40 17.25V42.75C40 45.1068 38.1474 47 35.8412 47H24.1588C21.8904 47 20 45.1068 20 42.75V17.25C20 14.8932 21.8526 13 24.1588 13Z" fill="#FF8500"/>
<rect x="22" y="17" width="16" height="25" fill="#3531B3"/>
<path d="M25.0822 30.432C25.0822 30.776 25.3542 31.048 25.6982 31.048C26.0422 31.048 26.3142 30.776 26.3142 30.432V29.208H27.2982L28.4982 30.728C28.6502 30.912 28.8262 31.048 29.1062 31.048C29.4022 31.048 29.6902 30.824 29.6902 30.48C29.6902 30.288 29.6102 30.16 29.4902 30.008L28.6342 28.968C29.3142 28.688 29.7542 28.152 29.7542 27.264V27.248C29.7542 26.712 29.5942 26.288 29.2742 25.968C28.8982 25.592 28.3542 25.4 27.6422 25.4H25.6982C25.3542 25.4 25.0822 25.672 25.0822 26.016V30.432ZM26.3142 28.12V26.512H27.5382C28.1462 26.512 28.5062 26.776 28.5062 27.312V27.328C28.5062 27.808 28.1702 28.12 27.5622 28.12H26.3142ZM30.7354 31.72C30.7354 32.064 30.9994 32.328 31.3434 32.328C31.6874 32.328 31.9514 32.064 31.9514 31.72V30.44C32.2394 30.784 32.6394 31.08 33.2874 31.08C34.3034 31.08 35.2394 30.296 35.2394 28.864V28.848C35.2394 27.416 34.2874 26.632 33.2874 26.632C32.6474 26.632 32.2474 26.92 31.9514 27.328V27.272C31.9514 26.928 31.6874 26.664 31.3434 26.664C30.9994 26.664 30.7354 26.928 30.7354 27.272V31.72ZM32.9754 30.048C32.4074 30.048 31.9354 29.576 31.9354 28.864V28.848C31.9354 28.136 32.4074 27.664 32.9754 27.664C33.5434 27.664 34.0234 28.136 34.0234 28.848V28.864C34.0234 29.584 33.5434 30.048 32.9754 30.048Z" fill="white"/>
</svg>
