<svg width="244" height="280" viewBox="0 0 244 280" fill="none" xmlns="http://www.w3.org/2000/svg">
<path fill-rule="evenodd" clip-rule="evenodd" d="M213.089 9.65527H63.5111C50.3407 52.4631 24 152.81 24 211.733V280H63.5111V280.892H206.504L213.089 9.65527Z" fill="#534ED9"/>
<path d="M213.835 10.0222L240.883 18.5377C242.549 19.0622 243.682 20.6067 243.682 22.3531V280H167.386V211.117C167.386 153.432 193.978 58.9624 207.554 13.3393C208.349 10.6669 211.175 9.18492 213.835 10.0222Z" fill="#3531B3"/>
<path d="M156.681 180.806C161.959 134.304 182.757 54.5508 192.496 20.4868H71.8553C53.0052 78.9893 42.6376 139.554 36.04 180.806H156.681Z" fill="#221F7A"/>
<path d="M89.8879 34.0078H183.804L161.067 133.483H58.2529L89.8879 34.0078Z" fill="#030062"/>
<path d="M93.9567 41.7339H174.147L154.732 126.722H66.9453L93.9567 41.7339Z" fill="#168BC3"/>
<path d="M119.741 147.004H155.797L136.82 168.251H101.713L119.741 147.004Z" fill="#3531B3"/>
<rect x="58.2529" y="147.004" width="35.7338" height="7.72624" fill="#3531B3"/>
<rect x="66.9453" y="192.396" width="71.4677" height="18.3498" fill="#FFB70A"/>
<rect x="72.7393" y="200.122" width="58.9125" height="5.79468" fill="#FF8500"/>
<path d="M93.0215 85.8494C93.0215 86.3574 93.427 86.7347 93.9526 86.7347C94.4782 86.7347 94.8686 86.3574 94.8686 85.8494V83.1206H97.1963L99.7493 86.2703C99.9746 86.5461 100.23 86.7347 100.65 86.7347C101.116 86.7347 101.536 86.4154 101.536 85.9074C101.536 85.6316 101.416 85.4429 101.236 85.2252L99.2237 82.7723C100.635 82.3368 101.611 81.3789 101.611 79.7387V79.7097C101.611 78.8243 101.296 78.084 100.74 77.518C100.065 76.8793 99.0285 76.502 97.7069 76.502H93.9526C93.427 76.502 93.0215 76.8938 93.0215 77.4019V85.8494ZM94.8686 81.5385V78.1276H97.5568C98.9384 78.1276 99.7343 78.7082 99.7343 79.8113V79.8403C99.7343 80.8854 98.8933 81.5385 97.5718 81.5385H94.8686Z" fill="white"/>
<path d="M103.288 88.1862C103.288 88.6942 103.694 89.0571 104.189 89.0571C104.715 89.0571 105.105 88.6942 105.105 88.1862V85.472C105.661 86.1832 106.487 86.8218 107.809 86.8218C109.686 86.8218 111.488 85.3994 111.488 82.8448V82.8158C111.488 80.2612 109.671 78.8388 107.809 78.8388C106.502 78.8388 105.691 79.4774 105.105 80.2757V79.7968C105.105 79.2888 104.715 78.9114 104.189 78.9114C103.664 78.9114 103.288 79.2888 103.288 79.7968V88.1862ZM107.373 85.2978C106.127 85.2978 105.06 84.3108 105.06 82.8448V82.8158C105.06 81.3498 106.127 80.3628 107.373 80.3628C108.619 80.3628 109.641 81.3353 109.641 82.8158V82.8448C109.641 84.3544 108.619 85.2978 107.373 85.2978Z" fill="white"/>
<path d="M120.887 88.9845C121.293 88.9845 121.593 88.6942 121.593 88.3023C121.593 87.9104 121.293 87.6201 120.887 87.6201H111.817C111.411 87.6201 111.111 87.9104 111.111 88.3023C111.111 88.6942 111.411 88.9845 111.817 88.9845H120.887Z" fill="white"/>
<path d="M133.643 88.9845C134.049 88.9845 134.349 88.6942 134.349 88.3023C134.349 87.9104 134.049 87.6201 133.643 87.6201H124.573C124.167 87.6201 123.867 87.9104 123.867 88.3023C123.867 88.6942 124.167 88.9845 124.573 88.9845H133.643Z" fill="white"/>
<path d="M146.399 88.9845C146.805 88.9845 147.105 88.6942 147.105 88.3023C147.105 87.9104 146.805 87.6201 146.399 87.6201H137.329C136.923 87.6201 136.623 87.9104 136.623 88.3023C136.623 88.6942 136.923 88.9845 137.329 88.9845H146.399Z" fill="white"/>
<ellipse rx="10.0464" ry="21.0633" transform="matrix(-0.83812 0.545485 0.544751 0.838598 19.894 23.1438)" fill="#FFB70A"/>
<ellipse rx="10.1293" ry="10.1404" transform="matrix(-0.994299 0.106629 0.106629 0.994299 11.6356 57.1626)" fill="#FF8500"/>
</svg>
