<svg width="20" height="21" viewBox="0 0 20 21" fill="none" xmlns="http://www.w3.org/2000/svg">
<path fill-rule="evenodd" clip-rule="evenodd" d="M9.42915 4.06666C9.77018 3.7473 10.3131 3.75705 10.6417 4.08845L16.4266 9.92178L16.4948 9.99943C16.7448 10.322 16.7221 10.7804 16.4266 11.0783L10.6417 16.9116L10.5622 16.9824C10.2307 17.2426 9.74394 17.2282 9.42915 16.9334L9.35633 16.8562C9.08858 16.5341 9.10336 16.061 9.40673 15.7551L13.7923 11.3334H4.16667C3.70643 11.3334 3.33333 10.9603 3.33333 10.5C3.33333 10.0398 3.70643 9.66671 4.16667 9.66671H13.7923L9.40673 5.24497L9.3369 5.1652C9.08159 4.83364 9.11435 4.36146 9.42915 4.06666Z" fill="white"/>
</svg>
