<svg width="228" height="228" viewBox="0 0 228 228" fill="none" xmlns="http://www.w3.org/2000/svg">
<path d="M118.653 192.293C99.1699 192.984 79.168 184.99 65.9619 171.307C52.6828 157.556 46.1316 138.189 43.9019 117.112C41.6722 96.0356 43.7691 73.3904 56.0934 60.1469C68.4228 47.0448 90.8384 43.3493 112.065 44.012C133.224 44.7479 153.121 49.7738 166.56 62.0333C180.071 74.3611 187.26 93.7761 187.814 113.426C188.435 133.003 182.563 152.811 170.006 167.478C157.518 182.071 138.204 191.529 118.653 192.293Z" fill="#221F7A"/>
<path d="M191.792 111.624C191.792 147.562 155.727 188.349 118.798 188.349C81.8692 188.349 43.9521 147.562 43.9521 111.624C43.9521 75.5618 81.8692 44.3494 118.798 44.3494C155.727 44.3494 191.792 75.5618 191.792 111.624Z" fill="#534ED9"/>
<g clip-path="url(#clip0_2_3936)">
<rect x="58" y="36.3143" width="82.4329" height="132.61" rx="8" transform="rotate(-10 58 36.3143)" fill="white"/>
<path d="M139.181 22L58 36.3143L81.0274 166.909L162.208 152.595L139.181 22Z" fill="#3532B3"/>
<path d="M60.6699 51.4557C60.6699 51.4557 73.0025 57.0872 77.1217 80.4483C81.2409 103.809 71.4251 112.451 73.0268 121.535L60.6699 51.4557Z" fill="#FFC32B"/>
<path d="M154.975 111.577C154.975 111.577 137.449 109.964 136.672 122.497C135.895 135.031 119.791 141.29 119.791 141.29C119.791 141.29 102.093 147.303 103.62 162.926L162.208 152.595L154.975 111.577Z" fill="#FF8500"/>
<path opacity="0.6" d="M89.1954 165.493C89.1954 165.493 89.2316 134.931 138.926 156.724L89.1954 165.493Z" fill="#540A7F"/>
<path d="M63.499 35.3447C63.499 35.3447 66.3729 45.1272 83.5242 42.103C89.6549 41.022 93.0203 37.3355 97.1025 33.0117C99.2581 30.7266 102.006 28.5549 105.177 27.9958L63.499 35.3447Z" fill="#FF8500"/>
<path d="M123.178 24.8218C126.211 24.2869 127.445 31.3763 127.034 33.2508C125.86 38.6065 124.346 40.3942 123.227 42.6352C121.922 45.2477 121.243 45.8479 121.017 47.7298C120.678 50.5659 121.19 53.5806 122.843 55.903C126.035 60.3858 131.18 59.233 135.846 58.743C136.497 58.6757 145.481 57.7331 145.403 57.2876L139.181 22.0001C139.181 22.0001 123.311 24.7983 123.178 24.8218Z" fill="#FFC32B"/>
<path opacity="0.6" d="M88.6123 30.9165C88.6123 30.9165 77.1588 69.691 106.71 64.0879C136.262 58.4849 126.146 53.8561 144.542 52.4076L149.409 80.0055C149.409 80.0055 61.0314 104.617 83.9641 31.7361L88.6123 30.9165Z" fill="#540A7F"/>
<path d="M120.317 78.2892C119.934 78.3568 119.569 78.1003 119.501 77.7162L118.14 69.9958C118.072 69.6117 118.327 69.2458 118.71 69.1783C119.093 69.1108 119.458 69.3672 119.526 69.7513L120.887 77.4718C120.956 77.8597 120.7 78.2217 120.317 78.2892Z" fill="white"/>
<path d="M126.765 77.1522C124.26 77.5938 121.863 75.9095 121.42 73.3975C120.977 70.8855 122.654 68.4828 125.158 68.0412C127.663 67.5997 130.06 69.2839 130.503 71.7959C130.947 74.3118 129.269 76.7106 126.765 77.1522ZM125.403 69.4317C123.661 69.7389 122.495 71.4099 122.803 73.1576C123.111 74.9053 124.779 76.0766 126.521 75.7694C128.263 75.4622 129.429 73.7912 129.121 72.0435C128.813 70.2958 127.146 69.1245 125.403 69.4317Z" fill="white"/>
<path d="M135.456 66.2295C132.952 66.6711 131.275 69.0737 131.718 71.5857L132.398 75.446C132.466 75.8301 132.831 76.0865 133.214 76.019C133.597 75.9515 133.852 75.5856 133.785 75.2015L133.104 71.3413C132.796 69.5936 133.962 67.9226 135.704 67.6154C137.447 67.3082 139.114 68.4796 139.422 70.2272L140.103 74.0875C140.171 74.4716 140.536 74.728 140.919 74.6605C141.302 74.593 141.557 74.2271 141.489 73.843L140.808 69.9828C140.358 67.4721 137.96 65.7879 135.456 66.2295Z" fill="white"/>
<path d="M112.262 70.3192C111.037 70.5352 110.009 71.2234 109.33 72.163L108.473 67.3041C108.405 66.92 108.04 66.6635 107.657 66.7311C107.275 66.7986 107.019 67.1644 107.087 67.5485L108.52 75.6761C108.963 78.1881 111.36 79.8724 113.865 79.4308C116.369 78.9892 118.046 76.5866 117.603 74.0745C117.164 71.5618 114.767 69.8776 112.262 70.3192ZM113.623 78.0396C111.881 78.3469 110.214 77.1755 109.906 75.4278C109.597 73.6802 110.764 72.0092 112.506 71.702C114.248 71.3947 115.916 72.5661 116.224 74.3138C116.532 76.0614 115.366 77.7324 113.623 78.0396Z" fill="white"/>
<path d="M125.339 74.5758C125.267 74.5887 125.185 74.5753 125.119 74.5355L123.881 73.8034C123.726 73.7118 123.676 73.5147 123.767 73.36C123.858 73.2053 124.054 73.1549 124.209 73.2465L125.06 73.7499C125.259 73.0217 125.85 71.6027 127.535 70.4817C127.684 70.3842 127.885 70.4241 127.982 70.5732C128.079 70.7224 128.04 70.9234 127.891 71.0209C125.838 72.3888 125.611 74.215 125.601 74.292C125.589 74.4011 125.523 74.496 125.425 74.5449C125.4 74.5612 125.37 74.5704 125.339 74.5758Z" fill="white"/>
<path d="M119.878 79.9463C119.865 79.8733 119.912 79.8055 119.985 79.7927L120.517 79.6989C120.69 79.6685 120.824 79.6923 120.927 79.7613C121.004 79.8151 121.053 79.8935 121.07 79.9895L121.071 79.9934C121.103 80.1739 121.019 80.2836 120.918 80.3608C121.105 80.3912 121.241 80.4663 121.277 80.6699L121.278 80.6737C121.324 80.9388 121.131 81.1194 120.802 81.1774L120.247 81.2754C120.174 81.2882 120.106 81.2407 120.093 81.1677L119.878 79.9463ZM120.578 80.3337C120.747 80.304 120.846 80.2191 120.822 80.0847L120.822 80.0809C120.801 79.9618 120.697 79.9089 120.528 79.9386L120.153 80.0047L120.223 80.4004L120.579 80.3376L120.578 80.3337ZM120.765 80.9463C120.941 80.9153 121.04 80.8265 121.016 80.6921L121.016 80.6883C120.993 80.5615 120.881 80.5061 120.678 80.5419L120.264 80.6148L120.336 81.0219L120.765 80.9463Z" fill="white"/>
<path d="M122.037 80.3664L121.403 79.7533C121.383 79.7291 121.363 79.7049 121.357 79.6665C121.344 79.5973 121.392 79.5296 121.464 79.5168C121.522 79.5066 121.566 79.5306 121.604 79.5713L122.123 80.0937L122.435 79.4209C122.456 79.3656 122.49 79.332 122.547 79.3218C122.624 79.3083 122.684 79.3572 122.696 79.4263C122.702 79.4609 122.693 79.4982 122.678 79.5246L122.294 80.3051L122.376 80.7699C122.389 80.8428 122.342 80.9106 122.269 80.9234C122.196 80.9362 122.129 80.8926 122.116 80.8158L122.037 80.3664Z" fill="white"/>
<path d="M123.86 79.2446C123.848 79.1716 123.895 79.1039 123.968 79.0911L124.5 78.9972C124.672 78.9668 124.807 78.9906 124.91 79.0596C124.986 79.1134 125.036 79.1918 125.053 79.2879L125.053 79.2917C125.085 79.4722 125.002 79.582 124.901 79.6592C125.088 79.6896 125.223 79.7647 125.259 79.9682L125.26 79.9721C125.307 80.2371 125.114 80.4177 124.784 80.4758L124.229 80.5737C124.156 80.5865 124.089 80.539 124.076 80.4661L123.86 79.2446ZM124.557 79.6327C124.725 79.603 124.825 79.5182 124.801 79.3837L124.8 79.3799C124.779 79.2608 124.675 79.2079 124.507 79.2376L124.131 79.3038L124.201 79.6994L124.557 79.6366L124.557 79.6327ZM124.744 80.2453C124.92 80.2143 125.019 80.1256 124.995 79.9911L124.994 79.9873C124.972 79.8605 124.859 79.8051 124.657 79.8409L124.243 79.9138L124.315 80.321L124.744 80.2453Z" fill="white"/>
<path d="M125.647 80.1495L125.978 78.8238C125.997 78.7531 126.043 78.7014 126.116 78.6886L126.127 78.6865C126.2 78.6737 126.257 78.7033 126.3 78.7671L127.068 79.899C127.083 79.9162 127.089 79.9308 127.092 79.95C127.105 80.0192 127.061 80.0863 126.992 80.0984C126.931 80.1092 126.883 80.0821 126.85 80.0285L126.682 79.7729L125.962 79.8998L125.887 80.2102C125.873 80.268 125.837 80.3062 125.783 80.3156C125.714 80.3278 125.655 80.2828 125.643 80.2175C125.635 80.1951 125.64 80.1745 125.647 80.1495ZM126.538 79.5607L126.172 79.0074L126.017 79.6525L126.538 79.5607Z" fill="white"/>
<path d="M127.29 78.6321C127.277 78.5591 127.324 78.4914 127.397 78.4786L127.424 78.4738C127.489 78.4624 127.529 78.487 127.572 78.527L128.48 79.357L128.319 78.4466C128.307 78.3775 128.355 78.3098 128.423 78.2976C128.496 78.2848 128.564 78.3323 128.576 78.4014L128.795 79.6459C128.808 79.7189 128.765 79.7859 128.692 79.7988L128.681 79.8008C128.619 79.8116 128.576 79.7876 128.533 79.7476L127.597 78.8948L127.763 79.8359C127.775 79.905 127.728 79.9728 127.659 79.9849C127.586 79.9977 127.519 79.9503 127.506 79.8811L127.286 78.6328L127.29 78.6321Z" fill="white"/>
<path d="M129.093 78.3101C129.08 78.2371 129.128 78.1694 129.2 78.1565C129.273 78.1437 129.34 78.1874 129.354 78.2642L129.464 78.8903L130.04 78.06C130.065 78.0238 130.089 77.9999 130.139 77.9911C130.211 77.9783 130.267 78.024 130.278 78.0893C130.284 78.1238 130.275 78.1611 130.249 78.1934L129.868 78.72L130.476 79.2544C130.504 79.2773 130.52 79.3021 130.527 79.3405C130.539 79.4135 130.491 79.4774 130.419 79.4903C130.369 79.499 130.33 79.4782 130.297 79.4484L129.715 78.9252L129.515 79.2021L129.569 79.5093C129.582 79.5823 129.539 79.6494 129.462 79.6629C129.389 79.6757 129.322 79.6321 129.309 79.5553L129.089 78.3108L129.093 78.3101Z" fill="white"/>
<path d="M131.503 77.8894C131.49 77.8164 131.537 77.7487 131.61 77.7358L131.637 77.7311C131.694 77.721 131.738 77.7449 131.768 77.7793L132.339 78.4032L132.667 77.6168C132.685 77.566 132.723 77.5355 132.773 77.5267L132.8 77.522C132.873 77.5092 132.94 77.5567 132.953 77.6296L133.172 78.8703C133.185 78.9433 133.138 79.011 133.065 79.0238C132.996 79.036 132.924 78.9892 132.912 78.9162L132.754 78.0251L132.491 78.634C132.471 78.681 132.442 78.7139 132.392 78.7227C132.342 78.7315 132.307 78.71 132.272 78.6725L131.817 78.1943L131.973 79.0816C131.986 79.1546 131.942 79.2178 131.866 79.2313C131.793 79.2442 131.73 79.1998 131.717 79.1269L131.499 77.89L131.503 77.8894Z" fill="white"/>
<path d="M133.845 78.8781C133.772 78.891 133.704 78.8435 133.692 78.7705L133.476 77.549C133.463 77.4761 133.511 77.4083 133.583 77.3955L134.445 77.2436C134.51 77.2321 134.569 77.2732 134.58 77.3385C134.592 77.4038 134.551 77.4626 134.486 77.474L133.754 77.603L133.822 77.9871L134.458 77.875C134.523 77.8635 134.582 77.9085 134.593 77.9738C134.605 78.0391 134.564 78.0978 134.499 78.1093L133.863 78.2214L133.934 78.6209L134.677 78.4899C134.742 78.4784 134.8 78.5196 134.812 78.5848C134.823 78.6501 134.782 78.7089 134.717 78.7203L133.844 78.8743L133.845 78.8781Z" fill="white"/>
<path d="M135.198 78.4693C135.163 78.4516 135.138 78.4204 135.131 78.3782C135.118 78.309 135.163 78.2496 135.232 78.2375C135.267 78.2314 135.291 78.235 135.313 78.247C135.457 78.3246 135.593 78.3561 135.754 78.3278C135.914 78.2994 136 78.205 135.981 78.0936L135.98 78.0898C135.962 77.9861 135.893 77.9348 135.607 77.9219C135.28 77.9043 135.082 77.8362 135.035 77.5673L135.034 77.5634C134.99 77.3099 135.169 77.0961 135.464 77.0441C135.652 77.011 135.805 77.0315 135.959 77.0994C135.993 77.1093 136.026 77.143 136.035 77.1929C136.047 77.2621 136.003 77.3215 135.934 77.3336C135.911 77.3377 135.886 77.334 135.861 77.3266C135.734 77.2738 135.62 77.2543 135.501 77.2753C135.348 77.3023 135.273 77.3946 135.291 77.4945L135.291 77.4983C135.312 77.6136 135.389 77.6513 135.685 77.6705C136.009 77.6965 136.193 77.775 136.236 78.0208L136.237 78.0247C136.286 78.3051 136.097 78.5049 135.786 78.5596C135.58 78.596 135.385 78.567 135.198 78.4693Z" fill="white"/>
<path d="M136.861 77.0671L136.502 77.1305C136.433 77.1427 136.373 77.0977 136.362 77.0324C136.35 76.9671 136.394 76.9039 136.46 76.8924L137.444 76.7189C137.509 76.7074 137.572 76.7517 137.583 76.817C137.595 76.8823 137.551 76.9455 137.486 76.957L137.126 77.0205L137.323 78.1421C137.336 78.2151 137.289 78.2828 137.216 78.2956C137.144 78.3085 137.077 78.2648 137.063 78.188L136.865 77.0664L136.861 77.0671Z" fill="white"/>
<path d="M137.996 76.7402C137.983 76.6672 138.031 76.5995 138.103 76.5867C138.176 76.5738 138.243 76.6175 138.257 76.6943L138.476 77.9388C138.489 78.0118 138.445 78.0788 138.369 78.0924C138.296 78.1052 138.229 78.0615 138.216 77.9847L137.996 76.7402Z" fill="white"/>
<path d="M138.785 76.6011C138.772 76.5281 138.82 76.4604 138.892 76.4476C138.965 76.4347 139.032 76.4784 139.046 76.5552L139.156 77.1813L139.732 76.351C139.757 76.3148 139.781 76.2909 139.83 76.2821C139.903 76.2693 139.959 76.315 139.97 76.3803C139.976 76.4148 139.967 76.4521 139.941 76.4844L139.56 77.011L140.168 77.5455C140.195 77.5683 140.212 77.5932 140.218 77.6316C140.231 77.7045 140.183 77.7684 140.111 77.7813C140.061 77.7901 140.022 77.7692 139.989 77.7394L139.407 77.2162L139.207 77.4931L139.261 77.8004C139.274 77.8733 139.231 77.9404 139.154 77.9539C139.081 77.9667 139.014 77.9231 139.001 77.8463L138.781 76.6018L138.785 76.6011Z" fill="white"/>
<path d="M140.546 77.5223L140.877 76.1966C140.896 76.1259 140.943 76.0742 141.015 76.0614L141.027 76.0593C141.1 76.0465 141.156 76.0761 141.199 76.1399L141.967 77.2718C141.982 77.289 141.989 77.3036 141.992 77.3228C142.004 77.392 141.961 77.4591 141.892 77.4712C141.83 77.482 141.782 77.4549 141.749 77.4013L141.582 77.1457L140.862 77.2726L140.786 77.583C140.773 77.6408 140.736 77.679 140.682 77.6884C140.613 77.7006 140.554 77.6556 140.543 77.5903C140.535 77.5679 140.539 77.5473 140.546 77.5223ZM141.441 76.9328L141.075 76.3795L140.921 77.0246L141.441 76.9328Z" fill="white"/>
<path d="M75.719 56.5171C75.719 56.5171 76.4351 87.1239 111.548 87.0237" stroke="#FFC32B" stroke-width="2" stroke-miterlimit="10" stroke-linecap="round"/>
<path d="M115.558 88.2057C116.091 88.1117 116.447 87.6022 116.353 87.0676C116.258 86.533 115.75 86.1758 115.217 86.2698C114.684 86.3638 114.328 86.8733 114.423 87.4079C114.517 87.9425 115.025 88.2996 115.558 88.2057Z" fill="#FFC32B"/>
<path d="M119.174 88.1981C119.706 88.1041 120.062 87.5946 119.968 87.06C119.874 86.5254 119.365 86.1682 118.832 86.2622C118.299 86.3562 117.944 86.8657 118.038 87.4003C118.132 87.9349 118.641 88.2921 119.174 88.1981Z" fill="#FFC32B"/>
<path opacity="0.6" d="M126.737 115.09C123.779 108.53 107.508 109.491 90.3911 117.234C83.9849 120.133 78.3724 123.571 74.0047 127.081L77.5929 147.431C84.1741 147.047 92.5316 144.868 101.099 140.993C118.215 133.246 129.694 121.65 126.737 115.09Z" fill="#540A7F"/>
</g>
<circle cx="157" cy="111" r="22" fill="#0070A6"/>
<circle cx="155" cy="109" r="22" fill="#168BC3"/>
<path d="M165.109 104.7L150.439 114.875L146.229 107.938" stroke="white" stroke-width="3" stroke-linecap="round" stroke-linejoin="round"/>
<path d="M206.464 176.33C220.879 167.996 224.591 152.485 216.911 145.856C209.275 139.267 192.35 143.141 188.968 159.979C186.928 170.136 179.805 175.284 174.476 177.769C172.831 178.536 173.169 180.941 174.953 181.196C188.349 183.108 198.882 180.713 206.46 176.333C206.462 176.332 206.462 176.332 206.464 176.33Z" fill="#221F7A"/>
<path d="M5.01262 122.502C-2.49309 133.505 21.966 174.784 53.6787 165.163C55.236 164.69 55.3203 162.528 53.8127 161.916C48.3156 159.687 39.6525 153.92 36.4014 139.276C33.263 125.148 23.8057 118.619 15.8069 118.042C11.2681 117.715 7.19777 119.303 5.01262 122.502Z" fill="#FF8500"/>
<path d="M30.947 112.736C30.947 112.736 36.1678 112.373 35.9893 105.294C35.8188 98.2182 40.1403 97.507 38.3577 94.5873C36.5725 91.6623 23.5838 96.7006 22.5261 103.024C21.4762 109.351 28.6396 113.604 30.947 112.736Z" fill="white"/>
<ellipse rx="8.42124" ry="17.656" transform="matrix(0.891507 0.453007 -0.452226 0.891903 171.323 26.9117)" fill="#FFB70A"/>
<ellipse cx="185.299" cy="54.8494" rx="8.49078" ry="8.5" fill="#FF8500"/>
<defs>
<clipPath id="clip0_2_3936">
<rect x="58" y="36.3143" width="82.4329" height="132.61" rx="8" transform="rotate(-10 58 36.3143)" fill="white"/>
</clipPath>
</defs>
</svg>
