<svg width="68" height="92" viewBox="0 0 68 92" fill="none" xmlns="http://www.w3.org/2000/svg">
<path d="M0 89C0 90.6569 1.34315 92 3 92C4.65685 92 6 90.6569 6 89H0ZM58.9434 18.9671C60.582 18.7222 61.7119 17.1953 61.4671 15.5566C61.2222 13.918 59.6953 12.7881 58.0566 13.0329L58.9434 18.9671ZM6 89C6 71.524 8.96509 55.567 16.9539 43.2583C24.858 31.0802 37.917 22.1089 58.9434 18.9671L58.0566 13.0329C35.583 16.3911 20.892 26.1698 11.9211 39.9917C3.03491 53.683 0 70.976 0 89H6Z" fill="#FFB70A"/>
<path d="M51 30L65 16.5L51 3" stroke="#FFB70A" stroke-width="6" stroke-linecap="round" stroke-linejoin="round"/>
</svg>
