<svg width="119" height="119" viewBox="0 0 119 119" fill="none" xmlns="http://www.w3.org/2000/svg">
<g filter="url(#filter0_d_29_7609)">
<path d="M79.4769 32.7986C85.5629 37.9167 89.9101 44.9652 92.6099 53.2259C95.2639 61.5315 96.2706 71.0942 92.6556 78.8161C89.0406 86.583 80.8497 92.5092 72.2468 94.3499C63.5983 96.1906 54.4921 93.9009 46.6215 90.2644C38.7508 86.6279 32.1157 81.5996 27.2194 74.8654C22.2774 68.0862 19.12 59.5561 20.2182 51.5199C21.3622 43.4837 26.7618 35.9413 33.763 31.0028C40.7185 26.0194 49.2755 23.64 57.4207 24.0441C65.6117 24.493 73.3908 27.6806 79.4769 32.7986Z" fill="white"/>
</g>
<rect x="38.3838" y="38.2168" width="29.8865" height="41.3137" rx="4" transform="rotate(-6 38.3838 38.2168)" fill="#FF8500"/>
<rect x="36.2769" y="44.6252" width="6.15311" height="1.75803" rx="0.879015" transform="rotate(-6 36.2769 44.6252)" fill="#3532B3"/>
<rect x="36.8281" y="49.8705" width="6.15311" height="1.75803" rx="0.879015" transform="rotate(-6 36.8281 49.8705)" fill="#3532B3"/>
<rect x="37.3794" y="55.1156" width="6.15311" height="1.75803" rx="0.879015" transform="rotate(-6 37.3794 55.1156)" fill="#3532B3"/>
<rect x="37.9307" y="60.3608" width="6.15311" height="1.75803" rx="0.879015" transform="rotate(-6 37.9307 60.3608)" fill="#3532B3"/>
<rect x="38.4819" y="65.6061" width="6.15311" height="1.75803" rx="0.879015" transform="rotate(-6 38.4819 65.6061)" fill="#3532B3"/>
<rect x="39.0332" y="70.8513" width="6.15311" height="1.75803" rx="0.879015" transform="rotate(-6 39.0332 70.8513)" fill="#3532B3"/>
<path d="M54.8541 43.5566C50.5093 44.0133 47.3566 47.906 47.8133 52.2513C48.27 56.5967 52.1628 59.7489 56.508 59.2922C60.8535 58.8355 64.0056 54.9428 63.5489 50.5975C63.0922 46.2521 59.1996 43.0999 54.8541 43.5566ZM55.1014 45.9092C56.5391 45.7581 57.8266 46.801 57.9776 48.2381C58.1287 49.6754 57.0861 50.9629 55.6484 51.114C54.2115 51.2651 52.924 50.2225 52.7729 48.7851C52.6219 47.348 53.6644 46.0602 55.1014 45.9092ZM56.2901 57.2353C54.8562 57.386 53.4881 57.0018 52.3843 56.2439C52.1154 56.0594 51.9406 55.7657 51.9065 55.4419C51.7534 53.9845 52.8103 52.6941 54.268 52.5408L57.2961 52.2226C58.7541 52.0693 60.0518 53.1123 60.2049 54.5697C60.239 54.8939 60.1297 55.2167 59.9047 55.4532C58.983 56.4243 57.7243 57.0846 56.2901 57.2353Z" fill="white"/>
<rect x="48.916" y="62.7418" width="15.8223" height="1.75803" rx="0.879015" transform="rotate(-6 48.916 62.7418)" fill="white"/>
<rect x="49.2832" y="66.2385" width="15.8223" height="1.75803" rx="0.879015" transform="rotate(-6 49.2832 66.2385)" fill="white"/>
<rect x="49.6509" y="69.7354" width="15.8223" height="1.75803" rx="0.879015" transform="rotate(-6 49.6509 69.7354)" fill="white"/>
<path fill-rule="evenodd" clip-rule="evenodd" d="M73.2587 80.1349L66.6281 82.1793C65.8361 82.4236 65.1078 81.6536 65.3957 80.8764L67.8062 74.3698L63.8128 68.6955C63.3358 68.0177 63.843 67.0872 64.6712 67.1208L71.6041 67.4027L75.7667 61.8512C76.2639 61.1881 77.3057 61.383 77.5296 62.181L79.4039 68.8617L85.9699 71.1051C86.7542 71.3731 86.8908 72.4241 86.2011 72.8836L80.4265 76.7307L80.322 83.6685C80.3095 84.4973 79.3521 84.952 78.7019 84.4379L73.2587 80.1349Z" fill="#FFB70A"/>
<defs>
<filter id="filter0_d_29_7609" x="-4" y="0" width="123" height="119" filterUnits="userSpaceOnUse" color-interpolation-filters="sRGB">
<feFlood flood-opacity="0" result="BackgroundImageFix"/>
<feColorMatrix in="SourceAlpha" type="matrix" values="0 0 0 0 0 0 0 0 0 0 0 0 0 0 0 0 0 0 127 0" result="hardAlpha"/>
<feOffset/>
<feGaussianBlur stdDeviation="12"/>
<feColorMatrix type="matrix" values="0 0 0 0 0 0 0 0 0 0 0 0 0 0 0 0 0 0 0.3 0"/>
<feBlend mode="normal" in2="BackgroundImageFix" result="effect1_dropShadow_29_7609"/>
<feBlend mode="normal" in="SourceGraphic" in2="effect1_dropShadow_29_7609" result="shape"/>
</filter>
</defs>
</svg>
