<svg width="80" height="80" viewBox="0 0 80 80" fill="none" xmlns="http://www.w3.org/2000/svg">
<circle cx="40" cy="40" r="40" fill="#0EAE3D"/>
<g clip-path="url(#clip0_2_20530)">
<path d="M20.0014 28.4389C19.9668 26.9096 20.5674 25.3375 21.9622 24.0631C22.9709 23.1415 23.9092 22.1415 24.8775 21.1762C25.3951 20.6606 25.976 20.2396 26.7 20.0747C27.6129 19.8671 28.4383 20.1035 29.183 20.6433C29.4147 20.8117 29.6314 21.0066 29.8343 21.2085C31.4758 22.8462 33.1242 24.476 34.7403 26.138C35.1449 26.5543 35.5242 27.0387 35.7651 27.5612C36.2873 28.695 36.0395 29.7895 35.2245 30.6834C34.1686 31.8425 33.0331 32.929 31.9288 34.0432C31.3132 34.6648 31.3075 34.7409 31.674 35.5448C32.7887 37.99 34.4706 40.0303 36.27 41.9818C38.0833 43.9471 40.0752 45.7106 42.3449 47.1351C43.1346 47.631 43.983 48.0312 44.8049 48.4753C45.1807 48.6783 45.4596 48.5145 45.7236 48.2492C46.7484 47.2169 47.772 46.1847 48.8037 45.1593C49.3939 44.5734 50.0487 44.104 50.9109 43.991C51.7455 43.8814 52.4717 44.1294 53.1334 44.6092C53.3651 44.7776 53.5795 44.9736 53.7835 45.1766C55.4366 46.8225 57.0977 48.4603 58.7265 50.1304C59.1219 50.5352 59.4896 51.0104 59.7236 51.5202C60.2285 52.617 60.0314 53.7116 59.2441 54.5789C57.968 55.9849 56.64 57.3493 55.251 58.6434C53.9599 59.8452 52.3253 60.0955 50.6158 59.9721C47.7536 59.7656 45.123 58.7899 42.5812 57.5327C38.5259 55.5281 34.8441 52.9803 31.6037 49.8236C27.1207 45.4569 23.4931 40.4916 21.2544 34.5933C20.542 32.7179 20.0003 30.7964 20.0014 28.4389Z" fill="white"/>
</g>
<defs>
<clipPath id="clip0_2_20530">
<rect width="40" height="40" fill="white" transform="translate(20 20)"/>
</clipPath>
</defs>
</svg>
