<svg width="228" height="228" viewBox="0 0 228 228" fill="none" xmlns="http://www.w3.org/2000/svg">
<path d="M118.653 192.293C99.1699 192.984 79.168 184.99 65.9619 171.307C52.6828 157.556 46.1316 138.189 43.9019 117.113C41.6722 96.0358 43.7691 73.3907 56.0934 60.1472C68.4228 47.045 90.8384 43.3495 112.065 44.0122C133.224 44.7481 153.121 49.774 166.56 62.0336C180.071 74.3613 187.26 93.7764 187.814 113.427C188.435 133.004 182.563 152.811 170.006 167.478C157.518 182.072 138.204 191.53 118.653 192.293Z" fill="#221F7A"/>
<path d="M191.792 111.624C191.792 147.562 155.727 188.35 118.798 188.35C81.8692 188.35 43.9521 147.562 43.9521 111.624C43.9521 75.562 81.8692 44.3496 118.798 44.3496C155.727 44.3496 191.792 75.562 191.792 111.624Z" fill="#534ED9"/>
<rect width="71.3434" height="124.302" rx="7" transform="matrix(0.984755 -0.173947 0.17335 0.98486 62.2241 39.9971)" fill="#C36600"/>
<rect width="71.3434" height="124.302" rx="7" transform="matrix(0.984755 -0.173947 0.17335 0.98486 64.2393 36.7593)" fill="#FF8500"/>
<rect width="61.2711" height="103.304" rx="7" transform="matrix(0.984755 -0.173947 0.173349 0.98486 71.4805 44.0093)" fill="#3531B3"/>
<path d="M206.464 176.33C220.879 167.996 224.591 152.485 216.911 145.856C209.275 139.267 192.35 143.141 188.968 159.979C186.928 170.136 179.805 175.284 174.476 177.769C172.831 178.536 173.169 180.941 174.953 181.196C188.349 183.108 198.882 180.713 206.46 176.333C206.462 176.332 206.462 176.332 206.464 176.33Z" fill="#221F7A"/>
<rect width="2.55064" height="30.8968" rx="1.27532" transform="matrix(0.984775 -0.173831 0.173465 0.98484 125.863 43.793)" fill="white" fill-opacity="0.3"/>
<path d="M5.01262 122.502C-2.49309 133.506 21.966 174.784 53.6787 165.163C55.236 164.69 55.3203 162.528 53.8127 161.916C48.3156 159.688 39.6525 153.92 36.4014 139.276C33.263 125.148 23.8057 118.62 15.8069 118.042C11.2681 117.715 7.19777 119.303 5.01262 122.502Z" fill="#FF8500"/>
<path d="M30.947 112.736C30.947 112.736 36.1678 112.373 35.9893 105.294C35.8188 98.2185 40.1403 97.5072 38.3577 94.5875C36.5725 91.6625 23.5838 96.7009 22.5261 103.025C21.4762 109.351 28.6396 113.604 30.947 112.736Z" fill="white"/>
<ellipse rx="8.42124" ry="17.656" transform="matrix(0.891507 0.453007 -0.452226 0.891903 171.323 26.9119)" fill="#FFB70A"/>
<ellipse cx="185.299" cy="54.8496" rx="8.49078" ry="8.5" fill="#FF8500"/>
<rect width="42.9646" height="53.9893" rx="21.4823" transform="matrix(0.981564 0.191133 -0.190486 0.98169 135.663 73.7847)" fill="#D8D8D8"/>
<rect width="42.9646" height="53.9893" rx="21.4823" transform="matrix(0.981564 0.191133 -0.190486 0.98169 134.083 71.4399)" fill="white"/>
<path d="M153.322 106.779C152.777 107.51 152.175 108.202 151.521 108.848C151.713 110.221 152.216 111.543 153.013 112.725C153.706 113.752 154.579 114.613 155.584 115.275C156.129 114.908 156.643 114.495 157.122 114.043C154.557 112.637 153 109.785 153.322 106.779Z" fill="#3531B3"/>
<path d="M157.043 106.859L158.448 99.6129C159.319 95.118 156.373 90.7488 151.879 89.8732C147.386 88.9977 143.021 91.9423 142.15 96.4371C141.762 98.4349 139.822 99.7435 137.825 99.3544L137.474 101.166C140.47 101.75 143.379 99.7866 143.96 96.79C144.638 93.294 148.033 91.0038 151.528 91.6848C155.023 92.3658 157.315 95.7641 156.637 99.2601L155.232 106.506C154.733 109.08 156.112 111.592 158.409 112.62C158.788 112.125 159.131 111.598 159.432 111.043C157.739 110.442 156.691 108.674 157.043 106.859Z" fill="#3531B3"/>
<path d="M151.484 113.759C150.995 113.035 150.593 112.255 150.289 111.443L149.877 110.344L148.846 111.045C146.363 112.72 143.573 113.743 140.678 114.077C141.293 114.657 141.971 115.175 142.706 115.617C144.91 115.155 147.036 114.322 149.006 113.132C149.281 113.706 149.598 114.261 149.956 114.791C150.496 115.592 151.115 116.322 151.801 116.97C152.493 116.796 153.165 116.561 153.809 116.269C152.92 115.567 152.135 114.725 151.484 113.759Z" fill="#3531B3"/>
<path d="M152.584 86.2469C146.094 84.9832 139.789 89.2378 138.529 95.7311L138.178 97.5428C139.176 97.7372 140.146 97.0827 140.34 96.0837C141.406 90.5894 146.741 86.9893 152.233 88.0586C157.724 89.128 161.325 94.4679 160.258 99.9622L158.852 107.209C158.667 108.164 159.258 109.093 160.183 109.343C160.379 108.79 160.536 108.215 160.651 107.622L162.069 100.315C163.329 93.8215 159.074 87.5107 152.584 86.2469Z" fill="#3531B3"/>
<path d="M151.177 93.498C148.681 93.0115 146.256 94.6475 145.771 97.145C144.997 101.141 141.116 103.758 137.122 102.98L137.11 103.041C136.995 103.635 136.926 104.228 136.901 104.816C139.279 105.245 141.685 104.74 143.689 103.388C145.73 102.011 147.113 99.9193 147.582 97.4978C147.873 95.9994 149.328 95.0178 150.826 95.3097C152.324 95.6015 153.306 97.0581 153.016 98.5565C151.619 105.761 145.174 110.725 138.065 110.492C138.375 111.14 138.742 111.758 139.16 112.339C142.23 112.232 145.213 111.27 147.819 109.512C151.493 107.033 153.982 103.268 154.827 98.9094C155.311 96.412 153.674 93.9844 151.177 93.498Z" fill="#3531B3"/>
<path d="M148.426 115.824C148.381 115.758 148.337 115.692 148.294 115.625C147.351 116.091 146.378 116.487 145.382 116.811C145.776 116.931 146.18 117.032 146.593 117.113C147.598 117.309 148.598 117.372 149.576 117.315C149.163 116.844 148.778 116.346 148.426 115.824Z" fill="#3531B3"/>
<path d="M150.475 97.1211C149.975 97.0237 149.491 97.3503 149.394 97.8506C148.267 103.661 142.762 107.53 136.969 106.698C137.044 107.347 137.171 107.983 137.348 108.602C140.313 108.882 143.256 108.136 145.754 106.451C148.611 104.522 150.547 101.593 151.205 98.2032C151.302 97.7029 150.975 97.2184 150.475 97.1211Z" fill="#3531B3"/>
<path d="M127 146C127 148.209 125.209 150 123 150C120.791 150 119 148.209 119 146C119 143.791 120.791 142 123 142C125.209 142 127 143.791 127 146Z" fill="white"/>
</svg>
