<svg width="20" height="20" viewBox="0 0 20 20" fill="none" xmlns="http://www.w3.org/2000/svg">
<path fill-rule="evenodd" clip-rule="evenodd" d="M9.42899 3.56654C9.77002 3.24717 10.3129 3.25693 10.6415 3.58832L16.4264 9.42166L16.4946 9.49931C16.7446 9.82192 16.7219 10.2802 16.4264 10.5782L10.6415 16.4115L10.5621 16.4823C10.2306 16.7425 9.74378 16.7281 9.42899 16.4333L9.35617 16.3561C9.08842 16.0339 9.1032 15.5609 9.40657 15.255L13.7922 10.8333L4.16651 10.8333C3.70627 10.8333 3.33317 10.4602 3.33317 9.99992C3.33317 9.53968 3.70627 9.16659 4.16651 9.16659L13.7922 9.16658L9.40657 4.74485L9.33674 4.66507C9.08143 4.33352 9.11419 3.86134 9.42899 3.56654Z" fill="#FFB70A"/>
</svg>
