<svg width="24" height="24" viewBox="0 0 24 24" fill="none" xmlns="http://www.w3.org/2000/svg">
<path fill-rule="evenodd" clip-rule="evenodd" d="M19.7201 11.315C20.1033 11.7242 20.0916 12.3757 19.6939 12.77L12.6939 19.7119L12.6007 19.7937C12.2136 20.0938 11.6636 20.0665 11.3061 19.7119L4.30609 12.77L4.22117 12.6747C3.90895 12.2769 3.92619 11.6927 4.27994 11.315L4.3726 11.2276C4.75918 10.9063 5.32683 10.924 5.69392 11.2881L11 16.5508L11 5C11 4.44772 11.4477 4 12 4C12.5523 4 13 4.44771 13 5L13 16.5508L18.3061 11.2881L18.4018 11.2043C18.7997 10.8979 19.3663 10.9372 19.7201 11.315Z" fill="white"/>
</svg>
