<svg width="24" height="24" viewBox="0 0 24 24" fill="none" xmlns="http://www.w3.org/2000/svg">
<path fill-rule="evenodd" clip-rule="evenodd" d="M4.27994 12.685C3.8967 12.2758 3.90841 11.6243 4.30609 11.23L11.3061 4.28808L11.3993 4.20626C11.7864 3.90625 12.3364 3.93352 12.6939 4.28808L19.6939 11.23L19.7788 11.3253C20.0911 11.7231 20.0738 12.3073 19.7201 12.685L19.6274 12.7724C19.2408 13.0937 18.6732 13.076 18.3061 12.7119L13 7.44922L13 19C13 19.5523 12.5523 20 12 20C11.4477 20 11 19.5523 11 19L11 7.44922L5.69391 12.7119L5.59819 12.7957C5.20032 13.1021 4.6337 13.0628 4.27994 12.685Z" fill="white"/>
</svg>
