<svg width="24" height="24" viewBox="0 0 24 24" fill="none" xmlns="http://www.w3.org/2000/svg">
<path fill-rule="evenodd" clip-rule="evenodd" d="M12.685 4.27994C12.2758 3.89671 11.6243 3.90841 11.23 4.30609L4.28808 11.3061L4.20626 11.3993C3.90625 11.7864 3.93352 12.3364 4.28808 12.6939L11.23 19.6939L11.3253 19.7788C11.7231 20.0911 12.3073 20.0738 12.685 19.7201L12.7724 19.6274C13.0937 19.2408 13.076 18.6732 12.7119 18.3061L7.44922 13H19C19.5523 13 20 12.5523 20 12C20 11.4477 19.5523 11 19 11H7.44922L12.7119 5.69392L12.7957 5.59819C13.1021 5.20032 13.0628 4.6337 12.685 4.27994Z" fill="white"/>
</svg>
