<svg width="20" height="20" viewBox="0 0 20 20" fill="none" xmlns="http://www.w3.org/2000/svg">
<path fill-rule="evenodd" clip-rule="evenodd" d="M9.42923 3.56666C9.77026 3.2473 10.3131 3.25705 10.6418 3.58845L16.4267 9.42178L16.4949 9.49943C16.7449 9.82204 16.7221 10.2804 16.4267 10.5783L10.6418 16.4116L10.5623 16.4824C10.2308 16.7426 9.74403 16.7282 9.42923 16.4334L9.35641 16.3562C9.08867 16.0341 9.10345 15.561 9.40681 15.2551L13.7924 10.8334H4.16675C3.70651 10.8334 3.33342 10.4603 3.33342 10C3.33342 9.5398 3.70651 9.16671 4.16675 9.16671H13.7924L9.40681 4.74497L9.33698 4.6652C9.08167 4.33364 9.11444 3.86146 9.42923 3.56666Z" fill="#FFB70A"/>
</svg>
