<svg width="44" height="44" viewBox="0 0 44 44" fill="none" xmlns="http://www.w3.org/2000/svg">
<circle cx="22" cy="22" r="22" fill="white"/>
<path d="M22 32C27.5228 32 32 27.5228 32 22C32 16.4772 27.5228 12 22 12C16.4772 12 12 16.4772 12 22C12 27.5228 16.4772 32 22 32Z" stroke="#3531B3" stroke-width="2" stroke-linecap="round" stroke-linejoin="round"/>
<path d="M12 22H32" stroke="#3531B3" stroke-width="2" stroke-linecap="round" stroke-linejoin="round"/>
<path d="M22 12C24.5013 14.7384 25.9228 18.292 26 22C25.9228 25.708 24.5013 29.2616 22 32C19.4987 29.2616 18.0772 25.708 18 22C18.0772 18.292 19.4987 14.7384 22 12V12Z" stroke="#3531B3" stroke-width="2" stroke-linecap="round" stroke-linejoin="round"/>
</svg>
