<svg width="88" height="44" viewBox="0 0 88 44" fill="none" xmlns="http://www.w3.org/2000/svg">
<path d="M29.7947 36.1557C28.7579 36.1557 27.9187 35.3165 27.9187 34.2796V13.409C27.9187 12.3752 28.7579 11.533 29.7947 11.533C30.8285 11.533 31.6708 12.3722 31.6708 13.409V34.2827C31.6708 35.3165 30.8285 36.1557 29.7947 36.1557Z" fill="#3531B3"/>
<path d="M47.2782 36.1557C40.4885 36.1557 34.9668 30.6339 34.9668 23.8443C34.9668 17.0547 40.4885 11.533 47.2782 11.533C54.0678 11.533 59.5895 17.0547 59.5895 23.8443C59.5895 30.6339 54.0648 36.1557 47.2782 36.1557ZM47.2782 15.282C42.5561 15.282 38.7159 19.1223 38.7159 23.8443C38.7159 28.5663 42.5561 32.4066 47.2782 32.4066C52.0002 32.4066 55.8405 28.5663 55.8405 23.8443C55.8405 19.1253 52.0002 15.282 47.2782 15.282Z" fill="#3531B3"/>
<path d="M75.1968 11.533C68.4072 11.533 62.8855 17.0547 62.8855 23.8443V34.2796C62.8855 35.3134 63.7247 36.1557 64.7615 36.1557C65.7984 36.1557 66.6376 35.3165 66.6376 34.2796V23.8443C66.6376 19.1223 70.4779 15.282 75.1999 15.282C79.9219 15.282 83.7622 19.1223 83.7622 23.8443V34.2796C83.7622 35.3134 84.6014 36.1557 85.6352 36.1557C86.669 36.1557 87.5112 35.3165 87.5112 34.2796V23.8443C87.5082 17.0577 81.9865 11.533 75.1968 11.533Z" fill="#3531B3"/>
<path d="M12.3114 11.533C8.98799 11.533 5.96564 12.8587 3.74905 15.0053V1.87604C3.74905 0.839203 2.90985 0 1.87605 0C0.842244 0 0 0.839203 0 1.87604V23.8474C0 30.637 5.52172 36.1587 12.3114 36.1587C19.101 36.1587 24.6227 30.637 24.6227 23.8474C24.6227 17.0577 19.101 11.533 12.3114 11.533ZM12.3114 32.4066C7.58932 32.4066 3.74905 28.5664 3.74905 23.8443C3.74905 19.1223 7.58932 15.282 12.3114 15.282C17.0334 15.282 20.8737 19.1223 20.8737 23.8443C20.8737 28.5664 17.0334 32.4066 12.3114 32.4066Z" fill="#3531B3"/>
<path d="M44.7272 28.7397C44.5235 28.7397 44.3259 28.6697 44.1677 28.5359L41.2488 26.0427C40.8869 25.7325 40.8444 25.1883 41.1515 24.8264C41.4616 24.4646 42.0059 24.422 42.3677 24.7291L44.3745 26.444C45.238 24.6288 47.4485 21.1777 52.3986 19.0189C52.8365 18.8273 53.3443 19.028 53.5328 19.4659C53.7213 19.9037 53.5237 20.4115 53.0858 20.6C47.0502 23.2332 45.612 27.9217 45.5512 28.1194C45.4691 28.3991 45.2502 28.6211 44.9705 28.7032C44.8944 28.7275 44.8093 28.7397 44.7272 28.7397Z" fill="#3531B3"/>
<path d="M27.8762 40.2939C27.8762 40.0932 28.0313 39.9382 28.2319 39.9382H29.676C30.1412 39.9382 30.4908 40.0598 30.7249 40.2939C30.9012 40.4702 30.9955 40.6952 30.9955 40.9597V40.9718C30.9955 41.4583 30.7218 41.7106 30.4239 41.8656C30.8982 42.0329 31.2204 42.2882 31.2204 42.8385V42.8507C31.2204 43.5681 30.6306 43.9512 29.7368 43.9512H28.235C28.0343 43.9512 27.8793 43.7962 27.8793 43.5955V40.2939H27.8762ZM29.5331 41.6285C29.9922 41.6285 30.2901 41.4522 30.2901 41.0843V41.0722C30.2901 40.7499 30.0439 40.5614 29.5848 40.5614H28.5724V41.6255H29.5331V41.6285ZM29.7399 43.3249C30.2202 43.3249 30.5121 43.1425 30.5121 42.7747V42.7625C30.5121 42.419 30.2415 42.2244 29.6882 42.2244H28.5724V43.3249H29.7399Z" fill="#3531B3"/>
<path d="M33.3546 42.3916L31.9743 40.4945C31.9287 40.4246 31.8953 40.3456 31.8953 40.2483C31.8953 40.0598 32.0503 39.9108 32.251 39.9108C32.406 39.9108 32.5094 39.9899 32.5945 40.1236L33.7103 41.7319L34.8442 40.1176C34.9294 39.9868 35.0267 39.9048 35.1817 39.9048C35.3884 39.9048 35.5252 40.0598 35.5252 40.2483C35.5252 40.3456 35.4796 40.4307 35.428 40.5006L34.0599 42.3734V43.629C34.0599 43.8296 33.9048 43.9786 33.7042 43.9786C33.5035 43.9786 33.3546 43.8296 33.3546 43.629V42.3916Z" fill="#3531B3"/>
<path d="M38.6672 40.2939C38.6672 40.0933 38.8223 39.9382 39.0229 39.9382H40.467C40.9322 39.9382 41.2818 40.0598 41.5159 40.2939C41.6922 40.4702 41.7865 40.6952 41.7865 40.9597V40.9719C41.7865 41.4583 41.5129 41.7106 41.2149 41.8657C41.6892 42.0329 42.0114 42.2883 42.0114 42.8385V42.8507C42.0114 43.5682 41.4216 43.9512 40.5278 43.9512H39.026C38.8253 43.9512 38.6703 43.7962 38.6703 43.5955V40.2939H38.6672ZM40.3241 41.6285C40.7832 41.6285 41.0811 41.4522 41.0811 41.0843V41.0722C41.0811 40.7499 40.8349 40.5614 40.3758 40.5614H39.3634V41.6255H40.3241V41.6285ZM40.5309 43.325C41.0112 43.325 41.3031 43.1426 41.3031 42.7747V42.7625C41.3031 42.419 41.0325 42.2244 40.4792 42.2244H39.3634V43.325H40.5309Z" fill="#3531B3"/>
<path d="M42.9453 43.4891L44.435 40.1662C44.5201 39.9899 44.66 39.8804 44.8576 39.8804H44.891C45.0917 39.8804 45.2224 39.9899 45.3106 40.1662L46.8003 43.4891C46.8276 43.5408 46.8398 43.5864 46.8398 43.6381C46.8398 43.8266 46.6969 43.9756 46.5084 43.9756C46.3412 43.9756 46.2287 43.8844 46.1649 43.7293L45.8395 42.9784H43.8908L43.5533 43.7506C43.4895 43.8996 43.38 43.9725 43.228 43.9725C43.0456 43.9725 42.9027 43.8296 42.9027 43.6472C42.8997 43.6047 42.9149 43.553 42.9453 43.4891ZM45.569 42.3551L44.8636 40.7347L44.1583 42.3551H45.569Z" fill="#3531B3"/>
<path d="M47.9714 40.2696C47.9714 40.0689 48.1265 39.9139 48.3271 39.9139H48.4031C48.5795 39.9139 48.6737 39.999 48.771 40.1206L50.7775 42.7169V40.2544C50.7775 40.0659 50.9326 39.9108 51.1211 39.9108C51.3217 39.9108 51.4707 40.0659 51.4707 40.2544V43.6229C51.4707 43.8235 51.3278 43.9725 51.1272 43.9725H51.0998C50.9326 43.9725 50.8292 43.8935 50.7319 43.7597L48.6707 41.0904V43.635C48.6707 43.8235 48.5156 43.9786 48.3271 43.9786C48.1265 43.9786 47.9775 43.8235 47.9775 43.635V40.2696H47.9714Z" fill="#3531B3"/>
<path d="M52.8578 40.2605C52.8578 40.0598 53.0128 39.9108 53.2135 39.9108C53.4141 39.9108 53.5631 40.0598 53.5631 40.2605V41.9569L55.4663 40.0446C55.5514 39.9595 55.6274 39.9139 55.7581 39.9139C55.9588 39.9139 56.0834 40.0628 56.0834 40.2392C56.0834 40.3365 56.0439 40.4277 55.9557 40.5037L54.7062 41.7076L56.0591 43.3858C56.1229 43.4587 56.1564 43.5286 56.1564 43.6381C56.1564 43.8387 56.0013 43.9816 55.8007 43.9816C55.6639 43.9816 55.5787 43.9117 55.5027 43.8144L54.2137 42.1697L53.5601 42.799V43.629C53.5601 43.8296 53.4111 43.9786 53.2104 43.9786C53.0098 43.9786 52.8547 43.8296 52.8547 43.629V40.2605H52.8578Z" fill="#3531B3"/>
<path d="M59.3979 40.2696C59.3979 40.0689 59.553 39.9139 59.7537 39.9139H59.8297C59.9847 39.9139 60.0881 39.9929 60.155 40.1024L61.371 42.0055L62.5901 40.0963C62.6662 39.9747 62.7726 39.9139 62.9124 39.9139H62.9884C63.1891 39.9139 63.3441 40.0689 63.3441 40.2696V43.6259C63.3441 43.8266 63.1891 43.9756 62.9884 43.9756C62.7999 43.9756 62.6388 43.8144 62.6388 43.6259V41.2212L61.6598 42.6926C61.5838 42.8081 61.4926 42.875 61.3619 42.875C61.2312 42.875 61.143 42.8051 61.0701 42.6926L60.0972 41.2303V43.632C60.0972 43.8327 59.9482 43.9756 59.7476 43.9756C59.5469 43.9756 59.404 43.8327 59.404 43.632V40.2696H59.3979Z" fill="#3531B3"/>
<path d="M65.0901 43.9482C64.8894 43.9482 64.7344 43.7932 64.7344 43.5925V40.2939C64.7344 40.0933 64.8894 39.9382 65.0901 39.9382H67.4219C67.5982 39.9382 67.7381 40.075 67.7381 40.2544C67.7381 40.4307 67.6013 40.5706 67.4219 40.5706H65.4397V41.6133H67.1635C67.3398 41.6133 67.4797 41.7562 67.4797 41.9356C67.4797 42.1119 67.3429 42.2457 67.1635 42.2457H65.4397V43.3219H67.4493C67.6256 43.3219 67.7654 43.4587 67.7654 43.6381C67.7654 43.8144 67.6286 43.9543 67.4493 43.9543H65.0901V43.9482Z" fill="#3531B3"/>
<path d="M68.836 43.5013C68.7509 43.4374 68.6992 43.3462 68.6992 43.2307C68.6992 43.0483 68.8482 42.9054 69.0306 42.9054C69.1279 42.9054 69.1917 42.9297 69.2373 42.9692C69.5748 43.2398 69.9244 43.3827 70.3592 43.3827C70.7939 43.3827 71.0706 43.176 71.0706 42.878V42.8659C71.0706 42.5862 70.9094 42.419 70.1646 42.2518C69.3103 42.0511 68.8299 41.7866 68.8299 41.0539V41.0418C68.8299 40.3547 69.4015 39.8774 70.198 39.8774C70.7027 39.8774 71.104 40.0051 71.4688 40.2513C71.5539 40.2969 71.6239 40.3942 71.6239 40.531C71.6239 40.7134 71.4749 40.8563 71.2925 40.8563C71.2286 40.8563 71.1648 40.8381 71.1101 40.8046C70.7939 40.604 70.5081 40.5006 70.1889 40.5006C69.7754 40.5006 69.5353 40.7073 69.5353 40.9749V40.987C69.5353 41.2971 69.7177 41.4339 70.4929 41.6164C71.3351 41.8352 71.7759 42.121 71.7759 42.7899V42.802C71.7759 43.559 71.1861 43.9999 70.344 43.9999C69.7876 44.0059 69.289 43.8387 68.836 43.5013Z" fill="#3531B3"/>
<path d="M73.868 40.5918H72.8951C72.7127 40.5918 72.5698 40.4429 72.5698 40.2665C72.5698 40.0902 72.7127 39.9412 72.8951 39.9412H75.5583C75.7346 39.9412 75.8806 40.0902 75.8806 40.2665C75.8806 40.4429 75.7377 40.5918 75.5583 40.5918H74.5794V43.629C74.5794 43.8296 74.4243 43.9786 74.2237 43.9786C74.023 43.9786 73.868 43.8296 73.868 43.629V40.5918Z" fill="#3531B3"/>
<path d="M76.9971 40.2605C76.9971 40.0598 77.1521 39.9108 77.3528 39.9108C77.5534 39.9108 77.7024 40.0598 77.7024 40.2605V43.629C77.7024 43.8296 77.5534 43.9786 77.3528 43.9786C77.1521 43.9786 76.9971 43.8296 76.9971 43.629V40.2605Z" fill="#3531B3"/>
<path d="M79.1406 40.2605C79.1406 40.0598 79.2957 39.9108 79.4963 39.9108C79.697 39.9108 79.8459 40.0598 79.8459 40.2605V41.9569L81.7491 40.0446C81.8342 39.9595 81.9102 39.9139 82.041 39.9139C82.2416 39.9139 82.3663 40.0628 82.3663 40.2392C82.3663 40.3365 82.3267 40.4277 82.2386 40.5037L80.989 41.7076L82.3419 43.3858C82.4058 43.4587 82.4392 43.5286 82.4392 43.6381C82.4392 43.8387 82.2842 43.9816 82.0835 43.9816C81.9467 43.9816 81.8616 43.9117 81.7856 43.8144L80.4965 42.1697L79.8429 42.799V43.629C79.8429 43.8296 79.6939 43.9786 79.4933 43.9786C79.2926 43.9786 79.1376 43.8296 79.1376 43.629V40.2605H79.1406Z" fill="#3531B3"/>
<path d="M83.3427 43.4891L84.8324 40.1662C84.9175 39.9899 85.0574 39.8804 85.255 39.8804H85.2884C85.4891 39.8804 85.6198 39.9899 85.7079 40.1662L87.1976 43.4891C87.225 43.5408 87.2372 43.5864 87.2372 43.6381C87.2372 43.8266 87.0943 43.9756 86.9058 43.9756C86.7386 43.9756 86.6261 43.8844 86.5622 43.7293L86.2369 42.9784H84.2882L83.9507 43.7506C83.8869 43.8996 83.7774 43.9725 83.6254 43.9725C83.443 43.9725 83.3001 43.8296 83.3001 43.6472C83.2971 43.6047 83.3153 43.553 83.3427 43.4891ZM85.9664 42.3551L85.261 40.7347L84.5557 42.3551H85.9664Z" fill="#3531B3"/>
</svg>
