<svg width="60" height="60" viewBox="0 0 60 60" fill="none" xmlns="http://www.w3.org/2000/svg">
<circle cx="30" cy="30" r="30" fill="white"/>
<path fill-rule="evenodd" clip-rule="evenodd" d="M26.7794 33.3245L28.8954 31.4259H26.5475V28.8099H27.6563L25.591 26.9331L23.6055 28.7737H24.62V31.9114C24.6272 32.8825 24.7866 33.3245 25.6345 33.3317L26.7794 33.3173V33.3245Z" fill="#3531B3"/>
<path fill-rule="evenodd" clip-rule="evenodd" d="M33.1707 26.9545L31.0547 28.8531H33.4025V31.4691H32.2938L34.3591 33.3459L36.3446 31.5053H35.3301V28.3676C35.3229 27.3965 35.1634 26.9545 34.3156 26.9473L33.1707 26.9618V26.9545Z" fill="#3531B3"/>
<path fill-rule="evenodd" clip-rule="evenodd" d="M33.1629 33.3386L31.2643 31.2227V33.5705H28.6483V32.4618L26.7715 34.5271L28.6121 36.5126V35.4981H31.7498C32.7208 35.4908 33.1629 35.3314 33.1701 34.4836L33.1556 33.3386H33.1629Z" fill="#3531B3"/>
<path fill-rule="evenodd" clip-rule="evenodd" d="M26.7934 26.9474L28.692 29.0634V26.7155H31.3079V27.8242L33.1848 25.759L31.3442 23.7734V24.7879H28.2064C27.2354 24.7952 26.7934 24.9546 26.7861 25.8025L26.8006 26.9474H26.7934Z" fill="#3531B3"/>
<path fill-rule="evenodd" clip-rule="evenodd" d="M18.3437 24.3096C18.0755 24.7371 17.8509 24.7371 17.648 26.556C17.4451 28.3748 18.5973 30.2879 18.5973 30.2879C18.5973 30.2879 18.4813 29.4111 19.0321 28.6864C19.5828 27.9618 20.6843 26.8893 21.1988 26.1647C21.7133 25.44 21.8509 24.5197 21.8509 24.5197C21.3727 24.7371 20.8437 24.8531 20.293 24.8531C19.5828 24.8531 18.9161 24.6574 18.3437 24.3168V24.3096Z" fill="#3531B3" fill-opacity="0.6"/>
<path fill-rule="evenodd" clip-rule="evenodd" d="M22.9669 21.1138C22.9669 22.5921 21.7712 23.795 20.2857 23.795C18.8074 23.795 17.6045 22.5993 17.6045 21.1138C17.6045 19.6355 18.8002 18.4326 20.2857 18.4326C21.764 18.4326 22.9669 19.6283 22.9669 21.1138Z" fill="#3531B3" fill-opacity="0.6"/>
<path fill-rule="evenodd" clip-rule="evenodd" d="M23.3363 18.8604C23.3363 18.8604 25.3943 17.3749 27.4596 17.085C29.5248 16.7952 32.4887 17.2952 32.4887 17.2952C32.4887 17.2952 31.0611 17.3966 30.1698 17.9184C29.2785 18.4401 28.5756 19.2372 27.5176 20.1865C26.4668 21.1358 25.7204 21.759 24.9741 22.1068C24.4958 22.3315 24.0827 22.3894 23.8508 22.3967C23.9958 21.9981 24.0755 21.5633 24.0755 21.1141C24.0755 20.2735 23.8001 19.4908 23.3291 18.8604H23.3363Z" fill="#3531B3" fill-opacity="0.6"/>
<path fill-rule="evenodd" clip-rule="evenodd" d="M24.2646 41.8969C24.6922 42.1651 24.6922 42.3897 26.5111 42.5926C28.3299 42.7955 30.243 41.6433 30.243 41.6433C30.243 41.6433 29.3662 41.7593 28.6415 41.2085C27.9169 40.6578 26.8444 39.5563 26.1197 39.0418C25.3951 38.5273 24.4748 38.3896 24.4748 38.3896C24.6922 38.8679 24.8081 39.3969 24.8081 39.9476C24.8081 40.6578 24.6125 41.3245 24.2719 41.8969H24.2646Z" fill="#3531B3"/>
<path fill-rule="evenodd" clip-rule="evenodd" d="M21.0689 37.2808C22.5472 37.2808 23.7501 38.4764 23.7501 39.962C23.7501 41.4402 22.5544 42.6432 21.0689 42.6432C19.5906 42.6432 18.3877 41.4475 18.3877 39.962C18.3877 38.4837 19.5834 37.2808 21.0689 37.2808Z" fill="#3531B3"/>
<path fill-rule="evenodd" clip-rule="evenodd" d="M18.815 36.9116C18.815 36.9116 17.3295 34.8536 17.0396 32.7883C16.7497 30.7231 17.2498 27.7593 17.2498 27.7593C17.2498 27.7593 17.3512 29.1868 17.873 30.0782C18.3947 30.9695 19.1918 31.6724 20.1411 32.7304C21.0904 33.7811 21.7136 34.5275 22.0614 35.2739C22.2861 35.7521 22.344 36.1652 22.3513 36.3971C21.9527 36.2522 21.5179 36.1724 21.0686 36.1724C20.2208 36.1724 19.4454 36.4478 18.815 36.9188V36.9116Z" fill="#3531B3"/>
<path fill-rule="evenodd" clip-rule="evenodd" d="M41.605 35.9696C41.8731 35.542 42.0977 35.542 42.3006 33.7231C42.5035 31.9043 41.3513 29.9912 41.3513 29.9912C41.3513 29.9912 41.4673 30.868 40.9165 31.5927C40.3658 32.3173 39.2643 33.3898 38.7498 34.1145C38.2353 34.8391 38.0977 35.7594 38.0977 35.7594C38.5759 35.542 39.1049 35.4261 39.6556 35.4261C40.3658 35.4261 41.0325 35.6217 41.605 35.9623V35.9696Z" fill="#3531B3" fill-opacity="0.6"/>
<path fill-rule="evenodd" clip-rule="evenodd" d="M36.9893 39.1651C36.9893 37.6868 38.1849 36.4839 39.6705 36.4839C41.1487 36.4839 42.3517 37.6796 42.3517 39.1651C42.3517 40.6434 41.156 41.8463 39.6705 41.8463C38.1922 41.8463 36.9893 40.6506 36.9893 39.1651Z" fill="#3531B3" fill-opacity="0.6"/>
<path fill-rule="evenodd" clip-rule="evenodd" d="M36.6191 41.4186C36.6191 41.4186 34.5611 42.9041 32.4959 43.194C30.4306 43.4839 27.4668 42.9838 27.4668 42.9838C27.4668 42.9838 28.8944 42.8824 29.7857 42.3607C30.677 41.8389 31.3799 41.0418 32.4379 40.0925C33.4886 39.1432 34.235 38.52 34.9814 38.1722C35.4597 37.9475 35.8727 37.8896 36.1046 37.8823C35.9597 38.2809 35.88 38.7157 35.88 39.165C35.88 40.0128 36.1553 40.7882 36.6264 41.4186H36.6191Z" fill="#3531B3" fill-opacity="0.6"/>
<path fill-rule="evenodd" clip-rule="evenodd" d="M35.6854 18.3822C35.2578 18.1141 35.2578 17.8895 33.439 17.6866C31.6201 17.4837 29.707 18.6359 29.707 18.6359C29.707 18.6359 30.5839 18.5199 31.3085 19.0706C32.0332 19.6214 33.1056 20.7228 33.8303 21.2373C34.5549 21.7518 35.4752 21.8895 35.4752 21.8895C35.2578 21.4113 35.1419 20.8823 35.1419 20.3315C35.1419 19.6214 35.3375 18.9547 35.6781 18.3822H35.6854Z" fill="#3531B3"/>
<path fill-rule="evenodd" clip-rule="evenodd" d="M38.8804 23.0055C37.4021 23.0055 36.1992 21.8098 36.1992 20.3243C36.1992 18.846 37.3949 17.6431 38.8804 17.6431C40.3587 17.6431 41.5616 18.8387 41.5616 20.3243C41.5616 21.8025 40.3659 23.0055 38.8804 23.0055Z" fill="#3531B3"/>
<path fill-rule="evenodd" clip-rule="evenodd" d="M41.1339 23.3749C41.1339 23.3749 42.6195 25.4329 42.9093 27.4982C43.1992 29.5634 42.6992 32.5272 42.6992 32.5272C42.6992 32.5272 42.5977 31.0997 42.076 30.2084C41.5542 29.317 40.7571 28.6141 39.8078 27.5561C38.8585 26.5054 38.2353 25.759 37.8875 25.0126C37.6629 24.5344 37.6049 24.1213 37.5977 23.8894C37.9962 24.0344 38.431 24.1141 38.8803 24.1141C39.7209 24.1141 40.5035 23.8387 41.1339 23.3677V23.3749Z" fill="#3531B3"/>
</svg>
