<svg width="119" height="119" viewBox="0 0 119 119" fill="none" xmlns="http://www.w3.org/2000/svg">
<g filter="url(#filter0_d_51_12005)">
<path d="M79.4769 32.7986C85.5629 37.9167 89.9101 44.9652 92.6099 53.2259C95.2639 61.5315 96.2706 71.0942 92.6556 78.8161C89.0406 86.583 80.8497 92.5092 72.2468 94.3499C63.5983 96.1906 54.4921 93.9009 46.6215 90.2644C38.7508 86.6279 32.1157 81.5996 27.2194 74.8654C22.2774 68.0862 19.12 59.5561 20.2182 51.5199C21.3622 43.4837 26.7618 35.9413 33.763 31.0028C40.7185 26.0194 49.2755 23.64 57.4207 24.0441C65.6117 24.493 73.3908 27.6806 79.4769 32.7986Z" fill="white"/>
</g>
<path d="M65.0816 35.71C64.4385 35.524 63.7464 35.739 63.3217 36.2566L61.0747 38.9467C61.0137 39.0202 60.9071 39.0359 60.8273 38.9833L56.8191 36.3601C56.094 35.8846 55.1273 36.0309 54.5754 36.6996L51.5256 40.3881C51.4643 40.4622 51.3571 40.4785 51.2765 40.4258L47.2715 37.805C46.5464 37.3296 45.5798 37.4759 45.0278 38.1446L41.9749 41.8365C41.9137 41.9104 41.807 41.9269 41.7265 41.8748L38.7818 39.9705C38 39.4621 36.9541 39.6836 36.4457 40.4653C36.2177 40.8159 36.1279 41.2385 36.1936 41.6514L41.4072 76.1003C41.5408 77.0247 42.3984 77.6658 43.3228 77.5322C43.7369 77.4724 44.1141 77.2611 44.3815 76.9394L46.6285 74.2493C46.6896 74.1758 46.7961 74.1601 46.8759 74.2127L50.8841 76.8359C51.6092 77.3114 52.5759 77.1651 53.1278 76.4964L56.178 72.8078C56.2393 72.7337 56.3465 72.7175 56.4271 72.7701L60.4321 75.3908C61.1572 75.866 62.1238 75.7197 62.6757 75.0513L65.7289 71.3593C65.79 71.2854 65.8968 71.269 65.9773 71.321L68.922 73.2253C69.704 73.7334 70.7497 73.5115 71.2578 72.7295C71.4854 72.3793 71.5751 71.9571 71.5096 71.5446L66.296 37.0957C66.2046 36.4326 65.727 35.8876 65.0816 35.71ZM44.0277 51.5821L53.3376 50.1732C53.7506 50.1107 54.1362 50.3948 54.1987 50.8079C54.2612 51.2209 53.977 51.6064 53.564 51.6689L44.2541 53.0779C43.8411 53.1404 43.4556 52.8562 43.3931 52.4432C43.3305 52.0302 43.6147 51.6447 44.0277 51.5821ZM63.6755 61.6139L45.9519 64.2962C45.5389 64.3587 45.1534 64.0745 45.0909 63.6615C45.0283 63.2485 45.3125 62.8629 45.7255 62.8004L63.4491 60.1181C63.8621 60.0556 64.2477 60.3398 64.3102 60.7528C64.3727 61.1658 64.0885 61.5514 63.6755 61.6139ZM62.8266 56.0047L45.103 58.687C44.69 58.7496 44.3045 58.4654 44.242 58.0524C44.1794 57.6393 44.4636 57.2538 44.8766 57.1913L62.6002 54.509C63.0132 54.4464 63.3988 54.7306 63.4613 55.1436C63.5238 55.5567 63.2396 55.9422 62.8266 56.0047Z" fill="#534ED9"/>
<circle cx="75" cy="73" r="10" fill="#0EAE3D"/>
<path d="M79.5951 71.0449L72.9271 75.6703L71.0133 72.5168" fill="#0EAE3D"/>
<path d="M79.5951 71.0449L72.9271 75.6703L71.0133 72.5168" stroke="white" stroke-width="2" stroke-linecap="round" stroke-linejoin="round"/>
<defs>
<filter id="filter0_d_51_12005" x="-4" y="0" width="123" height="119" filterUnits="userSpaceOnUse" color-interpolation-filters="sRGB">
<feFlood flood-opacity="0" result="BackgroundImageFix"/>
<feColorMatrix in="SourceAlpha" type="matrix" values="0 0 0 0 0 0 0 0 0 0 0 0 0 0 0 0 0 0 127 0" result="hardAlpha"/>
<feOffset/>
<feGaussianBlur stdDeviation="12"/>
<feColorMatrix type="matrix" values="0 0 0 0 0 0 0 0 0 0 0 0 0 0 0 0 0 0 0.3 0"/>
<feBlend mode="normal" in2="BackgroundImageFix" result="effect1_dropShadow_51_12005"/>
<feBlend mode="normal" in="SourceGraphic" in2="effect1_dropShadow_51_12005" result="shape"/>
</filter>
</defs>
</svg>
