<svg width="256" height="261" viewBox="0 0 256 261" fill="none" xmlns="http://www.w3.org/2000/svg">
<path d="M87.694 63.7177C69.2491 90.0334 63.4564 129.048 78.8526 161.79C94.2488 194.531 130.834 220.847 167.724 221C204.766 221 241.808 194.99 263.607 158.577C285.253 122.163 291.655 75.4985 273.058 49.0298C254.613 22.5611 211.016 16.2882 173.974 19.9601C136.779 23.6321 105.986 37.2489 87.694 63.7177Z" fill="#030062"/>
<path d="M78.694 50.7177C60.2491 77.0334 54.4564 116.048 69.8526 148.79C85.2488 181.531 121.834 207.847 158.724 208C195.766 208 232.808 181.99 254.607 145.577C276.253 109.163 282.655 62.4985 264.058 36.0298C245.613 9.56109 202.016 3.28816 164.974 6.96012C127.779 10.6321 96.9865 24.2489 78.694 50.7177Z" fill="#0EAE3D"/>
<path d="M204 78L152.438 133L129 108" stroke="white" stroke-width="12" stroke-linecap="round" stroke-linejoin="round"/>
<ellipse rx="10.8918" ry="22.8592" transform="matrix(0.696694 -0.717433 0.72074 0.693139 24.8079 24.3835)" fill="#FFB70A"/>
<ellipse rx="11.0111" ry="10.9753" transform="matrix(0.966975 0.254872 -0.254997 0.966942 26.2257 67.4609)" fill="#FF8500"/>
<path d="M238.672 224.445C238.672 224.445 230.541 214.503 217.03 224.748C203.518 234.993 195.988 227.34 192.847 234.996C189.692 242.658 217.977 261.622 231.762 254.882C245.565 248.151 243.643 227.85 238.672 224.445Z" fill="#FF8500"/>
</svg>
