<svg width="48" height="48" viewBox="0 0 48 48" fill="none" xmlns="http://www.w3.org/2000/svg">
<circle cx="24" cy="24" r="24" fill="white"/>
<path d="M19.0547 29.1476C18.6874 29.1476 18.3901 28.8424 18.3901 28.4654V20.876C18.3901 20.5001 18.6874 20.1938 19.0547 20.1938C19.4209 20.1938 19.7193 20.499 19.7193 20.876V28.4665C19.7193 28.8424 19.4209 29.1476 19.0547 29.1476Z" fill="#3531B3"/>
<path d="M25.2479 29.1476C22.8427 29.1476 20.8867 27.1397 20.8867 24.6707C20.8867 22.2017 22.8427 20.1938 25.2479 20.1938C27.6531 20.1938 29.6091 22.2017 29.6091 24.6707C29.6091 27.1397 27.652 29.1476 25.2479 29.1476ZM25.2479 21.5571C23.5752 21.5571 22.2148 22.9536 22.2148 24.6707C22.2148 26.3878 23.5752 27.7843 25.2479 27.7843C26.9206 27.7843 28.281 26.3878 28.281 24.6707C28.281 22.9547 26.9206 21.5571 25.2479 21.5571Z" fill="#3531B3"/>
<path d="M35.1375 20.1938C32.7324 20.1938 30.7764 22.2017 30.7764 24.6707V28.4654C30.7764 28.8413 31.0736 29.1476 31.4409 29.1476C31.8082 29.1476 32.1055 28.8424 32.1055 28.4654V24.6707C32.1055 22.9536 33.4659 21.5571 35.1386 21.5571C36.8114 21.5571 38.1717 22.9536 38.1717 24.6707V28.4654C38.1717 28.8413 38.469 29.1476 38.8352 29.1476C39.2014 29.1476 39.4998 28.8424 39.4998 28.4654V24.6707C39.4987 22.2028 37.5427 20.1938 35.1375 20.1938Z" fill="#3531B3"/>
<path d="M12.8612 20.1938C11.6839 20.1938 10.6133 20.6759 9.82806 21.4565V16.6822C9.82806 16.3052 9.53078 16 9.16457 16C8.79836 16 8.5 16.3052 8.5 16.6822V24.6718C8.5 27.1407 10.456 29.1486 12.8612 29.1486C15.2663 29.1486 17.2224 27.1407 17.2224 24.6718C17.2224 22.2028 15.2663 20.1938 12.8612 20.1938ZM12.8612 27.7842C11.1884 27.7842 9.82806 26.3878 9.82806 24.6707C9.82806 22.9536 11.1884 21.5571 12.8612 21.5571C14.5339 21.5571 15.8943 22.9536 15.8943 24.6707C15.8943 26.3878 14.5339 27.7842 12.8612 27.7842Z" fill="#3531B3"/>
<path d="M24.3442 26.4509C24.272 26.4509 24.202 26.4254 24.146 26.3768L23.1119 25.4701C22.9838 25.3574 22.9687 25.1595 23.0775 25.0279C23.1873 24.8963 23.3801 24.8808 23.5083 24.9925L24.2192 25.6161C24.5251 24.956 25.3082 23.7011 27.0617 22.916C27.2168 22.8464 27.3967 22.9194 27.4634 23.0786C27.5302 23.2378 27.4602 23.4224 27.3051 23.491C25.1671 24.4485 24.6576 26.1535 24.636 26.2253C24.607 26.327 24.5294 26.4078 24.4303 26.4376C24.4034 26.4465 24.3732 26.4509 24.3442 26.4509Z" fill="#3531B3"/>
</svg>
