<svg width="49" height="52" viewBox="0 0 49 52" fill="none" xmlns="http://www.w3.org/2000/svg">
<path d="M42.1831 6.8899C46.7308 11.4706 49.3013 18.1425 48.9717 24.4493C48.6422 30.7893 45.4456 36.7641 40.8649 42.0751C36.2842 47.3861 30.3523 52 24.3875 52C18.4557 51.9668 12.5238 47.3529 7.91017 42.0419C3.32947 36.7309 0.066952 30.7561 0.00104253 24.7149C-0.0648669 18.6404 2.99992 12.4996 7.61358 7.9189C12.1943 3.33819 18.2909 0.284377 24.6512 0.0188285C30.9785 -0.24672 37.6024 2.30919 42.1831 6.8899Z" fill="white"/>
<path d="M26.8325 17.0114C26.3225 17.0921 25.8436 16.7442 25.7629 16.2342L25.2553 13.0297C25.1427 12.3187 24.4726 11.8319 23.7617 11.9445L18.707 12.7451C17.9961 12.8577 17.5092 13.5277 17.6218 14.2387L18.1294 17.4432C18.2102 17.9532 17.8622 18.4321 17.3522 18.5129C16.8422 18.5937 16.3634 18.2457 16.2826 17.7357L15.775 14.5312C15.5012 12.8019 16.6852 11.1722 18.4145 10.8983L23.4692 10.0977C25.1985 9.82382 26.8282 11.0079 27.1021 12.7372L27.6096 15.9417C27.6904 16.4517 27.3425 16.9306 26.8325 17.0114Z" fill="#3531B3"/>
<path d="M35.5836 33.0813L13.7935 36.5325C12.2688 36.7739 10.8363 35.729 10.5939 34.1984L8.4277 20.5218C8.18528 18.9912 9.22478 17.5547 10.7495 17.3132L32.5396 13.862C34.0643 13.6205 35.4968 14.6655 35.7392 16.196L37.9054 29.8728C38.1477 31.4033 37.1083 32.8398 35.5836 33.0813Z" fill="#3531B3"/>
<rect x="7.98877" y="17.7505" width="27.652" height="10.2415" rx="2.5" transform="rotate(-9 7.98877 17.7505)" fill="#534ED9"/>
<path fill-rule="evenodd" clip-rule="evenodd" d="M15.4134 28.9678C15.428 28.9659 15.4426 28.9638 15.4572 28.9614C15.4573 28.9614 15.4573 28.9614 15.4574 28.9614C16.3971 28.8126 17.0382 27.9302 16.8893 26.9905L16.3778 23.7607C16.3243 23.4231 16.0073 23.1928 15.6697 23.2463L13.4894 23.5916C13.1518 23.6451 12.9215 23.9622 12.9749 24.2997L13.1592 25.4629L13.159 25.4629L13.4863 27.5296C13.6328 28.4546 14.4902 29.0903 15.4134 28.9678Z" fill="#FF8500"/>
<path fill-rule="evenodd" clip-rule="evenodd" d="M31.4583 26.3859C30.6704 26.337 29.9938 25.7479 29.8652 24.9357L29.3537 21.706C29.3002 21.3684 29.5305 21.0514 29.8681 20.9979L32.0484 20.6526C32.386 20.5991 32.703 20.8294 32.7565 21.167L33.2681 24.3968C33.2699 24.4087 33.2717 24.4207 33.2734 24.4326C33.4006 25.3587 32.7639 26.2208 31.8362 26.3677C31.7086 26.3879 31.5821 26.3936 31.4583 26.3859Z" fill="#FF8500"/>
<path d="M38.0864 39.2811L38.0219 39.7399C38.0162 39.7802 38.0085 39.8202 37.9988 39.8589C37.8645 40.3905 37.3577 40.7474 36.8145 40.6711L35.1955 40.4435C34.6519 40.3671 34.2635 39.8844 34.2809 39.3364C34.2822 39.2965 34.2858 39.2559 34.2915 39.2156L34.356 38.7568C34.4868 38.8402 34.6365 38.8973 34.7995 38.9202L37.6154 39.3159C37.778 39.3388 37.9376 39.3251 38.0864 39.2811Z" fill="#333333"/>
<path d="M38.9033 38.323C38.8374 38.7921 38.5058 39.1577 38.0865 39.2813C37.9378 39.3254 37.7782 39.339 37.6152 39.3161L34.7993 38.9203C34.6363 38.8974 34.4863 38.8403 34.3558 38.757C33.9872 38.5223 33.7689 38.0797 33.8348 37.6107C33.8348 37.6107 34.0545 35.9268 34.0576 35.8821L34.0578 35.8807L36.6624 35.8799L39.1367 36.5945L38.9033 38.323Z" fill="#333333"/>
<path d="M38.0442 25.6971C38.0442 25.6971 38.0439 25.6971 38.0442 25.6971C35.3319 25.2723 32.7054 27.3729 32.3665 30.1384C32.1688 31.5455 32.5348 32.8976 33.2878 33.9499C33.7313 34.5703 34.111 35.1395 34.0576 35.8815L39.1349 36.6037C39.2695 35.8515 39.7621 35.3995 40.3649 34.9139C41.3614 34.1107 42.0724 32.9226 42.2681 31.5303C42.6671 28.6939 40.7761 26.0836 38.0442 25.6971Z" fill="#FFB70A"/>
</svg>
