<svg width="173" height="105" viewBox="0 0 173 105" fill="none" xmlns="http://www.w3.org/2000/svg">
<path d="M48.5769 92.0323C46.8891 92.0323 45.5205 90.6618 45.5205 88.9716V54.8927C45.5205 53.2025 46.8891 51.832 48.5769 51.832C50.2647 51.832 51.6333 53.2025 51.6333 54.8927V88.9734C51.6333 90.6636 50.2647 92.0323 48.5769 92.0323Z" fill="white"/>
<path d="M77.0838 92.0323C66.0151 92.0323 57.0117 83.0145 57.0117 71.9322C57.0117 60.848 66.0169 51.832 77.0838 51.832C88.1524 51.832 97.1558 60.8498 97.1558 71.9322C97.1558 83.0163 88.1524 92.0323 77.0838 92.0323ZM77.0838 57.9534C69.3872 57.9534 63.1245 64.2249 63.1245 71.9322C63.1245 79.6413 69.3872 85.911 77.0838 85.911C84.7821 85.911 91.043 79.6395 91.043 71.9322C91.043 64.2249 84.7803 57.9534 77.0838 57.9534Z" fill="white"/>
<path d="M122.605 51.832C111.537 51.832 102.533 60.8498 102.533 71.9322V88.9716C102.533 90.6618 103.902 92.0323 105.59 92.0323C107.277 92.0323 108.646 90.6618 108.646 88.9716V71.9322C108.646 64.2249 114.909 57.9534 122.605 57.9534C130.304 57.9534 136.564 64.2249 136.564 71.9322V88.9716C136.564 90.6618 137.933 92.0323 139.621 92.0323C141.309 92.0323 142.677 90.6618 142.677 88.9716V71.9322C142.677 60.848 133.674 51.832 122.605 51.832Z" fill="white"/>
<path d="M20.072 51.8321C14.6524 51.8321 9.72826 53.9956 6.11279 57.5031V36.0607C6.11279 34.3705 4.7442 33 3.0564 33C1.36859 33 0 34.3705 0 36.0607V71.9322C0 83.0163 9.00517 92.0324 20.072 92.0324C31.1407 92.0324 40.1441 83.0146 40.1441 71.9322C40.1458 60.8481 31.1407 51.8321 20.072 51.8321ZM20.072 85.911C12.3737 85.911 6.11279 79.6395 6.11279 71.9322C6.11279 64.2249 12.3755 57.9534 20.072 57.9534C27.7686 57.9534 34.0313 64.2249 34.0313 71.9322C34.033 79.6413 27.7703 85.911 20.072 85.911Z" fill="white"/>
<path d="M72.9254 79.925C72.5956 79.925 72.2711 79.8102 72.0154 79.5895L67.2553 75.5203C66.6645 75.0152 66.594 74.1269 67.0984 73.5352C67.6028 72.9436 68.4899 72.8729 69.0807 73.378L72.354 76.1756C73.7614 73.2138 77.3645 67.5764 85.4367 64.0512C86.1492 63.7404 86.9764 64.0671 87.2868 64.7788C87.5972 65.4924 87.2709 66.3207 86.5602 66.6315C76.719 70.9284 74.3716 78.5846 74.2782 78.9078C74.1441 79.3652 73.7861 79.7272 73.3293 79.8632C73.197 79.9056 73.0612 79.925 72.9254 79.925Z" fill="white"/>
<path d="M48.2092 104.761C47.6113 104.761 47.3115 104.464 47.3115 103.872V99.0524C47.3115 98.459 47.6113 98.1641 48.2092 98.1641H50.4896C51.2004 98.1641 51.7489 98.3177 52.1386 98.6268C52.5284 98.9359 52.7224 99.3491 52.7224 99.8666C52.7224 100.209 52.636 100.509 52.4649 100.766C52.2938 101.022 52.0557 101.212 51.7506 101.336C52.1175 101.449 52.4014 101.636 52.6007 101.903C52.8 102.168 52.9005 102.496 52.9005 102.89C52.9005 103.471 52.6942 103.927 52.2797 104.261C51.8653 104.594 51.3009 104.761 50.5831 104.761H48.2092ZM48.957 100.783H50.181C50.4931 100.783 50.7206 100.727 50.867 100.615C51.0134 100.502 51.0875 100.331 51.0875 100.101C51.0875 99.8701 51.0134 99.7006 50.867 99.5911C50.7206 99.4816 50.4914 99.4268 50.181 99.4268H48.957V100.783ZM48.957 103.498H50.3485C50.666 103.498 50.8988 103.438 51.0452 103.316C51.1915 103.194 51.2656 103.012 51.2656 102.768C51.2656 102.525 51.1915 102.344 51.0452 102.226C50.8988 102.108 50.666 102.048 50.3485 102.048H48.957V103.498Z" fill="white"/>
<path d="M56.7787 104.846C56.5053 104.846 56.2919 104.77 56.1438 104.616C55.9956 104.462 55.9198 104.243 55.9198 103.956V101.842L54.1262 99.24C54.0203 99.0899 53.9745 98.9257 53.9904 98.7438C54.0062 98.5636 54.0803 98.4064 54.2144 98.2757C54.3484 98.1451 54.5406 98.0797 54.7893 98.0797C54.9639 98.0797 55.1226 98.1239 55.2655 98.2104C55.4083 98.2987 55.5424 98.4382 55.6676 98.6307L56.8069 100.305L57.9462 98.6201C58.0767 98.4276 58.2108 98.2881 58.3483 98.2033C58.4859 98.1186 58.6482 98.0762 58.8351 98.0762C59.0714 98.0762 59.2548 98.1362 59.3871 98.2546C59.5176 98.3729 59.5882 98.523 59.597 98.7031C59.6058 98.8851 59.5494 99.0687 59.4242 99.2559L57.6394 101.838V103.952C57.6376 104.549 57.3519 104.846 56.7787 104.846Z" fill="white"/>
<path d="M65.1594 104.761C64.5615 104.761 64.2617 104.464 64.2617 103.872V99.0524C64.2617 98.459 64.5615 98.1641 65.1594 98.1641H67.4398C68.1506 98.1641 68.699 98.3177 69.0888 98.6268C69.4786 98.9359 69.6726 99.3491 69.6726 99.8666C69.6726 100.209 69.5862 100.509 69.4151 100.766C69.244 101.022 69.0059 101.212 68.7008 101.336C69.0677 101.449 69.3516 101.636 69.5509 101.903C69.7502 102.168 69.8507 102.496 69.8507 102.89C69.8507 103.471 69.6444 103.927 69.2299 104.261C68.8155 104.594 68.2511 104.761 67.5333 104.761H65.1594ZM65.9072 100.783H67.1312C67.4433 100.783 67.6708 100.727 67.8172 100.615C67.9636 100.502 68.0377 100.331 68.0377 100.101C68.0377 99.8701 67.9636 99.7006 67.8172 99.5911C67.6708 99.4816 67.4416 99.4268 67.1312 99.4268H65.9072V100.783ZM65.9072 103.498H67.2987C67.6162 103.498 67.849 103.438 67.9954 103.316C68.1417 103.194 68.2158 103.012 68.2158 102.768C68.2158 102.525 68.1417 102.344 67.9954 102.226C67.849 102.108 67.6162 102.048 67.2987 102.048H65.9072V103.498Z" fill="white"/>
<path d="M71.7096 104.846C71.4168 104.846 71.2017 104.747 71.0641 104.546C70.9265 104.346 70.9265 104.097 71.0641 103.797L73.3904 98.7812C73.5032 98.5375 73.639 98.3609 73.8013 98.2479C73.9635 98.1348 74.154 98.0801 74.3709 98.0801C74.5826 98.0801 74.7695 98.1366 74.9318 98.2479C75.094 98.3609 75.2316 98.5375 75.3427 98.7812L77.669 103.797C77.8118 104.103 77.8189 104.353 77.6883 104.549C77.5578 104.745 77.3515 104.844 77.0711 104.844C76.8224 104.844 76.6302 104.788 76.4961 104.677C76.3621 104.565 76.2422 104.383 76.1363 104.134L75.8365 103.423H72.893L72.5932 104.134C72.4803 104.383 72.3657 104.565 72.2475 104.677C72.1293 104.788 71.953 104.846 71.7096 104.846ZM74.3551 99.961L73.4574 102.103H75.2704L74.3727 99.961H74.3551Z" fill="white"/>
<path d="M79.9331 104.846C79.397 104.846 79.1289 104.574 79.1289 104.032V98.9312C79.1289 98.6574 79.1977 98.4455 79.3352 98.2989C79.4728 98.1523 79.6527 98.0781 79.8767 98.0781C80.076 98.0781 80.2294 98.1152 80.3388 98.1912C80.4481 98.2671 80.5733 98.3907 80.7179 98.5656L83.4181 101.944V98.8835C83.4181 98.3466 83.6826 98.0781 84.2117 98.0781C84.4728 98.0781 84.6703 98.1488 84.8043 98.2883C84.9384 98.4278 85.0054 98.6274 85.0054 98.8817V104.065C85.0054 104.302 84.9436 104.491 84.8184 104.632C84.6932 104.772 84.5257 104.842 84.314 104.842C84.1024 104.842 83.9348 104.805 83.8149 104.729C83.695 104.653 83.5645 104.53 83.4269 104.355L80.7268 100.976V104.026C80.7268 104.574 80.4622 104.846 79.9331 104.846Z" fill="white"/>
<path d="M87.6704 104.846C87.3971 104.846 87.1837 104.772 87.0355 104.622C86.8874 104.472 86.8115 104.256 86.8115 103.975V98.9508C86.8115 98.67 86.8856 98.4545 87.0355 98.3044C87.1854 98.1543 87.3971 98.0801 87.6704 98.0801C87.9438 98.0801 88.1554 98.1543 88.3053 98.3044C88.4552 98.4545 88.5293 98.67 88.5293 98.9508V100.991H88.5487L90.8185 98.4828C90.9367 98.3574 91.0637 98.2602 91.1977 98.1878C91.3317 98.1154 91.4834 98.0801 91.651 98.0801C91.9067 98.0801 92.0936 98.1472 92.2118 98.2814C92.33 98.4156 92.3829 98.5728 92.3705 98.7547C92.3582 98.9349 92.2859 99.0974 92.1554 99.2404L90.2118 101.3L92.2682 103.629C92.4305 103.811 92.5116 103.995 92.5116 104.182C92.5116 104.369 92.4464 104.526 92.3159 104.655C92.1854 104.782 91.9984 104.848 91.755 104.848C91.5434 104.848 91.3723 104.805 91.2418 104.722C91.1113 104.639 90.9737 104.512 90.8309 104.343L88.5505 101.789H88.5311V103.979C88.5311 104.26 88.457 104.475 88.3106 104.625C88.1642 104.775 87.9508 104.846 87.6704 104.846Z" fill="white"/>
<path d="M98.1256 104.846C97.8769 104.846 97.6847 104.777 97.5507 104.639C97.4166 104.501 97.3496 104.309 97.3496 104.058V98.864C97.3496 98.608 97.4219 98.4137 97.5648 98.2795C97.7076 98.1452 97.9105 98.0781 98.1715 98.0781C98.3831 98.0781 98.5542 98.1205 98.6847 98.2053C98.8152 98.2901 98.9334 98.4278 99.0392 98.6221L100.88 101.944L102.722 98.6221C102.835 98.4296 102.954 98.2901 103.081 98.2053C103.208 98.1205 103.381 98.0781 103.6 98.0781C103.843 98.0781 104.034 98.1452 104.17 98.2795C104.307 98.4137 104.376 98.608 104.376 98.864V104.058C104.376 104.307 104.311 104.501 104.18 104.639C104.05 104.777 103.856 104.846 103.6 104.846C103.351 104.846 103.159 104.777 103.025 104.639C102.891 104.501 102.824 104.309 102.824 104.058V101.176L101.515 103.459C101.427 103.597 101.335 103.7 101.24 103.769C101.143 103.837 101.014 103.871 100.852 103.871C100.697 103.871 100.568 103.837 100.469 103.769C100.369 103.7 100.279 103.597 100.198 103.459L98.8999 101.213V104.058C98.8999 104.307 98.8346 104.501 98.7041 104.639C98.5753 104.777 98.3813 104.846 98.1256 104.846Z" fill="white"/>
<path d="M107.087 104.761C106.489 104.761 106.189 104.464 106.189 103.872V99.0524C106.189 98.459 106.489 98.1641 107.087 98.1641H110.255C110.703 98.1641 110.927 98.3831 110.927 98.8193C110.927 99.2679 110.703 99.4939 110.255 99.4939H107.835V100.748H110.05C110.498 100.748 110.724 100.969 110.724 101.412C110.724 101.855 110.5 102.076 110.05 102.076H107.835V103.432H110.255C110.703 103.432 110.927 103.653 110.927 104.096C110.927 104.54 110.703 104.761 110.255 104.761H107.087Z" fill="white"/>
<path d="M114.881 104.864C114.5 104.864 114.11 104.825 113.708 104.747C113.306 104.67 112.962 104.558 112.676 104.415C112.509 104.334 112.39 104.224 112.322 104.088C112.253 103.951 112.228 103.809 112.248 103.663C112.267 103.516 112.32 103.386 112.406 103.269C112.493 103.154 112.609 103.076 112.752 103.036C112.895 102.995 113.057 103.016 113.237 103.096C113.473 103.214 113.741 103.303 114.041 103.363C114.341 103.423 114.621 103.451 114.882 103.451C115.293 103.451 115.581 103.396 115.747 103.287C115.911 103.177 115.994 103.041 115.994 102.88C115.994 102.737 115.935 102.621 115.821 102.534C115.706 102.448 115.502 102.372 115.209 102.31L114.115 102.077C112.932 101.821 112.339 101.201 112.339 100.215C112.339 99.7845 112.456 99.4083 112.69 99.0833C112.925 98.7583 113.249 98.5076 113.667 98.3292C114.085 98.1508 114.57 98.0625 115.126 98.0625C115.45 98.0625 115.778 98.0978 116.112 98.1702C116.445 98.2426 116.733 98.3504 116.976 98.4934C117.163 98.5941 117.281 98.7283 117.33 98.9014C117.38 99.0727 117.375 99.2405 117.311 99.4012C117.249 99.5637 117.138 99.682 116.979 99.7562C116.821 99.8304 116.62 99.818 116.376 99.7191C116.189 99.6379 115.983 99.5778 115.759 99.5372C115.535 99.4966 115.316 99.4772 115.105 99.4772C114.756 99.4772 114.487 99.5372 114.3 99.6591C114.114 99.7809 114.02 99.9381 114.02 100.132C114.02 100.27 114.077 100.381 114.188 100.47C114.3 100.558 114.5 100.632 114.786 100.694L115.87 100.929C117.073 101.185 117.674 101.789 117.674 102.744C117.674 103.175 117.56 103.55 117.329 103.868C117.098 104.186 116.775 104.433 116.357 104.608C115.941 104.777 115.449 104.864 114.881 104.864Z" fill="white"/>
<path d="M121.385 104.845C121.111 104.845 120.9 104.771 120.75 104.621C120.6 104.471 120.526 104.255 120.526 103.975V99.5664H119.058C118.584 99.5664 118.348 99.3315 118.348 98.8652C118.348 98.3972 118.584 98.1641 119.058 98.1641H123.711C124.184 98.1641 124.422 98.3972 124.422 98.8652C124.422 99.3332 124.185 99.5664 123.711 99.5664H122.244V103.975C122.244 104.255 122.169 104.471 122.023 104.621C121.877 104.771 121.665 104.845 121.385 104.845Z" fill="white"/>
<path d="M126.448 104.846C126.174 104.846 125.961 104.772 125.813 104.622C125.665 104.472 125.589 104.254 125.589 103.967V98.9596C125.589 98.6735 125.663 98.4545 125.813 98.3044C125.963 98.1543 126.174 98.0801 126.448 98.0801C126.721 98.0801 126.933 98.1543 127.083 98.3044C127.233 98.4545 127.307 98.6717 127.307 98.9596V103.967C127.307 104.253 127.233 104.472 127.086 104.622C126.94 104.772 126.728 104.846 126.448 104.846Z" fill="white"/>
<path d="M129.963 104.846C129.69 104.846 129.477 104.772 129.328 104.622C129.18 104.472 129.104 104.256 129.104 103.975V98.9508C129.104 98.67 129.179 98.4545 129.328 98.3044C129.478 98.1543 129.69 98.0801 129.963 98.0801C130.237 98.0801 130.448 98.1543 130.598 98.3044C130.748 98.4545 130.822 98.67 130.822 98.9508V100.991H130.842L133.111 98.4828C133.23 98.3574 133.357 98.2602 133.491 98.1878C133.625 98.1154 133.776 98.0801 133.944 98.0801C134.2 98.0801 134.387 98.1472 134.505 98.2814C134.623 98.4156 134.676 98.5728 134.664 98.7547C134.651 98.9349 134.579 99.0974 134.448 99.2404L132.505 101.3L134.561 103.629C134.723 103.811 134.805 103.995 134.805 104.182C134.805 104.369 134.739 104.526 134.609 104.655C134.478 104.782 134.291 104.848 134.048 104.848C133.836 104.848 133.665 104.805 133.535 104.722C133.404 104.638 133.267 104.512 133.124 104.343L130.843 101.789H130.824V103.979C130.824 104.26 130.75 104.475 130.604 104.625C130.457 104.775 130.244 104.846 129.963 104.846Z" fill="white"/>
<path d="M136.457 104.846C136.164 104.846 135.949 104.747 135.811 104.546C135.674 104.346 135.674 104.097 135.811 103.797L138.137 98.7812C138.25 98.5375 138.386 98.3609 138.548 98.2479C138.711 98.1348 138.901 98.0801 139.118 98.0801C139.33 98.0801 139.517 98.1366 139.679 98.2479C139.841 98.3609 139.979 98.5375 140.09 98.7812L142.416 103.797C142.559 104.103 142.566 104.353 142.435 104.549C142.305 104.745 142.099 104.844 141.818 104.844C141.569 104.844 141.377 104.788 141.243 104.677C141.109 104.565 140.989 104.383 140.883 104.134L140.584 103.423H137.64L137.34 104.134C137.227 104.383 137.113 104.565 136.995 104.677C136.876 104.788 136.7 104.846 136.457 104.846ZM139.1 99.961L138.203 102.103H140.016L139.118 99.961H139.1Z" fill="white"/>
<ellipse rx="8.42124" ry="17.656" transform="matrix(0.891507 0.453007 -0.452226 0.891903 150.492 19.5623)" fill="#FFB70A"/>
<ellipse cx="164.468" cy="47.5" rx="8.49078" ry="8.5" fill="#FF8500"/>
</svg>
