<svg width="128" height="64" viewBox="0 0 128 64" fill="none" xmlns="http://www.w3.org/2000/svg">
<path d="M43.3372 52.5893C41.829 52.5893 40.6084 51.3686 40.6084 49.8605V19.5037C40.6084 18 41.829 16.7749 43.3372 16.7749C44.8408 16.7749 46.0659 17.9955 46.0659 19.5037V49.8649C46.0659 51.3686 44.8408 52.5893 43.3372 52.5893Z" fill="white"/>
<path d="M68.7676 52.5893C58.8918 52.5893 50.8604 44.5578 50.8604 34.6821C50.8604 24.8064 58.8918 16.7749 68.7676 16.7749C78.6433 16.7749 86.6748 24.8064 86.6748 34.6821C86.6748 44.5578 78.6389 52.5893 68.7676 52.5893ZM68.7676 22.228C61.8992 22.228 56.3134 27.8138 56.3134 34.6821C56.3134 41.5504 61.8992 47.1362 68.7676 47.1362C75.6359 47.1362 81.2217 41.5504 81.2217 34.6821C81.2217 27.8182 75.6359 22.228 68.7676 22.228Z" fill="white"/>
<path d="M109.376 16.7749C99.5002 16.7749 91.4688 24.8064 91.4688 34.6821V49.8605C91.4688 51.3642 92.6894 52.5893 94.1975 52.5893C95.7056 52.5893 96.9263 51.3686 96.9263 49.8605V34.6821C96.9263 27.8138 102.512 22.228 109.38 22.228C116.249 22.228 121.834 27.8138 121.834 34.6821V49.8605C121.834 51.3642 123.055 52.5893 124.559 52.5893C126.063 52.5893 127.288 51.3686 127.288 49.8605V34.6821C127.283 24.8108 119.252 16.7749 109.376 16.7749Z" fill="white"/>
<path d="M17.9072 16.775C13.0733 16.775 8.67718 18.7033 5.45309 21.8256V2.72876C5.45309 1.22064 4.23245 0 2.72876 0C1.22507 0 0 1.22064 0 2.72876V34.6866C0 44.5623 8.03148 52.5938 17.9072 52.5938C27.7829 52.5938 35.8144 44.5623 35.8144 34.6866C35.8144 24.8109 27.7829 16.775 17.9072 16.775ZM17.9072 47.1363C11.0389 47.1363 5.45309 41.5505 5.45309 34.6822C5.45309 27.8139 11.0389 22.2281 17.9072 22.2281C24.7755 22.2281 30.3613 27.8139 30.3613 34.6822C30.3613 41.5505 24.7755 47.1363 17.9072 47.1363Z" fill="white"/>
<path d="M65.0567 41.8028C64.7604 41.8028 64.4729 41.7011 64.2429 41.5065L59.9972 37.88C59.4709 37.4289 59.409 36.6372 59.8557 36.1109C60.3068 35.5846 61.0985 35.5227 61.6248 35.9694L64.5437 38.4638C65.7997 35.8234 69.015 30.8038 76.215 27.6637C76.8519 27.3851 77.5904 27.677 77.8646 28.3138C78.1388 28.9507 77.8514 29.6893 77.2145 29.9635C68.4356 33.7935 66.3437 40.6131 66.2552 40.9006C66.1358 41.3075 65.8174 41.6303 65.4105 41.7498C65.3 41.7851 65.1761 41.8028 65.0567 41.8028Z" fill="white"/>
<path d="M40.5469 58.6087C40.5469 58.3168 40.7724 58.0913 41.0643 58.0913H43.1647C43.8413 58.0913 44.3498 58.2682 44.6903 58.6087C44.9468 58.8652 45.0839 59.1924 45.0839 59.5771V59.5948C45.0839 60.3023 44.6859 60.6694 44.2525 60.8949C44.9424 61.1381 45.4111 61.5095 45.4111 62.3099V62.3276C45.4111 63.3712 44.5532 63.9284 43.2532 63.9284H41.0687C40.7768 63.9284 40.5513 63.7029 40.5513 63.411V58.6087H40.5469ZM42.9569 60.55C43.6246 60.55 44.058 60.2935 44.058 59.7584V59.7407C44.058 59.272 43.6998 58.9978 43.0321 58.9978H41.5595V60.5455H42.9569V60.55ZM43.2576 63.0174C43.9563 63.0174 44.3808 62.7521 44.3808 62.2171V62.1994C44.3808 61.6997 43.9872 61.4167 43.1824 61.4167H41.5595V63.0174H43.2576Z" fill="white"/>
<path d="M48.5151 61.6602L46.5076 58.9008C46.4412 58.7991 46.3926 58.6842 46.3926 58.5427C46.3926 58.2685 46.6181 58.0518 46.91 58.0518C47.1355 58.0518 47.2858 58.1668 47.4096 58.3614L49.0325 60.7006L50.6819 58.3525C50.8058 58.1624 50.9473 58.043 51.1728 58.043C51.4735 58.043 51.6725 58.2685 51.6725 58.5427C51.6725 58.6842 51.6061 58.808 51.531 58.9097L49.5411 61.6337V63.4599C49.5411 63.7518 49.3155 63.9685 49.0237 63.9685C48.7318 63.9685 48.5151 63.7518 48.5151 63.4599V61.6602V61.6602Z" fill="white"/>
<path d="M56.2432 58.6087C56.2432 58.3168 56.4687 58.0913 56.7605 58.0913H58.861C59.5376 58.0913 60.0461 58.2682 60.3866 58.6087C60.6431 58.8652 60.7802 59.1924 60.7802 59.5771V59.5948C60.7802 60.3023 60.3822 60.6694 59.9488 60.8949C60.6387 61.1381 61.1074 61.5095 61.1074 62.3099V62.3276C61.1074 63.3712 60.2495 63.9284 58.9494 63.9284H56.765C56.4731 63.9284 56.2476 63.7029 56.2476 63.411V58.6087H56.2432ZM58.6532 60.55C59.3209 60.55 59.7543 60.2935 59.7543 59.7584V59.7407C59.7543 59.272 59.3961 58.9978 58.7283 58.9978H57.2558V60.5455H58.6532V60.55ZM58.9539 63.0174C59.6526 63.0174 60.0771 62.7521 60.0771 62.2171V62.1994C60.0771 61.6997 59.6835 61.4167 58.8787 61.4167H57.2558V63.0174H58.9539Z" fill="white"/>
<path d="M62.4658 63.2563L64.6326 58.423C64.7564 58.1665 64.9598 58.0073 65.2472 58.0073H65.2959C65.5877 58.0073 65.7779 58.1665 65.9061 58.423L68.0729 63.2563C68.1127 63.3314 68.1304 63.3978 68.1304 63.473C68.1304 63.7471 67.9226 63.9638 67.6484 63.9638C67.4052 63.9638 67.2416 63.8311 67.1487 63.6056L66.6756 62.5134H63.841L63.3502 63.6366C63.2573 63.8532 63.0981 63.9594 62.877 63.9594C62.6117 63.9594 62.4039 63.7515 62.4039 63.4862C62.3995 63.4243 62.4216 63.3491 62.4658 63.2563ZM66.282 61.6069L65.2561 59.2499L64.2302 61.6069H66.282Z" fill="white"/>
<path d="M69.7764 58.5736C69.7764 58.2817 70.0019 58.0562 70.2937 58.0562H70.4043C70.6608 58.0562 70.7979 58.18 70.9394 58.3569L73.8579 62.1333V58.5514C73.8579 58.2773 74.0834 58.0518 74.3576 58.0518C74.6494 58.0518 74.8661 58.2773 74.8661 58.5514V63.4511C74.8661 63.7429 74.6583 63.9596 74.3664 63.9596H74.3266C74.0834 63.9596 73.9331 63.8446 73.7916 63.65L70.7934 59.7675V63.4687C70.7934 63.7429 70.5679 63.9684 70.2937 63.9684C70.0019 63.9684 69.7852 63.7429 69.7852 63.4687V58.5736H69.7764Z" fill="white"/>
<path d="M76.8833 58.5603C76.8833 58.2684 77.1088 58.0518 77.4007 58.0518C77.6926 58.0518 77.9092 58.2684 77.9092 58.5603V61.0278L80.6774 58.2463C80.8012 58.1225 80.9118 58.0562 81.102 58.0562C81.3938 58.0562 81.5751 58.2729 81.5751 58.5293C81.5751 58.6708 81.5176 58.8035 81.3894 58.9141L79.5719 60.6652L81.5397 63.1061C81.6326 63.2123 81.6812 63.314 81.6812 63.4732C81.6812 63.765 81.4557 63.9729 81.1639 63.9729C80.9649 63.9729 80.841 63.8711 80.7305 63.7296L78.8556 61.3373L77.9048 62.2527V63.4599C77.9048 63.7518 77.6881 63.9684 77.3963 63.9684C77.1044 63.9684 76.8789 63.7518 76.8789 63.4599V58.5603H76.8833Z" fill="white"/>
<path d="M86.3965 58.5735C86.3965 58.2817 86.622 58.0562 86.9139 58.0562H87.0244C87.2499 58.0562 87.4003 58.1711 87.4976 58.3303L89.2664 61.0985L91.0396 58.3215C91.1502 58.1446 91.3049 58.0562 91.5084 58.0562H91.6189C91.9108 58.0562 92.1363 58.2817 92.1363 58.5735V63.4554C92.1363 63.7473 91.9108 63.964 91.6189 63.964C91.3447 63.964 91.1104 63.7296 91.1104 63.4554V59.9576L89.6865 62.0979C89.5759 62.2659 89.4433 62.3632 89.2531 62.3632C89.063 62.3632 88.9347 62.2615 88.8286 62.0979L87.4135 59.9709V63.4643C87.4135 63.7561 87.1969 63.964 86.905 63.964C86.6132 63.964 86.4053 63.7561 86.4053 63.4643V58.5735H86.3965Z" fill="white"/>
<path d="M94.6756 63.924C94.3837 63.924 94.1582 63.6984 94.1582 63.4066V58.6087C94.1582 58.3168 94.3837 58.0913 94.6756 58.0913H98.0673C98.3238 58.0913 98.5272 58.2903 98.5272 58.5512C98.5272 58.8077 98.3282 59.0111 98.0673 59.0111H95.1841V60.5278H97.6914C97.9479 60.5278 98.1513 60.7357 98.1513 60.9966C98.1513 61.2531 97.9523 61.4476 97.6914 61.4476H95.1841V63.013H98.1071C98.3636 63.013 98.567 63.212 98.567 63.4729C98.567 63.7294 98.368 63.9328 98.1071 63.9328H94.6756V63.924Z" fill="white"/>
<path d="M100.124 63.274C100 63.1811 99.9248 63.0484 99.9248 62.8804C99.9248 62.6151 100.141 62.4073 100.407 62.4073C100.548 62.4073 100.641 62.4426 100.708 62.5001C101.198 62.8937 101.707 63.1015 102.339 63.1015C102.972 63.1015 103.374 62.8008 103.374 62.3675V62.3498C103.374 61.9429 103.14 61.6997 102.056 61.4565C100.814 61.1647 100.115 60.78 100.115 59.7143V59.6966C100.115 58.6972 100.946 58.0029 102.105 58.0029C102.839 58.0029 103.423 58.1887 103.953 58.5468C104.077 58.6132 104.179 58.7547 104.179 58.9537C104.179 59.219 103.962 59.4268 103.697 59.4268C103.604 59.4268 103.511 59.4003 103.431 59.3516C102.972 59.0598 102.556 58.9094 102.092 58.9094C101.49 58.9094 101.141 59.2101 101.141 59.5993V59.617C101.141 60.068 101.406 60.267 102.534 60.5323C103.759 60.8507 104.4 61.2664 104.4 62.2392V62.2569C104.4 63.358 103.542 63.9992 102.317 63.9992C101.508 64.008 100.783 63.7648 100.124 63.274Z" fill="white"/>
<path d="M107.443 59.042H106.028C105.763 59.042 105.555 58.8253 105.555 58.5689C105.555 58.3124 105.763 58.0957 106.028 58.0957H109.902C110.158 58.0957 110.37 58.3124 110.37 58.5689C110.37 58.8253 110.162 59.042 109.902 59.042H108.478V63.4596C108.478 63.7515 108.252 63.9682 107.96 63.9682C107.668 63.9682 107.443 63.7515 107.443 63.4596V59.042V59.042Z" fill="white"/>
<path d="M111.994 58.5603C111.994 58.2684 112.22 58.0518 112.512 58.0518C112.803 58.0518 113.02 58.2684 113.02 58.5603V63.4599C113.02 63.7517 112.803 63.9684 112.512 63.9684C112.22 63.9684 111.994 63.7517 111.994 63.4599V58.5603Z" fill="white"/>
<path d="M115.112 58.5603C115.112 58.2684 115.337 58.0518 115.629 58.0518C115.921 58.0518 116.138 58.2684 116.138 58.5603V61.0278L118.906 58.2463C119.03 58.1225 119.14 58.0562 119.33 58.0562C119.622 58.0562 119.804 58.2729 119.804 58.5293C119.804 58.6708 119.746 58.8035 119.618 58.9141L117.8 60.6652L119.768 63.1061C119.861 63.2123 119.91 63.314 119.91 63.4732C119.91 63.765 119.684 63.9729 119.392 63.9729C119.193 63.9729 119.07 63.8711 118.959 63.7296L117.084 61.3373L116.133 62.2527V63.4599C116.133 63.7518 115.917 63.9684 115.625 63.9684C115.333 63.9684 115.107 63.7518 115.107 63.4599V58.5603H115.112Z" fill="white"/>
<path d="M121.225 63.2563L123.391 58.423C123.515 58.1665 123.719 58.0073 124.006 58.0073H124.055C124.346 58.0073 124.537 58.1665 124.665 58.423L126.832 63.2563C126.871 63.3314 126.889 63.3978 126.889 63.473C126.889 63.7471 126.681 63.9638 126.407 63.9638C126.164 63.9638 126 63.8311 125.907 63.6056L125.434 62.5134H122.6L122.109 63.6366C122.016 63.8532 121.857 63.9594 121.636 63.9594C121.37 63.9594 121.163 63.7515 121.163 63.4862C121.158 63.4243 121.185 63.3491 121.225 63.2563ZM125.041 61.6069L124.015 59.2499L122.989 61.6069H125.041Z" fill="white"/>
</svg>
