<svg width="60" height="61" viewBox="0 0 60 61" fill="none" xmlns="http://www.w3.org/2000/svg">
<path d="M47.0152 14.1357C50.8998 18.5604 52.7656 24.4095 52.9798 30.501C53.1939 36.5621 51.7257 42.8355 47.8105 47.7451C43.9259 52.6849 37.5943 56.2307 31.538 55.9883C25.4511 55.7155 19.6701 51.6242 14.9902 46.7146C10.3409 41.7748 6.82334 36.0469 7.00686 30.4706C7.19039 24.8943 11.0444 19.4999 15.7243 15.0752C20.3736 10.6808 25.8181 7.22596 31.5074 7.01382C37.1966 6.77137 43.1 9.74136 47.0152 14.1357Z" fill="white"/>
<g filter="url(#filter0_d_1_6585)">
<path d="M37.7252 4.52097L16.931 10.1287C15.8645 10.4163 15.2331 11.514 15.5207 12.5804L25.1758 48.3827C25.4634 49.4492 26.5611 50.0806 27.6275 49.793L48.4217 44.1853C49.4882 43.8977 50.1196 42.8 49.832 41.7335L40.1769 5.93124C39.8893 4.86477 38.7916 4.23337 37.7252 4.52097Z" fill="#3532B3"/>
<path d="M17.2309 18.9217C16.8114 17.3663 18.15 16.3735 19.1675 17.6224C20.2188 18.9126 21.3357 20.8561 22.1139 23.7419C24.0273 30.8371 21.2361 33.7736 21.9801 36.5326L17.2309 18.9217Z" fill="#FFC32B"/>
<path d="M47.3908 32.681C47.156 31.8103 46.3625 31.1987 45.4762 31.3657C43.8713 31.6681 41.5772 32.5438 41.6456 35.0793C41.7452 38.7716 37.4255 41.0986 36.9889 41.3242C36.9633 41.3374 36.9437 41.3465 36.9176 41.3587C36.5355 41.5372 33.2077 43.1738 32.5631 46.315C32.3289 47.4565 33.5193 48.2038 34.6444 47.9004L48.4217 44.185C49.4882 43.8974 50.1196 42.7997 49.832 41.7332L47.3908 32.681Z" fill="#FF8500"/>
<path opacity="0.6" d="M30.4821 49.0311C29.2805 49.3551 28.1152 48.472 28.5872 47.3206C29.3271 45.5154 31.3561 43.4195 36.8623 44.0454C38.8286 44.269 38.813 46.7845 36.9022 47.2997L30.4821 49.0311Z" fill="#540A7F"/>
<path d="M18.8288 9.61708C17.6774 9.92757 17.1898 11.1962 18.2753 11.6897C19.2451 12.1305 20.7501 12.3502 23.0351 11.734C24.8971 11.2318 25.8342 10.0017 26.9749 8.5553C27.5772 7.79093 28.3655 7.04524 29.3285 6.78555L18.8288 9.61708Z" fill="#FF8500"/>
<path d="M34.7958 5.31082C35.7171 5.06239 36.2929 7.21601 36.2176 7.80572C36.0024 9.49062 35.5846 10.0838 35.3007 10.8061C34.9699 11.6482 34.7769 11.852 34.7591 12.4389C34.7323 13.3234 34.9731 14.2396 35.5472 14.9107C36.6554 16.2062 38.2113 15.709 39.6374 15.4295C39.8365 15.3909 42.5829 14.853 42.5464 14.7176L40.1769 5.93112C39.8893 4.86465 38.7919 4.23318 37.7254 4.52078C36.379 4.88388 34.8188 5.30463 34.7958 5.31082Z" fill="#FFC32B"/>
<path opacity="0.6" d="M38.376 33.0671C37.2832 31.1242 32.2887 31.8679 27.2199 34.7278C25.7392 35.5638 24.4167 36.4874 23.3126 37.4249C22.7564 37.8971 22.5524 38.6549 22.7424 39.3593L23.6376 42.6791C23.9019 43.6589 24.8616 44.2931 25.8401 44.024C27.4851 43.5717 29.3264 42.8091 31.1774 41.7649C36.2459 38.9038 39.4689 35.0099 38.376 33.0671Z" fill="#540A7F"/>
</g>
<defs>
<filter id="filter0_d_1_6585" x="8.45129" y="1.45117" width="48.4502" height="59.4111" filterUnits="userSpaceOnUse" color-interpolation-filters="sRGB">
<feFlood flood-opacity="0" result="BackgroundImageFix"/>
<feColorMatrix in="SourceAlpha" type="matrix" values="0 0 0 0 0 0 0 0 0 0 0 0 0 0 0 0 0 0 127 0" result="hardAlpha"/>
<feOffset dy="4"/>
<feGaussianBlur stdDeviation="3.5"/>
<feComposite in2="hardAlpha" operator="out"/>
<feColorMatrix type="matrix" values="0 0 0 0 0 0 0 0 0 0 0 0 0 0 0 0 0 0 0.1 0"/>
<feBlend mode="normal" in2="BackgroundImageFix" result="effect1_dropShadow_1_6585"/>
<feBlend mode="normal" in="SourceGraphic" in2="effect1_dropShadow_1_6585" result="shape"/>
</filter>
</defs>
</svg>
