<svg width="100" height="94" viewBox="0 0 100 94" fill="none" xmlns="http://www.w3.org/2000/svg">
<path d="M87.9157 56.7501C87.9157 74.4103 68.5042 90 49.5161 90C30.5884 90 12.084 74.4103 12.084 56.7501C12.084 39.029 30.5884 19.1765 49.5161 19.1765C68.5042 19.1765 87.9157 39.029 87.9157 56.7501Z" fill="#FF931C"/>
<path d="M50.9191 76.8476C62.3155 76.8476 71.5541 67.562 71.5541 56.1076C71.5541 44.6533 62.3155 35.3677 50.9191 35.3677C39.5228 35.3677 30.2842 44.6533 30.2842 56.1076C30.2842 67.562 39.5228 76.8476 50.9191 76.8476Z" fill="#FFD05E"/>
<path d="M50.844 71.1981C59.1758 71.1981 65.9301 64.4095 65.9301 56.0352C65.9301 47.661 59.1758 40.8723 50.844 40.8723C42.5121 40.8723 35.7578 47.661 35.7578 56.0352C35.7578 64.4095 42.5121 71.1981 50.844 71.1981Z" fill="#FFB70A"/>
<path d="M61.052 10.6608C60.0714 10.4624 59.0249 7.61565 58.3419 6.87246C57.1544 5.57188 55.4155 4.72477 53.7299 4.31224C50.3335 3.48088 46.5173 4.34058 43.8448 6.52291C42.6416 7.50543 41.7017 8.86584 41.4291 10.3963C37.2745 10.2672 34.8244 12.7298 34.1852 16.8834C32.9978 24.561 40.2416 24.1642 40.2416 24.1642V32.503H61.052V24.1642C67.1116 24.1642 67.6379 18.8705 67.6379 18.8705C67.6379 11.9834 61.052 10.6608 61.052 10.6608Z" fill="white"/>
<path d="M69.2897 71.8438L67.5257 73.6167C67.1748 73.9694 66.6077 73.9694 66.2568 73.6167L43.9863 51.2329L47.0192 48.1846L69.2897 70.5684C69.6406 70.9211 69.6406 71.4911 69.2897 71.8438Z" fill="#030062"/>
<path d="M48.7009 51.9258L47.7077 52.9241C45.5521 55.0907 42.0586 55.0907 39.9062 52.9241L31.8665 44.8466C31.2242 44.2011 31.2242 43.1524 31.8665 42.5068L38.3365 36.0039C38.9788 35.3584 40.0221 35.3584 40.6644 36.0039L48.7009 44.0814C50.8565 46.248 50.8565 49.7592 48.7009 51.9258Z" fill="#C0C0C0"/>
<path d="M34.3357 73.5127L32.5718 71.7398C32.2209 71.3871 32.2209 70.8171 32.5718 70.4644L54.8422 48.0806L57.8751 51.1289L35.6047 73.5127C35.2569 73.8654 34.6867 73.8654 34.3357 73.5127Z" fill="#3531B3"/>
<path d="M48.0492 54.9111L68.9034 33.9507C68.9034 33.9507 72.5849 40.2615 68.0262 44.8434L50.4993 62.4595L48.2873 60.2362L45.5176 57.4524L48.0492 54.9111Z" fill="#CACACA"/>
<path d="M36.873 37.4619L44.6958 45.4228" stroke="#606060" stroke-width="1.5" stroke-miterlimit="10"/>
<path d="M33.5996 40.6741L41.4223 48.635" stroke="#606060" stroke-width="1.5" stroke-miterlimit="10"/>
<path d="M10.4737 47.5737C10.4737 47.5737 12.31 45.2659 11.1133 42.047C9.91663 38.8484 7.15188 37.6338 7.15188 37.6338C7.15188 37.6338 5.08864 40.387 6.24405 43.5249C7.39947 46.6425 10.4737 47.5737 10.4737 47.5737Z" fill="#C36600"/>
<path d="M15.5301 49.2136C15.5301 49.2136 18.7281 48.9706 20.5644 46.1567C22.4007 43.363 20.9977 40.2251 20.9977 40.2251C20.9977 40.2251 18.0266 40.8122 16.1491 43.7071C14.2715 46.5818 15.5301 49.2136 15.5301 49.2136Z" fill="#C36600"/>
<path d="M15.8601 52.9185C14.3745 56.0159 15.9839 58.4857 15.9839 58.4857C15.9839 58.4857 19.12 57.8176 20.5643 54.8215C22.0085 51.8051 20.1929 48.8899 20.1929 48.8899C20.1929 48.8899 17.3456 49.8414 15.8601 52.9185Z" fill="#C36600"/>
<path d="M23.0821 55.4082C23.0821 55.4082 20.3174 56.6431 19.1413 59.8417C17.9653 63.0606 19.8016 65.3684 19.8016 65.3684C19.8016 65.3684 22.8552 64.4169 24.0106 61.2993C25.166 58.1614 23.0821 55.4082 23.0821 55.4082Z" fill="#C36600"/>
<path d="M25.3938 72.3325C25.3938 72.3325 28.0554 70.551 28.2204 67.2309C28.4061 63.9109 25.6001 61.8662 25.6001 61.8662C25.6001 61.8662 23.3099 63.8299 23.1449 67.2309C22.9592 70.632 25.3938 72.3325 25.3938 72.3325Z" fill="#C36600"/>
<path d="M14.5392 41.3993C14.5392 41.3993 17.3658 40.4681 18.1911 37.148C19.037 33.8279 17.4277 31.3176 17.4277 31.3176C17.4277 31.3176 14.1472 32.4918 13.3425 35.7106C12.5172 38.9497 14.5392 41.3993 14.5392 41.3993Z" fill="#C36600"/>
<path d="M10.4534 54.6188C10.4534 54.6188 11.5056 51.8858 9.40112 49.1528C7.31725 46.4401 4.32554 46.0757 4.32554 46.0757C4.32554 46.0757 3.17013 49.3148 5.21274 51.9668C7.25535 54.6188 10.4534 54.6188 10.4534 54.6188Z" fill="#C36600"/>
<path d="M12.8052 61.8461C12.8052 61.8461 13.2179 58.9511 10.5563 56.7445C7.89471 54.5379 4.88237 54.8415 4.88237 54.8415C4.88237 54.8415 4.49036 58.2426 7.09004 60.3885C9.6691 62.5344 12.8052 61.8461 12.8052 61.8461Z" fill="#C36600"/>
<path d="M16.375 67.8179C16.375 67.8179 15.8798 64.9432 12.6611 63.6274C9.44248 62.3115 6.67773 63.5059 6.67773 63.5059C6.67773 63.5059 7.3586 66.8664 10.4947 68.1418C13.6102 69.4172 16.375 67.8179 16.375 67.8179Z" fill="#C36600"/>
<path d="M17.9432 70.3081C14.6008 69.3971 11.9805 70.875 11.9805 70.875C11.9805 70.875 13.0534 74.1343 16.3339 75.025C19.5938 75.9158 22.1523 74.0128 22.1523 74.0128C22.1523 74.0128 21.2857 71.2191 17.9432 70.3081Z" fill="#C36600"/>
<path d="M14.8903 43.3628L13.4046 42.6543C13.3221 42.8163 5.66666 58.789 27.1884 76.8469L28.2614 75.612C7.77137 58.4044 14.5808 43.9702 14.8903 43.3628Z" fill="#C36600"/>
<path d="M89.5263 47.5737C89.5263 47.5737 87.69 45.2659 88.8867 42.047C90.0834 38.8484 92.8481 37.6338 92.8481 37.6338C92.8481 37.6338 94.9114 40.387 93.7559 43.5249C92.6005 46.6425 89.5263 47.5737 89.5263 47.5737Z" fill="#C36600"/>
<path d="M84.4699 49.2136C84.4699 49.2136 81.2719 48.9706 79.4356 46.1567C77.5993 43.363 79.0023 40.2251 79.0023 40.2251C79.0023 40.2251 81.9734 40.8122 83.8509 43.7071C85.7285 46.5818 84.4699 49.2136 84.4699 49.2136Z" fill="#C36600"/>
<path d="M84.1399 52.9185C85.6255 56.0159 84.0161 58.4857 84.0161 58.4857C84.0161 58.4857 80.88 57.8176 79.4357 54.8215C77.9915 51.8051 79.8071 48.8899 79.8071 48.8899C79.8071 48.8899 82.6544 49.8414 84.1399 52.9185Z" fill="#C36600"/>
<path d="M76.9179 55.4082C76.9179 55.4082 79.6826 56.6431 80.8587 59.8417C82.0347 63.0606 80.1984 65.3684 80.1984 65.3684C80.1984 65.3684 77.1448 64.4169 75.9894 61.2993C74.834 58.1614 76.9179 55.4082 76.9179 55.4082Z" fill="#C36600"/>
<path d="M74.6062 72.3325C74.6062 72.3325 71.9446 70.551 71.7796 67.2309C71.5939 63.9109 74.3999 61.8662 74.3999 61.8662C74.3999 61.8662 76.6901 63.8299 76.8551 67.2309C77.0408 70.632 74.6062 72.3325 74.6062 72.3325Z" fill="#C36600"/>
<path d="M85.4608 41.3993C85.4608 41.3993 82.6342 40.4681 81.8089 37.148C80.963 33.8279 82.5723 31.3176 82.5723 31.3176C82.5723 31.3176 85.8528 32.4918 86.6575 35.7106C87.4828 38.9497 85.4608 41.3993 85.4608 41.3993Z" fill="#C36600"/>
<path d="M89.5466 54.6188C89.5466 54.6188 88.4944 51.8858 90.5989 49.1528C92.6828 46.4401 95.6745 46.0757 95.6745 46.0757C95.6745 46.0757 96.8299 49.3148 94.7873 51.9668C92.7447 54.6188 89.5466 54.6188 89.5466 54.6188Z" fill="#C36600"/>
<path d="M87.1948 61.8461C87.1948 61.8461 86.7821 58.9511 89.4437 56.7445C92.1053 54.5379 95.1176 54.8415 95.1176 54.8415C95.1176 54.8415 95.5096 58.2426 92.91 60.3885C90.3309 62.5344 87.1948 61.8461 87.1948 61.8461Z" fill="#C36600"/>
<path d="M83.625 67.8179C83.625 67.8179 84.1202 64.9432 87.3389 63.6274C90.5575 62.3115 93.3223 63.5059 93.3223 63.5059C93.3223 63.5059 92.6414 66.8664 89.5053 68.1418C86.3898 69.4172 83.625 67.8179 83.625 67.8179Z" fill="#C36600"/>
<path d="M82.0568 70.3081C85.3992 69.3971 88.0195 70.875 88.0195 70.875C88.0195 70.875 86.9466 74.1343 83.6661 75.025C80.4062 75.9158 77.8477 74.0128 77.8477 74.0128C77.8477 74.0128 78.7143 71.2191 82.0568 70.3081Z" fill="#C36600"/>
<path d="M85.1097 43.3628L86.5954 42.6543C86.6779 42.8163 94.3333 58.789 72.8116 76.8469L71.7386 75.612C92.2286 58.4044 85.4192 43.9702 85.1097 43.3628Z" fill="#C36600"/>
</svg>
