<svg width="60" height="60" viewBox="0 0 60 60" fill="none" xmlns="http://www.w3.org/2000/svg">
<circle cx="30" cy="30" r="30" fill="white"/>
<rect x="15" y="17.1992" width="2" height="40" rx="1" transform="rotate(-45 15 17.1992)" fill="#3531B3"/>
<mask id="path-3-inside-1_2_20555" fill="white">
<path fill-rule="evenodd" clip-rule="evenodd" d="M35.7653 35.1793C34.3465 36.7575 32.2892 37.75 30 37.75C25.7198 37.75 22.25 34.2802 22.25 30C22.25 29.3096 21.6904 28.75 21 28.75C20.3096 28.75 19.75 29.3096 19.75 30C19.75 35.3238 23.8088 39.6997 29.0009 40.2019C29.0003 40.2179 29 40.2339 29 40.25V44.75C29 45.4404 29.5596 46 30.25 46C30.9404 46 31.5 45.4404 31.5 44.75V40.25C31.5 40.2135 31.4984 40.1774 31.4954 40.1417C33.8706 39.7945 35.9814 38.6327 37.5349 36.949L35.7653 35.1793ZM38.7522 35.3378C39.7024 33.7831 40.25 31.9555 40.25 30C40.25 29.3096 39.6904 28.75 39 28.75C38.3096 28.75 37.75 29.3096 37.75 30C37.75 31.26 37.4493 32.4497 36.9158 33.5014L38.7522 35.3378Z"/>
</mask>
<path fill-rule="evenodd" clip-rule="evenodd" d="M35.7653 35.1793C34.3465 36.7575 32.2892 37.75 30 37.75C25.7198 37.75 22.25 34.2802 22.25 30C22.25 29.3096 21.6904 28.75 21 28.75C20.3096 28.75 19.75 29.3096 19.75 30C19.75 35.3238 23.8088 39.6997 29.0009 40.2019C29.0003 40.2179 29 40.2339 29 40.25V44.75C29 45.4404 29.5596 46 30.25 46C30.9404 46 31.5 45.4404 31.5 44.75V40.25C31.5 40.2135 31.4984 40.1774 31.4954 40.1417C33.8706 39.7945 35.9814 38.6327 37.5349 36.949L35.7653 35.1793ZM38.7522 35.3378C39.7024 33.7831 40.25 31.9555 40.25 30C40.25 29.3096 39.6904 28.75 39 28.75C38.3096 28.75 37.75 29.3096 37.75 30C37.75 31.26 37.4493 32.4497 36.9158 33.5014L38.7522 35.3378Z" fill="#3531B3"/>
<path d="M35.7653 35.1793L36.4724 34.4722L35.7266 33.7265L35.0216 34.5108L35.7653 35.1793ZM29.0009 40.2019L30.0002 40.2397L30.0358 39.2974L29.0972 39.2066L29.0009 40.2019ZM31.4954 40.1417L31.3507 39.1522L30.4185 39.2885L30.499 40.2272L31.4954 40.1417ZM37.5349 36.949L38.2699 37.6271L38.9213 36.9211L38.242 36.2419L37.5349 36.949ZM38.7522 35.3378L38.0451 36.0449L38.9431 36.943L39.6054 35.8593L38.7522 35.3378ZM36.9158 33.5014L36.024 33.049L35.6959 33.6958L36.2087 34.2085L36.9158 33.5014ZM35.0216 34.5108C33.7845 35.8869 31.9937 36.75 30 36.75V38.75C32.5846 38.75 34.9086 37.6281 36.5089 35.8479L35.0216 34.5108ZM30 36.75C26.2721 36.75 23.25 33.7279 23.25 30H21.25C21.25 34.8325 25.1675 38.75 30 38.75V36.75ZM23.25 30C23.25 28.7574 22.2426 27.75 21 27.75V29.75C21.1381 29.75 21.25 29.8619 21.25 30H23.25ZM21 27.75C19.7574 27.75 18.75 28.7574 18.75 30H20.75C20.75 29.8619 20.8619 29.75 21 29.75V27.75ZM18.75 30C18.75 35.8438 23.2049 40.6459 28.9046 41.1973L29.0972 39.2066C24.4127 38.7534 20.75 34.8039 20.75 30H18.75ZM28.0016 40.1642C28.0005 40.1926 28 40.2213 28 40.25H30C30 40.2465 30.0001 40.2431 30.0002 40.2397L28.0016 40.1642ZM28 40.25V44.75H30V40.25H28ZM28 44.75C28 45.9926 29.0074 47 30.25 47V45C30.1119 45 30 44.8881 30 44.75H28ZM30.25 47C31.4926 47 32.5 45.9926 32.5 44.75H30.5C30.5 44.8881 30.3881 45 30.25 45V47ZM32.5 44.75V40.25H30.5V44.75H32.5ZM32.5 40.25C32.5 40.1848 32.4972 40.1202 32.4917 40.0562L30.499 40.2272C30.4997 40.2346 30.5 40.2422 30.5 40.25H32.5ZM31.64 41.1312C34.2493 40.7498 36.5662 39.4736 38.2699 37.6271L36.8 36.2709C35.3966 37.7918 33.492 38.8392 31.3507 39.1522L31.64 41.1312ZM38.242 36.2419L36.4724 34.4722L35.0582 35.8864L36.8278 37.6561L38.242 36.2419ZM39.6054 35.8593C40.6489 34.152 41.25 32.1447 41.25 30H39.25C39.25 31.7663 38.7559 33.4141 37.8989 34.8163L39.6054 35.8593ZM41.25 30C41.25 28.7574 40.2426 27.75 39 27.75V29.75C39.1381 29.75 39.25 29.8619 39.25 30H41.25ZM39 27.75C37.7574 27.75 36.75 28.7574 36.75 30H38.75C38.75 29.8619 38.8619 29.75 39 29.75V27.75ZM36.75 30C36.75 31.0992 36.488 32.1343 36.024 33.049L37.8076 33.9538C38.4106 32.7652 38.75 31.4208 38.75 30H36.75ZM36.2087 34.2085L38.0451 36.0449L39.4593 34.6307L37.6229 32.7943L36.2087 34.2085Z" fill="#3531B3" mask="url(#path-3-inside-1_2_20555)"/>
<path fill-rule="evenodd" clip-rule="evenodd" d="M24 23.4136V29C24 32.3137 26.6863 35 30 35C31.5516 35 32.9657 34.411 34.0308 33.4444L24 23.4136ZM35.2755 31.8606C35.7375 31.0103 36 30.0358 36 29V21C36 17.6863 33.3137 15 30 15C26.8213 15 24.2199 17.4719 24.0132 20.5984L35.2755 31.8606Z" fill="#3531B3"/>
</svg>
