<svg width="24" height="24" viewBox="0 0 24 24" fill="none" xmlns="http://www.w3.org/2000/svg">
<path d="M16.5625 5.25V5.75H17.0625H18.75C18.7844 5.75 18.8125 5.77814 18.8125 5.8125V20.4375C18.8125 20.4719 18.7844 20.5 18.75 20.5H6.9375C5.97277 20.5 5.1875 19.7147 5.1875 18.75V4.6875C5.1875 4.03327 5.72077 3.5 6.375 3.5H16.5C16.5344 3.5 16.5625 3.52814 16.5625 3.5625V5.25ZM15.9375 5.75H16.4375V5.25V4.125V3.625H15.9375H6.375C5.78836 3.625 5.3125 4.10086 5.3125 4.6875C5.3125 5.27414 5.78836 5.75 6.375 5.75H15.9375ZM15.375 18.125C15.9616 18.125 16.4375 17.6491 16.4375 17.0625V15.9375C16.4375 14.11 14.9525 12.625 13.125 12.625H10.875C9.04874 12.625 7.5625 14.1099 7.5625 15.9375V17.0625C7.5625 17.6491 8.03836 18.125 8.625 18.125H15.375ZM12 7C10.483 7 9.25 8.23298 9.25 9.75C9.25 11.267 10.483 12.5 12 12.5C13.517 12.5 14.75 11.267 14.75 9.75C14.75 8.23298 13.517 7 12 7Z" fill="#FF8500" stroke="#FF8500"/>
</svg>
