<svg width="24" height="24" viewBox="0 0 24 24" fill="none" xmlns="http://www.w3.org/2000/svg">
<path fill-rule="evenodd" clip-rule="evenodd" d="M16.75 3C16.75 2.58579 16.4142 2.25 16 2.25C15.5858 2.25 15.25 2.58579 15.25 3V4.25H8.75V3C8.75 2.58579 8.41421 2.25 8 2.25C7.58579 2.25 7.25 2.58579 7.25 3V4.25H5.77778C4.38172 4.25 3.25 5.38172 3.25 6.77778V10.2V19.2222C3.25 20.6183 4.38172 21.75 5.77778 21.75H18.2222C19.6183 21.75 20.75 20.6183 20.75 19.2222V10.2V6.77778C20.75 5.38172 19.6183 4.25 18.2222 4.25H16.75V3ZM19.25 9.45V6.77778C19.25 6.21015 18.7898 5.75 18.2222 5.75H16.75V7C16.75 7.41421 16.4142 7.75 16 7.75C15.5858 7.75 15.25 7.41421 15.25 7V5.75H8.75V7C8.75 7.41421 8.41421 7.75 8 7.75C7.58579 7.75 7.25 7.41421 7.25 7V5.75H5.77778C5.21015 5.75 4.75 6.21015 4.75 6.77778V9.45H19.25ZM4.75 10.95H19.25V19.2222C19.25 19.7898 18.7898 20.25 18.2222 20.25H5.77778C5.21015 20.25 4.75 19.7898 4.75 19.2222V10.95Z" fill="white"/>
</svg>
