<svg width="60" height="60" viewBox="0 0 60 60" fill="none" xmlns="http://www.w3.org/2000/svg">
<circle cx="30" cy="30" r="30" fill="white"/>
<rect x="15" y="17.1992" width="2" height="40" rx="1" transform="rotate(-45 15 17.1992)" fill="#3531B3"/>
<path fill-rule="evenodd" clip-rule="evenodd" d="M22.9888 22.4023H22C20.2051 22.4023 18.75 23.8574 18.75 25.6523V35.9998C18.75 37.7947 20.2051 39.2498 22 39.2498H36.7067C37.5735 39.2498 38.3611 38.9105 38.9438 38.3574L37.1734 36.587C37.0453 36.6889 36.8831 36.7498 36.7067 36.7498H22C21.5858 36.7498 21.25 36.414 21.25 35.9998V25.6523C21.25 25.2381 21.5858 24.9023 22 24.9023H25.4888L22.9888 22.4023ZM37.4567 34.0419V25.6523C37.4567 25.2381 37.1209 24.9023 36.7067 24.9023H28.3172L25.8172 22.4023H36.7067C38.5016 22.4023 39.9567 23.8574 39.9567 25.6523V35.9998C39.9567 36.171 39.9435 36.3391 39.918 36.5031L37.4567 34.0419Z" fill="#3531B3"/>
<path d="M37.9824 27.235C37.9824 26.8407 38.2141 26.4832 38.574 26.3222L44.5912 23.6301C45.2527 23.3341 45.9996 23.8182 45.9996 24.5429V35.9074C45.9996 36.6048 45.3037 37.088 44.6502 36.8444L38.6331 34.601C38.2418 34.4551 37.9824 34.0816 37.9824 33.664L37.9824 27.235Z" fill="#3531B3"/>
</svg>
