<svg width="100" height="94" viewBox="0 0 100 94" fill="none" xmlns="http://www.w3.org/2000/svg">
<path d="M85.3972 55.4836C85.3972 73.2853 66.097 88.9999 47.2176 88.9999C28.3984 88.9999 10 73.2853 10 55.4836C10 37.6205 28.3984 17.6089 47.2176 17.6089C66.097 17.6089 85.3972 37.6205 85.3972 55.4836Z" fill="#168BC3"/>
<path d="M19.9485 32.4811C20.3426 33.8519 20.8895 35.1737 21.5812 36.4139L19.6107 38.9352C18.9673 39.7593 19.0397 40.9343 19.7635 41.6768L23.1576 45.1201C23.8895 45.8626 25.0477 45.9278 25.86 45.275L28.3291 43.2923C29.5999 44.0349 30.9511 44.6141 32.3586 45.0221L32.7286 48.245C32.8492 49.2895 33.7178 50.0728 34.7473 50.0728H39.5489C40.5784 50.0728 41.447 49.2894 41.5676 48.245L41.9215 45.1363C43.4336 44.7365 44.8813 44.1408 46.2405 43.3657L48.6292 45.2832C49.4416 45.9359 50.5997 45.8625 51.3316 45.1281L54.7257 41.6849C55.4576 40.9423 55.5219 39.7674 54.8785 38.9433L53.0206 36.5526C53.7927 35.198 54.3959 33.7539 54.7981 32.2444L57.6613 31.9098C58.6909 31.7874 59.4629 30.9062 59.4629 29.8618V24.9906C59.4629 23.9462 58.6908 23.065 57.6613 22.9426L54.8383 22.6081C54.4522 21.1149 53.8732 19.687 53.1333 18.3488L54.8705 16.1213C55.514 15.2972 55.4416 14.1223 54.7177 13.3797L51.3317 9.94462C50.5998 9.20211 49.4416 9.13684 48.6293 9.78959L46.498 11.5031C45.1146 10.679 43.6346 10.0507 42.0824 9.6264L41.7607 6.82772C41.6401 5.78331 40.7715 5 39.742 5H34.9404C33.9109 5 33.0423 5.78331 32.9217 6.82772L32.5999 9.6264C31.0075 10.0589 29.4874 10.7116 28.0718 11.5684L25.8601 9.78959C25.0477 9.13684 23.8896 9.21027 23.1577 9.94462L19.7636 13.3879C19.0317 14.1304 18.9674 15.3054 19.6108 16.1295L21.4606 18.5039C20.7207 19.8583 20.1577 21.3026 19.7877 22.8039L16.828 23.1466C15.7985 23.269 15.0264 24.1502 15.0264 25.1946V30.0658C15.0264 31.1102 15.7985 31.9914 16.828 32.1138L19.9485 32.4811ZM37.3451 19.3036C41.7204 19.3036 45.2834 22.9182 45.2834 27.357C45.2834 31.7957 41.7204 35.4103 37.3451 35.4103C32.9699 35.4103 29.4069 31.7957 29.4069 27.357C29.4069 22.9182 32.9698 19.3036 37.3451 19.3036Z" fill="#0372A8"/>
<path d="M84.814 33.6805L82.2805 31.5101C81.5005 30.841 80.3503 30.8737 79.6104 31.5835L78.2109 32.9135C77.0287 32.3342 75.774 31.9262 74.4791 31.6896L74.0851 29.7313C73.8841 28.7196 72.9591 28.0179 71.9456 28.0995L68.64 28.385C67.6266 28.4748 66.8303 29.3152 66.7982 30.3515L66.7339 32.3424C65.4631 32.8075 64.2647 33.4439 63.1708 34.2435L61.498 33.1175C60.6453 32.5464 59.5114 32.7095 58.8519 33.501L56.7125 36.0876C56.0529 36.879 56.0851 38.0458 56.7848 38.7965L58.2486 40.3793C57.7419 41.538 57.3799 42.7538 57.1709 44.0021L55.0798 44.4346C54.0824 44.6386 53.3908 45.5769 53.4712 46.6051L53.7527 49.9586C53.8412 50.9867 54.6696 51.7945 55.691 51.8271L57.9511 51.9005C58.3614 52.9938 58.9002 54.0302 59.5516 55.0011L58.2889 56.9348C57.7259 57.7997 57.8868 58.9502 58.6669 59.6193L61.2004 61.7897C61.9806 62.4588 63.1306 62.4262 63.8707 61.7163L65.5275 60.1415C66.6133 60.6556 67.7553 61.039 68.9295 61.2675L69.388 63.5685C69.5891 64.5802 70.514 65.282 71.5274 65.2004L74.833 64.9148C75.8464 64.825 76.6427 63.9847 76.6748 62.9484L76.7472 60.6963C77.9537 60.2638 79.0957 59.6763 80.1493 58.9502L81.9751 60.1741C82.8276 60.7453 83.9616 60.5821 84.6212 59.7907L86.7606 57.2204C87.42 56.429 87.3878 55.2622 86.6882 54.5115L85.2162 52.9286C85.7552 51.77 86.1494 50.5461 86.3744 49.2894L88.3851 48.8733C89.3824 48.6693 90.0741 47.731 89.9937 46.7028L89.7122 43.3493C89.6237 42.3212 88.7953 41.5134 87.7739 41.4808L85.7551 41.4155C85.3368 40.2242 84.7738 39.0983 84.0742 38.0538L85.176 36.373C85.7551 35.5082 85.5943 34.3496 84.814 33.6805ZM72.3558 53.0673C68.7848 53.3774 65.6319 50.6766 65.3344 47.0538C65.0287 43.4311 67.691 40.2325 71.2619 39.9306C74.8329 39.6205 77.9858 42.3214 78.2833 45.9441C78.589 49.567 75.9267 52.7655 72.3558 53.0673Z" fill="#0372A8"/>
<path d="M31.5135 62.0918C30.5001 62.1978 29.7199 63.0627 29.7119 64.099L29.6878 66.1633C29.6717 67.1996 30.4277 68.0808 31.4411 68.2114L32.9371 68.4072C33.1864 69.3293 33.5403 70.2105 33.9987 71.0428L33.0336 72.2504C32.3901 73.0581 32.4384 74.2168 33.1542 74.9593L34.5778 76.4362C35.2936 77.1787 36.4357 77.2603 37.248 76.6238L38.4463 75.6855C39.2908 76.1914 40.1836 76.5913 41.1165 76.8686L41.2774 78.4352C41.3819 79.4633 42.2345 80.2548 43.2559 80.2629L45.2908 80.2874C46.3122 80.3037 47.1809 79.5367 47.3096 78.5086L47.4946 77.0236C48.5081 76.7706 49.4732 76.3872 50.39 75.8813L51.516 76.8033C52.3122 77.4561 53.4544 77.4071 54.1863 76.6809L55.642 75.2367C56.3739 74.5106 56.4544 73.3519 55.8271 72.5278L54.9664 71.3935C55.4972 70.496 55.9075 69.5413 56.189 68.5377L57.5241 68.399C58.5375 68.2929 59.3175 67.428 59.3257 66.3918L59.3497 64.3274C59.3659 63.2912 58.6098 62.4099 57.5965 62.2794L56.2934 62.108C56.0441 61.1126 55.6742 60.1497 55.1916 59.2522L56.004 58.2404C56.6474 57.4326 56.5991 56.274 55.8833 55.5315L54.4598 54.0546C53.744 53.312 52.6018 53.2305 51.7895 53.867L50.8163 54.6258C49.8995 54.0628 48.9182 53.6303 47.8888 53.3366L47.76 52.0556C47.6554 51.0274 46.803 50.236 45.7815 50.2279L43.7466 50.2034C42.7252 50.1871 41.8566 50.954 41.7278 51.9821L41.5669 53.2551C40.5054 53.5324 39.4839 53.9568 38.5349 54.5116L37.5295 53.6793C36.7333 53.0265 35.5911 53.0756 34.8592 53.8017L33.3954 55.2542C32.6635 55.9803 32.5831 57.139 33.2104 57.963L34.071 59.0891C33.5724 59.9866 33.1783 60.9412 32.9209 61.9449L31.5135 62.0918ZM44.6474 59.7581C47.567 59.7907 49.9073 62.2305 49.8753 65.1924C49.8431 68.1542 47.4382 70.5286 44.5186 70.496C41.5991 70.4634 39.2587 68.0237 39.2908 65.0617C39.3231 62.0999 41.7279 59.7255 44.6474 59.7581Z" fill="#0372A8"/>
<path d="M60.4791 17.3886C59.4624 17.2753 58.4362 17.2103 57.3915 17.2504C49.247 17.5483 42.112 22.4579 38.15 26.9548L38.1484 49.1791L39.5307 49.3381C43.6977 49.8202 46.5818 51.1643 48.1054 53.3355C49.789 55.7352 49.3402 58.5493 49.1632 59.356C48.5733 62.0358 50.1307 64.7638 52.799 65.2851C54.3071 65.5782 55.823 65.7231 57.3279 65.7231C58.3877 65.7231 59.4372 65.6257 60.4792 65.4847C72.2605 63.8896 81.3573 53.7219 81.2603 41.3434C81.1538 28.1808 70.6723 18.5232 60.4791 17.3886Z" fill="#FFB70A"/>
<path d="M62.9199 35.8352C61.0608 33.9461 61.0608 30.8751 62.9183 28.9875C64.782 27.0999 67.8075 27.0999 69.6681 28.9875C71.5288 30.8751 71.5288 33.9461 69.6681 35.8336V35.8352C67.8078 37.7195 64.7806 37.7197 62.9199 35.8352Z" fill="#168BC3"/>
<path d="M49.3983 30.3203C48.7214 27.7696 50.1979 25.0924 52.7717 24.3943C55.3063 23.7058 57.9327 25.2373 58.6144 27.8165C59.2976 30.3968 57.7903 33.0517 55.2411 33.744C52.6862 34.4387 50.0784 32.9008 49.3983 30.3203Z" fill="#3531B3"/>
<path d="M43.7733 42.872C41.2309 42.1802 39.7181 39.5206 40.3998 36.9445C41.0773 34.3736 43.6823 32.8249 46.2411 33.5223C48.7897 34.2135 50.3006 36.864 49.616 39.4497C48.9317 42.0435 46.3097 43.5613 43.7733 42.872Z" fill="#B22DA4"/>
<path d="M68.3537 49.5526C65.8118 48.8624 64.2944 46.2157 64.9804 43.6251C65.6642 41.0333 68.2867 39.5126 70.8231 40.2029C73.3655 40.8946 74.8783 43.5542 74.1964 46.1304C73.5151 48.7161 70.8962 50.2464 68.3537 49.5526Z" fill="#FF8500"/>
<path d="M20.6404 25.6302C24.4494 24.5948 29.082 38.8896 32.2741 50.9753C32.4175 51.5185 32.5424 52.0188 32.6748 52.5368L29.833 54.9796L28.4887 55.345L26.3125 55.9366L23.4786 55.0366C23.3383 54.5205 23.2026 54.0328 23.0569 53.4809C19.8648 41.395 16.8315 26.6656 20.6404 25.6302Z" fill="#C36600"/>
<path d="M28.078 53.7867L32.6758 52.5369C34.4412 59.4438 35.2476 64.0772 35.3358 64.4998L31.2042 65.6229L27.0727 66.7459C26.8313 65.996 25.4295 62.2134 23.4796 55.0367L28.078 53.7867Z" fill="#FFF7E6"/>
<path d="M30.5466 63.1376C33.9356 62.2164 37.4298 64.2631 38.3379 67.7011L39.1611 70.8181C39.615 72.5363 41.4929 73.6363 43.1866 73.1759L44.0099 76.2928L37.7627 77.991C36.6801 78.2853 35.5966 78.3387 34.5386 78.2519C30.6291 77.9311 27.1201 75.0999 26.0483 71.0419C25.1402 67.6038 27.1577 64.0589 30.5466 63.1376Z" fill="#474F54"/>
<path d="M60.4782 59.2852C63.1132 59.2852 65.2494 57.1181 65.2494 54.4448C65.2494 51.7716 63.1132 49.6045 60.4782 49.6045C57.8432 49.6045 55.707 51.7716 55.707 54.4448C55.707 57.1181 57.8432 59.2852 60.4782 59.2852Z" fill="#FFF7E6"/>
</svg>
