<svg width="360" height="297" viewBox="0 0 360 297" fill="none" xmlns="http://www.w3.org/2000/svg">
<g clip-path="url(#clip0_1_4976)">
<path d="M285.736 136.581C279.285 135.9 274.615 130.806 274.021 125.336C273.902 124.159 274.193 121.158 274.291 120.296C275.053 113.348 281.048 110.614 288.394 111.409C295.789 112.187 301.386 116.334 300.641 123.249C300.543 124.194 299.838 127.197 299.525 128.076C297.632 133.551 292.087 137.295 285.736 136.581Z" fill="#FF9A2E"/>
<path d="M289.788 133.007C289.622 133.007 289.49 133.107 289.457 133.256L289.117 136.523C289.332 136.506 289.515 136.472 289.747 136.422L290.087 133.321C290.087 133.155 289.987 133.023 289.788 133.007Z" fill="#EF7F18"/>
<path d="M293.648 131.986C293.483 131.986 293.35 132.086 293.317 132.235L292.993 135.386C293.209 135.286 293.424 135.186 293.623 135.036L293.914 132.284C293.897 132.151 293.798 132.019 293.648 131.986Z" fill="#EF7F18"/>
<path d="M296.016 130.72C295.85 130.72 295.718 130.82 295.685 130.97L295.36 133.872C295.575 133.689 295.791 133.506 296.006 133.323L296.265 131.051C296.315 130.869 296.182 130.72 296.016 130.72Z" fill="#EF7F18"/>
<path d="M285.676 132.701C285.51 132.702 285.378 132.802 285.345 132.951L284.956 136.483C285.154 136.499 285.337 136.548 285.536 136.564L285.925 133.032C285.958 132.883 285.825 132.734 285.676 132.701Z" fill="#EF7F18"/>
<path d="M282.276 132.047C282.111 132.047 281.978 132.147 281.945 132.296L281.605 135.48C281.804 135.579 281.987 135.628 282.186 135.727L282.542 132.344C282.575 132.195 282.442 132.046 282.276 132.047Z" fill="#EF7F18"/>
<path d="M279.687 130.76C279.521 130.76 279.388 130.86 279.356 131.009L279.048 133.961C279.23 134.093 279.413 134.225 279.596 134.357L279.953 131.058C279.985 130.908 279.852 130.759 279.687 130.76Z" fill="#EF7F18"/>
<path d="M277.146 129.042C276.981 129.042 276.848 129.142 276.816 129.291L276.572 131.53C276.755 131.745 276.938 131.96 277.088 132.159L277.412 129.34C277.412 129.174 277.312 129.042 277.146 129.042Z" fill="#EF7F18"/>
<path d="M274.306 120.104C273.546 127.189 278.838 133.565 286.126 134.347C293.413 135.129 299.937 130.02 300.697 122.936C301.457 115.851 296.165 109.475 288.878 108.693C281.59 107.911 275.066 113.02 274.306 120.104Z" fill="#FFCB48"/>
<path d="M279.472 118.586C279.074 119.022 279.104 119.682 279.54 120.08C279.976 120.478 280.635 120.448 281.034 120.012L282.451 118.461L283.698 119.6L283.459 122.916C283.439 123.326 283.505 123.702 283.859 124.026C284.235 124.369 284.859 124.418 285.257 123.982C285.48 123.739 285.526 123.484 285.55 123.152L285.67 120.843C286.856 121.276 288.034 121.106 289.062 119.98L289.081 119.96C289.702 119.28 289.99 118.558 289.955 117.782C289.913 116.87 289.446 115.996 288.544 115.172L286.08 112.921C285.644 112.522 284.984 112.552 284.586 112.988L279.472 118.586ZM283.711 117.082L285.573 115.044L287.124 116.461C287.895 117.165 288.046 117.916 287.425 118.596L287.406 118.616C286.851 119.224 286.063 119.231 285.293 118.527L283.711 117.082Z" fill="#FF931C"/>
<path d="M284.944 126.579C284.545 127.015 284.574 127.655 285.01 128.054C285.446 128.452 286.087 128.423 286.485 127.987L287.967 126.365C287.934 127.134 288.098 127.973 288.919 128.723C290.207 129.899 292.301 129.989 293.96 128.174L293.978 128.154C295.636 126.339 295.337 124.243 294.07 123.085C293.259 122.344 292.418 122.246 291.571 122.42L291.635 122.349C292.034 121.913 292.005 121.273 291.569 120.874C291.133 120.476 290.492 120.505 290.094 120.941L284.944 126.579ZM289.719 127.054C288.999 126.396 288.947 125.251 289.772 124.349L289.79 124.328C290.615 123.426 291.759 123.374 292.479 124.032C293.199 124.689 293.261 125.844 292.437 126.746L292.418 126.766C291.585 127.679 290.439 127.711 289.719 127.054Z" fill="#FF931C"/>
<path d="M234.035 37.8474C238.8 46.0394 236.825 55.9429 230.889 61.363C229.604 62.5187 225.815 64.7659 224.714 65.3953C215.865 70.4933 207.469 65.7852 202.065 56.4393C196.599 47.0491 196.659 36.8713 205.454 31.7826C206.652 31.0814 210.801 29.322 212.108 28.9318C220.196 26.4381 229.395 29.7437 234.035 37.8474Z" fill="#FF9A2E"/>
<path d="M226.323 36.1541C226.467 36.3492 226.698 36.4191 226.903 36.3289L231.048 33.9106C230.841 33.6714 230.644 33.4855 230.385 33.2554L226.435 35.5302C226.24 35.6737 226.17 35.9056 226.323 36.1541Z" fill="#EF7F18"/>
<path d="M221.788 32.484C221.932 32.6791 222.164 32.749 222.368 32.6589L226.362 30.3215C226.058 30.154 225.755 29.9865 225.407 29.8816L221.91 31.9135C221.768 32.0478 221.698 32.2797 221.788 32.484Z" fill="#EF7F18"/>
<path d="M218.253 30.7852C218.396 30.9803 218.628 31.0503 218.833 30.9601L222.534 28.8381C222.133 28.7424 221.731 28.6467 221.33 28.5509L218.428 30.2055C218.17 30.3049 218.109 30.5901 218.253 30.7852Z" fill="#EF7F18"/>
<path d="M229.513 41.2654C229.656 41.4605 229.888 41.5304 230.093 41.4402L234.593 38.8508C234.44 38.6023 234.34 38.3446 234.188 38.0962L229.688 40.6856C229.483 40.7758 229.423 41.0611 229.513 41.2654Z" fill="#EF7F18"/>
<path d="M231.675 45.8385C231.819 46.0336 232.051 46.1035 232.255 46.0133L236.302 43.6668C236.247 43.3466 236.148 43.0889 236.093 42.7687L231.797 45.2679C231.593 45.3581 231.532 45.6434 231.675 45.8385Z" fill="#EF7F18"/>
<path d="M232.393 50.0019C232.536 50.197 232.768 50.2669 232.973 50.1768L236.718 47.9922C236.716 47.6627 236.714 47.3333 236.712 47.0039L232.514 49.4314C232.31 49.5215 232.249 49.8068 232.393 50.0019Z" fill="#EF7F18"/>
<path d="M232.561 54.4797C232.704 54.6748 232.936 54.7447 233.14 54.6545L235.989 53.0092C236.085 52.608 236.181 52.2067 236.286 51.8589L232.682 53.9091C232.487 54.0527 232.417 54.2846 232.561 54.4797Z" fill="#EF7F18"/>
<path d="M224.476 65.5423C233.483 60.3241 236.434 48.5821 231.065 39.3158C225.697 30.0495 214.043 26.7679 205.036 31.9861C196.029 37.2044 193.078 48.9464 198.447 58.2127C203.815 67.479 215.468 70.7606 224.476 65.5423Z" fill="#FFCB48"/>
<path d="M206.93 59.1683C207.339 59.928 208.263 60.2051 209.023 59.796C209.782 59.3868 210.06 58.4626 209.65 57.7029L208.195 54.9998L210.368 53.8294L214.826 55.7588C215.38 55.9843 215.931 56.0753 216.549 55.7423C217.203 55.3902 217.572 54.5529 217.163 53.7933C216.935 53.3692 216.606 53.1817 216.16 52.9888L213.033 51.7102C214.201 50.283 214.535 48.576 213.479 46.6149L213.46 46.5796C212.823 45.3959 211.965 44.6499 210.878 44.3238C209.6 43.9407 208.17 44.1637 206.598 45.0106L202.305 47.323C201.545 47.7321 201.268 48.6563 201.677 49.416L206.93 59.1683ZM206.9 52.5971L204.988 49.046L207.691 47.5901C209.034 46.8669 210.143 47.0217 210.78 48.2054L210.799 48.2407C211.37 49.3007 210.999 50.3894 209.657 51.1126L206.9 52.5971Z" fill="#FF931C"/>
<path d="M220.593 55.4787C221.002 56.2384 221.899 56.5074 222.659 56.0982C223.419 55.689 223.688 54.792 223.278 54.0323L221.756 51.2056C222.801 51.6227 224.037 51.8006 225.468 51.0298C227.711 49.8213 228.846 46.9766 227.143 43.8142L227.123 43.7788C225.42 40.6164 222.385 40.0174 220.177 41.2069C218.763 41.9681 218.223 43.0799 218.054 44.333L217.988 44.2094C217.579 43.4497 216.681 43.1807 215.922 43.5898C215.162 43.999 214.893 44.8961 215.302 45.6557L220.593 55.4787ZM223.551 49.1218C222.297 49.7975 220.693 49.3165 219.846 47.7442L219.827 47.7088C218.98 46.1364 219.461 44.5327 220.715 43.857C221.97 43.1814 223.591 43.6528 224.438 45.2252L224.457 45.2605C225.314 46.8506 224.805 48.4462 223.551 49.1218Z" fill="#FF931C"/>
<path d="M284.002 49.7711L300.286 34.7529L301.564 32.8481C303.682 29.4513 304.97 26.3979 304.142 19.5693C303.342 12.9217 295.015 3.50513 295.015 3.50513C295.015 3.50513 293.69 9.48854 288.176 15.8351C282.663 22.1817 279.584 23.5958 279.584 23.5958C279.584 23.5958 286.008 28.9955 286.926 34.4294C288.085 41.2036 284.002 49.7711 284.002 49.7711Z" fill="#089531"/>
<path d="M288.443 41.4263C288.452 41.4056 288.531 41.2354 288.645 40.9322C290.275 41.0913 294.989 39.1128 294.989 39.1128L297.22 36.9959L297.997 37.4589C302.477 31.0546 304.079 25.1608 302.765 19.9357C302.114 17.3533 300.8 14.5003 298.862 11.4611C297.425 9.20507 296.187 7.72462 296.139 7.66089L295.49 6.88902L294.979 7.7602C294.951 7.81196 291.828 13.1224 289.804 15.7212C287.064 19.2453 282.23 23.0091 282.181 23.0516L281.563 23.5328L282.097 24.1021C282.129 24.1311 285.111 27.3338 286.734 30.7149C287.811 32.9507 288.211 35.3313 287.921 37.7864C287.707 39.6313 287.159 40.8278 287.149 40.8383L288.443 41.4263ZM288.019 30.0894C286.699 27.3479 284.613 24.7955 283.648 23.693C285.059 22.5514 288.634 19.5434 290.927 16.5894C292.513 14.5502 294.676 11.02 295.672 9.36981C297.034 11.1687 300.238 15.7226 301.389 20.292C302.354 24.1459 301.809 28.6803 299.362 33.4464C299.346 31.4189 297.997 29.3311 294.849 31.6534C292.021 33.7449 290.373 35.7765 289.38 37.4772C289.537 35.5993 289.388 32.935 288.019 30.0894Z" fill="#333333" fill-opacity="0.8"/>
<path d="M293.71 25.0047C294.511 24.2933 294.773 23.2808 294.296 22.7445C293.82 22.2082 292.784 22.3529 291.983 23.0643C291.182 23.7757 290.92 24.7882 291.397 25.3245C291.874 25.8608 292.91 25.7161 293.71 25.0047Z" fill="#333333" fill-opacity="0.8"/>
<path d="M301.564 32.8483C301.564 32.8483 298.844 37.2667 288.232 39.0936C281.457 40.2635 265.202 38.3825 265.202 38.3825C265.202 38.3825 266.451 42.6139 265.632 47.7516C264.301 56.1023 262.472 60.018 262.472 60.018C262.472 60.018 270.741 60.8944 277.306 57.2955C293.139 48.6185 301.564 32.8483 301.564 32.8483Z" fill="#0EAE3D"/>
<path d="M265.146 59.0964C265.433 59.0793 272.311 58.684 278.303 56.2876C279.179 55.9372 280.068 55.5407 280.956 55.1039C283.325 53.5527 285.497 51.8581 287.475 50.121C288.785 49.1303 290.236 47.8605 292.618 45.2416C295.495 42.086 297.873 38.6176 297.873 38.6176C298.544 37.6992 299.018 36.9307 299.514 36.1816C297.338 37.5223 293.007 39.864 287.917 40.7962C283.123 41.6704 268.294 40.0329 268.141 40.0191L267.374 39.935L267.405 40.7025C267.407 40.7429 267.578 45.227 267.118 49.0902C266.506 54.2141 264.544 58.1051 264.526 58.1463L264.006 59.1646L265.146 59.0964ZM268.429 49.2374C268.796 46.1924 268.778 42.8702 268.749 41.4047C271.898 41.7376 283.754 42.8931 288.151 42.0912C291.535 41.4736 294.63 40.2207 296.862 39.1355C294.677 40.3704 290.087 43.4362 287.896 46.6388C285.36 50.3515 285.122 51.717 286.488 50.8352C284.465 52.4629 281.89 54.3211 277.595 55.5486C273.03 56.8481 268.363 57.4793 266.176 57.6926C266.832 56.1477 267.971 53.0449 268.429 49.2374Z" fill="#333333" fill-opacity="0.6"/>
<path d="M277.367 51.0417C277.577 49.991 277.174 49.0267 276.471 48.8843C275.767 48.742 275.023 49.4864 274.813 50.5371C274.602 51.5878 275.006 52.5521 275.709 52.6945C276.413 52.8268 277.157 52.0925 277.367 51.0417Z" fill="#333333" fill-opacity="0.6"/>
<path d="M111.67 260.545C106.658 255.704 106.295 242.67 106.74 236.759L194.01 255.817C192.839 264.896 186.991 283.012 172.972 282.845C155.448 282.637 117.934 266.597 111.67 260.545Z" fill="#FF8500"/>
<path d="M108.329 57.6488C96.0561 61.8171 105.846 82.5158 112.276 92.3441C124.992 102.547 153.437 119.869 165.483 107.537C180.542 92.1223 184.269 77.2016 175.753 71.5728C168.94 67.0697 162.968 72.1847 160.833 75.3051C161.724 72.1849 161.592 65.1848 153.934 62.1457C146.277 59.1066 142.205 65.901 141.127 69.6781C141.69 67.7074 143.307 60.1768 134.439 57.6447C127.345 55.6189 124.728 63.0418 124.306 67.0065C124.094 62.1505 120.602 53.4806 108.329 57.6488Z" fill="#D63B3B"/>
<path d="M131.656 257.727C83.5712 238.029 82.5224 192.19 88.0086 171.733C91.9475 157.939 145.927 157.367 170.489 162.782C190.139 167.114 215.134 177.484 225.175 182.127C242.651 175.04 281.009 160.133 294.633 157.203C311.664 153.541 288.661 221.036 279.233 235.394C271.69 246.881 247.705 241.311 236.655 237.09C225.188 264.187 191.762 282.35 131.656 257.727Z" fill="#FFB70A"/>
<path opacity="0.4" d="M161.073 190.78C140.521 186.453 128.675 192.43 122.416 200.012C116.313 207.406 117.381 218.416 123.442 225.845C142.808 249.582 188.581 252.023 196.578 251.932C203.973 251.848 195.329 244.303 190.083 240.541C195.126 241.939 207.645 243.234 217.377 237.227C227.109 231.22 212.713 222.994 204.299 219.633C209.182 218.485 219.472 214 221.566 205.241C224.184 194.292 201.664 199.326 161.073 190.78Z" fill="white"/>
<path d="M80.4964 112.786L103.499 107.996C104.194 107.851 104.815 108.457 104.687 109.156L101.425 126.911C101.302 127.583 100.554 127.936 99.9563 127.604L79.9337 116.493C78.313 115.593 78.6818 113.164 80.4964 112.786Z" fill="#FFB70A"/>
<path d="M101.752 108.047C105.103 91.2023 115.068 85.8863 123.874 85.1942C131.058 84.6296 138.231 86.8824 145.009 89.3289C178.8 101.524 170.125 134.068 173.543 147.729C177.275 162.648 181.85 163.421 175.588 172.29C170.578 179.385 162.005 171.964 158.345 167.366C160.316 171.659 161.542 180.428 150.676 181.161C140.739 181.832 136.321 175.137 135.046 170.83C136.03 175.693 135.181 183.572 124.988 183.417C113.953 183.25 109.598 173.872 108.799 169.204C106.762 189.402 80.6505 181.946 86.1369 162.733C91.6232 143.519 95.634 138.803 101.752 108.047Z" fill="#FF8500"/>
<path d="M114.922 107.77C113.625 111.27 114.593 114.792 117.092 115.629C119.602 116.489 122.684 114.355 124.005 110.845C125.302 107.345 124.334 103.822 121.834 102.985C119.311 102.159 116.229 104.293 114.922 107.77Z" fill="#1E244E"/>
<path d="M117.864 106.81C117.528 107.717 117.778 108.631 118.427 108.847C119.077 109.07 119.876 108.517 120.219 107.607C120.555 106.7 120.304 105.787 119.656 105.57C119.002 105.356 118.203 105.909 117.864 106.81Z" fill="white"/>
<path d="M289.165 173.069C285.193 169.2 257.66 183.43 241.293 192.766C238.765 194.208 235.357 198.033 238.231 198.49C240.623 198.871 246.037 197.544 254.987 195.258C270.137 191.389 294.545 178.31 289.165 173.069Z" fill="#DCA011"/>
<path d="M284.446 199.429C280.381 197.391 257.081 203.739 243.523 207.893C241.903 208.389 241.028 210.293 242.478 211.168C246.614 213.661 255.897 211.099 266.038 209.844C278.348 208.319 289.919 202.173 284.446 199.429Z" fill="#DCA011"/>
<path d="M277.144 219.813C278.224 216.356 254.79 220.39 242.938 222.839C237.948 224.925 245.119 227.338 255.126 228.266C265.133 229.193 275.795 224.135 277.144 219.813Z" fill="#DCA011"/>
<path d="M191.789 207.379C190.853 203.172 167.356 200.668 152.368 199.707C149.464 199.521 145.19 201.123 147.66 202.662C149.538 203.831 153.465 205.209 159.452 207.256C171.193 211.273 193.083 213.197 191.789 207.379Z" fill="#EBBD4E"/>
<path d="M177.199 222.83C175.419 219.768 157.834 214.018 146.964 210.841C145.338 210.366 143.603 211.533 144.552 212.936C146.685 216.093 153.567 218.364 160.45 221.744C169.286 226.082 179.64 227.031 177.199 222.83Z" fill="#EBBD4E"/>
<path d="M163.491 233.191C165.71 231.364 148.397 223.857 139.463 220.331C135.244 219.547 138.956 224.267 145.197 229.232C151.438 234.198 160.716 235.473 163.491 233.191Z" fill="#EBBD4E"/>
<path d="M185.582 169.408C185.582 169.408 186.87 170.284 187.464 172.83C187.464 172.83 213.322 175.341 226.927 193.725L223.695 186.22C223.692 186.143 210.613 174.275 185.582 169.408Z" fill="#9A6D00"/>
<path d="M185.822 184.637C185.822 184.637 186.098 175.589 191.41 166.806C195.727 159.674 210.272 140.6 213.481 134.798C219.362 124.187 221.075 113.966 221.075 113.966L255.443 113.076C255.443 113.076 254.421 122.466 250.885 131.756C247.294 141.165 230.787 155.489 226.503 168.54C223.733 176.986 225.043 193.586 225.043 193.586L185.822 184.637Z" fill="#0EAE3D"/>
<g opacity="0.6">
<path d="M222.396 115.626L222.228 116.249C222.196 116.365 219.059 127.668 215.802 133.533C213.51 137.649 208.797 144.412 204.233 150.948C200.779 155.902 197.506 160.584 195.378 163.996C188.555 174.9 188.731 181.675 188.736 181.958L188.756 182.614L221.876 190.83L221.795 189.641C221.786 189.516 221.006 177.237 223.077 170.614C225.838 161.8 231.303 155.384 236.593 149.176C240.371 144.739 243.952 140.55 246.63 135.539C249.639 129.918 251.31 124.81 252.198 121.51C253.157 117.915 253.399 115.68 253.412 115.588L253.515 114.59L222.396 115.626ZM221.423 170.089C220.196 174.026 219.911 179.667 219.903 183.899C218.898 183.584 217.424 183.575 216.792 183.998C215.292 184.997 215.413 186.506 216.581 187.716L195.064 182.382C195.104 182.333 195.14 182.297 195.174 182.239C197.032 179.659 193.751 176.944 191.142 177.577C191.165 177.502 191.18 177.433 191.197 177.35C191.895 174.676 193.451 170.346 196.855 164.911C198.969 161.531 202.222 156.874 205.665 151.939C206.061 151.372 206.456 150.804 206.851 150.237C206.536 153.224 208.269 156.443 213.875 158.125C219.052 159.679 224.825 158.184 228.869 155.938C225.822 160.067 223.128 164.611 221.423 170.089ZM245.104 134.716C242.515 139.55 238.998 143.674 235.279 148.036C234.924 148.446 234.575 148.864 234.221 149.273C234.229 145.686 231.361 141.437 227.013 140.514C222.684 139.603 216.823 139.292 212.14 142.539C214.273 139.373 216.123 136.524 217.32 134.361C219.603 130.251 221.776 123.765 222.96 119.892C223.663 120.736 224.512 121.032 225.723 120.341C226.679 119.791 227.6 118.417 226.96 117.34C226.933 117.298 226.9 117.248 226.865 117.211L248.464 116.499C246.051 118.389 248.351 120.954 250.883 119.56C250.052 123.132 248.355 128.64 245.104 134.716Z" fill="#333333"/>
<path d="M205.906 170.132C205.584 171.105 206.431 172.262 207.795 172.725C209.166 173.183 210.535 172.771 210.862 171.806C211.185 170.832 210.338 169.676 208.974 169.213C207.611 168.75 206.234 169.167 205.906 170.132Z" fill="#333333"/>
<path d="M234.604 123.738C233.18 123.494 231.884 124.109 231.714 125.115C231.536 126.126 232.543 127.143 233.972 127.396C235.397 127.641 236.692 127.026 236.862 126.02C237.027 125.005 236.02 123.988 234.604 123.738Z" fill="#333333"/>
</g>
<path d="M186.538 172.119C186.538 172.119 215.726 176.798 226.494 192.121L224.279 196.42C224.279 196.42 188.658 185.635 182.834 183.631C177.01 181.626 186.538 172.119 186.538 172.119Z" fill="#FFB70A"/>
<ellipse rx="10.0464" ry="21.0633" transform="matrix(0.0764876 0.997071 0.997137 -0.075614 50.7714 260.609)" fill="white"/>
<ellipse rx="10.1293" ry="10.1404" transform="matrix(-0.383491 0.923545 0.923545 0.383491 76.6563 284.177)" fill="#FF8500"/>
</g>
<defs>
<clipPath id="clip0_1_4976">
<rect width="360" height="297" fill="white"/>
</clipPath>
</defs>
</svg>
