<svg width="24" height="24" viewBox="0 0 24 24" fill="none" xmlns="http://www.w3.org/2000/svg">
<path d="M18.4001 9.59998H11.2001C10.3164 9.59998 9.6001 10.3163 9.6001 11.2V18.4C9.6001 19.2836 10.3164 20 11.2001 20H18.4001C19.2838 20 20.0001 19.2836 20.0001 18.4V11.2C20.0001 10.3163 19.2838 9.59998 18.4001 9.59998Z" stroke="#333333" stroke-opacity="0.7" stroke-width="2" stroke-linecap="round" stroke-linejoin="round"/>
<path d="M6.4 14.4H5.6C5.17565 14.4 4.76869 14.2314 4.46863 13.9314C4.16857 13.6313 4 13.2243 4 12.8V5.6C4 5.17565 4.16857 4.76869 4.46863 4.46863C4.76869 4.16857 5.17565 4 5.6 4H12.8C13.2243 4 13.6313 4.16857 13.9314 4.46863C14.2314 4.76869 14.4 5.17565 14.4 5.6V6.4" stroke="#333333" stroke-opacity="0.7" stroke-width="2" stroke-linecap="round" stroke-linejoin="round"/>
</svg>
