<svg width="360" height="280" viewBox="0 0 360 280" fill="none" xmlns="http://www.w3.org/2000/svg">
<ellipse rx="10.0464" ry="21.0633" transform="matrix(0.83812 0.545485 -0.544751 0.838598 279.894 20.1438)" fill="white"/>
<ellipse cx="288.152" cy="54.1626" rx="10.1293" ry="10.1404" transform="rotate(6.12103 288.152 54.1626)" fill="#FF8500"/>
<path d="M306.086 277.211C325.836 279.334 340.332 267.009 337.603 255.218C334.888 243.496 315.861 235.311 300.748 249.145C291.632 257.491 281.148 257.433 274.266 256.075C272.141 255.655 270.774 258.21 272.312 259.711C283.868 270.984 295.698 276.094 306.08 277.211C306.083 277.211 306.083 277.211 306.086 277.211Z" fill="#030062"/>
<rect x="84.8174" y="93.3486" width="82.0838" height="173.888" rx="16" transform="rotate(-9.33408 84.8174 93.3486)" fill="#C36600"/>
<path d="M249.398 66.0838L129.746 85.7508C125.386 86.4674 122.432 90.5826 123.149 94.9424L148.818 251.111C149.535 255.471 153.65 258.424 158.01 257.708L277.662 238.041L249.398 66.0838Z" fill="#FF8500"/>
<path d="M220.119 76.3974L142.056 89.2284C137.696 89.945 134.743 94.0602 135.46 98.42L159.086 242.16C159.802 246.52 163.918 249.473 168.277 248.757L246.34 235.926L220.119 76.3974Z" fill="#5D3100"/>
<path d="M192.133 162.915L147.272 170.289L148.319 176.656L193.18 169.283L192.133 162.915Z" fill="#C36600"/>
<path d="M185.728 112.52L182.437 113.061L183.613 120.218L186.904 119.677L185.728 112.52Z" fill="#586DE8"/>
<path d="M184.232 120.116L146.445 126.327L145.534 120.783L145.269 119.17L183.055 112.959L184.232 120.116Z" fill="#246437"/>
<path d="M196.366 110.772L158.579 116.982L159.755 124.139L197.542 117.928L196.366 110.772Z" fill="#0EAE3D"/>
<path d="M173.236 114.573L170.865 114.963L172.042 122.12L174.413 121.73L173.236 114.573Z" fill="#3531B3"/>
<path d="M149.919 120.062L145.534 120.783L145.564 120.965L149.949 120.244L149.919 120.062Z" fill="#0EAE3D"/>
<path d="M159.366 119.682L151.747 120.934L151.777 121.116L159.396 119.863L159.366 119.682Z" fill="#0EAE3D"/>
<path d="M159.387 120.943L156.102 121.483L156.131 121.665L159.417 121.125L159.387 120.943Z" fill="#0EAE3D"/>
<path d="M150.883 124.215L146.224 124.981L146.253 125.163L150.913 124.397L150.883 124.215Z" fill="#0EAE3D"/>
<path d="M188.881 126.701L151.096 132.911L150.185 127.369L149.92 125.756L187.705 119.546L188.881 126.701Z" fill="#0EAE3D"/>
<path d="M201.015 117.357L163.229 123.568L164.405 130.725L202.192 124.514L201.015 117.357Z" fill="#246437"/>
<path d="M177.888 121.159L175.515 121.549L176.691 128.706L179.064 128.316L177.888 121.159Z" fill="#3531B3"/>
<path d="M154.568 126.649L150.183 127.37L150.212 127.551L154.597 126.831L154.568 126.649Z" fill="#0EAE3D"/>
<path d="M163.679 126.323L156.396 127.52L156.425 127.702L163.709 126.505L163.679 126.323Z" fill="#0EAE3D"/>
<path d="M163.883 127.552L160.75 128.067L160.78 128.249L163.913 127.734L163.883 127.552Z" fill="#0EAE3D"/>
<path d="M155.532 130.801L150.872 131.567L150.902 131.749L155.561 130.983L155.532 130.801Z" fill="#0EAE3D"/>
<path d="M186.996 141.711L149.212 147.922L148.3 142.378L148.035 140.765L185.82 134.554L186.996 141.711Z" fill="#0EAE3D"/>
<path d="M199.134 132.366L161.347 138.577L162.523 145.734L200.31 139.523L199.134 132.366Z" fill="#246437"/>
<path d="M176.005 136.167L173.632 136.557L174.808 143.714L177.181 143.324L176.005 136.167Z" fill="#3531B3"/>
<path d="M152.686 141.657L148.301 142.377L148.331 142.559L152.716 141.838L152.686 141.657Z" fill="#0EAE3D"/>
<path d="M161.797 141.331L154.514 142.528L154.544 142.71L161.827 141.513L161.797 141.331Z" fill="#0EAE3D"/>
<path d="M162.001 142.563L158.868 143.078L158.898 143.26L162.031 142.745L162.001 142.563Z" fill="#0EAE3D"/>
<path d="M153.65 145.809L148.99 146.575L149.02 146.757L153.68 145.991L153.65 145.809Z" fill="#0EAE3D"/>
<path d="M184.919 149.403L147.132 155.614L146.221 150.07L145.956 148.457L183.743 142.246L184.919 149.403Z" fill="#0EAE3D"/>
<path d="M197.051 140.058L159.264 146.269L160.44 153.426L198.227 147.215L197.051 140.058Z" fill="#246437"/>
<path d="M173.921 143.86L171.55 144.25L172.726 151.406L175.097 151.017L173.921 143.86Z" fill="#F99746"/>
<path d="M150.604 149.349L146.219 150.07L146.249 150.251L150.634 149.531L150.604 149.349Z" fill="#0EAE3D"/>
<path d="M159.717 149.023L152.434 150.22L152.463 150.402L159.747 149.205L159.717 149.023Z" fill="#0EAE3D"/>
<path d="M159.919 150.255L156.786 150.77L156.816 150.952L159.949 150.437L159.919 150.255Z" fill="#0EAE3D"/>
<path d="M151.568 153.502L146.908 154.268L146.938 154.449L151.597 153.683L151.568 153.502Z" fill="#0EAE3D"/>
<path d="M186.978 156.414L149.191 162.625L148.28 157.081L148.015 155.468L185.801 149.257L186.978 156.414Z" fill="#0EAE3D"/>
<path d="M199.112 147.069L161.325 153.28L162.502 160.437L200.288 154.226L199.112 147.069Z" fill="#246437"/>
<path d="M175.982 150.871L173.611 151.261L174.788 158.418L177.159 158.028L175.982 150.871Z" fill="#F99746"/>
<path d="M152.664 156.36L148.279 157.081L148.309 157.263L152.694 156.542L152.664 156.36Z" fill="#0EAE3D"/>
<path d="M161.778 156.034L154.495 157.231L154.525 157.413L161.808 156.216L161.778 156.034Z" fill="#0EAE3D"/>
<path d="M161.983 157.266L158.85 157.781L158.879 157.963L162.013 157.448L161.983 157.266Z" fill="#0EAE3D"/>
<path d="M153.629 160.513L148.97 161.279L149 161.46L153.659 160.695L153.629 160.513Z" fill="#0EAE3D"/>
<path d="M186.798 163.793L149.011 170.004L148.1 164.462L147.835 162.849L185.622 156.638L186.798 163.793Z" fill="#0EAE3D"/>
<path d="M198.933 154.45L161.146 160.661L162.323 167.818L200.11 161.607L198.933 154.45Z" fill="#246437"/>
<path d="M175.805 158.251L173.434 158.641L174.61 165.798L176.981 165.408L175.805 158.251Z" fill="#F99746"/>
<path d="M152.484 163.741L148.099 164.461L148.128 164.643L152.513 163.922L152.484 163.741Z" fill="#0EAE3D"/>
<path d="M161.598 163.415L154.314 164.612L154.344 164.793L161.628 163.596L161.598 163.415Z" fill="#0EAE3D"/>
<path d="M161.802 164.645L158.669 165.16L158.699 165.341L161.832 164.826L161.802 164.645Z" fill="#0EAE3D"/>
<path d="M153.448 167.893L148.789 168.659L148.819 168.841L153.478 168.075L153.448 167.893Z" fill="#0EAE3D"/>
<path d="M183.4 134.952L145.615 141.162L144.704 135.62L144.438 134.005L182.223 127.795L183.4 134.952Z" fill="#246437"/>
<path d="M195.536 125.606L157.749 131.817L158.925 138.974L196.712 132.763L195.536 125.606Z" fill="#0EAE3D"/>
<path d="M172.407 129.408L170.036 129.798L171.213 136.955L173.584 136.565L172.407 129.408Z" fill="#3531B3"/>
<path d="M149.089 134.9L144.704 135.621L144.734 135.802L149.119 135.081L149.089 134.9Z" fill="#0EAE3D"/>
<path d="M158.535 134.517L150.916 135.769L150.946 135.951L158.565 134.698L158.535 134.517Z" fill="#0EAE3D"/>
<path d="M158.557 135.779L155.271 136.319L155.301 136.5L158.587 135.96L158.557 135.779Z" fill="#0EAE3D"/>
<path d="M150.053 139.05L145.394 139.816L145.423 139.998L150.083 139.232L150.053 139.05Z" fill="#0EAE3D"/>
<path d="M195.895 200.117L158.109 206.328L157.198 200.786L156.933 199.173L194.719 192.962L195.895 200.117Z" fill="#246437"/>
<path d="M208.03 190.774L170.243 196.985L171.42 204.142L209.206 197.931L208.03 190.774Z" fill="#0EAE3D"/>
<path d="M184.9 194.577L182.529 194.966L183.706 202.123L186.077 201.734L184.9 194.577Z" fill="#3531B3"/>
<path d="M161.582 200.065L157.197 200.786L157.227 200.968L161.612 200.247L161.582 200.065Z" fill="#0EAE3D"/>
<path d="M171.031 199.682L163.412 200.935L163.442 201.116L171.061 199.864L171.031 199.682Z" fill="#0EAE3D"/>
<path d="M171.05 200.944L167.765 201.484L167.795 201.666L171.08 201.126L171.05 200.944Z" fill="#0EAE3D"/>
<path d="M162.546 204.218L157.887 204.984L157.917 205.166L162.576 204.4L162.546 204.218Z" fill="#0EAE3D"/>
<path d="M196.374 192.74L158.588 198.951L157.676 193.407L157.411 191.794L195.198 185.584L196.374 192.74Z" fill="#0EAE3D"/>
<path d="M208.509 183.396L170.722 189.606L171.898 196.763L209.685 190.553L208.509 183.396Z" fill="#0EAE3D"/>
<path d="M185.38 187.197L183.009 187.587L184.185 194.744L186.556 194.354L185.38 187.197Z" fill="#3531B3"/>
<path d="M162.062 192.687L157.677 193.408L157.707 193.589L162.092 192.869L162.062 192.687Z" fill="#0EAE3D"/>
<path d="M171.509 192.306L163.89 193.558L163.92 193.74L171.538 192.487L171.509 192.306Z" fill="#0EAE3D"/>
<path d="M171.529 193.568L168.244 194.108L168.274 194.29L171.559 193.75L171.529 193.568Z" fill="#0EAE3D"/>
<path d="M163.026 196.839L158.366 197.605L158.396 197.787L163.055 197.021L163.026 196.839Z" fill="#0EAE3D"/>
<path d="M191.608 186.284L153.821 192.495L152.91 186.953L152.645 185.338L190.431 179.127L191.608 186.284Z" fill="#246437"/>
<path d="M203.742 176.938L165.955 183.149L167.131 190.306L204.918 184.095L203.742 176.938Z" fill="#0EAE3D"/>
<path d="M180.614 180.74L178.241 181.13L179.418 188.287L181.791 187.897L180.614 180.74Z" fill="#3531B3"/>
<path d="M157.294 186.232L152.909 186.953L152.939 187.134L157.324 186.414L157.294 186.232Z" fill="#0EAE3D"/>
<path d="M166.743 185.848L159.124 187.101L159.154 187.282L166.773 186.03L166.743 185.848Z" fill="#0EAE3D"/>
<path d="M166.762 187.11L163.477 187.65L163.506 187.832L166.792 187.292L166.762 187.11Z" fill="#0EAE3D"/>
<path d="M158.258 190.382L153.599 191.148L153.628 191.33L158.288 190.564L158.258 190.382Z" fill="#0EAE3D"/>
<path d="M202.369 206.404L164.583 212.614L163.672 207.073L163.406 205.458L201.193 199.247L202.369 206.404Z" fill="#0EAE3D"/>
<path d="M214.506 197.059L176.719 203.27L177.895 210.427L215.682 204.216L214.506 197.059Z" fill="#246437"/>
<path d="M168.057 206.352L163.672 207.073L163.702 207.254L168.087 206.534L168.057 206.352Z" fill="#0EAE3D"/>
<path d="M177.17 206.024L169.887 207.221L169.917 207.402L177.2 206.205L177.17 206.024Z" fill="#0EAE3D"/>
<path d="M177.374 207.256L174.241 207.771L174.271 207.953L177.404 207.438L177.374 207.256Z" fill="#0EAE3D"/>
<path d="M169.021 210.502L164.361 211.268L164.391 211.45L169.051 210.684L169.021 210.502Z" fill="#0EAE3D"/>
<path d="M196.626 222.048L158.839 228.259L157.928 222.715L157.663 221.102L195.45 214.891L196.626 222.048Z" fill="#0EAE3D"/>
<path d="M208.76 212.703L170.974 218.914L172.15 226.071L209.937 219.86L208.76 212.703Z" fill="#246437"/>
<path d="M185.631 216.505L183.26 216.895L184.436 224.052L186.807 223.662L185.631 216.505Z" fill="#3531B3"/>
<path d="M162.313 221.995L157.928 222.715L157.958 222.897L162.343 222.176L162.313 221.995Z" fill="#0EAE3D"/>
<path d="M171.426 221.668L164.143 222.865L164.172 223.047L171.456 221.85L171.426 221.668Z" fill="#0EAE3D"/>
<path d="M171.628 222.9L168.495 223.415L168.525 223.597L171.658 223.082L171.628 222.9Z" fill="#0EAE3D"/>
<path d="M163.277 226.147L158.617 226.913L158.647 227.094L163.306 226.328L163.277 226.147Z" fill="#0EAE3D"/>
<path d="M199.715 228.89L161.928 235.101L161.017 229.557L160.752 227.944L198.539 221.733L199.715 228.89Z" fill="#0EAE3D"/>
<path d="M211.849 219.545L174.062 225.756L175.239 232.913L213.026 226.702L211.849 219.545Z" fill="#246437"/>
<path d="M188.72 223.347L186.349 223.737L187.525 230.894L189.896 230.504L188.72 223.347Z" fill="#F99746"/>
<path d="M165.403 228.836L161.018 229.557L161.047 229.739L165.432 229.018L165.403 228.836Z" fill="#0EAE3D"/>
<path d="M174.516 228.51L167.232 229.708L167.262 229.889L174.546 228.692L174.516 228.51Z" fill="#0EAE3D"/>
<path d="M174.718 229.742L171.585 230.257L171.615 230.439L174.748 229.924L174.718 229.742Z" fill="#0EAE3D"/>
<path d="M166.366 232.989L161.707 233.755L161.737 233.937L166.396 233.171L166.366 232.989Z" fill="#0EAE3D"/>
<path d="M204.213 235.901L166.426 242.112L165.465 236.266L165.186 234.566L202.972 228.355L204.213 235.901Z" fill="#0EAE3D"/>
<path d="M216.283 226.167L178.496 232.378L179.736 239.924L217.523 233.713L216.283 226.167Z" fill="#246437"/>
<path d="M193.153 229.969L190.782 230.358L192.023 237.904L194.394 237.515L193.153 229.969Z" fill="#F99746"/>
<path d="M169.851 235.549L165.466 236.27L165.497 236.458L169.882 235.737L169.851 235.549Z" fill="#0EAE3D"/>
<path d="M178.973 235.284L171.689 236.481L171.72 236.669L179.004 235.472L178.973 235.284Z" fill="#0EAE3D"/>
<path d="M179.188 236.583L176.055 237.098L176.086 237.286L179.219 236.771L179.188 236.583Z" fill="#0EAE3D"/>
<path d="M170.853 239.928L166.193 240.694L166.224 240.882L170.884 240.116L170.853 239.928Z" fill="#0EAE3D"/>
<path d="M201.595 243.28L163.809 249.491L162.84 243.596L162.558 241.88L200.344 235.669L201.595 243.28Z" fill="#0EAE3D"/>
<path d="M213.655 233.481L175.868 239.692L177.119 247.303L214.906 241.092L213.655 233.481Z" fill="#246437"/>
<path d="M190.525 237.283L188.154 237.672L189.405 245.283L191.776 244.894L190.525 237.283Z" fill="#F99746"/>
<path d="M167.257 243.07L162.872 243.791L162.903 243.977L167.288 243.256L167.257 243.07Z" fill="#0EAE3D"/>
<path d="M176.376 242.778L169.093 243.975L169.123 244.161L176.407 242.964L176.376 242.778Z" fill="#0EAE3D"/>
<path d="M176.586 244.043L173.453 244.558L173.484 244.744L176.617 244.229L176.586 244.043Z" fill="#0EAE3D"/>
<path d="M168.24 247.343L163.581 248.109L163.612 248.294L168.271 247.529L168.24 247.343Z" fill="#0EAE3D"/>
<path d="M198.199 214.44L160.414 220.65L159.502 215.106L159.237 213.493L197.022 207.283L198.199 214.44Z" fill="#246437"/>
<path d="M210.334 205.095L172.547 211.306L173.723 218.463L211.51 212.252L210.334 205.095Z" fill="#0EAE3D"/>
<path d="M187.204 208.896L184.833 209.286L186.009 216.443L188.381 216.053L187.204 208.896Z" fill="#3531B3"/>
<path d="M163.887 214.385L159.502 215.106L159.532 215.288L163.917 214.567L163.887 214.385Z" fill="#0EAE3D"/>
<path d="M173.334 214.005L165.715 215.257L165.745 215.438L173.364 214.186L173.334 214.005Z" fill="#0EAE3D"/>
<path d="M173.353 215.266L170.069 215.806L170.099 215.988L173.383 215.448L173.353 215.266Z" fill="#0EAE3D"/>
<path d="M164.851 218.538L160.191 219.304L160.221 219.485L164.881 218.719L164.851 218.538Z" fill="#0EAE3D"/>
<path d="M274.263 235.769L241.503 243.59L240.975 243.716L223.778 247.824L209.209 250.219C205.939 250.756 202.853 248.541 202.315 245.271L175.286 80.8258C174.748 77.556 176.963 74.4696 180.233 73.9321L183.922 73.3259L230.304 69.2242L239.905 68.374L274.263 235.769Z" fill="#FFCE4E"/>
<path d="M189.33 142.524C189.017 140.624 189.436 138.976 190.263 138.84C191.09 138.704 192.015 140.134 192.327 142.031C192.639 143.93 192.22 145.579 191.393 145.715C190.564 145.853 189.642 144.423 189.33 142.524Z" fill="#FFB70A"/>
<path d="M190.261 138.841L178.62 140.754L179.75 147.631L191.391 145.717L190.261 138.841Z" fill="#FFB70A"/>
<path d="M177.687 144.437C177.375 142.538 177.793 140.89 178.621 140.754C179.448 140.618 180.372 142.047 180.684 143.945C180.996 145.844 180.578 147.492 179.751 147.628C178.924 147.766 177.999 146.337 177.687 144.437Z" fill="#FFCE4E"/>
<path d="M192.453 161.523C192.14 159.623 192.559 157.975 193.386 157.839C194.213 157.703 195.138 159.133 195.45 161.03C195.762 162.929 195.343 164.578 194.516 164.714C193.687 164.85 192.765 163.42 192.453 161.523Z" fill="#FFB70A"/>
<path d="M193.384 157.837L181.743 159.75L182.873 166.627L194.514 164.714L193.384 157.837Z" fill="#FFB70A"/>
<path d="M180.809 163.436C180.497 161.537 180.915 159.889 181.743 159.753C182.57 159.617 183.494 161.046 183.806 162.944C184.118 164.843 183.7 166.491 182.873 166.627C182.045 166.763 181.121 165.334 180.809 163.436Z" fill="#FFCE4E"/>
<path d="M197.843 184.971C198.671 184.835 199.089 183.185 198.777 181.287C198.465 179.389 197.541 177.96 196.713 178.096C195.886 178.232 195.468 179.881 195.78 181.78C196.092 183.678 197.016 185.107 197.843 184.971Z" fill="#FFB70A"/>
<path d="M196.713 178.094L185.072 180.007L186.203 186.884L197.843 184.971L196.713 178.094Z" fill="#FFB70A"/>
<path d="M184.139 183.693C183.827 181.794 184.245 180.146 185.073 180.01C185.9 179.874 186.824 181.303 187.136 183.201C187.448 185.1 187.03 186.748 186.203 186.884C185.375 187.02 184.451 185.591 184.139 183.693Z" fill="#FFCE4E"/>
<path d="M253.577 65.2174C255.698 64.9704 257.64 66.434 257.986 68.5418L285.346 234.995C285.469 235.748 284.971 236.463 284.222 236.608L240.413 245.09L218.817 248.64C215.547 249.177 212.461 246.962 211.923 243.692L184.941 79.5319C184.386 76.1528 186.766 72.9949 190.168 72.599L253.577 65.2174Z" fill="#FFB70A"/>
<path d="M224.897 194.578C225.381 197.52 224.027 200.189 221.875 200.543C219.723 200.897 217.586 198.799 217.103 195.859C216.62 192.919 217.973 190.247 220.125 189.894C222.277 189.542 224.414 191.638 224.897 194.578Z" fill="#FF8500"/>
<path d="M226.449 188.856L220.125 189.896L221.875 200.545L228.199 199.506L226.449 188.856Z" fill="#FF8500"/>
<path d="M231.221 193.538C231.704 196.48 230.351 199.15 228.199 199.504C226.047 199.857 223.908 197.762 223.424 194.82C222.941 191.88 224.294 189.208 226.446 188.855C228.598 188.501 230.737 190.599 231.221 193.538Z" fill="#C36600"/>
<path d="M237.104 220.162L226.087 196.039C225.504 194.766 226.107 193.266 227.434 192.689C228.537 192.209 229.823 192.679 230.308 193.739L241.502 218.249C241.502 218.249 241.525 219.204 239.713 219.962C238.055 220.657 237.104 220.162 237.104 220.162Z" fill="#FF8500"/>
<path d="M222.479 135.548L217.292 136.401L223.65 175.084L228.837 174.232L222.479 135.548Z" fill="#2B478B"/>
<path d="M223.65 175.082C231.737 173.753 236.87 164.016 235.115 153.334C233.359 142.653 225.38 135.071 217.292 136.401C209.205 137.73 204.072 147.467 205.827 158.148C207.583 168.83 215.563 176.411 223.65 175.082Z" fill="#C36600"/>
<path d="M228.835 174.23C236.922 172.901 242.055 163.164 240.299 152.482C238.544 141.801 230.564 134.219 222.477 135.549C214.389 136.878 209.256 146.615 211.012 157.296C212.768 167.978 220.747 175.559 228.835 174.23Z" fill="#FF8500"/>
<path d="M229.923 165.839C234.003 165.168 236.476 159.546 235.446 153.28C234.416 147.015 230.274 142.479 226.194 143.15C222.113 143.821 219.641 149.443 220.67 155.709C221.7 161.974 225.843 166.51 229.923 165.839Z" fill="#C36600"/>
<path d="M227.825 143.153L240.133 144.916L242.564 159.704L231.215 165.44L227.825 143.153Z" fill="#C36600"/>
<path d="M246.163 151.518C246.834 155.601 245.222 159.267 242.562 159.704C239.903 160.141 237.203 157.184 236.532 153.101C235.861 149.018 237.472 145.353 240.132 144.916C242.791 144.479 245.491 147.435 246.163 151.518Z" fill="#FF8500"/>
<path d="M26.7466 157.305C17.7924 170.432 46.9716 219.676 84.8044 208.199C86.6622 207.634 86.7627 205.055 84.9642 204.325C78.4063 201.666 68.0714 194.786 64.1929 177.316C60.4488 160.461 49.1664 152.673 39.624 151.984C34.2093 151.594 29.3534 153.488 26.7466 157.305Z" fill="white"/>
</svg>
