<svg width="34" height="22" viewBox="0 0 34 22" fill="none" xmlns="http://www.w3.org/2000/svg">
<path fill-rule="evenodd" clip-rule="evenodd" d="M12.3528 0C11.8706 0 11.4046 0.174233 11.0407 0.490611L0.687848 9.49061C-0.229282 10.2879 -0.229283 11.7121 0.687847 12.5094L11.0407 21.5094C11.4046 21.8258 11.8706 22 12.3528 22H31.0186C32.1232 22 33.0186 21.1046 33.0186 20V2C33.0186 0.895431 32.1232 0 31.0186 0H12.3528ZM15.8728 5.94001C16.2842 5.52844 16.9513 5.52844 17.3627 5.94001L20.5125 9.09093L23.7482 5.85524C24.1597 5.44375 24.827 5.44363 25.2386 5.85499C25.6503 6.26634 25.6504 6.93339 25.2389 7.34489L22.0024 10.5813L25.255 13.835C25.6664 14.2466 25.6664 14.9139 25.255 15.3254C24.8436 15.737 24.1765 15.737 23.7651 15.3254L20.5123 12.0715L17.3452 15.2385C16.9337 15.65 16.2665 15.6502 15.8548 15.2388C15.4432 14.8274 15.4431 14.1604 15.8546 13.7489L19.0224 10.5811L15.8728 7.43042C15.4614 7.01885 15.4614 6.35157 15.8728 5.94001Z" fill="white"/>
</svg>
