<svg width="49" height="52" viewBox="0 0 49 52" fill="none" xmlns="http://www.w3.org/2000/svg">
<path d="M42.1831 6.8899C46.7308 11.4706 49.3013 18.1425 48.9717 24.4493C48.6422 30.7893 45.4456 36.7641 40.8649 42.0751C36.2842 47.3861 30.3523 52 24.3875 52C18.4557 51.9668 12.5238 47.3529 7.91017 42.0419C3.32947 36.7309 0.066952 30.7561 0.00104253 24.7149C-0.0648669 18.6404 2.99992 12.4996 7.61358 7.9189C12.1943 3.33819 18.2909 0.284377 24.6512 0.0188285C30.9785 -0.24672 37.6024 2.30919 42.1831 6.8899Z" fill="white"/>
<path fill-rule="evenodd" clip-rule="evenodd" d="M11.0257 34.9843L9.06601 12.5846C9.02974 12.17 9.33416 11.8008 9.74181 11.7652L12.5669 11.518C12.9773 11.4821 13.341 11.7927 13.3773 12.2074L13.8275 17.3525C13.8703 17.8422 14.1986 18.0803 14.6353 18.0421L25.4518 17.0958C25.8937 17.0571 26.1729 16.7955 26.1275 16.2764L25.6774 11.1313C25.6411 10.7167 25.9455 10.3475 26.3532 10.3119L29.1783 10.0647C29.5861 10.029 29.9498 10.3396 29.9861 10.7543L31.9458 33.154C31.9821 33.5687 31.6778 33.9377 31.27 33.9734L11.8336 35.6739C11.4259 35.7096 11.062 35.3991 11.0257 34.9843Z" fill="#534ED9"/>
<path fill-rule="evenodd" clip-rule="evenodd" d="M27.2935 34.2398L27.9603 30.4584L29.0413 27.7307L29.142 23.7568L29.4316 22.1142C29.859 19.6901 32.9826 19.8856 33.6453 16.1274L35.4529 16.1174L37.3678 16.7837C36.7051 20.542 39.7071 21.4265 39.2797 23.8507L38.99 25.4932L37.7281 29.2624L37.8084 32.1949L37.1416 35.9763C37.0714 36.3747 36.6731 36.6411 36.2575 36.5678L27.922 35.0981C27.5064 35.0248 27.2233 34.6382 27.2935 34.2398Z" fill="#168BC3"/>
<path fill-rule="evenodd" clip-rule="evenodd" d="M34.6433 13.9436L37.1766 14.3903C38.1039 14.5538 38.7441 15.37 38.5975 16.2019L38.4659 16.9479C38.3984 17.3307 37.996 17.581 37.572 17.5063L33.206 16.7364C32.782 16.6617 32.4896 16.2888 32.5571 15.906L32.6886 15.16C32.8353 14.3281 33.716 13.7801 34.6433 13.9436Z" fill="#FF8500"/>
<path fill-rule="evenodd" clip-rule="evenodd" d="M36.1783 24.7425L42.3412 27.2325C42.7615 27.4023 42.9449 27.7506 42.8147 28.2836L42.2355 30.6349L37.8321 29.7248L33.8908 27.2634L35.1076 25.1697C35.3785 24.7029 35.7391 24.5651 36.1783 24.7425Z" fill="#C36600"/>
<path fill-rule="evenodd" clip-rule="evenodd" d="M32.9726 29.5364L37.5213 30.6781L41.3172 32.9079L36.1832 42.2906C35.941 42.734 35.5832 42.8375 35.1629 42.6677L30.6198 40.8321C30.1877 40.6576 30.0196 40.319 30.1478 39.8522L32.9726 29.5364Z" fill="#FF8500"/>
<path fill-rule="evenodd" clip-rule="evenodd" d="M33.6924 26.9741L42.5789 30.5645C42.9406 30.7107 43.0904 31.188 42.9137 31.6252L42.4328 32.8157C42.2561 33.2529 41.8167 33.4922 41.4551 33.3461L32.5686 29.7557C32.2067 29.6095 32.0571 29.1323 32.2337 28.695L32.7147 27.5045C32.8914 27.0673 33.3306 26.8279 33.6924 26.9741Z" fill="#FFB70A"/>
</svg>
