<svg width="60" height="60" viewBox="0 0 60 60" fill="none" xmlns="http://www.w3.org/2000/svg">
<circle cx="30" cy="30" r="30" fill="white"/>
<rect x="21" y="46.1528" width="24.1528" height="17.891" rx="3" transform="rotate(-90 21 46.1528)" fill="#2E2B9F"/>
<rect x="25.4727" y="46.1528" width="24.1528" height="1.7891" transform="rotate(-90 25.4727 46.1528)" fill="#030062"/>
<rect x="32.6289" y="42.5747" width="7.1564" height="1.7891" rx="0.89455" transform="rotate(-90 32.6289 42.5747)" fill="#FF8500"/>
<rect x="29.0508" y="42.5747" width="7.1564" height="1.7891" rx="0.89455" transform="rotate(-90 29.0508 42.5747)" fill="#FF8500"/>
<path d="M26.1231 17.6089C25.7324 17.9995 25.7324 18.633 26.1231 19.0236C26.5138 19.4143 27.1472 19.4144 27.5379 19.0236C28.9063 17.6553 31.1211 17.6552 32.4896 19.0236C32.6849 19.219 32.941 19.3166 33.1969 19.3166C34.0802 19.3166 34.5363 18.2408 33.9043 17.6088C31.754 15.4586 28.2735 15.4584 26.1231 17.6089Z" fill="#FFB70A"/>
<path d="M24.7078 16.1939C27.64 13.2617 32.3861 13.2614 35.3186 16.1939C35.7092 16.5845 36.3427 16.5846 36.7334 16.1939C37.1241 15.8032 37.1241 15.1698 36.7334 14.7791C33.028 11.0737 26.9986 11.0736 23.293 14.7791C22.9023 15.1698 22.9023 15.8032 23.293 16.1939C23.6838 16.5846 24.3171 16.5846 24.7078 16.1939Z" fill="#FFB70A"/>
</svg>
