<svg width="102" height="96" viewBox="0 0 102 96" fill="none" xmlns="http://www.w3.org/2000/svg">
<path fill-rule="evenodd" clip-rule="evenodd" d="M70 45.2691H34.9542C32.8915 45.2691 30.9483 44.438 29.7107 43.0225L27.089 40.0244C25.8513 38.6089 23.9081 37.7778 21.8454 37.7778H10V4.44721C10 1.99206 12.0647 0 14.6186 0H65.3814C67.9312 0 70 1.99206 70 4.44721V45.2691Z" fill="white" fill-opacity="0.5"/>
<g opacity="0.2">
<path d="M57.5509 14.8549H22.4496C21.7105 14.8549 21.1113 14.2658 21.1113 13.5388C21.1113 12.8118 21.7103 12.2227 22.4496 12.2227H57.5509C58.2899 12.2227 58.8891 12.8118 58.8891 13.5388C58.8891 14.2658 58.2899 14.8549 57.5509 14.8549Z" fill="#221F7A"/>
</g>
<g opacity="0.2">
<path d="M57.5509 27.9838H22.4496C21.7105 27.9838 21.1113 27.3947 21.1113 26.6677C21.1113 25.9407 21.7103 25.3516 22.4496 25.3516H57.5509C58.2899 25.3516 58.8891 25.9407 58.8891 26.6677C58.8891 27.3947 58.2899 27.9838 57.5509 27.9838Z" fill="#221F7A"/>
</g>
<g opacity="0.2">
<path d="M48.9768 41.1108H22.1347C21.5695 41.1108 21.1113 40.5217 21.1113 39.7947C21.1113 39.0678 21.5694 38.4785 22.1347 38.4785H48.9768C49.542 38.4785 50.0002 39.0676 50.0002 39.7947C50.0002 40.5217 49.542 41.1108 48.9768 41.1108Z" fill="#221F7A"/>
</g>
<path d="M6.5544 37.4922H21.8454C23.9081 37.4922 25.8513 38.3233 27.089 39.7388L29.7107 42.7369C30.9483 44.1524 32.8915 44.9835 34.9542 44.9835H72.0946C75.7149 44.9835 78.649 47.4996 78.649 50.6039V89.9352C78.649 93.0395 75.7149 95.5556 72.0946 95.5556H6.5544C2.93406 95.5556 0 93.0395 0 89.9352V43.1126C0 40.0083 2.93406 37.4922 6.5544 37.4922Z" fill="white" fill-opacity="0.15"/>
<path fill-rule="evenodd" clip-rule="evenodd" d="M85.9729 33.2708C91.7903 43.1886 88.338 55.8704 78.262 61.5964C68.186 67.3225 55.3019 63.9244 49.4845 54.0066C43.6671 44.0888 47.1194 31.4069 57.1954 25.6809C67.2714 19.9549 80.1556 23.3529 85.9729 33.2708ZM81.1069 36.0355C85.373 43.3086 82.8413 52.6088 75.4521 56.808C68.0629 61.0072 58.6144 58.5152 54.3483 51.242C50.0821 43.9688 52.6138 34.6686 60.003 30.4695C67.3922 26.2703 76.8407 28.7623 81.1069 36.0355Z" fill="#4D4B9F"/>
<path d="M80.284 58.9564L74.9316 61.998L79.9882 70.6187L85.3406 67.577L80.284 58.9564Z" fill="#4D4B9F"/>
<path d="M96.7009 93.0315C94.2668 94.4148 91.1575 93.5919 89.7541 91.1993L79.5215 73.7543C78.8236 72.5645 79.2371 71.0456 80.4458 70.3587L84.8867 67.835C86.0954 67.1481 87.6385 67.5551 88.3364 68.7449L98.569 86.1899C99.969 88.5845 99.135 91.6482 96.7009 93.0315Z" fill="#908FBC"/>
</svg>
