<svg width="144" height="144" viewBox="0 0 144 144" fill="none" xmlns="http://www.w3.org/2000/svg">
<rect x="18.667" y="23.7676" width="104" height="91.2978" rx="8" fill="white" fill-opacity="0.4"/>
<rect width="15.6897" height="15.2163" rx="2" transform="matrix(-1 0 0 1 53.8574 58.9336)" fill="#7673CB"/>
<rect width="15.6897" height="15.2163" rx="2" transform="matrix(-1 0 0 1 53.8574 82.8457)" fill="#7673CB"/>
<rect width="15.6897" height="15.2163" rx="2" transform="matrix(-1 0 0 1 78.5117 58.9336)" fill="#7673CB"/>
<rect width="15.6897" height="15.2163" rx="2" transform="matrix(-1 0 0 1 78.5117 82.8457)" fill="#7673CB"/>
<rect width="15.6897" height="15.2163" rx="2" transform="matrix(-1 0 0 1 103.167 58.9336)" fill="#7673CB"/>
<rect width="15.6897" height="15.2163" rx="2" transform="matrix(-1 0 0 1 103.167 82.8457)" fill="#7673CB"/>
<path d="M18.667 29.1602C18.667 24.7419 22.2487 21.1602 26.667 21.1602H114.667C119.085 21.1602 122.667 24.7419 122.667 29.1602V47.2452H18.667V29.1602Z" fill="#5350BE"/>
<rect x="32.9668" y="13.334" width="8.8706" height="20.8681" rx="4.4353" fill="#6662C5"/>
<rect x="55.1445" y="13.334" width="8.87061" height="20.8681" rx="4.4353" fill="#6662C5"/>
<rect x="77.3203" y="13.334" width="8.87061" height="20.8681" rx="4.4353" fill="#6662C5"/>
<rect x="99.498" y="13.334" width="8.87059" height="20.8681" rx="4.4353" fill="#6662C5"/>
<path d="M106.538 133.334C124.282 133.334 138.667 118.944 138.667 101.193C138.667 83.4425 124.282 69.0527 106.538 69.0527C88.793 69.0527 74.4082 83.4425 74.4082 101.193C74.4082 118.944 88.793 133.334 106.538 133.334Z" fill="#7673CB"/>
<path d="M106.537 125.167C119.773 125.167 130.502 114.434 130.502 101.194C130.502 87.9539 119.773 77.2207 106.537 77.2207C93.3017 77.2207 82.5723 87.9539 82.5723 101.194C82.5723 114.434 93.3017 125.167 106.537 125.167Z" fill="#8683D1"/>
<path d="M112.409 105.333H106.257C105.011 105.333 104 104.267 104 102.952V90.3817C104 89.0663 105.01 88 106.257 88C107.504 88 108.514 89.066 108.514 90.3817V100.57H112.409C113.656 100.57 114.667 101.636 114.667 102.952C114.667 104.267 113.656 105.333 112.409 105.333Z" fill="#7673CB"/>
</svg>
