<svg width="60" height="60" viewBox="0 0 60 60" fill="none" xmlns="http://www.w3.org/2000/svg">
<circle cx="30" cy="30" r="30" fill="white"/>
<path fill-rule="evenodd" clip-rule="evenodd" d="M42.0003 26.6667H18.667V38C18.667 38 18.667 38 18.667 38.0001C18.667 40.2092 23.8903 42.0001 30.3337 42.0001C36.777 42.0001 42.0003 40.2092 42.0003 38.0001C42.0003 38 42.0003 38 42.0003 38V26.6667Z" fill="#030062"/>
<line x1="45.5" y1="26" x2="45.5" y2="37.3333" stroke="#FF8500" stroke-width="1.5"/>
<path d="M29.6599 18.1233C29.8799 18.0436 30.1208 18.0436 30.3408 18.1233L46.7367 24.0597C47.6161 24.3781 47.6161 25.6219 46.7367 25.9403L30.3408 31.8767C30.1208 31.9564 29.8799 31.9564 29.6599 31.8767L13.2639 25.9403C12.3845 25.6219 12.3845 24.3781 13.2639 24.0597L29.6599 18.1233Z" fill="#534ED9"/>
<circle cx="45.5" cy="38" r="2" fill="#FFB70A"/>
</svg>
