<svg width="119" height="119" viewBox="0 0 119 119" fill="none" xmlns="http://www.w3.org/2000/svg">
<g filter="url(#filter0_d_38_13455)">
<path d="M79.4769 32.7986C85.5629 37.9167 89.9101 44.9652 92.6099 53.2259C95.2639 61.5315 96.2706 71.0942 92.6556 78.8161C89.0406 86.583 80.8497 92.5092 72.2468 94.3499C63.5983 96.1906 54.4921 93.9009 46.6215 90.2644C38.7508 86.6279 32.1157 81.5996 27.2194 74.8654C22.2774 68.0862 19.12 59.5561 20.2182 51.5199C21.3622 43.4837 26.7618 35.9413 33.763 31.0028C40.7185 26.0194 49.2755 23.64 57.4207 24.0441C65.6117 24.493 73.3908 27.6806 79.4769 32.7986Z" fill="white"/>
</g>
<rect x="31" y="42.7036" width="45" height="29" rx="3" transform="rotate(-6 31 42.7036)" fill="#FFB70A"/>
<path d="M34.4017 46.3681L55.2582 58.2531L73.188 42.2915" stroke="white" stroke-linecap="round"/>
<path d="M75.4877 64.1707L59.1003 54.8325M36.7013 68.2474L50.789 55.7061" stroke="white" stroke-linecap="round"/>
<path fill-rule="evenodd" clip-rule="evenodd" d="M74.0687 61.9487C74.6105 58.9224 77.5031 56.9083 80.5294 57.4502C83.5557 57.992 85.5698 60.8846 85.0279 63.9109C84.9505 64.3433 85.2382 64.7565 85.6706 64.8339C86.1029 64.9113 86.5161 64.6236 86.5935 64.1912C87.2902 60.3003 84.7007 56.5812 80.8097 55.8846C76.9273 55.1894 73.2161 57.766 72.5077 61.6427C72.5059 61.6512 72.5042 61.6597 72.5027 61.6682L71.907 64.9951C71.8296 65.4275 72.1173 65.8407 72.5497 65.9181C72.982 65.9955 73.3952 65.7078 73.4726 65.2755L74.064 61.9727C74.0656 61.9647 74.0672 61.9567 74.0687 61.9487Z" fill="#333333"/>
<rect x="70.1252" y="63.666" width="18.2908" height="15.5074" rx="4" transform="rotate(10.1512 70.1252 63.666)" fill="#FF8500"/>
<path fill-rule="evenodd" clip-rule="evenodd" d="M78.7553 73.0705C79.4095 72.8338 79.9231 72.2643 80.0546 71.5302C80.2507 70.4349 79.5218 69.3881 78.4266 69.192C77.3313 68.9959 76.2845 69.7248 76.0884 70.82C75.957 71.554 76.241 72.2662 76.7722 72.7152L76.2809 75.4595C76.1828 76.0071 76.5473 76.5305 77.0949 76.6286C77.6425 76.7266 78.1659 76.3622 78.264 75.8146L78.7553 73.0705Z" fill="#030062"/>
<defs>
<filter id="filter0_d_38_13455" x="-4" y="0" width="123" height="119" filterUnits="userSpaceOnUse" color-interpolation-filters="sRGB">
<feFlood flood-opacity="0" result="BackgroundImageFix"/>
<feColorMatrix in="SourceAlpha" type="matrix" values="0 0 0 0 0 0 0 0 0 0 0 0 0 0 0 0 0 0 127 0" result="hardAlpha"/>
<feOffset/>
<feGaussianBlur stdDeviation="12"/>
<feColorMatrix type="matrix" values="0 0 0 0 0 0 0 0 0 0 0 0 0 0 0 0 0 0 0.3 0"/>
<feBlend mode="normal" in2="BackgroundImageFix" result="effect1_dropShadow_38_13455"/>
<feBlend mode="normal" in="SourceGraphic" in2="effect1_dropShadow_38_13455" result="shape"/>
</filter>
</defs>
</svg>
