<svg width="72" height="72" viewBox="0 0 72 72" fill="none" xmlns="http://www.w3.org/2000/svg">
<g filter="url(#filter0_d_2_18979)">
<circle cx="36" cy="32" r="30" fill="white"/>
</g>
<rect x="26" y="22.4668" width="22.5333" height="22.5333" rx="4" fill="#FF8500"/>
<path d="M47.492 20.9807L37.5234 30.9492L41.7146 35.1404L51.6832 25.1718L47.492 20.9807Z" fill="#168BC3"/>
<path d="M46.6024 21.8703L38.4141 30.0586L42.6052 34.2498L50.7935 26.0615L46.6024 21.8703Z" fill="#3531B3"/>
<path d="M36.485 34.6755C36.1557 35.8281 36.8143 36.5141 37.9943 36.1848L41.7537 35.1146L37.5552 30.8887L36.485 34.6755Z" fill="#3531B3"/>
<path d="M53.1962 21.3394L51.3302 19.4734C50.6991 18.8422 49.6563 18.8422 48.9977 19.4734L47.4336 21.0375L51.6321 25.236L53.1962 23.6718C53.8548 23.0133 53.8548 21.9705 53.1962 21.3394Z" fill="#3531B3"/>
<defs>
<filter id="filter0_d_2_18979" x="0" y="0" width="72" height="72" filterUnits="userSpaceOnUse" color-interpolation-filters="sRGB">
<feFlood flood-opacity="0" result="BackgroundImageFix"/>
<feColorMatrix in="SourceAlpha" type="matrix" values="0 0 0 0 0 0 0 0 0 0 0 0 0 0 0 0 0 0 127 0" result="hardAlpha"/>
<feOffset dy="4"/>
<feGaussianBlur stdDeviation="3"/>
<feComposite in2="hardAlpha" operator="out"/>
<feColorMatrix type="matrix" values="0 0 0 0 0.207843 0 0 0 0 0.192157 0 0 0 0 0.701961 0 0 0 0.1 0"/>
<feBlend mode="normal" in2="BackgroundImageFix" result="effect1_dropShadow_2_18979"/>
<feBlend mode="normal" in="SourceGraphic" in2="effect1_dropShadow_2_18979" result="shape"/>
</filter>
</defs>
</svg>
