<svg width="49" height="52" viewBox="0 0 49 52" fill="none" xmlns="http://www.w3.org/2000/svg">
<path d="M42.1831 6.8899C46.7308 11.4706 49.3013 18.1425 48.9717 24.4493C48.6422 30.7893 45.4456 36.7641 40.8649 42.0751C36.2842 47.3861 30.3523 52 24.3875 52C18.4557 51.9668 12.5238 47.3529 7.91017 42.0419C3.32947 36.7309 0.066952 30.7561 0.00104253 24.7149C-0.0648669 18.6404 2.99992 12.4996 7.61358 7.9189C12.1943 3.33819 18.2909 0.284377 24.6512 0.0188285C30.9785 -0.24672 37.6024 2.30919 42.1831 6.8899Z" fill="white"/>
<path d="M37.8864 15.6668L41.1412 15.8374C41.6294 15.863 42.007 16.2996 41.9804 16.8078L40.9142 37.1518C40.8876 37.6599 40.4664 38.0547 39.9781 38.0291L24.8877 37.2383C24.3995 37.2127 24.0219 36.776 24.0485 36.2679L24.3939 29.6775L37.8864 15.6668Z" fill="#FF8500"/>
<path d="M38.5053 34.7587L31.9926 34.4174C31.7357 34.4039 31.5383 34.1848 31.5518 33.9278C31.5653 33.6709 31.7845 33.4736 32.0414 33.487L38.5541 33.8283C38.811 33.8418 39.0083 34.0609 38.9949 34.3179C38.9814 34.5749 38.7622 34.7722 38.5053 34.7587Z" fill="white"/>
<path d="M38.6518 31.9675L32.1391 31.6262C31.8822 31.6127 31.6848 31.3936 31.6983 31.1366C31.7117 30.8796 31.9309 30.6823 32.1878 30.6958L38.7005 31.0371C38.9575 31.0505 39.1548 31.2697 39.1414 31.5267C39.1279 31.7836 38.9087 31.9809 38.6518 31.9675Z" fill="white"/>
<path d="M38.7983 29.1765L32.2856 28.8351C32.0287 28.8217 31.8313 28.6025 31.8448 28.3456C31.8582 28.0886 32.0774 27.8913 32.3343 27.9048L38.847 28.2461C39.1039 28.2595 39.3013 28.4787 39.2878 28.7356C39.2744 28.9926 39.0552 29.1899 38.7983 29.1765Z" fill="white"/>
<path d="M38.9448 26.3852L32.4321 26.0439C32.1751 26.0304 31.9778 25.8113 31.9912 25.5543C32.0047 25.2973 32.2239 25.1 32.4808 25.1135L38.9935 25.4548C39.2504 25.4683 39.4478 25.6874 39.4343 25.9444C39.4209 26.2014 39.2017 26.3987 38.9448 26.3852Z" fill="white"/>
<path d="M39.0903 23.5942L32.5776 23.2529C32.3207 23.2394 32.1233 23.0203 32.1368 22.7633C32.1502 22.5063 32.3694 22.309 32.6263 22.3225L39.139 22.6638C39.3959 22.6773 39.5933 22.8964 39.5798 23.1534C39.5664 23.4103 39.3472 23.6076 39.0903 23.5942Z" fill="white"/>
<path d="M39.2367 20.8029L32.7241 20.4616C32.4671 20.4481 32.2698 20.229 32.2832 19.972C32.2967 19.7151 32.5159 19.5178 32.7728 19.5312L39.2855 19.8725C39.5424 19.886 39.7398 20.1051 39.7263 20.3621C39.7128 20.6191 39.4937 20.8164 39.2367 20.8029Z" fill="white"/>
<path fill-rule="evenodd" clip-rule="evenodd" d="M8.99513 14.4725C7.89325 14.5496 7.06246 15.5053 7.13951 16.6072L7.77173 25.6484C7.81314 26.2405 8.11541 26.7836 8.59679 27.1309L10.6523 28.6136L11.4428 39.9193C11.5199 41.0212 12.4756 41.852 13.5775 41.775L29.9819 40.6279C31.0837 40.5508 31.9145 39.5951 31.8375 38.4932L30.1943 14.995C30.1173 13.8932 29.1616 13.0624 28.0597 13.1394L9.66017 14.426L8.99513 14.4725Z" fill="#FFB70A"/>
<path d="M35.3788 34.4029L16.6011 33.0899C15.9126 33.0417 15.3898 32.4238 15.4392 31.7166L17.0576 8.5731C17.107 7.86594 17.7108 7.32675 18.3993 7.37489L37.177 8.68795C37.8655 8.7361 38.3884 9.35408 38.3389 10.0612L36.7206 33.2047C36.6711 33.9119 36.0673 34.4511 35.3788 34.4029Z" fill="#030062"/>
<path d="M29.1084 24.1629C28.4237 24.5715 25.0783 24.3375 24.4572 23.8376C23.2153 25.2249 19.7531 24.1803 19.506 27.7142L19.3889 29.3885C19.3847 29.4486 19.4323 29.5009 19.4951 29.5053L33.2333 30.466C33.2962 30.4704 33.3506 30.4252 33.3548 30.3651L33.4719 28.6908C33.719 25.1569 30.145 25.7095 29.1084 24.1629Z" fill="#3531B3"/>
<path d="M32.3077 16.6649C32.4733 14.2975 30.3744 12.2221 27.6197 12.0294C24.865 11.8368 22.4976 13.5999 22.3321 15.9674L22.1643 18.3672C21.9987 20.7346 24.0976 22.81 26.8523 23.0027C29.6071 23.1953 31.9744 21.4322 32.1399 19.0647C32.1764 18.5423 32.2712 17.1873 32.3077 16.6649Z" fill="#3531B3"/>
</svg>
