<svg width="60" height="60" viewBox="0 0 60 60" fill="none" xmlns="http://www.w3.org/2000/svg">
<circle cx="30" cy="30" r="30" fill="white"/>
<path d="M20.3972 38.8208L19.5157 39.7023C19.2829 39.9351 18.9056 39.9351 18.6728 39.7023L16.837 37.8665C16.6042 37.6337 16.6042 37.2564 16.837 37.0236L17.7185 36.1421C17.9513 35.9093 18.3286 35.9093 18.5614 36.1421L20.3972 37.9779C20.6309 38.2098 20.63 38.588 20.3972 38.8208Z" fill="#534ED9"/>
<path d="M22.4148 34.1237L21.5332 35.0053C21.3004 35.2381 20.9232 35.2381 20.6903 35.0053L18.8546 33.1695C18.6217 32.9367 18.6217 32.5594 18.8546 32.3266L19.7361 31.4451C19.9689 31.2122 20.3462 31.2122 20.579 31.4451L22.4148 33.2808C22.6476 33.5136 22.6476 33.8909 22.4148 34.1237Z" fill="#534ED9"/>
<path d="M39.3457 19.872L40.2273 18.9904C40.4601 18.7576 40.4601 18.3803 40.2273 18.1475L38.3915 16.3118C38.1587 16.0789 37.7814 16.0789 37.5486 16.3118L36.6671 17.1933C36.4342 17.4261 36.4342 17.8034 36.6671 18.0362L38.5028 19.872C38.7357 20.1048 39.1129 20.1048 39.3457 19.872Z" fill="#534ED9"/>
<path d="M34.6504 21.888L35.532 21.0064C35.7648 20.7736 35.7648 20.3963 35.532 20.1635L33.6962 18.3277C33.4634 18.0949 33.0861 18.0949 32.8533 18.3277L31.9717 19.2093C31.7389 19.4421 31.7389 19.8194 31.9717 20.0522L33.8075 21.888C34.0403 22.1208 34.4176 22.1208 34.6504 21.888Z" fill="#534ED9"/>
<path d="M31.1973 30.6719L20.7788 44.5632C20.3602 45.1218 19.543 45.1807 19.0489 44.6865L17.6373 43.2749C16.9269 42.5645 16.7226 41.4916 17.1211 40.5686L24.3602 23.8331L31.1982 30.671L31.1973 30.6719Z" fill="#168BC3"/>
<path d="M31.1958 30.6715L45.087 20.2531C45.6465 19.8335 45.7036 19.0163 45.2094 18.5222L43.7978 17.1106C43.0874 16.4002 42.0145 16.1959 41.0915 16.5944L24.356 23.8336L31.1948 30.6724L31.1958 30.6715Z" fill="#168BC3"/>
<path d="M42.331 41.8069L37.2064 48.4995C37.0408 48.7148 36.7233 48.736 36.5319 48.5446L35.6853 47.698C35.1396 47.1523 34.9952 46.3232 35.3237 45.6248L38.7109 38.4317L42.331 41.8069Z" fill="#168BC3"/>
<path d="M42.3312 41.807L49.0237 36.6824C49.2391 36.5168 49.2602 36.1993 49.0688 36.0079L48.2222 35.1613C47.6766 34.6157 46.8475 34.4712 46.149 34.7997L38.9559 38.1869L42.3312 41.807Z" fill="#168BC3"/>
<path d="M24.2074 18.1927L23.7105 17.9405C22.1498 17.1492 20.4134 16.7673 18.6641 16.8308C17.9537 16.8566 17.3832 17.4271 17.3565 18.1384C17.293 19.8877 17.6749 21.6241 18.4663 23.1847L18.7184 23.6816C19.161 24.5549 19.7684 25.3334 20.5073 25.9766L38.8992 41.976C39.7577 42.7223 40.8427 43.1576 41.9782 43.2109C42.9683 43.2569 43.7827 42.4426 43.7367 41.4524C43.6842 40.316 43.249 39.2311 42.5018 38.3735L26.5023 19.9815C25.8591 19.2426 25.0806 18.6353 24.2074 18.1927Z" fill="#3531B3"/>
</svg>
