<svg width="49" height="52" viewBox="0 0 49 52" fill="none" xmlns="http://www.w3.org/2000/svg">
<path d="M42.1831 6.8899C46.7308 11.4706 49.3013 18.1425 48.9717 24.4493C48.6422 30.7893 45.4456 36.7641 40.8649 42.0751C36.2842 47.3861 30.3523 52 24.3875 52C18.4557 51.9668 12.5238 47.3529 7.91017 42.0419C3.32947 36.7309 0.066952 30.7561 0.00104253 24.7149C-0.0648669 18.6404 2.99992 12.4996 7.61358 7.9189C12.1943 3.33819 18.2909 0.284377 24.6512 0.0188285C30.9785 -0.24672 37.6024 2.30919 42.1831 6.8899Z" fill="white"/>
<path fill-rule="evenodd" clip-rule="evenodd" d="M10.9951 10.4728C9.89325 10.5498 9.06246 11.5056 9.13951 12.6074L9.77173 21.6486C9.81314 22.2407 10.1154 22.7839 10.5968 23.1311L12.6523 24.6139L13.4428 35.9196C13.5199 37.0215 14.4756 37.8523 15.5775 37.7752L31.9819 36.6281C33.0837 36.5511 33.9145 35.5953 33.8375 34.4935L32.1943 10.9953C32.1173 9.89341 31.1616 9.06262 30.0597 9.13967L11.6602 10.4263L10.9951 10.4728Z" fill="#FFB70A"/>
<path d="M36.4374 42.8285L17.7542 40.5345C17.0691 40.4504 16.5793 39.8059 16.6657 39.1023L19.4931 16.0752C19.5795 15.3716 20.2106 14.8647 20.8957 14.9488L39.5789 17.2428C40.264 17.327 40.7538 17.9715 40.6674 18.6751L37.84 41.7021C37.7536 42.4057 37.1224 42.9126 36.4374 42.8285Z" fill="#3531B3"/>
<g clip-path="url(#clip0_38_1766)">
<path d="M24.8137 25.1114C25.1071 25.1474 25.387 25.0623 25.6064 24.8974L26.6166 25.5676C26.6058 25.6108 26.5925 25.6529 26.587 25.6982C26.5131 26.2996 26.9424 26.849 27.5438 26.9228C28.1452 26.9967 28.6946 26.5675 28.7685 25.966C28.7891 25.7982 28.7671 25.6359 28.7165 25.4853L30.3558 24.2046C30.4896 24.2901 30.6417 24.3507 30.8096 24.3713C31.411 24.4452 31.9604 24.0159 32.0343 23.4145C32.0482 23.3013 32.0391 23.1915 32.0195 23.0848L33.4048 22.2894C33.5637 22.4262 33.7628 22.5196 33.9861 22.547C34.5875 22.6208 35.1369 22.1916 35.2108 21.5902C35.2846 20.9887 34.8554 20.4393 34.254 20.3655C33.6525 20.2916 33.1031 20.7209 33.0293 21.3223C33.0154 21.4356 33.0245 21.5454 33.0441 21.6521L31.6587 22.4475C31.4998 22.3106 31.3007 22.2173 31.0775 22.1898C30.476 22.116 29.9266 22.5452 29.8528 23.1467C29.8322 23.3145 29.8542 23.4768 29.9048 23.6274L28.2655 24.9081C28.1316 24.8226 27.9795 24.762 27.8117 24.7414C27.5183 24.7053 27.2384 24.7904 27.019 24.9553L26.0088 24.2851C26.0196 24.2419 26.0328 24.1998 26.0384 24.1546C26.1122 23.5531 25.683 23.0037 25.0816 22.9299C24.4802 22.8561 23.9308 23.2853 23.8569 23.8867C23.7831 24.4881 24.2123 25.0375 24.8137 25.1114Z" fill="#FF8500"/>
<path d="M34.2978 32.23L33.91 32.1824L34.8535 24.4987C34.8781 24.2978 34.7354 24.1152 34.5345 24.0905L33.0802 23.9119C32.8793 23.8873 32.6966 24.03 32.672 24.2309L31.7285 31.9146L31.0014 31.8253L31.677 26.3231C31.7016 26.1222 31.5589 25.9395 31.358 25.9148L29.9037 25.7363C29.7028 25.7116 29.5201 25.8543 29.4955 26.0552L28.8199 31.5574L28.0927 31.4681L28.4112 28.8746C28.4358 28.6737 28.2931 28.491 28.0922 28.4664L26.6379 28.2878C26.437 28.2631 26.2543 28.4058 26.2297 28.6067L25.9112 31.2003L25.1841 31.111L25.6811 27.0631C25.7058 26.8622 25.5631 26.6796 25.3621 26.6549L23.9078 26.4763C23.7069 26.4517 23.5243 26.5944 23.4996 26.7953L23.0026 30.8431L22.6148 30.7955C22.4138 30.7709 22.2312 30.9135 22.2065 31.1145C22.1819 31.3154 22.3246 31.498 22.5255 31.5227L34.2086 32.9572C34.4095 32.9819 34.5921 32.8392 34.6168 32.6383C34.6415 32.4373 34.4988 32.2547 34.2978 32.23Z" fill="#FF8500"/>
</g>
<rect x="20.9624" y="35.1074" width="14" height="1" rx="0.5" transform="rotate(7 20.9624 35.1074)" fill="white"/>
<rect x="20.7188" y="37.0923" width="14" height="1" rx="0.5" transform="rotate(7 20.7188 37.0923)" fill="white"/>
<defs>
<clipPath id="clip0_38_1766">
<rect width="12.5034" height="12.5034" fill="white" transform="translate(23.6858 19.0679) rotate(7)"/>
</clipPath>
</defs>
</svg>
