<svg width="49" height="52" viewBox="0 0 49 52" fill="none" xmlns="http://www.w3.org/2000/svg">
<path d="M42.1831 6.8899C46.7308 11.4706 49.3013 18.1425 48.9717 24.4493C48.6422 30.7893 45.4456 36.7641 40.8649 42.0751C36.2842 47.3861 30.3523 52 24.3875 52C18.4557 51.9668 12.5238 47.3529 7.91017 42.0419C3.32947 36.7309 0.066952 30.7561 0.00104253 24.7149C-0.0648669 18.6404 2.99992 12.4996 7.61358 7.9189C12.1943 3.33819 18.2909 0.284377 24.6512 0.0188285C30.9785 -0.24672 37.6024 2.30919 42.1831 6.8899Z" fill="white"/>
<path fill-rule="evenodd" clip-rule="evenodd" d="M10.9951 10.4728C9.89325 10.5498 9.06246 11.5056 9.13951 12.6074L9.77173 21.6486C9.81314 22.2407 10.1154 22.7839 10.5968 23.1311L12.6523 24.6139L13.4428 35.9196C13.5199 37.0215 14.4756 37.8523 15.5775 37.7752L31.9819 36.6281C33.0837 36.5511 33.9145 35.5953 33.8375 34.4935L32.1943 10.9953C32.1173 9.89341 31.1616 9.06262 30.0597 9.13967L11.6602 10.4263L10.9951 10.4728Z" fill="#FFB70A"/>
<path d="M36.4376 42.8285L17.7544 40.5345C17.0694 40.4504 16.5796 39.8059 16.6659 39.1023L19.4933 16.0752C19.5797 15.3716 20.2109 14.8647 20.8959 14.9488L39.5792 17.2428C40.2642 17.327 40.754 17.9715 40.6676 18.6751L37.8403 41.7021C37.7539 42.4057 37.1227 42.9126 36.4376 42.8285Z" fill="#3531B3"/>
<g clip-path="url(#clip0_71_5403)">
<path d="M24.814 25.1114C25.1073 25.1474 25.3872 25.0623 25.6066 24.8974L26.6168 25.5676C26.606 25.6108 26.5928 25.6529 26.5872 25.6982C26.5134 26.2996 26.9426 26.849 27.5441 26.9228C28.1455 26.9967 28.6949 26.5675 28.7687 25.966C28.7893 25.7982 28.7674 25.6359 28.7167 25.4853L30.356 24.2046C30.4899 24.2901 30.642 24.3507 30.8098 24.3713C31.4113 24.4452 31.9607 24.0159 32.0345 23.4145C32.0484 23.3013 32.0393 23.1915 32.0197 23.0848L33.4051 22.2894C33.564 22.4262 33.7631 22.5196 33.9863 22.547C34.5878 22.6208 35.1372 22.1916 35.211 21.5902C35.2849 20.9887 34.8556 20.4393 34.2542 20.3655C33.6528 20.2916 33.1034 20.7209 33.0295 21.3223C33.0156 21.4356 33.0247 21.5454 33.0443 21.6521L31.659 22.4475C31.5001 22.3106 31.301 22.2173 31.0777 22.1898C30.4763 22.116 29.9269 22.5452 29.853 23.1467C29.8324 23.3145 29.8544 23.4768 29.905 23.6274L28.2657 24.9081C28.1319 24.8226 27.9798 24.762 27.8119 24.7414C27.5186 24.7053 27.2386 24.7904 27.0193 24.9553L26.0091 24.2851C26.0198 24.2419 26.0331 24.1998 26.0386 24.1546C26.1125 23.5531 25.6832 23.0037 25.0818 22.9299C24.4804 22.8561 23.931 23.2853 23.8572 23.8867C23.7833 24.4881 24.2125 25.0375 24.814 25.1114Z" fill="#FF8500"/>
<path d="M34.2983 32.23L33.9105 32.1824L34.8539 24.4987C34.8786 24.2978 34.7359 24.1152 34.535 24.0905L33.0807 23.9119C32.8798 23.8873 32.6971 24.03 32.6725 24.2309L31.729 31.9146L31.0019 31.8253L31.6774 26.3231C31.7021 26.1222 31.5594 25.9395 31.3585 25.9148L29.9042 25.7363C29.7033 25.7116 29.5206 25.8543 29.496 26.0552L28.8204 31.5574L28.0932 31.4681L28.4117 28.8746C28.4363 28.6737 28.2936 28.491 28.0927 28.4664L26.6384 28.2878C26.4375 28.2631 26.2548 28.4058 26.2302 28.6067L25.9117 31.2003L25.1846 31.111L25.6816 27.0631C25.7062 26.8622 25.5635 26.6796 25.3626 26.6549L23.9083 26.4763C23.7074 26.4517 23.5248 26.5944 23.5001 26.7953L23.0031 30.8431L22.6152 30.7955C22.4143 30.7709 22.2317 30.9135 22.207 31.1145C22.1824 31.3154 22.325 31.498 22.526 31.5227L34.209 32.9572C34.41 32.9819 34.5926 32.8392 34.6173 32.6383C34.6419 32.4373 34.4992 32.2547 34.2983 32.23Z" fill="#FF8500"/>
</g>
<rect x="20.9629" y="35.1074" width="14" height="1" rx="0.5" transform="rotate(7 20.9629 35.1074)" fill="white"/>
<rect x="20.7188" y="37.0923" width="14" height="1" rx="0.5" transform="rotate(7 20.7188 37.0923)" fill="white"/>
<defs>
<clipPath id="clip0_71_5403">
<rect width="12.5034" height="12.5034" fill="white" transform="translate(23.686 19.0679) rotate(7)"/>
</clipPath>
</defs>
</svg>
