<svg width="228" height="228" viewBox="0 0 228 228" fill="none" xmlns="http://www.w3.org/2000/svg">
<path d="M118.652 192.293C99.1697 192.984 79.1677 184.99 65.9617 171.307C52.6826 157.556 46.1313 138.189 43.9016 117.113C41.6719 96.0358 43.7688 73.3907 56.0932 60.1472C68.4225 47.045 90.8382 43.3495 112.065 44.0122C133.224 44.7481 153.121 49.774 166.559 62.0336C180.071 74.3613 187.26 93.7764 187.814 113.427C188.435 133.004 182.563 152.811 170.006 167.478C157.517 182.072 138.203 191.53 118.652 192.293Z" fill="#221F7A"/>
<path d="M191.791 111.624C191.791 147.562 155.727 188.35 118.798 188.35C81.869 188.35 43.9519 147.562 43.9519 111.624C43.9519 75.562 81.869 44.3496 118.798 44.3496C155.727 44.3496 191.791 75.562 191.791 111.624Z" fill="#534ED9"/>
<rect width="71.3434" height="124.302" rx="7" transform="matrix(0.984755 -0.173947 0.17335 0.98486 62.2241 39.9971)" fill="#C36600"/>
<rect width="71.3434" height="124.302" rx="7" transform="matrix(0.984755 -0.173947 0.17335 0.98486 64.2393 36.7593)" fill="#FF8500"/>
<rect width="61.2711" height="103.304" rx="7" transform="matrix(0.984755 -0.173947 0.173349 0.98486 71.4807 44.0093)" fill="#3531B3"/>
<path d="M127 146C127 148.209 125.209 150 123 150C120.791 150 119 148.209 119 146C119 143.791 120.791 142 123 142C125.209 142 127 143.791 127 146Z" fill="white"/>
<path d="M99.8796 50.7582L85.5791 53.2798L88.1007 67.5803" stroke="white" stroke-width="3" stroke-linecap="round" stroke-linejoin="round"/>
<path d="M127.76 124.861L142.06 122.34L139.538 108.039" stroke="white" stroke-width="3" stroke-linecap="round" stroke-linejoin="round"/>
<path d="M112.988 48.4469L127.289 45.9253L129.81 60.2258" stroke="white" stroke-width="3" stroke-linecap="round" stroke-linejoin="round"/>
<path d="M114.651 127.173L100.35 129.694L97.8285 115.394" stroke="white" stroke-width="3" stroke-linecap="round" stroke-linejoin="round"/>
<circle cx="103.349" cy="80.5448" r="1.52523" transform="rotate(-10 103.349 80.5448)" fill="white" stroke="#FFB70A" stroke-width="3"/>
<circle cx="120.033" cy="77.6029" r="1.52523" transform="rotate(-10 120.033 77.6029)" fill="white" stroke="#FFB70A" stroke-width="3"/>
<path d="M127.077 86.1914C128.411 93.7603 123.358 100.978 115.789 102.313C108.22 103.647 101.002 98.5933 99.6675 91.0244" stroke="#FFB70A" stroke-width="3" stroke-linecap="round"/>
<path d="M99.8796 50.7582L85.5791 53.2798L88.1007 67.5803" stroke="white" stroke-width="3" stroke-linecap="round" stroke-linejoin="round"/>
<path d="M127.76 124.861L142.06 122.34L139.538 108.039" stroke="white" stroke-width="3" stroke-linecap="round" stroke-linejoin="round"/>
<path d="M112.988 48.4469L127.289 45.9253L129.81 60.2258" stroke="white" stroke-width="3" stroke-linecap="round" stroke-linejoin="round"/>
<path d="M114.651 127.173L100.35 129.694L97.8285 115.394" stroke="white" stroke-width="3" stroke-linecap="round" stroke-linejoin="round"/>
<circle cx="103.349" cy="80.5448" r="1.52523" transform="rotate(-10 103.349 80.5448)" fill="white" stroke="#FFB70A" stroke-width="3"/>
<circle cx="120.033" cy="77.6029" r="1.52523" transform="rotate(-10 120.033 77.6029)" fill="white" stroke="#FFB70A" stroke-width="3"/>
<path d="M127.077 86.1914C128.411 93.7603 123.358 100.978 115.789 102.313C108.22 103.647 101.002 98.5933 99.6675 91.0244" stroke="#FFB70A" stroke-width="3" stroke-linecap="round"/>
<path d="M177.497 94.9334L160.566 85.6645C160.329 85.5347 160.059 85.4773 159.79 85.4995L140.553 87.0808C139.945 87.1307 139.442 87.5734 139.315 88.1699L135.087 108.062C134.537 110.649 135.022 113.521 136.527 116.596C137.677 118.945 139.43 121.43 141.737 123.984C145.613 128.274 149.692 131.267 149.864 131.392C150.023 131.508 150.203 131.588 150.391 131.628C150.579 131.668 150.776 131.668 150.968 131.627C151.176 131.582 156.119 130.507 161.405 128.164C164.552 126.77 167.164 125.212 169.17 123.534C171.796 121.337 173.406 118.911 173.956 116.324L178.184 96.4317C178.311 95.8352 178.032 95.2262 177.497 94.9334Z" fill="#0070A6"/>
<path d="M175.748 93.5394L158.818 84.2705C158.581 84.1406 158.311 84.0833 158.042 84.1054L138.805 85.6867C138.197 85.7367 137.694 86.1794 137.567 86.7758L133.339 106.668C132.789 109.255 133.273 112.127 134.779 115.202C135.928 117.551 137.682 120.036 139.989 122.59C143.865 126.88 147.944 129.873 148.116 129.998C148.274 130.114 148.454 130.193 148.642 130.233C148.831 130.273 149.027 130.274 149.219 130.233C149.427 130.188 154.371 129.113 159.657 126.77C162.803 125.376 165.416 123.818 167.421 122.14C170.047 119.943 171.658 117.517 172.208 114.93L176.436 95.0376C176.563 94.4412 176.283 93.8322 175.748 93.5394Z" fill="#168BC3"/>
<path d="M163.935 101.863L149.265 112.039L145.055 105.101" stroke="white" stroke-width="3" stroke-linecap="round" stroke-linejoin="round"/>
<path d="M206.464 176.33C220.879 167.996 224.591 152.485 216.911 145.856C209.275 139.267 192.35 143.141 188.968 159.979C186.928 170.136 179.805 175.284 174.476 177.769C172.831 178.536 173.169 180.941 174.953 181.196C188.349 183.108 198.882 180.713 206.46 176.333C206.462 176.332 206.462 176.332 206.464 176.33Z" fill="#221F7A"/>
<path d="M5.01262 122.502C-2.49309 133.506 21.966 174.784 53.6787 165.163C55.236 164.69 55.3203 162.528 53.8127 161.916C48.3156 159.688 39.6525 153.92 36.4014 139.276C33.263 125.148 23.8057 118.62 15.8069 118.042C11.2681 117.715 7.19777 119.303 5.01262 122.502Z" fill="#FF8500"/>
<path d="M30.947 112.736C30.947 112.736 36.1678 112.373 35.9893 105.294C35.8188 98.2185 40.1403 97.5072 38.3577 94.5875C36.5725 91.6625 23.5838 96.7009 22.5261 103.025C21.4762 109.351 28.6396 113.604 30.947 112.736Z" fill="white"/>
<ellipse rx="8.42124" ry="17.656" transform="matrix(0.891507 0.453007 -0.452226 0.891903 171.323 26.9119)" fill="#FFB70A"/>
<ellipse cx="185.299" cy="54.8496" rx="8.49078" ry="8.5" fill="#FF8500"/>
</svg>
