<svg width="60" height="60" viewBox="0 0 60 60" fill="none" xmlns="http://www.w3.org/2000/svg">
<circle cx="30" cy="30" r="30" fill="white"/>
<path d="M37.2508 32.1795C41.2497 28.1974 41.2497 21.7182 37.2508 17.7362C33.2524 13.7546 26.7476 13.7546 22.7492 17.7362C18.7503 21.7182 18.7503 28.1974 22.7492 32.1795C24.3853 33.8087 26.4414 34.771 28.5729 35.0669V37.9322H26.4689C25.6818 37.9322 25.0419 38.5679 25.0419 39.3543C25.0419 40.1406 25.6818 40.7763 26.4689 40.7763H28.5729V43.8279C28.573 44.6143 29.2128 45.25 30 45.25C30.7872 45.25 31.427 44.6143 31.427 43.8279V40.7763H33.5311C34.3182 40.7763 34.9581 40.1406 34.9581 39.3543C34.9581 38.5679 34.3182 37.9322 33.5311 37.9322H31.427V35.067C33.5586 34.771 35.6147 33.8087 37.2508 32.1795ZM24.7666 30.1677C21.8817 27.295 21.8817 22.6207 24.7666 19.748C27.652 16.8748 32.3479 16.8746 35.2335 19.748C38.1183 22.6207 38.1183 27.295 35.2335 30.1677C32.348 33.0409 27.6521 33.0409 24.7666 30.1677Z" fill="#B22DA4" stroke="#B22DA4" stroke-width="0.5"/>
</svg>
