<svg width="60" height="60" viewBox="0 0 60 60" fill="none" xmlns="http://www.w3.org/2000/svg">
<circle cx="30" cy="30" r="30" fill="white"/>
<path d="M38.3842 18.7531C38.384 19.1866 38.1275 19.5661 37.8623 19.8885C36.0984 22.0347 32.241 24.1713 29.9051 22.4402C30.1919 22.4095 30.9224 22.4782 31.5091 22.3976C32.9021 22.2087 33.917 20.8431 34.7601 19.6103C35.2767 18.8553 35.571 16.6 36.4766 16.3641C37.3403 16.1378 38.3842 17.89 38.3842 18.7531Z" fill="#C36600"/>
<path d="M30.542 19.4006C31.2625 18.118 31.9589 17.3162 32.8598 16.4265C33.7607 15.5381 34.9408 14.905 36.1479 14.9911C36.2915 15.0009 36.4392 15.0236 36.5624 15.1023C36.704 15.1936 36.7985 15.3483 36.8882 15.4989C37.3851 16.3281 38.3779 17.4638 38.3836 18.5698C36.3074 18.2108 34.0536 18.7833 32.2431 19.9626C30.8919 20.8442 29.9883 22.5792 29.8526 22.5674C28.5679 22.4509 30.2038 20.0045 30.542 19.4006Z" fill="#FF8500"/>
<path d="M21.2608 19.237C21.2646 19.6694 21.5262 20.0441 21.7947 20.3601C23.5795 22.467 27.4572 24.5206 29.7759 22.7376C29.4891 22.713 28.7579 22.7976 28.1716 22.73C26.7765 22.5707 25.7484 21.2279 24.8925 20.0149C24.3676 19.2705 24.0522 17.0226 23.1442 16.8062C22.2793 16.6002 21.2531 18.3745 21.2608 19.237Z" fill="#C36600"/>
<path d="M29.1105 19.7134C28.3783 18.446 27.6735 17.6592 26.7633 16.7905C25.8532 15.9218 24.668 15.3145 23.462 15.4283C23.3181 15.4411 23.1721 15.4663 23.0489 15.5496C22.9082 15.643 22.8145 15.8012 22.7263 15.9535C22.2372 16.7933 21.2565 17.9502 21.2622 19.0562C23.3339 18.6522 25.5943 19.1745 27.4161 20.3152C28.777 21.1669 29.6973 22.8831 29.8323 22.8672C31.1155 22.7185 29.4554 20.3098 29.1105 19.7134Z" fill="#FF8500"/>
<path d="M42.4808 39.0376C42.4945 41.7932 40.2743 44.0478 37.5174 44.078L22.8288 44.2391C20.0617 44.2694 17.8036 42.0482 17.7899 39.2825L17.733 27.8223C17.7193 25.0666 19.9394 22.8121 22.6964 22.7818L37.385 22.6208C40.152 22.5904 42.4101 24.8116 42.4239 27.5773L42.4808 39.0376Z" fill="#534ED9"/>
<path d="M44.103 25.9711C44.1086 27.0735 43.2205 27.9755 42.1176 27.9876L18.0523 28.2507C16.9455 28.2628 16.0422 27.3742 16.0368 26.2678L16.0299 24.8487C16.0246 23.7465 16.9126 22.8448 18.0154 22.8327L42.0803 22.5695C43.187 22.5574 44.0901 23.4457 44.0958 24.5519L44.103 25.9711Z" fill="#3531B3"/>
<path d="M31.4762 44.1446L28.4201 44.1773L28.3121 22.4521C28.3111 22.2321 28.4774 22.0513 28.6836 22.049L30.9934 22.0244C31.1997 22.0221 31.3673 22.1994 31.3683 22.4193L31.4762 44.1446Z" fill="#FF8500"/>
<path opacity="0.5" d="M17.7421 28.3425L42.4249 27.9857L42.4345 29.9174L17.7359 30.2266L17.7421 28.3425Z" fill="#030062"/>
</svg>
