<svg width="57" height="13" viewBox="0 0 57 13" fill="none" xmlns="http://www.w3.org/2000/svg">
<path d="M6.81265 0.59082C10.1557 0.59082 12.8657 3.23595 12.8657 6.49889C12.8657 9.76199 10.1557 12.4071 6.81265 12.4071C3.46979 12.4071 0.759766 9.76199 0.759766 6.49889C0.759766 3.23595 3.46979 0.59082 6.81265 0.59082Z" fill="#00AED6"/>
<path fill-rule="evenodd" clip-rule="evenodd" d="M10.3433 6.31684C10.2972 5.565 9.6414 4.98845 8.87047 5.02201H5.04712C4.90765 5.02201 4.79476 4.91176 4.79476 4.77584C4.79476 4.63992 4.90765 4.52968 5.04712 4.52968H8.92091C8.89823 4.02007 8.54179 3.58269 8.0381 3.4466C6.90886 3.24957 5.75272 3.24957 4.62331 3.4466C3.98152 3.6005 3.50136 4.12175 3.41267 4.76112C3.23614 5.91987 3.23614 7.09795 3.41267 8.2567C3.5479 8.93321 4.09864 9.45686 4.79476 9.57139C6.19497 9.7436 7.61159 9.7436 9.01162 9.57139C9.63548 9.44796 10.1075 8.94759 10.182 8.33065C10.3101 7.66697 10.3641 6.99182 10.3433 6.31684ZM9.08237 7.144V7.36072C9.08237 7.49664 8.96948 7.60688 8.83019 7.60688C8.6909 7.60688 8.57801 7.49664 8.57801 7.36072V7.144C8.49643 7.07467 8.45039 6.97384 8.45175 6.86839C8.45175 6.66434 8.62117 6.49898 8.83019 6.49898C9.03904 6.49898 9.20846 6.66434 9.20846 6.86839C9.20728 6.97333 9.16158 7.07313 9.08237 7.144Z" fill="white"/>
<path d="M30.1065 5.83438C30.1148 4.79837 29.2611 3.95204 28.1997 3.94382C27.1385 3.93578 26.2713 4.76893 26.263 5.80493C26.2547 6.84094 27.1082 7.68727 28.1696 7.69531C28.1797 7.69549 28.1897 7.69549 28.1997 7.69531C29.2067 7.74804 30.0669 6.99397 30.1209 6.01104C30.1241 5.95215 30.1242 5.89326 30.1215 5.83438H30.1065ZM24.3965 5.83438C24.3965 3.86491 25.9905 2.36328 28.1997 2.36328C30.4091 2.36328 32.0029 3.87483 32.0029 5.83438C32.0029 7.79392 30.4241 9.31026 28.1997 9.31026C25.9752 9.31026 24.3965 7.79888 24.3965 5.83438Z" fill="black"/>
<path d="M21.3695 6.19356C21.3695 7.00599 20.5223 7.6707 19.4479 7.6707C18.4611 7.76793 17.5804 7.06608 17.4807 6.103C17.4705 6.0056 17.4688 5.90734 17.4756 5.80959C17.4756 4.73627 18.2826 3.99778 19.5235 3.99778C20.5322 3.99778 21.3695 4.67225 21.3695 5.43538V6.19356ZM21.4453 2.35818V3.13621C20.8313 2.59202 20.0182 2.31316 19.1906 2.36315C17.2336 2.38078 15.6617 3.94369 15.6798 5.85393C15.698 7.76417 17.2991 9.29832 19.2561 9.28068C20.0619 9.31578 20.8462 9.02134 21.42 8.46825V9.13295C21.42 10.0339 20.6231 10.6936 19.5739 10.6936C18.7725 10.7501 17.9833 10.479 17.3949 9.94522L16.1691 11.0975C17.0882 11.9779 18.3374 12.4514 19.6244 12.407C21.7732 12.407 23.246 10.9989 23.246 9.12302V2.35818H21.4453Z" fill="black"/>
<path d="M33.1123 2.56017H34.918V3.141H34.9432C35.5353 2.61427 36.317 2.33815 37.1174 2.37307C39.0828 2.44531 40.616 4.05889 40.542 5.97734C40.4718 7.79429 38.9788 9.25158 37.1174 9.32005C36.3528 9.33734 35.6065 9.09152 35.0089 8.62573V11.9147H33.1275L33.1123 2.56017ZM36.8248 3.99777C35.8159 3.99777 34.9937 4.68217 34.9937 5.42545V6.25757C34.9937 7.05032 35.8059 7.7051 36.835 7.7051C37.8838 7.75783 38.7778 6.97072 38.8319 5.94704C38.8859 4.92319 38.0796 4.0505 37.0306 3.99777C36.9654 3.99452 36.9001 3.99452 36.835 3.99777H36.8248Z" fill="black"/>
<path d="M44.1541 5.1992C45.3899 5.03658 45.7581 4.86437 45.7581 4.52953C45.7581 4.09626 45.2891 3.83538 44.5627 3.83538C43.7797 3.77273 43.0668 4.27635 42.883 5.02185L41.1074 4.66254C41.3598 3.32337 42.772 2.36816 44.5122 2.36816C46.4794 2.36816 47.7002 3.35281 47.7002 4.94807V9.12804H46.0104V8.39931H45.9852C45.4118 9.02927 44.5715 9.36393 43.7103 9.30521C42.2223 9.30521 41.1882 8.51263 41.1882 7.33592C41.1882 6.1592 42.0356 5.48474 44.1541 5.1992ZM45.9095 5.89335H45.8843C45.7178 6.12958 45.3798 6.26756 44.4467 6.42505C43.342 6.62687 42.9335 6.83863 42.9335 7.22259C42.9335 7.60673 43.2613 7.79383 43.9725 7.79383C45.057 7.79383 45.8943 7.30151 45.8943 6.67617L45.9095 5.89335Z" fill="black"/>
<path d="M51.1045 8.75911L47.9922 2.56055H50.0653L52.1082 6.85366H52.1385L54.1561 2.56055H56.2394L51.5786 11.9151H49.5054L51.1045 8.75911Z" fill="black"/>
</svg>
