<svg width="60" height="60" viewBox="0 0 60 60" fill="none" xmlns="http://www.w3.org/2000/svg">
<circle cx="30" cy="30" r="30" fill="white"/>
<g clip-path="url(#clip0_2_20387)">
<path d="M29.9964 19.2539C24.0895 19.2533 19.2394 24.1092 19.25 30.0137C19.2607 35.9213 24.0688 40.7359 29.9801 40.7585C35.8751 40.781 40.7309 35.9339 40.7422 30.0143C40.7541 24.1111 35.9039 19.2545 29.9964 19.2539Z" fill="#FFB70A"/>
<path d="M29.06 14C29.6848 14 30.3096 14 30.9344 14C31.0252 14.0182 31.1153 14.0401 31.2067 14.0539C32.0788 14.1892 32.966 14.2625 33.8218 14.4673C42.0308 16.4342 47.3197 24.6871 45.7133 32.9952C45.0453 36.4485 43.4331 39.3927 40.8362 41.7586C37.1318 45.1337 32.7537 46.4798 27.7934 45.849C24.6337 45.4475 21.8502 44.1502 19.463 42.0411C16.6514 39.5568 14.8928 36.4655 14.246 32.759C14.1409 32.1577 14.0808 31.5482 14 30.9431C14 30.3179 14 29.6927 14 29.0676C14.0194 28.9573 14.0426 28.8477 14.057 28.7369C14.1327 28.1593 14.1778 27.5761 14.2861 27.0055C14.8915 23.8177 16.3421 21.0634 18.6216 18.7607C21.0132 16.3453 23.8849 14.825 27.2406 14.2462C27.8429 14.1428 28.4533 14.0808 29.06 14ZM42.6186 30.0022C42.6168 23.0622 36.9302 17.3745 29.9947 17.3763C23.0585 17.3782 17.3739 23.0679 17.3757 30.0072C17.3776 36.9472 23.0642 42.6349 29.9997 42.6331C36.9359 42.6312 42.6205 36.9415 42.6186 30.0022Z" fill="#FFB70A"/>
<path d="M42.6179 30.0009C42.6198 36.9402 36.9351 42.6299 29.999 42.6317C23.0634 42.6336 17.3769 36.9458 17.375 30.0059C17.3731 23.0665 23.0578 17.3769 29.9939 17.375C36.9295 17.3731 42.616 23.0609 42.6179 30.0009ZM29.9971 19.2511C24.0902 19.2505 19.24 24.1064 19.2507 30.0109C19.2613 35.9185 24.0695 40.7331 29.9808 40.7556C35.8758 40.7782 40.7316 35.9311 40.7428 30.0115C40.7547 24.1082 35.9046 19.2517 29.9971 19.2511Z" fill="#FF8500"/>
<path d="M29.0613 24.2338V23.1507C29.0613 22.6339 29.4802 22.2148 29.9967 22.2148C30.5132 22.2148 30.932 22.6339 30.932 23.1507C30.932 23.3549 30.932 23.5585 30.932 23.7627C30.932 24.2206 30.9326 24.2168 31.3759 24.3052C31.9851 24.4261 32.5529 24.6428 33.1045 24.9253C33.5915 25.174 33.7768 25.7766 33.5152 26.257L33.5058 26.2746C33.2516 26.7413 32.6712 26.9154 32.1998 26.6698C31.7259 26.423 31.2256 26.257 30.6972 26.1593C30.1181 26.0522 29.5384 26.0378 28.9724 26.242C28.5204 26.4049 28.2493 26.72 28.1936 27.2017C28.1391 27.6752 28.3176 28.058 28.7408 28.2666C29.1383 28.4626 29.5634 28.6073 29.9848 28.7476C30.8412 29.0333 31.7234 29.2513 32.5592 29.5864C33.8 30.0838 34.4129 31.0397 34.3691 32.3958C34.3247 33.7645 33.6848 34.733 32.4139 35.2416C31.9563 35.4245 31.4585 35.5078 30.9389 35.6475V36.8408C30.9389 37.3563 30.5213 37.7742 30.0061 37.7742C29.4908 37.7742 29.0732 37.3563 29.0732 36.8408V35.5736C28.1154 35.4126 27.2076 35.1564 26.3636 34.7211C25.8521 34.4573 25.6493 33.8303 25.9116 33.3179C25.9147 33.3116 25.9179 33.306 25.921 33.2997C26.1821 32.7886 26.8081 32.5838 27.319 32.845C27.6233 33.0003 27.9282 33.1494 28.2406 33.2791C29.0695 33.6217 29.9466 33.7501 30.8481 33.623C30.9896 33.6029 31.1305 33.5735 31.2657 33.5271C31.6701 33.3868 31.9644 33.1413 32.0182 32.6696C32.0733 32.1904 31.8843 31.8177 31.4742 31.6034C31.0629 31.3886 30.6227 31.2238 30.1845 31.0672C29.2661 30.7396 28.3101 30.4997 27.4261 30.0994C26.2397 29.5613 25.7582 28.4845 25.9592 27.1823C26.1927 25.6689 27.1093 24.7906 28.5323 24.3734C28.7013 24.3233 28.8716 24.2832 29.0613 24.2338Z" fill="#FF8500"/>
</g>
<defs>
<clipPath id="clip0_2_20387">
<rect width="32" height="32" fill="white" transform="translate(14 14)"/>
</clipPath>
</defs>
</svg>
