<svg width="119" height="119" viewBox="0 0 119 119" fill="none" xmlns="http://www.w3.org/2000/svg">
<g filter="url(#filter0_d_18_9565)">
<path d="M79.4769 32.7986C85.5629 37.9167 89.9101 44.9652 92.6099 53.2259C95.2639 61.5315 96.2706 71.0942 92.6556 78.8161C89.0406 86.583 80.8497 92.5092 72.2468 94.3499C63.5983 96.1906 54.4921 93.9009 46.6215 90.2644C38.7508 86.6279 32.1157 81.5996 27.2194 74.8654C22.2774 68.0862 19.12 59.5561 20.2182 51.5199C21.3622 43.4837 26.7618 35.9413 33.763 31.0028C40.7185 26.0194 49.2755 23.64 57.4207 24.0441C65.6117 24.493 73.3908 27.6806 79.4769 32.7986Z" fill="white"/>
</g>
<g filter="url(#filter1_d_18_9565)">
<path d="M79.4769 32.7986C85.5629 37.9167 89.9101 44.9652 92.6099 53.2259C95.2639 61.5315 96.2706 71.0942 92.6556 78.8161C89.0406 86.583 80.8497 92.5092 72.2468 94.3499C63.5983 96.1906 54.4921 93.9009 46.6215 90.2644C38.7508 86.6279 32.1157 81.5996 27.2194 74.8654C22.2774 68.0862 19.12 59.5561 20.2182 51.5199C21.3622 43.4837 26.7618 35.9413 33.763 31.0028C40.7185 26.0194 49.2755 23.64 57.4207 24.0441C65.6117 24.493 73.3908 27.6806 79.4769 32.7986Z" fill="white"/>
</g>
<rect x="35" y="31.7622" width="32.07" height="54.7476" rx="4" transform="rotate(-8.54 35 31.7622)" fill="#FF8500"/>
<rect x="35" y="31.7622" width="32.07" height="54.7476" rx="4" transform="rotate(-8.54 35 31.7622)" fill="#FF8500"/>
<rect x="38.1899" y="33.9546" width="26.6291" height="47.5411" rx="3" transform="rotate(-8.54 38.1899 33.9546)" fill="#3531B3"/>
<rect x="38.1899" y="33.9546" width="26.6291" height="47.5411" rx="3" transform="rotate(-8.54 38.1899 33.9546)" fill="#168BC3"/>
<g filter="url(#filter2_d_18_9565)">
<circle cx="75.439" cy="72.4387" r="12" transform="rotate(13.3 75.439 72.4387)" fill="#221F7A"/>
</g>
<path d="M82.3564 68.9361L81.1688 68.6553L75.5079 72.1405L72.0068 66.4895L70.8191 66.2088C70.1065 66.3963 69.5307 67.0038 69.5307 67.0038L67.4963 75.6097C67.722 76.4353 68.3188 76.918 68.3188 76.918L69.4769 77.1918L70.7372 76.4073L71.6897 72.3777L74.0482 75.9698L74.576 76.0946L75.1039 76.2194L78.8184 74.0628L77.8652 78.0952L78.6409 79.3609L79.7989 79.6347C79.7989 79.6347 80.5494 79.4676 81.1202 78.8331L83.1552 70.2245C83.1525 70.2239 82.9096 69.4229 82.3564 68.9361Z" fill="white"/>
<defs>
<filter id="filter0_d_18_9565" x="-4" y="0" width="123" height="119" filterUnits="userSpaceOnUse" color-interpolation-filters="sRGB">
<feFlood flood-opacity="0" result="BackgroundImageFix"/>
<feColorMatrix in="SourceAlpha" type="matrix" values="0 0 0 0 0 0 0 0 0 0 0 0 0 0 0 0 0 0 127 0" result="hardAlpha"/>
<feOffset/>
<feGaussianBlur stdDeviation="12"/>
<feColorMatrix type="matrix" values="0 0 0 0 0 0 0 0 0 0 0 0 0 0 0 0 0 0 0.3 0"/>
<feBlend mode="normal" in2="BackgroundImageFix" result="effect1_dropShadow_18_9565"/>
<feBlend mode="normal" in="SourceGraphic" in2="effect1_dropShadow_18_9565" result="shape"/>
</filter>
<filter id="filter1_d_18_9565" x="-4" y="0" width="123" height="119" filterUnits="userSpaceOnUse" color-interpolation-filters="sRGB">
<feFlood flood-opacity="0" result="BackgroundImageFix"/>
<feColorMatrix in="SourceAlpha" type="matrix" values="0 0 0 0 0 0 0 0 0 0 0 0 0 0 0 0 0 0 127 0" result="hardAlpha"/>
<feOffset/>
<feGaussianBlur stdDeviation="12"/>
<feColorMatrix type="matrix" values="0 0 0 0 0 0 0 0 0 0 0 0 0 0 0 0 0 0 0.3 0"/>
<feBlend mode="normal" in2="BackgroundImageFix" result="effect1_dropShadow_18_9565"/>
<feBlend mode="normal" in="SourceGraphic" in2="effect1_dropShadow_18_9565" result="shape"/>
</filter>
<filter id="filter2_d_18_9565" x="59.4365" y="60.436" width="32.0054" height="32.0054" filterUnits="userSpaceOnUse" color-interpolation-filters="sRGB">
<feFlood flood-opacity="0" result="BackgroundImageFix"/>
<feColorMatrix in="SourceAlpha" type="matrix" values="0 0 0 0 0 0 0 0 0 0 0 0 0 0 0 0 0 0 127 0" result="hardAlpha"/>
<feOffset dy="4"/>
<feGaussianBlur stdDeviation="2"/>
<feComposite in2="hardAlpha" operator="out"/>
<feColorMatrix type="matrix" values="0 0 0 0 0.207843 0 0 0 0 0.192157 0 0 0 0 0.701961 0 0 0 0.14 0"/>
<feBlend mode="normal" in2="BackgroundImageFix" result="effect1_dropShadow_18_9565"/>
<feBlend mode="normal" in="SourceGraphic" in2="effect1_dropShadow_18_9565" result="shape"/>
</filter>
</defs>
</svg>
