<svg width="119" height="119" viewBox="0 0 119 119" fill="none" xmlns="http://www.w3.org/2000/svg">
<g filter="url(#filter0_d_73_13251)">
<path d="M79.4769 32.7986C85.5629 37.9167 89.9101 44.9652 92.6099 53.2259C95.2639 61.5315 96.2706 71.0942 92.6556 78.8161C89.0406 86.583 80.8497 92.5092 72.2468 94.3499C63.5983 96.1906 54.4921 93.9009 46.6215 90.2644C38.7508 86.6279 32.1157 81.5996 27.2194 74.8654C22.2774 68.0862 19.12 59.5561 20.2182 51.5199C21.3622 43.4837 26.7618 35.9413 33.763 31.0028C40.7185 26.0194 49.2755 23.64 57.4207 24.0441C65.6117 24.493 73.3908 27.6806 79.4769 32.7986Z" fill="white"/>
</g>
<path d="M60.2414 41.1926L43.1981 58.2232C42.7575 58.6636 42.0457 58.6636 41.605 58.2232L38.7633 55.3854C37.7456 54.3683 37.7456 52.7187 38.7633 51.7L53.7116 36.7628C54.7293 35.7457 56.3802 35.7457 57.3997 36.7628L60.2414 39.6024C60.6803 40.041 60.6803 40.7539 60.2414 41.1926Z" fill="#534ED9"/>
<path d="M50.0326 38.2361C48.6073 36.8119 46.2972 36.8119 44.872 38.2361L40.1417 42.963C38.7164 44.3871 38.7164 46.6955 40.1417 48.1197L41.2941 49.2713L42.5724 47.9939L41.3291 46.7514C40.5928 46.0158 40.5928 44.824 41.3291 44.0883L45.9982 39.4226C46.7344 38.6869 47.9271 38.6869 48.6633 39.4226L49.9067 40.6651L51.185 39.3877L50.0326 38.2361Z" fill="#FF8500"/>
<path d="M70.3045 82.221L56.6294 83.1773C53.4615 83.3988 50.7142 81.0124 50.4928 77.8467L48.8479 54.3241C48.8103 53.7854 49.2159 53.3191 49.755 53.2814L72.9513 51.6594C73.4904 51.6217 73.957 52.027 73.9947 52.5656L75.6394 76.0866C75.8608 79.2522 73.4724 81.9995 70.3045 82.221Z" fill="#3531B3"/>
<path d="M57.162 77.3566C56.5009 77.4029 55.9262 76.9053 55.8798 76.2429L54.738 59.9144C54.6918 59.2537 55.1899 58.6793 55.8528 58.633C56.5139 58.5868 57.0886 59.0843 57.135 59.7468L58.2768 76.0753C58.3213 76.7378 57.8232 77.3104 57.162 77.3566Z" fill="#030062"/>
<path d="M63.0639 76.9445C62.4027 76.9908 61.828 76.4932 61.7817 75.8308L60.6399 59.5023C60.5937 58.8416 61.0917 58.2672 61.7546 58.2209C62.4158 58.1747 62.9905 58.6722 63.0368 59.3347L64.1786 75.6632C64.2249 76.3256 63.7268 76.8982 63.0639 76.9445Z" fill="#030062"/>
<path d="M68.9667 76.5324C68.3056 76.5787 67.7308 76.0811 67.6845 75.4187L66.5427 59.0902C66.4965 58.4295 66.9945 57.8551 67.6574 57.8088C68.3186 57.7625 68.8933 58.2601 68.9396 58.9225L70.0814 75.2511C70.1278 75.9135 69.6296 76.4861 68.9667 76.5324Z" fill="#030062"/>
<defs>
<filter id="filter0_d_73_13251" x="-4" y="0" width="123" height="119" filterUnits="userSpaceOnUse" color-interpolation-filters="sRGB">
<feFlood flood-opacity="0" result="BackgroundImageFix"/>
<feColorMatrix in="SourceAlpha" type="matrix" values="0 0 0 0 0 0 0 0 0 0 0 0 0 0 0 0 0 0 127 0" result="hardAlpha"/>
<feOffset/>
<feGaussianBlur stdDeviation="12"/>
<feColorMatrix type="matrix" values="0 0 0 0 0 0 0 0 0 0 0 0 0 0 0 0 0 0 0.3 0"/>
<feBlend mode="normal" in2="BackgroundImageFix" result="effect1_dropShadow_73_13251"/>
<feBlend mode="normal" in="SourceGraphic" in2="effect1_dropShadow_73_13251" result="shape"/>
</filter>
</defs>
</svg>
