<svg width="60" height="60" viewBox="0 0 60 60" fill="none" xmlns="http://www.w3.org/2000/svg">
<circle cx="30" cy="30" r="30" fill="white"/>
<path d="M43.7345 44.2415C42.268 45.4273 40.1236 45.1971 38.9407 43.7307C23.2733 24.3101 31.405 34.3898 25.3818 26.9233C25.4832 26.9086 25.5781 26.8665 25.6602 26.8008L30.451 22.9454C30.5378 22.8756 30.601 22.7848 30.6368 22.6818C32.4123 24.8707 42.7634 37.6285 44.2378 39.4458C45.426 40.9098 45.2005 43.0564 43.7345 44.2415Z" fill="#FFB70A"/>
<path d="M36.4624 16.9574C31.8821 14.2678 27.5908 14.3514 24.0524 17.1992L20.3185 20.2043C19.9392 20.5095 19.8804 21.0657 20.1877 21.4433C20.4882 21.8128 20.4401 22.3601 20.0541 22.6708C19.676 22.9751 19.1203 22.9162 18.8154 22.5394C18.5107 22.1629 17.9589 22.1039 17.5815 22.4072L15.9824 23.6925C14.8473 24.6059 14.6692 26.2628 15.5877 27.3958L17.7989 30.1232C18.7133 31.251 20.3768 31.4261 21.5066 30.5169L23.1053 29.2319C23.4844 28.9271 23.5438 28.3717 23.2373 27.9936C22.9325 27.6177 22.992 27.0695 23.3688 26.7662C23.7473 26.4616 24.3037 26.5203 24.6093 26.8972C24.9143 27.2733 25.4659 27.3318 25.8431 27.0284L30.6337 23.1728C31.0125 22.868 31.0716 22.3127 30.7653 21.9349L29.6717 20.586C31.6722 19.0952 33.0438 18.7011 36.0489 18.5934C36.4394 18.5794 36.7737 18.3093 36.8694 17.9305C36.9651 17.5518 36.7993 17.1553 36.4624 16.9574Z" fill="#3531B3"/>
<path d="M36.8699 17.931C36.7744 18.3095 36.4399 18.5796 36.0497 18.5936C33.0446 18.7015 31.6725 19.0957 29.6722 20.5867L30.766 21.9353C31.0748 22.3165 31.0101 22.872 30.6342 23.1732L28.3141 25.0409C28.0144 24.6696 23.0127 18.4702 22.8008 18.2076L24.0528 17.1999C27.5911 14.3521 31.8828 14.2683 36.4628 16.958C36.7996 17.156 36.9654 17.552 36.8699 17.931Z" fill="#030062"/>
</svg>
