<svg width="113" height="109" viewBox="0 0 113 109" fill="none" xmlns="http://www.w3.org/2000/svg">
<g filter="url(#filter0_d_2_19540)">
<path d="M75.4088 31.6842C80.6254 36.0711 84.3515 42.1127 86.6656 49.1934C88.9405 56.3124 89.8034 64.509 86.7048 71.1278C83.6063 77.7852 76.5854 82.8647 69.2116 84.4425C61.7985 86.0202 53.9933 84.0577 47.247 80.9406C40.5007 77.8236 34.8135 73.5137 30.6167 67.7415C26.3806 61.9308 23.6743 54.6193 24.6156 47.7311C25.5962 40.8429 30.2244 34.378 36.2255 30.145C42.1873 25.8735 49.5219 23.834 56.5035 24.1803C63.5243 24.5652 70.1922 27.2974 75.4088 31.6842Z" fill="white"/>
</g>
<rect x="35.4639" y="40.5801" width="34.2857" height="29.8137" rx="4" transform="rotate(-6.16 35.4639 40.5801)" fill="#FFB70A"/>
<rect width="5.21739" height="5.21739" rx="2" transform="matrix(-0.994226 0.107305 0.107305 0.994226 47.6992 49.7539)" fill="#FF8500"/>
<rect width="5.21739" height="5.21739" rx="2" transform="matrix(-0.994226 0.107305 0.107305 0.994226 48.579 57.9062)" fill="#FF8500"/>
<rect width="5.21739" height="5.21739" rx="2" transform="matrix(-0.994226 0.107305 0.107305 0.994226 55.8506 48.875)" fill="#FF8500"/>
<rect width="5.21739" height="5.21739" rx="2" transform="matrix(-0.994226 0.107305 0.107305 0.994226 56.7303 57.0254)" fill="#FF8500"/>
<rect width="5.21739" height="5.21739" rx="2" transform="matrix(-0.994226 0.107305 0.107305 0.994226 64.0021 47.9941)" fill="#FF8500"/>
<rect width="5.21739" height="5.21739" rx="2" transform="matrix(-0.994226 0.107305 0.107305 0.994226 64.8818 56.1465)" fill="#FF8500"/>
<path d="M35.7376 43.1156C35.5006 40.9192 37.0889 38.9465 39.2853 38.7095L65.4193 35.8889C67.6157 35.6518 69.5883 37.2402 69.8254 39.4365L70.2759 43.6111L36.1882 47.2901L35.7376 43.1156Z" fill="#FF8500"/>
<rect x="39.4954" y="36.2559" width="2.98137" height="6.70807" rx="1.49068" transform="rotate(-6.16 39.4954 36.2559)" fill="#3531B3"/>
<rect x="46.9058" y="35.457" width="2.98136" height="6.70808" rx="1.49068" transform="rotate(-6.16 46.9058 35.457)" fill="#3531B3"/>
<rect x="54.3162" y="34.6562" width="2.98137" height="6.70808" rx="1.49068" transform="rotate(-6.16 54.3162 34.6562)" fill="#3531B3"/>
<rect x="61.7266" y="33.8574" width="2.98136" height="6.70808" rx="1.49068" transform="rotate(-6.15999 61.7266 33.8574)" fill="#3531B3"/>
<path d="M68.9934 76.2836C74.594 77.2341 79.9047 73.4644 80.8551 67.8638C81.8055 62.2632 78.0359 56.9526 72.4353 56.0022C66.8347 55.0517 61.5241 58.8214 60.5736 64.422C59.6232 70.0225 63.3929 75.3332 68.9934 76.2836Z" fill="#3531B3"/>
<path d="M69.4524 73.5804C73.5595 74.2774 77.454 71.5129 78.151 67.4059C78.848 63.2988 76.0835 59.4043 71.9765 58.7073C67.8694 58.0103 63.9749 60.7748 63.2779 64.8818C62.5809 68.9889 65.3454 72.8834 69.4524 73.5804Z" fill="white"/>
<path d="M70.8773 65.7687C70.5089 65.7062 70.2611 65.3569 70.3236 64.9886L70.9486 61.3056C71.0111 60.9373 71.3603 60.6893 71.7287 60.7518C72.0971 60.8144 72.3449 61.1636 72.2824 61.5319L71.6574 65.215C71.5949 65.5833 71.2456 65.8312 70.8773 65.7687Z" fill="#3C58A0"/>
<path d="M74.3101 67.8669L72.1002 67.4919C71.7318 67.4294 71.484 67.0802 71.5465 66.7118C71.609 66.3435 71.9582 66.0956 72.3266 66.1581L74.5365 66.5331C74.9049 66.5956 75.1527 66.9449 75.0902 67.3132C75.0277 67.6815 74.6784 67.9295 74.3101 67.8669Z" fill="#3C58A0"/>
<path d="M70.3942 68.0313C71.1409 68.158 71.849 67.6554 71.9757 66.9087C72.1024 66.1619 71.5998 65.4538 70.8531 65.3271C70.1063 65.2004 69.3982 65.703 69.2715 66.4498C69.1448 67.1965 69.6474 67.9046 70.3942 68.0313Z" fill="#FF8500"/>
<defs>
<filter id="filter0_d_2_19540" x="0.428589" y="0.142578" width="112.286" height="108.857" filterUnits="userSpaceOnUse" color-interpolation-filters="sRGB">
<feFlood flood-opacity="0" result="BackgroundImageFix"/>
<feColorMatrix in="SourceAlpha" type="matrix" values="0 0 0 0 0 0 0 0 0 0 0 0 0 0 0 0 0 0 127 0" result="hardAlpha"/>
<feOffset/>
<feGaussianBlur stdDeviation="12"/>
<feColorMatrix type="matrix" values="0 0 0 0 0 0 0 0 0 0 0 0 0 0 0 0 0 0 0.3 0"/>
<feBlend mode="normal" in2="BackgroundImageFix" result="effect1_dropShadow_2_19540"/>
<feBlend mode="normal" in="SourceGraphic" in2="effect1_dropShadow_2_19540" result="shape"/>
</filter>
</defs>
</svg>
