<svg width="60" height="60" viewBox="0 0 60 60" fill="none" xmlns="http://www.w3.org/2000/svg">
<circle cx="30" cy="30" r="30" fill="white"/>
<mask id="path-2-outside-1_2_20381" maskUnits="userSpaceOnUse" x="20.5098" y="13.8809" width="19" height="16" fill="black">
<rect fill="white" x="20.5098" y="13.8809" width="19" height="16"/>
<path fill-rule="evenodd" clip-rule="evenodd" d="M23.4258 23.5032C23.4258 19.7994 26.4283 16.7969 30.1321 16.7969C33.8358 16.7969 36.8383 19.7994 36.8383 23.5032C36.8383 24.0323 37.2672 24.4612 37.7964 24.4612C38.3255 24.4612 38.7544 24.0323 38.7544 23.5032C38.7544 18.7412 34.8941 14.8809 30.1321 14.8809C25.3708 14.8809 21.5108 18.7401 21.5098 23.5012C21.5098 23.5017 21.5098 23.5022 21.5098 23.5028V27.5744C21.5098 28.1035 21.9387 28.5325 22.4678 28.5325C22.9969 28.5325 23.4258 28.1035 23.4258 27.5744V23.5046C23.4258 23.5041 23.4258 23.5037 23.4258 23.5032Z"/>
</mask>
<path fill-rule="evenodd" clip-rule="evenodd" d="M23.4258 23.5032C23.4258 19.7994 26.4283 16.7969 30.1321 16.7969C33.8358 16.7969 36.8383 19.7994 36.8383 23.5032C36.8383 24.0323 37.2672 24.4612 37.7964 24.4612C38.3255 24.4612 38.7544 24.0323 38.7544 23.5032C38.7544 18.7412 34.8941 14.8809 30.1321 14.8809C25.3708 14.8809 21.5108 18.7401 21.5098 23.5012C21.5098 23.5017 21.5098 23.5022 21.5098 23.5028V27.5744C21.5098 28.1035 21.9387 28.5325 22.4678 28.5325C22.9969 28.5325 23.4258 28.1035 23.4258 27.5744V23.5046C23.4258 23.5041 23.4258 23.5037 23.4258 23.5032Z" fill="#848484"/>
<path d="M21.5098 23.5012L22.0098 23.502L22.0098 23.5013L21.5098 23.5012ZM23.4258 23.5046L22.9258 23.5039V23.5046H23.4258ZM30.1321 16.2969C26.1522 16.2969 22.9258 19.5233 22.9258 23.5032H23.9258C23.9258 20.0756 26.7045 17.2969 30.1321 17.2969V16.2969ZM37.3383 23.5032C37.3383 19.5233 34.112 16.2969 30.1321 16.2969V17.2969C33.5597 17.2969 36.3383 20.0756 36.3383 23.5032H37.3383ZM37.7964 23.9612C37.5434 23.9612 37.3383 23.7561 37.3383 23.5032H36.3383C36.3383 24.3084 36.9911 24.9612 37.7964 24.9612V23.9612ZM38.2544 23.5032C38.2544 23.7561 38.0493 23.9612 37.7964 23.9612V24.9612C38.6016 24.9612 39.2544 24.3084 39.2544 23.5032H38.2544ZM30.1321 15.3809C34.6179 15.3809 38.2544 19.0173 38.2544 23.5032H39.2544C39.2544 18.4651 35.1702 14.3809 30.1321 14.3809V15.3809ZM22.0098 23.5013C22.0108 19.0163 25.6469 15.3809 30.1321 15.3809V14.3809C25.0947 14.3809 21.0109 18.4639 21.0098 23.5011L22.0098 23.5013ZM22.0098 23.5028C22.0098 23.5025 22.0098 23.5023 22.0098 23.502L21.0098 23.5004C21.0098 23.5012 21.0098 23.502 21.0098 23.5028H22.0098ZM22.0098 27.5744V23.5028H21.0098V27.5744H22.0098ZM22.4678 28.0325C22.2148 28.0325 22.0098 27.8274 22.0098 27.5744H21.0098C21.0098 28.3797 21.6626 29.0325 22.4678 29.0325V28.0325ZM22.9258 27.5744C22.9258 27.8274 22.7208 28.0325 22.4678 28.0325V29.0325C23.2731 29.0325 23.9258 28.3797 23.9258 27.5744H22.9258ZM22.9258 23.5046V27.5744H23.9258V23.5046H22.9258ZM22.9258 23.5032C22.9258 23.5034 22.9258 23.5036 22.9258 23.5039L23.9258 23.5054C23.9258 23.5046 23.9258 23.5039 23.9258 23.5032H22.9258Z" fill="#848484" mask="url(#path-2-outside-1_2_20381)"/>
<rect x="19" y="26.8711" width="22.0348" height="18.6817" rx="4" fill="#D63B3B"/>
<path fill-rule="evenodd" clip-rule="evenodd" d="M31.2297 36.1899C31.9555 35.7703 32.4439 34.9858 32.4439 34.0872C32.4439 32.7468 31.3573 31.6602 30.0169 31.6602C28.6765 31.6602 27.5898 32.7468 27.5898 34.0872C27.5898 34.9852 28.0776 35.7694 28.8027 36.1891V39.548C28.8027 40.2182 29.346 40.7615 30.0162 40.7615C30.6864 40.7615 31.2297 40.2182 31.2297 39.548V36.1899Z" fill="#4B4B4B"/>
<line x1="42.8866" y1="22.0754" x2="44.9451" y2="19.7137" stroke="#FFB70A" stroke-width="2" stroke-linecap="round"/>
<line x1="44.3997" y1="25.506" x2="47.2424" y2="24.5845" stroke="#FFB70A" stroke-width="2" stroke-linecap="round"/>
</svg>
