<svg width="48" height="48" viewBox="0 0 48 48" fill="none" xmlns="http://www.w3.org/2000/svg">
<circle cx="24" cy="24" r="24" fill="white"/>
<path d="M33 20.7754C33 15.8048 28.9706 11.7754 24 11.7754C19.0294 11.7754 15 15.8048 15 20.7754" stroke="#3531B3" stroke-width="2.5"/>
<line x1="15" y1="20.5" x2="15" y2="23" stroke="#3531B3" stroke-width="2.5"/>
<line x1="33" y1="20.5" x2="33" y2="23" stroke="#3531B3" stroke-width="2.5"/>
<path d="M33.5088 27.3165C33.5088 32.2298 29.5257 36.2129 24.6124 36.2129" stroke="#3531B3" stroke-width="1.5"/>
<path d="M12 25C12 23.3431 13.3431 22 15 22H16C17.1046 22 18 22.8954 18 24V29C18 30.1046 17.1046 31 16 31H15C13.3431 31 12 29.6569 12 28V25Z" fill="#FF8500"/>
<path d="M36 25C36 23.3431 34.6569 22 33 22H32C30.8954 22 30 22.8954 30 24V29C30 30.1046 30.8954 31 32 31H33C34.6569 31 36 29.6569 36 28V25Z" fill="#FF8500"/>
<rect x="22.8105" y="34.9727" width="3.6036" height="2.25225" rx="1.12613" fill="#030149"/>
</svg>
