<svg width="48" height="48" viewBox="0 0 48 48" fill="none" xmlns="http://www.w3.org/2000/svg">
<circle cx="24" cy="24" r="24" fill="white"/>
<path d="M12.6568 32.4414C12.3799 32.2052 12.201 31.9103 12.0956 31.5718C12.0698 31.4896 12.0692 31.3968 12 31.3298C12 26.7751 12 22.2205 12 17.6664C12.0778 17.6094 12.0374 17.5049 12.098 17.4414C12.2794 17.4414 12.4565 17.4678 12.6115 17.563C14.3577 18.6288 16.1021 19.697 17.8477 20.7628C18.6682 21.2634 19.4929 21.7587 20.3121 22.261C20.888 22.6141 21.4591 22.9755 22.032 23.3333C21.9842 23.4479 21.8941 23.5301 21.8053 23.6147C18.8152 26.4808 15.8252 29.348 12.8364 32.2158C12.7677 32.2816 12.6703 32.3321 12.6568 32.4414Z" fill="#FF8500"/>
<path d="M12.6572 32.4417C12.6707 32.3324 12.7675 32.2819 12.8368 32.2155C15.8256 29.3477 18.815 26.4811 21.8057 23.6144C21.8939 23.5298 21.9846 23.447 22.0324 23.333C22.0673 23.3489 22.1047 23.3618 22.1371 23.3818C22.6733 23.7096 23.2131 24.0322 23.7431 24.3694C23.9214 24.4828 24.0549 24.4893 24.2406 24.3689C24.7926 24.0099 25.3606 23.675 25.9225 23.3301C26.0328 23.4441 26.14 23.5616 26.2546 23.6714C29.2238 26.5199 32.1942 29.3671 35.1628 32.2161C35.2327 32.2831 35.3295 32.333 35.3423 32.4429C34.9496 32.813 34.4698 32.9793 33.927 32.9969C33.8645 32.9987 33.802 32.9981 33.7395 32.9981C27.2459 32.9981 20.7518 32.9969 14.2582 32.9999C13.6498 32.9999 13.1027 32.8618 12.6572 32.4417Z" fill="#FFB70A"/>
<path d="M20.3117 22.2603C19.4925 21.7579 18.6678 21.2632 17.8474 20.762C16.1017 19.6968 14.3573 18.6287 12.6111 17.5629C12.4561 17.4683 12.279 17.4412 12.0977 17.4412C12.2974 16.6751 13.0878 16.0464 13.9052 16.0059C13.9756 16.0024 14.0461 16 14.1159 16C20.6315 16.0012 27.1471 15.9976 33.6621 16.01C34.4047 16.0112 35.1173 16.1863 35.7049 16.6692C35.8281 16.7709 35.9537 16.8731 35.9886 17.0382C35.9475 17.0576 35.9034 17.0729 35.8654 17.0964C34.8471 17.7297 33.8288 18.3631 32.8117 18.9982C31.332 19.923 29.8517 20.8472 28.3738 21.775C27.554 22.2897 26.7391 22.8108 25.9217 23.329C25.3598 23.6733 24.7912 24.0088 24.2398 24.3678C24.0542 24.4888 23.9206 24.4824 23.7423 24.3684C23.2123 24.0311 22.6725 23.7086 22.1364 23.3807L20.3117 22.2603Z" fill="#FFCE4E"/>
<path d="M25.9229 23.3299C26.7402 22.8117 27.5551 22.2905 28.3749 21.7758C29.8528 20.8481 31.3325 19.9233 32.8128 18.9991C33.8299 18.364 34.8483 17.7306 35.8666 17.0972C35.9046 17.0737 35.9487 17.0585 35.9898 17.0391C35.9934 17.1137 35.9996 17.1883 35.9996 17.2629C36.0002 21.7993 36.0002 26.3358 35.9996 30.8722C35.9996 31.4785 35.8255 32.0208 35.3427 32.4433C35.3299 32.3334 35.2324 32.2835 35.1632 32.2165C32.1946 29.3675 29.2242 26.5203 26.2549 23.6718C26.1404 23.5614 26.0331 23.4439 25.9229 23.3299Z" fill="#FF8500"/>
</svg>
