<svg width="60" height="60" viewBox="0 0 60 60" fill="none" xmlns="http://www.w3.org/2000/svg">
<circle cx="30" cy="30" r="30" fill="white"/>
<path d="M32.1033 34.3164C31.5279 34.7167 28.5795 34.7167 28.0041 34.3164C27 35.6092 23.8994 34.9055 23.8994 38.02L23.8994 39.4956C23.8994 39.5485 23.9444 39.5915 23.9998 39.5915L36.1075 39.5915C36.163 39.5915 36.2079 39.5485 36.2079 39.4956L36.2079 38.02C36.2079 34.9055 33.1073 35.6092 32.1033 34.3164Z" fill="#3531B3"/>
<path d="M34.3045 27.5866C34.3045 25.5001 32.3364 23.8086 29.9086 23.8086C27.4809 23.8086 25.5127 25.5 25.5127 27.5866L25.5127 29.7016C25.5127 31.788 27.4808 33.4796 29.9086 33.4796C32.3364 33.4796 34.3045 31.7881 34.3045 29.7016C34.3045 29.2412 34.3045 28.0469 34.3045 27.5866Z" fill="#3531B3"/>
<path d="M46.9907 28.3823C46.9783 27.3532 46.2678 26.5095 45.2486 26.3401C44.4317 26.2035 43.6067 26.1121 42.7827 26.019C42.5538 25.9932 42.4385 25.9098 42.3596 25.6889C42.1875 25.2117 41.9959 24.7388 41.7777 24.2819C41.6792 24.0752 41.7112 23.9484 41.8433 23.7834C42.3206 23.1872 42.7871 22.5839 43.251 21.9771C43.9944 21.004 43.9296 19.9145 43.0701 19.0407C42.372 18.331 41.6677 17.6257 40.9572 16.9284C40.0746 16.0608 38.9809 16.0058 37.9954 16.7687C37.3923 17.2363 36.7873 17.702 36.1904 18.1766C36.044 18.2929 35.9296 18.3168 35.7477 18.2334C35.2776 18.0152 34.7977 17.8138 34.3108 17.6373C34.0908 17.5574 34.0047 17.4439 33.9808 17.215C33.8974 16.4343 33.8078 15.6536 33.689 14.8783C33.5417 13.9201 32.9935 13.3018 32.0444 13.0561C32.0027 13.0454 31.9646 13.0206 31.9247 13.002C30.6412 13.002 29.3576 13.002 28.0732 13.002C27.5162 13.1537 27.0336 13.4154 26.6824 13.8944C26.3152 14.3956 26.2948 14.9874 26.2185 15.5658C26.1413 16.146 26.0828 16.7297 25.9941 17.3081C25.9781 17.4119 25.8752 17.5441 25.7785 17.5876C25.2561 17.8227 24.7256 18.0427 24.189 18.2458C24.0941 18.2822 23.9317 18.252 23.8475 18.1891C23.2195 17.7189 22.6056 17.2283 21.9812 16.7528C20.9895 15.9978 19.9055 16.0688 19.0238 16.9444C18.3258 17.6381 17.6286 18.3337 16.9358 19.0318C16.0745 19.8995 16 20.9986 16.7389 21.9656C17.2081 22.5804 17.6827 23.1925 18.1652 23.7976C18.2885 23.9528 18.3169 24.0735 18.2264 24.2669C18.0064 24.7361 17.8104 25.217 17.6312 25.7031C17.5549 25.9089 17.4494 25.9941 17.2321 26.0172C16.4745 26.0979 15.7179 26.1946 14.9622 26.2957C13.99 26.4262 13.3451 26.9505 13.064 27.9024C13.0524 27.9414 13.0223 27.9742 13.001 28.0097C13.001 29.3156 13.001 30.6214 13.001 31.9273C13.1695 32.2706 13.2946 32.645 13.5154 32.9493C13.872 33.4399 14.4113 33.6448 15.0056 33.7149C15.7632 33.8036 16.5216 33.8923 17.2755 34.005C17.3944 34.0227 17.5425 34.1452 17.5949 34.2569C17.8264 34.7573 18.0375 35.2683 18.2326 35.7846C18.2725 35.8902 18.2513 36.0667 18.1847 36.1554C17.7164 36.7862 17.2259 37.3992 16.7486 38.0228C16.0027 38.9987 16.0674 40.089 16.9252 40.9575C17.625 41.6663 18.3293 42.3707 19.038 43.0698C19.9064 43.9268 20.9975 43.9951 21.9741 43.2525C22.5906 42.7841 23.2026 42.3095 23.8067 41.8251C23.969 41.6956 24.0932 41.6929 24.2786 41.7781C24.7398 41.9901 25.2082 42.188 25.6854 42.3592C25.9071 42.439 25.9905 42.5544 26.0162 42.7823C26.1094 43.6065 26.2016 44.4315 26.3382 45.2486C26.5112 46.2812 27.3636 46.9865 28.4112 46.9963C29.4295 47.006 30.4469 47.0007 31.4652 46.998C32.7035 46.9954 33.5595 46.2342 33.7094 45.01C33.8016 44.2523 33.9001 43.4956 33.987 42.738C34.0083 42.5544 34.073 42.4532 34.262 42.3831C34.7694 42.1959 35.267 41.9821 35.7602 41.7604C35.9242 41.6867 36.0334 41.7 36.1744 41.8118C36.7882 42.3015 37.4091 42.7823 38.0327 43.2596C38.9871 43.9915 40.087 43.9268 40.943 43.084C41.6606 42.3778 42.3738 41.6663 43.079 40.9477C43.9234 40.0863 43.9899 38.9934 43.2608 38.0362C42.7916 37.4205 42.3188 36.8066 41.8318 36.2042C41.6917 36.0303 41.6917 35.9026 41.7848 35.7039C42.0003 35.2443 42.191 34.7724 42.3649 34.296C42.4403 34.0893 42.5476 34.0068 42.7641 33.9819C43.5988 33.8861 44.4343 33.7938 45.2628 33.6555C46.2607 33.4887 46.9748 32.6423 46.9898 31.6328C47.0049 30.5514 47.004 29.4664 46.9907 28.3823ZM39.4981 30.3491C39.3003 35.6134 34.8997 39.672 29.6743 39.5079C24.3415 39.2258 20.2293 34.8123 20.4954 29.6545C20.7686 24.3565 25.1851 20.2632 30.3236 20.4903C35.6404 20.7245 39.6932 25.146 39.4981 30.3491Z" fill="#168BC3"/>
</svg>
