<svg width="96" height="109" viewBox="0 0 96 109" fill="none" xmlns="http://www.w3.org/2000/svg">
<path d="M5.38526 80.7187C6.21937 81.5249 7.23452 81.755 8.0613 80.8991L8.0752 80.8847C8.75608 80.1799 8.38756 79.3092 8.015 78.6153C7.723 78.0828 7.48134 77.5989 7.67588 77.3975L7.68977 77.3832C7.83567 77.2321 8.08346 77.2491 8.34952 77.5062C8.57962 77.7286 8.78411 78.107 8.94741 78.5569C8.97739 78.6554 9.0354 78.7393 9.10011 78.8018C9.35179 79.045 9.71244 79.0459 9.95561 78.7942C10.1432 78.6 10.1817 78.373 10.0928 78.134C9.90644 77.5785 9.58665 77.0747 9.18397 76.6856C8.40738 75.935 7.35079 75.7622 6.59349 76.5462L6.57959 76.5605C5.85703 77.3085 6.21811 78.1582 6.61151 78.8304C6.90375 79.3771 7.20819 79.8104 6.97891 80.0477L6.96502 80.0621C6.79827 80.2347 6.54329 80.2108 6.22691 79.905C5.91771 79.6062 5.66215 79.1367 5.51775 78.5521C5.48777 78.4536 5.43671 78.3626 5.35761 78.2861C5.10594 78.0429 4.75248 78.049 4.50931 78.3007C4.34256 78.4733 4.31793 78.6859 4.35655 78.8762C4.52519 79.6372 4.90348 80.2531 5.38526 80.7187Z" fill="white"/>
<path d="M10.191 84.6892C10.4996 84.8933 10.8657 84.8837 11.2335 84.5995L13.4402 82.822L12.6596 85.543C12.542 85.9928 12.6764 86.3334 12.985 86.5376L13.0267 86.5652C13.3352 86.7693 13.7096 86.7652 14.1023 86.4615L17.3411 84.0119C17.4047 83.97 17.4931 83.8726 17.5538 83.7809C17.769 83.4556 17.7064 83.0426 17.3478 82.8053C17.0142 82.5846 16.6873 82.6801 16.419 82.8863L14.2069 84.7081L14.9985 81.9705C15.1054 81.6095 15.0098 81.2465 14.6845 81.0313L14.6095 80.9817C14.2842 80.7665 13.9128 80.8205 13.6224 81.0601L11.4269 82.8569L12.2435 80.1358C12.3449 79.7832 12.2771 79.4506 11.9518 79.2354C11.5765 78.9871 11.1554 79.1162 10.9624 79.4081C10.8906 79.5166 10.8413 79.6637 10.8166 79.7554L9.82391 83.631C9.69807 84.1112 9.84076 84.4574 10.1493 84.6616L10.191 84.6892Z" fill="white"/>
<path d="M20.1023 82.6718C19.9218 83.0731 20.1444 83.4802 20.5822 83.6771C21.02 83.8739 21.4723 83.7703 21.6527 83.369L21.6609 83.3508C21.8414 82.9495 21.6147 82.5515 21.1769 82.3546C20.7391 82.1578 20.2909 82.2523 20.1105 82.6536L20.1023 82.6718ZM17.7565 88.1079C17.5801 88.5001 17.7457 88.9364 18.1379 89.1128C18.5301 89.2891 18.9664 89.1235 19.1427 88.7313L20.7668 85.1197C20.9432 84.7275 20.7775 84.2912 20.3854 84.1149C19.9932 83.9385 19.5569 84.1041 19.3805 84.4963L17.7565 88.1079Z" fill="white"/>
<path d="M20.5566 91.0549C20.4339 91.467 20.656 91.8774 21.0681 92.0001C21.4802 92.1228 21.8907 91.9006 22.0134 91.4885L22.47 89.9551C22.6923 90.4699 23.066 90.9672 23.8423 91.1983C25.0595 91.5606 26.4606 90.9552 26.9714 89.2396L26.9771 89.2204C27.4879 87.5049 26.6271 86.2261 25.429 85.8695C24.6623 85.6412 24.0803 85.8436 23.5802 86.2268L23.6001 86.1597C23.7228 85.7476 23.5007 85.3372 23.0886 85.2145C22.6765 85.0918 22.266 85.314 22.1433 85.7261L20.5566 91.0549ZM23.8367 89.8506C23.1562 89.6481 22.7591 88.9143 23.0131 88.0613L23.0188 88.0421C23.2728 87.1891 24.0066 86.792 24.6871 86.9946C25.3676 87.1971 25.7743 87.9338 25.5203 88.7868L25.5146 88.8059C25.2577 89.6685 24.5172 90.0532 23.8367 89.8506Z" fill="white"/>
<path d="M30.3484 89.3008C30.5511 88.6304 31.0027 88.2321 31.638 88.3095C32.2733 88.3869 32.6146 88.8919 32.6216 89.5777L30.3484 89.3008ZM33.1839 92.2352C33.3064 92.1394 33.4127 92.0113 33.4369 91.8127C33.4793 91.4653 33.2713 91.1881 32.9239 91.1458C32.7651 91.1265 32.661 91.1541 32.5421 91.2202C32.2065 91.411 31.8533 91.4989 31.4264 91.4469C30.7514 91.3647 30.3185 90.9493 30.2532 90.2462L33.2411 90.6102C33.6382 90.6586 33.981 90.4082 34.0343 89.9715C34.17 88.8597 33.5725 87.3161 31.7857 87.0985C30.2372 86.9098 29.0026 88.0287 28.8173 89.5475L28.8148 89.5673C28.6162 91.1952 29.6606 92.4608 31.2588 92.6555C32.043 92.7511 32.6689 92.5755 33.1839 92.2352Z" fill="white"/>
<path d="M41.3341 92.5771C41.6625 92.5451 41.9174 92.4801 42.1855 92.3434C42.3867 92.2434 42.5446 92.007 42.5185 91.7383C42.4847 91.3899 42.179 91.1384 41.8306 91.1723C41.8008 91.1752 41.7022 91.1949 41.6524 91.1997C41.324 91.2317 41.1483 91.078 41.1145 90.7296L40.8932 88.4504L41.56 88.3854C41.9183 88.3505 42.1789 88.0338 42.1441 87.6755C42.1094 87.3171 41.7927 87.0566 41.4344 87.0915L40.7675 87.1564L40.7028 86.4896C40.6612 86.0616 40.3009 85.7651 39.8729 85.8068C39.445 85.8485 39.1484 86.2089 39.19 86.6369L39.2547 87.3038L39.2049 87.3086C38.8466 87.3435 38.586 87.6603 38.6208 88.0186C38.6556 88.3769 38.9723 88.6374 39.3306 88.6025L39.3803 88.5977L39.6258 91.1258C39.7456 92.36 40.4184 92.6662 41.3341 92.5771Z" fill="white"/>
<path d="M47.1149 91.5266C48.7354 91.1232 49.6372 89.6105 49.2656 88.116L49.2608 88.0966C48.8869 86.5924 47.3893 85.708 45.7881 86.1066C44.1676 86.51 43.2659 88.0226 43.6374 89.5171L43.6422 89.5365C44.0162 91.0408 45.5138 91.9252 47.1149 91.5266ZM46.8183 90.2505C46.0031 90.4534 45.2836 89.9214 45.093 89.1548L45.0882 89.1354C44.8952 88.359 45.2405 87.5929 46.0848 87.3827C46.8999 87.1798 47.6195 87.7117 47.8101 88.4784L47.8149 88.4978C48.0079 89.2742 47.6625 90.0403 46.8183 90.2505Z" fill="white"/>
<path d="M56.7567 89.5283C57.6791 89.0481 58.2563 88.5108 58.4733 87.8228C58.6647 87.2158 58.541 86.4797 58.1026 85.6369L56.5103 82.5763C56.3119 82.1949 55.8669 82.0545 55.4855 82.2531C55.1041 82.4517 54.9683 82.9057 55.1575 83.2694L55.1621 83.2783C54.5908 83.0684 53.9946 82.9842 53.2585 83.3676C52.1675 83.9356 51.5628 85.2651 52.3013 86.6845L52.3105 86.7023C53.049 88.1217 54.4666 88.3982 55.5753 87.8209C56.2938 87.4469 56.5807 86.9367 56.726 86.2409L56.846 86.4716C57.289 87.3232 57.0852 87.9931 56.1627 88.4734C55.6572 88.7366 55.1849 88.8472 54.7023 88.873C54.6175 88.8834 54.5373 88.9026 54.4575 88.9441C54.1471 89.1058 54.0322 89.47 54.1937 89.7805C54.323 90.0289 54.5572 90.1324 54.8474 90.1053C55.5305 90.0315 56.118 89.8609 56.7567 89.5283ZM55.3841 86.5C54.7188 86.8463 54.0049 86.6656 53.6587 86.0003L53.6495 85.9826C53.3126 85.3349 53.5739 84.6239 54.2302 84.2821C54.8955 83.9358 55.6276 84.1296 55.9645 84.7772L55.9737 84.7949C56.3106 85.4425 56.0493 86.1536 55.3841 86.5Z" fill="white"/>
<path d="M62.7904 84.039C64.133 83.0458 64.3868 81.3032 63.4714 80.0649L63.4595 80.0488C62.5381 78.8024 60.8159 78.5588 59.4894 79.54C58.1468 80.5332 57.893 82.2757 58.8084 83.5141L58.8203 83.5302C59.7417 84.7766 61.4639 85.0202 62.7904 84.039ZM62.0277 82.9737C61.3524 83.4732 60.484 83.2573 60.0144 82.6221L60.0025 82.606C59.5269 81.9627 59.5526 81.1227 60.2521 80.6053C60.9274 80.1058 61.7958 80.3216 62.2654 80.9569L62.2773 80.973C62.7529 81.6163 62.7272 82.4563 62.0277 82.9737Z" fill="white"/>
<path d="M67.9284 76.315C68.2702 76.5759 68.7327 76.5138 68.9936 76.1719C69.2544 75.8301 69.1843 75.3615 68.8584 75.1127L68.8505 75.1067C69.4107 75.0813 70.0081 74.9083 70.4995 74.2644C71.27 73.2548 71.2007 71.7301 69.7778 70.6441L69.7619 70.632C68.339 69.546 66.8381 69.8974 66.0797 70.8911C65.5944 71.5271 65.5773 72.143 65.7582 72.7465L64.1604 71.5271C63.8186 71.2662 63.3561 71.3283 63.0952 71.6701C62.8344 72.012 62.8965 72.4745 63.2383 72.7354L67.9284 76.315ZM69.2375 73.7918C68.8067 74.3562 67.9798 74.4673 67.2723 73.9273L67.2564 73.9152C66.549 73.3752 66.4379 72.5482 66.8686 71.9838C67.2993 71.4194 68.1323 71.3004 68.8398 71.8403L68.8557 71.8525C69.5711 72.3985 69.6682 73.2274 69.2375 73.7918Z" fill="white"/>
<path d="M74.1077 68.5123C74.4542 67.8471 74.4457 67.2789 74.253 66.7614L74.2619 66.766C74.5457 66.9138 74.9546 66.7998 75.1579 66.4096C75.3473 66.046 75.216 65.6055 74.8523 65.4161L72.6883 64.2889C72.0497 63.9563 71.4433 63.8434 70.9037 64.0134C70.3777 64.1791 69.9235 64.5965 69.5354 65.3414C69.2027 65.98 69.047 66.4739 68.9937 66.9874C68.9626 67.2418 69.0881 67.4988 69.3276 67.6235C69.638 67.7852 70.0068 67.6616 70.1685 67.3512C70.2008 67.2891 70.2243 67.2224 70.2347 67.1376C70.2888 66.8389 70.3881 66.5185 70.5867 66.1371C70.9378 65.4631 71.4196 65.2743 71.9872 65.5699L72.067 65.6115C71.7715 65.8973 71.5208 66.1839 71.2667 66.6717C70.6799 67.798 70.7566 68.8414 71.7854 69.3773L71.8031 69.3865C72.7521 69.8808 73.6411 69.408 74.1077 68.5123ZM73.389 67.6193C73.1626 68.0538 72.7926 68.2445 72.429 68.0551L72.4113 68.0459C71.9856 67.8241 71.9398 67.3492 72.2401 66.7728C72.411 66.4446 72.6344 66.1889 72.8656 66.0049L73.105 66.1296C73.6017 66.3883 73.7216 66.9807 73.389 67.6193Z" fill="white"/>
<path d="M77.1437 61.3394C77.4226 60.5048 77.3377 59.8755 77.0914 59.3188C77.0188 59.1575 76.8956 59.0214 76.7059 58.9581C76.3644 58.844 76.0006 59.0177 75.8865 59.3591C75.8263 59.5393 75.8483 59.6943 75.8894 59.7923C76.0156 60.1403 76.0501 60.4786 75.9233 60.858C75.6603 61.6452 74.8758 61.9419 74.0885 61.679L74.0696 61.6727C73.3108 61.4192 72.8559 60.6979 73.0968 59.9771C73.2236 59.5978 73.4356 59.3734 73.7204 59.1838C73.8153 59.1206 73.9387 59.0037 74.0021 58.814C74.1257 58.4441 73.9458 58.0677 73.5759 57.9442C73.3198 57.8586 73.1173 57.9281 73.0066 58.0071C72.494 58.3103 72.1142 58.7844 71.8575 59.5526C71.3377 61.1081 72.1619 62.6169 73.6131 63.1017L73.6321 63.108C75.0738 63.5896 76.6334 62.8664 77.1437 61.3394Z" fill="white"/>
<path d="M77.4002 57.503C77.8235 57.5786 78.2064 57.3118 78.2822 56.8885C78.3579 56.4653 78.0912 56.0824 77.6679 56.0067L76.8114 55.8537L76.3775 55.1565L78.4132 54.1692C78.6927 54.0261 78.8194 53.8862 78.874 53.5811C78.9427 53.1972 78.7234 52.8329 78.3198 52.7608C78.1721 52.7344 77.9942 52.7636 77.8039 52.8616L75.6522 53.9298L74.8496 52.5674C74.6897 52.3255 74.5273 52.1542 74.2615 52.1067C73.917 52.0452 73.5463 52.2431 73.4741 52.6466C73.4266 52.9124 73.5246 53.1026 73.6908 53.366L75.1281 55.5529L71.8599 54.9689C71.4366 54.8933 71.0536 55.1601 70.9779 55.5833C70.9021 56.0066 71.1689 56.3895 71.5922 56.4651L77.4002 57.503Z" fill="white"/>
<path d="M79.9108 45.07C80.338 45.0205 80.6279 44.6547 80.5785 44.2275C80.5292 43.8004 80.1635 43.5105 79.7363 43.56L77.4615 43.8236C76.7463 43.9065 76.3375 43.5914 76.2697 43.0053C76.202 42.4192 76.5316 42.0488 77.2469 41.966L79.5216 41.7024C79.9488 41.6529 80.2387 41.2871 80.1893 40.8599C80.14 40.4328 79.7743 40.1429 79.3471 40.1924L76.5956 40.5112C75.3638 40.654 74.6945 41.3959 74.8277 42.5483C74.915 43.3032 75.375 43.713 75.8622 44.0089L73.8755 44.2391C73.4484 44.2886 73.1585 44.6544 73.2078 45.0815C73.2572 45.5087 73.6229 45.7985 74.05 45.749L79.9108 45.07Z" fill="white"/>
<path d="M78.6457 33.7309C78.0663 32.1646 76.4639 31.4357 75.0197 31.9705L75.001 31.9775C73.5474 32.5157 72.8336 34.1024 73.406 35.6499C73.9854 37.2161 75.5879 37.945 77.032 37.4103L77.0508 37.4033C78.5043 36.8651 79.2182 35.2784 78.6457 33.7309ZM77.4103 34.1671C77.7017 34.9549 77.2524 35.7291 76.5116 36.0034L76.4928 36.0104C75.7426 36.2882 74.9433 36.0297 74.6414 35.2137C74.35 34.4259 74.7993 33.6517 75.5401 33.3774L75.5589 33.3704C76.3091 33.0926 77.1085 33.3511 77.4103 34.1671Z" fill="white"/>
<path d="M75.5179 28.8822C75.886 28.66 75.9982 28.2069 75.7762 27.8387C75.5541 27.4704 75.1012 27.3583 74.733 27.5805L72.7723 28.7635C72.1558 29.1355 71.6583 29.0269 71.364 28.5388C71.0697 28.0506 71.2213 27.5854 71.8378 27.2135L73.7985 26.0304C74.1667 25.8082 74.2788 25.3551 74.0568 24.9869C73.8348 24.6186 73.3818 24.5065 73.0137 24.7287L71.0529 25.9118C70.4365 26.2837 69.939 26.1751 69.6446 25.687C69.3503 25.1989 69.5019 24.7337 70.1184 24.3617L72.0791 23.1786C72.4473 22.9565 72.5594 22.5034 72.3374 22.1351C72.1154 21.7669 71.6624 21.6548 71.2943 21.8769L68.9054 23.3183C67.8009 23.9847 67.5698 24.9184 68.1533 25.8861C68.5302 26.5113 69.0676 26.841 69.7898 26.9542C69.4635 27.4782 69.4751 28.0785 69.8417 28.6865C70.2392 29.3459 70.8278 29.528 71.3938 29.5953L71.3424 29.6263C70.9743 29.8484 70.8621 30.3015 71.0841 30.6698C71.3062 31.038 71.7591 31.1502 72.1273 30.928L75.5179 28.8822Z" fill="white"/>
<path d="M67.0048 20.4244C66.3974 20.773 65.7958 20.7528 65.387 20.2604C64.9782 19.7679 65.0765 19.1662 65.5421 18.6624L67.0048 20.4244ZM66.9569 16.3431C66.802 16.3288 66.6368 16.349 66.483 16.4768C66.2138 16.7004 66.1748 17.0448 66.3983 17.3141C66.5005 17.4373 66.5952 17.4886 66.727 17.5222C67.1019 17.6137 67.419 17.7922 67.6937 18.1231C68.128 18.6463 68.1577 19.2457 67.7228 19.802L65.8002 17.486C65.5447 17.1782 65.1236 17.125 64.7852 17.4062C63.9237 18.1219 63.2988 19.655 64.4485 21.0399C65.4449 22.2402 67.1104 22.2738 68.2873 21.2961L68.3026 21.2833C69.5641 20.2354 69.6733 18.5977 68.6449 17.3589C68.1403 16.7511 67.5648 16.4492 66.9569 16.3431Z" fill="white"/>
<g filter="url(#filter0_d_2_4069)">
<circle cx="36" cy="47.4814" r="32" fill="#168BC3"/>
</g>
<mask id="mask0_2_4069" style="mask-type:alpha" maskUnits="userSpaceOnUse" x="4" y="15" width="64" height="65">
<circle cx="36" cy="47.4814" r="32" fill="white"/>
</mask>
<g mask="url(#mask0_2_4069)">
<rect x="34.0035" y="33.2218" width="6.86047" height="12.3643" fill="#FF931C"/>
<rect x="31.4889" y="27.0396" width="11.8915" height="6.18217" rx="2" fill="#C36600"/>
<path fill-rule="evenodd" clip-rule="evenodd" d="M79.2824 57.0977L55.4995 33.6481L31.7166 57.0977V79.4814H79.2824L79.2824 57.0977Z" fill="#FFB70A"/>
<path fill-rule="evenodd" clip-rule="evenodd" d="M55.4716 24.4814L85 52.3425L79.2879 57.732L55.4635 35.2529L32.4567 56.9607C30.8793 58.449 28.3219 58.449 26.7445 56.9607C25.1672 55.4724 25.1672 53.0594 26.7445 51.5711L55.4288 24.5065L55.4369 24.5142L55.4716 24.4814Z" fill="#FF8500"/>
<path d="M47.4965 65.7412C47.4965 61.3208 51.0799 57.7373 55.5003 57.7373C59.9208 57.7373 63.5042 61.3208 63.5042 65.7412V79.4815H47.4965V65.7412Z" fill="#2E2B9F"/>
<ellipse cx="55.4995" cy="47.2915" rx="3.8876" ry="3.62403" fill="#534ED9"/>
</g>
<defs>
<filter id="filter0_d_2_4069" x="0" y="15.4814" width="72" height="74" filterUnits="userSpaceOnUse" color-interpolation-filters="sRGB">
<feFlood flood-opacity="0" result="BackgroundImageFix"/>
<feColorMatrix in="SourceAlpha" type="matrix" values="0 0 0 0 0 0 0 0 0 0 0 0 0 0 0 0 0 0 127 0" result="hardAlpha"/>
<feOffset dy="6"/>
<feGaussianBlur stdDeviation="2"/>
<feColorMatrix type="matrix" values="0 0 0 0 0 0 0 0 0 0 0 0 0 0 0 0 0 0 0.1 0"/>
<feBlend mode="normal" in2="BackgroundImageFix" result="effect1_dropShadow_2_4069"/>
<feBlend mode="normal" in="SourceGraphic" in2="effect1_dropShadow_2_4069" result="shape"/>
</filter>
</defs>
</svg>
