<svg width="44" height="44" viewBox="0 0 44 44" fill="none" xmlns="http://www.w3.org/2000/svg">
<circle cx="22" cy="22" r="22" fill="white"/>
<path fill-rule="evenodd" clip-rule="evenodd" d="M30.221 22.0058H30.1912C30.1912 21.1669 30.214 20.328 30.1852 19.4891C30.1564 18.6383 30.1265 17.7826 30.0102 16.9407C29.8015 15.4238 28.7756 14.3736 27.2765 14.0371C26.3719 13.8338 25.4484 13.8446 24.5329 13.8318C22.8449 13.8081 21.157 13.8061 19.471 13.8318C18.6191 13.8456 17.7592 13.8772 16.9202 14.0095C15.5086 14.2305 14.5364 15.03 14.103 16.4275C13.8396 17.2753 13.8426 18.1527 13.8257 19.0242C13.7998 20.3882 13.7879 21.7532 13.8058 23.1172C13.8227 24.341 13.8465 25.5668 13.941 26.7867C14.0702 28.4547 15.11 29.6045 16.7313 29.9805C17.636 30.1888 18.5605 30.172 19.476 30.1848C21.156 30.2085 22.836 30.2095 24.516 30.1848C25.3669 30.171 26.2258 30.1384 27.0658 30.0081C28.5072 29.7851 29.5043 28.9708 29.9009 27.5358C30.0321 27.063 30.1057 26.5646 30.1255 26.0751C30.1792 24.72 30.1922 23.3629 30.221 22.0068V22.0058ZM21.996 12C23.3618 12.0237 24.7267 12.0316 26.0916 12.075C27.363 12.1145 28.5827 12.3672 29.6464 13.1192C30.886 13.9956 31.5709 15.2175 31.8175 16.6979C31.9964 17.7816 31.9914 18.8772 31.9954 19.9697C32.0004 21.6989 32.0073 23.4281 31.9795 25.1562C31.9636 26.2182 31.9298 27.2831 31.568 28.3046C30.887 30.2243 29.5261 31.38 27.5479 31.7561C26.6582 31.9258 25.7357 31.9663 24.8281 31.9801C22.835 32.0107 20.8399 32.0028 18.8467 31.9781C17.7841 31.9653 16.7184 31.9288 15.6955 31.5666C13.773 30.8865 12.6517 29.5196 12.2242 27.5526C12.0294 26.6574 12.0174 25.7435 12.0115 24.8335C11.9966 22.8418 11.9936 20.8511 12.0184 18.8594C12.0314 17.7984 12.0681 16.7325 12.43 15.711C13.1109 13.7923 14.4788 12.6711 16.448 12.2448C17.3447 12.0503 18.2592 12.0474 19.1698 12.0306C20.1112 12.0118 21.0536 12.0266 21.996 12.0266V12Z" fill="#3531B3"/>
<path fill-rule="evenodd" clip-rule="evenodd" d="M25.3308 22.0013C25.3269 20.1774 23.8198 18.6772 21.9967 18.6802C20.1696 18.6822 18.6685 20.1814 18.6665 22.0053C18.6645 23.8361 20.1785 25.3452 22.0116 25.3373C23.8367 25.3294 25.3348 23.8243 25.3318 22.0013H25.3308ZM21.9977 27.1365C19.1298 27.1365 16.8702 24.8586 16.8643 21.9747C16.8573 19.1737 19.2004 16.8524 22.0434 16.8741C24.8338 16.8968 27.1689 19.2112 27.1381 22.0645C27.1072 24.8625 24.8278 27.1365 21.9977 27.1365ZM27.3419 15.4805C28.0248 15.4815 28.5357 15.9996 28.5347 16.6865C28.5318 17.3448 27.993 17.8857 27.3419 17.8857C26.6818 17.8857 26.1251 17.333 26.1261 16.6767C26.1261 16.0144 26.6699 15.4795 27.3419 15.4805Z" fill="#3531B3"/>
</svg>
