<svg width="60" height="60" viewBox="0 0 60 60" fill="none" xmlns="http://www.w3.org/2000/svg">
<circle cx="30" cy="30" r="30" fill="white"/>
<path fill-rule="evenodd" clip-rule="evenodd" d="M38.75 40.5C38.75 42.425 37.175 44 35.25 44H19.5C17.575 44 16 42.425 16 40.5V24.75C16 22.825 17.575 21.25 19.5 21.25V37.5C19.5 39.1569 20.8431 40.5 22.5 40.5H38.75Z" fill="#3531B3"/>
<path fill-rule="evenodd" clip-rule="evenodd" d="M40.5 16H24.75C22.825 16 21.25 17.575 21.25 19.5V35.25C21.25 37.175 22.825 38.75 24.75 38.75H40.5C42.425 38.75 44 37.175 44 35.25V19.5C44 17.575 42.425 16 40.5 16ZM28.25 23C29.2125 23 30 23.7875 30 24.75C30 25.7125 29.2125 26.5 28.25 26.5C27.2875 26.5 26.5 25.7125 26.5 24.75C26.5 23.7875 27.2875 23 28.25 23ZM26.5 31.75L30 28.25L31.75 30L35.25 26.5L40.5 31.75H26.5Z" fill="#3531B3"/>
</svg>
