<svg width="49" height="52" viewBox="0 0 49 52" fill="none" xmlns="http://www.w3.org/2000/svg">
<path d="M42.1831 6.8899C46.7308 11.4706 49.3013 18.1425 48.9717 24.4493C48.6422 30.7893 45.4456 36.7641 40.8649 42.0751C36.2842 47.3861 30.3523 52 24.3875 52C18.4557 51.9668 12.5238 47.3529 7.91017 42.0419C3.32947 36.7309 0.066952 30.7561 0.00104253 24.7149C-0.0648669 18.6404 2.99992 12.4996 7.61358 7.9189C12.1943 3.33819 18.2909 0.284377 24.6512 0.0188285C30.9785 -0.24672 37.6024 2.30919 42.1831 6.8899Z" fill="white"/>
<rect x="7.9292" y="18.8641" width="32.8716" height="20.3031" rx="1" transform="rotate(-8 7.9292 18.8641)" fill="#168BC3"/>
<rect x="11.3398" y="22.2901" width="8.70131" height="0.966813" rx="0.483406" transform="rotate(-8 11.3398 22.2901)" fill="#095A81"/>
<rect x="11.6084" y="24.2049" width="14.5022" height="0.966813" rx="0.483406" transform="rotate(-8 11.6084 24.2049)" fill="#095A81"/>
<rect x="12.1465" y="28.0345" width="14.5022" height="0.966813" rx="0.483406" transform="rotate(-8 12.1465 28.0345)" fill="#095A81"/>
<rect x="12.6855" y="31.8641" width="14.5022" height="0.966813" rx="0.483406" transform="rotate(-8 12.6855 31.8641)" fill="#095A81"/>
<rect x="12.416" y="29.9493" width="12.5686" height="0.966813" rx="0.483406" transform="rotate(-8 12.416 29.9493)" fill="#095A81"/>
<rect x="12.9541" y="33.7789" width="12.5686" height="0.966813" rx="0.483406" transform="rotate(-8 12.9541 33.7789)" fill="#095A81"/>
<path d="M35.8002 27.1868C35.384 27.5867 32.9862 27.9674 32.4665 27.7162C31.8169 28.8972 29.2045 28.7253 29.6067 31.2582L29.7973 32.4582C29.8041 32.5013 29.8462 32.5304 29.8913 32.5232L39.7379 30.9596C39.783 30.9525 39.814 30.9117 39.8072 30.8687L39.6166 29.6687C39.2144 27.1358 36.7837 28.1085 35.8002 27.1868Z" fill="#095A81"/>
<path d="M36.8341 21.3764C36.5647 19.6795 34.7457 18.5581 32.7713 18.8716C30.7969 19.1851 29.4147 20.8149 29.6842 22.5118L29.9573 24.2318C30.2268 25.9286 32.0458 27.0501 34.0202 26.7365C35.9946 26.423 37.3767 24.7933 37.1072 23.0964C37.0478 22.722 36.8936 21.7507 36.8341 21.3764Z" fill="#095A81"/>
<path d="M32.2231 16.7822L27.2847 16L26.5025 20.9384" stroke="#FF8500" stroke-width="2" stroke-linecap="round" stroke-linejoin="round"/>
<path d="M35.5054 35.7988L40.4438 36.581L41.226 31.6425" stroke="#FF8500" stroke-width="2" stroke-linecap="round" stroke-linejoin="round"/>
<path d="M24.7817 28.803L23.9995 33.7415L28.938 34.5236" stroke="#FF8500" stroke-width="2" stroke-linecap="round" stroke-linejoin="round"/>
<path d="M42.9468 23.7779L43.729 18.8395L38.7906 18.0573" stroke="#FF8500" stroke-width="2" stroke-linecap="round" stroke-linejoin="round"/>
</svg>
