<svg width="60" height="60" viewBox="0 0 60 60" fill="none" xmlns="http://www.w3.org/2000/svg">
<circle cx="30" cy="30" r="30" fill="white"/>
<path d="M24.5576 37.5566H29.5576V45.5566L27.0576 43.5566L24.5576 45.5566V37.5566Z" fill="#0EAE3D"/>
<path d="M29.5576 37.5566H34.5576V48.5566L32.0576 46.5566L29.5576 48.5566V37.5566Z" fill="#0A6A26"/>
<path d="M16.1213 29.678C14.9497 28.5064 14.9497 26.6069 16.1213 25.4353L19.1854 22.3712L24.3709 27.5566L19.1854 32.7421L16.1213 29.678Z" fill="#108D35"/>
<rect x="19.1855" y="22.3711" width="7.33333" height="7.33333" transform="rotate(-45 19.1855 22.3711)" fill="#0EAE3D"/>
<path d="M24.3711 17.186L27.4352 14.1219C28.6068 12.9503 30.5063 12.9503 31.6779 14.1219L34.742 17.186L29.5565 22.3715L24.3711 17.186Z" fill="#108D35"/>
<rect x="19.1855" y="32.7422" width="7.33333" height="7.33333" transform="rotate(-45 19.1855 32.7422)" fill="#0EAE3D"/>
<rect x="24.3711" y="27.5566" width="7.33333" height="7.33333" transform="rotate(-45 24.3711 27.5566)" fill="#108D35"/>
<rect x="29.5566" y="22.3711" width="7.33333" height="7.33333" transform="rotate(-45 29.5566 22.3711)" fill="#0EAE3D"/>
<path d="M24.3711 37.9272L29.5565 32.7418L34.742 37.9272L31.6779 40.9914C30.5063 42.1629 28.6068 42.1629 27.4352 40.9914L24.3711 37.9272Z" fill="#108D35"/>
<rect x="29.5566" y="32.7422" width="7.33333" height="7.33333" transform="rotate(-45 29.5566 32.7422)" fill="#0EAE3D"/>
<path d="M34.7422 27.5566L39.9276 22.3712L42.9918 25.4353C44.1633 26.6069 44.1633 28.5064 42.9918 29.678L39.9276 32.7421L34.7422 27.5566Z" fill="#108D35"/>
</svg>
