<svg width="49" height="52" viewBox="0 0 49 52" fill="none" xmlns="http://www.w3.org/2000/svg">
<path d="M42.1831 6.8899C46.7308 11.4706 49.3013 18.1425 48.9717 24.4493C48.6422 30.7893 45.4456 36.7641 40.8649 42.0751C36.2842 47.3861 30.3523 52 24.3875 52C18.4557 51.9668 12.5238 47.3529 7.91017 42.0419C3.32947 36.7309 0.066952 30.7561 0.00104253 24.7149C-0.0648669 18.6404 2.99992 12.4996 7.61358 7.9189C12.1943 3.33819 18.2909 0.284377 24.6512 0.0188285C30.9785 -0.24672 37.6024 2.30919 42.1831 6.8899Z" fill="white"/>
<circle cx="34" cy="36" r="5" fill="#FFB70A"/>
<circle cx="34" cy="36" r="3" fill="#FF8500"/>
<circle cx="41" cy="27" r="5" fill="#FFB70A"/>
<circle cx="41" cy="27" r="3" fill="#FF8500"/>
<path d="M18.1749 41.2936L28.8627 39.2161C31.1862 38.7644 32.4945 36.2768 31.5491 34.1064C31.4411 33.8589 31.3609 33.6 31.3093 33.335L29.0416 25.8713C28.1811 21.4444 23.8945 18.553 19.4676 19.4135C15.0407 20.274 12.1494 24.5606 13.0099 28.9875L13.7034 36.7578C13.7549 37.0228 13.7774 37.2924 13.77 37.5628C13.7064 39.9288 15.8513 41.7452 18.1749 41.2936Z" fill="#3531B3"/>
<path d="M17.5104 32.3308C17.5761 32.6685 17.895 32.8836 18.2326 32.818C18.5703 32.7523 18.7854 32.4334 18.7198 32.0958L18.4862 30.8942L19.4521 30.7065L20.9201 31.9696C21.1044 32.1212 21.3032 32.2211 21.578 32.1677C21.8686 32.1112 22.1085 31.8364 22.0429 31.4987C22.0063 31.3102 21.9033 31.1998 21.7565 31.0735L20.7178 30.216C21.3319 29.8114 21.6615 29.2013 21.4921 28.3296L21.489 28.3139C21.3868 27.7877 21.1488 27.402 20.7736 27.149C20.3328 26.8516 19.7621 26.767 19.0632 26.9028L17.1549 27.2737C16.8173 27.3394 16.6022 27.6583 16.6678 27.996L17.5104 32.3308ZM18.2786 29.8262L17.9718 28.2478L19.1733 28.0142C19.7701 27.8982 20.1739 28.0887 20.2762 28.6148L20.2792 28.6305C20.3708 29.1017 20.1005 29.4721 19.5037 29.5881L18.2786 29.8262ZM23.3056 32.5165C23.3712 32.8542 23.6807 33.0629 24.0184 32.9973C24.3561 32.9317 24.5649 32.6221 24.4992 32.2845L24.255 31.028C24.6033 31.3107 25.0525 31.5249 25.6886 31.4013C26.6859 31.2074 27.4551 30.2592 27.1819 28.8535L27.1788 28.8378C26.9056 27.4321 25.8215 26.8442 24.8398 27.035C24.2116 27.1571 23.8739 27.5162 23.6612 27.9731L23.6505 27.9182C23.5849 27.5805 23.2753 27.3717 22.9377 27.4374C22.6 27.503 22.3912 27.8125 22.4568 28.1502L23.3056 32.5165ZM25.1854 30.4478C24.6278 30.5562 24.0744 30.1829 23.9386 29.484L23.9355 29.4683C23.7997 28.7694 24.1729 28.216 24.7305 28.1076C25.288 27.9992 25.8493 28.3709 25.9851 29.0699L25.9882 29.0856C26.1256 29.7923 25.7429 30.3394 25.1854 30.4478Z" fill="white"/>
<path d="M24.9428 10.4897L25.0646 11.116C25.8104 14.9529 23.3048 18.6676 19.4678 19.4135C15.6309 20.1593 11.9162 17.6537 11.1704 13.8167L11.0486 13.1904C10.8635 12.2382 11.922 11.5377 12.7262 12.0802L14.0404 12.9666C14.5663 13.3214 15.2828 13.1532 15.596 12.6016L16.867 10.3641C17.1967 9.7837 17.9668 9.63401 18.4899 10.0486L20.506 11.6472C21.003 12.0414 21.7302 11.9283 22.0851 11.4029L22.9715 10.0887C23.514 9.28447 24.7578 9.53793 24.9428 10.4897Z" fill="#3531B3"/>
<circle cx="31" cy="23" r="5" fill="#FFB70A"/>
<circle cx="31" cy="23" r="3" fill="#FF8500"/>
<rect x="17.27" y="19.4736" width="4.684" height="1" rx="0.5" transform="rotate(-10 17.27 19.4736)" fill="#FFB70A"/>
</svg>
