<svg width="56" height="56" viewBox="0 0 56 56" fill="none" xmlns="http://www.w3.org/2000/svg">
<circle cx="28" cy="28" r="28" fill="white"/>
<path d="M31.7683 38.5215H24.8134C24.5509 38.5215 24.3213 38.7486 24.3213 39.0081V40.6301C24.3213 40.8897 24.5509 41.1168 24.8134 41.1168H26.1584C26.3225 42.1549 27.2082 42.9334 28.2581 42.9334C29.3407 42.9334 30.2264 42.1549 30.3577 41.1168H31.7027C31.9652 41.1168 32.1948 40.8897 32.1948 40.6301V39.0081C32.2604 38.7486 32.0308 38.5215 31.7683 38.5215Z" fill="#3531B3"/>
<path d="M26.4215 20.2571C23.6986 20.8735 21.4677 23.047 20.7788 25.772C19.9586 29.0161 21.2709 32.0331 23.5673 33.7849C24.0594 34.1742 24.3219 34.7906 24.3219 35.4394V36.5424C24.3219 36.9317 24.6171 37.2236 25.0108 37.2236H27.5697V29.7947L25.0108 27.1345C24.7484 26.8426 24.7484 26.4208 25.0436 26.1613C25.3389 25.9018 25.7654 25.9018 26.0278 26.1937L28.2586 28.5295L30.4895 26.1937C30.7519 25.9018 31.2112 25.9018 31.4737 26.1613C31.7689 26.4208 31.7689 26.875 31.5065 27.1345L28.9476 29.7947V37.1912H31.5721C31.9658 37.1912 32.261 36.8992 32.261 36.5099V35.3421C32.261 34.7257 32.5235 34.1418 33.0156 33.7525C34.8527 32.3575 36.0666 30.1515 36.0666 27.686C36.0337 22.8523 31.5065 19.0892 26.4215 20.2571Z" fill="#3531B3"/>
<path d="M28.234 18.6394C28.7842 18.6394 29.2519 18.2027 29.2519 17.6296V15.0097C29.2519 14.4639 28.8117 14 28.234 14C27.6563 14 27.2162 14.4366 27.2162 15.0097V17.6296C27.2162 18.1754 27.6838 18.6394 28.234 18.6394Z" fill="#3531B3"/>
<path d="M22.2921 19.6765L20.4215 17.8207C20.0363 17.4387 19.4036 17.4387 18.991 17.8207C18.6059 18.2028 18.6059 18.8305 18.991 19.2398L20.8616 21.0956C21.0542 21.2866 21.3017 21.3958 21.5768 21.3958C21.8519 21.3958 22.0995 21.2866 22.2921 21.0956C22.6772 20.6862 22.6772 20.0585 22.2921 19.6765Z" fill="#3531B3"/>
<path d="M18.8253 25.9805H16.1845C15.6343 25.9805 15.1666 26.4171 15.1666 26.9902C15.1666 27.5633 15.6068 28 16.1845 28H18.8253C19.3755 28 19.8431 27.5633 19.8431 26.9902C19.8431 26.4171 19.3755 25.9805 18.8253 25.9805Z" fill="#3531B3"/>
<path d="M40.2819 25.9805H37.641C37.0908 25.9805 36.6232 26.4171 36.6232 26.9902C36.6232 27.5633 37.0633 28 37.641 28H40.2819C40.832 28 41.2997 27.5633 41.2997 26.9902C41.2997 26.4171 40.8595 25.9805 40.2819 25.9805Z" fill="#3531B3"/>
<path d="M37.4769 17.8207C37.0918 17.4387 36.4591 17.4387 36.0464 17.8207L34.1758 19.6765C33.7907 20.0585 33.7907 20.6862 34.1758 21.0956C34.3684 21.2866 34.616 21.3958 34.891 21.3958C35.1661 21.3958 35.4137 21.2866 35.6063 21.0956L37.4769 19.2398C37.862 18.8305 37.862 18.2028 37.4769 17.8207Z" fill="#3531B3"/>
</svg>
