<svg width="119" height="119" viewBox="0 0 119 119" fill="none" xmlns="http://www.w3.org/2000/svg">
<g filter="url(#filter0_d_52_8838)">
<path d="M79.4769 32.7986C85.5629 37.9167 89.9101 44.9652 92.6099 53.2259C95.2639 61.5315 96.2706 71.0942 92.6556 78.8161C89.0406 86.583 80.8497 92.5092 72.2468 94.3499C63.5983 96.1906 54.4921 93.9009 46.6215 90.2644C38.7508 86.6279 32.1157 81.5996 27.2194 74.8654C22.2774 68.0862 19.12 59.5561 20.2182 51.5199C21.3622 43.4837 26.7618 35.9413 33.763 31.0028C40.7185 26.0194 49.2755 23.64 57.4207 24.0441C65.6117 24.493 73.3908 27.6806 79.4769 32.7986Z" fill="white"/>
</g>
<rect x="32" y="42.9966" width="41" height="25" rx="2" transform="rotate(-7 32 42.9966)" fill="#3531B3"/>
<rect x="33.95" y="58.8774" width="41" height="5" transform="rotate(-7 33.95 58.8774)" fill="#797979"/>
<rect x="35.7087" y="48.5864" width="10" height="6" rx="2" transform="rotate(-7 35.7087 48.5864)" fill="#FFB70A"/>
<path fill-rule="evenodd" clip-rule="evenodd" d="M69.6766 61.6762C70.2185 58.6499 73.111 56.6358 76.1373 57.1777C79.1637 57.7196 81.1777 60.6121 80.6358 63.6385C80.5584 64.0708 80.8462 64.484 81.2785 64.5614C81.7108 64.6388 82.124 64.3511 82.2015 63.9188C82.8981 60.0278 80.3086 56.3088 76.4177 55.6121C72.5352 54.917 68.824 57.4935 68.1156 61.3703C68.1138 61.3787 68.1122 61.3872 68.1106 61.3958L67.515 64.7227C67.4375 65.155 67.7253 65.5682 68.1576 65.6456C68.5899 65.723 69.0031 65.4353 69.0806 65.003L69.6719 61.7002C69.6736 61.6923 69.6751 61.6843 69.6766 61.6762Z" fill="#B7B7B7"/>
<rect x="65.7332" y="63.3936" width="18.2908" height="15.5074" rx="4" transform="rotate(10.1512 65.7332 63.3936)" fill="#FF8500"/>
<path fill-rule="evenodd" clip-rule="evenodd" d="M74.3631 72.798C75.0173 72.5613 75.531 71.9918 75.6624 71.2577C75.8585 70.1625 75.1296 69.1156 74.0344 68.9195C72.9391 68.7234 71.8923 69.4523 71.6962 70.5476C71.5648 71.2815 71.8488 71.9937 72.38 72.4428L71.8887 75.187C71.7906 75.7346 72.1551 76.2581 72.7027 76.3561C73.2503 76.4542 73.7737 76.0897 73.8718 75.5421L74.3631 72.798Z" fill="#030062"/>
<defs>
<filter id="filter0_d_52_8838" x="-4" y="0" width="123" height="119" filterUnits="userSpaceOnUse" color-interpolation-filters="sRGB">
<feFlood flood-opacity="0" result="BackgroundImageFix"/>
<feColorMatrix in="SourceAlpha" type="matrix" values="0 0 0 0 0 0 0 0 0 0 0 0 0 0 0 0 0 0 127 0" result="hardAlpha"/>
<feOffset/>
<feGaussianBlur stdDeviation="12"/>
<feColorMatrix type="matrix" values="0 0 0 0 0 0 0 0 0 0 0 0 0 0 0 0 0 0 0.3 0"/>
<feBlend mode="normal" in2="BackgroundImageFix" result="effect1_dropShadow_52_8838"/>
<feBlend mode="normal" in="SourceGraphic" in2="effect1_dropShadow_52_8838" result="shape"/>
</filter>
</defs>
</svg>
