<svg width="119" height="119" viewBox="0 0 119 119" fill="none" xmlns="http://www.w3.org/2000/svg">
<g filter="url(#filter0_d_73_13069)">
<path d="M79.4769 32.7986C85.5629 37.9167 89.9101 44.9652 92.6099 53.2259C95.2639 61.5315 96.2706 71.0942 92.6556 78.8161C89.0406 86.583 80.8497 92.5092 72.2468 94.3499C63.5983 96.1906 54.4921 93.9009 46.6215 90.2644C38.7508 86.6279 32.1157 81.5996 27.2194 74.8654C22.2774 68.0862 19.12 59.5561 20.2182 51.5199C21.3622 43.4837 26.7618 35.9413 33.763 31.0028C40.7185 26.0194 49.2755 23.64 57.4207 24.0441C65.6117 24.493 73.3908 27.6806 79.4769 32.7986Z" fill="white"/>
</g>
<path fill-rule="evenodd" clip-rule="evenodd" d="M48.7509 50.6963C48.0394 45.6058 51.587 40.9007 56.6778 40.1853C61.7709 39.4695 66.48 43.018 67.1958 48.1112C67.2981 48.8388 67.9708 49.3457 68.6984 49.2434C69.426 49.1412 69.9329 48.4685 69.8307 47.7409C68.9104 41.1925 62.8558 36.6301 56.3075 37.5504C49.7592 38.4707 45.1967 44.5253 46.117 51.0736C46.1174 51.076 46.1177 51.0784 46.1181 51.0809L46.9039 56.6723C47.0062 57.3999 47.6789 57.9069 48.4065 57.8046C49.1341 57.7024 49.641 57.0296 49.5388 56.302L48.7519 50.703C48.7516 50.7008 48.7512 50.6985 48.7509 50.6963Z" fill="#848484"/>
<rect x="43.3174" y="56.1895" width="30.5985" height="25.9422" rx="4" transform="rotate(-8 43.3174 56.1895)" fill="#D63B3B"/>
<path fill-rule="evenodd" clip-rule="evenodd" d="M61.9363 66.6405C62.853 65.9232 63.3728 64.7501 63.1992 63.5146C62.9401 61.6714 61.2359 60.3871 59.3926 60.6462C57.5494 60.9052 56.2652 62.6095 56.5242 64.4527C56.6978 65.6878 57.5203 66.672 58.5987 67.1089L59.2478 71.7275C59.3774 72.6492 60.2295 73.2913 61.1511 73.1618C62.0727 73.0322 62.7148 72.1801 62.5853 71.2585L61.9363 66.6405Z" fill="#4B4B4B"/>
<line x1="75.3509" y1="45.5167" x2="78.1493" y2="41.2199" stroke="#FFB70A" stroke-width="2" stroke-linecap="round"/>
<line x1="77.8027" y1="49.9229" x2="82.2324" y2="47.7662" stroke="#FFB70A" stroke-width="2" stroke-linecap="round"/>
<defs>
<filter id="filter0_d_73_13069" x="-4" y="0" width="123" height="119" filterUnits="userSpaceOnUse" color-interpolation-filters="sRGB">
<feFlood flood-opacity="0" result="BackgroundImageFix"/>
<feColorMatrix in="SourceAlpha" type="matrix" values="0 0 0 0 0 0 0 0 0 0 0 0 0 0 0 0 0 0 127 0" result="hardAlpha"/>
<feOffset/>
<feGaussianBlur stdDeviation="12"/>
<feColorMatrix type="matrix" values="0 0 0 0 0 0 0 0 0 0 0 0 0 0 0 0 0 0 0.3 0"/>
<feBlend mode="normal" in2="BackgroundImageFix" result="effect1_dropShadow_73_13069"/>
<feBlend mode="normal" in="SourceGraphic" in2="effect1_dropShadow_73_13069" result="shape"/>
</filter>
</defs>
</svg>
