<svg width="60" height="60" viewBox="0 0 60 60" fill="none" xmlns="http://www.w3.org/2000/svg">
<circle cx="30" cy="30" r="30" fill="white"/>
<path d="M23.5068 20C21.7174 20 20.0638 20.6879 18.8709 21.9576C17.678 23.2538 17 25.0258 17 26.9569C17 28.9939 17.7866 30.8455 19.5217 32.8814C21.2024 34.8654 23.7241 36.9543 26.625 39.3877C27.5203 40.1286 28.4959 40.9477 29.5258 41.8211C29.7975 42.0596 30.2038 42.0596 30.4742 41.8211C31.5041 40.9477 32.5081 40.1286 33.375 39.3877C36.2759 36.9808 38.7976 34.8907 40.4783 32.8814C42.2134 30.8178 43 28.9927 43 26.9569C43 25.0258 42.322 23.2538 41.1291 21.9576C39.9633 20.7144 38.3098 20 36.5191 20C35.2175 20 33.9974 20.3963 32.9403 21.2167C31.9919 21.9311 31.3411 22.8032 30.9608 23.4381C30.7978 23.6766 30.5545 23.8874 30.2828 23.9404C29.795 24.0464 29.3344 23.8344 29.0899 23.4381C28.7107 22.8032 28.0328 21.9046 27.0831 21.1902C26.0285 20.424 24.8084 20 23.5068 20Z" fill="#B22DA4"/>
</svg>
