<svg width="360" height="280" viewBox="0 0 360 280" fill="none" xmlns="http://www.w3.org/2000/svg">
<g clip-path="url(#clip0_1_4944)">
<ellipse rx="10.0464" ry="21.0633" transform="matrix(0.83812 0.545485 -0.544751 0.838598 232.894 23.1438)" fill="white"/>
<ellipse cx="241.152" cy="57.1626" rx="10.1293" ry="10.1404" transform="rotate(6.12103 241.152 57.1626)" fill="#FF8500"/>
<path d="M69.9988 173.186L67.2427 126.187C67.0967 123.695 68.5078 121.374 70.7865 120.357L204.917 60.4759C208.709 58.783 213.033 61.3614 213.346 65.5022L216.687 109.678C216.875 112.169 215.501 114.516 213.236 115.57L78.5204 178.274C74.68 180.062 70.2467 177.414 69.9988 173.186Z" fill="#FF8500"/>
<path d="M73.9988 176.186L71.2427 129.187C71.0967 126.695 72.5078 124.374 74.7865 123.357L208.917 63.4759C212.709 61.783 217.033 64.3614 217.346 68.5022L220.687 112.678C220.875 115.169 219.501 117.516 217.236 118.57L82.5204 181.274C78.68 183.062 74.2467 180.414 73.9988 176.186Z" fill="#FFB70A"/>
<path d="M94.6196 150.411L93.2879 140.262C93.1167 138.958 93.8151 137.695 95.0105 137.146L196.352 90.6128C198.132 89.7954 200.205 90.8754 200.556 92.8026L202.089 101.24C202.332 102.573 201.649 103.904 200.425 104.486L98.8815 152.73C97.0419 153.604 94.8846 152.43 94.6196 150.411Z" fill="#C36600"/>
<path d="M174.5 106L109.5 135.5C147.9 151.1 212.5 205.333 240 230.5L296 195C286.4 170.6 211 125.5 174.5 106Z" fill="#0EAE3D"/>
<mask id="mask0_1_4944" style="mask-type:alpha" maskUnits="userSpaceOnUse" x="109" y="106" width="187" height="125">
<path d="M174.5 106L109.5 135.5C147.9 151.1 212.5 205.333 240 230.5L296 195C286.4 170.6 211 125.5 174.5 106Z" fill="#0EAE3D"/>
</mask>
<g mask="url(#mask0_1_4944)">
<path d="M245.5 189.5C230.7 191.5 186.667 180.667 166.5 175L189 208.5L268.5 221L285 187.5L266 175C265.333 179 260.3 187.5 245.5 189.5Z" fill="#246437" fill-opacity="0.24"/>
</g>
<path fill-rule="evenodd" clip-rule="evenodd" d="M175.605 110.406L175.056 110.103L174.485 110.361L121.485 134.361L118.876 135.543L121.516 136.652C136.991 143.158 158.36 158.128 178.737 174.206C199.081 190.258 218.319 207.319 229.5 217.908L230.218 218.588L231.045 218.045L276.686 188.105L277.525 187.555L277.169 186.616C275.096 181.165 269.455 174.725 261.938 167.956C254.371 161.143 244.732 153.849 234.434 146.703C213.835 132.41 190.503 118.642 175.605 110.406ZM134.485 140.337C148.376 148.166 164.691 159.938 180.286 172.243C200.264 188.007 219.176 204.737 230.5 215.413L274.448 186.584C272.331 181.902 267.302 176.15 260.265 169.814C252.809 163.1 243.265 155.874 233.009 148.757C215.916 136.896 196.914 125.388 182.461 117.13C179.703 120.112 173.822 123.239 168.299 115.907L132.737 132.01C135.883 131.927 141 132.324 141 134.54C141 136.548 137.266 138.93 134.485 140.337ZM215.648 140.159C213.148 138.908 205.565 137.607 195.233 142.412C182.317 148.417 176.84 166.763 188.089 172.018C199.338 177.273 221.002 160.006 223.502 154.001C226.002 147.995 218.425 141.661 215.648 140.159Z" fill="#246437"/>
<path d="M301.855 166.183C316.834 170.492 335.827 192.438 344.656 199.294L425.694 225.355L408.351 279.136L326.955 250.042C310.504 252.166 273.783 255.925 258.503 253.967C239.402 251.521 239.231 247.019 237.404 243.798C235.577 240.577 232.732 239.466 227.137 236.509C221.543 233.552 221.731 232.083 219.639 225.095C217.548 218.107 205.247 215.038 193.699 206.091C184.461 198.934 182.426 187.224 182.564 182.264C197.157 186.871 227.536 196.089 232.313 196.104C237.09 196.118 260.473 190.004 271.568 186.945C221.044 155.832 232.534 153.57 234.568 149.351C236.602 145.131 239.899 148.54 251.465 151.515C263.031 154.49 283.131 160.798 301.855 166.183Z" fill="#FDBEA3"/>
<mask id="mask1_1_4944" style="mask-type:alpha" maskUnits="userSpaceOnUse" x="182" y="147" width="244" height="133">
<path opacity="0.5" d="M301.855 166.183C316.834 170.492 335.827 192.438 344.656 199.294L425.694 225.355L408.351 279.136L326.955 250.042C310.504 252.166 273.783 255.925 258.503 253.967C239.402 251.521 239.231 247.019 237.404 243.798C235.577 240.577 232.732 239.466 227.137 236.509C221.543 233.552 221.731 232.083 219.639 225.095C217.548 218.107 205.247 215.038 193.699 206.091C184.461 198.934 182.426 187.224 182.564 182.264C197.157 186.871 227.536 196.089 232.313 196.104C237.09 196.118 260.473 190.004 271.568 186.945C221.044 155.832 232.534 153.57 234.568 149.351C236.602 145.131 239.899 148.54 251.465 151.515C263.031 154.49 283.131 160.798 301.855 166.183Z" fill="#FDBEA3"/>
</mask>
<g mask="url(#mask1_1_4944)">
<path d="M282.135 186.058L270.833 186.851C240.15 174.557 232.755 161.563 232.893 156.603C239.268 162.796 268.377 178.82 282.135 186.058Z" fill="#F1A898"/>
<path d="M242 241.5C249.167 242.833 256 244 267.5 242.5C259 244.5 253 245.5 242 241.5Z" fill="#F4A786"/>
<path d="M227 222C234.167 223.333 241 224.5 252.5 223C244 225 238 226 227 222Z" fill="#F4A786"/>
</g>
</g>
<defs>
<clipPath id="clip0_1_4944">
<rect width="360" height="280" fill="white"/>
</clipPath>
</defs>
</svg>
