<svg width="60" height="60" viewBox="0 0 60 60" fill="none" xmlns="http://www.w3.org/2000/svg">
<circle cx="30" cy="30" r="30" fill="white"/>
<g clip-path="url(#clip0_1_13308)">
<path d="M44.423 27.675C45.2747 27.9143 45.7551 28.5194 46.0002 29.3556C46.0002 29.7894 46.0002 30.2232 46.0002 30.6562C45.9549 30.6695 45.95 30.7084 45.9379 30.7481C45.6346 31.7192 44.956 32.2673 43.9653 32.341C43.8642 32.3377 43.7639 32.3327 43.6636 32.3327C34.8963 32.331 26.1299 32.3302 17.3626 32.3294C17.2623 32.3294 17.1612 32.3352 17.0609 32.3385C15.9213 32.2234 15.1093 31.451 15.0179 30.3946C14.8926 28.9425 15.4239 28.0517 16.6387 27.6733C17.9991 27.6775 19.3595 27.6858 20.7199 27.6858C28.6209 27.6833 36.522 27.6783 44.423 27.675Z" fill="#9F5628"/>
<path d="M44.4223 27.6749C36.5213 27.679 28.6202 27.6832 20.7192 27.6865C19.3588 27.6873 17.9984 27.6782 16.638 27.6741C16.4916 27.6086 16.3404 27.554 16.2005 27.4762C15.4418 27.0573 15.1038 26.159 15.4014 25.298C15.9724 23.6447 16.8273 22.1611 17.9911 20.8713C20.0859 18.5499 22.7153 17.2195 25.6908 16.5332C27.1377 16.1995 28.6073 16.0116 30.0865 16.0017C33.5506 15.9785 36.8965 16.5406 39.9497 18.3371C42.5572 19.8712 44.3867 22.0991 45.515 24.9536C45.9978 26.1764 45.5821 27.2427 44.4223 27.6749Z" fill="#FF931C"/>
<path d="M23.8087 37.123C23.9494 37.1255 24.091 37.1305 24.2317 37.1305C30.6761 37.1313 37.1205 37.1322 43.5649 37.1355C43.6911 37.1355 43.8286 37.0883 43.9434 37.1876C44.0494 38.1438 43.9661 39.0802 43.6191 39.9784C42.9947 41.5928 41.7921 42.5979 40.2748 43.2685C39.1126 43.7818 37.8945 44.002 36.6352 44.0012C32.5622 43.9978 28.4883 43.9904 24.4153 43.9829C23.2684 43.9805 22.1483 43.8182 21.0718 43.3885C19.434 42.7345 18.1035 41.7377 17.4201 40.0066C17.1362 39.288 17.0254 38.5387 17.0529 37.7663C17.0602 37.5602 17.0658 37.3549 17.0723 37.1487C18.3817 37.1446 19.6912 37.1404 21.0006 37.1363C21.0321 37.4426 20.9941 37.7506 21.0548 38.0594C21.1915 38.7507 21.8563 39.2971 22.5138 39.2309C23.2409 39.1572 23.782 38.5652 23.7917 37.8342C23.7949 37.5966 23.803 37.3598 23.8087 37.123Z" fill="#FF931C"/>
<path d="M23.8091 40.5616C23.8034 40.7984 23.7961 41.0352 23.7929 41.272C23.7824 42.003 23.2413 42.5949 22.515 42.6686C21.8575 42.7348 21.1926 42.1884 21.056 41.4971C20.9953 41.1883 21.0333 40.8804 21.0018 40.574C21.0349 39.4779 21.0276 38.3818 21.005 37.2857C21.0058 36.6275 21.0099 35.9702 21.0066 35.312C21.0042 34.6952 20.565 34.2498 19.9609 34.2481C18.9968 34.2448 18.0327 34.2457 17.0678 34.244C17.0654 33.609 17.063 32.9732 17.0605 32.3382C17.1608 32.3349 17.2619 32.3291 17.3622 32.3291C26.1295 32.3299 34.8959 32.3308 43.6632 32.3324C43.7635 32.3324 43.8646 32.3382 43.9648 32.3407C43.9632 32.9757 43.9616 33.6107 43.9592 34.2448C37.6167 34.2457 31.275 34.2465 24.9333 34.2473C24.2652 34.2473 23.8026 34.6869 23.7937 35.3732C23.7808 36.4462 23.7953 37.5191 23.7977 38.5929C23.8018 39.2494 23.805 39.9051 23.8091 40.5616Z" fill="#FFB70A"/>
<path d="M21.0037 37.2858C20.2742 37.1219 19.6142 37.2469 19.0214 37.7395C18.6364 38.059 18.19 38.0979 17.7468 37.881C17.3035 37.665 17.0601 37.2932 17.0512 36.7791C17.0463 36.491 17.0431 36.2021 17.0391 35.914C17.0488 35.3576 17.0577 34.8013 17.0674 34.2441C18.0314 34.245 18.9955 34.245 19.9604 34.2483C20.5646 34.2499 21.0029 34.6953 21.0062 35.3121C21.0086 35.9703 21.0054 36.6276 21.0037 37.2858Z" fill="#0EAE3D"/>
<path d="M23.7984 38.5942C23.796 37.5212 23.7814 36.4475 23.7944 35.3745C23.8024 34.6882 24.2659 34.2486 24.9339 34.2486C31.2756 34.2477 37.6182 34.2469 43.9599 34.2461C43.9639 34.7851 43.9688 35.3248 43.9728 35.8638C43.9647 36.2032 43.9639 36.5435 43.9461 36.8829C43.921 37.3606 43.6663 37.6876 43.2595 37.8905C42.8389 38.1008 42.4046 38.1024 42.043 37.7845C41.0943 36.9508 39.8011 37.1031 39.0052 37.8234C38.5127 38.2688 37.9562 38.5842 37.272 38.5851C36.7212 38.5859 36.2262 38.4286 35.7838 38.085C35.3455 37.7448 34.9306 37.3664 34.3531 37.2662C33.6413 37.1429 32.9951 37.2629 32.416 37.7174C31.9542 38.0801 31.5094 38.4634 30.8947 38.5503C30.2452 38.6422 29.6556 38.5222 29.1218 38.133C28.9334 37.9956 28.7538 37.8449 28.5686 37.7042C27.7024 37.0452 26.562 37.0353 25.7079 37.7083C25.1353 38.1595 24.5651 38.5925 23.7984 38.5942Z" fill="#0EAE3D"/>
</g>
<defs>
<clipPath id="clip0_1_13308">
<rect width="31" height="28" fill="white" transform="translate(15 16)"/>
</clipPath>
</defs>
</svg>
