<svg width="228" height="228" viewBox="0 0 228 228" fill="none" xmlns="http://www.w3.org/2000/svg">
<path d="M118.653 192.293C99.1699 192.984 79.168 184.99 65.9619 171.307C52.6828 157.556 46.1316 138.189 43.9019 117.113C41.6722 96.0358 43.7691 73.3907 56.0934 60.1472C68.4228 47.045 90.8384 43.3495 112.065 44.0122C133.224 44.7481 153.121 49.774 166.56 62.0336C180.071 74.3613 187.26 93.7764 187.814 113.427C188.435 133.004 182.563 152.811 170.006 167.478C157.518 182.072 138.204 191.53 118.653 192.293Z" fill="#221F7A"/>
<path d="M191.792 111.624C191.792 147.562 155.728 188.35 118.799 188.35C81.8697 188.35 43.9526 147.562 43.9526 111.624C43.9526 75.562 81.8697 44.3496 118.799 44.3496C155.728 44.3496 191.792 75.562 191.792 111.624Z" fill="#534ED9"/>
<path d="M76.0119 156.089C74.7247 155.231 73.8218 154.076 73.2074 152.701C73.0576 152.367 73.0085 151.975 72.6827 151.727C70.4002 132.505 68.1177 113.282 65.8354 94.0625C66.1353 93.783 65.9122 93.3619 66.1364 93.0637C66.9018 92.9728 67.6624 92.9956 68.3643 93.3196C76.2682 96.9426 84.1655 100.576 92.0669 104.2C95.7802 105.901 99.509 107.578 103.218 109.288C105.826 110.49 108.417 111.728 111.014 112.951C110.87 113.459 110.531 113.851 110.198 114.253C99.0155 127.847 87.8332 141.446 76.6565 155.047C76.3998 155.359 76.014 155.621 76.0119 156.089Z" fill="#BDBDBD"/>
<path d="M76.0115 156.088C76.0137 155.62 76.3969 155.359 76.6558 155.044C87.8326 141.443 99.0126 127.846 110.198 114.249C110.528 113.848 110.869 113.453 111.013 112.948C111.169 112.997 111.333 113.033 111.48 113.101C113.907 114.216 116.347 115.307 118.753 116.465C119.562 116.854 120.129 116.814 120.852 116.213C123.002 114.421 125.231 112.723 127.43 110.986C127.952 111.412 128.464 111.854 129.002 112.26C142.961 122.794 156.924 133.322 170.881 143.858C171.209 144.105 171.643 144.268 171.752 144.725C170.28 146.484 168.339 147.426 166.056 147.773C165.793 147.811 165.529 147.84 165.266 147.871C137.86 151.126 110.452 154.375 83.0482 157.642C80.4804 157.947 78.102 157.638 76.0115 156.088Z" fill="#E0E0E0"/>
<path d="M103.218 109.282C99.5087 107.573 95.7802 105.898 92.0665 104.194C84.1655 100.573 76.2682 96.9396 68.3643 93.3166C67.6626 92.9951 66.9018 92.9697 66.1363 93.0606C66.5954 89.7271 69.6161 86.6777 73.0454 86.097C73.341 86.0468 73.6372 86.0016 73.932 85.9666C101.431 82.7063 128.927 79.4262 156.429 76.2133C159.564 75.8461 162.659 76.228 165.381 77.9718C165.952 78.339 166.533 78.7076 166.763 79.3868C166.6 79.4892 166.421 79.5758 166.273 79.694C162.292 82.8774 158.312 86.0608 154.338 89.2511C148.556 93.8956 142.772 98.538 137 103.194C133.798 105.777 130.62 108.385 127.43 110.982C125.231 112.716 122.999 114.417 120.852 116.208C120.129 116.812 119.562 116.852 118.753 116.46C116.347 115.303 113.907 114.212 111.48 113.097L103.218 109.282Z" fill="#F2F2F2"/>
<path d="M127.433 110.984C130.623 108.387 133.801 105.779 137.003 103.196C142.775 98.5403 148.557 93.8957 154.341 89.2534C158.315 86.0631 162.296 82.8797 166.276 79.6963C166.424 79.5781 166.603 79.4915 166.766 79.3891C166.819 79.7022 166.883 80.0141 166.92 80.329C169.196 99.4741 171.469 118.62 173.74 137.765C174.044 140.324 173.581 142.7 171.755 144.725C171.646 144.268 171.21 144.106 170.884 143.858C156.928 133.322 142.964 122.794 129.006 112.261C128.467 111.852 127.955 111.41 127.433 110.984Z" fill="#BDBDBD"/>
<path d="M195.638 137.716C199.612 143.772 200.87 151.204 200.068 158.639C199.271 166.038 196.382 173.4 190.741 178.674C185.131 183.991 176.776 187.185 169.419 185.827C162.029 184.426 155.68 178.442 150.819 171.657C146.001 164.84 142.704 157.266 143.902 150.526C145.1 143.785 150.751 137.911 157.242 133.359C163.69 128.839 170.946 125.6 177.934 126.342C184.928 127.047 191.622 131.691 195.638 137.716Z" fill="white"/>
<path d="M170.379 177.543C181.791 179.184 192.372 171.263 194.013 159.851C195.654 148.439 187.733 137.857 176.321 136.216C164.909 134.575 154.327 142.496 152.686 153.909C151.045 165.321 158.967 175.902 170.379 177.543Z" fill="#3531B3"/>
<path d="M171.132 172.292C179.644 173.516 187.536 167.608 188.76 159.096C189.984 150.583 184.076 142.691 175.564 141.467C167.052 140.243 159.159 146.151 157.935 154.663C156.711 163.175 162.619 171.068 171.132 172.292Z" fill="white"/>
<path d="M173.328 157.16C172.462 157.035 171.861 156.232 171.986 155.366L173.231 146.708C173.356 145.842 174.158 145.241 175.024 145.366C175.89 145.49 176.491 146.293 176.367 147.159L175.121 155.817C174.997 156.683 174.194 157.284 173.328 157.16Z" fill="#3C58A0"/>
<path d="M181.492 161.869L176.295 161.121C175.428 160.997 174.827 160.194 174.952 159.328C175.076 158.462 175.879 157.861 176.746 157.986L181.943 158.733C182.809 158.858 183.41 159.661 183.285 160.527C183.161 161.393 182.358 161.993 181.492 161.869Z" fill="#3C58A0"/>
<path d="M172.332 162.487C174.088 162.739 175.717 161.521 175.969 159.766C176.222 158.01 175.003 156.382 173.247 156.13C171.491 155.877 169.862 157.095 169.61 158.851C169.357 160.606 170.576 162.234 172.332 162.487Z" fill="#FF8500"/>
<path d="M5.01262 122.502C-2.49309 133.505 21.966 174.784 53.6787 165.163C55.236 164.69 55.3203 162.528 53.8127 161.916C48.3156 159.687 39.6525 153.92 36.4014 139.276C33.263 125.147 23.8057 118.619 15.8069 118.042C11.2681 117.714 7.19777 119.303 5.01262 122.502Z" fill="#030062"/>
<path d="M222.882 100.104C228.415 84.3996 221.15 70.2009 211.005 70.1581C200.919 70.1163 190.58 84.0641 198.957 99.0563C204.011 108.1 201.946 116.642 199.513 121.996C198.761 123.648 200.582 125.255 202.103 124.289C213.524 117.032 219.97 108.364 222.88 100.109C222.881 100.107 222.881 100.107 222.882 100.104Z" fill="#030062"/>
<path d="M30.947 112.736C30.947 112.736 36.1678 112.373 35.9893 105.294C35.8188 98.2185 40.1403 97.5072 38.3577 94.5875C36.5725 91.6625 23.5838 96.7009 22.5261 103.025C21.4762 109.351 28.6396 113.604 30.947 112.736Z" fill="white"/>
</svg>
