<svg width="229" height="228" viewBox="0 0 229 228" fill="none" xmlns="http://www.w3.org/2000/svg">
<path d="M118.653 192.293C99.1699 192.984 79.168 184.99 65.9619 171.307C52.6828 157.556 46.1316 138.189 43.9019 117.113C41.6722 96.0358 43.7691 73.3907 56.0934 60.1472C68.4228 47.045 90.8384 43.3495 112.065 44.0122C133.224 44.7481 153.121 49.774 166.56 62.0336C180.071 74.3613 187.26 93.7764 187.814 113.427C188.435 133.004 182.563 152.811 170.006 167.478C157.518 182.072 138.204 191.53 118.653 192.293Z" fill="#221F7A"/>
<path d="M191.792 111.624C191.792 147.562 155.728 188.35 118.799 188.35C81.8697 188.35 43.9526 147.562 43.9526 111.624C43.9526 75.562 81.8697 44.3496 118.799 44.3496C155.728 44.3496 191.792 75.562 191.792 111.624Z" fill="#534ED9"/>
<path d="M125 123L126.5 153L113.5 169L63.9995 151L54.9995 99.4999L86 62L126.5 79.9999L116 101.5L125 123Z" fill="#534ED9"/>
<path d="M77.6674 159.151C76.282 158.462 75.2401 157.431 74.4565 156.144C74.2656 155.832 74.1673 155.45 73.8128 155.245C69.1149 136.466 64.4171 117.687 59.7199 98.9112C59.9819 98.596 59.7073 98.2065 59.892 97.8823C60.6397 97.6952 61.3971 97.6216 62.1344 97.8541C70.4334 100.447 78.7272 103.052 87.0237 105.646C90.9226 106.864 94.8337 108.055 98.7294 109.281C101.468 110.143 104.195 111.044 106.926 111.928C106.848 112.45 106.561 112.882 106.282 113.322C96.9103 128.223 87.5398 143.129 78.1749 158.035C77.9598 158.377 77.6103 158.686 77.6674 159.151Z" fill="#BDBDBD"/>
<path fill-rule="evenodd" clip-rule="evenodd" d="M99.9793 81.5391L104.737 86.9853L103.41 108.187L112.193 113.506C111.28 113.218 110.365 112.934 109.45 112.65C108.769 112.439 108.087 112.227 107.407 112.014L98.7282 109.276C96.5939 108.604 94.4552 107.944 92.3163 107.283C90.551 106.738 88.7856 106.193 87.0224 105.641C82.7511 104.307 78.4804 102.969 74.2092 101.631C70.1847 100.37 66.1598 99.1096 62.1337 97.8516C61.397 97.6214 60.6391 97.6927 59.8913 97.8797C59.9246 94.5148 62.535 91.1076 65.8631 90.0974C66.15 90.0102 66.4381 89.9278 66.7261 89.8558C72.8666 88.3208 79.0069 86.7848 85.1472 85.2488C90.0912 84.012 95.0352 82.7753 99.9793 81.5391Z" fill="#F2F2F2"/>
<path fill-rule="evenodd" clip-rule="evenodd" d="M112.209 113.516L119.799 118.113L116.893 122.991L122.859 130.242L127.652 149.082C113.381 152.652 99.1113 156.224 84.8432 159.8C82.3347 160.428 79.9364 160.423 77.6665 159.15C77.6227 158.794 77.8169 158.529 78.0077 158.269C78.0655 158.191 78.1229 158.113 78.1734 158.032C87.5383 143.126 96.9069 128.223 106.281 113.32C106.295 113.296 106.31 113.272 106.325 113.249C106.587 112.833 106.85 112.417 106.925 111.925C106.974 111.934 107.023 111.942 107.072 111.949C107.186 111.967 107.3 111.984 107.407 112.018C108.088 112.232 108.769 112.443 109.45 112.655C110.37 112.94 111.29 113.226 112.209 113.516Z" fill="#E0E0E0"/>
<path d="M129.808 108.773C133.44 106.841 137.061 104.895 140.701 102.979C147.264 99.5243 153.833 96.083 160.405 92.6443C164.92 90.2811 169.44 87.9258 173.96 85.5705C174.128 85.4831 174.32 85.4326 174.5 85.3637C174.492 85.6811 174.494 85.9993 174.47 86.3155C173.008 105.54 171.543 124.764 170.076 143.988C169.88 146.558 168.968 148.8 166.785 150.434C166.766 149.964 166.37 149.721 166.098 149.415C154.437 136.383 142.769 123.359 131.105 110.329C130.655 109.824 130.239 109.291 129.808 108.773Z" fill="#BDBDBD"/>
<path fill-rule="evenodd" clip-rule="evenodd" d="M120.158 149.247L128.456 134.129L126.353 124.096L130.949 121.456L126.706 110.351C127.018 110.192 127.33 110.034 127.642 109.876C128.363 109.51 129.085 109.144 129.805 108.774C129.936 108.932 130.066 109.092 130.196 109.251C130.492 109.615 130.789 109.979 131.102 110.328C135.768 115.54 140.434 120.752 145.101 125.964C152.1 133.78 159.098 141.596 166.094 149.414C166.158 149.485 166.229 149.553 166.299 149.622C166.532 149.846 166.767 150.073 166.782 150.433C164.998 151.875 162.911 152.425 160.605 152.324C160.392 152.314 160.181 152.297 159.969 152.281C159.916 152.277 159.863 152.273 159.81 152.269C153.693 151.803 147.576 151.336 141.459 150.87C134.359 150.329 127.258 149.788 120.158 149.247Z" fill="#E0E0E0"/>
<path fill-rule="evenodd" clip-rule="evenodd" d="M126.705 110.346L123.212 101.203L133.543 87.5417L132.807 77.7663C143.529 78.5883 154.25 79.4153 164.971 80.2524C168.117 80.4971 171.081 81.4691 173.415 83.7055L173.43 83.72C173.914 84.1858 174.404 84.6571 174.498 85.3607C174.438 85.3837 174.376 85.4046 174.315 85.4255C174.192 85.4674 174.07 85.5092 173.957 85.5674C169.437 87.9228 164.917 90.2781 160.402 92.6413C159.344 93.1957 158.285 93.7501 157.227 94.3045C151.716 97.1911 146.204 100.078 140.699 102.976C138.221 104.28 135.753 105.598 133.284 106.916C132.125 107.534 130.966 108.153 129.806 108.77C129.119 109.122 128.43 109.471 127.741 109.82C127.396 109.995 127.05 110.171 126.705 110.346Z" fill="#F2F2F2"/>
<path d="M146.726 139.995C141.543 147.392 139.916 158.359 144.242 167.563C148.567 176.767 158.846 184.164 169.21 184.207C179.617 184.207 190.024 176.896 196.148 166.66C202.229 156.424 204.028 143.306 198.803 135.866C193.621 128.425 181.373 126.662 170.966 127.694C160.516 128.726 151.865 132.554 146.726 139.995Z" fill="#D63B3B"/>
<path fill-rule="evenodd" clip-rule="evenodd" d="M161.409 145.591C162.288 144.712 163.712 144.712 164.591 145.591L181.443 162.45C182.322 163.329 182.322 164.753 181.443 165.632C180.565 166.511 179.141 166.511 178.262 165.632L161.409 148.774C160.531 147.895 160.531 146.47 161.409 145.591Z" fill="white"/>
<path fill-rule="evenodd" clip-rule="evenodd" d="M181.408 145.41C182.287 146.288 182.288 147.712 181.409 148.591L164.553 165.447C163.675 166.325 162.25 166.326 161.371 165.447C160.492 164.569 160.492 163.144 161.37 162.266L178.226 145.41C179.105 144.531 180.529 144.531 181.408 145.41Z" fill="white"/>
<path d="M5.01262 122.502C-2.49309 133.506 21.966 174.784 53.6787 165.163C55.236 164.69 55.3203 162.528 53.8127 161.916C48.3156 159.688 39.6525 153.92 36.4014 139.276C33.263 125.148 23.8057 118.62 15.8069 118.042C11.2681 117.715 7.19777 119.303 5.01262 122.502Z" fill="#030062"/>
<path d="M224.332 102.389C232.167 87.697 227.123 72.5663 217.1 70.9963C207.135 69.4364 194.813 81.6683 200.838 97.751C204.472 107.453 201.144 115.586 197.933 120.512C196.942 122.033 198.499 123.896 200.149 123.17C212.532 117.715 220.21 110.116 224.329 102.394C224.331 102.392 224.331 102.392 224.332 102.389Z" fill="#030062"/>
<path d="M30.947 112.736C30.947 112.736 36.1678 112.373 35.9893 105.294C35.8188 98.2185 40.1403 97.5072 38.3577 94.5875C36.5725 91.6625 23.5838 96.7009 22.5261 103.025C21.4762 109.351 28.6396 113.604 30.947 112.736Z" fill="white"/>
</svg>
