<svg width="228" height="228" viewBox="0 0 228 228" fill="none" xmlns="http://www.w3.org/2000/svg">
<path d="M118.653 192.293C99.1699 192.984 79.168 184.99 65.9619 171.307C52.6828 157.556 46.1316 138.189 43.9019 117.113C41.6722 96.0358 43.7691 73.3907 56.0934 60.1472C68.4228 47.045 90.8384 43.3495 112.065 44.0122C133.224 44.7481 153.121 49.774 166.56 62.0336C180.071 74.3613 187.26 93.7764 187.814 113.427C188.435 133.004 182.563 152.811 170.006 167.478C157.518 182.072 138.204 191.53 118.653 192.293Z" fill="#221F7A"/>
<path d="M191.792 111.624C191.792 147.562 155.728 188.35 118.799 188.35C81.8697 188.35 43.9526 147.562 43.9526 111.624C43.9526 75.562 81.8697 44.3496 118.799 44.3496C155.728 44.3496 191.792 75.562 191.792 111.624Z" fill="#534ED9"/>
<path d="M85.0119 161.09C83.7247 160.232 82.8218 159.077 82.2074 157.701C82.0576 157.367 82.0085 156.976 81.6827 156.728C79.4002 137.505 77.1177 118.283 74.8354 99.063C75.1353 98.7835 74.9122 98.3624 75.1364 98.0642C75.9018 97.9733 76.6624 97.9961 77.3643 98.3201C85.2682 101.943 93.1655 105.577 101.067 109.2C104.78 110.902 108.509 112.579 112.218 114.288C114.826 115.49 117.417 116.729 120.014 117.952C119.87 118.459 119.531 118.852 119.198 119.253C108.015 132.847 96.8332 146.447 85.6565 160.048C85.3998 160.36 85.014 160.622 85.0119 161.09Z" fill="#FF8500"/>
<path d="M85.0115 161.089C85.0137 160.621 85.3969 160.359 85.6558 160.044C96.8326 146.443 108.013 132.847 119.198 119.25C119.528 118.848 119.869 118.453 120.013 117.948C120.169 117.998 120.333 118.034 120.48 118.102C122.907 119.217 125.347 120.307 127.753 121.465C128.562 121.854 129.129 121.815 129.852 121.213C132.002 119.422 134.231 117.724 136.43 115.986C136.952 116.412 137.464 116.854 138.002 117.261C151.961 127.794 165.924 138.322 179.881 148.858C180.209 149.106 180.643 149.268 180.752 149.725C179.28 151.484 177.339 152.427 175.056 152.773C174.793 152.812 174.529 152.841 174.266 152.872C146.86 156.126 119.452 159.376 92.0482 162.642C89.4804 162.947 87.102 162.639 85.0115 161.089Z" fill="#FFB70A"/>
<path d="M112.218 114.283C108.509 112.573 104.78 110.899 101.066 109.195C93.1655 105.574 85.2682 101.94 77.3643 98.3171C76.6626 97.9956 75.9018 97.9702 75.1363 98.0611C75.5954 94.7275 78.6161 91.6782 82.0454 91.0975C82.341 91.0473 82.6372 91.0021 82.932 90.9671C110.431 87.7068 137.927 84.4267 165.429 81.2138C168.564 80.8466 171.659 81.2285 174.381 82.9723C174.952 83.3395 175.533 83.708 175.763 84.3873C175.6 84.4897 175.421 84.5763 175.273 84.6945C171.292 87.8779 167.312 91.0613 163.338 94.2516C157.556 98.8961 151.772 103.538 146 108.194C142.798 110.777 139.62 113.385 136.43 115.982C134.231 117.717 131.999 119.417 129.852 121.209C129.129 121.813 128.562 121.852 127.753 121.461C125.347 120.303 122.907 119.212 120.48 118.097L112.218 114.283Z" fill="#FFCE4E"/>
<path d="M136.433 115.984C139.623 113.388 142.801 110.78 146.003 108.197C151.775 103.541 157.557 98.8962 163.341 94.2539C167.315 91.0636 171.296 87.8802 175.276 84.6968C175.424 84.5786 175.603 84.492 175.766 84.3896C175.819 84.7027 175.883 85.0145 175.92 85.3295C178.196 104.475 180.469 123.62 182.74 142.766C183.044 145.325 182.581 147.701 180.755 149.726C180.646 149.268 180.21 149.106 179.884 148.858C165.928 138.322 151.964 127.794 138.006 117.261C137.467 116.852 136.955 116.41 136.433 115.984Z" fill="#FF8500"/>
<path d="M112.801 45.8625L121.936 56.2279L118.261 71.7998L129.701 65.9552L134.214 71.7169L160.068 50.3042L112.801 45.8625Z" fill="#168BC3"/>
<path d="M125.307 60.3882C125.199 60.8657 118.247 71.8089 118.247 71.8089L129.7 65.9556L125.307 60.3882Z" fill="#168BC3"/>
<g opacity="0.3">
<path opacity="0.3" d="M125.307 60.3882C125.199 60.8657 118.247 71.8089 118.247 71.8089L129.7 65.9556L125.307 60.3882Z" fill="black"/>
</g>
<path d="M160.068 50.3042L125.307 60.3878L118.261 71.7998L121.936 56.2279L160.068 50.3042Z" fill="#168BC3"/>
<path opacity="0.1" d="M160.068 50.3042L125.307 60.3878L118.261 71.7998L121.936 56.2279L160.068 50.3042Z" fill="black"/>
<path d="M206.464 176.331C220.879 167.996 224.591 152.485 216.911 145.856C209.275 139.267 192.35 143.142 188.968 159.979C186.928 170.137 179.805 175.284 174.476 177.77C172.831 178.537 173.169 180.941 174.953 181.197C188.349 183.108 198.882 180.713 206.46 176.334C206.462 176.332 206.462 176.332 206.464 176.331Z" fill="#221F7A"/>
<path d="M5.01262 122.502C-2.49309 133.506 21.966 174.784 53.6787 165.163C55.236 164.69 55.3203 162.528 53.8127 161.916C48.3156 159.688 39.6525 153.92 36.4014 139.276C33.263 125.148 23.8057 118.62 15.8069 118.042C11.2681 117.715 7.19777 119.303 5.01262 122.502Z" fill="#FF8500"/>
<path d="M30.947 112.736C30.947 112.736 36.1678 112.373 35.9893 105.294C35.8188 98.2185 40.1403 97.5072 38.3577 94.5875C36.5725 91.6625 23.5838 96.7009 22.5261 103.025C21.4762 109.351 28.6396 113.604 30.947 112.736Z" fill="white"/>
<ellipse rx="8.42124" ry="17.656" transform="matrix(0.891507 0.453007 -0.452226 0.891903 175.323 23.9119)" fill="#FFB70A"/>
<ellipse cx="189.299" cy="51.8496" rx="8.49078" ry="8.5" fill="#FF8500"/>
<path d="M82.7863 169.967C82.7167 169.895 82.7167 169.895 82.6471 169.824C81.8892 168.474 81.203 167.054 80.6581 165.636C80.4512 165.281 80.6702 164.788 81.0244 164.721C81.3807 164.513 81.8721 164.73 81.9377 165.084C82.5543 166.432 83.2405 167.852 83.8571 169.2C84.064 169.556 83.9166 169.978 83.5604 170.186C83.3474 170.255 83.0649 170.252 82.7863 169.967ZM78.6873 160.177C78.6177 160.105 78.548 160.034 78.5501 159.893C78.0768 158.404 77.6752 156.846 77.3432 155.359C77.2776 155.005 77.4966 154.513 77.9205 154.517C78.2747 154.45 78.7662 154.667 78.7601 155.091C79.0921 156.578 79.4957 157.995 79.969 159.483C80.1042 159.908 79.8872 160.259 79.4613 160.396C79.1788 160.393 78.8266 160.319 78.6873 160.177ZM76.3655 149.627C76.2262 149.484 76.1566 149.413 76.1586 149.272C75.9679 147.786 75.7792 146.159 75.7298 144.675C75.7318 144.534 75.8055 144.323 75.8772 144.253C75.2464 143.893 74.6157 143.534 73.985 143.174C73.6348 142.959 73.4996 142.534 73.7166 142.183C73.9335 141.832 74.3594 141.695 74.7096 141.91C76.0407 142.7 77.3738 143.349 78.7089 143.857C79.1307 144.003 79.266 144.428 79.1903 144.78C79.0429 145.203 78.617 145.34 78.2648 145.266C77.9126 145.191 77.5625 144.976 77.2103 144.902C77.3313 146.316 77.4524 147.73 77.6431 149.216C77.7087 149.57 77.42 149.991 76.9962 149.987C76.7853 149.914 76.5744 149.841 76.3655 149.627ZM69.2399 139.03C68.1975 137.818 67.2963 136.609 66.4688 135.187C66.262 134.832 66.4093 134.41 66.7656 134.201C67.1218 133.993 67.5436 134.138 67.7505 134.494C68.58 135.773 69.4095 137.053 70.3844 138.052C70.6629 138.337 70.5852 138.831 70.2986 139.111C69.9423 139.319 69.5185 139.315 69.2399 139.03ZM63.8613 129.792C63.7916 129.721 63.722 129.65 63.724 129.508C63.1791 128.09 62.7058 126.602 62.3759 124.973C62.3103 124.62 62.5293 124.127 62.8835 124.06C63.2377 123.993 63.7292 124.21 63.7948 124.564C64.1268 126.05 64.6 127.539 65.0753 128.886C65.2105 129.311 64.9936 129.662 64.6373 129.871C64.3507 130.15 64.0702 130.006 63.8613 129.792ZM75.8823 138.954C75.7431 138.812 75.6755 138.599 75.6775 138.458C75.7714 136.834 75.9349 135.281 76.3093 133.801C76.385 133.449 76.8129 133.17 77.1651 133.244C77.5173 133.319 77.7938 133.745 77.7181 134.098C77.4154 135.508 77.1822 136.989 77.16 138.543C77.1539 138.967 76.7956 139.317 76.4434 139.242C76.2325 139.17 76.0216 139.097 75.8823 138.954ZM84.0494 145.888C83.9102 145.745 83.8425 145.533 83.8446 145.392C83.8506 144.968 84.1372 144.688 84.5611 144.692C85.2675 144.699 85.9043 144.635 86.5431 144.429C87.2516 144.295 88.0317 144.091 88.8834 143.817C89.3093 143.679 89.6595 143.895 89.8663 144.25C90.0016 144.675 89.7846 145.026 89.4283 145.235C88.5766 145.509 87.7248 145.783 86.8751 145.916C86.1667 146.05 85.3886 146.113 84.6822 146.106C84.3279 146.173 84.1887 146.031 84.0494 145.888ZM61.5374 119.384C61.3981 119.241 61.4002 119.1 61.4022 118.959C61.2831 117.403 61.1641 115.848 61.1863 114.294C61.1924 113.87 61.479 113.59 61.9029 113.594C62.3267 113.599 62.6052 113.884 62.5992 114.308C62.6486 115.792 62.7676 117.347 62.817 118.831C62.8826 119.185 62.594 119.606 62.1701 119.602C61.8876 119.599 61.6767 119.527 61.5374 119.384ZM78.6447 128.596C78.4358 128.382 78.3702 128.028 78.5156 127.747C79.2402 126.483 80.0344 125.29 80.9659 124.38C81.1092 124.241 81.3242 124.031 81.4675 123.891C81.7541 123.611 82.2476 123.687 82.5261 123.972C82.8046 124.257 82.7269 124.751 82.4403 125.031C82.297 125.171 82.1537 125.311 82.0104 125.45C81.1505 126.29 80.43 127.272 79.777 128.466C79.56 128.817 79.1341 128.954 78.784 128.739C78.784 128.739 78.7143 128.668 78.6447 128.596ZM93.6458 141.815C93.3672 141.53 93.3733 141.106 93.6599 140.826C94.7347 139.777 95.529 138.584 96.2536 137.319C96.4706 136.968 96.8964 136.831 97.177 136.975C97.5272 137.191 97.6624 137.616 97.5171 137.897C96.7904 139.303 95.8529 140.636 94.6348 141.825C94.4198 142.035 93.9243 142.1 93.6458 141.815ZM61.5498 108.645C61.4105 108.503 61.3429 108.29 61.3469 108.008C61.5105 106.455 61.7436 104.974 62.0484 103.422C62.1241 103.07 62.552 102.792 62.9042 102.866C63.2564 102.94 63.5329 103.366 63.4572 103.719C63.2241 105.2 62.9193 106.751 62.7578 108.163C62.7517 108.587 62.3238 108.865 61.9716 108.791C61.7587 108.859 61.689 108.788 61.5498 108.645ZM87.0654 122.745C86.9261 122.603 86.9282 122.461 86.8606 122.249C86.8666 121.825 87.1532 121.545 87.5075 121.478C89.1332 121.423 90.753 121.793 92.297 122.514C92.6472 122.73 92.7824 123.155 92.5654 123.506C92.3484 123.857 91.9225 123.994 91.5724 123.779C90.2392 123.13 88.8305 122.833 87.4872 122.891C87.4156 122.961 87.2047 122.888 87.0654 122.745ZM63.749 98.1406C63.5401 97.9266 63.4725 97.714 63.6179 97.4328C64.1336 95.9543 64.6493 94.4758 65.2347 93.0686C65.382 92.6462 65.8079 92.5091 66.2297 92.6546C66.6516 92.8001 66.7868 93.2253 66.6394 93.6477C66.0541 95.0549 65.4687 96.4621 65.0246 97.8706C64.8773 98.2931 64.521 98.5015 64.0992 98.356C63.9579 98.3546 63.8883 98.2833 63.749 98.1406ZM97.4587 132.103C97.3194 131.961 97.2498 131.889 97.3235 131.678C97.1307 130.334 96.6554 128.987 95.8976 127.637C95.6907 127.282 95.8381 126.859 96.1247 126.579C96.4809 126.371 96.9028 126.516 97.1813 126.802C98.0784 128.294 98.6213 129.854 98.812 131.339C98.8776 131.693 98.5889 132.114 98.1651 132.11C97.8089 132.319 97.5979 132.246 97.4587 132.103ZM68.0574 88.3631C67.8485 88.1491 67.783 87.7952 67.9283 87.5141C68.7246 86.1796 69.5208 84.8452 70.3867 83.5821C70.745 83.2324 71.1709 83.0953 71.4494 83.3807C71.7996 83.5961 71.8631 84.0913 71.5765 84.371C70.7106 85.6341 69.8447 86.8972 69.1201 88.1617C68.9031 88.5128 68.4773 88.6499 68.1271 88.4345C68.1967 88.5058 68.1271 88.4345 68.0574 88.3631ZM74.3993 79.6655C74.1208 79.3802 74.1269 78.9563 74.4135 78.6766C75.0604 77.9059 75.7769 77.2065 76.4934 76.5071C76.9234 76.0875 77.2816 75.7378 77.7115 75.3181C77.9982 75.0384 78.4916 75.1139 78.7005 75.3279C78.9791 75.6133 78.973 76.0371 78.6864 76.3169C78.2565 76.7365 77.8982 77.0862 77.4683 77.5058C76.7517 78.2052 76.1069 78.8347 75.46 79.6054C75.243 79.9565 74.7475 80.0222 74.3993 79.6655C74.4689 79.7369 74.3993 79.6655 74.3993 79.6655ZM82.4144 72.5388L82.3447 72.4674C82.1379 72.1121 82.1439 71.6883 82.5002 71.4799C83.7142 70.5735 85.0696 69.6685 86.4229 68.9048C86.7791 68.6963 87.201 68.8418 87.4078 69.1971C87.6147 69.5524 87.4674 69.9748 87.1111 70.1832C85.7578 70.947 84.4741 71.782 83.2601 72.6884C83.1167 72.8283 82.6929 72.8241 82.4144 72.5388ZM91.816 67.2626C91.7463 67.1913 91.6767 67.1199 91.6071 67.0486C91.4002 66.6933 91.6192 66.2009 91.9734 66.1338C93.3964 65.4414 94.8869 64.9616 96.3079 64.4105C96.7338 64.2734 97.0839 64.4889 97.2192 64.9141C97.3544 65.3393 97.1374 65.6904 96.7115 65.8275C95.221 66.3073 93.8 66.8584 92.4487 67.4808C92.3074 67.4794 92.0249 67.4766 91.816 67.2626ZM102.037 63.9727C101.967 63.9014 101.828 63.7587 101.83 63.6174C101.765 63.2635 102.053 62.8425 102.407 62.7754C103.896 62.4369 105.524 62.241 107.01 62.0438C107.364 61.9767 107.784 62.2634 107.778 62.6873C107.844 63.0412 107.555 63.4622 107.131 63.458C105.645 63.6552 104.158 63.8524 102.67 64.1909C102.387 64.1881 102.176 64.1154 102.037 63.9727Z" fill="white"/>
</svg>
