<svg width="228" height="228" viewBox="0 0 228 228" fill="none" xmlns="http://www.w3.org/2000/svg">
<path d="M118.653 186.293C99.1699 186.984 79.168 178.99 65.9619 165.307C52.6828 151.556 46.1316 132.189 43.9019 111.113C41.6722 90.0358 43.7691 67.3907 56.0934 54.1472C68.4228 41.045 90.8384 37.3495 112.065 38.0122C133.224 38.7481 153.121 43.774 166.56 56.0336C180.071 68.3613 187.26 87.7764 187.814 107.427C188.435 127.004 182.563 146.811 170.006 161.478C157.518 176.072 138.204 185.53 118.653 186.293Z" fill="#221F7A"/>
<path d="M191.792 105.624C191.792 141.562 155.727 182.35 118.798 182.35C81.8692 182.35 43.9521 141.562 43.9521 105.624C43.9521 69.562 81.8692 38.3496 118.798 38.3496C155.727 38.3496 191.792 69.562 191.792 105.624Z" fill="#534ED9"/>
<rect width="71.3434" height="124.302" rx="7" transform="matrix(0.984755 -0.173947 0.17335 0.98486 62.2239 39.9971)" fill="#C36600"/>
<rect width="71.3434" height="124.302" rx="7" transform="matrix(0.984755 -0.173947 0.17335 0.98486 64.239 36.7593)" fill="#FF8500"/>
<rect width="61.2711" height="103.304" rx="7" transform="matrix(0.984755 -0.173947 0.173349 0.98486 71.4805 44.0093)" fill="#3531B3"/>
<path d="M88.3805 96.492C88.106 96.3711 87.9405 96.1472 87.8842 95.8203C87.856 95.6569 87.8826 95.484 87.9639 95.3017C87.9592 95.2745 88.0249 95.165 88.1609 94.9733L90.6862 91.7193L86.5441 91.9706L86.2016 91.9455C85.9732 91.9287 85.7855 91.8209 85.6385 91.6219C85.4868 91.3956 85.4171 91.1552 85.4296 90.9006L85.7684 88.6967C85.7856 88.4693 85.8943 88.2823 86.0944 88.1356C86.322 87.9842 86.55 87.9169 86.7783 87.9336L87.1349 88.0404L91.0039 89.3928L89.5406 85.5643L89.4432 85.2445C89.4057 85.0266 89.4526 84.8082 89.5839 84.5892C89.7427 84.3655 89.9452 84.2325 90.1915 84.19L92.4086 83.8078C92.6549 83.7653 92.8766 83.8253 93.0737 83.9876C93.2982 84.1453 93.4292 84.333 93.4668 84.5509L93.4821 84.8849L93.3101 89.0373L96.5779 86.4126L96.8782 86.1925C96.9283 86.1559 96.9943 86.1305 97.0765 86.1163C97.2954 86.0786 97.4964 86.1 97.6794 86.1806C97.8898 86.2566 98.0251 86.3875 98.0853 86.5734L99.1425 88.5368L99.2258 88.7748C99.2587 88.9655 99.2231 89.1679 99.1191 89.3822C99.0378 89.5645 98.9197 89.697 98.7649 89.7798L98.4505 89.9181L94.4294 91.1161L97.9324 93.2889C98.1248 93.424 98.2233 93.5052 98.228 93.5324C98.3657 93.6769 98.4486 93.8309 98.4768 93.9943C98.5331 94.3212 98.4522 94.5876 98.234 94.7934L96.694 96.4052C96.5438 96.5152 96.373 96.5867 96.1814 96.6197C95.8255 96.6811 95.5604 96.6146 95.386 96.4203L95.1725 96.1626L92.8002 92.7011L91.7237 96.7571C91.6878 96.8755 91.6358 96.9826 91.5678 97.0785C91.4685 97.32 91.2409 97.4714 90.8851 97.5327C90.6935 97.5657 90.5085 97.5556 90.3302 97.5021L88.3805 96.492Z" fill="white"/>
<path d="M106.704 93.3335C106.429 93.2125 106.264 92.9886 106.207 92.6617C106.179 92.4983 106.206 92.3255 106.287 92.1432C106.282 92.1159 106.348 92.0065 106.484 91.8147L109.009 88.5607L104.867 88.812L104.525 88.7869C104.296 88.7702 104.109 88.6623 103.962 88.4633C103.81 88.237 103.74 87.9966 103.753 87.742L104.091 85.5381C104.109 85.3108 104.217 85.1237 104.418 84.977C104.645 84.8256 104.873 84.7583 105.101 84.775L105.458 84.8818L109.327 86.2342L107.864 82.4057L107.766 82.0859C107.729 81.8681 107.776 81.6496 107.907 81.4306C108.066 81.207 108.268 81.0739 108.515 81.0314L110.732 80.6492C110.978 80.6068 111.2 80.6667 111.397 80.8291C111.621 80.9867 111.752 81.1745 111.79 81.3924L111.805 81.7263L111.633 85.8788L114.901 83.254L115.201 83.034C115.251 82.9973 115.317 82.9719 115.4 82.9577C115.618 82.92 115.819 82.9414 116.002 83.0221C116.213 83.098 116.348 83.2289 116.408 83.4149L117.466 85.3782L117.549 85.6162C117.582 85.8069 117.546 86.0094 117.442 86.2236C117.361 86.4059 117.243 86.5384 117.088 86.6212L116.774 86.7596L112.752 87.9576L116.255 90.1303C116.448 90.2654 116.546 90.3466 116.551 90.3738C116.689 90.5184 116.772 90.6724 116.8 90.8358C116.856 91.1626 116.775 91.429 116.557 91.6349L115.017 93.2466C114.867 93.3566 114.696 93.4281 114.504 93.4612C114.149 93.5225 113.883 93.456 113.709 93.2617L113.496 93.004L111.123 89.5426L110.047 93.5985C110.011 93.7169 109.959 93.824 109.891 93.9199C109.792 94.1614 109.564 94.3128 109.208 94.3741C109.017 94.4072 108.832 94.397 108.653 94.3436L106.704 93.3335Z" fill="white"/>
<path d="M125.027 90.1749C124.752 90.0539 124.587 89.83 124.53 89.5032C124.502 89.3398 124.529 89.1669 124.61 88.9846C124.605 88.9574 124.671 88.8479 124.807 88.6562L127.332 85.4022L123.19 85.6534L122.848 85.6283C122.619 85.6116 122.432 85.5037 122.285 85.3047C122.133 85.0785 122.063 84.838 122.076 84.5835L122.415 82.3795C122.432 82.1522 122.54 81.9652 122.741 81.8185C122.968 81.6671 123.196 81.5997 123.424 81.6164L123.781 81.7233L127.65 83.0757L126.187 79.2471L126.089 78.9274C126.052 78.7095 126.099 78.491 126.23 78.2721C126.389 78.0484 126.591 77.9153 126.838 77.8729L129.055 77.4907C129.301 77.4482 129.523 77.5082 129.72 77.6705C129.944 77.8281 130.075 78.0159 130.113 78.2338L130.128 78.5677L129.956 82.7202L133.224 80.0955L133.524 79.8754C133.574 79.8387 133.64 79.8133 133.723 79.7992C133.942 79.7614 134.143 79.7829 134.326 79.8635C134.536 79.9394 134.671 80.0704 134.731 80.2563L135.789 82.2196L135.872 82.4577C135.905 82.6483 135.869 82.8508 135.765 83.065C135.684 83.2473 135.566 83.3799 135.411 83.4627L135.097 83.601L131.076 84.799L134.579 86.9717C134.771 87.1068 134.869 87.188 134.874 87.2153C135.012 87.3598 135.095 87.5138 135.123 87.6772C135.179 88.0041 135.098 88.2704 134.88 88.4763L133.34 90.088C133.19 90.198 133.019 90.2696 132.827 90.3026C132.472 90.3639 132.207 90.2974 132.032 90.1031L131.819 89.8455L129.446 86.384L128.37 90.44C128.334 90.5583 128.282 90.6655 128.214 90.7613C128.115 91.0028 127.887 91.1542 127.531 91.2156C127.34 91.2486 127.155 91.2384 126.976 91.185L125.027 90.1749Z" fill="white"/>
<path d="M206.464 170.33C220.879 161.996 224.591 146.485 216.911 139.856C209.275 133.267 192.35 137.141 188.968 153.979C186.928 164.136 179.805 169.284 174.476 171.769C172.831 172.536 173.169 174.941 174.953 175.196C188.349 177.108 198.882 174.713 206.46 170.333C206.462 170.332 206.462 170.332 206.464 170.33Z" fill="#030062"/>
<path d="M5.01237 116.502C-2.49334 127.506 21.9657 168.784 53.6785 159.163C55.2357 158.69 55.32 156.528 53.8124 155.916C48.3154 153.688 39.6523 147.92 36.4012 133.276C33.2628 119.148 23.8055 112.62 15.8067 112.042C11.2679 111.715 7.19753 113.303 5.01237 116.502Z" fill="#030062"/>
<path d="M30.9473 106.736C30.9473 106.736 36.168 106.373 35.9896 99.2944C35.819 92.2185 40.1405 91.5072 38.3579 88.5875C36.5727 85.6625 23.584 90.7009 22.5263 97.0245C21.4765 103.351 28.6398 107.604 30.9473 106.736Z" fill="white"/>
<path d="M127 146C127 148.209 125.209 150 123 150C120.791 150 119 148.209 119 146C119 143.791 120.791 142 123 142C125.209 142 127 143.791 127 146Z" fill="white"/>
<circle cx="157" cy="112" r="21" fill="#4B4B4B"/>
<circle cx="155" cy="111" r="21" fill="#C4C4C4"/>
<circle cx="155" cy="111" r="18" fill="#F1F1F1"/>
<path d="M170 111C170 102.716 163.284 96 155 96" stroke="#D12424" stroke-width="3"/>
<path d="M155 96C146.716 96 140 102.716 140 111" stroke="#333333" stroke-width="3"/>
<path d="M140 111C140 119.284 146.716 126 155 126" stroke="#333333" stroke-width="3"/>
<path d="M155.418 108.899C157.427 108.745 166.056 108.536 170.119 108.451C166.177 109.979 157.912 113.175 156.392 113.733C154.493 114.431 151.677 113.112 151.494 112.205C151.311 111.299 152.906 109.091 155.418 108.899Z" fill="#FF8500"/>
</svg>
