<svg width="61" height="65" viewBox="0 0 61 65" fill="none" xmlns="http://www.w3.org/2000/svg">
<circle cx="30" cy="35" r="30" fill="white"/>
<path d="M43.9131 21.728C43.9499 21.8189 43.9721 21.9157 43.9849 22.0163C43.9883 22.0425 43.9912 22.0681 43.9929 22.0949C43.9935 22.1051 43.9949 22.1152 43.9963 22.1253C43.9981 22.1389 44 22.1526 44 22.1667V30.3333C44 30.9773 43.4773 31.5 42.8333 31.5C42.1893 31.5 41.6667 30.9773 41.6667 30.3333V25.3366L41.4167 25.5866M43.9131 21.728L43.1401 21.0461C43.0415 21.0194 42.9401 21 42.8333 21H34.6667C34.0227 21 33.5 21.5227 33.5 22.1667C33.5 22.8107 34.0227 23.3333 34.6667 23.3333H39.6628L39.4128 23.5833M43.9131 21.728C43.9124 21.7265 43.9121 21.7246 43.9119 21.7226C43.9117 21.7217 43.9116 21.7207 43.9114 21.7198L43.9131 21.728ZM41.4167 25.5866V25.2331L34.7028 31.9469C36.1891 33.8054 37 36.0909 37 38.5C37 44.2895 32.2895 49 26.5 49C20.7105 49 16 44.2895 16 38.5C16 32.7105 20.7105 28 26.5 28C28.9102 28 31.1963 28.8115 33.0531 30.2966L39.7664 23.5833H39.4128M41.4167 25.5866L35.0362 31.9671C36.4698 33.8371 37.25 36.1095 37.25 38.5C37.25 44.4275 32.4275 49.25 26.5 49.25C20.5725 49.25 15.75 44.4275 15.75 38.5C15.75 32.5725 20.5725 27.75 26.5 27.75C28.8915 27.75 31.1644 28.5307 33.0329 29.9632L39.4128 23.5833M41.4167 25.5866V30.3333C41.4167 31.1154 42.0513 31.75 42.8333 31.75C43.6154 31.75 44.25 31.1154 44.25 30.3333V22.1667C44.25 22.1364 44.2465 22.1101 44.2447 22.0972L44.2427 22.0821C44.2425 22.0808 44.2425 22.0801 44.2424 22.0797M39.4128 23.5833H34.6667C33.8846 23.5833 33.25 22.9487 33.25 22.1667C33.25 21.3846 33.8846 20.75 34.6667 20.75H42.8333C42.9699 20.75 43.0944 20.7747 43.2046 20.8046M43.2046 20.8046L44.1527 21.654C44.1945 21.7632 44.2189 21.8749 44.2329 21.9843C44.2366 22.0134 44.2402 22.0448 44.2424 22.079L44.2424 22.0797M43.2046 20.8046C43.235 20.8126 43.2637 20.8216 43.292 20.8316M43.2046 20.8046L43.292 20.8316M44.2424 22.0797C44.2424 22.079 44.2424 22.0793 44.2424 22.08L44.2424 22.0797ZM43.292 20.8316C43.2925 20.8317 43.293 20.8319 43.2935 20.8321L43.2102 21.0678L43.2905 20.8311C43.291 20.8312 43.2915 20.8314 43.292 20.8316ZM26.5 46.4167C22.1346 46.4167 18.5833 42.8654 18.5833 38.5C18.5833 34.1346 22.1346 30.5833 26.5 30.5833C28.6141 30.5833 30.6033 31.4058 32.0999 32.897C33.5943 34.3968 34.4167 36.386 34.4167 38.5C34.4167 42.8654 30.8654 46.4167 26.5 46.4167Z" fill="#534ED9" stroke="#534ED9" stroke-width="0.5"/>
<path d="M40.819 4.64887C38.9228 7.38466 38.3273 11.4406 39.9101 14.8445C41.4929 18.2483 45.2539 20.9841 49.0463 21C52.8544 21 56.6625 18.296 58.9035 14.5104C61.1288 10.7249 61.787 5.87361 59.8751 3.12191C57.9789 0.370213 53.4969 -0.281924 49.6889 0.0998142C45.8651 0.481553 42.6995 1.89717 40.819 4.64887Z" fill="#0EAE3D"/>
<path d="M54 8L48.5 13L46 10.7273" stroke="white" stroke-width="2" stroke-linecap="round" stroke-linejoin="round"/>
</svg>
