<svg width="49" height="52" viewBox="0 0 49 52" fill="none" xmlns="http://www.w3.org/2000/svg">
<path d="M42.1831 6.8899C46.7308 11.4706 49.3013 18.1425 48.9717 24.4493C48.6422 30.7893 45.4456 36.7641 40.8649 42.0751C36.2842 47.3861 30.3523 52 24.3875 52C18.4557 51.9668 12.5238 47.3529 7.91017 42.0419C3.32947 36.7309 0.066952 30.7561 0.00104253 24.7149C-0.0648669 18.6404 2.99992 12.4996 7.61358 7.9189C12.1943 3.33819 18.2909 0.284377 24.6512 0.0188285C30.9785 -0.24672 37.6024 2.30919 42.1831 6.8899Z" fill="white"/>
<path d="M41.0371 14.7832L26.9922 11.3783C26.1303 11.1694 25.2623 11.6987 25.0533 12.5605L19.3785 35.9687C19.1695 36.8306 19.6988 37.6987 20.5607 37.9076L34.6056 41.3125C35.4675 41.5214 36.3356 40.9921 36.5445 40.1303L42.2193 16.7221C42.4283 15.8602 41.899 14.9922 41.0371 14.7832Z" fill="#3531B3"/>
<path d="M37.9394 17.3368L28.5762 15.0669C28.1452 14.9624 27.7112 15.2271 27.6067 15.658L27.2284 17.2185C27.1239 17.6495 27.3886 18.0835 27.8195 18.188L37.1828 20.4579C37.6137 20.5624 38.0478 20.2977 38.1522 19.8668L38.5306 18.3062C38.635 17.8753 38.3704 17.4413 37.9394 17.3368Z" fill="#168BC3"/>
<path d="M27.8669 24.8085C28.7288 25.0175 29.5968 24.4882 29.8058 23.6263C30.0147 22.7644 29.4854 21.8964 28.6235 21.6874C27.7617 21.4785 26.8936 22.0078 26.6847 22.8696C26.4757 23.7315 27.005 24.5996 27.8669 24.8085Z" fill="#FF8500"/>
<path d="M26.5427 30.2704C27.4045 30.4794 28.2726 29.9501 28.4815 29.0882C28.6905 28.2263 28.1612 27.3583 27.2993 27.1493C26.4374 26.9404 25.5694 27.4697 25.3604 28.3315C25.1515 29.1934 25.6808 30.0615 26.5427 30.2704Z" fill="#FF8500"/>
<path d="M25.2185 35.7323C26.0803 35.9412 26.9484 35.4119 27.1573 34.5501C27.3663 33.6882 26.837 32.8201 25.9751 32.6112C25.1132 32.4023 24.2452 32.9316 24.0362 33.7934C23.8273 34.6553 24.3566 35.5234 25.2185 35.7323Z" fill="#FF8500"/>
<path d="M34.1091 26.3218C34.9709 26.5307 35.839 26.0014 36.0479 25.1396C36.2569 24.2777 35.7276 23.4096 34.8657 23.2007C34.0039 22.9918 33.1358 23.5211 32.9269 24.3829C32.7179 25.2448 33.2472 26.1128 34.1091 26.3218Z" fill="#FF8500"/>
<path d="M32.7849 31.7837C33.6467 31.9926 34.5148 31.4633 34.7237 30.6014C34.9327 29.7396 34.4034 28.8715 33.5415 28.6626C32.6796 28.4536 31.8116 28.9829 31.6026 29.8448C31.3937 30.7067 31.923 31.5747 32.7849 31.7837Z" fill="#FF8500"/>
<path d="M31.4606 37.2456C32.3225 37.4545 33.1906 36.9252 33.3995 36.0634C33.6084 35.2015 33.0792 34.3334 32.2173 34.1245C31.3554 33.9156 30.4874 34.4449 30.2784 35.3067C30.0695 36.1686 30.5988 37.0367 31.4606 37.2456Z" fill="#FF8500"/>
<rect x="7.00439" y="15.7308" width="22.1015" height="13.6509" rx="2" transform="rotate(-7 7.00439 15.7308)" fill="#E5E5E5"/>
<path d="M7.24862 17.6786C7.11401 16.5822 7.89364 15.5844 8.98998 15.4497L26.9566 13.2437C28.0529 13.1091 29.0508 13.8887 29.1854 14.9851L29.5742 18.1515L7.63741 20.845L7.24862 17.6786Z" fill="#FFB70A"/>
<rect x="9.6709" y="21.4311" width="9.75067" height="0.650045" rx="0.325022" transform="rotate(-7 9.6709 21.4311)" fill="#333333" fill-opacity="0.5"/>
<rect x="9.9873" y="24.9396" width="9.75067" height="0.650045" rx="0.325022" transform="rotate(-7 9.9873 24.9396)" fill="#333333" fill-opacity="0.5"/>
<rect x="9.8291" y="23.1061" width="8.45058" height="0.650045" rx="0.325022" transform="rotate(-7 9.8291 23.1061)" fill="#333333" fill-opacity="0.5"/>
<rect x="10.146" y="26.6147" width="8.45058" height="0.650045" rx="0.325022" transform="rotate(-7 10.146 26.6147)" fill="#333333" fill-opacity="0.5"/>
<circle cx="10.8118" cy="18.2004" r="1.30009" fill="#FF8500"/>
</svg>
