<svg width="144" height="144" viewBox="0 0 144 144" fill="none" xmlns="http://www.w3.org/2000/svg">
<path fill-rule="evenodd" clip-rule="evenodd" d="M96 66.3229H53.9451C51.4698 66.3229 49.138 65.3256 47.6529 63.6269L44.5068 60.0293C43.0216 58.3307 40.6898 57.3333 38.2145 57.3333H24V17.3367C24 14.3905 26.4776 12 29.5423 12H90.4577C93.5174 12 96 14.3905 96 17.3367V66.3229Z" fill="white" fill-opacity="0.4"/>
<g opacity="0.2">
<path d="M81.0608 29.8252H38.9393C38.0524 29.8252 37.3334 29.1183 37.3334 28.2459C37.3334 27.3734 38.0522 26.6665 38.9393 26.6665H81.0608C81.9477 26.6665 82.6667 27.3734 82.6667 28.2459C82.6667 29.1183 81.9477 29.8252 81.0608 29.8252Z" fill="#3531B3"/>
</g>
<g opacity="0.2">
<path d="M81.0608 45.5791H38.9393C38.0524 45.5791 37.3334 44.8722 37.3334 43.9998C37.3334 43.1273 38.0522 42.4204 38.9393 42.4204H81.0608C81.9477 42.4204 82.6667 43.1273 82.6667 43.9998C82.6667 44.8722 81.9477 45.5791 81.0608 45.5791Z" fill="#3531B3"/>
</g>
<g opacity="0.2">
<path d="M70.772 61.333H38.5614C37.8832 61.333 37.3334 60.6261 37.3334 59.7537C37.3334 58.8814 37.883 58.1743 38.5614 58.1743H70.772C71.4502 58.1743 72 58.8812 72 59.7537C72 60.6261 71.4502 61.333 70.772 61.333Z" fill="#3531B3"/>
</g>
<path d="M19.8653 56.9907H38.2145C40.6898 56.9907 43.0216 57.988 44.5068 59.6867L47.6529 63.2843C49.138 64.983 51.4698 65.9803 53.9451 65.9803H98.5135C102.858 65.9803 106.379 68.9996 106.379 72.7248V119.922C106.379 123.648 102.858 126.667 98.5135 126.667H19.8653C15.5209 126.667 12 123.648 12 119.922V63.7352C12 60.01 15.5209 56.9907 19.8653 56.9907Z" fill="white" fill-opacity="0.15"/>
<path fill-rule="evenodd" clip-rule="evenodd" d="M115.167 51.9241C122.148 63.8255 118.005 79.0437 105.914 85.915C93.8227 92.7862 78.3617 88.7085 71.3808 76.8071C64.4 64.9058 68.5427 49.6876 80.6339 42.8163C92.7251 35.945 108.186 40.0228 115.167 51.9241ZM109.328 55.2418C114.447 63.9696 111.409 75.1298 102.542 80.1688C93.675 85.2078 82.3367 82.2174 77.2173 73.4896C72.098 64.7618 75.136 53.6016 84.0031 48.5626C92.8701 43.5236 104.208 46.5139 109.328 55.2418Z" fill="#7673CB"/>
<path d="M108.341 82.7484L101.918 86.3984L107.986 96.7432L114.409 93.0932L108.341 82.7484Z" fill="#7673CB"/>
<path d="M128.041 123.638C125.12 125.298 121.389 124.311 119.704 121.44L107.425 100.506C106.588 99.0779 107.084 97.2552 108.535 96.4309L113.864 93.4025C115.314 92.5783 117.166 93.0667 118.003 94.4943L130.282 115.428C131.962 118.302 130.962 121.978 128.041 123.638Z" fill="#8683D1"/>
</svg>
