<svg width="108" height="108" viewBox="0 0 108 108" fill="none" xmlns="http://www.w3.org/2000/svg">
<path fill-rule="evenodd" clip-rule="evenodd" d="M72 49.7422H40.4588C38.6024 49.7422 36.8535 48.9942 35.7396 47.7202L33.3801 45.022C32.2662 43.748 30.5173 43 28.6609 43H18V13.0025C18 10.7929 19.8582 9 22.1567 9H67.8433C70.1381 9 72 10.7929 72 13.0025V49.7422Z" fill="#EBEAF7"/>
<g opacity="0.2">
<path d="M60.7956 22.369H29.2044C28.5393 22.369 28 21.8389 28 21.1845C28 20.5302 28.5391 20 29.2044 20H60.7956C61.4608 20 62 20.5302 62 21.1845C62 21.8389 61.4608 22.369 60.7956 22.369Z" fill="#3531B3"/>
</g>
<g opacity="0.2">
<path d="M60.7956 34.1842H29.2044C28.5393 34.1842 28 33.654 28 32.9997C28 32.3454 28.5391 31.8152 29.2044 31.8152H60.7956C61.4608 31.8152 62 32.3454 62 32.9997C62 33.654 61.4608 34.1842 60.7956 34.1842Z" fill="#3531B3"/>
</g>
<g opacity="0.2">
<path d="M53.079 45.9999H28.921C28.4124 45.9999 28 45.4697 28 44.8154C28 44.1612 28.4122 43.6309 28.921 43.6309H53.079C53.5876 43.6309 54 44.161 54 44.8154C54 45.4697 53.5876 45.9999 53.079 45.9999Z" fill="#3531B3"/>
</g>
<path d="M14.899 42.7429H28.6609C30.5173 42.7429 32.2662 43.4909 33.3801 44.7649L35.7396 47.4631C36.8535 48.7371 38.6024 49.4851 40.4588 49.4851H73.8851C77.1434 49.4851 79.7841 51.7496 79.7841 54.5435V89.9416C79.7841 92.7355 77.1434 95 73.8851 95H14.899C11.6407 95 9 92.7355 9 89.9416V47.8013C9 45.0074 11.6407 42.7429 14.899 42.7429Z" fill="#C2C1E8"/>
<path fill-rule="evenodd" clip-rule="evenodd" d="M86.3753 38.9433C91.6109 47.8694 88.5038 59.283 79.4354 64.4365C70.367 69.5899 58.7713 66.5316 53.5356 57.6056C48.3 48.6796 51.4071 37.2659 60.4755 32.1125C69.5439 26.959 81.1396 30.0173 86.3753 38.9433ZM81.9958 41.4316C85.8354 47.9774 83.5568 56.3476 76.9065 60.1268C70.2563 63.9061 61.7526 61.6633 57.913 55.1175C54.0735 48.5716 56.3521 40.2014 63.0023 36.4222C69.6526 32.6429 78.1563 34.8857 81.9958 41.4316Z" fill="#AEADE1"/>
<path d="M81.2556 62.0611L76.4385 64.7986L80.9894 72.5572L85.8065 69.8196L81.2556 62.0611Z" fill="#AEADE1"/>
<path d="M96.0305 92.7288C93.8398 93.9738 91.0414 93.2332 89.7784 91.0799L80.569 75.3793C79.941 74.3086 80.3131 72.9415 81.401 72.3233L85.3977 70.052C86.4856 69.4338 87.8744 69.8001 88.5025 70.8709L97.7118 86.5714C98.9719 88.7265 98.2212 91.4839 96.0305 92.7288Z" fill="#D7D6F0"/>
</svg>
