<svg width="32" height="32" viewBox="0 0 32 32" fill="none" xmlns="http://www.w3.org/2000/svg">
<circle cx="16" cy="16" r="16" fill="#FF8500"/>
<path d="M23.5032 19.6847C22.2936 18.7262 21.6 17.3252 21.6 15.841V13.75C21.6 11.1107 19.5088 8.926 16.8 8.56V7.75C16.8 7.33525 16.4416 7 16 7C15.5584 7 15.2 7.33525 15.2 7.75V8.56C12.4904 8.926 10.4 11.1107 10.4 13.75V15.841C10.4 17.3252 9.7064 18.7262 8.4896 19.6907C8.1784 19.9405 8 20.3035 8 20.6875C8 21.4112 8.628 22 9.4 22H22.6C23.372 22 24 21.4112 24 20.6875C24 20.3035 23.8216 19.9405 23.5032 19.6847Z" fill="white"/>
<path d="M16 25C17.4488 25 18.6608 24.0317 18.9392 22.75H13.0608C13.3392 24.0317 14.5512 25 16 25Z" fill="white"/>
</svg>
