<svg width="144" height="198" viewBox="0 0 144 198" fill="none" xmlns="http://www.w3.org/2000/svg">
<path d="M40.4464 171.098C40.0638 171.098 39.8724 170.897 39.8724 170.496V162.124H36.7224C36.3678 162.124 36.1904 161.956 36.1904 161.62C36.1904 161.293 36.3678 161.13 36.7224 161.13H44.1844C44.5391 161.13 44.7164 161.293 44.7164 161.62C44.7164 161.956 44.5391 162.124 44.1844 162.124H41.0344V170.496C41.0344 170.897 40.8384 171.098 40.4464 171.098ZM46.6474 171.098C46.2741 171.098 46.0874 170.902 46.0874 170.51V161.606C46.0874 161.223 46.2741 161.032 46.6474 161.032C47.0301 161.032 47.2214 161.223 47.2214 161.606V165.316C47.4454 164.905 47.7581 164.597 48.1594 164.392C48.5701 164.177 49.0274 164.07 49.5314 164.07C51.1461 164.07 51.9534 164.966 51.9534 166.758V170.51C51.9534 170.902 51.7668 171.098 51.3934 171.098C51.0108 171.098 50.8194 170.902 50.8194 170.51V166.828C50.8194 166.193 50.6934 165.731 50.4414 165.442C50.1988 165.143 49.8068 164.994 49.2654 164.994C48.6401 164.994 48.1408 165.19 47.7674 165.582C47.4034 165.965 47.2214 166.478 47.2214 167.122V170.51C47.2214 170.902 47.0301 171.098 46.6474 171.098ZM57.1105 171.126C56.0371 171.126 55.1878 170.813 54.5625 170.188C53.9371 169.553 53.6245 168.695 53.6245 167.612C53.6245 166.912 53.7645 166.296 54.0445 165.764C54.3245 165.223 54.7071 164.807 55.1925 164.518C55.6871 164.219 56.2565 164.07 56.9005 164.07C57.8245 164.07 58.5478 164.369 59.0705 164.966C59.5931 165.554 59.8545 166.366 59.8545 167.402C59.8545 167.691 59.6911 167.836 59.3645 167.836H54.7305C54.7678 168.611 54.9918 169.203 55.4025 169.614C55.8131 170.015 56.3825 170.216 57.1105 170.216C57.4185 170.216 57.7311 170.179 58.0485 170.104C58.3658 170.02 58.6738 169.875 58.9725 169.67C59.1871 169.53 59.3645 169.502 59.5045 169.586C59.6538 169.67 59.7285 169.801 59.7285 169.978C59.7378 170.146 59.6445 170.295 59.4485 170.426C59.1405 170.65 58.7718 170.823 58.3425 170.944C57.9225 171.065 57.5118 171.126 57.1105 171.126ZM56.9285 164.91C56.2845 164.91 55.7758 165.111 55.4025 165.512C55.0291 165.913 54.8098 166.441 54.7445 167.094H58.8745C58.8465 166.403 58.6645 165.867 58.3285 165.484C58.0018 165.101 57.5351 164.91 56.9285 164.91ZM62.0696 171.098C61.687 171.098 61.4956 170.902 61.4956 170.51V164.672C61.4956 164.289 61.6776 164.098 62.0416 164.098C62.415 164.098 62.6016 164.289 62.6016 164.672V165.414C62.7883 164.985 63.0776 164.658 63.4696 164.434C63.8616 164.201 64.3283 164.075 64.8696 164.056C65.1683 164.028 65.327 164.177 65.3456 164.504C65.3736 164.831 65.2056 165.013 64.8416 165.05L64.6176 165.078C63.9736 165.134 63.4836 165.339 63.1476 165.694C62.8116 166.039 62.6436 166.515 62.6436 167.122V170.51C62.6436 170.902 62.4523 171.098 62.0696 171.098ZM69.4972 171.126C68.4239 171.126 67.5745 170.813 66.9492 170.188C66.3239 169.553 66.0112 168.695 66.0112 167.612C66.0112 166.912 66.1512 166.296 66.4312 165.764C66.7112 165.223 67.0939 164.807 67.5792 164.518C68.0739 164.219 68.6432 164.07 69.2872 164.07C70.2112 164.07 70.9345 164.369 71.4572 164.966C71.9799 165.554 72.2412 166.366 72.2412 167.402C72.2412 167.691 72.0779 167.836 71.7512 167.836H67.1172C67.1545 168.611 67.3785 169.203 67.7892 169.614C68.1999 170.015 68.7692 170.216 69.4972 170.216C69.8052 170.216 70.1179 170.179 70.4352 170.104C70.7525 170.02 71.0605 169.875 71.3592 169.67C71.5739 169.53 71.7512 169.502 71.8912 169.586C72.0405 169.67 72.1152 169.801 72.1152 169.978C72.1245 170.146 72.0312 170.295 71.8352 170.426C71.5272 170.65 71.1585 170.823 70.7292 170.944C70.3092 171.065 69.8985 171.126 69.4972 171.126ZM69.3152 164.91C68.6712 164.91 68.1625 165.111 67.7892 165.512C67.4159 165.913 67.1965 166.441 67.1312 167.094H71.2612C71.2332 166.403 71.0512 165.867 70.7152 165.484C70.3885 165.101 69.9219 164.91 69.3152 164.91ZM78.0517 162.558C77.5571 162.558 77.3097 162.325 77.3097 161.858C77.3097 161.401 77.5571 161.172 78.0517 161.172C78.5464 161.172 78.7937 161.401 78.7937 161.858C78.7937 162.325 78.5464 162.558 78.0517 162.558ZM78.0517 171.07C77.6784 171.07 77.4917 170.865 77.4917 170.454V164.728C77.4917 164.327 77.6784 164.126 78.0517 164.126C78.4344 164.126 78.6257 164.327 78.6257 164.728V170.454C78.6257 170.865 78.4344 171.07 78.0517 171.07ZM83.0416 171.126C82.6216 171.126 82.197 171.075 81.7676 170.972C81.3476 170.86 80.9556 170.683 80.5916 170.44C80.4236 170.337 80.3396 170.207 80.3396 170.048C80.349 169.88 80.4143 169.749 80.5356 169.656C80.657 169.563 80.811 169.563 80.9976 169.656C81.3616 169.88 81.7116 170.039 82.0476 170.132C82.393 170.216 82.7336 170.258 83.0696 170.258C83.6016 170.258 84.003 170.16 84.2736 169.964C84.5443 169.768 84.6796 169.502 84.6796 169.166C84.6796 168.905 84.591 168.699 84.4136 168.55C84.2363 168.391 83.9563 168.27 83.5736 168.186L82.2996 167.906C81.1423 167.654 80.5636 167.057 80.5636 166.114C80.5636 165.498 80.8063 165.003 81.2916 164.63C81.7863 164.257 82.4303 164.07 83.2236 164.07C83.625 164.07 84.0123 164.126 84.3856 164.238C84.759 164.341 85.095 164.509 85.3936 164.742C85.5523 164.854 85.6223 164.989 85.6036 165.148C85.585 165.307 85.5103 165.433 85.3796 165.526C85.2583 165.61 85.109 165.596 84.9316 165.484C84.6516 165.297 84.367 165.162 84.0776 165.078C83.7883 164.985 83.5036 164.938 83.2236 164.938C82.701 164.938 82.3043 165.041 82.0336 165.246C81.763 165.451 81.6276 165.722 81.6276 166.058C81.6276 166.581 81.973 166.917 82.6636 167.066L83.9376 167.332C84.535 167.463 84.9876 167.673 85.2956 167.962C85.6036 168.242 85.7576 168.625 85.7576 169.11C85.7576 169.735 85.5103 170.23 85.0156 170.594C84.521 170.949 83.863 171.126 83.0416 171.126ZM91.6553 171.098C91.2819 171.098 91.0953 170.902 91.0953 170.51V164.672C91.0953 164.289 91.2773 164.098 91.6413 164.098C92.0146 164.098 92.2013 164.289 92.2013 164.672V165.358C92.4253 164.929 92.7426 164.607 93.1533 164.392C93.5639 164.177 94.0259 164.07 94.5393 164.07C96.1539 164.07 96.9613 164.966 96.9613 166.758V170.51C96.9613 170.902 96.7746 171.098 96.4013 171.098C96.0186 171.098 95.8273 170.902 95.8273 170.51V166.828C95.8273 166.193 95.7013 165.731 95.4493 165.442C95.2066 165.143 94.8146 164.994 94.2733 164.994C93.6479 164.994 93.1486 165.19 92.7753 165.582C92.4113 165.965 92.2293 166.478 92.2293 167.122V170.51C92.2293 170.902 92.0379 171.098 91.6553 171.098ZM101.88 171.126C101.218 171.126 100.644 170.981 100.158 170.692C99.6729 170.403 99.2949 169.997 99.0243 169.474C98.7629 168.942 98.6323 168.317 98.6323 167.598C98.6323 166.879 98.7629 166.259 99.0243 165.736C99.2949 165.204 99.6729 164.793 100.158 164.504C100.644 164.215 101.218 164.07 101.88 164.07C102.534 164.07 103.103 164.215 103.588 164.504C104.083 164.793 104.461 165.204 104.722 165.736C104.993 166.259 105.128 166.879 105.128 167.598C105.128 168.317 104.993 168.942 104.722 169.474C104.461 169.997 104.083 170.403 103.588 170.692C103.103 170.981 102.534 171.126 101.88 171.126ZM101.88 170.216C102.515 170.216 103.024 169.992 103.406 169.544C103.789 169.087 103.98 168.438 103.98 167.598C103.98 166.749 103.789 166.1 103.406 165.652C103.024 165.204 102.515 164.98 101.88 164.98C101.236 164.98 100.723 165.204 100.34 165.652C99.9669 166.1 99.7803 166.749 99.7803 167.598C99.7803 168.438 99.9669 169.087 100.34 169.544C100.723 169.992 101.236 170.216 101.88 170.216ZM4.98541 192.126C4.18274 192.126 3.58074 191.916 3.17941 191.496C2.77807 191.067 2.57741 190.451 2.57741 189.648V186.078H1.63941C1.31274 186.078 1.14941 185.929 1.14941 185.63C1.14941 185.341 1.31274 185.196 1.63941 185.196H2.57741V183.586C2.57741 183.203 2.76874 183.012 3.15141 183.012C3.52474 183.012 3.71141 183.203 3.71141 183.586V185.196H5.47541C5.80207 185.196 5.96541 185.341 5.96541 185.63C5.96541 185.929 5.80207 186.078 5.47541 186.078H3.71141V189.536C3.71141 190.068 3.82341 190.474 4.04741 190.754C4.27141 191.025 4.63541 191.16 5.13941 191.16C5.31674 191.16 5.46607 191.141 5.58741 191.104C5.70874 191.067 5.81607 191.048 5.90941 191.048C5.99341 191.039 6.06341 191.067 6.11941 191.132C6.17541 191.197 6.20341 191.309 6.20341 191.468C6.20341 191.58 6.18007 191.683 6.13341 191.776C6.09607 191.869 6.02607 191.935 5.92341 191.972C5.81141 192.009 5.66207 192.042 5.47541 192.07C5.29807 192.107 5.13474 192.126 4.98541 192.126ZM7.72394 192.098C7.34127 192.098 7.14994 191.902 7.14994 191.51V185.672C7.14994 185.289 7.33194 185.098 7.69594 185.098C8.06927 185.098 8.25594 185.289 8.25594 185.672V186.414C8.4426 185.985 8.73194 185.658 9.12394 185.434C9.51594 185.201 9.9826 185.075 10.5239 185.056C10.8226 185.028 10.9813 185.177 10.9999 185.504C11.0279 185.831 10.8599 186.013 10.4959 186.05L10.2719 186.078C9.62794 186.134 9.13794 186.339 8.80194 186.694C8.46594 187.039 8.29794 187.515 8.29794 188.122V191.51C8.29794 191.902 8.1066 192.098 7.72394 192.098ZM14.2412 192.126C13.7745 192.126 13.3545 192.037 12.9812 191.86C12.6172 191.673 12.3278 191.421 12.1132 191.104C11.8985 190.787 11.7912 190.432 11.7912 190.04C11.7912 189.545 11.9172 189.153 12.1692 188.864C12.4305 188.575 12.8552 188.369 13.4432 188.248C14.0405 188.117 14.8525 188.052 15.8792 188.052H16.3272V187.618C16.3272 187.039 16.2058 186.624 15.9632 186.372C15.7298 186.111 15.3518 185.98 14.8292 185.98C14.5025 185.98 14.1712 186.022 13.8352 186.106C13.5085 186.19 13.1678 186.325 12.8132 186.512C12.6545 186.596 12.5192 186.615 12.4072 186.568C12.3045 186.512 12.2298 186.428 12.1832 186.316C12.1458 186.195 12.1458 186.073 12.1832 185.952C12.2298 185.821 12.3232 185.723 12.4632 185.658C12.8645 185.453 13.2658 185.303 13.6672 185.21C14.0778 185.117 14.4652 185.07 14.8292 185.07C15.7065 185.07 16.3552 185.285 16.7752 185.714C17.2045 186.143 17.4192 186.811 17.4192 187.716V191.51C17.4192 191.902 17.2465 192.098 16.9012 192.098C16.5372 192.098 16.3552 191.902 16.3552 191.51V190.824C16.1778 191.225 15.9025 191.543 15.5292 191.776C15.1652 192.009 14.7358 192.126 14.2412 192.126ZM14.4232 191.272C14.9832 191.272 15.4405 191.081 15.7952 190.698C16.1498 190.306 16.3272 189.811 16.3272 189.214V188.794H15.8932C15.1372 188.794 14.5398 188.831 14.1012 188.906C13.6718 188.971 13.3685 189.093 13.1912 189.27C13.0232 189.438 12.9392 189.671 12.9392 189.97C12.9392 190.353 13.0698 190.665 13.3312 190.908C13.6018 191.151 13.9658 191.272 14.4232 191.272ZM20.083 192.098C19.7097 192.098 19.523 191.902 19.523 191.51V185.672C19.523 185.289 19.705 185.098 20.069 185.098C20.4423 185.098 20.629 185.289 20.629 185.672V186.358C20.853 185.929 21.1703 185.607 21.581 185.392C21.9917 185.177 22.4537 185.07 22.967 185.07C24.5817 185.07 25.389 185.966 25.389 187.758V191.51C25.389 191.902 25.2023 192.098 24.829 192.098C24.4463 192.098 24.255 191.902 24.255 191.51V187.828C24.255 187.193 24.129 186.731 23.877 186.442C23.6343 186.143 23.2423 185.994 22.701 185.994C22.0757 185.994 21.5763 186.19 21.203 186.582C20.839 186.965 20.657 187.478 20.657 188.122V191.51C20.657 191.902 20.4657 192.098 20.083 192.098ZM29.776 192.126C29.356 192.126 28.9313 192.075 28.502 191.972C28.082 191.86 27.69 191.683 27.326 191.44C27.158 191.337 27.074 191.207 27.074 191.048C27.0833 190.88 27.1487 190.749 27.27 190.656C27.3913 190.563 27.5453 190.563 27.732 190.656C28.096 190.88 28.446 191.039 28.782 191.132C29.1273 191.216 29.468 191.258 29.804 191.258C30.336 191.258 30.7373 191.16 31.008 190.964C31.2787 190.768 31.414 190.502 31.414 190.166C31.414 189.905 31.3253 189.699 31.148 189.55C30.9707 189.391 30.6907 189.27 30.308 189.186L29.034 188.906C27.8767 188.654 27.298 188.057 27.298 187.114C27.298 186.498 27.5407 186.003 28.026 185.63C28.5207 185.257 29.1647 185.07 29.958 185.07C30.3593 185.07 30.7467 185.126 31.12 185.238C31.4933 185.341 31.8293 185.509 32.128 185.742C32.2867 185.854 32.3567 185.989 32.338 186.148C32.3193 186.307 32.2447 186.433 32.114 186.526C31.9927 186.61 31.8433 186.596 31.666 186.484C31.386 186.297 31.1013 186.162 30.812 186.078C30.5227 185.985 30.238 185.938 29.958 185.938C29.4353 185.938 29.0387 186.041 28.768 186.246C28.4973 186.451 28.362 186.722 28.362 187.058C28.362 187.581 28.7073 187.917 29.398 188.066L30.672 188.332C31.2693 188.463 31.722 188.673 32.03 188.962C32.338 189.242 32.492 189.625 32.492 190.11C32.492 190.735 32.2447 191.23 31.75 191.594C31.2553 191.949 30.5973 192.126 29.776 192.126ZM36.3623 192.126C35.8956 192.126 35.4756 192.037 35.1023 191.86C34.7383 191.673 34.4489 191.421 34.2343 191.104C34.0196 190.787 33.9123 190.432 33.9123 190.04C33.9123 189.545 34.0383 189.153 34.2903 188.864C34.5516 188.575 34.9763 188.369 35.5643 188.248C36.1616 188.117 36.9736 188.052 38.0003 188.052H38.4483V187.618C38.4483 187.039 38.3269 186.624 38.0843 186.372C37.8509 186.111 37.4729 185.98 36.9503 185.98C36.6236 185.98 36.2923 186.022 35.9563 186.106C35.6296 186.19 35.2889 186.325 34.9343 186.512C34.7756 186.596 34.6403 186.615 34.5283 186.568C34.4256 186.512 34.3509 186.428 34.3043 186.316C34.2669 186.195 34.2669 186.073 34.3043 185.952C34.3509 185.821 34.4443 185.723 34.5843 185.658C34.9856 185.453 35.3869 185.303 35.7883 185.21C36.1989 185.117 36.5863 185.07 36.9503 185.07C37.8276 185.07 38.4763 185.285 38.8963 185.714C39.3256 186.143 39.5403 186.811 39.5403 187.716V191.51C39.5403 191.902 39.3676 192.098 39.0223 192.098C38.6583 192.098 38.4763 191.902 38.4763 191.51V190.824C38.2989 191.225 38.0236 191.543 37.6503 191.776C37.2863 192.009 36.8569 192.126 36.3623 192.126ZM36.5443 191.272C37.1043 191.272 37.5616 191.081 37.9163 190.698C38.2709 190.306 38.4483 189.811 38.4483 189.214V188.794H38.0143C37.2583 188.794 36.6609 188.831 36.2223 188.906C35.7929 188.971 35.4896 189.093 35.3123 189.27C35.1443 189.438 35.0603 189.671 35.0603 189.97C35.0603 190.353 35.1909 190.665 35.4523 190.908C35.7229 191.151 36.0869 191.272 36.5443 191.272ZM44.5281 192.126C43.8467 192.126 43.2587 191.981 42.7641 191.692C42.2694 191.393 41.8867 190.978 41.6161 190.446C41.3547 189.905 41.2241 189.275 41.2241 188.556C41.2241 187.473 41.5181 186.624 42.1061 186.008C42.6941 185.383 43.5014 185.07 44.5281 185.07C44.8641 185.07 45.2141 185.126 45.5781 185.238C45.9421 185.341 46.2734 185.513 46.5721 185.756C46.7307 185.868 46.7961 186.008 46.7681 186.176C46.7494 186.344 46.6701 186.47 46.5301 186.554C46.3994 186.638 46.2454 186.619 46.0681 186.498C45.8161 186.311 45.5641 186.181 45.3121 186.106C45.0694 186.031 44.8314 185.994 44.5981 185.994C43.8887 185.994 43.3427 186.218 42.9601 186.666C42.5774 187.105 42.3861 187.739 42.3861 188.57C42.3861 189.382 42.5774 190.026 42.9601 190.502C43.3427 190.969 43.8887 191.202 44.5981 191.202C44.8314 191.202 45.0694 191.165 45.3121 191.09C45.5641 191.015 45.8161 190.885 46.0681 190.698C46.2454 190.577 46.3994 190.563 46.5301 190.656C46.6607 190.74 46.7307 190.866 46.7401 191.034C46.7587 191.202 46.6934 191.337 46.5441 191.44C46.2454 191.683 45.9187 191.86 45.5641 191.972C45.2094 192.075 44.8641 192.126 44.5281 192.126ZM50.8545 192.126C50.0519 192.126 49.4499 191.916 49.0485 191.496C48.6472 191.067 48.4465 190.451 48.4465 189.648V186.078H47.5085C47.1819 186.078 47.0185 185.929 47.0185 185.63C47.0185 185.341 47.1819 185.196 47.5085 185.196H48.4465V183.586C48.4465 183.203 48.6379 183.012 49.0205 183.012C49.3939 183.012 49.5805 183.203 49.5805 183.586V185.196H51.3445C51.6712 185.196 51.8345 185.341 51.8345 185.63C51.8345 185.929 51.6712 186.078 51.3445 186.078H49.5805V189.536C49.5805 190.068 49.6925 190.474 49.9165 190.754C50.1405 191.025 50.5045 191.16 51.0085 191.16C51.1859 191.16 51.3352 191.141 51.4565 191.104C51.5779 191.067 51.6852 191.048 51.7785 191.048C51.8625 191.039 51.9325 191.067 51.9885 191.132C52.0445 191.197 52.0725 191.309 52.0725 191.468C52.0725 191.58 52.0492 191.683 52.0025 191.776C51.9652 191.869 51.8952 191.935 51.7925 191.972C51.6805 192.009 51.5312 192.042 51.3445 192.07C51.1672 192.107 51.0039 192.126 50.8545 192.126ZM53.6611 183.558C53.1664 183.558 52.9191 183.325 52.9191 182.858C52.9191 182.401 53.1664 182.172 53.6611 182.172C54.1558 182.172 54.4031 182.401 54.4031 182.858C54.4031 183.325 54.1558 183.558 53.6611 183.558ZM53.6611 192.07C53.2878 192.07 53.1011 191.865 53.1011 191.454V185.728C53.1011 185.327 53.2878 185.126 53.6611 185.126C54.0438 185.126 54.2351 185.327 54.2351 185.728V191.454C54.2351 191.865 54.0438 192.07 53.6611 192.07ZM59.183 192.126C58.5203 192.126 57.9463 191.981 57.461 191.692C56.9757 191.403 56.5977 190.997 56.327 190.474C56.0657 189.942 55.935 189.317 55.935 188.598C55.935 187.879 56.0657 187.259 56.327 186.736C56.5977 186.204 56.9757 185.793 57.461 185.504C57.9463 185.215 58.5203 185.07 59.183 185.07C59.8363 185.07 60.4057 185.215 60.891 185.504C61.3857 185.793 61.7637 186.204 62.025 186.736C62.2957 187.259 62.431 187.879 62.431 188.598C62.431 189.317 62.2957 189.942 62.025 190.474C61.7637 190.997 61.3857 191.403 60.891 191.692C60.4057 191.981 59.8363 192.126 59.183 192.126ZM59.183 191.216C59.8177 191.216 60.3263 190.992 60.709 190.544C61.0917 190.087 61.283 189.438 61.283 188.598C61.283 187.749 61.0917 187.1 60.709 186.652C60.3263 186.204 59.8177 185.98 59.183 185.98C58.539 185.98 58.0257 186.204 57.643 186.652C57.2697 187.1 57.083 187.749 57.083 188.598C57.083 189.438 57.2697 190.087 57.643 190.544C58.0257 190.992 58.539 191.216 59.183 191.216ZM64.6943 192.098C64.321 192.098 64.1343 191.902 64.1343 191.51V185.672C64.1343 185.289 64.3163 185.098 64.6803 185.098C65.0536 185.098 65.2403 185.289 65.2403 185.672V186.358C65.4643 185.929 65.7816 185.607 66.1923 185.392C66.603 185.177 67.065 185.07 67.5783 185.07C69.193 185.07 70.0003 185.966 70.0003 187.758V191.51C70.0003 191.902 69.8136 192.098 69.4403 192.098C69.0576 192.098 68.8663 191.902 68.8663 191.51V187.828C68.8663 187.193 68.7403 186.731 68.4883 186.442C68.2456 186.143 67.8536 185.994 67.3123 185.994C66.687 185.994 66.1876 186.19 65.8143 186.582C65.4503 186.965 65.2683 187.478 65.2683 188.122V191.51C65.2683 191.902 65.077 192.098 64.6943 192.098ZM76.2607 192.098C75.8874 192.098 75.7007 191.902 75.7007 191.51V182.606C75.7007 182.223 75.8874 182.032 76.2607 182.032C76.6434 182.032 76.8347 182.223 76.8347 182.606V186.316C77.0587 185.905 77.3714 185.597 77.7727 185.392C78.1834 185.177 78.6407 185.07 79.1447 185.07C80.7594 185.07 81.5667 185.966 81.5667 187.758V191.51C81.5667 191.902 81.3801 192.098 81.0067 192.098C80.6241 192.098 80.4327 191.902 80.4327 191.51V187.828C80.4327 187.193 80.3067 186.731 80.0547 186.442C79.8121 186.143 79.4201 185.994 78.8787 185.994C78.2534 185.994 77.7541 186.19 77.3807 186.582C77.0167 186.965 76.8347 187.478 76.8347 188.122V191.51C76.8347 191.902 76.6434 192.098 76.2607 192.098ZM84.2178 183.558C83.7231 183.558 83.4758 183.325 83.4758 182.858C83.4758 182.401 83.7231 182.172 84.2178 182.172C84.7124 182.172 84.9598 182.401 84.9598 182.858C84.9598 183.325 84.7124 183.558 84.2178 183.558ZM84.2178 192.07C83.8444 192.07 83.6578 191.865 83.6578 191.454V185.728C83.6578 185.327 83.8444 185.126 84.2178 185.126C84.6004 185.126 84.7918 185.327 84.7918 185.728V191.454C84.7918 191.865 84.6004 192.07 84.2178 192.07ZM89.2077 192.126C88.7877 192.126 88.363 192.075 87.9337 191.972C87.5137 191.86 87.1217 191.683 86.7577 191.44C86.5897 191.337 86.5057 191.207 86.5057 191.048C86.515 190.88 86.5803 190.749 86.7017 190.656C86.823 190.563 86.977 190.563 87.1637 190.656C87.5277 190.88 87.8777 191.039 88.2137 191.132C88.559 191.216 88.8997 191.258 89.2357 191.258C89.7677 191.258 90.169 191.16 90.4397 190.964C90.7103 190.768 90.8457 190.502 90.8457 190.166C90.8457 189.905 90.757 189.699 90.5797 189.55C90.4023 189.391 90.1223 189.27 89.7397 189.186L88.4657 188.906C87.3083 188.654 86.7297 188.057 86.7297 187.114C86.7297 186.498 86.9723 186.003 87.4577 185.63C87.9523 185.257 88.5963 185.07 89.3897 185.07C89.791 185.07 90.1783 185.126 90.5517 185.238C90.925 185.341 91.261 185.509 91.5597 185.742C91.7183 185.854 91.7883 185.989 91.7697 186.148C91.751 186.307 91.6763 186.433 91.5457 186.526C91.4243 186.61 91.275 186.596 91.0977 186.484C90.8177 186.297 90.533 186.162 90.2437 186.078C89.9543 185.985 89.6697 185.938 89.3897 185.938C88.867 185.938 88.4703 186.041 88.1997 186.246C87.929 186.451 87.7937 186.722 87.7937 187.058C87.7937 187.581 88.139 187.917 88.8297 188.066L90.1037 188.332C90.701 188.463 91.1537 188.673 91.4617 188.962C91.7697 189.242 91.9237 189.625 91.9237 190.11C91.9237 190.735 91.6763 191.23 91.1817 191.594C90.687 191.949 90.029 192.126 89.2077 192.126ZM96.3135 192.126C95.5109 192.126 94.9089 191.916 94.5075 191.496C94.1062 191.067 93.9055 190.451 93.9055 189.648V186.078H92.9675C92.6409 186.078 92.4775 185.929 92.4775 185.63C92.4775 185.341 92.6409 185.196 92.9675 185.196H93.9055V183.586C93.9055 183.203 94.0969 183.012 94.4795 183.012C94.8529 183.012 95.0395 183.203 95.0395 183.586V185.196H96.8035C97.1302 185.196 97.2935 185.341 97.2935 185.63C97.2935 185.929 97.1302 186.078 96.8035 186.078H95.0395V189.536C95.0395 190.068 95.1515 190.474 95.3755 190.754C95.5995 191.025 95.9635 191.16 96.4675 191.16C96.6449 191.16 96.7942 191.141 96.9155 191.104C97.0369 191.067 97.1442 191.048 97.2375 191.048C97.3215 191.039 97.3915 191.067 97.4475 191.132C97.5035 191.197 97.5315 191.309 97.5315 191.468C97.5315 191.58 97.5082 191.683 97.4615 191.776C97.4242 191.869 97.3542 191.935 97.2515 191.972C97.1395 192.009 96.9902 192.042 96.8035 192.07C96.6262 192.107 96.4629 192.126 96.3135 192.126ZM101.238 192.126C100.575 192.126 100.001 191.981 99.5157 191.692C99.0304 191.403 98.6524 190.997 98.3817 190.474C98.1204 189.942 97.9897 189.317 97.9897 188.598C97.9897 187.879 98.1204 187.259 98.3817 186.736C98.6524 186.204 99.0304 185.793 99.5157 185.504C100.001 185.215 100.575 185.07 101.238 185.07C101.891 185.07 102.46 185.215 102.946 185.504C103.44 185.793 103.818 186.204 104.08 186.736C104.35 187.259 104.486 187.879 104.486 188.598C104.486 189.317 104.35 189.942 104.08 190.474C103.818 190.997 103.44 191.403 102.946 191.692C102.46 191.981 101.891 192.126 101.238 192.126ZM101.238 191.216C101.872 191.216 102.381 190.992 102.764 190.544C103.146 190.087 103.338 189.438 103.338 188.598C103.338 187.749 103.146 187.1 102.764 186.652C102.381 186.204 101.872 185.98 101.238 185.98C100.594 185.98 100.08 186.204 99.6977 186.652C99.3244 187.1 99.1377 187.749 99.1377 188.598C99.1377 189.438 99.3244 190.087 99.6977 190.544C100.08 190.992 100.594 191.216 101.238 191.216ZM106.763 192.098C106.38 192.098 106.189 191.902 106.189 191.51V185.672C106.189 185.289 106.371 185.098 106.735 185.098C107.108 185.098 107.295 185.289 107.295 185.672V186.414C107.482 185.985 107.771 185.658 108.163 185.434C108.555 185.201 109.022 185.075 109.563 185.056C109.862 185.028 110.02 185.177 110.039 185.504C110.067 185.831 109.899 186.013 109.535 186.05L109.311 186.078C108.667 186.134 108.177 186.339 107.841 186.694C107.505 187.039 107.337 187.515 107.337 188.122V191.51C107.337 191.902 107.146 192.098 106.763 192.098ZM113.142 194.618C112.928 194.618 112.783 194.534 112.708 194.366C112.634 194.207 112.638 194.025 112.722 193.82L113.576 191.888L111 185.896C110.907 185.681 110.902 185.495 110.986 185.336C111.08 185.177 111.252 185.098 111.504 185.098C111.766 185.098 111.957 185.247 112.078 185.546L114.192 190.712L116.32 185.546C116.395 185.378 116.474 185.261 116.558 185.196C116.642 185.131 116.764 185.098 116.922 185.098C117.137 185.098 117.282 185.177 117.356 185.336C117.431 185.495 117.426 185.677 117.342 185.882L113.758 194.17C113.684 194.338 113.6 194.455 113.506 194.52C113.422 194.585 113.301 194.618 113.142 194.618ZM123.943 194.618C123.729 194.618 123.584 194.534 123.509 194.366C123.435 194.207 123.439 194.025 123.523 193.82L124.377 191.888L121.801 185.896C121.708 185.681 121.703 185.495 121.787 185.336C121.881 185.177 122.053 185.098 122.305 185.098C122.567 185.098 122.758 185.247 122.879 185.546L124.993 190.712L127.121 185.546C127.196 185.378 127.275 185.261 127.359 185.196C127.443 185.131 127.565 185.098 127.723 185.098C127.938 185.098 128.083 185.177 128.157 185.336C128.232 185.495 128.227 185.677 128.143 185.882L124.559 194.17C124.485 194.338 124.401 194.455 124.307 194.52C124.223 194.585 124.102 194.618 123.943 194.618ZM132.593 192.126C131.52 192.126 130.67 191.813 130.045 191.188C129.42 190.553 129.107 189.695 129.107 188.612C129.107 187.912 129.247 187.296 129.527 186.764C129.807 186.223 130.19 185.807 130.675 185.518C131.17 185.219 131.739 185.07 132.383 185.07C133.307 185.07 134.03 185.369 134.553 185.966C135.076 186.554 135.337 187.366 135.337 188.402C135.337 188.691 135.174 188.836 134.847 188.836H130.213C130.25 189.611 130.474 190.203 130.885 190.614C131.296 191.015 131.865 191.216 132.593 191.216C132.901 191.216 133.214 191.179 133.531 191.104C133.848 191.02 134.156 190.875 134.455 190.67C134.67 190.53 134.847 190.502 134.987 190.586C135.136 190.67 135.211 190.801 135.211 190.978C135.22 191.146 135.127 191.295 134.931 191.426C134.623 191.65 134.254 191.823 133.825 191.944C133.405 192.065 132.994 192.126 132.593 192.126ZM132.411 185.91C131.767 185.91 131.258 186.111 130.885 186.512C130.512 186.913 130.292 187.441 130.227 188.094H134.357C134.329 187.403 134.147 186.867 133.811 186.484C133.484 186.101 133.018 185.91 132.411 185.91ZM139.708 192.126C138.905 192.126 138.303 191.916 137.902 191.496C137.501 191.067 137.3 190.451 137.3 189.648V186.078H136.362C136.035 186.078 135.872 185.929 135.872 185.63C135.872 185.341 136.035 185.196 136.362 185.196H137.3V183.586C137.3 183.203 137.491 183.012 137.874 183.012C138.247 183.012 138.434 183.203 138.434 183.586V185.196H140.198C140.525 185.196 140.688 185.341 140.688 185.63C140.688 185.929 140.525 186.078 140.198 186.078H138.434V189.536C138.434 190.068 138.546 190.474 138.77 190.754C138.994 191.025 139.358 191.16 139.862 191.16C140.039 191.16 140.189 191.141 140.31 191.104C140.431 191.067 140.539 191.048 140.632 191.048C140.716 191.039 140.786 191.067 140.842 191.132C140.898 191.197 140.926 191.309 140.926 191.468C140.926 191.58 140.903 191.683 140.856 191.776C140.819 191.869 140.749 191.935 140.646 191.972C140.534 192.009 140.385 192.042 140.198 192.07C140.021 192.107 139.857 192.126 139.708 192.126Z" fill="#333333" fill-opacity="0.7"/>
<g opacity="0.2">
<path d="M87.5534 28.3562H40.0541C39.054 28.3562 38.2432 27.5457 38.2432 26.5453C38.2432 25.5449 39.0537 24.7344 40.0541 24.7344H87.5534C88.5536 24.7344 89.3644 25.5449 89.3644 26.5453C89.3644 27.5457 88.5536 28.3562 87.5534 28.3562Z" fill="#3531B3"/>
</g>
<g opacity="0.2">
<path d="M87.5534 46.4197H40.0541C39.054 46.4197 38.2432 45.6092 38.2432 44.6088C38.2432 43.6084 39.0537 42.7979 40.0541 42.7979H87.5534C88.5536 42.7979 89.3644 43.6084 89.3644 44.6088C89.3644 45.6092 88.5536 46.4197 87.5534 46.4197Z" fill="#3531B3"/>
</g>
<g opacity="0.2">
<path d="M87.5534 64.4842H40.0541C39.054 64.4842 38.2432 63.6736 38.2432 62.6732C38.2432 61.6731 39.0537 60.8623 40.0541 60.8623H87.5534C88.5536 60.8623 89.3644 61.6729 89.3644 62.6732C89.3644 63.6736 88.5536 64.4842 87.5534 64.4842Z" fill="#3531B3"/>
</g>
<path opacity="0.3" fill-rule="evenodd" clip-rule="evenodd" d="M68.0011 95.7539C67.8297 97.0984 67.7414 98.4688 67.7414 99.8599C67.7414 104.415 68.6885 108.748 70.3965 112.674H25.4042C18.0013 112.674 12 106.671 12 99.265V96.8904C12 96.2628 12.5087 95.7539 13.1361 95.7539H68.0011Z" fill="#3531B3"/>
<path opacity="0.1" fill-rule="evenodd" clip-rule="evenodd" d="M108.493 12C103.257 12 99.0122 16.246 99.0122 21.484L99.0119 30.9682V35.7991V67.7302C82.9618 68.1515 69.8431 80.3472 67.9705 96H27.1587V19.5421C27.1587 15.3768 30.5343 12 34.6982 12H108.493Z" fill="#3531B3"/>
<path opacity="0.2" d="M99.871 132C117.616 132 132 117.61 132 99.8593C132 82.1085 117.616 67.7188 99.871 67.7188C82.1265 67.7188 67.7417 82.1085 67.7417 99.8593C67.7417 117.61 82.1265 132 99.871 132Z" fill="#3531B3"/>
<path d="M99.8707 123.832C113.106 123.832 123.836 113.099 123.836 99.859C123.836 86.6189 113.106 75.8857 99.8707 75.8857C86.6352 75.8857 75.9058 86.6189 75.9058 99.859C75.9058 113.099 86.6352 123.832 99.8707 123.832Z" fill="#EBEAF7"/>
<path d="M105.743 103.999H99.5907C98.3441 103.999 97.3335 102.933 97.3335 101.618V89.0477C97.3335 87.7324 98.3438 86.666 99.5907 86.666C100.837 86.666 101.848 87.7321 101.848 89.0477V99.2359H105.743C106.99 99.2359 108 100.302 108 101.618C108 102.933 106.99 103.999 105.743 103.999Z" fill="#AEADE1"/>
<path opacity="0.3" d="M116.286 35.7988H99.0122V21.484C99.0122 16.246 103.257 12 108.493 12C113.729 12 117.974 16.2462 117.974 21.484V34.1106C117.974 35.0431 117.218 35.7988 116.286 35.7988Z" fill="#3531B3"/>
</svg>
