<svg width="60" height="60" viewBox="0 0 60 60" fill="none" xmlns="http://www.w3.org/2000/svg">
<circle cx="30" cy="30" r="30" fill="white"/>
<path d="M35.4435 24.9814H31.1105C30.4913 24.2939 29.7107 23.7677 28.8212 23.4514V18.2966H31.3956C31.583 18.4188 32.2219 19.2337 33.5068 19.2337C35.0571 19.2337 36.3182 17.9726 36.3182 16.4223C36.3182 14.8721 35.0571 13.6109 33.5068 13.6109C32.2204 13.6109 31.5834 14.4256 31.3956 14.5481H28.9366L28.7151 13.9239C28.4497 13.1763 27.7395 12.6738 26.947 12.6738C26.1544 12.6738 25.4443 13.1763 25.1789 13.9239L24.9574 14.5481H22.4984C22.3109 14.4258 21.6721 13.6109 20.3871 13.6109C18.8369 13.6109 17.5758 14.8721 17.5758 16.4223C17.5758 17.9726 18.8369 19.2337 20.3871 19.2337C21.6736 19.2337 22.3105 18.4191 22.4984 18.2966H25.0727V23.4514C24.1832 23.7676 23.4027 24.2939 22.7835 24.9814H16.5762V32.4783H22.7665H22.7835C23.8127 33.6208 25.2883 34.3526 26.947 34.3526C28.6057 34.3526 30.0813 33.6208 31.1105 32.4783H31.1274H33.5693C34.2555 32.4783 34.8298 32.8653 35.1563 33.4154H42.9405V32.4783C42.9405 28.3378 39.5841 24.9814 35.4435 24.9814Z" fill="#534ED9"/>
<path d="M43.6271 40.6588L41.2746 36.5431C40.8473 35.7941 40.0513 35.3315 39.1897 35.3315H39.1873C38.3256 35.3315 37.5321 35.7917 37.1024 36.5383L34.7499 40.6704C34.5082 41.2623 34.3838 41.8845 34.3838 42.5184C34.3838 45.169 36.5414 47.3267 39.1921 47.3267C41.8427 47.3267 44.0004 45.169 44.0004 42.5184C44.0004 41.9159 43.9262 41.1823 43.6271 40.6588Z" fill="#168BC3"/>
</svg>
