<svg width="60" height="60" viewBox="0 0 60 60" fill="none" xmlns="http://www.w3.org/2000/svg">
<circle cx="30" cy="30" r="30" fill="white"/>
<rect x="22" y="25" width="17" height="18" fill="#FFB70A"/>
<path d="M40.3291 22.0042L34.4935 16.1709C34.3841 16.0615 34.236 16 34.081 16H21.8334C20.5464 16 19.5 17.0464 19.5 18.3334V41.6667C19.5 42.9535 20.5464 44 21.8334 44H38.1667C39.4535 44 40.5 42.9535 40.5 41.6666V22.4166C40.5 22.2617 40.4385 22.1136 40.3291 22.0042ZM28.25 27.0833C28.25 26.7609 28.5109 26.5 28.8333 26.5H31.1667C31.4891 26.5 31.7501 26.7609 31.7501 27.0833V29.4167C31.7501 29.7391 31.4891 30.0001 31.1667 30.0001H28.8333C28.5109 30.0001 28.25 29.7391 28.25 29.4167V27.0833ZM23 28.25C23 27.285 23.785 26.5 24.75 26.5H26.5C26.8224 26.5 27.0833 26.7609 27.0833 27.0833V29.4167C27.0833 29.7391 26.8224 30.0001 26.5 30.0001H23.5834C23.2609 30.0001 23 29.7391 23 29.4167V28.25ZM26.5 39.9166C26.5 40.2391 26.2391 40.5 25.9166 40.5H24.75C23.785 40.5 23 39.715 23 38.75V37.5833C23 37.2609 23.2609 37 23.5834 37H25.9167C26.2391 37 26.5001 37.2609 26.5001 37.5833V39.9166H26.5ZM31.1666 39.9166C31.1666 40.2391 30.9057 40.5 30.5833 40.5H28.25C27.9276 40.5 27.6666 40.2391 27.6666 39.9166V37.5833C27.6666 37.2609 27.9276 36.9999 28.25 36.9999H30.5833C30.9058 36.9999 31.1667 37.2609 31.1667 37.5833V39.9166H31.1666ZM37 38.75C37 39.715 36.215 40.5 35.25 40.5H32.9166C32.5942 40.5 32.3333 40.2391 32.3333 39.9166V36.4166C32.3333 36.0948 32.0718 35.8333 31.7499 35.8333H23.5834C23.2609 35.8333 23 35.5724 23 35.2499V31.7499C23 31.4275 23.2609 31.1666 23.5834 31.1666H36.4167C36.7391 31.1666 37 31.4275 37 31.7499V38.75H37ZM37 29.4166C37 29.7391 36.7391 30 36.4166 30H33.5C33.1776 30 32.9166 29.7391 32.9166 29.4166V27.0833C32.9166 26.7609 33.1776 26.4999 33.5 26.4999H35.25C36.215 26.4999 37 27.2849 37 28.2499V29.4166Z" fill="#534ED9"/>
</svg>
