<svg width="49" height="52" viewBox="0 0 49 52" fill="none" xmlns="http://www.w3.org/2000/svg">
<path d="M42.1831 6.8899C46.7308 11.4706 49.3013 18.1425 48.9717 24.4493C48.6422 30.7893 45.4456 36.7641 40.8649 42.0751C36.2842 47.3861 30.3523 52 24.3875 52C18.4557 51.9668 12.5238 47.3529 7.91017 42.0419C3.32947 36.7309 0.066952 30.7561 0.00104253 24.7149C-0.0648669 18.6404 2.99992 12.4996 7.61358 7.9189C12.1943 3.33819 18.2909 0.284377 24.6512 0.0188285C30.9785 -0.24672 37.6024 2.30919 42.1831 6.8899Z" fill="white"/>
<rect x="7.9292" y="18.8643" width="32.8716" height="20.3031" rx="1" transform="rotate(-8 7.9292 18.8643)" fill="#168BC3"/>
<rect x="11.3398" y="22.29" width="8.70131" height="0.966813" rx="0.483406" transform="rotate(-8 11.3398 22.29)" fill="#095A81"/>
<rect x="11.6084" y="24.2051" width="14.5022" height="0.966813" rx="0.483406" transform="rotate(-8 11.6084 24.2051)" fill="#095A81"/>
<rect x="12.1467" y="28.0347" width="14.5022" height="0.966813" rx="0.483406" transform="rotate(-8 12.1467 28.0347)" fill="#095A81"/>
<rect x="12.6855" y="31.8643" width="14.5022" height="0.966813" rx="0.483406" transform="rotate(-8 12.6855 31.8643)" fill="#095A81"/>
<rect x="12.416" y="29.9492" width="12.5686" height="0.966813" rx="0.483406" transform="rotate(-8 12.416 29.9492)" fill="#095A81"/>
<rect x="12.9541" y="33.7793" width="12.5686" height="0.966813" rx="0.483406" transform="rotate(-8 12.9541 33.7793)" fill="#095A81"/>
<path d="M35.8005 27.1871C35.3842 27.587 32.9864 27.9678 32.4668 27.7165C31.8172 28.8976 29.2047 28.7256 29.6069 31.2585L29.7975 32.4585C29.8043 32.5016 29.8464 32.5307 29.8915 32.5236L39.7382 30.96C39.7832 30.9528 39.8142 30.9121 39.8074 30.869L39.6168 29.669C39.2146 27.1361 36.7839 28.1089 35.8005 27.1871Z" fill="#095A81"/>
<path d="M36.8339 21.3765C36.5644 19.6797 34.7454 18.5582 32.771 18.8718C30.7967 19.1853 29.4145 20.815 29.6839 22.5119L29.9571 24.2319C30.2265 25.9287 32.0455 27.0502 34.0199 26.7367C35.9943 26.4232 37.3765 24.7934 37.107 23.0965C37.0475 22.7221 36.8933 21.7509 36.8339 21.3765Z" fill="#095A81"/>
<path d="M32.2236 16.7822L27.2852 16L26.503 20.9384" stroke="#FF8500" stroke-width="2" stroke-linecap="round" stroke-linejoin="round"/>
<path d="M35.5057 35.7989L40.4441 36.5811L41.2263 31.6426" stroke="#FF8500" stroke-width="2" stroke-linecap="round" stroke-linejoin="round"/>
<path d="M24.7822 28.8033L24 33.7417L28.9384 34.5239" stroke="#FF8500" stroke-width="2" stroke-linecap="round" stroke-linejoin="round"/>
<path d="M42.9473 23.7783L43.7295 18.8398L38.7911 18.0577" stroke="#FF8500" stroke-width="2" stroke-linecap="round" stroke-linejoin="round"/>
</svg>
