<svg width="119" height="119" viewBox="0 0 119 119" fill="none" xmlns="http://www.w3.org/2000/svg">
<g filter="url(#filter0_d_38_12969)">
<path d="M79.4769 32.7986C85.5629 37.9167 89.9101 44.9652 92.6099 53.2259C95.2639 61.5315 96.2706 71.0942 92.6556 78.8161C89.0406 86.583 80.8497 92.5092 72.2468 94.3499C63.5983 96.1906 54.4921 93.9009 46.6215 90.2644C38.7508 86.6279 32.1157 81.5996 27.2194 74.8654C22.2774 68.0862 19.12 59.5561 20.2182 51.5199C21.3622 43.4837 26.7618 35.9413 33.763 31.0028C40.7185 26.0194 49.2755 23.64 57.4207 24.0441C65.6117 24.493 73.3908 27.6806 79.4769 32.7986Z" fill="white"/>
</g>
<rect x="35" y="31.7622" width="32.07" height="54.7476" rx="4" transform="rotate(-8.54 35 31.7622)" fill="#FF8500"/>
<rect x="35" y="31.7622" width="32.07" height="54.7476" rx="4" transform="rotate(-8.54 35 31.7622)" fill="#FF8500"/>
<rect x="38.1899" y="33.9546" width="26.6291" height="47.5411" rx="3" transform="rotate(-8.54 38.1899 33.9546)" fill="#3531B3"/>
<rect x="38.1899" y="33.9546" width="26.6291" height="47.5411" rx="3" transform="rotate(-8.54 38.1899 33.9546)" fill="#168BC3"/>
<path fill-rule="evenodd" clip-rule="evenodd" d="M81.1593 41.1983C84.4604 41.4871 86.9023 44.3973 86.6135 47.6984L85.9035 55.8142C85.6147 59.1153 82.7045 61.5572 79.4034 61.2684L66.9703 60.1806L63.7755 63.7524L61.2494 59.6801L59.5485 59.5313C56.2474 59.2425 53.8054 56.3323 54.0942 53.0312L54.8043 44.9154C55.0931 41.6143 58.0033 39.1724 61.3044 39.4612L81.1593 41.1983Z" fill="#3531B3"/>
<path d="M80.8103 53.501C80.8388 53.7539 80.6191 53.9517 80.3681 53.9298C80.1171 53.9078 79.9351 53.6749 80.0071 53.4307L80.2888 51.7526L78.7976 52.6071C78.6733 52.6797 78.5852 52.7221 78.4514 52.7103C78.2338 52.6913 78.049 52.4915 78.0707 52.243C78.0881 52.0442 78.2503 51.9248 78.4053 51.8883L80.0937 51.2848L78.5357 50.3972C78.3909 50.3178 78.2504 50.1886 78.2693 49.9733C78.291 49.7248 78.4743 49.5572 78.7253 49.5791C78.8257 49.5879 78.9385 49.6479 79.0484 49.7409L80.3685 50.8414L80.3825 49.1398C80.354 48.8869 80.5737 48.6891 80.8247 48.7111C81.0757 48.733 81.2577 48.966 81.1843 49.2266L80.904 50.8882L82.3952 50.0337C82.5195 49.9612 82.6076 49.9188 82.7414 49.9305C82.9575 49.9661 83.1438 50.1493 83.1221 50.3978C83.1062 50.5801 82.9774 50.7024 82.7861 50.7691L81.0977 51.3726L82.6557 52.2602C82.8019 52.323 82.9395 52.4853 82.9235 52.6676C82.9018 52.9161 82.7185 53.0837 82.4675 53.0617C82.3671 53.0529 82.2543 52.993 82.1444 52.8999L80.8243 51.7994L80.8103 53.501Z" fill="white"/>
<path d="M73.9786 52.9033C74.007 53.1562 73.7874 53.354 73.5364 53.3321C73.2854 53.3101 73.1034 53.0772 73.1754 52.833L73.4571 51.1549L71.9659 52.0094C71.8415 52.082 71.7535 52.1244 71.6196 52.1126C71.4021 52.0936 71.2172 51.8938 71.239 51.6453C71.2564 51.4465 71.4186 51.3271 71.5735 51.2906L73.2619 50.6871L71.704 49.7995C71.5592 49.7201 71.4187 49.5909 71.4376 49.3756C71.4593 49.1271 71.6426 48.9595 71.8936 48.9814C71.994 48.9902 72.1068 49.0502 72.2167 49.1432L73.5368 50.2437L73.5508 48.5421C73.5223 48.2892 73.742 48.0914 73.993 48.1134C74.244 48.1353 74.4259 48.3683 74.3525 48.6289L74.0723 50.2905L75.5634 49.436C75.6878 49.3635 75.7758 49.3211 75.9097 49.3328C76.1258 49.3684 76.3121 49.5516 76.2904 49.8001C76.2744 49.9824 76.1457 50.1047 75.9544 50.1714L74.266 50.7749L75.8239 51.6625C75.9702 51.7253 76.1077 51.8876 76.0918 52.0699C76.07 52.3184 75.8868 52.486 75.6358 52.464C75.5354 52.4552 75.4226 52.3953 75.3127 52.3022L73.9926 51.2017L73.9786 52.9033Z" fill="white"/>
<path d="M67.1468 52.3056C67.1753 52.5585 66.9557 52.7563 66.7047 52.7344C66.4536 52.7124 66.2717 52.4795 66.3436 52.2353L66.6253 50.5572L65.1342 51.4117C65.0098 51.4843 64.9218 51.5267 64.7879 51.5149C64.5704 51.4959 64.3855 51.2961 64.4072 51.0476C64.4246 50.8488 64.5868 50.7294 64.7418 50.6929L66.4302 50.0894L64.8722 49.2018C64.7274 49.1224 64.587 48.9932 64.6058 48.7779C64.6276 48.5294 64.8108 48.3618 65.0619 48.3837C65.1623 48.3925 65.275 48.4525 65.3849 48.5455L66.7051 49.646L66.719 47.9444C66.6906 47.6915 66.9102 47.4937 67.1612 47.5157C67.4122 47.5376 67.5942 47.7706 67.5208 48.0312L67.2405 49.6928L68.7317 48.8383C68.8561 48.7658 68.9441 48.7234 69.078 48.7351C69.2941 48.7707 69.4804 48.9539 69.4586 49.2024C69.4427 49.3847 69.314 49.507 69.1226 49.5737L67.4342 50.1772L68.9922 51.0648C69.1384 51.1276 69.276 51.2899 69.2601 51.4722C69.2383 51.7207 69.055 51.8883 68.804 51.8663C68.7036 51.8575 68.5908 51.7976 68.4809 51.7045L67.1608 50.604L67.1468 52.3056Z" fill="white"/>
<path d="M60.3151 51.7079C60.3436 51.9608 60.1239 52.1586 59.8729 52.1367C59.6219 52.1147 59.4399 51.8818 59.5119 51.6376L59.7936 49.9595L58.3024 50.814C58.1781 50.8866 58.09 50.929 57.9562 50.9172C57.7386 50.8982 57.5538 50.6984 57.5755 50.4499C57.5929 50.2511 57.7551 50.1317 57.9101 50.0952L59.5985 49.4917L58.0405 48.6041C57.8957 48.5247 57.7552 48.3955 57.7741 48.1802C57.7958 47.9317 57.9791 47.7641 58.2301 47.786C58.3305 47.7948 58.4433 47.8548 58.5532 47.9478L59.8733 49.0483L59.8873 47.3467C59.8588 47.0938 60.0785 46.896 60.3295 46.918C60.5805 46.9399 60.7625 47.1729 60.6891 47.4335L60.4088 49.0951L61.9 48.2406C62.0244 48.1681 62.1124 48.1257 62.2462 48.1374C62.4623 48.173 62.6486 48.3562 62.6269 48.6047C62.611 48.787 62.4822 48.9093 62.2909 48.976L60.6025 49.5795L62.1605 50.4671C62.3067 50.5299 62.4443 50.6922 62.4283 50.8745C62.4066 51.123 62.2233 51.2906 61.9723 51.2686C61.8719 51.2598 61.7591 51.1999 61.6492 51.1068L60.3291 50.0063L60.3151 51.7079Z" fill="white"/>
<defs>
<filter id="filter0_d_38_12969" x="-4" y="0" width="123" height="119" filterUnits="userSpaceOnUse" color-interpolation-filters="sRGB">
<feFlood flood-opacity="0" result="BackgroundImageFix"/>
<feColorMatrix in="SourceAlpha" type="matrix" values="0 0 0 0 0 0 0 0 0 0 0 0 0 0 0 0 0 0 127 0" result="hardAlpha"/>
<feOffset/>
<feGaussianBlur stdDeviation="12"/>
<feColorMatrix type="matrix" values="0 0 0 0 0 0 0 0 0 0 0 0 0 0 0 0 0 0 0.3 0"/>
<feBlend mode="normal" in2="BackgroundImageFix" result="effect1_dropShadow_38_12969"/>
<feBlend mode="normal" in="SourceGraphic" in2="effect1_dropShadow_38_12969" result="shape"/>
</filter>
</defs>
</svg>
