<svg width="60" height="60" viewBox="0 0 60 60" fill="none" xmlns="http://www.w3.org/2000/svg">
<circle cx="30" cy="30" r="30" fill="white"/>
<path d="M39.8521 26.3379C39.794 26.2353 39.7096 26.15 39.6078 26.0906C39.5059 26.0312 39.39 25.9999 39.2721 25.9999H30.5388L32.0029 14.8127C32.0187 14.663 31.9835 14.5124 31.9032 14.385C31.8229 14.2577 31.702 14.1611 31.5602 14.1108C31.4183 14.0605 31.2636 14.0594 31.121 14.1077C30.9784 14.156 30.8562 14.2509 30.7741 14.3771L20.1534 32.9841C20.0913 33.0851 20.0573 33.2008 20.0548 33.3194C20.0524 33.438 20.0816 33.555 20.1394 33.6585C20.1973 33.762 20.2817 33.8482 20.384 33.9082C20.4863 33.9682 20.6027 33.9999 20.7213 33.9999H29.3241L28.1638 45.2039C28.1524 45.3531 28.1912 45.5018 28.2741 45.6264C28.3569 45.751 28.4791 45.8443 28.6211 45.8915C28.7631 45.9387 28.9169 45.937 29.0578 45.8867C29.1987 45.8364 29.3188 45.7405 29.3989 45.6141L39.8441 27.0091C39.9047 26.9079 39.9373 26.7925 39.9387 26.6746C39.9401 26.5567 39.9102 26.4405 39.8521 26.3379Z" fill="#FFB70A"/>
</svg>
