<svg width="90" height="54" viewBox="0 0 90 54" fill="none" xmlns="http://www.w3.org/2000/svg">
<path d="M85.4371 41.6129V38.8588V33.3548H77.1514H71.629V30.6008H85.4371V25.0968H71.629H63.3433V30.6008V33.3548V38.8588H71.629H77.1514V41.6129H63.3433V47.1169H77.1514H85.4371V41.6129ZM87.6204 39.8911V48.8387C87.6204 49.0204 87.5459 49.1979 87.4174 49.3259C87.289 49.4539 87.1109 49.5283 86.9286 49.5283H77.951V50.9032H88.3081C88.4904 50.9032 88.6686 50.8289 88.797 50.7009C88.9254 50.5729 89 50.3954 89 50.2137V39.8911H87.6204ZM13.049 22H2.69186C2.50957 22 2.33143 22.0743 2.203 22.2023C2.07457 22.3303 2 22.5079 2 22.6895V33.0121H3.37957V24.0645C3.37957 23.8828 3.45414 23.7053 3.58257 23.5773C3.711 23.4493 3.88914 23.375 4.07143 23.375H13.049V22ZM21.9147 54H27.4371V41.6129H21.9147V54ZM26.7494 25.0968H13.629V30.6008H21.9147V38.8588H27.4371V25.7822C27.4371 25.6005 27.3626 25.423 27.2341 25.295C27.1057 25.167 26.9276 25.0926 26.7453 25.0926L26.7494 25.0968ZM10.8699 25.0968H6.03514C5.85286 25.0968 5.67471 25.1711 5.54629 25.2991C5.41786 25.4271 5.34329 25.6046 5.34329 25.7863V46.4315C5.34329 46.6132 5.41786 46.7907 5.54629 46.9187C5.67471 47.0467 5.85286 47.121 6.03514 47.121H19.1556V41.617H10.8699V25.1009V25.0968ZM13.6331 38.8588H19.1556V33.3548H13.6331V38.8588ZM15.0127 34.7298H17.776V37.4839H15.0127V34.7298ZM30.2046 25.0968V30.6008H46.776V33.3548H35.727H30.2046V38.8588V47.1169H35.727V38.9414L44.0127 47.1169H52.2984L43.6523 38.8588H46.7719H52.2943V33.3548V30.6008V25.0968H46.7719H30.2004H30.2046ZM55.0617 47.1169H60.5841V25.0968H55.0617V47.1169Z" fill="white"/>
<path d="M4.02609 12.108C3.45009 12.108 2.90609 12.04 2.39409 11.904C1.89009 11.76 1.45409 11.552 1.08609 11.28C0.958094 11.192 0.882094 11.088 0.858094 10.968C0.834094 10.848 0.846094 10.736 0.894094 10.632C0.950094 10.528 1.03009 10.46 1.13409 10.428C1.23809 10.388 1.35809 10.412 1.49409 10.5C1.85409 10.764 2.23809 10.952 2.64609 11.064C3.05409 11.176 3.51409 11.232 4.02609 11.232C4.74609 11.232 5.27809 11.1 5.62209 10.836C5.97409 10.564 6.15009 10.208 6.15009 9.768C6.15009 9.416 6.02209 9.136 5.76609 8.928C5.51809 8.72 5.09809 8.556 4.50609 8.436L3.25809 8.184C2.50609 8.024 1.94209 7.764 1.56609 7.404C1.19809 7.036 1.01409 6.548 1.01409 5.94C1.01409 5.436 1.14209 4.996 1.39809 4.62C1.66209 4.244 2.02609 3.952 2.49009 3.744C2.95409 3.536 3.49009 3.432 4.09809 3.432C4.60209 3.432 5.07009 3.504 5.50209 3.648C5.94209 3.784 6.33809 3.992 6.69009 4.272C6.80209 4.36 6.86609 4.464 6.88209 4.584C6.90609 4.696 6.89009 4.8 6.83409 4.896C6.77809 4.992 6.69809 5.056 6.59409 5.088C6.49009 5.112 6.36609 5.08 6.22209 4.992C5.90209 4.744 5.56609 4.568 5.21409 4.464C4.87009 4.36 4.49409 4.308 4.08609 4.308C3.45409 4.308 2.95009 4.456 2.57409 4.752C2.19809 5.04 2.01009 5.424 2.01009 5.904C2.01009 6.288 2.12609 6.592 2.35809 6.816C2.59809 7.04 2.98609 7.204 3.52209 7.308L4.77009 7.572C5.57809 7.74 6.17409 7.996 6.55809 8.34C6.95009 8.676 7.14609 9.136 7.14609 9.72C7.14609 10.192 7.01809 10.608 6.76209 10.968C6.51409 11.328 6.15409 11.608 5.68209 11.808C5.21809 12.008 4.66609 12.108 4.02609 12.108ZM12.0089 12.108C10.8969 12.108 10.0529 11.816 9.47691 11.232C8.90091 10.64 8.61291 9.78 8.61291 8.652V3.96C8.61291 3.624 8.77691 3.456 9.10491 3.456C9.43291 3.456 9.59691 3.624 9.59691 3.96V8.604C9.59691 10.356 10.4009 11.232 12.0089 11.232C13.6009 11.232 14.3969 10.356 14.3969 8.604V3.96C14.3969 3.624 14.5649 3.456 14.9009 3.456C15.2209 3.456 15.3809 3.624 15.3809 3.96V8.652C15.3809 9.78 15.0929 10.64 14.5169 11.232C13.9489 11.816 13.1129 12.108 12.0089 12.108ZM17.8954 12.084C17.5674 12.084 17.4034 11.912 17.4034 11.568V4.044C17.4034 3.708 17.5714 3.54 17.9074 3.54H20.7514C21.6634 3.54 22.3594 3.76 22.8394 4.2C23.3274 4.64 23.5714 5.268 23.5714 6.084C23.5714 6.892 23.3274 7.52 22.8394 7.968C22.3594 8.408 21.6634 8.628 20.7514 8.628H18.3874V11.568C18.3874 11.912 18.2234 12.084 17.8954 12.084ZM18.3874 7.8H20.6314C21.9434 7.8 22.5994 7.228 22.5994 6.084C22.5994 4.932 21.9434 4.356 20.6314 4.356H18.3874V7.8ZM25.4891 12.084C25.1611 12.084 24.9971 11.912 24.9971 11.568V4.044C24.9971 3.708 25.1651 3.54 25.5011 3.54H28.3451C29.2571 3.54 29.9531 3.76 30.4331 4.2C30.9211 4.64 31.1651 5.268 31.1651 6.084C31.1651 6.892 30.9211 7.52 30.4331 7.968C29.9531 8.408 29.2571 8.628 28.3451 8.628H25.9811V11.568C25.9811 11.912 25.8171 12.084 25.4891 12.084ZM25.9811 7.8H28.2251C29.5371 7.8 30.1931 7.228 30.1931 6.084C30.1931 4.932 29.5371 4.356 28.2251 4.356H25.9811V7.8ZM36.0491 12.108C35.2651 12.108 34.5811 11.932 33.9971 11.58C33.4211 11.22 32.9731 10.716 32.6531 10.068C32.3411 9.42 32.1851 8.652 32.1851 7.764C32.1851 6.876 32.3411 6.108 32.6531 5.46C32.9651 4.812 33.4091 4.312 33.9851 3.96C34.5691 3.608 35.2571 3.432 36.0491 3.432C36.8491 3.432 37.5371 3.608 38.1131 3.96C38.6971 4.312 39.1451 4.812 39.4571 5.46C39.7771 6.1 39.9371 6.864 39.9371 7.752C39.9371 8.64 39.7771 9.412 39.4571 10.068C39.1371 10.716 38.6851 11.22 38.1011 11.58C37.5251 11.932 36.8411 12.108 36.0491 12.108ZM36.0491 11.232C36.9531 11.232 37.6531 10.928 38.1491 10.32C38.6451 9.712 38.8931 8.86 38.8931 7.764C38.8931 6.668 38.6451 5.82 38.1491 5.22C37.6531 4.612 36.9531 4.308 36.0491 4.308C35.1611 4.308 34.4691 4.612 33.9731 5.22C33.4771 5.82 33.2291 6.668 33.2291 7.764C33.2291 8.852 33.4771 9.704 33.9731 10.32C34.4691 10.928 35.1611 11.232 36.0491 11.232ZM42.1883 12.084C41.8603 12.084 41.6963 11.912 41.6963 11.568V4.044C41.6963 3.708 41.8643 3.54 42.2003 3.54H45.0443C45.9563 3.54 46.6523 3.752 47.1323 4.176C47.6203 4.6 47.8643 5.204 47.8643 5.988C47.8643 6.612 47.6923 7.124 47.3483 7.524C47.0123 7.924 46.5323 8.184 45.9083 8.304C46.2763 8.432 46.5923 8.744 46.8563 9.24L48.0083 11.388C48.0963 11.556 48.1123 11.716 48.0563 11.868C48.0003 12.012 47.8723 12.084 47.6723 12.084C47.5363 12.084 47.4243 12.056 47.3363 12C47.2483 11.936 47.1723 11.84 47.1083 11.712L45.8003 9.288C45.6163 8.944 45.4043 8.716 45.1643 8.604C44.9243 8.484 44.6083 8.424 44.2163 8.424H42.6803V11.568C42.6803 11.912 42.5163 12.084 42.1883 12.084ZM42.6803 7.644H44.9003C46.2283 7.644 46.8923 7.092 46.8923 5.988C46.8923 4.9 46.2283 4.356 44.9003 4.356H42.6803V7.644ZM52.0573 12.084C51.7293 12.084 51.5653 11.912 51.5653 11.568V4.392H48.8653C48.5613 4.392 48.4093 4.248 48.4093 3.96C48.4093 3.68 48.5613 3.54 48.8653 3.54H55.2613C55.5653 3.54 55.7173 3.68 55.7173 3.96C55.7173 4.248 55.5653 4.392 55.2613 4.392H52.5613V11.568C52.5613 11.912 52.3933 12.084 52.0573 12.084ZM57.2481 12C56.8881 12 56.7081 11.82 56.7081 11.46V4.08C56.7081 3.72 56.8881 3.54 57.2481 3.54H61.7121C61.9921 3.54 62.1321 3.676 62.1321 3.948C62.1321 4.228 61.9921 4.368 61.7121 4.368H57.6681V7.296H61.4601C61.7401 7.296 61.8801 7.432 61.8801 7.704C61.8801 7.984 61.7401 8.124 61.4601 8.124H57.6681V11.172H61.7121C61.9921 11.172 62.1321 11.308 62.1321 11.58C62.1321 11.86 61.9921 12 61.7121 12H57.2481ZM64.2442 12C63.8842 12 63.7042 11.82 63.7042 11.46V4.08C63.7042 3.72 63.8842 3.54 64.2442 3.54H66.5602C67.9282 3.54 68.9842 3.904 69.7282 4.632C70.4722 5.352 70.8442 6.396 70.8442 7.764C70.8442 9.132 70.4722 10.18 69.7282 10.908C68.9842 11.636 67.9282 12 66.5602 12H64.2442ZM64.6882 11.16H66.4882C68.6962 11.16 69.8002 10.028 69.8002 7.764C69.8002 5.508 68.6962 4.38 66.4882 4.38H64.6882V11.16ZM76.2442 12C75.8842 12 75.7042 11.82 75.7042 11.46V4.08C75.7042 3.72 75.8842 3.54 76.2442 3.54H79.0882C79.9602 3.54 80.6322 3.736 81.1042 4.128C81.5842 4.512 81.8242 5.052 81.8242 5.748C81.8242 6.212 81.7042 6.608 81.4642 6.936C81.2242 7.264 80.8922 7.504 80.4682 7.656C80.9562 7.784 81.3362 8.02 81.6082 8.364C81.8882 8.708 82.0282 9.144 82.0282 9.672C82.0282 10.424 81.7842 11 81.2962 11.4C80.8082 11.8 80.1202 12 79.2322 12H76.2442ZM76.6642 7.32H78.9442C80.2162 7.32 80.8522 6.824 80.8522 5.832C80.8522 4.832 80.2162 4.332 78.9442 4.332H76.6642V7.32ZM76.6642 11.208H79.1362C80.4162 11.208 81.0562 10.692 81.0562 9.66C81.0562 8.628 80.4162 8.112 79.1362 8.112H76.6642V11.208ZM86.1815 12.084C85.8535 12.084 85.6895 11.908 85.6895 11.556V7.992L82.8935 4.152C82.7815 4 82.7575 3.848 82.8215 3.696C82.8935 3.536 83.0295 3.456 83.2295 3.456C83.4375 3.456 83.6175 3.564 83.7695 3.78L86.2055 7.128L88.6295 3.78C88.7895 3.564 88.9695 3.456 89.1695 3.456C89.3615 3.456 89.4895 3.532 89.5535 3.684C89.6175 3.828 89.5895 3.988 89.4695 4.164L86.6735 8.016V11.556C86.6735 11.908 86.5095 12.084 86.1815 12.084Z" fill="white"/>
</svg>
