<svg width="76" height="76" viewBox="0 0 76 76" fill="none" xmlns="http://www.w3.org/2000/svg">
<g filter="url(#filter0_d_24_17866)">
<circle cx="34" cy="34" r="29" fill="#FF8500"/>
</g>
<path fill-rule="evenodd" clip-rule="evenodd" d="M30.7273 32.6667H23.9394C22.8683 32.6667 22 31.7984 22 30.7273V23.9394C22 22.8683 22.8683 22 23.9394 22H30.7273C31.7984 22 32.6667 22.8683 32.6667 23.9394V30.7273C32.6667 31.7984 31.7984 32.6667 30.7273 32.6667ZM29.7576 24.9091H24.9091V29.7576H29.7576V24.9091Z" fill="white"/>
<path fill-rule="evenodd" clip-rule="evenodd" d="M30.7273 46H23.9394C22.8683 46 22 45.1317 22 44.0606V37.2728C22 36.2017 22.8683 35.3334 23.9394 35.3334H30.7273C31.7984 35.3334 32.6667 36.2017 32.6667 37.2728V44.0606C32.6667 45.1317 31.7984 46 30.7273 46ZM29.7576 38.2425H24.9091V43.091H29.7576V38.2425Z" fill="white"/>
<path fill-rule="evenodd" clip-rule="evenodd" d="M44.0608 32.6667H37.2729C36.2018 32.6667 35.3335 31.7984 35.3335 30.7273V23.9394C35.3335 22.8683 36.2018 22 37.2729 22H44.0608C45.1319 22 46.0002 22.8683 46.0002 23.9394V30.7273C46.0002 31.7984 45.1319 32.6667 44.0608 32.6667ZM43.0911 24.9091H38.2426V29.7576H43.0911V24.9091Z" fill="white"/>
<rect x="38.8887" y="38.8889" width="3.55556" height="3.55556" fill="white"/>
<path d="M45.1112 37.1111C45.1112 36.6201 44.7133 36.2222 44.2223 36.2222H41.5557V39.7777H45.1112V37.1111Z" fill="white"/>
<path d="M37.1111 36.2222C36.6201 36.2222 36.2222 36.6201 36.2222 37.1111V39.7777H39.7777V36.2222H37.1111Z" fill="white"/>
<path d="M44.2223 45.1111C44.7133 45.1111 45.1112 44.7131 45.1112 44.2222V41.5555H41.5557V45.1111H44.2223Z" fill="white"/>
<path d="M36.2222 44.2222C36.2222 44.7131 36.6201 45.1111 37.1111 45.1111H39.7777V41.5555H36.2222V44.2222Z" fill="white"/>
<defs>
<filter id="filter0_d_24_17866" x="0" y="0" width="76" height="76" filterUnits="userSpaceOnUse" color-interpolation-filters="sRGB">
<feFlood flood-opacity="0" result="BackgroundImageFix"/>
<feColorMatrix in="SourceAlpha" type="matrix" values="0 0 0 0 0 0 0 0 0 0 0 0 0 0 0 0 0 0 127 0" result="hardAlpha"/>
<feOffset dx="4" dy="4"/>
<feGaussianBlur stdDeviation="4.5"/>
<feColorMatrix type="matrix" values="0 0 0 0 0 0 0 0 0 0 0 0 0 0 0 0 0 0 0.2 0"/>
<feBlend mode="normal" in2="BackgroundImageFix" result="effect1_dropShadow_24_17866"/>
<feBlend mode="normal" in="SourceGraphic" in2="effect1_dropShadow_24_17866" result="shape"/>
</filter>
</defs>
</svg>
