<svg width="60" height="60" viewBox="0 0 60 60" fill="none" xmlns="http://www.w3.org/2000/svg">
<circle cx="30" cy="30" r="30" fill="white"/>
<path d="M38.7414 44.6447C38.1959 44.6447 37.6734 44.3207 37.4276 43.7692L33.4445 34.8291C33.1066 34.0706 33.4204 33.1692 34.1455 32.8156C34.8707 32.4623 35.7322 32.7903 36.0702 33.5489L40.0532 42.4889C40.3911 43.2474 40.0773 44.1489 39.3523 44.5025C39.1545 44.5991 38.9463 44.6447 38.7414 44.6447Z" fill="#540A7F"/>
<path d="M23.1686 44.6448C22.9636 44.6448 22.7556 44.599 22.5576 44.5025C21.8325 44.1489 21.5187 43.2475 21.8566 42.4889L25.8397 33.5489C26.1777 32.7904 27.0395 32.4623 27.7644 32.8156C28.4894 33.1692 28.8032 34.0706 28.4653 34.8292L24.4823 43.7692C24.2366 44.3207 23.714 44.6448 23.1686 44.6448Z" fill="#540A7F"/>
<path d="M35.6575 27.8172C35.2905 27.8711 34.9037 27.7787 34.5843 27.5269L33.6935 26.8246C32.6254 25.9825 31.3076 25.6259 29.9832 25.8207L21.5154 27.0658C20.7233 27.1822 19.9908 26.6049 19.8795 25.7761C19.7682 24.9474 20.3201 24.1812 21.1122 24.0647L29.5799 22.8197C31.6707 22.5123 33.7506 23.075 35.4369 24.4043L36.3276 25.1065C36.9665 25.6102 37.0941 26.5602 36.6128 27.2286C36.372 27.5628 36.0246 27.7632 35.6575 27.8172Z" fill="#540A7F"/>
<path d="M41.923 36.1895C41.5076 36.2275 41.0783 36.0998 40.7336 35.7972L40.0632 35.2087C39.1594 34.4152 38.0144 34.0376 36.8392 34.1451L27.1131 35.0353C24.5251 35.2722 22.1038 33.6514 21.2247 31.094L16.0966 16.175C15.792 15.2891 16.2317 14.3127 17.0786 13.9941C17.9253 13.6755 18.8586 14.1354 19.1632 15.0213L24.2913 29.9405C24.6701 31.0427 25.7136 31.7411 26.8289 31.639L36.555 30.7488C38.5975 30.5618 40.5873 31.2183 42.1579 32.597L42.8283 33.1855C43.5176 33.7906 43.6075 34.8659 43.0291 35.5871C42.7399 35.9477 42.3382 36.1514 41.923 36.1895Z" fill="#FF8500"/>
<path d="M31.0629 47.1068C27.8589 47.1068 24.7933 46.5745 22.1971 45.5674C19.4968 44.5198 17.4882 43.028 16.3884 41.2534C15.8988 40.4634 16.1141 39.4079 16.8693 38.8957C17.6246 38.3836 18.6333 38.6088 19.1229 39.3988C19.8278 40.5363 21.322 41.5918 23.3303 42.3709C25.5677 43.2389 28.2416 43.6977 31.0629 43.6977C33.8842 43.6977 36.5581 43.2389 38.7954 42.3709C40.8037 41.5918 42.2978 40.5363 43.0028 39.3988C43.4924 38.6088 44.5013 38.3838 45.2565 38.8957C46.0116 39.4079 46.2268 40.4634 45.7374 41.2534C44.6375 43.0281 42.6289 44.5198 39.9286 45.5674C37.3325 46.5745 34.2668 47.1068 31.0629 47.1068Z" fill="#FF8500"/>
</svg>
