<svg width="80" height="80" viewBox="0 0 80 80" fill="none" xmlns="http://www.w3.org/2000/svg">
<circle cx="40" cy="40" r="40" fill="#D63B3B"/>
<g clip-path="url(#clip0_2_20536)">
<path d="M62.316 36.9849C63.4218 38.0419 64.1088 39.5782 64.0237 41.4657C63.9621 42.8305 64.0057 44.2011 64.0036 45.5684C64.0022 46.2989 63.889 47.0074 63.4938 47.6359C62.995 48.4283 62.2442 48.8447 61.336 48.9896C61.053 49.0344 60.762 49.0498 60.4758 49.0505C58.157 49.0532 55.839 49.0664 53.521 49.034C52.9405 49.0256 52.3298 48.9513 51.79 48.7522C50.619 48.3197 50.0203 47.3705 49.9646 46.1622C49.8916 44.5959 49.9262 43.0248 49.9192 41.4561C49.9149 40.5812 49.8652 40.5233 49.0375 40.2141C46.5203 39.2733 43.8884 39.0199 41.2361 38.9123C38.5642 38.8048 35.9087 38.9663 33.2965 39.564C32.3875 39.7717 31.5046 40.0886 30.6094 40.3558C30.2002 40.478 30.1187 40.7911 30.1196 41.1653C30.1249 42.6199 30.131 44.0736 30.1265 45.5281C30.1235 46.3598 29.9925 47.1547 29.4627 47.8443C28.95 48.5119 28.2612 48.8501 27.454 48.9787C27.1711 49.0235 26.8808 49.0364 26.593 49.0372C24.2604 49.0422 21.9277 49.0587 19.595 49.0296C19.0292 49.0229 18.4332 48.9469 17.9072 48.7519C16.7746 48.3333 16.14 47.42 16.0835 46.2499C15.9916 44.3535 15.9658 42.4496 16.033 40.5524C16.0961 38.7897 17.0749 37.4569 18.371 36.3353C20.5409 34.4574 23.0909 33.2873 25.7772 32.3789C30.0622 30.9288 34.4672 30.1269 38.9907 30.0678C45.2483 29.9855 51.3244 30.9314 57.0781 33.5192C58.908 34.3415 60.6498 35.3171 62.316 36.9849Z" fill="white"/>
</g>
<defs>
<clipPath id="clip0_2_20536">
<rect width="40" height="40" fill="white" transform="translate(68.2842 42.9512) rotate(135)"/>
</clipPath>
</defs>
</svg>
