<svg width="119" height="102" viewBox="0 0 119 102" fill="none" xmlns="http://www.w3.org/2000/svg">
<g filter="url(#filter0_d_73_11536)">
<path d="M79.4769 32.7986C85.5629 37.9167 89.9101 44.9652 92.6099 53.2259C95.2639 61.5315 96.2706 71.0942 92.6556 78.8161C89.0406 86.583 80.8497 92.5092 72.2468 94.3499C63.5983 96.1906 54.4921 93.9009 46.6215 90.2644C38.7508 86.6279 32.1157 81.5996 27.2194 74.8654C22.2774 68.0862 19.12 59.5561 20.2182 51.5199C21.3622 43.4837 26.7618 35.9413 33.763 31.0028C40.7185 26.0194 49.2755 23.64 57.4207 24.0441C65.6117 24.493 73.3908 27.6806 79.4769 32.7986Z" fill="white"/>
</g>
<path d="M84.5203 77.9276H79.5228C78.2161 77.9276 77.1567 76.8681 77.1567 75.5615V62.3661C77.1567 61.0594 78.2161 60 79.5228 60H84.5203C85.827 60 86.8864 61.0594 86.8864 62.3661V75.5615C86.8864 76.8681 85.827 77.9276 84.5203 77.9276Z" fill="#FF8500"/>
<path d="M77.1548 62.332H70.0546C67.8574 62.332 65.7345 63.114 64.06 64.5373L62.0919 66.2118C61.1431 67.018 59.9389 67.4622 58.6926 67.4622H55.9104C55.9104 67.4622 52.7924 67.4622 52.7924 70.0273L41.1912 70.6686C39.9609 70.7349 39 71.7501 39 72.9804C39 74.2027 39.9488 75.2138 41.1691 75.2942L63.9876 76.7657C64.5163 76.7999 65.045 76.7939 65.5737 76.7456L77.1548 75.7083V62.332Z" fill="#FFB70A"/>
<path d="M53.2999 70.0254C53.2999 70.0254 53.2416 72.4699 56.1303 72.4699C59.0191 72.4699 65.6248 72.4699 65.6248 72.4699" fill="#FFB70A"/>
<path d="M53.2999 70.0254C53.2999 70.0254 53.2416 72.4699 56.1303 72.4699C59.0191 72.4699 65.6248 72.4699 65.6248 72.4699" stroke="#FF8500" stroke-miterlimit="10" stroke-linecap="round" stroke-linejoin="round"/>
<path fill-rule="evenodd" clip-rule="evenodd" d="M59.9218 35.6257C62.1037 35.2802 64.1527 36.7688 64.4983 38.9507L66.7417 53.1151C67.0873 55.297 65.5986 57.346 63.4167 57.6915L60.9131 58.0881L58.8841 61.7503L55.8227 58.8943L43.4456 60.8547C41.2637 61.2002 39.2147 59.7116 38.8691 57.5296L36.6257 43.3653C36.2801 41.1834 37.7688 39.1344 39.9507 38.7888L59.9218 35.6257Z" fill="#3531B3"/>
<path d="M44.7897 51.8676C44.8704 52.3773 45.3372 52.7164 45.8468 52.6357C46.3565 52.555 46.6956 52.0882 46.6149 51.5785L46.3277 49.7651L47.7855 49.5342L49.9201 51.5046C50.1766 51.7434 50.4811 51.9017 50.8959 51.836C51.3344 51.7666 51.7086 51.3671 51.6278 50.8575C51.5828 50.573 51.4342 50.4021 51.2208 50.2051L49.7086 48.8652C50.6503 48.2908 51.1745 47.3816 50.968 46.0778L50.9643 46.0541C50.8404 45.2719 50.4882 44.6594 49.9528 44.2704C49.3212 43.8116 48.4565 43.6448 47.4016 43.8118L44.5215 44.268C44.0119 44.3487 43.6727 44.8155 43.7535 45.3252L44.7897 51.8676ZM46.0724 48.1532L45.6951 45.7709L47.5085 45.4837C48.3974 45.3429 49.0064 45.6595 49.1303 46.4418L49.1341 46.4655C49.2448 47.1648 48.8103 47.7196 47.9214 47.8604L46.0724 48.1532ZM53.4674 52.4493C53.5462 52.9471 54.013 53.2862 54.5108 53.2074C55.0086 53.1286 55.3478 52.6618 55.2689 52.164L54.9686 50.2676C55.476 50.7097 56.138 51.0543 57.0981 50.9023C58.6033 50.6639 59.8061 49.2827 59.47 47.1612L59.4663 47.1375C59.1303 45.0159 57.5359 44.0778 56.0544 44.3124C55.118 44.4607 54.583 44.995 54.2383 45.6571L54.2252 45.5741C54.1464 45.0763 53.6796 44.7372 53.1818 44.816C52.684 44.8948 52.3448 45.3616 52.4237 45.8594L53.4674 52.4493ZM56.3937 49.4466C55.5522 49.5798 54.7421 48.9913 54.5751 47.9365L54.5713 47.9128C54.4042 46.8579 54.9928 46.0479 55.8343 45.9146C56.6758 45.7813 57.4977 46.3679 57.6647 47.4228L57.6685 47.4465C57.8375 48.5132 57.2352 49.3133 56.3937 49.4466Z" fill="white"/>
<defs>
<filter id="filter0_d_73_11536" x="-4" y="0" width="123" height="119" filterUnits="userSpaceOnUse" color-interpolation-filters="sRGB">
<feFlood flood-opacity="0" result="BackgroundImageFix"/>
<feColorMatrix in="SourceAlpha" type="matrix" values="0 0 0 0 0 0 0 0 0 0 0 0 0 0 0 0 0 0 127 0" result="hardAlpha"/>
<feOffset/>
<feGaussianBlur stdDeviation="12"/>
<feColorMatrix type="matrix" values="0 0 0 0 0 0 0 0 0 0 0 0 0 0 0 0 0 0 0.3 0"/>
<feBlend mode="normal" in2="BackgroundImageFix" result="effect1_dropShadow_73_11536"/>
<feBlend mode="normal" in="SourceGraphic" in2="effect1_dropShadow_73_11536" result="shape"/>
</filter>
</defs>
</svg>
