<svg width="72" height="72" viewBox="0 0 72 72" fill="none" xmlns="http://www.w3.org/2000/svg">
<g filter="url(#filter0_d_2_18973)">
<circle cx="36" cy="32" r="30" fill="white"/>
</g>
<path d="M51.527 49.0225H48.1756C47.2993 49.0225 46.5889 48.3121 46.5889 47.4358V38.5867C46.5889 37.7105 47.2993 37 48.1756 37H51.527C52.4033 37 53.1138 37.7105 53.1138 38.5867V47.4358C53.1138 48.3121 52.4033 49.0225 51.527 49.0225Z" fill="#FF8500"/>
<path d="M46.5873 38.5645H41.8257C40.3522 38.5645 38.9286 39.0889 37.8056 40.0433L36.4858 41.1663C35.8495 41.7069 35.042 42.0049 34.2062 42.0049H32.3404C32.3404 42.0049 30.2494 42.0049 30.2494 43.7251L22.4694 44.1551C21.6444 44.1996 21 44.8804 21 45.7054C21 46.5251 21.6363 47.2032 22.4546 47.2571L37.7571 48.2439C38.1117 48.2669 38.4662 48.2628 38.8208 48.2305L46.5873 47.5348V38.5645Z" fill="#FFB70A"/>
<path d="M30.5899 43.7227C30.5899 43.7227 30.5508 45.362 32.4881 45.362C34.4253 45.362 38.8552 45.362 38.8552 45.362" fill="#FFB70A"/>
<path d="M30.5899 43.7227C30.5899 43.7227 30.5508 45.362 32.4881 45.362C34.4253 45.362 38.8552 45.362 38.8552 45.362" stroke="#FF8500" stroke-miterlimit="10" stroke-linecap="round" stroke-linejoin="round"/>
<path fill-rule="evenodd" clip-rule="evenodd" d="M40.3145 15.6406C42.5236 15.6406 44.3145 17.4315 44.3145 19.6406L44.3145 29.38C44.3145 31.5891 42.5236 33.38 40.3145 33.38H39.1259L37.0798 36L35.0337 33.38L25.9068 33.38C23.6977 33.38 21.9068 31.5891 21.9068 29.38L21.9068 19.6406C21.9068 17.4315 23.6977 15.6406 25.9068 15.6406L40.3145 15.6406Z" fill="#3531B3"/>
<path d="M27.5782 26.8024C27.5782 27.1894 27.8842 27.4954 28.2712 27.4954C28.6582 27.4954 28.9642 27.1894 28.9642 26.8024L28.9642 25.4254L30.0712 25.4254L31.4212 27.1354C31.5922 27.3424 31.7902 27.4954 32.1052 27.4954C32.4382 27.4954 32.7622 27.2434 32.7622 26.8564C32.7622 26.6404 32.6722 26.4964 32.5372 26.3254L31.5742 25.1554C32.3392 24.8404 32.8342 24.2374 32.8342 23.2384L32.8342 23.2204C32.8342 22.6174 32.6542 22.1404 32.2942 21.7804C31.8712 21.3574 31.2592 21.1414 30.4582 21.1414L28.2712 21.1414C27.8842 21.1414 27.5782 21.4474 27.5782 21.8344L27.5782 26.8024ZM28.9642 24.2014L28.9642 22.3924L30.3412 22.3924C31.0252 22.3924 31.4302 22.6894 31.4302 23.2924L31.4302 23.3104C31.4302 23.8504 31.0522 24.2014 30.3682 24.2014L28.9642 24.2014ZM33.9381 28.2514C33.9381 28.6384 34.2351 28.9354 34.6221 28.9354C35.0091 28.9354 35.3061 28.6384 35.3061 28.2514L35.3061 26.8114C35.6301 27.1984 36.0801 27.5314 36.8091 27.5314C37.9521 27.5314 39.0051 26.6494 39.0051 25.0384L39.0051 25.0204C39.0051 23.4094 37.9341 22.5274 36.8091 22.5274C36.0891 22.5274 35.6391 22.8514 35.3061 23.3104L35.3061 23.2474C35.3061 22.8604 35.0091 22.5634 34.6221 22.5634C34.2351 22.5634 33.9381 22.8604 33.9381 23.2474L33.9381 28.2514ZM36.4581 26.3704C35.8191 26.3704 35.2881 25.8394 35.2881 25.0384L35.2881 25.0204C35.2881 24.2194 35.8191 23.6884 36.4581 23.6884C37.0971 23.6884 37.6371 24.2194 37.6371 25.0204L37.6371 25.0384C37.6371 25.8484 37.0971 26.3704 36.4581 26.3704Z" fill="white"/>
<defs>
<filter id="filter0_d_2_18973" x="0" y="0" width="72" height="72" filterUnits="userSpaceOnUse" color-interpolation-filters="sRGB">
<feFlood flood-opacity="0" result="BackgroundImageFix"/>
<feColorMatrix in="SourceAlpha" type="matrix" values="0 0 0 0 0 0 0 0 0 0 0 0 0 0 0 0 0 0 127 0" result="hardAlpha"/>
<feOffset dy="4"/>
<feGaussianBlur stdDeviation="3"/>
<feComposite in2="hardAlpha" operator="out"/>
<feColorMatrix type="matrix" values="0 0 0 0 0.207843 0 0 0 0 0.192157 0 0 0 0 0.701961 0 0 0 0.1 0"/>
<feBlend mode="normal" in2="BackgroundImageFix" result="effect1_dropShadow_2_18973"/>
<feBlend mode="normal" in="SourceGraphic" in2="effect1_dropShadow_2_18973" result="shape"/>
</filter>
</defs>
</svg>
