<svg width="119" height="119" viewBox="0 0 119 119" fill="none" xmlns="http://www.w3.org/2000/svg">
<g filter="url(#filter0_d_101_13134)">
<path d="M79.4769 32.7986C85.5629 37.9167 89.9101 44.9652 92.6099 53.2259C95.2639 61.5315 96.2706 71.0942 92.6556 78.8161C89.0406 86.583 80.8497 92.5092 72.2468 94.3499C63.5983 96.1906 54.4921 93.9009 46.6215 90.2644C38.7508 86.6279 32.1157 81.5996 27.2194 74.8654C22.2774 68.0862 19.12 59.5561 20.2182 51.5199C21.3622 43.4837 26.7618 35.9413 33.763 31.0028C40.7185 26.0194 49.2755 23.64 57.4207 24.0441C65.6117 24.493 73.3908 27.6806 79.4769 32.7986Z" fill="white"/>
</g>
<circle cx="58.8714" cy="58.8701" r="20.3263" transform="rotate(-8.5728 58.8714 58.8701)" fill="#FF8500"/>
<path d="M61.4238 57.7407C62.0514 58.0537 62.1702 58.8988 61.6532 59.3727L57.2664 63.3943L53.2078 67.1143C52.6142 67.6583 51.6539 67.3136 51.5419 66.5163L50.6385 60.0886L49.7353 53.6618C49.6232 52.8645 50.4513 52.2684 51.1719 52.6277L56.0986 55.085L61.4238 57.7407Z" fill="white"/>
<path d="M64.3444 49.6898L64.0586 49.73C63.5117 49.8068 63.1307 50.3125 63.2075 50.8594L65.2649 65.4984C65.3418 66.0453 65.8474 66.4263 66.3943 66.3495L66.6801 66.3093C67.227 66.2324 67.6081 65.7268 67.5312 65.1799L65.4738 50.5409C65.397 49.994 64.8913 49.6129 64.3444 49.6898Z" fill="white"/>
<defs>
<filter id="filter0_d_101_13134" x="-4" y="0" width="123" height="119" filterUnits="userSpaceOnUse" color-interpolation-filters="sRGB">
<feFlood flood-opacity="0" result="BackgroundImageFix"/>
<feColorMatrix in="SourceAlpha" type="matrix" values="0 0 0 0 0 0 0 0 0 0 0 0 0 0 0 0 0 0 127 0" result="hardAlpha"/>
<feOffset/>
<feGaussianBlur stdDeviation="12"/>
<feColorMatrix type="matrix" values="0 0 0 0 0 0 0 0 0 0 0 0 0 0 0 0 0 0 0.3 0"/>
<feBlend mode="normal" in2="BackgroundImageFix" result="effect1_dropShadow_101_13134"/>
<feBlend mode="normal" in="SourceGraphic" in2="effect1_dropShadow_101_13134" result="shape"/>
</filter>
</defs>
</svg>
