<svg width="288" height="408" viewBox="0 0 288 408" fill="none" xmlns="http://www.w3.org/2000/svg">
<rect y="32" width="288" height="376" rx="12" fill="#221F7A"/>
<path d="M0 289.244C0 289.244 85.1875 340.418 132.39 306.233C167.795 280.601 197.801 274.581 210.597 273.165C218.711 272.271 226.675 270.304 234.176 267.07C252.371 259.217 279.768 241.707 288 205.748V102H0V289.244Z" fill="#030062"/>
<path d="M12 32.5C5.37259 32.5 0 37.8726 0 44.5V277.374C0 277.374 91.0785 325.382 152.613 274.913C188.137 245.776 209.091 233.871 220.47 229.008C232.744 223.757 243.93 216.252 253.4 206.824C269.209 191.085 288 167.752 288 145.643V44.5C288 37.8726 282.627 32.5 276 32.5H12Z" fill="#168BC3"/>
<mask id="mask0_1_4743" style="mask-type:alpha" maskUnits="userSpaceOnUse" x="0" y="0" width="288" height="298">
<path d="M0 0V277.284C0 277.284 91.0785 325.276 152.613 274.823C188.137 245.697 209.091 233.795 220.47 228.933C232.744 223.684 243.93 216.182 253.4 206.757C269.209 191.023 288 167.697 288 145.595V0H0Z" fill="#168BC3"/>
</mask>
<g mask="url(#mask0_1_4743)">
<circle cx="234.5" cy="35.5" r="27.5" fill="white"/>
<rect x="221" y="26" width="28" height="19" rx="3" fill="#3531B3"/>
<path d="M222.875 28.5L235 36L247.124 28.5" stroke="white" stroke-linecap="round"/>
<path d="M246.819 9.64887C244.923 12.3847 244.327 16.4406 245.91 19.8445C247.493 23.2483 251.254 25.9841 255.046 26C258.854 26 262.663 23.296 264.903 19.5104C267.129 15.7249 267.787 10.8736 265.875 8.12191C263.979 5.37021 259.497 4.71808 255.689 5.09981C251.865 5.48155 248.7 6.89717 246.819 9.64887Z" fill="#FF8500"/>
<path d="M260 13L254.5 18L252 15.7273" stroke="white" stroke-width="2" stroke-linecap="round" stroke-linejoin="round"/>
<path fill-rule="evenodd" clip-rule="evenodd" d="M253.501 120C257.919 120 261.501 123.582 261.501 128V141.34C261.501 145.292 258.635 148.575 254.867 149.224L250.844 154.599L246.908 149.34H223C218.582 149.34 215 145.758 215 141.34V128C215 123.582 218.582 120 223 120L253.501 120Z" fill="#540A7F"/>
<circle cx="228" cy="135" r="3" fill="white"/>
<circle cx="238" cy="135" r="3" fill="white"/>
<circle cx="248" cy="135" r="3" fill="white"/>
<line x1="40.5" y1="200" x2="40.5" y2="164" stroke="white" stroke-opacity="0.5"/>
<path d="M245.915 118.915V94.9929H234.433V64.373" stroke="white" stroke-opacity="0.5"/>
<rect x="22.5078" y="200.964" width="57.369" height="30.5767" rx="2.5" stroke="white" stroke-opacity="0.5"/>
<rect x="18.1807" y="99.0361" width="102.385" height="66.9809" rx="6" fill="#3531B3"/>
<rect x="21.0508" y="102.864" width="96.6438" height="7.65496" rx="3" fill="#221F7A"/>
<rect x="54.542" y="112.432" width="34.4473" height="2.87061" rx="1.4353" fill="#168BC3"/>
<rect width="34.4473" height="2.87061" rx="1.4353" transform="matrix(-1 0 0 1 117.695 126.785)" fill="#168BC3"/>
<rect x="54.542" y="117.217" width="63.1534" height="2.87061" rx="1.4353" fill="#168BC3"/>
<rect x="54.542" y="136.354" width="63.1534" height="2.87061" rx="1.4353" fill="#168BC3"/>
<rect x="54.542" y="122.001" width="51.671" height="2.87061" rx="1.4353" fill="#168BC3"/>
<rect x="54.542" y="131.57" width="51.671" height="2.87061" rx="1.4353" fill="#168BC3"/>
<rect x="90.9033" y="112.432" width="26.7924" height="2.87061" rx="1.4353" fill="#168BC3"/>
<rect width="26.7924" height="2.87061" rx="1.4353" transform="matrix(-1 0 0 1 81.334 126.785)" fill="#168BC3"/>
<rect x="21.0508" y="112.432" width="31.5767" height="26.7924" rx="3" fill="#221F7A"/>
<circle cx="111.954" cy="106.691" r="1.91374" fill="white"/>
<circle cx="106.213" cy="106.691" r="1.91374" fill="white"/>
<circle cx="100.471" cy="106.691" r="1.91374" fill="white"/>
<rect x="21.0508" y="141.138" width="96.6438" height="20.0943" rx="3" fill="#221F7A"/>
<circle cx="29.6628" cy="156.449" r="1.91374" fill="#FFB70A"/>
<circle cx="44.9723" cy="144.966" r="1.91374" fill="#FFB70A"/>
<circle cx="65.0671" cy="156.449" r="1.91374" fill="#FFB70A"/>
<circle cx="88.0319" cy="145.923" r="1.91374" fill="#FFB70A"/>
<circle cx="109.083" cy="154.535" r="1.91374" fill="#FFB70A"/>
<path d="M29.1846 156.448L44.9729 144.966L65.0672 156.448L88.0321 145.444L109.083 154.535" stroke="#FFB70A"/>
<mask id="mask1_1_4743" style="mask-type:alpha" maskUnits="userSpaceOnUse" x="21" y="112" width="32" height="28">
<rect x="21.0508" y="112.432" width="31.5767" height="26.7924" rx="3" fill="#221F7A"/>
</mask>
<g mask="url(#mask1_1_4743)">
<circle cx="44.973" cy="120.087" r="3.82748" fill="#FF8500"/>
<path d="M31.1891 121.587C31.574 120.921 32.5362 120.921 32.9211 121.587L44.0335 140.835C44.4184 141.501 43.9373 142.335 43.1675 142.335H20.9427C20.1729 142.335 19.6918 141.501 20.0767 140.835L31.1891 121.587Z" fill="#168BC3"/>
<path d="M44.1068 128.285C44.4917 127.619 45.454 127.619 45.8389 128.285L53.2222 141.074C53.6071 141.74 53.126 142.574 52.3562 142.574H37.5895C36.8197 142.574 36.3385 141.74 36.7234 141.074L44.1068 128.285Z" fill="#030062"/>
</g>
<rect x="18.1807" y="71.2869" width="65.0671" height="4.78435" rx="2.39217" fill="#FF8500"/>
<rect x="188.503" y="190.896" width="65.0671" height="4.78435" rx="2.39217" fill="#FF8500"/>
<path d="M116.725 133.248C100.923 136.72 90.0515 142.823 86.1124 144.732C76.2825 149.493 67.4905 155.239 60.838 165.15C54.3768 174.778 53.8172 185.256 52.6943 206.213C51.8051 222.809 51.1852 237.038 57.154 254.232C60.0977 262.713 63.7427 269.319 66.5518 273.797C67.2106 295.685 67.8695 317.572 68.5284 339.46C89.7539 346.18 123.64 353.75 164.72 349.425C185.524 347.236 203.317 342.503 217.493 337.53C218.205 316.775 218.917 296.025 219.629 275.27C221.981 272.245 225.088 267.743 227.805 261.838C230.331 256.351 235.176 243.868 233.402 219.96C231.701 197.063 229.753 171.36 211.153 155.115C202.159 147.258 189.208 141.558 184.652 139.554C180.249 137.616 173.639 134.307 164.723 132.639C153.041 130.457 136.102 128.99 116.725 133.248Z" fill="#FF8500"/>
<path opacity="0.1" d="M177.101 259.213C184.794 259.702 189.46 257.619 191.978 256.092C209.644 245.391 206.19 210.874 205.191 200.906C204.862 197.626 203.976 190.708 203.565 190.74C203.183 190.768 203.494 196.705 203.385 203.793C203.257 211.937 203.14 219.39 201.567 226.942C200.196 233.517 197.472 245.589 187.217 253.712C183.409 256.723 179.644 258.334 177.101 259.213Z" fill="#54463D"/>
<path opacity="0.1" d="M92.2546 212.157C92.3254 203.06 93.0162 193.103 93.6432 193.11C94.2666 193.117 93.8522 202.936 95.4745 213.857C97.6885 228.777 102.91 240.453 107.203 248.267C104.819 248.469 102.435 248.674 100.051 248.876C97.9081 245.036 95.223 239.301 93.6113 231.955C92.1802 225.426 92.1908 220.417 92.2546 212.157Z" fill="#54463D"/>
<path d="M176.82 72.2387C177.089 71.7889 179.222 68.3599 183.327 67.9667C184.092 67.8923 186.579 67.7683 188.616 69.288C192.318 72.0474 192.757 78.8983 189.852 83.4324C187.394 87.2688 182.633 89.295 177.67 88.714L175.598 77.8143C175.513 76.9181 175.417 74.5837 176.82 72.2387Z" fill="#F7B29A"/>
<path d="M179.587 76.0964C179.626 75.8803 180.253 72.8304 182.676 71.9661C183.792 71.5693 184.932 71.7606 185.315 71.8279C186.459 72.0334 187.281 72.5328 187.72 72.8446" stroke="#F1A898" stroke-width="2" stroke-miterlimit="10" stroke-linecap="round" stroke-linejoin="round"/>
<path d="M108.794 88.6433C112.383 89.3943 115.259 87.4319 115.843 87.0174C116.57 89.412 117.522 92.8693 118.351 97.1024C120.14 106.22 120.927 110.762 120.208 116.128C120.101 116.922 119.96 117.712 119.786 118.498C119.786 118.494 119.79 118.494 119.79 118.494C119.828 118.501 119.046 123.365 117.441 133.092C119.425 135.129 122.613 138.14 126.991 141.179C134.82 146.61 137.306 145.781 141.837 150.637C143.144 152.04 147.437 156.748 148.907 163.818V163.822C148.904 163.712 148.939 163.457 149.017 163.082C149.017 163.074 149.021 163.071 149.021 163.064C149.031 163.007 149.045 162.943 149.06 162.88C149.07 162.83 149.081 162.784 149.092 162.734C149.106 162.678 149.12 162.617 149.134 162.561C149.152 162.493 149.166 162.426 149.184 162.355C149.198 162.299 149.212 162.238 149.23 162.182C149.251 162.1 149.272 162.019 149.293 161.934C149.311 161.874 149.325 161.813 149.343 161.753C149.368 161.661 149.393 161.569 149.421 161.473C149.439 161.41 149.46 161.342 149.478 161.275C149.506 161.176 149.538 161.077 149.57 160.974C149.591 160.903 149.612 160.836 149.637 160.765C149.669 160.659 149.704 160.552 149.74 160.442C149.765 160.368 149.789 160.294 149.814 160.219C149.853 160.11 149.892 159.993 149.931 159.879C149.959 159.801 149.984 159.723 150.013 159.645C150.055 159.529 150.098 159.408 150.144 159.288C150.172 159.206 150.204 159.128 150.232 159.047C150.282 158.919 150.331 158.792 150.381 158.661C150.413 158.583 150.441 158.505 150.473 158.423C150.53 158.282 150.59 158.136 150.65 157.991C150.678 157.92 150.707 157.853 150.739 157.782C150.831 157.566 150.926 157.347 151.026 157.123C152.375 154.119 153.888 151.937 156.105 148.774C158.596 145.218 159.92 143.496 160.54 142.433C161.911 140.085 163.247 137.07 164.104 133.252C162.899 126.043 162.315 122.437 162.347 122.426C161.259 118.37 161.259 114.541 161.259 114.541C165.142 113.046 171.716 109.862 176.92 103.255C185.003 92.9898 184.387 74.9771 184.242 71.5304C183.987 65.5616 183.746 59.522 182.411 53.6772C181.231 48.5337 178.964 42.7066 174.207 39.8409C171.295 38.0874 166.994 38.5834 163.721 38.47C156.406 38.222 149.049 37.7474 141.731 37.9989C138.121 38.1229 134.373 38.6825 131.167 40.5387C128.036 42.3524 125.362 45.165 123.707 48.3814C121.005 53.6488 121.894 58.5018 120.385 74.6831C120.264 75.9866 119.878 79.8974 118.961 79.9717C117.508 80.0886 117.551 70.4217 112.046 67.7685C109.627 66.6031 106.548 66.8191 104.317 68.1758C100.852 70.2835 100.448 74.4493 100.317 75.767C99.8498 80.5527 102.567 83.9604 103.3 84.8495C104.324 86.0893 105.939 88.0482 108.794 88.6433Z" fill="#FDBEA3"/>
<path d="M131.097 110.677C141.585 121.095 156.112 121.201 161.964 120.786C161.277 117.464 161.263 114.658 161.263 114.548C154.6 115.448 135.45 116.412 125.344 102.338C125.234 102.186 125.004 102.327 125.089 102.49C126.47 105.129 128.394 107.992 131.097 110.677Z" fill="#F1A898"/>
<path d="M166.973 70.33C168.294 70.33 169.365 68.6164 169.365 66.5025C169.365 64.3887 168.294 62.675 166.973 62.675C165.652 62.675 164.581 64.3887 164.581 66.5025C164.581 68.6164 165.652 70.33 166.973 70.33Z" fill="#1E244E"/>
<path d="M142.094 70.33C143.415 70.33 144.486 68.6164 144.486 66.5025C144.486 64.3887 143.415 62.675 142.094 62.675C140.773 62.675 139.702 64.3887 139.702 66.5025C139.702 68.6164 140.773 70.33 142.094 70.33Z" fill="#1E244E"/>
<path d="M156.788 65.3242C158.145 72.0759 159.781 74.9097 161.11 76.2027C161.365 76.4506 162.158 77.1803 162.353 78.321C162.686 80.2586 161.043 81.966 160.702 82.3061C158.857 84.1304 156.377 84.0631 155.839 84.0347" stroke="#F1A898" stroke-width="2" stroke-miterlimit="10" stroke-linecap="round" stroke-linejoin="round"/>
<path d="M141.471 87.1555C142.665 85.7917 146.81 89.373 152.924 90.4747C160.851 91.8987 165.892 88.034 166.785 89.5926C167.734 91.2469 163.097 97.3963 156.824 98.6326C156.824 98.6326 150.278 99.9114 144.56 95.0797C144.107 94.6971 143.717 94.3003 143.374 93.8788C142.988 93.4077 142.353 92.5469 141.861 91.2788C141.666 90.7757 140.657 88.0836 141.471 87.1555Z" fill="#F7FAE3"/>
<path d="M113.268 77.393C113.229 77.1769 112.602 74.127 110.179 73.2627C109.063 72.8659 107.923 73.0572 107.54 73.1245C106.396 73.33 105.574 73.8295 105.135 74.1412" stroke="#F1A898" stroke-width="2" stroke-miterlimit="10" stroke-linecap="round" stroke-linejoin="round"/>
<path d="M136.934 53.7586C137.448 53.6558 139.442 53.2555 141.535 52.997C145.032 52.5648 146.52 52.8128 146.874 51.9803C147.104 51.4348 146.757 50.652 146.307 50.2375C145.885 49.8514 145.312 49.7557 144.763 49.7451C142.109 49.6884 139.885 50.3544 139.885 50.3544C137.352 51.1125 135.797 52.076 135.46 52.2885C134.607 52.8269 132.85 54.0455 133.034 54.4245C133.176 54.7079 134.309 54.2899 136.934 53.7586Z" fill="#2C2048"/>
<path d="M173.891 53.7586C173.427 53.6558 171.628 53.2555 169.736 52.997C166.58 52.5648 165.237 52.8128 164.915 51.9803C164.706 51.4348 165.021 50.652 165.425 50.2375C165.804 49.8514 166.325 49.7557 166.821 49.7451C169.215 49.6884 171.224 50.3544 171.224 50.3544C173.512 51.1125 174.915 52.076 175.22 52.2885C175.992 52.8269 177.575 54.0455 177.409 54.4245C177.285 54.7079 176.261 54.2899 173.891 53.7586Z" fill="#2C2048"/>
<path d="M141.344 84.0421C138.216 83.7622 136.859 87.765 137.809 88.8135" stroke="#F1A898" stroke-width="2" stroke-miterlimit="10" stroke-linecap="round" stroke-linejoin="round"/>
<path d="M119.796 118.491C119.609 119.996 120.381 121.714 120.845 123.124C121.667 125.618 122.69 127.931 124.079 130.156C125.241 132.015 126.516 133.801 127.873 135.522C128.5 136.316 129.137 137.109 129.814 137.86C131.812 140.081 133.484 141.728 134.926 143.042C140.515 148.133 143.303 150.736 144.288 152.178C145.29 153.645 146.594 155.937 147.483 159.234C147.256 158.763 145.648 155.529 142.237 154.842C139.665 154.325 137.614 155.586 136.208 156.411C132.68 158.48 131.249 161.788 130.781 163.042C127.536 160.138 123.565 156.032 119.825 150.527C115.847 144.675 113.417 139.146 111.911 134.888C113.59 131.169 115.372 127.393 117.256 123.563C118.096 121.849 118.943 120.156 119.796 118.491Z" fill="#FF9B2D"/>
<path d="M162.202 121.835C162.237 122.03 162.29 122.316 162.347 122.664C163.473 129.362 162.9 134.158 162.754 135.278C162.648 136.114 162.255 139.107 160.547 142.43C159.35 144.757 157.597 146.649 156.112 148.77C153.895 151.937 152.382 154.116 151.033 157.12C149.375 160.804 148.808 163.847 148.929 163.886C148.932 163.886 148.939 163.747 148.964 163.499C149.166 161.374 149.998 157.46 152.726 155.954C154.703 154.863 156.927 155.504 158.383 155.922C162.609 157.141 164.936 160.481 165.755 161.803C167.129 160.283 168.599 158.246 169.672 155.628C169.889 155.104 170.073 154.59 170.232 154.091C172.464 148.034 170.88 142.217 169.733 138.2C168.464 133.762 166.771 130.457 164.639 126.291C163.672 124.417 162.815 122.89 162.202 121.835Z" fill="#FF9B2D"/>
<path d="M158.379 155.926C157.848 155.774 157.214 155.589 156.527 155.472C154.865 156.641 154.033 157.226 153.091 157.283C152.861 157.297 152.28 157.3 151.78 157.69C151.298 158.065 151.157 158.607 151.068 158.848C150.693 159.858 151.008 162.777 152.166 166.521C153.728 166.415 156.69 166.004 159.821 164.148C161.929 162.897 163.445 161.385 164.497 160.063C163.254 158.568 161.256 156.755 158.379 155.926Z" fill="#4B499B"/>
<path d="M145.329 157.495C144.667 157.562 143.299 157.605 141.794 156.935C140.618 156.411 139.792 155.646 139.243 154.977C138.032 155.317 137.008 155.937 136.201 156.408C134.383 157.47 133.126 158.866 132.269 160.138C132.499 160.538 132.789 160.91 133.144 161.236C134.121 162.15 135.439 163.205 137.136 164.141C140.15 165.802 142.98 166.33 144.791 166.514C146.402 160.967 146.328 158.717 145.751 157.86C145.612 157.743 145.471 157.619 145.329 157.495Z" fill="#4B499B"/>
<path d="M153.973 157.162C153.756 156.982 153.083 156.897 151.737 156.727C150.908 156.62 149.948 156.503 148.645 156.503C148.609 156.503 148.571 156.503 148.535 156.507C148.5 156.507 148.461 156.503 148.425 156.503C147.125 156.503 146.165 156.624 145.333 156.727C143.987 156.897 143.314 156.982 143.098 157.162C142.01 158.08 142.602 160.524 143.48 163.988C143.884 165.579 144.302 166.886 144.621 167.81C145.485 167.573 146.714 167.322 148.181 167.297V167.3C148.301 167.297 148.415 167.297 148.532 167.297C148.648 167.297 148.762 167.297 148.882 167.3V167.297C150.349 167.325 151.574 167.573 152.442 167.81C152.761 166.889 153.179 165.582 153.583 163.988C154.468 160.52 155.064 158.08 153.973 157.162Z" fill="#5252A0"/>
<path d="M152.361 166.907C151.107 166.759 149.856 166.61 148.602 166.457C148.602 166.45 148.602 166.447 148.602 166.44C148.581 166.443 148.556 166.447 148.535 166.447C148.514 166.443 148.489 166.44 148.468 166.44C148.468 166.447 148.468 166.45 148.468 166.457C147.214 166.606 145.963 166.755 144.709 166.907C140.703 206.627 136.696 246.351 132.69 286.071C132.623 286.754 132.832 287.438 133.271 287.962L134.072 288.919C135.241 290.318 136.413 291.721 137.582 293.12C138.953 294.76 140.324 296.4 141.695 298.04C142.793 299.354 143.891 300.665 144.989 301.979C145.963 303.145 146.835 304.579 148.531 304.579C149.498 304.579 150.285 304.005 150.922 303.329C151.645 302.567 152.29 301.724 152.963 300.92C154.206 299.432 155.453 297.945 156.696 296.453C158.06 294.82 159.424 293.191 160.788 291.558C161.79 290.36 162.793 289.16 163.795 287.962C164.234 287.435 164.443 286.754 164.376 286.071C160.373 246.347 156.367 206.627 152.361 166.907Z" fill="#4B499B"/>
<path d="M233.398 219.96C232.661 210.045 231.878 199.606 229.717 189.638C228.605 181.254 220.823 175.926 213.862 177.364C208.198 178.537 203.685 184.07 203.561 190.74C203.809 191.707 204.174 193.007 204.408 194.583C204.723 196.719 205.024 199.27 205.19 200.91C206.189 210.881 209.647 245.394 191.978 256.096C189.891 257.36 188.184 257.923 186.583 258.433C183.596 259.386 175.732 261.374 151.638 252.642C146.175 250.662 132.321 245.394 128.053 244.076C127.979 244.055 127.734 243.977 127.345 243.857C127.295 243.843 122.541 242.373 122.268 242.291C122.24 242.284 120.122 241.629 120.093 241.622C114.571 245.83 109.048 250.035 103.522 254.243C125.099 266.297 140.965 275.029 141.811 275.437C142.938 275.979 143.986 276.46 143.986 276.46C143.99 276.46 143.99 276.464 143.99 276.464C143.993 276.467 143.997 276.467 143.997 276.467C144.875 276.875 145.754 277.271 146.639 277.665C147.66 278.118 148.687 278.557 149.718 278.989C150.876 279.475 152.042 279.946 153.214 280.403C154.507 280.906 155.807 281.395 157.111 281.866C158.531 282.376 159.959 282.868 161.393 283.339C162.934 283.846 164.486 284.328 166.041 284.785C167.699 285.274 169.367 285.731 171.039 286.163C171.708 286.336 172.381 286.503 173.055 286.666C191.804 291.225 199.36 289.287 203.557 287.682C211.382 284.689 216.561 279.252 219.622 275.277C221.974 272.252 225.08 267.75 227.797 261.845C230.327 256.351 235.176 243.867 233.398 219.96Z" fill="#FF8500"/>
<path opacity="0.1" d="M137.94 273.712C138.177 273.244 151.606 281.437 173.058 286.655C191.808 291.214 199.363 289.276 203.561 287.672C211.386 284.679 216.565 279.241 219.625 275.267C219.555 277.527 219.484 279.783 219.413 282.043C216.2 285.493 210.713 290.336 202.764 292.78C199.466 293.793 191.085 295.826 171.17 289.464C151.532 283.191 137.695 274.19 137.94 273.712Z" fill="#54463D"/>
<path d="M179.909 258.263C175.793 252.752 171.677 247.24 167.561 241.728L100.051 248.873C97.9083 245.033 95.2232 239.298 93.6115 231.951C92.1804 225.423 92.191 220.417 92.2548 212.157C92.3256 203.06 93.0164 193.103 93.6434 193.11C95.9423 181.874 88.4503 170.945 77.618 168.983C66.442 166.957 55.3226 175.129 54.0226 186.9C53.5479 191.385 53.13 198.08 52.6943 206.213C51.8051 222.808 51.1852 237.038 57.154 254.232C60.0127 262.472 63.5302 268.933 66.3038 273.4L66.4986 273.69C69.1731 277.176 74.5361 283.028 82.9598 285.483C88.0324 286.96 92.9278 286.829 103.76 284.399C120.707 280.594 132.673 275.621 132.673 275.621C143.335 271.196 158.918 265.128 179.909 258.263Z" fill="#FF8500"/>
<path opacity="0.1" d="M176.59 259.358C148.623 269.599 137.532 273.683 136.686 274.03C136.679 274.034 136.64 274.048 136.594 274.069C136.289 274.193 135.315 274.59 134.04 275.093C133.625 275.256 133.172 275.433 132.676 275.624C127.054 277.796 116.665 281.504 103.764 284.402C92.9311 286.836 88.0321 286.963 82.9631 285.486C74.5395 283.031 69.1764 277.176 66.502 273.694C66.5197 273.729 66.5338 273.764 66.5515 273.796C66.6259 276.545 66.7039 279.294 66.7783 282.043C69.8849 284.735 75.1558 288.515 82.453 290.187C88.0392 291.465 93.6502 291.246 105.064 288.288C113.657 286.06 120.93 283.467 126.317 281.327C128.577 280.428 130.508 279.613 132.006 278.957C133.197 278.44 134.135 278.015 134.585 277.81C134.716 277.75 134.812 277.707 134.823 277.704C135.708 277.303 148.301 271.77 176.59 259.358Z" fill="#54463D"/>
<path d="M167.561 241.65C167.784 241.632 168.007 241.611 168.23 241.593C168.23 241.593 176.682 240.757 184.592 234.257C184.599 234.25 184.787 234.098 185.042 233.892C185.141 233.814 185.261 233.715 185.428 233.58C187.628 231.827 192.587 228.111 198.354 225.709C199.778 225.118 201.765 224.392 203.235 225.32C203.947 225.77 204.67 226.694 204.627 227.675C204.514 230.329 198.885 231.753 199.077 232.39C199.289 233.109 206.264 230.693 214.588 231.933C216.593 232.231 221.839 233.01 222.35 235.5C222.544 236.46 222.027 237.608 221.22 238.2C219.714 239.305 217.837 238.015 214.369 237.615C210.32 237.148 207.295 238.26 207.309 238.387C207.327 238.582 214.868 237.495 222.707 239.801C224.879 240.438 227.107 241.349 227.613 243.184C227.805 243.874 227.833 244.99 227.188 245.677C225.931 247.016 223.161 245.592 218.984 244.884C213.348 243.928 208.896 244.909 208.892 245.132C208.889 245.359 213.483 245.359 219.732 247.038C224.305 248.263 225.878 249.347 226.122 250.672C226.235 251.285 226.087 252.085 225.58 252.635C224.308 254.005 221.744 252.705 216.994 252.146C212.75 251.646 209.519 252.064 209.512 252.217C209.509 252.344 211.74 252.525 215.212 253.293C217.918 253.892 218.86 254.296 219.137 255.065C219.484 256.035 218.524 257.186 218.435 257.289C215.789 260.392 207.195 257.023 198.007 256.287C193.894 255.957 187.716 256.014 179.909 258.26C175.793 252.723 171.677 247.186 167.561 241.65Z" fill="#FDBEA3"/>
<path d="M120.094 241.618C118.113 240.318 116.25 238.937 115.099 237.714C114.642 237.229 114.341 236.875 114.341 236.875C113.615 235.972 113.066 234.916 110.419 230.867C109.382 229.277 105.393 223.255 99.8457 218.597C98.6626 217.605 96.9835 216.319 95.3044 216.765C94.4897 216.981 93.5262 217.647 93.2712 218.597C92.584 221.161 97.529 224.204 97.1606 224.757C96.7426 225.38 90.8093 220.988 82.4954 219.681C80.4905 219.365 75.2514 218.543 74.0222 220.765C73.5476 221.622 73.6999 222.872 74.295 223.68C75.4002 225.185 77.5787 224.516 81.0077 225.171C85.0105 225.936 87.5645 227.902 87.5149 228.019C87.437 228.2 80.5684 224.905 72.3999 224.764C70.1363 224.725 67.7382 224.927 66.7074 226.528C66.3213 227.13 65.9599 228.189 66.3673 229.036C67.1679 230.69 70.239 230.159 74.4331 230.729C80.0973 231.501 84.0541 233.768 83.9903 233.984C83.9265 234.201 79.5447 232.83 73.0764 232.56C68.3475 232.366 66.5196 232.925 65.8926 234.119C65.6022 234.668 65.503 235.476 65.8253 236.152C66.6294 237.842 69.4668 237.367 74.1639 238.253C78.3651 239.046 81.3229 240.41 81.2804 240.559C81.2486 240.683 79.0594 240.187 75.5171 239.882C72.7541 239.645 71.7374 239.748 71.2451 240.4C70.6216 241.221 71.1955 242.606 71.2486 242.73C72.7151 246.174 79.7466 245.061 91.043 247.881C93.0905 248.395 94.7448 248.901 95.7897 249.238C101.188 248.777 106.583 248.317 111.982 247.856C114.677 245.777 117.387 243.697 120.094 241.618Z" fill="#FDBEA3"/>
<path d="M187.497 29.8693C185.765 22.8343 180.327 17.1843 174.089 13.7978C166.944 9.91898 158.29 9.16093 150.292 9.09362C142.641 9.02632 134.444 9.96857 127.784 14.0245C126.927 14.5452 119.049 19.1821 120.455 20.5884C116.424 16.5608 109.123 22.9866 106.587 26.0896C103.197 30.2377 101.514 35.6185 101.316 40.8611C101.079 47.1097 102.24 53.3902 103.944 59.3803C104.557 61.5305 105.138 65.1472 106.449 67.2903C108.291 66.8121 110.335 66.9431 112.049 67.7685C116.994 70.1525 117.462 78.19 118.56 79.7167C118.694 79.8017 118.833 79.8903 118.964 79.9718C119.881 79.8974 120.267 75.9902 120.388 74.6831C121.897 58.5018 121.004 53.6488 123.71 48.3814C125.361 45.165 128.039 42.3524 131.171 40.5387C134.373 38.6826 138.121 38.1229 141.734 37.9989C149.052 37.7474 156.413 38.2256 163.724 38.47C166.997 38.5798 171.298 38.0839 174.21 39.8409C178.967 42.7066 181.234 48.5337 182.414 53.6772C183.593 58.8242 183.919 64.1199 184.153 69.3873C184.174 69.3732 184.192 69.359 184.213 69.3448C184.84 67.9066 185.743 65.8379 186.498 63.252C189.523 52.8908 190.079 40.3687 187.497 29.8693Z" fill="#2C2048"/>
</g>
<path d="M90.2286 374.264C89.2046 374.264 88.1806 374.152 87.1566 373.928C86.1326 373.704 85.2446 373.376 84.4926 372.944C84.0446 372.704 83.7646 372.384 83.6526 371.984C83.5406 371.568 83.5646 371.168 83.7246 370.784C83.8846 370.4 84.1406 370.128 84.4926 369.968C84.8446 369.808 85.2686 369.848 85.7646 370.088C86.4046 370.456 87.1166 370.728 87.9006 370.904C88.6846 371.08 89.4606 371.168 90.2286 371.168C91.3806 371.168 92.2046 370.992 92.7006 370.64C93.2126 370.272 93.4686 369.816 93.4686 369.272C93.4686 368.808 93.2926 368.44 92.9406 368.168C92.5886 367.896 91.9726 367.664 91.0926 367.472L88.3806 366.896C85.3566 366.256 83.8446 364.688 83.8446 362.192C83.8446 361.12 84.1326 360.184 84.7086 359.384C85.2846 358.568 86.0846 357.936 87.1086 357.488C88.1486 357.04 89.3486 356.816 90.7086 356.816C91.6046 356.816 92.4846 356.928 93.3486 357.152C94.2126 357.36 94.9726 357.672 95.6286 358.088C96.0286 358.328 96.2766 358.64 96.3726 359.024C96.4686 359.408 96.4366 359.776 96.2766 360.128C96.1326 360.48 95.8766 360.728 95.5086 360.872C95.1566 361.016 94.7166 360.96 94.1886 360.704C93.6606 360.432 93.1006 360.232 92.5086 360.104C91.9166 359.976 91.3086 359.912 90.6846 359.912C89.6766 359.912 88.8926 360.112 88.3326 360.512C87.7886 360.896 87.5166 361.4 87.5166 362.024C87.5166 362.488 87.6846 362.864 88.0206 363.152C88.3566 363.44 88.9406 363.672 89.7726 363.848L92.4846 364.424C95.5886 365.096 97.1406 366.616 97.1406 368.984C97.1406 370.04 96.8526 370.968 96.2766 371.768C95.7166 372.552 94.9166 373.168 93.8766 373.616C92.8526 374.048 91.6366 374.264 90.2286 374.264ZM103.588 374.264C102.084 374.264 100.972 373.848 100.252 373.016C99.5476 372.184 99.1956 370.936 99.1956 369.272V363.848C99.1956 362.632 99.7956 362.024 100.996 362.024C102.212 362.024 102.82 362.632 102.82 363.848V369.368C102.82 370.76 103.42 371.456 104.62 371.456C105.308 371.456 105.868 371.216 106.3 370.736C106.748 370.24 106.972 369.592 106.972 368.792V363.848C106.972 362.632 107.572 362.024 108.772 362.024C109.988 362.024 110.596 362.632 110.596 363.848V372.368C110.596 373.6 110.012 374.216 108.844 374.216C108.268 374.216 107.828 374.056 107.524 373.736C107.22 373.416 107.068 372.968 107.068 372.392C106.284 373.64 105.124 374.264 103.588 374.264ZM115.224 378.536C114.008 378.536 113.4 377.92 113.4 376.688V363.848C113.4 362.632 113.992 362.024 115.176 362.024C116.376 362.024 116.976 362.632 116.976 363.848V363.92C117.312 363.328 117.808 362.856 118.464 362.504C119.12 362.152 119.856 361.976 120.672 361.976C121.696 361.976 122.592 362.224 123.36 362.72C124.144 363.216 124.752 363.92 125.184 364.832C125.616 365.744 125.832 366.832 125.832 368.096C125.832 369.36 125.616 370.456 125.184 371.384C124.752 372.296 124.144 373.008 123.36 373.52C122.592 374.016 121.696 374.264 120.672 374.264C119.888 374.264 119.168 374.096 118.512 373.76C117.872 373.424 117.376 372.976 117.024 372.416V376.688C117.024 377.92 116.424 378.536 115.224 378.536ZM119.592 371.552C120.36 371.552 120.984 371.272 121.464 370.712C121.944 370.152 122.184 369.28 122.184 368.096C122.184 366.928 121.944 366.072 121.464 365.528C120.984 364.968 120.36 364.688 119.592 364.688C118.808 364.688 118.176 364.968 117.696 365.528C117.216 366.072 116.976 366.928 116.976 368.096C116.976 369.28 117.216 370.152 117.696 370.712C118.176 371.272 118.808 371.552 119.592 371.552ZM134.168 374.264C132.776 374.264 131.576 374.016 130.568 373.52C129.576 373.008 128.808 372.296 128.264 371.384C127.736 370.456 127.472 369.368 127.472 368.12C127.472 366.904 127.728 365.84 128.24 364.928C128.768 364 129.48 363.28 130.376 362.768C131.288 362.24 132.336 361.976 133.52 361.976C135.232 361.976 136.592 362.52 137.6 363.608C138.608 364.68 139.112 366.136 139.112 367.976C139.112 368.584 138.736 368.888 137.984 368.888H130.928C131.056 369.816 131.392 370.496 131.936 370.928C132.496 371.344 133.264 371.552 134.24 371.552C134.624 371.552 135.056 371.512 135.536 371.432C136.032 371.336 136.504 371.176 136.952 370.952C137.416 370.728 137.808 370.688 138.128 370.832C138.448 370.96 138.664 371.184 138.776 371.504C138.904 371.824 138.904 372.16 138.776 372.512C138.664 372.848 138.4 373.128 137.984 373.352C137.424 373.656 136.8 373.88 136.112 374.024C135.44 374.184 134.792 374.264 134.168 374.264ZM133.664 364.376C132.896 364.376 132.272 364.608 131.792 365.072C131.328 365.536 131.04 366.184 130.928 367.016H136.112C136.016 365.256 135.2 364.376 133.664 364.376ZM143.092 374.216C141.844 374.216 141.22 373.6 141.22 372.368V363.848C141.22 362.632 141.812 362.024 142.996 362.024C144.18 362.024 144.772 362.632 144.772 363.848V364.28C145.348 362.856 146.54 362.088 148.348 361.976C148.748 361.944 149.052 362.048 149.26 362.288C149.484 362.512 149.604 362.888 149.62 363.416C149.652 363.912 149.548 364.304 149.308 364.592C149.084 364.88 148.7 365.056 148.156 365.12L147.604 365.168C145.812 365.344 144.916 366.256 144.916 367.904V372.368C144.916 373.6 144.308 374.216 143.092 374.216ZM156.829 374.216C155.885 374.216 155.197 373.72 154.765 372.728L151.141 364.376C150.869 363.752 150.861 363.208 151.117 362.744C151.373 362.264 151.901 362.024 152.701 362.024C153.133 362.024 153.485 362.128 153.757 362.336C154.029 362.528 154.269 362.904 154.477 363.464L156.949 369.704L159.493 363.44C159.717 362.896 159.965 362.528 160.237 362.336C160.509 362.128 160.885 362.024 161.365 362.024C161.973 362.024 162.405 362.264 162.661 362.744C162.917 363.208 162.901 363.744 162.613 364.352L158.917 372.728C158.501 373.72 157.805 374.216 156.829 374.216ZM166.482 360.056C165.81 360.056 165.29 359.904 164.922 359.6C164.57 359.28 164.394 358.832 164.394 358.256C164.394 357.664 164.57 357.216 164.922 356.912C165.29 356.592 165.81 356.432 166.482 356.432C167.858 356.432 168.546 357.04 168.546 358.256C168.546 359.456 167.858 360.056 166.482 360.056ZM166.482 374.192C165.89 374.192 165.434 374.024 165.114 373.688C164.81 373.336 164.658 372.848 164.658 372.224V364.016C164.658 362.688 165.266 362.024 166.482 362.024C167.058 362.024 167.498 362.2 167.802 362.552C168.122 362.888 168.282 363.376 168.282 364.016V372.224C168.282 372.848 168.13 373.336 167.826 373.688C167.522 374.024 167.074 374.192 166.482 374.192ZM175.592 374.264C174.888 374.264 174.16 374.2 173.408 374.072C172.672 373.944 172 373.728 171.392 373.424C170.992 373.216 170.728 372.952 170.6 372.632C170.488 372.312 170.488 372 170.6 371.696C170.712 371.392 170.912 371.168 171.2 371.024C171.488 370.864 171.824 370.864 172.208 371.024C172.864 371.296 173.464 371.488 174.008 371.6C174.568 371.712 175.104 371.768 175.616 371.768C176.288 371.768 176.784 371.664 177.104 371.456C177.424 371.232 177.584 370.944 177.584 370.592C177.584 370.032 177.176 369.68 176.36 369.536L173.84 369.08C172.832 368.904 172.064 368.544 171.536 368C171.008 367.456 170.744 366.744 170.744 365.864C170.744 365.064 170.968 364.376 171.416 363.8C171.864 363.224 172.48 362.776 173.264 362.456C174.048 362.136 174.952 361.976 175.976 361.976C177.384 361.976 178.632 362.248 179.72 362.792C180.088 362.968 180.312 363.216 180.392 363.536C180.488 363.856 180.472 364.168 180.344 364.472C180.216 364.776 180.008 365.008 179.72 365.168C179.432 365.312 179.088 365.296 178.688 365.12C178.16 364.88 177.68 364.712 177.248 364.616C176.816 364.504 176.408 364.448 176.023 364.448C175.304 364.448 174.784 364.568 174.464 364.808C174.144 365.032 173.984 365.32 173.984 365.672C173.984 366.232 174.36 366.584 175.112 366.728L177.632 367.184C178.672 367.36 179.464 367.712 180.008 368.24C180.552 368.752 180.824 369.456 180.824 370.352C180.824 371.584 180.344 372.544 179.384 373.232C178.424 373.92 177.16 374.264 175.592 374.264ZM188.556 374.264C187.292 374.264 186.188 374.016 185.244 373.52C184.316 373.008 183.596 372.296 183.084 371.384C182.572 370.456 182.316 369.36 182.316 368.096C182.316 366.848 182.572 365.768 183.084 364.856C183.596 363.928 184.316 363.216 185.244 362.72C186.188 362.224 187.292 361.976 188.556 361.976C189.82 361.976 190.916 362.224 191.844 362.72C192.788 363.216 193.516 363.928 194.028 364.856C194.556 365.768 194.82 366.848 194.82 368.096C194.82 369.36 194.556 370.456 194.028 371.384C193.516 372.296 192.788 373.008 191.844 373.52C190.916 374.016 189.82 374.264 188.556 374.264ZM188.556 371.552C189.324 371.552 189.948 371.272 190.428 370.712C190.924 370.152 191.172 369.28 191.172 368.096C191.172 366.928 190.924 366.072 190.428 365.528C189.948 364.968 189.324 364.688 188.556 364.688C187.788 364.688 187.164 364.968 186.684 365.528C186.204 366.072 185.964 366.928 185.964 368.096C185.964 369.28 186.204 370.152 186.684 370.712C187.164 371.272 187.788 371.552 188.556 371.552ZM198.897 374.216C197.649 374.216 197.025 373.6 197.025 372.368V363.848C197.025 362.632 197.617 362.024 198.801 362.024C199.985 362.024 200.577 362.632 200.577 363.848V364.28C201.153 362.856 202.345 362.088 204.153 361.976C204.553 361.944 204.857 362.048 205.065 362.288C205.289 362.512 205.409 362.888 205.425 363.416C205.457 363.912 205.353 364.304 205.113 364.592C204.889 364.88 204.505 365.056 203.961 365.12L203.409 365.168C201.617 365.344 200.721 366.256 200.721 367.904V372.368C200.721 373.6 200.113 374.216 198.897 374.216Z" fill="white"/>
<path d="M124.101 341C123.886 341 123.732 340.953 123.639 340.86C123.546 340.757 123.499 340.622 123.499 340.454C123.499 340.258 123.597 340.057 123.793 339.852L126.929 336.492C127.405 335.979 127.746 335.507 127.951 335.078C128.166 334.639 128.273 334.196 128.273 333.748C128.273 332.6 127.606 332.026 126.271 332.026C125.44 332.026 124.684 332.292 124.003 332.824C123.854 332.936 123.718 332.978 123.597 332.95C123.476 332.913 123.382 332.838 123.317 332.726C123.261 332.614 123.238 332.493 123.247 332.362C123.266 332.222 123.345 332.101 123.485 331.998C123.849 331.699 124.288 331.461 124.801 331.284C125.314 331.097 125.837 331.004 126.369 331.004C127.358 331.004 128.114 331.237 128.637 331.704C129.169 332.161 129.435 332.815 129.435 333.664C129.435 334.252 129.29 334.831 129.001 335.4C128.721 335.96 128.278 336.557 127.671 337.192L125.011 340.02H129.407C129.762 340.02 129.939 340.179 129.939 340.496C129.939 340.832 129.762 341 129.407 341H124.101ZM139.661 341.126C138.746 341.126 137.948 340.921 137.267 340.51C136.595 340.09 136.072 339.502 135.699 338.746C135.335 337.99 135.153 337.094 135.153 336.058C135.153 335.022 135.335 334.126 135.699 333.37C136.063 332.614 136.581 332.031 137.253 331.62C137.934 331.209 138.737 331.004 139.661 331.004C140.594 331.004 141.397 331.209 142.069 331.62C142.75 332.031 143.273 332.614 143.637 333.37C144.01 334.117 144.197 335.008 144.197 336.044C144.197 337.08 144.01 337.981 143.637 338.746C143.263 339.502 142.736 340.09 142.055 340.51C141.383 340.921 140.585 341.126 139.661 341.126ZM139.661 340.104C140.715 340.104 141.532 339.749 142.111 339.04C142.689 338.331 142.979 337.337 142.979 336.058C142.979 334.779 142.689 333.79 142.111 333.09C141.532 332.381 140.715 332.026 139.661 332.026C138.625 332.026 137.817 332.381 137.239 333.09C136.66 333.79 136.371 334.779 136.371 336.058C136.371 337.327 136.66 338.321 137.239 339.04C137.817 339.749 138.625 340.104 139.661 340.104ZM146.865 341.098C146.455 341.098 146.249 340.888 146.249 340.468V331.76C146.249 331.34 146.459 331.13 146.879 331.13H151.961C152.288 331.13 152.451 331.289 152.451 331.606C152.451 331.933 152.288 332.096 151.961 332.096H147.397V335.54H151.667C152.003 335.54 152.171 335.699 152.171 336.016C152.171 336.343 152.003 336.506 151.667 336.506H147.397V340.468C147.397 340.888 147.22 341.098 146.865 341.098ZM162.163 341.098C161.78 341.098 161.589 340.902 161.589 340.51V338.886H157.571C157.384 338.886 157.235 338.844 157.123 338.76C157.02 338.667 156.969 338.536 156.969 338.368C156.969 338.2 157.076 337.957 157.291 337.64L161.561 331.424C161.729 331.163 161.943 331.032 162.205 331.032C162.354 331.032 162.48 331.083 162.583 331.186C162.695 331.279 162.751 331.424 162.751 331.62V337.906H163.773C164.137 337.906 164.319 338.069 164.319 338.396C164.319 338.723 164.137 338.886 163.773 338.886H162.751V340.51C162.751 340.902 162.555 341.098 162.163 341.098ZM161.589 337.906V332.978L158.215 337.906H161.589Z" fill="white"/>
</svg>
