<svg width="24" height="24" viewBox="0 0 24 24" fill="none" xmlns="http://www.w3.org/2000/svg">
<path d="M17.65 16.3C19.2241 16.3 20.5 17.576 20.5 19.15C20.5 20.724 19.2241 22 17.65 22C16.076 22 14.8 20.724 14.8 19.15C14.8 17.576 16.076 16.3 17.65 16.3Z" fill="#FF8500"/>
<path d="M6.25002 9.64998C7.82404 9.64998 9.10002 10.926 9.10002 12.5C9.10002 14.074 7.82404 15.35 6.25002 15.35C4.67601 15.35 3.40002 14.074 3.40002 12.5C3.40002 10.926 4.67601 9.64998 6.25002 9.64998Z" fill="#FF8500"/>
<path d="M17.65 3.00001C19.2241 3.00001 20.5 4.276 20.5 5.85001C20.5 7.42402 19.2241 8.70001 17.65 8.70001C16.076 8.70001 14.8 7.42402 14.8 5.85001C14.8 4.276 16.076 3.00001 17.65 3.00001Z" fill="#FF8500"/>
<path d="M8.71057 11.0655L15.1991 7.28449" stroke="#FF8500" stroke-width="2" stroke-linecap="round" stroke-linejoin="round"/>
<path d="M15.1896 17.7155L8.71057 13.9345" stroke="#FF8500" stroke-width="2" stroke-linecap="round" stroke-linejoin="round"/>
</svg>
