<svg width="49" height="52" viewBox="0 0 49 52" fill="none" xmlns="http://www.w3.org/2000/svg">
<path d="M42.1831 6.8899C46.7308 11.4706 49.3013 18.1425 48.9717 24.4493C48.6422 30.7893 45.4456 36.7641 40.8649 42.0751C36.2842 47.3861 30.3523 52 24.3875 52C18.4557 51.9668 12.5238 47.3529 7.91017 42.0419C3.32947 36.7309 0.066952 30.7561 0.00104253 24.7149C-0.0648669 18.6404 2.99992 12.4996 7.61358 7.9189C12.1943 3.33819 18.2909 0.284377 24.6512 0.0188285C30.9785 -0.24672 37.6024 2.30919 42.1831 6.8899Z" fill="white"/>
<path d="M28.8633 28.4215C27.9326 29.1441 22.9832 29.4035 21.9821 28.7821C20.4104 31.0407 15.1436 30.1321 15.4176 35.3602L15.5474 37.8372C15.5521 37.9261 15.6313 37.9943 15.7243 37.9894L36.049 36.9242C36.1421 36.9194 36.2137 36.8433 36.2091 36.7544L36.0792 34.2774C35.8053 29.0492 30.6623 30.5034 28.8633 28.4215Z" fill="#3531B3"/>
<path d="M31.9662 16.9302C31.7826 13.4277 28.3301 10.7614 24.2546 10.975C20.1793 11.1885 17.0243 14.201 17.2079 17.7036L17.3939 21.2539C17.5775 24.7564 21.03 27.4227 25.1054 27.2091C29.1809 26.9955 32.3358 23.983 32.1522 20.4805C32.1117 19.7076 32.0067 17.7029 31.9662 16.9302Z" fill="#3531B3"/>
<rect x="18.8208" y="35.6455" width="12.6313" height="7.80172" rx="1" transform="rotate(-8 18.8208 35.6455)" fill="#168BC3"/>
<rect x="20.1313" y="36.962" width="3.34359" height="0.37151" rx="0.185755" transform="rotate(-8 20.1313 36.962)" fill="#095A81"/>
<rect x="20.2349" y="37.6978" width="5.57265" height="0.37151" rx="0.185755" transform="rotate(-8 20.2349 37.6978)" fill="#095A81"/>
<rect x="20.4414" y="39.1693" width="5.57265" height="0.37151" rx="0.185755" transform="rotate(-8 20.4414 39.1693)" fill="#095A81"/>
<rect x="20.6484" y="40.6409" width="5.57265" height="0.37151" rx="0.185755" transform="rotate(-8 20.6484 40.6409)" fill="#095A81"/>
<rect x="20.5449" y="39.9051" width="4.82963" height="0.37151" rx="0.185755" transform="rotate(-8 20.5449 39.9051)" fill="#095A81"/>
<rect x="20.752" y="41.3767" width="4.82963" height="0.37151" rx="0.185755" transform="rotate(-8 20.752 41.3767)" fill="#095A81"/>
<path d="M17.8948 11.3074L12.0161 11.6155L12.3242 17.4943" stroke="#FF8500" stroke-width="2" stroke-linecap="round" stroke-linejoin="round"/>
<path d="M32.1965 31.4734L38.0752 31.1653L37.7671 25.2866" stroke="#FF8500" stroke-width="2" stroke-linecap="round" stroke-linejoin="round"/>
<path d="M12.8013 26.595L13.1094 32.4737L18.9881 32.1656" stroke="#FF8500" stroke-width="2" stroke-linecap="round" stroke-linejoin="round"/>
<path d="M37.29 16.1859L36.9819 10.3071L31.1032 10.6152" stroke="#FF8500" stroke-width="2" stroke-linecap="round" stroke-linejoin="round"/>
</svg>
