<svg width="131" height="107" viewBox="0 0 131 107" fill="none" xmlns="http://www.w3.org/2000/svg">
<path d="M40.08 71.9994C40.9141 72.8055 41.9292 73.0356 42.756 72.1797L42.7699 72.1654C43.4508 71.4605 43.0753 70.597 42.7097 69.896C42.4316 69.3491 42.1622 68.894 42.3706 68.6782L42.3845 68.6638C42.5304 68.5128 42.7782 68.5297 43.0442 68.7869C43.2743 69.0092 43.4788 69.3877 43.6421 69.8375C43.6793 69.943 43.7157 70.006 43.7948 70.0825C44.0393 70.3187 44.4141 70.3194 44.6503 70.0748C44.831 69.8878 44.8692 69.6467 44.7875 69.4147C44.5942 68.8663 44.2814 68.3554 43.8787 67.9662C43.1021 67.2157 42.0455 67.0429 41.2882 67.8268L41.2743 67.8412C40.5517 68.5892 40.9198 69.4316 41.3062 70.1111C41.6054 70.6505 41.9029 71.091 41.6736 71.3284L41.6597 71.3428C41.493 71.5154 41.238 71.4915 40.9216 71.1857C40.6124 70.8869 40.3569 70.4174 40.2125 69.8328C40.1897 69.7412 40.1314 69.6432 40.0523 69.5668C39.8078 69.3305 39.4402 69.3368 39.204 69.5813C39.0373 69.754 39.0057 69.9738 39.0513 70.1569C39.2269 70.9107 39.6054 71.5407 40.08 71.9994Z" fill="white"/>
<path d="M44.1912 76.6891C44.4997 76.8932 44.8658 76.8836 45.2336 76.5994L47.4403 74.8219L46.6598 77.5429C46.5421 77.9926 46.6765 78.3333 46.9851 78.5375L47.0268 78.5651C47.3354 78.7692 47.7097 78.7651 48.1025 78.4614L51.3412 76.0117C51.4048 75.9699 51.4932 75.8725 51.5539 75.7808C51.7691 75.4555 51.7066 75.0424 51.3479 74.8052C51.0143 74.5845 50.6874 74.6799 50.4192 74.8862L48.2071 76.708L48.9987 73.9704C49.1055 73.6094 49.0099 73.2464 48.6847 73.0312L48.6096 72.9815C48.2843 72.7664 47.9129 72.8204 47.6226 73.06L45.427 74.8568L46.2436 72.1357C46.345 71.7831 46.2772 71.4505 45.9519 71.2353C45.5766 70.987 45.1556 71.1161 44.9625 71.408C44.8908 71.5164 44.8414 71.6636 44.8167 71.7552L43.824 75.6308C43.6982 76.1111 43.8409 76.4573 44.1495 76.6615L44.1912 76.6891Z" fill="white"/>
<path d="M54.5124 73.7597C54.3319 74.1609 54.5545 74.5681 54.9923 74.7649C55.4301 74.9618 55.8824 74.8582 56.0628 74.4569L56.071 74.4386C56.2515 74.0373 56.0248 73.6393 55.587 73.4425C55.1492 73.2456 54.701 73.3401 54.5206 73.7414L54.5124 73.7597ZM52.1665 79.1958C51.9943 79.5788 52.1649 80.0284 52.548 80.2006C52.931 80.3729 53.3806 80.2022 53.5528 79.8192L55.1769 76.2075C55.3491 75.8245 55.1785 75.375 54.7955 75.2027C54.4124 75.0304 53.9629 75.2011 53.7906 75.5841L52.1665 79.1958Z" fill="white"/>
<path d="M54.842 82.0963C54.7221 82.4989 54.951 82.9217 55.3535 83.0415C55.7561 83.1614 56.179 82.9325 56.2988 82.53L56.7554 80.9965C56.9778 81.5113 57.3514 82.0086 58.1277 82.2397C59.3449 82.6021 60.746 81.9966 61.2568 80.2811L61.2625 80.2619C61.7734 78.5463 60.9125 77.2676 59.7144 76.9109C58.9573 76.6855 58.3629 76.8946 57.8656 77.2683L57.8855 77.2012C58.0054 76.7987 57.7766 76.3758 57.374 76.256C56.9715 76.1361 56.5486 76.365 56.4287 76.7675L54.842 82.0963ZM58.1221 80.8921C57.4416 80.6895 57.0445 79.9557 57.2985 79.1027L57.3042 79.0836C57.5582 78.2306 58.292 77.8334 58.9725 78.036C59.653 78.2386 60.0597 78.9752 59.8057 79.8282L59.8 79.8474C59.5431 80.71 58.8026 81.0947 58.1221 80.8921Z" fill="white"/>
<path d="M64.4695 80.3081C64.6721 79.6376 65.1336 79.2405 65.759 79.3167C66.3943 79.3941 66.7357 79.8991 66.7427 80.585L64.4695 80.3081ZM67.3049 83.2425C67.4262 83.1565 67.5337 83.0185 67.558 82.82C67.5991 82.4825 67.3825 82.1942 67.045 82.1531C66.8861 82.1337 66.782 82.1613 66.6631 82.2274C66.3276 82.4182 65.9644 82.505 65.5475 82.4542C64.8725 82.3719 64.4396 81.9565 64.3743 81.2535L67.3622 81.6175C67.7592 81.6659 68.1021 81.4155 68.1554 80.9787C68.2898 79.8769 67.6836 78.3222 65.9068 78.1057C64.3582 77.9171 63.1236 79.036 62.9383 80.5547L62.9359 80.5746C62.7373 82.2025 63.7817 83.4681 65.3799 83.6628C66.1541 83.7571 66.7899 83.5827 67.3049 83.2425Z" fill="white"/>
<path d="M75.2373 83.5816C75.5657 83.5496 75.8206 83.4846 76.0887 83.348C76.29 83.248 76.4479 83.0116 76.4218 82.7429C76.388 82.3945 76.0723 82.1439 75.7339 82.1769C75.704 82.1798 75.6054 82.1994 75.5557 82.2043C75.2173 82.2372 75.0515 82.0826 75.0177 81.7342L74.7964 79.4549L75.4633 79.39C75.8216 79.3551 76.0822 79.0383 76.0474 78.68C76.0126 78.3217 75.6959 78.0612 75.3376 78.0961L74.6708 78.161L74.606 77.4941C74.5654 77.0761 74.1942 76.7707 73.7762 76.8114C73.3581 76.8521 73.0526 77.2234 73.0932 77.6415L73.1579 78.3083L73.1082 78.3132C72.7499 78.3481 72.4893 78.6648 72.5241 79.0231C72.5588 79.3815 72.8755 79.642 73.2338 79.6071L73.2836 79.6023L73.529 82.1304C73.6489 83.3646 74.3117 83.6718 75.2373 83.5816Z" fill="white"/>
<path d="M80.8737 82.556C82.4942 82.1526 83.3959 80.64 83.0244 79.1454L83.0196 79.126C82.6481 77.6315 81.1578 76.735 79.5469 77.136C77.9264 77.5394 77.0247 79.052 77.3962 80.5465L77.401 80.566C77.7725 82.0605 79.2628 82.957 80.8737 82.556ZM80.5771 81.2799C79.7619 81.4828 79.0424 80.9509 78.8518 80.1842L78.8469 80.1648C78.6564 79.3981 78.9993 78.6223 79.8436 78.4121C80.6587 78.2092 81.3783 78.7411 81.5688 79.5078L81.5737 79.5272C81.7643 80.2939 81.4213 81.0697 80.5771 81.2799Z" fill="white"/>
<path d="M90.6657 78.7345C91.6946 78.1988 92.2347 77.3088 91.6855 76.2531L91.6763 76.2353C91.224 75.3659 90.2862 75.4484 89.5056 75.573C88.8988 75.6634 88.3819 75.7747 88.2434 75.5086L88.2342 75.4908C88.1372 75.3045 88.2319 75.0749 88.5601 74.904C88.8439 74.7562 89.2676 74.6822 89.7459 74.6699C89.8577 74.6681 89.929 74.6535 90.0266 74.6027C90.3281 74.4457 90.4476 74.0903 90.2907 73.7887C90.1707 73.558 89.9542 73.4453 89.7083 73.4493C89.1271 73.4588 88.5434 73.5936 88.0467 73.8522C87.0888 74.351 86.5898 75.2985 87.0929 76.2655L87.1021 76.2832C87.5821 77.2058 88.4975 77.1238 89.2643 76.9726C89.8707 76.8598 90.3827 76.7172 90.535 77.01L90.5442 77.0277C90.655 77.2406 90.5514 77.4749 90.1612 77.6781C89.7798 77.8767 89.2536 77.9703 88.6535 77.922C88.5595 77.9145 88.4481 77.9387 88.3505 77.9895C88.0489 78.1466 87.9383 78.4973 88.0952 78.7989C88.206 79.0118 88.4044 79.1115 88.5925 79.1263C89.3628 79.1987 90.0803 79.0393 90.6657 78.7345Z" fill="white"/>
<path d="M93.5646 73.176C93.2509 72.5498 93.313 71.9441 93.8195 71.5694C94.334 71.1888 94.9291 71.3208 95.4056 71.8141L93.5646 73.176ZM97.6409 73.3574C97.6698 73.2116 97.653 73.0374 97.5341 72.8766C97.332 72.6032 96.9765 72.5428 96.7031 72.745C96.5745 72.8402 96.5179 72.9318 96.477 73.0615C96.3645 73.4308 96.1604 73.7435 95.8228 73.9933C95.2761 74.3977 94.6762 74.3937 94.1454 73.928L96.5653 72.138C96.8869 71.9001 96.9637 71.4825 96.7022 71.1287C96.0423 70.2361 94.5333 69.5239 93.0943 70.5884C91.8401 71.5161 91.7128 73.1775 92.6223 74.4079L92.6342 74.4239C93.6091 75.7427 95.2375 75.9437 96.5319 74.9862C97.159 74.5224 97.5008 73.9586 97.6409 73.3574Z" fill="white"/>
<path d="M99.667 69.2738C99.2499 68.7112 99.1996 68.1111 99.6407 67.6474C100.082 67.1837 100.691 67.211 101.245 67.6146L99.667 69.2738ZM103.714 68.7487C103.71 68.5931 103.67 68.4314 103.525 68.2935C103.272 68.0522 102.925 68.0538 102.684 68.3074C102.574 68.4233 102.534 68.5233 102.516 68.6582C102.469 69.0414 102.329 69.3773 102.032 69.6889C101.564 70.1816 100.972 70.2812 100.369 69.9142L102.444 67.7333C102.719 67.4435 102.723 67.0189 102.404 66.7156C101.593 65.9435 99.9975 65.5022 98.7569 66.8064C97.6817 67.9367 97.8432 69.5951 98.9516 70.6498L98.9661 70.6636C100.154 71.7942 101.793 71.711 102.902 70.5444C103.447 69.972 103.679 69.3649 103.714 68.7487Z" fill="white"/>
<path d="M107.524 64.3536C107.889 64.5609 108.353 64.4331 108.56 64.0678C108.768 63.7026 108.64 63.239 108.275 63.0317L106.883 62.2417C107.435 62.141 108.003 61.8888 108.403 61.1844C109.03 60.0799 108.755 58.5785 107.199 57.6948L107.181 57.6849C105.625 56.8012 104.185 57.3523 103.568 58.4394C103.178 59.1264 103.248 59.7526 103.5 60.3212L103.439 60.2867C103.074 60.0793 102.611 60.2071 102.403 60.5724C102.196 60.9377 102.324 61.4012 102.689 61.6086L107.524 64.3536ZM107.089 60.8867C106.738 61.5041 105.934 61.7259 105.16 61.2865L105.143 61.2767C104.369 60.8373 104.147 60.0329 104.497 59.4154C104.848 58.7979 105.657 58.5674 106.431 59.0068L106.448 59.0167C107.231 59.461 107.439 60.2692 107.089 60.8867Z" fill="white"/>
<path d="M112.22 55.1339C112.784 53.5621 112.027 51.9727 110.577 51.4525L110.559 51.4457C109.1 50.922 107.532 51.6769 106.975 53.2299C106.411 54.8017 107.168 56.3911 108.618 56.9113L108.636 56.9181C110.095 57.4418 111.663 56.6869 112.22 55.1339ZM110.994 54.6725C110.71 55.4631 109.868 55.7665 109.124 55.4996L109.106 55.4928C108.353 55.2225 107.907 54.5101 108.201 53.6913C108.485 52.9007 109.327 52.5973 110.071 52.8642L110.089 52.871C110.842 53.1413 111.288 53.8537 110.994 54.6725Z" fill="white"/>
<path d="M113.126 47.7888C113.29 46.9241 113.121 46.312 112.802 45.7937C112.708 45.6437 112.567 45.5255 112.371 45.4884C112.017 45.4215 111.68 45.6428 111.613 45.9965C111.58 46.1734 111.63 46.3356 111.675 46.4254C111.847 46.7531 111.927 47.0837 111.852 47.4767C111.698 48.2922 110.951 48.6904 110.145 48.5381L110.126 48.5344C109.349 48.3877 108.791 47.7327 108.933 46.9859C109.007 46.5929 109.187 46.3419 109.443 46.1156C109.529 46.0402 109.635 45.9077 109.672 45.7111C109.743 45.3378 109.506 44.9775 109.132 44.9069C108.877 44.8586 108.674 44.9627 108.577 45.0461C108.12 45.4177 107.798 45.9369 107.647 46.7328C107.342 48.3442 108.363 49.7279 109.866 50.012L109.886 50.0157C111.389 50.2999 112.827 49.3707 113.126 47.7888Z" fill="white"/>
<path d="M112.845 44.0968C113.265 44.1141 113.619 43.7884 113.636 43.3688C113.654 42.9491 113.328 42.5954 112.908 42.5781L112.039 42.5422L111.515 41.9101L113.398 40.6567C113.656 40.4871 113.763 40.3114 113.776 40.0117C113.791 39.632 113.525 39.2907 113.116 39.2738C112.946 39.2668 112.803 39.321 112.618 39.4435L110.63 40.7926L109.651 39.5512C109.46 39.3331 109.266 39.185 109.006 39.1743C108.656 39.1598 108.316 39.406 108.299 39.8157C108.288 40.0854 108.41 40.2706 108.611 40.4991L110.331 42.4717L107.013 42.3348C106.594 42.3175 106.24 42.6431 106.223 43.0628C106.205 43.4824 106.531 43.8362 106.95 43.8535L112.845 44.0968Z" fill="white"/>
<path d="M110.381 36.1423C109.682 36.1025 109.188 35.747 109.115 35.1212C109.042 34.4854 109.453 34.0351 110.118 33.8674L110.381 36.1423ZM112.57 32.6975C112.458 32.5997 112.299 32.5276 112.1 32.5506C111.762 32.5897 111.533 32.868 111.572 33.2057C111.59 33.3647 111.641 33.4594 111.733 33.5595C111.997 33.841 112.167 34.1737 112.215 34.5909C112.293 35.2664 111.99 35.7847 111.322 36.0131L110.977 33.023C110.931 32.6256 110.607 32.3511 110.17 32.4017C109.067 32.5295 107.698 33.4834 107.903 35.2616C108.082 36.8113 109.459 37.7491 110.979 37.573L110.999 37.5707C112.628 37.3819 113.614 36.0697 113.429 34.4704C113.34 33.6955 113.021 33.1183 112.57 32.6975Z" fill="white"/>
<path d="M112.044 27.9576C111.958 27.6388 111.852 27.3981 111.674 27.1562C111.542 26.9741 111.283 26.8574 111.022 26.9274C110.684 27.0182 110.489 27.371 110.577 27.6994C110.585 27.7284 110.62 27.8223 110.633 27.8706C110.721 28.199 110.596 28.388 110.258 28.4788L108.046 29.073L107.873 28.4259C107.779 28.0782 107.424 27.8734 107.077 27.9668C106.729 28.0602 106.524 28.4156 106.617 28.7633L106.791 29.4104L106.144 29.5842C105.738 29.6932 105.498 30.1098 105.607 30.5155C105.716 30.9211 106.132 31.1613 106.538 31.0523L107.185 30.8784L107.198 30.9267C107.291 31.2744 107.646 31.4793 107.994 31.3859C108.342 31.2924 108.547 30.9371 108.453 30.5894L108.44 30.5411L110.893 29.882C112.091 29.5603 112.285 28.8558 112.044 27.9576Z" fill="white"/>
<path d="M110.175 22.7547C109.727 21.6847 108.886 21.0725 107.788 21.5325L107.77 21.5402C106.866 21.919 106.87 22.8607 106.929 23.6491C106.969 24.2614 107.036 24.7859 106.76 24.9019L106.741 24.9096C106.548 24.9908 106.327 24.8774 106.184 24.5361C106.06 24.2409 106.022 23.8125 106.049 23.3347C106.057 23.2231 106.048 23.1508 106.006 23.0494C105.874 22.7357 105.53 22.5872 105.217 22.7186C104.977 22.8191 104.847 23.0256 104.83 23.271C104.791 23.8512 104.877 24.4442 105.093 24.9607C105.51 25.9569 106.413 26.5328 107.418 26.1115L107.436 26.1037C108.396 25.7017 108.39 24.7824 108.303 24.0056C108.241 23.3918 108.142 22.8696 108.446 22.742L108.465 22.7343C108.686 22.6415 108.911 22.7642 109.081 23.17C109.247 23.5667 109.296 24.0989 109.198 24.693C109.183 24.7862 109.198 24.8992 109.24 25.0007C109.372 25.3143 109.712 25.4536 110.026 25.3222C110.247 25.2294 110.363 25.0399 110.393 24.8537C110.529 24.0918 110.43 23.3634 110.175 22.7547Z" fill="white"/>
<path d="M14 72.9814C19.6667 83.1481 40.1 103.481 72.5 103.481C104.9 103.481 131 77.9814 137.5 65.4814" stroke="#FFB70A" stroke-width="6" stroke-linecap="round"/>
<circle cx="8" cy="62.4814" r="3" fill="#FFB70A"/>
<circle cx="3" cy="54.4814" r="3" fill="#FFB70A"/>
<g filter="url(#filter0_d_1_6557)">
<circle cx="70" cy="39.4814" r="32" fill="#FF8500"/>
</g>
<mask id="mask0_1_6557" style="mask-type:alpha" maskUnits="userSpaceOnUse" x="38" y="7" width="64" height="65">
<circle cx="70" cy="39.4814" r="32" fill="white"/>
</mask>
<g mask="url(#mask0_1_6557)">
<rect x="34" y="2.48145" width="41.9344" height="68.25" fill="#FFB70A"/>
<rect x="34" y="28.4814" width="42" height="44" fill="#540A7F"/>
<path d="M39.7659 40.8062H73.3134" stroke="white" stroke-width="1.05" stroke-linecap="round" stroke-linejoin="round"/>
<path fill-rule="evenodd" clip-rule="evenodd" d="M57 47.9189C57.8661 50.1263 59.3195 52.9742 61.6524 55.4476C64.522 58.49 68.1246 60.332 70.4306 61.2878L87.5047 46.9385C88.3916 46.1931 88.5074 44.8703 87.7634 43.9822L78.3388 32.7329C77.5932 31.8429 76.2668 31.7268 75.378 32.4738L57 47.9189Z" fill="#0EAE3D"/>
<path d="M60.8153 47.5222L60.4964 47.1371L60.2279 47.3595L60.3437 47.6883L60.8153 47.5222ZM64.1944 53.1503L63.8333 53.496L64.1944 53.1503ZM70.7405 58.1033L70.5071 58.5454L70.8023 58.7013L71.0594 58.4884L70.7405 58.1033ZM84.1845 46.9711L84.5034 47.3562L84.1845 46.9711ZM84.4412 44.0365L84.0603 44.3604L84.4412 44.0365ZM77.7813 36.2041L78.1622 35.8802V35.8802L77.7813 36.2041ZM74.799 35.9432L74.4801 35.5581V35.5581L74.799 35.9432ZM60.3437 47.6883C60.9458 49.3984 62.0039 51.5851 63.8333 53.496L64.5556 52.8045C62.8541 51.027 61.8584 48.9791 61.287 47.3562L60.3437 47.6883ZM63.8333 53.496C66.4134 56.1913 69.1403 57.8238 70.5071 58.5454L70.974 57.6611C69.665 56.97 67.0372 55.3968 64.5556 52.8045L63.8333 53.496ZM83.8656 46.586L70.4216 57.7182L71.0594 58.4884L84.5034 47.3562L83.8656 46.586ZM84.0603 44.3604C84.6302 45.0306 84.5433 46.0248 83.8656 46.586L84.5034 47.3562C85.6104 46.4396 85.7531 44.8075 84.8221 43.7126L84.0603 44.3604ZM77.4004 36.528L84.0603 44.3604L84.8221 43.7126L78.1622 35.8802L77.4004 36.528ZM75.1179 36.3283C75.8014 35.7623 76.8255 35.8519 77.4004 36.528L78.1622 35.8802C77.2329 34.7873 75.5851 34.6431 74.4801 35.5581L75.1179 36.3283ZM61.1342 47.9073L75.1179 36.3283L74.4801 35.5581L60.4964 47.1371L61.1342 47.9073Z" fill="white" fill-opacity="0.2"/>
<path d="M56.4729 44.7285C56.4729 44.7285 57.6452 51.0523 62.2208 55.9216C66.7965 60.7908 73.2466 62.5785 73.2466 62.5785" stroke="white" stroke-width="1.05" stroke-linecap="round" stroke-linejoin="round"/>
<path d="M54.3762 46.8291C54.3762 46.8291 55.5484 53.1529 60.1241 58.0221C64.6997 62.8914 71.1499 64.6791 71.1499 64.6791" stroke="white" stroke-width="1.05" stroke-linecap="round" stroke-linejoin="round" stroke-dasharray="1.05 4.2"/>
<path d="M72.1514 49.5476C72.3168 49.7446 72.5916 49.7635 72.7887 49.5981C72.9858 49.4328 73.0093 49.1635 72.844 48.9665L71.9557 47.908L72.8285 47.1757L74.8109 47.5943C74.9851 47.6304 75.1422 47.6233 75.2999 47.491C75.4744 47.3445 75.5281 47.0884 75.3628 46.8913C75.273 46.7843 75.1665 46.7489 75.0281 46.7212L73.4752 46.4027C73.8627 45.7897 73.9169 45.111 73.383 44.4748L73.3736 44.4635C73.0854 44.12 72.7262 43.9321 72.3336 43.8873C71.8723 43.8522 71.361 44.0318 70.8655 44.4475L69.4579 45.6287C69.2609 45.794 69.2364 46.0736 69.4018 46.2707L72.1514 49.5476ZM71.4408 47.2942L70.3305 45.9711L71.3384 45.1254C71.8564 44.6907 72.3438 44.6656 72.7028 45.0935L72.7123 45.1047C73.0524 45.5101 72.9497 46.0281 72.4543 46.4438L71.4408 47.2942ZM76.9021 47.106C77.0674 47.3031 77.3376 47.3163 77.5234 47.1604C77.7204 46.995 77.7487 46.7314 77.5834 46.5344L76.6999 45.4815C77.1397 45.5826 77.6573 45.5705 78.1527 45.1547C78.8565 44.5642 79.0692 43.4454 78.2377 42.4545L78.2282 42.4432C77.3967 41.4523 76.2524 41.4721 75.5543 42.058C75.0644 42.469 74.9683 42.9719 75.0085 43.4658L74.8526 43.28C74.6873 43.0829 74.418 43.0594 74.221 43.2247C74.0239 43.3901 74.006 43.6546 74.1713 43.8517L76.9021 47.106ZM77.4934 44.7005C77.0261 45.0927 76.305 45.0452 75.8279 44.4766L75.8184 44.4653C75.3412 43.8966 75.4197 43.1783 75.8871 42.7862C76.3544 42.3941 77.0538 42.45 77.5357 43.0243L77.5451 43.0356C78.0365 43.6212 77.9607 44.3084 77.4934 44.7005Z" fill="white"/>
</g>
<defs>
<filter id="filter0_d_1_6557" x="34" y="7.48145" width="72" height="74" filterUnits="userSpaceOnUse" color-interpolation-filters="sRGB">
<feFlood flood-opacity="0" result="BackgroundImageFix"/>
<feColorMatrix in="SourceAlpha" type="matrix" values="0 0 0 0 0 0 0 0 0 0 0 0 0 0 0 0 0 0 127 0" result="hardAlpha"/>
<feOffset dy="6"/>
<feGaussianBlur stdDeviation="2"/>
<feColorMatrix type="matrix" values="0 0 0 0 0 0 0 0 0 0 0 0 0 0 0 0 0 0 0.1 0"/>
<feBlend mode="normal" in2="BackgroundImageFix" result="effect1_dropShadow_1_6557"/>
<feBlend mode="normal" in="SourceGraphic" in2="effect1_dropShadow_1_6557" result="shape"/>
</filter>
</defs>
</svg>
