<svg width="24" height="25" viewBox="0 0 24 25" fill="none" xmlns="http://www.w3.org/2000/svg">
<path d="M17.6498 17.2967C19.2238 17.2967 20.4998 18.5727 20.4998 20.1467C20.4998 21.7207 19.2238 22.9967 17.6498 22.9967C16.0758 22.9967 14.7998 21.7207 14.7998 20.1467C14.7998 18.5727 16.0758 17.2967 17.6498 17.2967Z" fill="white"/>
<path d="M6.2499 10.6467C7.82391 10.6467 9.0999 11.9227 9.0999 13.4967C9.0999 15.0707 7.82391 16.3467 6.2499 16.3467C4.67589 16.3467 3.3999 15.0707 3.3999 13.4967C3.3999 11.9227 4.67589 10.6467 6.2499 10.6467Z" fill="white"/>
<path d="M17.6498 3.99666C19.2238 3.99666 20.4998 5.27264 20.4998 6.84665C20.4998 8.42067 19.2238 9.69665 17.6498 9.69666C16.0758 9.69666 14.7998 8.42067 14.7998 6.84666C14.7998 5.27264 16.0758 3.99666 17.6498 3.99666Z" fill="white"/>
<path d="M8.71045 12.0623L15.1989 8.28126" stroke="white" stroke-width="2" stroke-linecap="round" stroke-linejoin="round"/>
<path d="M15.1894 18.7122L8.71045 14.9312" stroke="white" stroke-width="2" stroke-linecap="round" stroke-linejoin="round"/>
</svg>
