<svg width="119" height="119" viewBox="0 0 119 119" fill="none" xmlns="http://www.w3.org/2000/svg">
<g filter="url(#filter0_d_38_11775)">
<path d="M79.4769 32.7986C85.5629 37.9167 89.9101 44.9652 92.6099 53.2259C95.2639 61.5315 96.2706 71.0942 92.6556 78.8161C89.0406 86.583 80.8497 92.5092 72.2468 94.3499C63.5983 96.1906 54.4921 93.9009 46.6215 90.2644C38.7508 86.6279 32.1157 81.5996 27.2194 74.8654C22.2774 68.0862 19.12 59.5561 20.2182 51.5199C21.3622 43.4837 26.7618 35.9413 33.763 31.0028C40.7185 26.0194 49.2755 23.64 57.4207 24.0441C65.6117 24.493 73.3908 27.6806 79.4769 32.7986Z" fill="white"/>
</g>
<path d="M73.018 42.941L67.0144 37.7221C66.8033 37.5386 66.5279 37.4464 66.2489 37.4659L38.0521 39.4377C37.4711 39.4783 37.0329 39.9823 37.0736 40.5633L39.4377 74.3714C39.4783 74.9525 39.9823 75.3906 40.5634 75.35L74.3714 72.9859C74.9525 72.9452 75.3906 72.4412 75.35 71.8602L73.3783 43.6634C73.3587 43.3844 73.2291 43.1246 73.018 42.941Z" fill="#3531B3"/>
<path d="M66.7007 54.417L45.5758 55.8942C44.9924 55.9349 44.5526 56.4409 44.5934 57.0243L45.849 74.9804L69.0864 73.3555L67.8308 55.3993C67.79 54.816 67.284 54.3762 66.7007 54.417Z" fill="#FFB70A"/>
<path fill-rule="evenodd" clip-rule="evenodd" d="M66.5751 37.4432L66.5753 37.4432L67.3116 47.9726C67.3536 48.5742 66.8097 49.1023 66.0968 49.1522L66.0966 49.1522L58.3508 49.6938L45.4413 50.5965C44.7284 50.6464 44.1162 50.1991 44.0742 49.5976L43.3379 39.0681L57.5383 38.0751L66.5751 37.4432Z" fill="#030062"/>
<path fill-rule="evenodd" clip-rule="evenodd" d="M50.2715 61.984L56.5842 61.5426L62.8969 61.1012C63.478 61.0605 63.9161 60.5565 63.8755 59.9755C63.8349 59.3944 63.3309 58.9563 62.7498 58.9969L56.4371 59.4384L50.1244 59.8798C49.5433 59.9204 49.1052 60.4244 49.1458 61.0055C49.1865 61.5865 49.6905 62.0247 50.2715 61.984ZM50.8601 70.401L57.1728 69.9596L63.4855 69.5181C64.0666 69.4775 64.5047 68.9735 64.4641 68.3924C64.4234 67.8114 63.9194 67.3733 63.3384 67.4139L57.0257 67.8553L50.713 68.2967C50.1319 68.3374 49.6938 68.8414 49.7344 69.4224C49.775 70.0035 50.279 70.4416 50.8601 70.401ZM56.8785 65.7511L50.5658 66.1925C49.9848 66.2331 49.4808 65.795 49.4401 65.214C49.3995 64.6329 49.8376 64.1289 50.4187 64.0883L56.7314 63.6468L63.0441 63.2054C63.6251 63.1648 64.1291 63.6029 64.1698 64.184C64.2104 64.765 63.7723 65.269 63.1912 65.3097L56.8785 65.7511Z" fill="#FF8500"/>
<circle cx="75" cy="70" r="11" fill="#540A7F"/>
<path d="M80.3031 66.6525C80.4666 66.8871 80.7821 66.9724 81.0291 66.8283C81.2758 66.6844 81.3606 66.3662 81.2001 66.13C79.1661 63.1363 75.2161 62.0516 71.9146 63.6567V62.9019C71.9146 62.6161 71.683 62.3845 71.3972 62.3845C71.1115 62.3845 70.8799 62.6161 70.8799 62.9019V64.4886C70.8799 65.0409 71.3276 65.4886 71.8799 65.4886H73.4666C73.7524 65.4886 73.984 65.257 73.984 64.9713C73.984 64.6855 73.7524 64.4539 73.4666 64.4539H72.6622C75.4287 63.2804 78.612 64.225 80.3031 66.6525Z" fill="white"/>
<path d="M71.139 75.1505C68.8751 73.3119 68.1855 70.1795 69.4094 67.5807C69.5311 67.3223 69.4482 67.0068 69.2008 66.8641C68.9528 66.7211 68.6338 66.8061 68.509 67.0637C67.0659 70.0418 67.7919 73.6509 70.3346 75.8355H69.587C69.3013 75.8355 69.0696 76.0672 69.0696 76.3529C69.0696 76.6386 69.3013 76.8702 69.587 76.8702H71.1737C71.726 76.8702 72.1737 76.4225 72.1737 75.8702V74.2835C72.1737 73.9978 71.9421 73.7661 71.6564 73.7661C71.3707 73.7661 71.139 73.9978 71.139 74.2835V75.1505Z" fill="white"/>
<path d="M82.6914 69.5937C82.3008 69.2031 81.6676 69.2031 81.2771 69.5937L80.1553 70.7158C79.9533 70.9178 79.9533 71.2453 80.1553 71.4473C80.3574 71.6494 80.6849 71.6494 80.8869 71.4473L81.4006 70.9336C81.0742 73.9664 78.6385 76.3075 75.6465 76.5583C75.3623 76.5821 75.1309 76.8113 75.1309 77.0964C75.1309 77.3827 75.3641 77.6165 75.6496 77.5958C79.2551 77.3342 82.1712 74.467 82.4451 70.8105L83.082 71.4474C83.284 71.6494 83.6115 71.6494 83.8135 71.4474C84.0155 71.2453 84.0155 70.9178 83.8135 70.7158L82.6914 69.5937Z" fill="white"/>
<defs>
<filter id="filter0_d_38_11775" x="-4" y="0" width="123" height="119" filterUnits="userSpaceOnUse" color-interpolation-filters="sRGB">
<feFlood flood-opacity="0" result="BackgroundImageFix"/>
<feColorMatrix in="SourceAlpha" type="matrix" values="0 0 0 0 0 0 0 0 0 0 0 0 0 0 0 0 0 0 127 0" result="hardAlpha"/>
<feOffset/>
<feGaussianBlur stdDeviation="12"/>
<feColorMatrix type="matrix" values="0 0 0 0 0 0 0 0 0 0 0 0 0 0 0 0 0 0 0.3 0"/>
<feBlend mode="normal" in2="BackgroundImageFix" result="effect1_dropShadow_38_11775"/>
<feBlend mode="normal" in="SourceGraphic" in2="effect1_dropShadow_38_11775" result="shape"/>
</filter>
</defs>
</svg>
