<svg width="60" height="60" viewBox="0 0 60 60" fill="none" xmlns="http://www.w3.org/2000/svg">
<circle cx="30" cy="30" r="30" fill="white"/>
<path d="M47.7547 34.6929C48.3753 34.8718 48.7696 35.2848 49.0002 35.8678C49.0002 36.0887 49.0002 36.3096 49.0002 36.5304C48.6504 37.437 47.9452 37.7308 47.0194 37.7087C45.9232 37.6833 44.8259 37.7021 43.7285 37.7021C44.1184 36.7027 44.1207 35.7022 43.733 34.7017C45.0732 34.6984 46.4145 34.6951 47.7547 34.6929Z" fill="#3531B3"/>
<path d="M24.1571 34.6982C28.3582 34.6993 32.5604 34.7005 36.7615 34.7016C36.385 35.7009 36.3805 36.6992 36.7682 37.6964C33.0183 37.6986 29.2695 37.6997 25.5196 37.7019C25.0628 37.7019 24.6072 37.7041 24.1504 37.7052C24.5537 36.7047 24.5537 35.702 24.1571 34.6982Z" fill="#3531B3"/>
<path d="M17.2181 34.6974C16.26 34.6918 15.3008 34.6863 14.3427 34.6797C14.2937 34.6874 14.2436 34.6963 14.1945 34.704C13.603 34.6974 13.0103 34.6896 12.4187 34.683C12.2873 34.7106 12.1525 34.7294 12.0243 34.768C11.376 34.9646 10.9548 35.6128 11.0039 36.3273C11.0484 36.9623 11.5999 37.531 12.2382 37.6436C12.7897 37.7408 13.3412 37.6878 13.8926 37.6955C15.0022 37.6988 16.1118 37.7021 17.2225 37.7055C16.8193 36.7039 16.8193 35.7012 17.2181 34.6974Z" fill="#3531B3"/>
<path d="M31.6845 30.9404C31.3881 30.9404 31.0918 30.9448 30.7954 30.9393C30.4189 30.9315 30.1749 30.7195 30.1671 30.4037C30.1604 30.1143 30.4423 29.8438 30.781 29.8405C31.3859 29.8327 31.9919 29.8305 32.5969 29.8416C32.9612 29.8482 33.1896 30.079 33.1918 30.4103C33.194 30.7239 32.9511 30.9326 32.5746 30.9415C32.5623 30.9415 32.5501 30.9415 32.5378 30.9415C32.2526 30.9404 31.9685 30.9404 31.6845 30.9404Z" fill="white"/>
<path d="M14.7832 32.7016C14.8088 32.6807 14.8356 32.6586 14.8612 32.6377C14.8344 32.6586 14.8088 32.6796 14.7832 32.7016Z" fill="#E09528"/>
<path d="M20.6845 39.9996C22.7863 39.9996 24.4902 38.3107 24.4902 36.2274C24.4902 34.144 22.7863 32.4551 20.6845 32.4551C18.5827 32.4551 16.8789 34.144 16.8789 36.2274C16.8789 38.3107 18.5827 39.9996 20.6845 39.9996Z" fill="#333333"/>
<path d="M20.6845 37.897C21.6148 37.897 22.3689 37.1495 22.3689 36.2273C22.3689 35.3052 21.6148 34.5576 20.6845 34.5576C19.7542 34.5576 19 35.3052 19 36.2273C19 37.1495 19.7542 37.897 20.6845 37.897Z" fill="white" fill-opacity="0.5"/>
<path d="M40.2724 40.0001C42.3742 40.0001 44.0781 38.3112 44.0781 36.2278C44.0781 34.1445 42.3742 32.4556 40.2724 32.4556C38.1706 32.4556 36.4668 34.1445 36.4668 36.2278C36.4668 38.3112 38.1706 40.0001 40.2724 40.0001Z" fill="#333333"/>
<path d="M40.2723 37.8975C41.2026 37.8975 41.9568 37.1499 41.9568 36.2278C41.9568 35.3057 41.2026 34.5581 40.2723 34.5581C39.342 34.5581 38.5879 35.3057 38.5879 36.2278C38.5879 37.1499 39.342 37.8975 40.2723 37.8975Z" fill="white" fill-opacity="0.5"/>
<path d="M47.7437 32.8167C47.6768 30.4148 45.969 28.3156 43.6072 27.7954C43.1693 27.6994 42.9956 27.4918 42.8184 27.1251C40.7463 22.8117 37.3027 20.3227 32.4978 20.0278C27.7073 19.7341 23.9919 21.7748 21.3861 25.7801C21.004 26.3676 20.7556 27.0224 20.4258 27.6364C18.4239 27.6243 16.6815 28.3045 15.1563 29.5711C15.1563 29.5711 13.5231 30.7638 13.0062 32.4843C12.6853 33.1844 12.5127 33.9243 12.418 34.684C13.0095 34.6907 13.6022 34.6984 14.1938 34.705C14.2428 34.6973 14.2929 34.6884 14.3419 34.6807C15.3 34.6862 16.2592 34.6918 17.2173 34.6984C17.7811 33.5565 18.6667 32.7968 19.9312 32.5307C20.5205 32.407 21.1255 32.3761 21.7037 32.6278C22.6584 32.8564 23.3547 33.4307 23.8816 34.2291C23.9819 34.3804 24.0666 34.5427 24.1579 34.6995C28.359 34.7006 32.5613 34.7017 36.7624 34.7028C37.1 34.1352 37.4509 33.5797 38.0124 33.1932C39.0161 32.5008 40.0934 32.2402 41.2844 32.6322C42.2425 32.8752 42.9477 33.4494 43.4679 34.2655C43.5593 34.4091 43.6451 34.557 43.7331 34.7028C45.0733 34.7006 46.4135 34.6973 47.7548 34.6951C47.7515 34.0667 47.7615 33.4417 47.7437 32.8167ZM32.5735 30.9405C32.5613 30.9405 32.549 30.9405 32.5368 30.9405C32.2527 30.9405 31.9686 30.9405 31.6845 30.9405C31.3882 30.9405 31.0918 30.9449 30.7955 30.9394C30.4189 30.9316 30.175 30.7196 30.1672 30.4038C30.1605 30.1145 30.4423 29.8439 30.781 29.8406C31.3859 29.8329 31.992 29.8307 32.5969 29.8417C32.9612 29.8483 33.1896 30.0791 33.1918 30.4104C33.1918 30.7229 32.949 30.9316 32.5735 30.9405Z" fill="#FF8500"/>
<path d="M39.6902 27.6364C40.2606 27.6364 40.645 27.0611 40.4266 26.5376C39.2368 23.6885 35.8044 21.6279 31.7537 21.6279C27.703 21.6279 24.2705 23.6874 23.0807 26.5376C22.8624 27.0611 23.2456 27.6364 23.8171 27.6364H39.6902Z" fill="#168BC3"/>
<path d="M16.4297 31.3497C16.7158 30.723 16.6156 30.0659 16.2059 29.8821C15.7961 29.6983 15.232 30.0573 14.9459 30.6841C14.6597 31.3108 14.7599 31.9679 15.1696 32.1517C15.5794 32.3355 16.1435 31.9764 16.4297 31.3497Z" fill="white"/>
</svg>
