<svg width="113" height="109" viewBox="0 0 113 109" fill="none" xmlns="http://www.w3.org/2000/svg">
<g filter="url(#filter0_d_1_2364)">
<path d="M75.4089 31.6846C80.6255 36.0715 84.3516 42.1131 86.6657 49.1937C88.9407 56.3127 89.8035 64.5093 86.705 71.1282C83.6064 77.7855 76.5856 82.865 69.2117 84.4428C61.7987 86.0205 53.9934 84.058 47.2471 80.941C40.5008 77.8239 34.8136 73.514 30.6168 67.7418C26.3807 61.9311 23.6744 54.6196 24.6157 47.7314C25.5963 40.8432 30.2246 34.3783 36.2256 30.1453C42.1874 25.8738 49.522 23.8343 56.5036 24.1806C63.5245 24.5655 70.1923 27.2977 75.4089 31.6846Z" fill="white"/>
</g>
<path d="M55.9959 35.2121C55.9959 37.5382 54.1102 39.4241 51.7838 39.4241C49.4577 39.4241 47.5718 37.5382 47.5718 35.2121C47.5718 32.8859 49.4577 31 51.7838 31C54.1102 31 55.9959 32.8859 55.9959 35.2121Z" fill="#FFB70A"/>
<path d="M53.7831 35.2121C53.7831 36.3161 52.888 37.2109 51.784 37.2109C50.68 37.2109 49.7852 36.3161 49.7852 35.2121C49.7852 34.1081 50.68 33.213 51.784 33.213C52.888 33.213 53.7831 34.1081 53.7831 35.2121Z" fill="#FF8500"/>
<path opacity="0.4" d="M68.7056 48.3308L55.1728 58.2475L39.8574 51.3982C40.0444 45.4566 43.8321 46.5253 43.3409 41.9056L53.0642 38.4163L63.3039 39.783C63.7951 44.4028 67.2738 42.5614 68.7056 48.3308Z" fill="#168BC3"/>
<path opacity="0.4" d="M70.1585 65.1318C69.9595 66.3287 69.5721 67.4196 68.9254 68.5375C68.2384 69.7247 67.025 70.5122 65.661 70.6572L47.5291 72.5851C46.165 72.7301 44.8131 72.2154 43.8918 71.1992C43.0246 70.2423 42.4164 69.2572 41.9699 68.129L55.1729 58.2474L70.1585 65.1318Z" fill="#168BC3"/>
<path d="M63.0629 34.897L42.5488 37.0782C41.6816 37.1704 41.0533 37.9482 41.1454 38.8151L41.328 40.5322C41.4202 41.3994 42.198 42.0274 43.0653 41.9352L63.579 39.754C64.4462 39.6618 65.0745 38.884 64.9824 38.0171L64.7998 36.3C64.7076 35.4331 63.9298 34.8048 63.0629 34.897Z" fill="#3531B3"/>
<path d="M70.1583 65.1319L41.9698 68.129C40.7801 65.1278 40.7309 61.1215 39.9725 53.9885C39.8672 52.998 39.8339 52.1428 39.8573 51.3981L68.7055 48.3308C68.8849 49.0539 69.0322 49.897 69.1376 50.8875C69.896 58.0205 70.6904 61.9475 70.1583 65.1319Z" fill="#3531B3"/>
<path d="M81.71 54.9264C81.71 58.6726 78.6732 61.7099 74.9265 61.7099C71.1803 61.7099 68.1431 58.6726 68.1431 54.9264C68.1431 51.1801 71.1803 48.1429 74.9265 48.1429C78.6732 48.1429 81.71 51.1801 81.71 54.9264Z" fill="#FFB70A"/>
<path d="M78.1462 54.9264C78.1462 56.7044 76.7046 58.1455 74.9266 58.1455C73.1486 58.1455 71.7075 56.7044 71.7075 54.9264C71.7075 53.1484 73.1486 51.7068 74.9266 51.7068C76.7046 51.7068 78.1462 53.1484 78.1462 54.9264Z" fill="#FF8500"/>
<path d="M72.5761 68.7879C72.5761 71.6688 70.2408 74.0044 67.3596 74.0044C64.4787 74.0044 62.1431 71.6688 62.1431 68.7879C62.1431 65.9071 64.4787 63.5714 67.3596 63.5714C70.2408 63.5714 72.5761 65.9071 72.5761 68.7879Z" fill="#FFB70A"/>
<path d="M69.8351 68.788C69.8351 70.1552 68.7266 71.2635 67.3593 71.2635C65.992 71.2635 64.8838 70.1552 64.8838 68.788C64.8838 67.4207 65.992 66.3121 67.3593 66.3121C68.7266 66.3121 69.8351 67.4207 69.8351 68.788Z" fill="#FF8500"/>
<defs>
<filter id="filter0_d_1_2364" x="0.428711" y="0.142883" width="112.286" height="108.857" filterUnits="userSpaceOnUse" color-interpolation-filters="sRGB">
<feFlood flood-opacity="0" result="BackgroundImageFix"/>
<feColorMatrix in="SourceAlpha" type="matrix" values="0 0 0 0 0 0 0 0 0 0 0 0 0 0 0 0 0 0 127 0" result="hardAlpha"/>
<feOffset/>
<feGaussianBlur stdDeviation="12"/>
<feColorMatrix type="matrix" values="0 0 0 0 0 0 0 0 0 0 0 0 0 0 0 0 0 0 0.3 0"/>
<feBlend mode="normal" in2="BackgroundImageFix" result="effect1_dropShadow_1_2364"/>
<feBlend mode="normal" in="SourceGraphic" in2="effect1_dropShadow_1_2364" result="shape"/>
</filter>
</defs>
</svg>
