<svg width="60" height="60" viewBox="0 0 60 60" fill="none" xmlns="http://www.w3.org/2000/svg">
<circle cx="30" cy="30" r="30" fill="white"/>
<rect x="37.5" y="27" width="5" height="15" fill="#534ED9"/>
<rect x="18" y="27" width="19" height="15" fill="#3531B3"/>
<path d="M42.4447 23.6958H33.4632L36.6525 18.4628C36.929 18.0092 36.7853 17.4172 36.3317 17.1407C35.878 16.8641 35.286 17.0078 35.0095 17.4615L31.2101 23.6958H28.8425L25.0431 17.4615C24.7666 17.008 24.1746 16.8643 23.721 17.1407C23.2673 17.4173 23.1236 18.0092 23.4002 18.4628L26.5894 23.6958H17.6077C16.4455 23.6958 15.5 24.6413 15.5 25.8034V43.201C15.5 44.3632 16.4455 45.3087 17.6077 45.3087H42.4448C43.607 45.3087 44.5526 44.3632 44.5526 43.201V25.8034C44.5525 24.6413 43.607 23.6958 42.4447 23.6958ZM35.8737 40.6725C35.8737 41.3052 35.3608 41.8182 34.728 41.8182H20.0655C19.4328 41.8182 18.9199 41.3052 18.9199 40.6725V28.332C18.9199 27.6993 19.4328 27.1863 20.0656 27.1863H34.728C35.3607 27.1863 35.8737 27.6993 35.8737 28.332V40.6725ZM40.1139 40.3063C39.0177 40.3063 38.1258 39.4144 38.1258 38.3182C38.1258 37.2219 39.0177 36.3301 40.1139 36.3301C41.2102 36.3301 42.1021 37.2219 42.1021 38.3182C42.1021 39.4145 41.2102 40.3063 40.1139 40.3063ZM40.1139 32.6745C39.0177 32.6745 38.1258 31.7826 38.1258 30.6863C38.1258 29.59 39.0177 28.6982 40.1139 28.6982C41.2102 28.6982 42.1021 29.59 42.1021 30.6863C42.1021 31.7826 41.2102 32.6745 40.1139 32.6745Z" fill="#FF8500"/>
<rect x="18" y="11.7002" width="25" height="12" fill="white"/>
<path d="M30.3317 22.0002C31.1604 22.0002 31.8322 21.3284 31.8322 20.4996C31.8322 19.6709 31.1604 18.999 30.3317 18.999C29.5029 18.999 28.8311 19.6709 28.8311 20.4996C28.8311 21.3284 29.5029 22.0002 30.3317 22.0002Z" fill="#FFB70A"/>
<path d="M26.4415 16.6089C26.0508 16.9995 26.0508 17.633 26.4415 18.0236C26.8321 18.4143 27.4656 18.4144 27.8562 18.0236C29.2246 16.6553 31.4395 16.6552 32.8079 18.0236C33.0033 18.219 33.2593 18.3166 33.5153 18.3166C34.3985 18.3166 34.8547 17.2408 34.2226 16.6088C32.0724 14.4586 28.5919 14.4584 26.4415 16.6089Z" fill="#FFB70A"/>
<path d="M25.0261 15.1939C27.9584 12.2617 32.7044 12.2614 35.637 15.1939C36.0276 15.5845 36.6611 15.5846 37.0517 15.1939C37.4425 14.8032 37.4425 14.1698 37.0517 13.7791C33.3463 10.0737 27.3169 10.0736 23.6114 13.7791C23.2207 14.1698 23.2207 14.8032 23.6114 15.1939C24.0021 15.5846 24.6355 15.5846 25.0261 15.1939Z" fill="#FFB70A"/>
</svg>
