<svg width="129" height="26" viewBox="0 0 129 26" fill="none" xmlns="http://www.w3.org/2000/svg">
<path fill-rule="evenodd" clip-rule="evenodd" d="M8 0C3.58172 0 0 3.58172 0 8V12C0 16.4183 3.58173 20 8 20H84.4087L90.3231 26L96.2375 20H121C125.418 20 129 16.4183 129 12V8C129 3.58172 125.418 0 121 0H8Z" fill="white"/>
<path d="M15.6585 14.108C14.9225 14.108 14.3745 13.92 14.0145 13.544C13.6545 13.168 13.4745 12.624 13.4745 11.912V9.08H12.7545C12.4185 9.08 12.2505 8.924 12.2505 8.612C12.2505 8.3 12.4185 8.144 12.7545 8.144H13.4745V6.908C13.4745 6.5 13.6785 6.296 14.0865 6.296C14.4865 6.296 14.6865 6.5 14.6865 6.908V8.144H16.0905C16.4265 8.144 16.5945 8.3 16.5945 8.612C16.5945 8.924 16.4265 9.08 16.0905 9.08H14.6865V11.816C14.6865 12.24 14.7745 12.56 14.9505 12.776C15.1345 12.992 15.4305 13.1 15.8385 13.1C15.9825 13.1 16.1065 13.088 16.2105 13.064C16.3145 13.032 16.4065 13.012 16.4865 13.004C16.5745 13.004 16.6465 13.036 16.7025 13.1C16.7585 13.156 16.7865 13.268 16.7865 13.436C16.7865 13.564 16.7625 13.68 16.7145 13.784C16.6745 13.88 16.5985 13.944 16.4865 13.976C16.3905 14.016 16.2585 14.048 16.0905 14.072C15.9305 14.096 15.7865 14.108 15.6585 14.108ZM19.4174 14.108C19.0094 14.108 18.6454 14.028 18.3254 13.868C18.0054 13.708 17.7494 13.492 17.5574 13.22C17.3734 12.948 17.2814 12.64 17.2814 12.296C17.2814 11.864 17.3894 11.524 17.6054 11.276C17.8294 11.028 18.1934 10.848 18.6974 10.736C19.2094 10.624 19.8974 10.568 20.7614 10.568H21.1694V10.256C21.1694 9.8 21.0734 9.472 20.8814 9.272C20.6894 9.072 20.3734 8.972 19.9334 8.972C19.6774 8.972 19.4094 9.004 19.1294 9.068C18.8574 9.132 18.5734 9.24 18.2774 9.392C18.1094 9.472 17.9694 9.484 17.8574 9.428C17.7534 9.372 17.6814 9.284 17.6414 9.164C17.6014 9.044 17.6054 8.92 17.6534 8.792C17.7014 8.664 17.8014 8.568 17.9534 8.504C18.3054 8.344 18.6534 8.228 18.9974 8.156C19.3414 8.076 19.6654 8.036 19.9694 8.036C20.7694 8.036 21.3614 8.228 21.7454 8.612C22.1294 8.988 22.3214 9.58 22.3214 10.388V13.472C22.3214 13.88 22.1334 14.084 21.7574 14.084C21.3734 14.084 21.1814 13.88 21.1814 13.472V13.028C21.0374 13.364 20.8134 13.628 20.5094 13.82C20.2054 14.012 19.8414 14.108 19.4174 14.108ZM19.6574 13.244C20.0894 13.244 20.4494 13.092 20.7374 12.788C21.0254 12.484 21.1694 12.1 21.1694 11.636V11.312H20.7734C20.1894 11.312 19.7294 11.34 19.3934 11.396C19.0654 11.452 18.8294 11.548 18.6854 11.684C18.5494 11.812 18.4814 11.992 18.4814 12.224C18.4814 12.528 18.5854 12.776 18.7934 12.968C19.0014 13.152 19.2894 13.244 19.6574 13.244ZM24.5907 16.244C24.1907 16.244 23.9907 16.04 23.9907 15.632V8.672C23.9907 8.264 24.1867 8.06 24.5787 8.06C24.9787 8.06 25.1787 8.264 25.1787 8.672V9.128C25.3547 8.792 25.6147 8.528 25.9587 8.336C26.3027 8.136 26.6947 8.036 27.1347 8.036C27.6547 8.036 28.1067 8.16 28.4907 8.408C28.8827 8.656 29.1827 9.008 29.3907 9.464C29.6067 9.912 29.7147 10.448 29.7147 11.072C29.7147 11.696 29.6067 12.236 29.3907 12.692C29.1827 13.148 28.8827 13.5 28.4907 13.748C28.1067 13.988 27.6547 14.108 27.1347 14.108C26.7027 14.108 26.3147 14.016 25.9707 13.832C25.6347 13.64 25.3787 13.38 25.2027 13.052V15.632C25.2027 16.04 24.9987 16.244 24.5907 16.244ZM26.8347 13.172C27.3387 13.172 27.7387 12.992 28.0347 12.632C28.3387 12.272 28.4907 11.752 28.4907 11.072C28.4907 10.392 28.3387 9.876 28.0347 9.524C27.7387 9.164 27.3387 8.984 26.8347 8.984C26.3307 8.984 25.9267 9.164 25.6227 9.524C25.3267 9.876 25.1787 10.392 25.1787 11.072C25.1787 11.752 25.3267 12.272 25.6227 12.632C25.9267 12.992 26.3307 13.172 26.8347 13.172ZM36.7406 14.108C36.0046 14.108 35.4566 13.92 35.0966 13.544C34.7366 13.168 34.5566 12.624 34.5566 11.912V9.08H33.8366C33.5006 9.08 33.3326 8.924 33.3326 8.612C33.3326 8.3 33.5006 8.144 33.8366 8.144H34.5566V6.908C34.5566 6.5 34.7606 6.296 35.1686 6.296C35.5686 6.296 35.7686 6.5 35.7686 6.908V8.144H37.1726C37.5086 8.144 37.6766 8.3 37.6766 8.612C37.6766 8.924 37.5086 9.08 37.1726 9.08H35.7686V11.816C35.7686 12.24 35.8566 12.56 36.0326 12.776C36.2166 12.992 36.5126 13.1 36.9206 13.1C37.0646 13.1 37.1886 13.088 37.2926 13.064C37.3966 13.032 37.4886 13.012 37.5686 13.004C37.6566 13.004 37.7286 13.036 37.7846 13.1C37.8406 13.156 37.8686 13.268 37.8686 13.436C37.8686 13.564 37.8446 13.68 37.7966 13.784C37.7566 13.88 37.6806 13.944 37.5686 13.976C37.4726 14.016 37.3406 14.048 37.1726 14.072C37.0126 14.096 36.8686 14.108 36.7406 14.108ZM41.1128 14.108C40.5208 14.108 40.0088 13.984 39.5768 13.736C39.1448 13.488 38.8088 13.14 38.5688 12.692C38.3368 12.236 38.2208 11.696 38.2208 11.072C38.2208 10.448 38.3368 9.912 38.5688 9.464C38.8088 9.008 39.1448 8.656 39.5768 8.408C40.0088 8.16 40.5208 8.036 41.1128 8.036C41.6888 8.036 42.1928 8.16 42.6248 8.408C43.0568 8.656 43.3928 9.008 43.6328 9.464C43.8728 9.912 43.9928 10.448 43.9928 11.072C43.9928 11.696 43.8728 12.236 43.6328 12.692C43.3928 13.14 43.0568 13.488 42.6248 13.736C42.1928 13.984 41.6888 14.108 41.1128 14.108ZM41.1128 13.172C41.6088 13.172 42.0088 12.992 42.3128 12.632C42.6168 12.272 42.7688 11.752 42.7688 11.072C42.7688 10.392 42.6168 9.876 42.3128 9.524C42.0088 9.164 41.6088 8.984 41.1128 8.984C40.6088 8.984 40.2048 9.164 39.9008 9.524C39.5968 9.876 39.4448 10.392 39.4448 11.072C39.4448 11.752 39.5968 12.272 39.9008 12.632C40.2048 12.992 40.6088 13.172 41.1128 13.172ZM49.118 14.084C48.718 14.084 48.518 13.88 48.518 13.472V6.068C48.518 5.66 48.718 5.456 49.118 5.456C49.526 5.456 49.73 5.66 49.73 6.068V9.056C49.93 8.72 50.198 8.468 50.534 8.3C50.878 8.124 51.262 8.036 51.686 8.036C53.07 8.036 53.762 8.82 53.762 10.388V13.472C53.762 13.88 53.562 14.084 53.162 14.084C52.754 14.084 52.55 13.88 52.55 13.472V10.46C52.55 9.956 52.45 9.588 52.25 9.356C52.058 9.124 51.754 9.008 51.338 9.008C50.85 9.008 50.458 9.164 50.162 9.476C49.874 9.78 49.73 10.184 49.73 10.688V13.472C49.73 13.88 49.526 14.084 49.118 14.084ZM56.0321 6.836C55.7921 6.836 55.6041 6.776 55.4681 6.656C55.3401 6.536 55.2761 6.368 55.2761 6.152C55.2761 5.696 55.5281 5.468 56.0321 5.468C56.5361 5.468 56.7881 5.696 56.7881 6.152C56.7881 6.608 56.5361 6.836 56.0321 6.836ZM56.0321 14.072C55.6321 14.072 55.4321 13.852 55.4321 13.412V8.732C55.4321 8.3 55.6321 8.084 56.0321 8.084C56.4401 8.084 56.6441 8.3 56.6441 8.732V13.412C56.6441 13.852 56.4401 14.072 56.0321 14.072ZM60.582 14.108C60.07 14.108 59.618 13.988 59.226 13.748C58.842 13.5 58.542 13.148 58.326 12.692C58.11 12.236 58.002 11.696 58.002 11.072C58.002 10.448 58.11 9.912 58.326 9.464C58.542 9.008 58.842 8.656 59.226 8.408C59.61 8.16 60.062 8.036 60.582 8.036C61.022 8.036 61.414 8.132 61.758 8.324C62.102 8.516 62.358 8.776 62.526 9.104V6.068C62.526 5.66 62.726 5.456 63.126 5.456C63.534 5.456 63.738 5.66 63.738 6.068V13.472C63.738 13.88 63.538 14.084 63.138 14.084C62.738 14.084 62.538 13.88 62.538 13.472V13.016C62.362 13.352 62.102 13.62 61.758 13.82C61.414 14.012 61.022 14.108 60.582 14.108ZM60.894 13.172C61.39 13.172 61.79 12.992 62.094 12.632C62.398 12.272 62.55 11.752 62.55 11.072C62.55 10.392 62.398 9.876 62.094 9.524C61.79 9.164 61.39 8.984 60.894 8.984C60.39 8.984 59.986 9.164 59.682 9.524C59.378 9.876 59.226 10.392 59.226 11.072C59.226 11.752 59.378 12.272 59.682 12.632C59.986 12.992 60.39 13.172 60.894 13.172ZM68.1879 14.108C67.2279 14.108 66.4719 13.84 65.9199 13.304C65.3679 12.76 65.0919 12.02 65.0919 11.084C65.0919 10.484 65.2119 9.956 65.4519 9.5C65.6999 9.036 66.0399 8.676 66.4719 8.42C66.9039 8.164 67.3999 8.036 67.9599 8.036C68.7679 8.036 69.4039 8.296 69.8679 8.816C70.3319 9.328 70.5639 10.036 70.5639 10.94C70.5639 11.212 70.4039 11.348 70.0839 11.348H66.2679C66.3559 12.564 66.9999 13.172 68.1999 13.172C68.4399 13.172 68.6919 13.144 68.9559 13.088C69.2199 13.024 69.4759 12.912 69.7239 12.752C69.8919 12.656 70.0359 12.624 70.1559 12.656C70.2839 12.68 70.3759 12.748 70.4319 12.86C70.4879 12.964 70.4959 13.084 70.4559 13.22C70.4239 13.348 70.3319 13.46 70.1799 13.556C69.9079 13.74 69.5879 13.88 69.2199 13.976C68.8599 14.064 68.5159 14.108 68.1879 14.108ZM68.0079 8.888C67.5039 8.888 67.1039 9.044 66.8079 9.356C66.5119 9.668 66.3319 10.084 66.2679 10.604H69.5439C69.5199 10.06 69.3759 9.64 69.1119 9.344C68.8479 9.04 68.4799 8.888 68.0079 8.888ZM78.1933 14.108C77.7533 14.108 77.3613 14.012 77.0173 13.82C76.6733 13.62 76.4133 13.352 76.2373 13.016V13.472C76.2373 13.88 76.0413 14.084 75.6493 14.084C75.2493 14.084 75.0493 13.88 75.0493 13.472V6.068C75.0493 5.66 75.2493 5.456 75.6493 5.456C76.0573 5.456 76.2613 5.66 76.2613 6.068V9.092C76.4373 8.772 76.6933 8.516 77.0293 8.324C77.3733 8.132 77.7613 8.036 78.1933 8.036C78.7133 8.036 79.1653 8.16 79.5493 8.408C79.9413 8.656 80.2413 9.008 80.4493 9.464C80.6653 9.912 80.7733 10.448 80.7733 11.072C80.7733 11.696 80.6653 12.236 80.4493 12.692C80.2413 13.148 79.9413 13.5 79.5493 13.748C79.1653 13.988 78.7133 14.108 78.1933 14.108ZM77.8933 13.172C78.3973 13.172 78.7973 12.992 79.0933 12.632C79.3973 12.272 79.5493 11.752 79.5493 11.072C79.5493 10.392 79.3973 9.876 79.0933 9.524C78.7973 9.164 78.3973 8.984 77.8933 8.984C77.3893 8.984 76.9853 9.164 76.6813 9.524C76.3853 9.876 76.2373 10.392 76.2373 11.072C76.2373 11.752 76.3853 12.272 76.6813 12.632C76.9853 12.992 77.3893 13.172 77.8933 13.172ZM84.0111 14.108C83.6031 14.108 83.2391 14.028 82.9191 13.868C82.5991 13.708 82.3431 13.492 82.1511 13.22C81.9671 12.948 81.8751 12.64 81.8751 12.296C81.8751 11.864 81.9831 11.524 82.1991 11.276C82.4231 11.028 82.7871 10.848 83.2911 10.736C83.8031 10.624 84.4911 10.568 85.3551 10.568H85.7631V10.256C85.7631 9.8 85.6671 9.472 85.4751 9.272C85.2831 9.072 84.9671 8.972 84.5271 8.972C84.2711 8.972 84.0031 9.004 83.7231 9.068C83.4511 9.132 83.1671 9.24 82.8711 9.392C82.7031 9.472 82.5631 9.484 82.4511 9.428C82.3471 9.372 82.2751 9.284 82.2351 9.164C82.1951 9.044 82.1991 8.92 82.2471 8.792C82.2951 8.664 82.3951 8.568 82.5471 8.504C82.8991 8.344 83.2471 8.228 83.5911 8.156C83.9351 8.076 84.2591 8.036 84.5631 8.036C85.3631 8.036 85.9551 8.228 86.3391 8.612C86.7231 8.988 86.9151 9.58 86.9151 10.388V13.472C86.9151 13.88 86.7271 14.084 86.3511 14.084C85.9671 14.084 85.7751 13.88 85.7751 13.472V13.028C85.6311 13.364 85.4071 13.628 85.1031 13.82C84.7991 14.012 84.4351 14.108 84.0111 14.108ZM84.2511 13.244C84.6831 13.244 85.0431 13.092 85.3311 12.788C85.6191 12.484 85.7631 12.1 85.7631 11.636V11.312H85.3671C84.7831 11.312 84.3231 11.34 83.9871 11.396C83.6591 11.452 83.4231 11.548 83.2791 11.684C83.1431 11.812 83.0751 11.992 83.0751 12.224C83.0751 12.528 83.1791 12.776 83.3871 12.968C83.5951 13.152 83.8831 13.244 84.2511 13.244ZM90.4684 14.108C89.8444 14.108 89.3724 13.928 89.0524 13.568C88.7404 13.208 88.5844 12.68 88.5844 11.984V6.068C88.5844 5.66 88.7844 5.456 89.1844 5.456C89.5924 5.456 89.7964 5.66 89.7964 6.068V11.912C89.7964 12.704 90.1164 13.1 90.7564 13.1C90.8284 13.1 90.8924 13.096 90.9484 13.088C91.0044 13.08 91.0604 13.076 91.1164 13.076C91.2124 13.068 91.2804 13.096 91.3204 13.16C91.3604 13.216 91.3804 13.336 91.3804 13.52C91.3804 13.848 91.2284 14.036 90.9244 14.084C90.8444 14.092 90.7644 14.096 90.6844 14.096C90.6124 14.104 90.5404 14.108 90.4684 14.108ZM94.1244 14.108C93.7164 14.108 93.3524 14.028 93.0324 13.868C92.7124 13.708 92.4564 13.492 92.2644 13.22C92.0804 12.948 91.9884 12.64 91.9884 12.296C91.9884 11.864 92.0964 11.524 92.3124 11.276C92.5364 11.028 92.9004 10.848 93.4044 10.736C93.9164 10.624 94.6044 10.568 95.4684 10.568H95.8764V10.256C95.8764 9.8 95.7804 9.472 95.5884 9.272C95.3964 9.072 95.0804 8.972 94.6404 8.972C94.3844 8.972 94.1164 9.004 93.8364 9.068C93.5644 9.132 93.2804 9.24 92.9844 9.392C92.8164 9.472 92.6764 9.484 92.5644 9.428C92.4604 9.372 92.3884 9.284 92.3484 9.164C92.3084 9.044 92.3124 8.92 92.3604 8.792C92.4084 8.664 92.5084 8.568 92.6604 8.504C93.0124 8.344 93.3604 8.228 93.7044 8.156C94.0484 8.076 94.3724 8.036 94.6764 8.036C95.4764 8.036 96.0684 8.228 96.4524 8.612C96.8364 8.988 97.0284 9.58 97.0284 10.388V13.472C97.0284 13.88 96.8404 14.084 96.4644 14.084C96.0804 14.084 95.8884 13.88 95.8884 13.472V13.028C95.7444 13.364 95.5204 13.628 95.2164 13.82C94.9124 14.012 94.5484 14.108 94.1244 14.108ZM94.3644 13.244C94.7964 13.244 95.1564 13.092 95.4444 12.788C95.7324 12.484 95.8764 12.1 95.8764 11.636V11.312H95.4804C94.8964 11.312 94.4364 11.34 94.1004 11.396C93.7724 11.452 93.5364 11.548 93.3924 11.684C93.2564 11.812 93.1884 11.992 93.1884 12.224C93.1884 12.528 93.2924 12.776 93.5004 12.968C93.7084 13.152 93.9964 13.244 94.3644 13.244ZM99.2977 14.084C98.8977 14.084 98.6977 13.88 98.6977 13.472V8.672C98.6977 8.264 98.8937 8.06 99.2857 8.06C99.6777 8.06 99.8737 8.264 99.8737 8.672V9.116C100.074 8.764 100.346 8.496 100.69 8.312C101.042 8.128 101.434 8.036 101.866 8.036C103.25 8.036 103.942 8.82 103.942 10.388V13.472C103.942 13.88 103.742 14.084 103.342 14.084C102.934 14.084 102.73 13.88 102.73 13.472V10.46C102.73 9.956 102.63 9.588 102.43 9.356C102.238 9.124 101.934 9.008 101.518 9.008C101.03 9.008 100.638 9.164 100.342 9.476C100.054 9.78 99.9097 10.184 99.9097 10.688V13.472C99.9097 13.88 99.7057 14.084 99.2977 14.084ZM108.192 14.108C107.592 14.108 107.072 13.984 106.632 13.736C106.2 13.48 105.864 13.124 105.624 12.668C105.384 12.204 105.264 11.66 105.264 11.036C105.264 10.108 105.528 9.376 106.056 8.84C106.584 8.304 107.296 8.036 108.192 8.036C108.472 8.036 108.764 8.08 109.068 8.168C109.38 8.248 109.668 8.384 109.932 8.576C110.06 8.656 110.132 8.76 110.148 8.888C110.172 9.008 110.152 9.124 110.088 9.236C110.032 9.34 109.948 9.412 109.836 9.452C109.724 9.484 109.596 9.46 109.452 9.38C109.26 9.244 109.064 9.148 108.864 9.092C108.664 9.028 108.472 8.996 108.288 8.996C107.72 8.996 107.28 9.176 106.968 9.536C106.664 9.888 106.512 10.392 106.512 11.048C106.512 11.704 106.664 12.22 106.968 12.596C107.28 12.964 107.72 13.148 108.288 13.148C108.472 13.148 108.66 13.12 108.852 13.064C109.052 13.008 109.252 12.912 109.452 12.776C109.596 12.696 109.72 12.676 109.824 12.716C109.936 12.756 110.016 12.832 110.064 12.944C110.12 13.048 110.136 13.164 110.112 13.292C110.096 13.412 110.024 13.512 109.896 13.592C109.64 13.776 109.36 13.908 109.056 13.988C108.76 14.068 108.472 14.108 108.192 14.108ZM113.844 14.108C112.884 14.108 112.128 13.84 111.576 13.304C111.024 12.76 110.748 12.02 110.748 11.084C110.748 10.484 110.868 9.956 111.108 9.5C111.356 9.036 111.696 8.676 112.128 8.42C112.56 8.164 113.056 8.036 113.616 8.036C114.424 8.036 115.06 8.296 115.524 8.816C115.988 9.328 116.22 10.036 116.22 10.94C116.22 11.212 116.06 11.348 115.74 11.348H111.924C112.012 12.564 112.656 13.172 113.856 13.172C114.096 13.172 114.348 13.144 114.612 13.088C114.876 13.024 115.132 12.912 115.38 12.752C115.548 12.656 115.692 12.624 115.812 12.656C115.94 12.68 116.032 12.748 116.088 12.86C116.144 12.964 116.152 13.084 116.112 13.22C116.08 13.348 115.988 13.46 115.836 13.556C115.564 13.74 115.244 13.88 114.876 13.976C114.516 14.064 114.172 14.108 113.844 14.108ZM113.664 8.888C113.16 8.888 112.76 9.044 112.464 9.356C112.168 9.668 111.988 10.084 111.924 10.604H115.2C115.176 10.06 115.032 9.64 114.768 9.344C114.504 9.04 114.136 8.888 113.664 8.888Z" fill="#333333"/>
</svg>
