<svg width="72" height="72" viewBox="0 0 72 72" fill="none" xmlns="http://www.w3.org/2000/svg">
<g filter="url(#filter0_d_2_18982)">
<circle cx="36" cy="32" r="30" fill="white"/>
</g>
<path d="M42.9024 46.9999H33.1329C30.8697 46.9999 29.0352 45.1667 29.0352 42.9052V26.1004C29.0352 25.7156 29.3467 25.4043 29.7318 25.4043H46.3035C46.6886 25.4043 47.0001 25.7156 47.0001 26.1004V42.9039C47.0001 45.1655 45.1656 46.9999 42.9024 46.9999Z" fill="#3531B3"/>
<path d="M38.8507 18.7006L26.7045 30.8377C26.3905 31.1515 25.8832 31.1515 25.5692 30.8377L23.544 28.8153C22.8187 28.0905 22.8187 26.9149 23.544 26.1888L34.1971 15.5436C34.9224 14.8188 36.0989 14.8188 36.8255 15.5436L38.8507 17.5673C39.1635 17.8799 39.1635 18.388 38.8507 18.7006Z" fill="#534ED9"/>
<path d="M31.5753 16.5933C30.5596 15.5783 28.9133 15.5783 27.8976 16.5933L24.5264 19.9619C23.5107 20.9769 23.5107 22.622 24.5264 23.6369L25.3477 24.4576L26.2587 23.5473L25.3726 22.6618C24.848 22.1375 24.848 21.2882 25.3726 20.7639L28.7002 17.4388C29.2249 16.9146 30.0748 16.9146 30.5995 17.4388L31.4856 18.3243L32.3966 17.4139L31.5753 16.5933Z" fill="#FF8500"/>
<path d="M33.8015 42.888C33.3292 42.888 32.9453 42.5057 32.9453 42.0325V30.3673C32.9453 29.8953 33.3279 29.5117 33.8015 29.5117C34.2738 29.5117 34.6577 29.894 34.6577 30.3673V42.0325C34.6564 42.5057 34.2738 42.888 33.8015 42.888Z" fill="#030062"/>
<path d="M38.0163 42.888C37.544 42.888 37.1602 42.5057 37.1602 42.0325V30.3673C37.1602 29.8953 37.5428 29.5117 38.0163 29.5117C38.4887 29.5117 38.8725 29.894 38.8725 30.3673V42.0325C38.8725 42.5057 38.4899 42.888 38.0163 42.888Z" fill="#030062"/>
<path d="M42.2341 42.89C41.7618 42.89 41.3779 42.5076 41.3779 42.0344V30.3692C41.3779 29.8972 41.7605 29.5137 42.2341 29.5137C42.7065 29.5137 43.0903 29.896 43.0903 30.3692V42.0344C43.0903 42.5076 42.7077 42.89 42.2341 42.89Z" fill="#030062"/>
<defs>
<filter id="filter0_d_2_18982" x="0" y="0" width="72" height="72" filterUnits="userSpaceOnUse" color-interpolation-filters="sRGB">
<feFlood flood-opacity="0" result="BackgroundImageFix"/>
<feColorMatrix in="SourceAlpha" type="matrix" values="0 0 0 0 0 0 0 0 0 0 0 0 0 0 0 0 0 0 127 0" result="hardAlpha"/>
<feOffset dy="4"/>
<feGaussianBlur stdDeviation="3"/>
<feComposite in2="hardAlpha" operator="out"/>
<feColorMatrix type="matrix" values="0 0 0 0 0.207843 0 0 0 0 0.192157 0 0 0 0 0.701961 0 0 0 0.1 0"/>
<feBlend mode="normal" in2="BackgroundImageFix" result="effect1_dropShadow_2_18982"/>
<feBlend mode="normal" in="SourceGraphic" in2="effect1_dropShadow_2_18982" result="shape"/>
</filter>
</defs>
</svg>
