<svg width="44" height="44" viewBox="0 0 44 44" fill="none" xmlns="http://www.w3.org/2000/svg">
<circle cx="22" cy="22" r="22" fill="white"/>
<path fill-rule="evenodd" clip-rule="evenodd" d="M32 15.8376C31.2645 16.1492 30.4729 16.3612 29.6438 16.4559C30.4916 15.9697 31.1423 15.203 31.4477 14.2855C30.6549 14.7368 29.7772 15.0621 28.8422 15.2379C28.093 14.4762 27.0271 14 25.8465 14C23.5814 14 21.7438 15.754 21.7438 17.9207C21.7438 18.2274 21.78 18.5278 21.8498 18.8146C18.4402 18.6512 15.4158 17.0892 13.3925 14.7168C13.0397 15.2965 12.8377 15.9697 12.8377 16.6878C12.8377 18.0466 13.5608 19.2496 14.6628 19.9515C13.9884 19.9303 13.3576 19.7558 12.8028 19.4603V19.5102C12.8028 21.4101 14.2178 22.9946 16.094 23.3549C15.7499 23.4446 15.3884 23.492 15.0144 23.492C14.7501 23.492 14.4933 23.4696 14.2415 23.4234C14.7651 24.9817 16.2797 26.1137 18.0762 26.1461C16.6712 27.1983 14.9022 27.8241 12.9786 27.8241C12.6483 27.8241 12.3216 27.8054 12 27.7692C13.8176 28.8825 15.9731 29.532 18.2906 29.532C25.8378 29.532 29.9655 23.5556 29.9655 18.3745L29.9542 17.8671C30.7546 17.3148 31.4502 16.6254 32 15.8376Z" fill="#3531B3"/>
</svg>
