<svg width="113" height="109" viewBox="0 0 113 109" fill="none" xmlns="http://www.w3.org/2000/svg">
<g filter="url(#filter0_d_1_2356)">
<path d="M75.4089 31.6846C80.6255 36.0715 84.3516 42.1131 86.6657 49.1937C88.9407 56.3127 89.8035 64.5093 86.705 71.1282C83.6064 77.7855 76.5856 82.865 69.2117 84.4428C61.7987 86.0205 53.9934 84.058 47.2471 80.941C40.5008 77.8239 34.8136 73.514 30.6168 67.7418C26.3807 61.9311 23.6744 54.6196 24.6157 47.7314C25.5963 40.8432 30.2246 34.3783 36.2256 30.1453C42.1874 25.8738 49.522 23.8343 56.5036 24.1806C63.5245 24.5655 70.1923 27.2977 75.4089 31.6846Z" fill="white"/>
</g>
<path d="M60.6004 34.8412C60.7063 35.3652 60.4968 35.8853 60.263 36.3384C58.7086 39.3542 54.6832 42.8584 51.5047 41.3238C51.8355 41.2182 52.7137 41.1267 53.3858 40.8891C54.9821 40.328 55.8445 38.4348 56.5368 36.7431C56.961 35.707 56.7558 32.9104 57.7659 32.4088C58.729 31.9289 60.3891 33.7978 60.6004 34.8412Z" fill="#C36600"/>
<path d="M51.5109 37.497C52.0464 35.7744 52.6712 34.6387 53.5157 33.3481C54.3605 32.059 55.597 31.0117 57.0415 30.8275C57.2132 30.805 57.393 30.7971 57.5575 30.8629C57.7468 30.9394 57.8962 31.1039 58.0388 31.2645C58.8279 32.1482 60.2766 33.2839 60.5542 34.6195C58.018 34.6815 55.5005 35.9119 53.6544 37.7701C52.277 39.1585 51.6364 41.4717 51.4735 41.4899C49.9299 41.6559 51.2599 38.3078 51.5109 37.497Z" fill="#FF8500"/>
<path d="M40.528 39.5165C40.6383 40.0384 41.0386 40.4288 41.4326 40.7468C44.0531 42.8673 49.1286 44.4235 51.4262 41.7143C51.0821 41.7531 50.2405 42.0299 49.5326 42.0882C47.8485 42.229 46.3073 40.8513 45.001 39.5894C44.1997 38.8149 43.2773 36.1729 42.1536 36.1281C41.0833 36.0857 40.3077 38.4758 40.528 39.5165Z" fill="#C36600"/>
<path d="M49.8994 38.2174C48.7256 36.8603 47.7018 36.0775 46.4159 35.2448C45.1299 34.4121 43.5836 33.9611 42.1893 34.3866C42.0228 34.4365 41.8568 34.5019 41.7319 34.632C41.5889 34.7785 41.5171 34.9922 41.4504 35.1973C41.0793 36.3294 40.2062 37.9621 40.4838 39.2977C42.8278 38.3145 45.6211 38.406 48.0488 39.3497C49.8621 40.0542 51.3675 41.909 51.5229 41.8575C52.9996 41.3712 50.4522 38.8561 49.8994 38.2174Z" fill="#FF8500"/>
<path d="M70.6385 59.5407C71.1973 62.2322 69.4785 64.8701 66.7906 65.4461L47.5198 69.5759C44.8074 70.1572 42.1404 68.4193 41.5765 65.7033L38.2291 49.5811C37.6703 46.8896 39.3891 44.2517 42.077 43.6757L61.3478 39.5459C64.0602 38.9646 66.7272 40.7024 67.2911 43.4184L70.6385 59.5407Z" fill="#534ED9"/>
<path d="M69.2083 42.6638C69.432 43.7405 68.7445 44.7959 67.6692 45.0263L38.56 51.2634C37.475 51.4959 36.4081 50.8006 36.1827 49.7142L35.6376 47.0874C35.4142 46.0108 36.1017 44.9558 37.1768 44.7254L66.2854 38.4883C67.3702 38.2559 68.437 38.9509 68.6626 40.0371L69.2083 42.6638Z" fill="#3531B3"/>
<path d="M58.6726 67.1859L55.0768 67.9556L49.6294 41.7186C49.5744 41.453 49.7261 41.1946 49.9687 41.1426L52.6865 40.5611C52.9291 40.5091 53.1702 40.6834 53.2252 40.949L58.6726 67.1859Z" fill="#FF8500"/>
<path opacity="0.5" d="M38.6068 51.3639L67.6254 45.0366L68.1098 47.3695L39.0608 53.6431L38.6068 51.3639Z" fill="#030062"/>
<path d="M66.5648 74.2522L71.9689 66.5506L69.8793 65.0846L67.7904 63.6194L62.387 71.3211L65.5077 71.3164L66.5648 74.2522Z" fill="#D63B3B"/>
<path d="M72.7236 75.7487L71.4552 66.4258L73.9841 66.082L76.5129 65.7382L77.7805 75.0602L75.0098 73.6242L72.7236 75.7487Z" fill="#D63B3B"/>
<path d="M80.8335 62.6069L82.2559 61.8785L81.3321 60.5743L82.517 59.502L81.2878 58.4818L82.1548 57.1389L80.7026 56.4718L81.1932 54.9507L79.6177 54.6818L79.6981 53.0856L78.1064 53.2334L77.771 51.6707L76.2721 52.2251L75.5428 50.8035L74.2395 51.7265L73.1672 50.5416L72.1461 51.7715L70.8041 50.9038L70.1362 52.3559L68.6151 51.8653L68.3461 53.4408L66.75 53.3613L66.8978 54.9521L65.3358 55.2884L65.8903 56.7865L64.4678 57.5157L65.3916 58.82L64.2067 59.8922L65.4359 60.9124L64.569 62.2545L66.0211 62.9224L65.5305 64.4435L67.106 64.7124L67.0256 66.3086L68.6173 66.1608L68.9527 67.7235L70.4516 67.1691L71.1801 68.5907L72.4843 67.6677L73.5565 68.8526L74.5776 67.6227L75.9196 68.4904L76.5875 67.0383L78.1087 67.5281L78.3776 65.9534L79.9738 66.033L79.8259 64.4421L81.3879 64.1058L80.8335 62.6069Z" fill="#FFB70A"/>
<path d="M78.7348 61.3229C79.6324 58.3553 77.9544 55.2219 74.9868 54.3242C72.0192 53.4266 68.8858 55.1046 67.9881 58.0722C67.0905 61.0398 68.7685 64.1732 71.7361 65.0709C74.7037 65.9685 77.8371 64.2905 78.7348 61.3229Z" fill="white"/>
<path d="M74.3661 55.9958L74.9521 58.4002C74.9615 58.4399 74.9905 58.4724 75.0279 58.4868L77.336 59.3634C77.4315 59.3998 77.4437 59.5305 77.3568 59.584L75.2568 60.889C75.2226 60.9105 75.2 60.9479 75.1986 60.9882L75.0775 63.4615C75.0725 63.5641 74.9529 63.6161 74.8742 63.55L72.9904 61.9519C72.9591 61.9258 72.9171 61.916 72.8781 61.9271L70.4954 62.5787C70.3962 62.6054 70.31 62.5072 70.3488 62.4128L71.285 60.1203C71.3002 60.0821 71.296 60.0396 71.2738 60.0053L69.9221 57.9355C69.866 57.85 69.933 57.7369 70.0346 57.7442L72.4964 57.9252C72.5365 57.9283 72.5761 57.9106 72.6014 57.8793L74.1488 55.9476C74.2142 55.8681 74.3419 55.8961 74.3661 55.9958Z" fill="#FFB70A"/>
<defs>
<filter id="filter0_d_1_2356" x="0.428711" y="0.142883" width="112.286" height="108.857" filterUnits="userSpaceOnUse" color-interpolation-filters="sRGB">
<feFlood flood-opacity="0" result="BackgroundImageFix"/>
<feColorMatrix in="SourceAlpha" type="matrix" values="0 0 0 0 0 0 0 0 0 0 0 0 0 0 0 0 0 0 127 0" result="hardAlpha"/>
<feOffset/>
<feGaussianBlur stdDeviation="12"/>
<feColorMatrix type="matrix" values="0 0 0 0 0 0 0 0 0 0 0 0 0 0 0 0 0 0 0.3 0"/>
<feBlend mode="normal" in2="BackgroundImageFix" result="effect1_dropShadow_1_2356"/>
<feBlend mode="normal" in="SourceGraphic" in2="effect1_dropShadow_1_2356" result="shape"/>
</filter>
</defs>
</svg>
