<svg width="114" height="109" viewBox="0 0 114 109" fill="none" xmlns="http://www.w3.org/2000/svg">
<g filter="url(#filter0_d_69_3618)">
<path d="M75.9089 31.6845C81.1255 36.0714 84.8516 42.113 87.1657 49.1936C89.4407 56.3127 90.3035 64.5093 87.205 71.1281C84.1064 77.7854 77.0856 82.865 69.7117 84.4427C62.2987 86.0205 54.4934 84.0579 47.7471 80.9409C41.0008 77.8239 35.3136 73.5139 31.1168 67.7417C26.8807 61.931 24.1744 54.6195 25.1157 47.7313C26.0963 40.8431 30.7246 34.3782 36.7256 30.1452C42.6874 25.8738 50.022 23.8343 57.0036 24.1806C64.0245 24.5654 70.6923 27.2976 75.9089 31.6845Z" fill="white"/>
</g>
<rect x="35.9639" y="40.5791" width="34.2857" height="29.8137" rx="4" transform="rotate(-6.16 35.9639 40.5791)" fill="#FFB70A"/>
<rect width="5.21739" height="5.21739" rx="2" transform="matrix(-0.994226 0.107305 0.107305 0.994226 48.1992 49.7539)" fill="#FF8500"/>
<rect width="5.21739" height="5.21739" rx="2" transform="matrix(-0.994226 0.107305 0.107305 0.994226 49.0791 57.9053)" fill="#FF8500"/>
<rect width="5.21739" height="5.21739" rx="2" transform="matrix(-0.994226 0.107305 0.107305 0.994226 56.3506 48.874)" fill="#FF8500"/>
<rect width="5.21739" height="5.21739" rx="2" transform="matrix(-0.994226 0.107305 0.107305 0.994226 57.2305 57.0254)" fill="#FF8500"/>
<rect width="5.21739" height="5.21739" rx="2" transform="matrix(-0.994226 0.107305 0.107305 0.994226 64.5024 47.9944)" fill="#FF8500"/>
<rect width="5.21739" height="5.21739" rx="2" transform="matrix(-0.994226 0.107305 0.107305 0.994226 65.3818 56.1458)" fill="#FF8500"/>
<path d="M36.2378 43.1148C36.0008 40.9185 37.5891 38.9458 39.7855 38.7087L65.9195 35.8881C68.1158 35.6511 70.0885 37.2394 70.3256 39.4358L70.7761 43.6103L36.6884 47.2894L36.2378 43.1148Z" fill="#FF8500"/>
<rect x="39.9956" y="36.2559" width="2.98137" height="6.70807" rx="1.49068" transform="rotate(-6.16 39.9956 36.2559)" fill="#3531B3"/>
<rect x="47.4058" y="35.4561" width="2.98136" height="6.70808" rx="1.49068" transform="rotate(-6.16 47.4058 35.4561)" fill="#3531B3"/>
<rect x="54.8164" y="34.6565" width="2.98137" height="6.70808" rx="1.49068" transform="rotate(-6.16 54.8164 34.6565)" fill="#3531B3"/>
<rect x="62.2266" y="33.8567" width="2.98136" height="6.70808" rx="1.49068" transform="rotate(-6.15999 62.2266 33.8567)" fill="#3531B3"/>
<path d="M69.4938 76.2836C75.0944 77.2341 80.405 73.4644 81.3555 67.8638C82.3059 62.2632 78.5362 56.9526 72.9356 56.0022C67.3351 55.0517 62.0244 58.8214 61.074 64.422C60.1236 70.0225 63.8932 75.3332 69.4938 76.2836Z" fill="#3531B3"/>
<path d="M69.953 73.5794C74.0601 74.2764 77.9546 71.512 78.6516 67.4049C79.3486 63.2978 76.5841 59.4033 72.4771 58.7063C68.37 58.0094 64.4755 60.7738 63.7785 64.8809C63.0815 68.988 65.846 72.8824 69.953 73.5794Z" fill="white"/>
<path d="M71.3775 65.7677C71.0091 65.7052 70.7613 65.3559 70.8238 64.9876L71.4488 61.3046C71.5113 60.9363 71.8606 60.6884 72.2289 60.7509C72.5973 60.8134 72.8452 61.1626 72.7827 61.531L72.1576 65.214C72.0951 65.5823 71.7459 65.8302 71.3775 65.7677Z" fill="#3C58A0"/>
<path d="M74.8106 67.866L72.6007 67.4909C72.2323 67.4284 71.9845 67.0792 72.047 66.7109C72.1095 66.3425 72.4587 66.0946 72.8271 66.1571L75.0369 66.5321C75.4054 66.5947 75.6532 66.9439 75.5907 67.3122C75.5282 67.6806 75.1789 67.9285 74.8106 67.866Z" fill="#3C58A0"/>
<path d="M70.8947 68.0311C71.6414 68.1578 72.3495 67.6552 72.4762 66.9084C72.6029 66.1617 72.1003 65.4536 71.3536 65.3269C70.6068 65.2001 69.8987 65.7028 69.772 66.4495C69.6453 67.1963 70.1479 67.9043 70.8947 68.0311Z" fill="#FF8500"/>
<defs>
<filter id="filter0_d_69_3618" x="0.928711" y="0.142822" width="112.286" height="108.857" filterUnits="userSpaceOnUse" color-interpolation-filters="sRGB">
<feFlood flood-opacity="0" result="BackgroundImageFix"/>
<feColorMatrix in="SourceAlpha" type="matrix" values="0 0 0 0 0 0 0 0 0 0 0 0 0 0 0 0 0 0 127 0" result="hardAlpha"/>
<feOffset/>
<feGaussianBlur stdDeviation="12"/>
<feColorMatrix type="matrix" values="0 0 0 0 0 0 0 0 0 0 0 0 0 0 0 0 0 0 0.3 0"/>
<feBlend mode="normal" in2="BackgroundImageFix" result="effect1_dropShadow_69_3618"/>
<feBlend mode="normal" in="SourceGraphic" in2="effect1_dropShadow_69_3618" result="shape"/>
</filter>
</defs>
</svg>
