<svg width="60" height="60" viewBox="0 0 60 60" fill="none" xmlns="http://www.w3.org/2000/svg">
<circle cx="30" cy="30" r="30" fill="white"/>
<path d="M42.3169 36.1029L38.6756 32.4616C37.3752 31.1612 35.1644 31.6814 34.6442 33.372C34.2541 34.5424 32.9536 35.1927 31.7832 34.9325C29.1822 34.2823 25.671 30.9011 25.0208 28.1701C24.6306 26.9996 25.4109 25.6992 26.5813 25.3091C28.2719 24.7889 28.7921 22.5781 27.4916 21.2777L23.8503 17.6364C22.81 16.726 21.2494 16.726 20.3391 17.6364L17.8682 20.1072C15.3973 22.7082 18.1283 29.6006 24.2405 35.7128C30.3527 41.825 37.2451 44.686 39.846 42.0851L42.3169 39.6142C43.2273 38.5738 43.2273 37.0133 42.3169 36.1029Z" fill="#B22DA4"/>
</svg>
