<svg width="229" height="228" viewBox="0 0 229 228" fill="none" xmlns="http://www.w3.org/2000/svg">
<path d="M119.153 192.293C99.6699 192.984 79.668 184.99 66.4619 171.307C53.1828 157.556 46.6316 138.189 44.4019 117.112C42.1722 96.0356 44.2691 73.3904 56.5934 60.1469C68.9228 47.0448 91.3384 43.3493 112.565 44.012C133.724 44.7479 153.621 49.7738 167.06 62.0333C180.571 74.3611 187.76 93.7761 188.314 113.426C188.935 133.003 183.063 152.811 170.506 167.478C158.018 182.071 138.704 191.529 119.153 192.293Z" fill="#221F7A"/>
<path d="M192.292 111.624C192.292 147.562 156.228 188.349 119.299 188.349C82.3697 188.349 44.4526 147.562 44.4526 111.624C44.4526 75.5618 82.3697 44.3494 119.299 44.3494C156.228 44.3494 192.292 75.5618 192.292 111.624Z" fill="#534ED9"/>
<path fill-rule="evenodd" clip-rule="evenodd" d="M145.278 162.624C143.865 168.745 127.007 170.079 107.626 165.604C88.2435 161.129 73.6768 152.54 75.0899 146.42L75.0972 146.388L76.156 141.802L79.3378 142.537C85.7635 140.002 98.5791 140.169 112.743 143.439C126.906 146.709 138.499 152.176 143.163 157.272L146.345 158.006L145.279 162.624L145.278 162.624Z" fill="#3531B3"/>
<ellipse cx="111.25" cy="149.904" rx="36.0174" ry="11.3739" transform="rotate(13 111.25 149.904)" fill="#030062"/>
<path fill-rule="evenodd" clip-rule="evenodd" d="M132.318 58.1789C122.048 55.808 113.156 52.3785 107.455 48.8927C100.743 54.8884 99.0995 63.5106 99.0995 63.5106C94.649 82.7877 111.151 95.5081 113.647 99.1517C116.142 102.795 115.582 108.363 107.428 111.009C99.2735 113.655 94.2323 117.896 94.2323 117.896C80.8194 128.238 83.8306 143.22 83.8306 143.22L83.8907 143.234C84.1789 146.214 95.6024 151.155 110.184 154.522C124.766 157.888 137.2 158.454 138.765 155.903L138.825 155.916C138.825 155.916 148.099 143.771 140.578 128.595C140.578 128.595 137.906 122.574 131.737 116.621C125.567 110.668 127.505 105.419 131.345 103.238C135.185 101.057 155.594 96.8578 160.044 77.5807C160.044 77.5807 162.359 69.0663 158.915 60.7145C152.255 61.3804 142.68 60.5712 132.318 58.1789Z" fill="#FEFEFE"/>
<path fill-rule="evenodd" clip-rule="evenodd" d="M168.306 62.8825C166.893 69.0031 150.036 70.3374 130.653 65.8627C111.271 61.388 96.7046 52.7988 98.1177 46.6781L98.1177 46.6781L98.1177 46.6781L99.1838 42.0604L102.366 42.7951C108.792 40.2601 121.607 40.428 135.771 43.6979C149.934 46.9678 161.526 52.4348 166.19 57.5302L169.372 58.2648L168.311 62.8618C168.31 62.8687 168.308 62.8756 168.306 62.8825Z" fill="#030062"/>
<ellipse cx="134.277" cy="50.1626" rx="36.0174" ry="11.3739" transform="rotate(13 134.277 50.1626)" fill="#3531B3"/>
<path fill-rule="evenodd" clip-rule="evenodd" d="M145.955 89.1627L145.911 89.1523C145.976 88.9989 146.03 88.8411 146.067 88.6782C146.985 84.702 139.046 79.4738 128.335 77.0009C117.624 74.5281 108.197 75.7469 107.279 79.7231C107.241 79.8861 107.22 80.0512 107.212 80.2179C107.174 80.9773 107.435 81.7742 107.957 82.5833C110.783 88.8637 119.921 95.8947 119.922 95.8956L121.92 98.3777C122.563 99.1773 123.802 99.4633 124.73 99.0266L127.661 97.649L127.658 97.6817C127.658 97.6817 139.216 95.3144 144.429 90.8091C145.06 90.3888 145.532 89.9012 145.818 89.3491C145.865 89.2872 145.911 89.2252 145.955 89.1627Z" fill="#E57800"/>
<path fill-rule="evenodd" clip-rule="evenodd" d="M146.458 87.9941C147.282 84.4237 139.06 79.4769 128.094 76.9452C117.128 74.4135 107.57 75.2555 106.746 78.8258C105.921 82.3962 114.143 87.3429 125.109 89.8747C136.075 92.4064 145.633 91.5644 146.458 87.9941Z" fill="#FF8500"/>
<path fill-rule="evenodd" clip-rule="evenodd" d="M117.182 124.21C128.777 126.887 136.521 136.792 135.296 146.874L135.269 146.868C135.264 146.971 135.25 147.072 135.227 147.171C134.462 150.487 123.918 150.883 111.676 148.057C99.4351 145.231 90.1321 140.252 90.8975 136.937C90.9205 136.838 90.9523 136.741 90.9927 136.646L90.966 136.64C94.2844 127.04 105.587 121.533 117.182 124.21Z" fill="#FF8500"/>
<circle cx="121.343" cy="104.083" r="1.42174" transform="rotate(13 121.343 104.083)" fill="#FFB70A"/>
<circle cx="121.627" cy="113.39" r="0.948191" transform="rotate(13 121.627 113.39)" fill="#FFB70A"/>
<circle cx="115.09" cy="114.313" r="1.42174" transform="rotate(13 115.09 114.313)" fill="#FF8500"/>
<circle cx="123.117" cy="119.57" r="1.89566" transform="rotate(13 123.117 119.57)" fill="#FFB70A"/>
<circle cx="118.785" cy="108.843" r="0.948191" transform="rotate(13 118.785 108.843)" fill="#FF8500"/>
<circle cx="124.753" cy="108.275" r="0.948191" transform="rotate(13 124.753 108.275)" fill="#FF8500"/>
<path d="M206.964 176.33C221.379 167.996 225.091 152.485 217.411 145.856C209.775 139.267 192.85 143.141 189.468 159.979C187.428 170.136 180.305 175.284 174.976 177.769C173.331 178.536 173.669 180.941 175.453 181.196C188.849 183.108 199.382 180.713 206.96 176.333C206.962 176.332 206.962 176.332 206.964 176.33Z" fill="#221F7A"/>
<path d="M5.51262 122.502C-1.99309 133.505 22.466 174.784 54.1787 165.163C55.736 164.69 55.8203 162.528 54.3127 161.916C48.8156 159.687 40.1525 153.92 36.9014 139.276C33.763 125.148 24.3057 118.619 16.3069 118.042C11.7681 117.715 7.69777 119.303 5.51262 122.502Z" fill="#FF8500"/>
<path d="M31.447 112.736C31.447 112.736 36.6678 112.373 36.4893 105.294C36.3188 98.2182 40.6403 97.507 38.8577 94.5873C37.0725 91.6623 24.0838 96.7006 23.0261 103.024C21.9762 109.351 29.1396 113.604 31.447 112.736Z" fill="white"/>
<ellipse rx="8.42124" ry="17.656" transform="matrix(0.891507 0.453007 -0.452226 0.891903 175.823 23.9117)" fill="#FFB70A"/>
<ellipse cx="189.799" cy="51.8494" rx="8.49078" ry="8.5" fill="#FF8500"/>
</svg>
