<svg width="49" height="52" viewBox="0 0 49 52" fill="none" xmlns="http://www.w3.org/2000/svg">
<path d="M42.1831 6.8899C46.7308 11.4706 49.3013 18.1425 48.9717 24.4493C48.6422 30.7893 45.4456 36.7641 40.8649 42.0751C36.2842 47.3861 30.3523 52 24.3875 52C18.4557 51.9668 12.5238 47.3529 7.91017 42.0419C3.32947 36.7309 0.066952 30.7561 0.00104253 24.7149C-0.0648669 18.6404 2.99992 12.4996 7.61358 7.9189C12.1943 3.33819 18.2909 0.284377 24.6512 0.0188285C30.9785 -0.24672 37.6024 2.30919 42.1831 6.8899Z" fill="white"/>
<path d="M37.8864 15.6668L41.1412 15.8374C41.6294 15.863 42.007 16.2996 41.9804 16.8078L40.9142 37.1518C40.8876 37.6599 40.4664 38.0547 39.9781 38.0291L24.8877 37.2383C24.3995 37.2127 24.0219 36.776 24.0485 36.2679L24.3939 29.6775L37.8864 15.6668Z" fill="#FF8500"/>
<path d="M38.5055 34.7585L31.9928 34.4172C31.7359 34.4037 31.5386 34.1846 31.552 33.9276C31.5655 33.6706 31.7847 33.4733 32.0416 33.4868L38.5543 33.8281C38.8112 33.8416 39.0086 34.0607 38.9951 34.3177C38.9816 34.5746 38.7625 34.7719 38.5055 34.7585Z" fill="white"/>
<path d="M38.6518 31.9675L32.1391 31.6262C31.8822 31.6127 31.6848 31.3936 31.6983 31.1366C31.7117 30.8796 31.9309 30.6823 32.1878 30.6958L38.7005 31.0371C38.9575 31.0505 39.1548 31.2697 39.1414 31.5267C39.1279 31.7836 38.9087 31.9809 38.6518 31.9675Z" fill="white"/>
<path d="M38.798 29.1765L32.2853 28.8351C32.0284 28.8217 31.831 28.6025 31.8445 28.3456C31.858 28.0886 32.0772 27.8913 32.3341 27.9048L38.8468 28.2461C39.1037 28.2595 39.3011 28.4787 39.2876 28.7356C39.2741 28.9926 39.0549 29.1899 38.798 29.1765Z" fill="white"/>
<path d="M38.9443 26.3854L32.4316 26.0441C32.1747 26.0307 31.9773 25.8115 31.9908 25.5545C32.0042 25.2976 32.2234 25.1003 32.4803 25.1137L38.993 25.4551C39.2499 25.4685 39.4473 25.6877 39.4338 25.9446C39.4204 26.2016 39.2012 26.3989 38.9443 26.3854Z" fill="white"/>
<path d="M39.0905 23.5939L32.5778 23.2526C32.3209 23.2392 32.1235 23.02 32.137 22.763C32.1505 22.5061 32.3697 22.3088 32.6266 22.3222L39.1393 22.6635C39.3962 22.677 39.5935 22.8961 39.5801 23.1531C39.5666 23.4101 39.3474 23.6074 39.0905 23.5939Z" fill="white"/>
<path d="M39.2367 20.8029L32.7241 20.4616C32.4671 20.4481 32.2698 20.229 32.2832 19.972C32.2967 19.7151 32.5159 19.5178 32.7728 19.5312L39.2855 19.8725C39.5424 19.886 39.7398 20.1051 39.7263 20.3621C39.7128 20.6191 39.4937 20.8164 39.2367 20.8029Z" fill="white"/>
<path fill-rule="evenodd" clip-rule="evenodd" d="M8.99513 14.4723C7.89325 14.5494 7.06246 15.5051 7.13951 16.6069L7.77173 25.6481C7.81314 26.2402 8.11541 26.7834 8.59679 27.1306L10.6523 28.6134L11.4428 39.9191C11.5199 41.021 12.4756 41.8518 13.5775 41.7747L29.9819 40.6276C31.0837 40.5506 31.9145 39.5949 31.8375 38.493L30.1943 14.9948C30.1173 13.8929 29.1616 13.0621 28.0597 13.1392L9.66017 14.4258L8.99513 14.4723Z" fill="#FFB70A"/>
<path d="M35.3786 34.4027L16.6009 33.0896C15.9124 33.0415 15.3895 32.4235 15.439 31.7163L17.0573 8.57286C17.1068 7.8657 17.7105 7.3265 18.3991 7.37465L37.1767 8.68771C37.8653 8.73586 38.3881 9.35383 38.3387 10.061L36.7203 33.2045C36.6709 33.9116 36.0671 34.4508 35.3786 34.4027Z" fill="#030062"/>
<path d="M29.1084 24.1626C28.4237 24.5712 25.0783 24.3373 24.4572 23.8374C23.2153 25.2246 19.7531 24.1801 19.506 27.714L19.3889 29.3883C19.3847 29.4484 19.4323 29.5007 19.4951 29.5051L33.2333 30.4657C33.2962 30.4701 33.3506 30.425 33.3548 30.3649L33.4719 28.6906C33.719 25.1567 30.145 25.7092 29.1084 24.1626Z" fill="#3531B3"/>
<path d="M32.3077 16.6645C32.4733 14.297 30.3744 12.2216 27.6197 12.029C24.865 11.8363 22.4976 13.5994 22.3321 15.9669L22.1643 18.3667C21.9987 20.7341 24.0976 22.8095 26.8523 23.0022C29.6071 23.1948 31.9744 21.4317 32.1399 19.0642C32.1764 18.5418 32.2712 17.1868 32.3077 16.6645Z" fill="#3531B3"/>
</svg>
