<svg width="60" height="61" viewBox="0 0 60 61" fill="none" xmlns="http://www.w3.org/2000/svg">
<path d="M45.0152 14.1357C48.8998 18.5604 50.7656 24.4095 50.9798 30.501C51.1939 36.5621 49.7257 42.8355 45.8105 47.7451C41.9259 52.6849 35.5943 56.2307 29.538 55.9883C23.4511 55.7155 17.6701 51.6242 12.9902 46.7146C8.34089 41.7748 4.82334 36.0469 5.00686 30.4706C5.19039 24.8943 9.0444 19.4999 13.7243 15.0752C18.3736 10.6808 23.8181 7.22596 29.5074 7.01382C35.1966 6.77137 41.1 9.74136 45.0152 14.1357Z" fill="white"/>
<g filter="url(#filter0_d_2_4139)">
<path d="M35.7252 4.52073L14.931 10.1284C13.8645 10.416 13.2331 11.5137 13.5207 12.5802L23.1758 48.3824C23.4634 49.4489 24.5611 50.0803 25.6275 49.7927L46.4217 44.185C47.4882 43.8974 48.1196 42.7997 47.832 41.7333L38.1769 5.93099C37.8893 4.86452 36.7916 4.23312 35.7252 4.52073Z" fill="#3532B3"/>
<path d="M15.2309 18.9215C14.8115 17.3662 16.1501 16.3734 17.1676 17.6222C18.2189 18.9125 19.3357 20.8559 20.114 23.7418C22.0274 30.837 19.2361 33.7735 19.9802 36.5325L15.2309 18.9215Z" fill="#FFC32B"/>
<path d="M45.391 32.681C45.1561 31.8103 44.3627 31.1987 43.4764 31.3657C41.8715 31.6681 39.5774 32.5438 39.6458 35.0793C39.7454 38.7716 35.4257 41.0986 34.9891 41.3242C34.9635 41.3374 34.9439 41.3465 34.9178 41.3587C34.5357 41.5372 31.2078 43.1738 30.5633 46.315C30.3291 47.4565 31.5195 48.2038 32.6446 47.9004L46.4219 44.185C47.4883 43.8974 48.1197 42.7997 47.8321 41.7332L45.391 32.681Z" fill="#FF8500"/>
<path opacity="0.6" d="M28.4819 49.0304C27.2804 49.3544 26.1151 48.4713 26.5871 47.3198C27.327 45.5147 29.356 43.4188 34.8622 44.0447C36.8285 44.2682 36.8129 46.7837 34.9021 47.299L28.4819 49.0304Z" fill="#540A7F"/>
<path d="M16.8286 9.61659C15.6772 9.92708 15.1896 11.1957 16.2752 11.6892C17.2449 12.13 18.7499 12.3497 21.0349 11.7335C22.8969 11.2313 23.834 10.0013 24.9747 8.55481C25.5771 7.79044 26.3653 7.04475 27.3283 6.78506L16.8286 9.61659Z" fill="#FF8500"/>
<path d="M32.796 5.3107C33.7172 5.06227 34.293 7.21589 34.2177 7.8056C34.0025 9.4905 33.5847 10.0837 33.3009 10.806C32.97 11.648 32.777 11.8519 32.7592 12.4388C32.7324 13.3233 32.9733 14.2395 33.5473 14.9106C34.6555 16.2061 36.2114 15.7089 37.6375 15.4294C37.8367 15.3907 40.5831 14.8528 40.5466 14.7175L38.177 5.931C37.8894 4.86453 36.792 4.23305 35.7256 4.52066C34.3791 4.88376 32.8189 5.30451 32.796 5.3107Z" fill="#FFC32B"/>
<path opacity="0.6" d="M36.3763 33.067C35.2834 31.1241 30.289 31.8678 25.2201 34.7277C23.7394 35.5637 22.4169 36.4873 21.3128 37.4247C20.7566 37.8969 20.5527 38.6548 20.7426 39.3592L21.6379 42.679C21.9021 43.6588 22.8618 44.293 23.8404 44.0239C25.4854 43.5715 27.3267 42.809 29.1777 41.7648C34.2462 38.9037 37.4691 35.0098 36.3763 33.067Z" fill="#540A7F"/>
</g>
<path d="M40.6361 48.3639C41.4622 49.1901 42.4253 49.8398 43.4963 50.2922C44.6068 50.7613 45.7858 51 47 51C48.2143 51 49.3932 50.7613 50.5037 50.2922C51.5747 49.8397 52.5378 49.19 53.3639 48.3639C54.1901 47.5378 54.8398 46.5747 55.2922 45.5037C55.7613 44.3932 56 43.2142 56 42C56 40.7857 55.7613 39.6068 55.2922 38.4963C54.8398 37.4253 54.1901 36.4622 53.3639 35.6361C52.5378 34.81 51.5747 34.1603 50.5037 33.7078C49.3932 33.2366 48.2143 33 47 33C45.7858 33 44.6068 33.2387 43.4963 33.7078C42.4253 34.1603 41.4622 34.81 40.6361 35.6361C39.81 36.4622 39.1603 37.4253 38.7078 38.4963C38.2366 39.6068 38 40.7858 38 42C38 43.2143 38.2387 44.3932 38.7078 45.5037C39.1603 46.5768 39.81 47.5378 40.6361 48.3639ZM53.9244 42C53.9244 43.8494 53.2041 45.5888 51.8965 46.8965C50.5888 48.2041 48.8494 48.9244 47 48.9244C45.5014 48.9244 44.0754 48.4511 42.8923 47.5752L52.5773 37.8902C53.4511 39.0754 53.9244 40.5014 53.9244 42ZM42.1036 37.1036C43.4112 35.7959 45.1506 35.0756 47 35.0756C48.4986 35.0756 49.9246 35.5489 51.1077 36.4248L41.4227 46.1077C40.5468 44.9246 40.0736 43.4986 40.0736 42C40.0756 40.1506 40.7959 38.4112 42.1036 37.1036Z" fill="#D63B3B"/>
<defs>
<filter id="filter0_d_2_4139" x="6.45117" y="1.45117" width="48.4507" height="59.411" filterUnits="userSpaceOnUse" color-interpolation-filters="sRGB">
<feFlood flood-opacity="0" result="BackgroundImageFix"/>
<feColorMatrix in="SourceAlpha" type="matrix" values="0 0 0 0 0 0 0 0 0 0 0 0 0 0 0 0 0 0 127 0" result="hardAlpha"/>
<feOffset dy="4"/>
<feGaussianBlur stdDeviation="3.5"/>
<feComposite in2="hardAlpha" operator="out"/>
<feColorMatrix type="matrix" values="0 0 0 0 0 0 0 0 0 0 0 0 0 0 0 0 0 0 0.1 0"/>
<feBlend mode="normal" in2="BackgroundImageFix" result="effect1_dropShadow_2_4139"/>
<feBlend mode="normal" in="SourceGraphic" in2="effect1_dropShadow_2_4139" result="shape"/>
</filter>
</defs>
</svg>
