<svg width="60" height="62" viewBox="0 0 60 62" fill="none" xmlns="http://www.w3.org/2000/svg">
<circle cx="26" cy="26" r="26" fill="#FFB70A"/>
<mask id="mask0_2_19814" style="mask-type:alpha" maskUnits="userSpaceOnUse" x="0" y="0" width="52" height="52">
<circle cx="26" cy="26" r="26" fill="#FFB70A"/>
</mask>
<g mask="url(#mask0_2_19814)">
<circle cx="26" cy="52" r="17.875" fill="white"/>
<circle cx="26" cy="23.5625" r="8.9375" fill="white"/>
</g>
<g filter="url(#filter0_d_2_19814)">
<circle cx="44" cy="44" r="12" fill="white"/>
</g>
<path fill-rule="evenodd" clip-rule="evenodd" d="M51.1006 49.453C51.3563 49.2099 51.5 48.8802 51.5 48.5364V41.4068C51.5 41.063 51.3563 40.7332 51.1006 40.4901C50.8449 40.247 50.498 40.1105 50.1364 40.1105H47.4091L46.0455 38.166H41.9545L40.5909 40.1105H37.8636C37.502 40.1105 37.1551 40.247 36.8994 40.4901C36.6437 40.7332 36.5 41.063 36.5 41.4068V48.5364C36.5 48.8802 36.6437 49.2099 36.8994 49.453C37.1551 49.6961 37.502 49.8327 37.8636 49.8327H50.1364C50.498 49.8327 50.8449 49.6961 51.1006 49.453ZM42 44.8327C42 43.7281 42.8954 42.8327 44 42.8327C45.1046 42.8327 46 43.7281 46 44.8327C46 45.9373 45.1046 46.8327 44 46.8327C42.8954 46.8327 42 45.9373 42 44.8327ZM44 41.8327C42.3431 41.8327 41 43.1758 41 44.8327C41 46.4895 42.3431 47.8327 44 47.8327C45.6569 47.8327 47 46.4895 47 44.8327C47 43.1758 45.6569 41.8327 44 41.8327Z" fill="#3531B3"/>
<defs>
<filter id="filter0_d_2_19814" x="28" y="30" width="32" height="32" filterUnits="userSpaceOnUse" color-interpolation-filters="sRGB">
<feFlood flood-opacity="0" result="BackgroundImageFix"/>
<feColorMatrix in="SourceAlpha" type="matrix" values="0 0 0 0 0 0 0 0 0 0 0 0 0 0 0 0 0 0 127 0" result="hardAlpha"/>
<feOffset dy="2"/>
<feGaussianBlur stdDeviation="2"/>
<feComposite in2="hardAlpha" operator="out"/>
<feColorMatrix type="matrix" values="0 0 0 0 0 0 0 0 0 0 0 0 0 0 0 0 0 0 0.15 0"/>
<feBlend mode="normal" in2="BackgroundImageFix" result="effect1_dropShadow_2_19814"/>
<feBlend mode="normal" in="SourceGraphic" in2="effect1_dropShadow_2_19814" result="shape"/>
</filter>
</defs>
</svg>
