<svg width="229" height="228" viewBox="0 0 229 228" fill="none" xmlns="http://www.w3.org/2000/svg">
<path d="M119.153 192.293C99.6699 192.984 79.668 184.99 66.4619 171.307C53.1828 157.556 46.6316 138.189 44.4019 117.112C42.1722 96.0356 44.2691 73.3904 56.5934 60.1469C68.9228 47.0448 91.3384 43.3493 112.565 44.012C133.724 44.7479 153.621 49.7738 167.06 62.0333C180.571 74.3611 187.76 93.7761 188.314 113.426C188.935 133.003 183.063 152.811 170.506 167.478C158.018 182.071 138.704 191.529 119.153 192.293Z" fill="#221F7A"/>
<path d="M192.292 111.624C192.292 147.562 156.227 188.349 119.298 188.349C82.3692 188.349 44.4521 147.562 44.4521 111.624C44.4521 75.5618 82.3692 44.3494 119.298 44.3494C156.227 44.3494 192.292 75.5618 192.292 111.624Z" fill="#534ED9"/>
<rect width="71.3434" height="124.302" rx="7" transform="matrix(0.984755 -0.173947 0.17335 0.98486 62.7241 39.9973)" fill="#C36600"/>
<rect width="71.3434" height="124.302" rx="7" transform="matrix(0.984755 -0.173947 0.17335 0.98486 64.7393 36.7595)" fill="#FF8500"/>
<rect width="61.2711" height="103.304" rx="7" transform="matrix(0.984755 -0.173947 0.173349 0.98486 71.9805 44.009)" fill="#3531B3"/>
<path d="M206.964 176.33C221.379 167.996 225.091 152.485 217.411 145.856C209.775 139.267 192.85 143.141 189.468 159.979C187.428 170.136 180.305 175.284 174.976 177.769C173.331 178.536 173.669 180.941 175.453 181.196C188.849 183.108 199.382 180.713 206.96 176.333C206.962 176.332 206.962 176.332 206.964 176.33Z" fill="white"/>
<path d="M5.51262 122.502C-1.99309 133.505 22.466 174.784 54.1787 165.163C55.736 164.69 55.8203 162.528 54.3127 161.916C48.8156 159.687 40.1525 153.92 36.9014 139.276C33.763 125.148 24.3057 118.619 16.3069 118.042C11.7681 117.715 7.69777 119.303 5.51262 122.502Z" fill="#FFB70A"/>
<path d="M31.447 112.736C31.447 112.736 36.6678 112.373 36.4893 105.294C36.3188 98.2182 40.6403 97.507 38.8577 94.5873C37.0725 91.6623 24.0838 96.7006 23.0261 103.024C21.9762 109.351 29.1396 113.604 31.447 112.736Z" fill="#FF8500"/>
<path d="M127.5 146C127.5 148.209 125.709 150 123.5 150C121.291 150 119.5 148.209 119.5 146C119.5 143.791 121.291 142 123.5 142C125.709 142 127.5 143.791 127.5 146Z" fill="white"/>
<circle cx="112.5" cy="85.0002" r="21" transform="rotate(-10 112.5 85.0002)" fill="white"/>
<rect x="98.4819" y="80.364" width="18.6667" height="14" rx="2" transform="rotate(-10 98.4819 80.364)" fill="#3531B3"/>
<path d="M118.736 81.0161C118.667 80.6222 118.839 80.2247 119.174 80.0057L124.788 76.3322C125.388 75.9391 126.195 76.2883 126.32 76.9953L128.241 87.8917C128.362 88.5727 127.771 89.1671 127.089 89.0511L120.634 87.9531C120.217 87.8822 119.89 87.5571 119.816 87.1409L118.736 81.0161Z" fill="#3531B3"/>
<ellipse cx="167.38" cy="72.5323" rx="30.7592" ry="35.1533" transform="rotate(9 167.38 72.5323)" fill="#168BC3"/>
<path d="M132.438 98.8591C137.498 96.4634 139.39 90.7872 139.5 88.5L147.499 89.9999L147.576 95.4994C145.32 99.8359 137.825 100.432 132.563 100.075C132.001 100.037 131.929 99.1 132.438 98.8591Z" fill="#168BC3"/>
<mask id="mask0_1_5533" style="mask-type:alpha" maskUnits="userSpaceOnUse" x="136" y="37" width="63" height="71">
<ellipse cx="167.38" cy="72.5323" rx="30.7592" ry="35.1533" transform="rotate(9 167.38 72.5323)" fill="#168BC3"/>
</mask>
<g mask="url(#mask0_1_5533)">
<ellipse rx="4.51534" ry="5.41841" transform="matrix(-0.985408 0.170211 0.170211 0.985408 154.347 74.7961)" fill="#221F7A"/>
<circle r="9.93375" transform="matrix(-0.999937 -0.0112433 -0.0112433 0.999937 176.817 84.8563)" fill="#1B1831"/>
<circle r="7.82659" transform="matrix(-0.999937 -0.0112433 -0.0112433 0.999937 170.587 76.6583)" fill="#FFB70A"/>
<path d="M200.118 100.889C194.436 92.1553 180.143 92.4361 173.707 93.6682L160.152 94.4189C143.547 93.2689 137.202 109.614 136.105 117.931C135.599 120.093 136.672 121.048 137.272 121.255L147.476 124.08L146.552 152.668C149.894 155.355 157.926 158.516 161.524 159.76C175.199 164.49 191.345 158.189 197.709 154.448L188.977 127.858C200.541 127.506 207.321 120.638 209.266 117.248C208.584 115.434 205.799 109.623 200.118 100.889Z" fill="#EB573D"/>
<path d="M167.937 54.711C176.102 56.7295 178.66 64.8663 178.918 68.6824C182.558 76.9117 172.067 84.4603 166.367 87.2059L150.624 68.3643C149.442 66.4243 151.195 62.1492 152.22 60.2541C156.146 53.7958 164.334 53.8678 167.937 54.711Z" fill="#272346"/>
<path d="M159.851 87.3749C152.646 85.608 151.375 73.7327 151.64 68.0159C155.492 68.0592 158.909 64.0837 160.135 62.0906C160.106 64.7394 162.896 66.4365 164.295 66.954C166.214 67.6981 168.075 69.9066 168.766 70.9178L172.01 76.9751C170.751 81.7777 174.154 89.643 176.12 93.2776C176.775 99.3058 172.531 101.967 170.22 102.243C164.92 102.424 163.235 96.8456 163.163 94.3361C164.685 92.848 163.512 90.1254 162.861 87.4087C161.411 87.8741 160.25 87.5801 159.851 87.3749Z" fill="#F19B79"/>
<path d="M159.051 67.5821C160.983 67.1222 162.449 68.8245 162.94 69.7331C160.548 68.2612 158.737 68.6824 158.131 69.077C157.633 68.7703 157.119 68.0421 159.051 67.5821Z" fill="#272346"/>
<path d="M153.994 68.5315C152.691 68.6389 152.122 70.0035 152.001 70.6724C153.196 69.2625 154.415 69.1556 154.875 69.2783C155.124 68.9846 155.296 68.424 153.994 68.5315Z" fill="#272346"/>
<path d="M163.471 76.061C163.201 78.7072 159.913 80.1353 158.303 80.5186C158.525 82.2069 160.184 82.8477 160.985 82.9571C164.603 82.5161 164.15 78.176 163.471 76.061Z" fill="white" stroke="#ED8766" stroke-linejoin="round"/>
<ellipse rx="0.602046" ry="1.20409" transform="matrix(0.991855 -0.127369 -0.127369 -0.991855 160.793 73.3213)" fill="#333333"/>
<ellipse rx="0.586673" ry="1.1517" transform="matrix(-0.985699 0.168518 0.168518 0.985699 154.073 74.2006)" fill="#333333"/>
<ellipse rx="4.51534" ry="5.41841" transform="matrix(-0.985408 0.170211 0.170211 0.985408 169.438 71.3533)" fill="#030062"/>
<path d="M156.572 73.8761L155.93 77.4814C156.028 77.6832 156.586 78.0307 158.033 77.8061" stroke="#ED8766"/>
<ellipse rx="4.51534" ry="5.41841" transform="matrix(-0.985408 0.170211 0.170211 0.985408 170.649 70.7646)" fill="#221F7A"/>
<path fill-rule="evenodd" clip-rule="evenodd" d="M166.599 60.8994C165.8 59.1246 164.353 58.0071 162.439 57.5645C160.501 57.1165 158.064 57.3589 155.357 58.3832C152.687 59.3936 151.69 60.6526 151.339 61.709C150.976 62.7999 151.24 63.8322 151.433 64.537L150.272 64.8547L150.271 64.8526C150.078 64.1475 149.708 62.7957 150.196 61.3288C150.696 59.8259 152.038 58.3516 154.931 57.2571C157.787 56.1764 160.474 55.8744 162.71 56.3914C164.966 56.913 166.739 58.2664 167.703 60.4184C167.707 60.4261 167.71 60.4338 167.713 60.4416L169.72 65.3526L168.601 65.7985L166.599 60.8994Z" fill="black"/>
<path d="M151.177 62.592C150.872 63.1846 150.262 64.7182 150.234 66.1508L150.233 66.1939C150.218 67.6054 150.227 66.806 150.234 66.1937L152.662 64.4149L151.177 62.592Z" fill="#272346"/>
<path d="M157.853 84.6429C154.964 84.6104 153.856 83.1931 153.663 82.4885L152.496 79.1639" stroke="black"/>
<ellipse rx="1.80614" ry="1.2693" transform="matrix(-0.999937 -0.0112433 -0.0112433 0.999937 159.057 84.6566)" fill="#3531B3"/>
</g>
<ellipse rx="8.42124" ry="17.656" transform="matrix(0.891507 0.453007 -0.452226 0.891903 194.992 19.5623)" fill="#FFB70A"/>
<ellipse cx="208.969" cy="47.5" rx="8.49078" ry="8.5" fill="#FF8500"/>
</svg>
