<svg width="60" height="60" viewBox="0 0 60 60" fill="none" xmlns="http://www.w3.org/2000/svg">
<circle cx="30" cy="30" r="30" fill="white"/>
<path d="M23.4538 24.0841C18.2326 24.0841 14 28.3167 14 33.538C14 38.7592 18.2326 42.9918 23.4538 42.9918C28.6751 42.9918 32.9077 38.7592 32.9077 33.538C32.9077 28.3167 28.6751 24.0841 23.4538 24.0841ZM23.4538 41.3036C19.1651 41.3036 15.6882 37.8267 15.6882 33.538C15.6882 29.2492 19.1651 25.7723 23.4538 25.7723C27.7427 25.7723 31.2195 29.2492 31.2195 33.538C31.2195 37.8267 27.7427 41.3036 23.4538 41.3036Z" fill="#FFCE54"/>
<path fill-rule="evenodd" clip-rule="evenodd" d="M29.8521 26.2227L29.4026 26.6814L29.3646 26.6407L29.1895 26.8989L29.1664 26.9224L29.1706 26.9267L28.6615 27.6775C27.5278 29.3493 26.8652 31.3678 26.8652 33.538C26.8652 39.3115 31.5456 43.9918 37.319 43.9918C43.0926 43.9918 47.7729 39.3115 47.7729 33.538C47.7729 27.7644 43.0925 23.0841 37.319 23.0841C34.3936 23.0841 31.7481 24.2875 29.8521 26.2227ZM31.7167 29.7017L31.6896 29.6541L32.3736 28.9217C33.61 27.5979 35.3673 26.7723 37.319 26.7723C41.0556 26.7723 44.0847 29.8015 44.0847 33.5379C44.0847 37.2744 41.0556 40.3035 37.319 40.3035C33.5825 40.3035 30.5534 37.2744 30.5534 33.5379C30.5534 32.3207 30.8742 31.1815 31.435 30.1964L31.7167 29.7017Z" fill="#FF8500"/>
<path fill-rule="evenodd" clip-rule="evenodd" d="M32.3041 39.3595L31.7838 40.127L31.7867 40.13L31.7708 40.1462L31.601 40.3966L31.5641 40.3572L31.1011 40.8298C29.1858 42.7846 26.5137 44 23.5588 44C17.7274 44 13 39.2726 13 33.4411C13 27.6095 17.7274 22.8822 23.5588 22.8822C29.3904 22.8822 34.1178 27.6096 34.1178 33.4411C34.1178 35.6327 33.4488 37.6711 32.3041 39.3595ZM29.2648 37.3695L28.5674 38.1162C27.3153 39.4569 25.5356 40.2931 23.5588 40.2931C19.7748 40.2931 16.707 37.2253 16.707 33.4411C16.707 29.657 19.7748 26.5892 23.5588 26.5892C27.3431 26.5892 30.4109 29.657 30.4109 33.4411C30.4109 34.6736 30.086 35.8274 29.5181 36.8249L29.2365 37.3197L29.2648 37.3695ZM14 33.4411C14 33.4573 14 33.4735 14.0001 33.4897V33.4897L14 33.4411Z" fill="#FFB70A"/>
<path d="M34.2151 14.808C33.1581 13.7307 31.444 13.7307 30.3863 14.808C29.3292 13.7307 27.6152 13.7307 26.5574 14.808C25.5004 15.8862 25.5004 17.6331 26.5574 18.7112L30.0338 22.2538H30.0347C30.1244 22.3461 30.2489 22.4034 30.3865 22.4034C30.523 22.4034 30.6467 22.347 30.7363 22.2559H30.7367L34.2151 18.7111C35.2728 17.6332 35.2728 15.8862 34.2151 14.808Z" fill="#B22DA4"/>
</svg>
