<svg width="60" height="60" viewBox="0 0 60 60" fill="none" xmlns="http://www.w3.org/2000/svg">
<circle cx="30" cy="30" r="30" fill="white"/>
<rect x="14" y="18" width="33" height="8" rx="4" fill="#3531B3"/>
<path d="M20 22H41V38C41 40.2091 39.2091 42 37 42H24C21.7909 42 20 40.2091 20 38V22Z" fill="#FF8500"/>
<path d="M32.997 29.1969C32.696 29.1969 32.458 29.4349 32.458 29.7359C32.458 30.0369 32.696 30.2749 32.997 30.2749H34.068V31.1359L32.738 32.1859C32.577 32.3189 32.458 32.4729 32.458 32.7179C32.458 32.9769 32.654 33.2289 32.955 33.2289C33.123 33.2289 33.235 33.1589 33.368 33.0539L34.278 32.3049C34.523 32.8999 34.992 33.2849 35.769 33.2849H35.783C36.252 33.2849 36.623 33.1449 36.903 32.8649C37.232 32.5359 37.4 32.0599 37.4 31.4369V29.7359C37.4 29.4349 37.162 29.1969 36.861 29.1969H32.997ZM35.02 30.2749H36.427V31.3459C36.427 31.8779 36.196 32.1929 35.727 32.1929H35.713C35.293 32.1929 35.02 31.8989 35.02 31.3669V30.2749ZM31.87 34.1435C31.569 34.1435 31.338 34.3745 31.338 34.6755C31.338 34.9765 31.569 35.2075 31.87 35.2075H32.99C32.689 35.4595 32.43 35.8095 32.43 36.3765C32.43 37.2655 33.116 38.0845 34.369 38.0845H34.383C35.636 38.0845 36.322 37.2515 36.322 36.3765C36.322 35.8165 36.07 35.4665 35.713 35.2075H35.762C36.063 35.2075 36.294 34.9765 36.294 34.6755C36.294 34.3745 36.063 34.1435 35.762 34.1435H31.87ZM33.333 36.1035C33.333 35.6065 33.746 35.1935 34.369 35.1935H34.383C35.006 35.1935 35.419 35.6065 35.419 36.1035C35.419 36.6005 35.006 37.0205 34.383 37.0205H34.369C33.739 37.0205 33.333 36.6005 33.333 36.1035Z" fill="white"/>
<rect opacity="0.2" x="17" y="22" width="27" height="2" rx="1" fill="black"/>
</svg>
