<svg width="109" height="6" viewBox="0 0 109 6" fill="none" xmlns="http://www.w3.org/2000/svg">
<path d="M99.1931 6C96.49 6 95.1665 4.57969 93.9985 3.32695C92.9348 2.18555 92.0166 1.2 90.2462 1.2C88.4781 1.2 87.5599 2.18555 86.4972 3.32695C85.3304 4.57969 84.008 6 81.306 6C78.604 6 77.2805 4.57969 76.1137 3.32734C75.0499 2.18594 74.1317 1.2 72.3625 1.2C70.5943 1.2 69.6762 2.18555 68.6135 3.32695C67.4467 4.57969 66.1243 6 63.4234 6C60.7225 6 59.4001 4.57969 58.2333 3.32695C57.1706 2.18555 56.2535 1.2 54.4854 1.2C52.7173 1.2 51.8002 2.18555 50.7376 3.32695C49.5708 4.57969 48.2484 6 45.5475 6C42.8466 6 41.5242 4.57969 40.3574 3.32695C39.2947 2.18555 38.3776 1.2 36.6095 1.2C34.8437 1.2 33.9266 2.18554 32.8639 3.32656C31.6983 4.57969 30.3769 6 27.6761 6C24.9741 6 23.6516 4.57969 22.4849 3.32695C21.4222 2.18555 20.504 1.2 18.7359 1.2C16.9678 1.2 16.0507 2.18555 14.988 3.32695C13.8212 4.57969 12.4988 6 9.79794 6C7.09708 6 5.77463 4.57969 4.60783 3.32695C3.54517 2.18555 2.62809 1.2 0.859978 1.2C0.631898 1.2 0.413159 1.13679 0.251882 1.02426C0.0906047 0.911743 0 0.75913 0 0.6C0 0.44087 0.0906047 0.288257 0.251882 0.175735C0.413159 0.0632136 0.631898 0 0.859978 0C3.56085 0 4.88329 1.42031 6.05008 2.67305C7.11274 3.81406 8.02982 4.8 9.79794 4.8C11.5661 4.8 12.4831 3.81406 13.5458 2.67305C14.7126 1.42031 16.035 0 18.7359 0C21.4379 0 22.7603 1.42031 23.9271 2.67305C24.9898 3.81406 25.908 4.8 27.6761 4.8C29.4419 4.8 30.359 3.81406 31.4217 2.67344C32.5873 1.42031 33.9087 0 36.6095 0C39.3104 0 40.6328 1.42031 41.7996 2.67305C42.8623 3.81406 43.7794 4.8 45.5475 4.8C47.3156 4.8 48.2327 3.81406 49.2953 2.67305C50.4621 1.42031 51.7846 0 54.4854 0C57.1863 0 58.5088 1.42031 59.6755 2.67305C60.7382 3.81406 61.6553 4.8 63.4234 4.8C65.1904 4.8 66.1086 3.81484 67.1712 2.67344C68.338 1.42031 69.6605 0 72.3624 0C75.0656 0 76.3891 1.42031 77.5559 2.67305C78.6186 3.81406 79.5368 4.8 81.306 4.8C83.0741 4.8 83.9923 3.81406 85.055 2.67305C86.2217 1.42031 87.5442 0 90.2462 0C92.9493 0 94.2729 1.41992 95.4408 2.67305C96.5046 3.81406 97.4228 4.8 99.1931 4.8C100.963 4.8 101.882 3.81406 102.945 2.67305C104.113 1.41992 105.437 0 108.14 0C108.368 0 108.587 0.0632136 108.748 0.175735C108.909 0.288257 109 0.44087 109 0.6C109 0.75913 108.909 0.911743 108.748 1.02426C108.587 1.13679 108.368 1.2 108.14 1.2C106.37 1.2 105.451 2.18555 104.388 3.32695C103.22 4.57969 101.896 6 99.1931 6Z" fill="white"/>
</svg>
