<svg width="119" height="102" viewBox="0 0 119 102" fill="none" xmlns="http://www.w3.org/2000/svg">
<g filter="url(#filter0_d_73_11203)">
<path d="M79.4769 32.7986C85.5629 37.9167 89.9101 44.9652 92.6099 53.2259C95.2639 61.5315 96.2706 71.0942 92.6556 78.8161C89.0406 86.583 80.8497 92.5092 72.2468 94.3499C63.5983 96.1906 54.4921 93.9009 46.6215 90.2644C38.7508 86.6279 32.1157 81.5996 27.2194 74.8654C22.2774 68.0862 19.12 59.5561 20.2182 51.5199C21.3622 43.4837 26.7618 35.9413 33.763 31.0028C40.7185 26.0194 49.2755 23.64 57.4207 24.0441C65.6117 24.493 73.3908 27.6806 79.4769 32.7986Z" fill="white"/>
</g>
<rect x="35.0146" y="50.1543" width="43.375" height="10.5152" rx="4" transform="rotate(-11 35.0146 50.1543)" fill="#3531B3"/>
<path d="M43.7593 53.8105L70.8544 48.5438L75.1071 70.4222C75.5287 72.5907 74.1124 74.6904 71.9439 75.1119L52.7017 78.8522C50.5332 79.2737 48.4335 77.8575 48.012 75.6889L43.7593 53.8105Z" fill="#FF8500"/>
<path d="M62.3332 59.8367C61.9448 59.9122 61.6975 60.2789 61.7729 60.6673C61.8484 61.0557 62.2152 61.3031 62.6036 61.2276L63.9854 60.959L64.2014 62.0699L62.7487 63.7582C62.5743 63.9702 62.4594 64.1987 62.5208 64.5148C62.5858 64.849 62.9019 65.125 63.2902 65.0495C63.507 65.0074 63.634 64.8889 63.7792 64.7201L64.7655 63.5255C65.2308 64.2317 65.9325 64.6109 66.935 64.416L66.9531 64.4125C67.5582 64.2949 68.0018 64.0212 68.2928 63.5897C68.6348 63.0827 68.7322 62.4264 68.5759 61.6226L68.1493 59.4279C68.0739 59.0395 67.7071 58.7921 67.3187 58.8676L62.3332 59.8367ZM65.2137 60.7202L67.0291 60.3673L67.2977 61.7492C67.4311 62.4356 67.2121 62.9 66.607 63.0176L66.5889 63.0211C66.047 63.1264 65.621 62.8156 65.4876 62.1292L65.2137 60.7202Z" fill="white"/>
<path d="M62.1197 66.5017C61.7313 66.5771 61.4912 66.9331 61.5667 67.3215C61.6422 67.7099 61.9982 67.95 62.3866 67.8745L63.8316 67.5936C63.5065 67.9942 63.2601 68.5108 63.4023 69.2423C63.6252 70.3894 64.7157 71.274 66.3324 70.9598L66.3505 70.9563C67.9672 70.642 68.6434 69.3952 68.4239 68.2662C68.2835 67.5437 67.8705 67.1553 67.345 66.9107L67.4082 66.8984C67.7965 66.8229 68.0367 66.4669 67.9612 66.0785C67.8857 65.6902 67.5297 65.4501 67.1413 65.5255L62.1197 66.5017ZM64.4989 68.6636C64.3742 68.0224 64.8035 67.3859 65.6074 67.2297L65.6254 67.2262C66.4292 67.0699 67.0657 67.4992 67.1903 68.1405C67.315 68.7817 66.8875 69.4272 66.0836 69.5834L66.0656 69.5869C65.2527 69.7449 64.6235 69.3049 64.4989 68.6636Z" fill="white"/>
<rect opacity="0.2" x="39.8887" y="54.5625" width="35.4886" height="2.62879" rx="1" transform="rotate(-11 39.8887 54.5625)" fill="black"/>
<defs>
<filter id="filter0_d_73_11203" x="-4" y="0" width="123" height="119" filterUnits="userSpaceOnUse" color-interpolation-filters="sRGB">
<feFlood flood-opacity="0" result="BackgroundImageFix"/>
<feColorMatrix in="SourceAlpha" type="matrix" values="0 0 0 0 0 0 0 0 0 0 0 0 0 0 0 0 0 0 127 0" result="hardAlpha"/>
<feOffset/>
<feGaussianBlur stdDeviation="12"/>
<feColorMatrix type="matrix" values="0 0 0 0 0 0 0 0 0 0 0 0 0 0 0 0 0 0 0.3 0"/>
<feBlend mode="normal" in2="BackgroundImageFix" result="effect1_dropShadow_73_11203"/>
<feBlend mode="normal" in="SourceGraphic" in2="effect1_dropShadow_73_11203" result="shape"/>
</filter>
</defs>
</svg>
