<svg width="44" height="44" viewBox="0 0 44 44" fill="none" xmlns="http://www.w3.org/2000/svg">
<circle cx="22" cy="22" r="22" fill="white"/>
<path fill-rule="evenodd" clip-rule="evenodd" d="M24.812 22.182L19.438 24.727C19.294 24.795 19.129 24.691 19.129 24.534V19.284C19.129 19.124 19.299 19.021 19.442 19.094L24.817 21.797C24.977 21.877 24.974 22.105 24.812 22.182ZM27.572 15H16.082C13.828 15 12 16.815 12 19.053V24.756C12 26.994 13.828 28.808 16.083 28.808H27.573C29.827 28.808 31.654 26.994 31.654 24.756V19.053C31.654 16.815 29.826 15 27.573 15" fill="#3531B3"/>
</svg>
