<svg width="288" height="396" viewBox="0 0 288 396" fill="none" xmlns="http://www.w3.org/2000/svg">
<rect y="20" width="288" height="376" rx="12" fill="#221F7A"/>
<path d="M0 277.244C0 277.244 85.1875 328.418 132.39 294.233C167.795 268.601 197.801 262.581 210.597 261.165C218.711 260.271 226.675 258.304 234.176 255.07C252.371 247.217 279.768 229.707 288 193.748V90H0V277.244Z" fill="#030062"/>
<path d="M12 20.5C5.37259 20.5 0 25.8726 0 32.5V265.374C0 265.374 91.0785 313.382 152.613 262.913C188.137 233.776 209.091 221.871 220.47 217.008C232.744 211.757 243.93 204.252 253.4 194.824C269.209 179.085 288 155.752 288 133.643V32.5C288 25.8726 282.627 20.5 276 20.5H12Z" fill="#FFB70A"/>
<mask id="mask0_1_4564" style="mask-type:alpha" maskUnits="userSpaceOnUse" x="0" y="20" width="288" height="266">
<path d="M12 20.5C5.37259 20.5 0 25.8726 0 32.5V265.374C0 265.374 91.0785 313.382 152.613 262.913C188.137 233.776 209.091 221.871 220.47 217.008C232.744 211.757 243.93 204.252 253.4 194.824C269.209 179.085 288 155.752 288 133.643V32.5C288 25.8726 282.627 20.5 276 20.5H12Z" fill="#540A7F"/>
</mask>
<g mask="url(#mask0_1_4564)">
<rect x="23" y="48" width="107" height="70" rx="6" fill="#3531B3"/>
<rect x="26" y="52" width="101" height="30" rx="3" fill="#221F7A"/>
<rect x="61" y="86" width="36" height="3" rx="1.5" fill="#168BC3"/>
<rect width="36" height="3" rx="1.5" transform="matrix(-1 0 0 1 127 101)" fill="#168BC3"/>
<rect x="61" y="91" width="66" height="3" rx="1.5" fill="#168BC3"/>
<rect x="61" y="111" width="66" height="3" rx="1.5" fill="#168BC3"/>
<rect x="61" y="96" width="54" height="3" rx="1.5" fill="#168BC3"/>
<rect x="61" y="106" width="54" height="3" rx="1.5" fill="#168BC3"/>
<rect x="99" y="86" width="28" height="3" rx="1.5" fill="#168BC3"/>
<rect width="28" height="3" rx="1.5" transform="matrix(-1 0 0 1 89 101)" fill="#168BC3"/>
<rect x="26" y="86" width="33" height="28" rx="3" fill="#221F7A"/>
<path d="M30 172V148.316H71V118" stroke="white" stroke-opacity="0.5"/>
<circle cx="30" cy="177" r="12" fill="#0EAE3D"/>
<path d="M25 177.5L28.36 181L35 174" stroke="white" stroke-width="2" stroke-linecap="round" stroke-linejoin="round"/>
<rect x="74.5" y="169.5" width="57.369" height="30.5767" rx="2.5" stroke="white" stroke-opacity="0.5"/>
<rect x="75" y="156" width="65.0671" height="4.78435" rx="2.39217" fill="#FF8500"/>
<rect x="234" y="100" width="65.0671" height="4.78435" rx="2.39217" fill="#FF8500"/>
<path fill-rule="evenodd" clip-rule="evenodd" d="M132.969 182.875C132.63 183.274 132.332 183.729 132.079 184.256C131.627 185.195 131.201 187.024 131.175 187.293C131.128 185.547 129.302 183.175 127.684 181.075C126.596 179.661 125.602 178.37 125.309 177.475C124.337 174.507 125.936 172.527 127.602 170.463C128.444 169.422 129.302 168.358 129.856 167.136C132.272 161.797 128.667 159.255 124.952 156.635C122.077 154.608 119.137 152.535 118.87 149.083C118.638 146.083 120.322 143.259 121.971 140.494C123.009 138.752 124.034 137.034 124.558 135.309C125.992 130.582 125.613 125.523 125.176 120.684C125.124 120.107 125.068 119.517 125.011 118.916C124.151 109.859 123.055 98.3198 131.828 92.7622C137.346 80.5214 150.942 71.175 164.049 71.0035C181.164 70.7795 188.299 81.2355 196.158 92.7519C197.946 95.3715 199.771 98.046 201.76 100.662C204.487 104.25 208.239 105.382 211.896 106.485C215.25 107.497 218.524 108.484 220.853 111.32C223.165 114.134 223.844 117.399 224.529 120.69C225.349 124.633 226.178 128.612 229.831 131.897C231.093 133.032 232.35 134.04 233.551 135.004C238.23 138.759 242.086 141.854 242.287 149.203C242.339 151.079 242.034 152.99 241.728 154.907C241.288 157.663 240.846 160.43 241.46 163.124C242.247 166.58 244.356 168.833 246.533 171.157C247.704 172.407 248.894 173.678 249.908 175.168C255.413 183.255 248.865 192.116 243.95 198.532L244.083 199.114C210.855 206.311 141.808 213.941 131.444 186.878L132.969 182.875Z" fill="#233166"/>
<path fill-rule="evenodd" clip-rule="evenodd" d="M243.724 198.754C238.254 174.571 207.377 163.967 192.622 161.688L158.074 169.245C135.906 168.669 129.884 191.077 129.644 202.353L126.27 217.537C125.092 220.02 123.948 222.541 122.899 225.137C117.41 238.729 107.726 251.262 94.2199 256.957L91.4981 285.483H241.333C247.913 261.805 249.355 236.744 245.768 212.435L245.883 212.429L243.724 198.754Z" fill="#534ED9"/>
<path d="M158.266 169.853C158.547 170.194 158.957 170.598 159.263 170.913C163.018 174.788 168.587 176.755 173.75 176.132C179.092 175.486 185.07 171.769 188.507 167.489C188.935 166.956 189.502 166.188 190.108 165.336C191.029 164.044 192.041 162.561 192.8 161.409C192.485 161.289 192.203 161.141 191.9 161.018C191.612 160.904 191.32 160.79 191.022 160.679C189.045 159.935 186.938 159.281 185.082 158.319C184.029 157.774 183.057 157.131 182.231 156.316C181.906 155.995 181.605 155.648 181.33 155.27C181.183 155.066 181.043 154.854 180.912 154.632C180.849 154.526 180.787 154.416 180.728 154.305C180.395 153.68 180.16 153.023 180.005 152.344C179.766 151.304 179.715 150.213 179.797 149.112L179.108 149.498L177.454 150.424L175.251 151.657L160.791 159.751C160.791 159.751 160.757 160.87 160.681 162.217C160.658 162.614 160.631 163.031 160.6 163.444V163.445C160.52 164.528 160.41 165.589 160.267 166.222C160.247 166.314 160.212 166.424 160.165 166.548C160.033 166.901 159.809 167.362 159.564 167.831C159.025 168.863 158.266 169.853 158.266 169.853Z" fill="#FCD2CA"/>
<path d="M175.733 160.962C170.356 166.479 162.91 166.536 159.91 166.316C160.263 164.557 160.129 163.022 160.129 162.964C163.544 163.44 173.501 163.999 178.682 156.547C178.738 156.466 178.856 156.541 178.812 156.627C178.104 158.025 177.118 159.541 175.733 160.962Z" fill="#F1A898"/>
<path d="M132.982 121.563C133.078 122.293 133.207 123.022 133.336 123.747C133.467 124.492 133.609 125.233 133.761 125.973C134.061 127.433 134.401 128.886 134.78 130.329C135.161 131.782 135.582 133.225 136.043 134.658C136.502 136.086 137 137.501 137.536 138.904C138.073 140.306 138.646 141.696 139.259 143.07C139.873 144.448 140.525 145.812 141.215 147.156C141.931 148.555 142.685 149.938 143.512 151.278C144.327 152.601 145.211 153.887 146.19 155.1C147.176 156.322 148.265 157.471 149.466 158.496C150.6 159.465 151.834 160.31 153.156 161.019C154.494 161.738 155.936 162.296 157.42 162.653C158.903 163.01 160.435 163.16 161.96 163.059C162.084 163.051 162.208 163.041 162.332 163.029C163.605 162.908 164.856 162.606 166.069 162.219C167.46 161.777 168.811 161.217 170.125 160.587C171.39 159.981 172.623 159.307 173.818 158.578C175.052 157.826 176.249 157.014 177.389 156.13C177.441 156.089 177.494 156.047 177.548 156.003C177.622 155.946 177.695 155.887 177.768 155.828C178.186 155.496 178.594 155.152 178.996 154.799C179.255 154.571 179.511 154.338 179.763 154.103C180.014 153.868 180.275 153.635 180.51 153.385C180.186 152.44 180.031 151.45 180.018 150.456C180.017 150.391 180.017 150.328 180.017 150.263C180.023 149.163 180.194 148.071 180.448 147.002C180.714 145.89 181.068 144.799 181.444 143.717C181.822 142.632 182.222 141.552 182.587 140.463C182.944 139.392 183.27 138.31 183.488 137.202C183.697 136.146 183.805 135.066 183.732 133.99C183.657 132.897 183.387 131.823 182.918 130.828C182.391 129.707 181.725 128.652 180.983 127.656C180.215 126.627 179.359 125.66 178.452 124.744C177.527 123.807 176.548 122.921 175.54 122.069C174.535 121.22 173.499 120.405 172.45 119.609C171.451 118.851 170.437 118.11 169.422 117.37C168.321 116.567 167.212 115.775 166.071 115.028C164.876 114.247 163.655 113.504 162.41 112.805C161.166 112.105 159.899 111.447 158.608 110.834C157.306 110.216 155.979 109.643 154.635 109.12C153.294 108.598 151.934 108.126 150.557 107.708C149.182 107.29 147.791 106.928 146.384 106.625C145.32 106.394 144.248 106.198 143.169 106.038C142.824 105.987 142.476 105.94 142.129 105.897C140.708 105.717 139.279 105.603 137.846 105.559C137.67 105.554 137.495 105.549 137.318 105.545C137.223 105.543 137.128 105.543 137.031 105.541C136.95 105.54 136.856 105.527 136.775 105.538C136.723 105.546 136.701 105.589 136.665 105.629C136.636 105.664 136.605 105.698 136.576 105.733C136.524 105.792 136.475 105.851 136.425 105.91C136.42 105.916 136.415 105.923 136.41 105.929C136.294 106.07 136.181 106.213 136.071 106.357C135.637 106.924 135.245 107.523 134.901 108.146C134.559 108.766 134.264 109.41 134.026 110.073C133.778 110.761 133.609 111.466 133.459 112.179C133.134 113.719 132.908 115.281 132.819 116.852C132.73 118.422 132.779 120.001 132.982 121.563Z" fill="#FCD2CA"/>
<path d="M144.784 133.662C143.934 133.833 143.023 132.868 142.75 131.507C142.478 130.146 142.946 128.905 143.796 128.734C144.647 128.564 145.558 129.529 145.83 130.89C146.103 132.251 145.635 133.492 144.784 133.662Z" fill="#1E244E"/>
<path d="M160.8 130.452C159.949 130.623 159.039 129.658 158.766 128.297C158.493 126.936 158.962 125.695 159.812 125.524C160.663 125.354 161.573 126.319 161.846 127.68C162.119 129.041 161.65 130.282 160.8 130.452Z" fill="#1E244E"/>
<path d="M150.695 129.126C150.692 133.647 150.004 135.683 149.316 136.687C149.184 136.879 148.767 137.451 148.789 138.211C148.825 139.501 150.103 140.388 150.366 140.563C151.789 141.499 153.377 141.136 153.72 141.048" stroke="#F1A898" stroke-width="2" stroke-miterlimit="10" stroke-linecap="round" stroke-linejoin="round"/>
<path d="M167.415 143.237C166.47 142.513 164.265 145.353 160.471 146.851C155.551 148.791 151.807 146.954 151.434 148.072C151.036 149.26 154.815 152.62 159.013 152.606C159.013 152.606 163.392 152.585 166.449 148.737C166.691 148.432 166.891 148.126 167.058 147.811C167.246 147.458 167.543 146.822 167.696 145.942C167.757 145.593 168.059 143.729 167.415 143.237Z" fill="#F7FAE3"/>
<path d="M126.198 247.809L128.796 267.807L129.718 274.901C129.718 274.901 139.861 275.179 142.636 273.19C143.997 272.215 144.316 268.838 144.286 265.654C144.286 265.322 144.279 264.992 144.269 264.666C144.166 261.239 142.639 258.019 140.122 255.838C136.044 252.305 129.636 247.355 126.198 247.809Z" fill="#FCD2CA"/>
<path d="M140.177 256.119L141.289 256.003C145.841 256.372 150.393 256.741 154.944 257.11C156.468 257.234 158.113 257.405 159.239 258.363C160.605 259.526 161.164 261.355 161.653 263.021C162.45 265.735 162.729 268.798 161.763 272.143C161.373 273.494 161.159 274.964 160.207 276.042C158.917 277.5 156.539 277.466 154.509 277.305C151.792 277.089 149.059 276.989 146.357 276.656C144.21 276.391 141.01 274.887 140.602 273.539C140.602 273.539 142.889 272.956 143.327 271.309C144.606 266.508 142.865 260.392 140.177 256.119Z" fill="#3531B3"/>
<path d="M161.984 119.119C161.64 119.119 160.304 119.118 158.923 119.222C156.617 119.395 155.691 119.747 155.356 119.256C155.137 118.935 155.26 118.386 155.496 118.061C155.717 117.758 156.074 117.623 156.426 117.545C158.127 117.166 159.645 117.308 159.645 117.308C161.373 117.469 162.499 117.889 162.743 117.982C163.362 118.219 164.65 118.776 164.58 119.044C164.526 119.245 163.742 119.122 161.984 119.119Z" fill="#2C2048"/>
<path d="M138.193 123.887C138.478 123.761 139.585 123.272 140.769 122.861C142.745 122.176 143.642 122.162 143.742 121.584C143.806 121.206 143.502 120.743 143.188 120.528C142.895 120.329 142.547 120.334 142.226 120.391C140.678 120.664 139.471 121.352 139.471 121.352C138.095 122.135 137.317 122.936 137.148 123.112C136.72 123.559 135.858 124.547 136.014 124.77C136.131 124.936 136.736 124.535 138.193 123.887Z" fill="#2C2048"/>
<path d="M215.934 279.564C230.075 277.548 244.552 250.169 247.678 237.091C248.4 247.889 247.077 255.928 246.596 259.407L221.956 281.003C193.963 285.611 167.956 284.603 159.91 279.564C171.563 282.967 201.264 281.363 215.934 279.564Z" fill="#FFCE4E"/>
<path d="M213.678 249.151L221.578 216.536C218.13 220.263 214.157 239.115 212.601 248.076C198.812 248.076 175.017 255.005 164.843 258.47C176.621 255.029 202.307 250.824 213.678 249.151Z" fill="#FFCE4E"/>
<path d="M57.2212 286.426H173.798C175.664 286.426 177.177 284.953 177.177 283.137C177.177 281.32 175.664 279.848 173.798 279.848H57.2212C55.3549 279.848 53.8421 281.32 53.8421 283.137C53.8421 284.953 55.355 286.426 57.2212 286.426Z" fill="white"/>
<path d="M21.0252 213.945L28.4433 272.545L29.788 283.166C30.0228 285.019 31.8751 286.425 34.082 286.425H126.564C129.131 286.425 131.132 284.546 130.859 282.39L123.716 225.964L122.096 213.17C121.862 211.316 120.009 209.91 117.801 209.91H25.3202C22.7526 209.91 20.7525 211.79 21.0252 213.945Z" fill="white"/>
<path d="M30.0003 272.545L31.3246 283.166C31.5558 285.02 33.3799 286.425 35.5533 286.425H126.629C129.158 286.425 131.128 284.546 130.859 282.39L123.824 225.965L123.631 225.74C123.036 238.326 116.003 250.526 105.024 258.012C95.6805 264.384 84.0441 267.263 72.512 268.564C60.9798 269.863 49.31 269.716 37.7444 270.725C35.1124 270.954 32.2465 271.383 30.0003 272.545Z" fill="#E9ECEE"/>
<line x1="62.5" y1="271" x2="62.5" y2="235" stroke="white" stroke-opacity="0.5"/>
</g>
<path d="M80.8741 362.216C80.2821 362.216 79.8261 362.056 79.5061 361.736C79.2021 361.416 79.0501 360.96 79.0501 360.368V352.928H78.1861C77.2421 352.928 76.7701 352.48 76.7701 351.584C76.7701 350.672 77.2421 350.216 78.1861 350.216H79.0501C79.0821 348.584 79.5221 347.36 80.3701 346.544C81.2341 345.712 82.4821 345.216 84.1141 345.056L84.8821 344.984C85.4101 344.936 85.7941 345.04 86.0341 345.296C86.2901 345.536 86.4261 345.832 86.4421 346.184C86.4741 346.536 86.3941 346.856 86.2021 347.144C86.0261 347.416 85.7621 347.568 85.4101 347.6L85.0741 347.624C84.2101 347.688 83.5941 347.896 83.2261 348.248C82.8581 348.584 82.6741 349.104 82.6741 349.808V350.216H84.3781C85.3221 350.216 85.7941 350.672 85.7941 351.584C85.7941 352.48 85.3221 352.928 84.3781 352.928H82.6741V360.368C82.6741 361.6 82.0741 362.216 80.8741 362.216ZM89.1742 362.216C87.9262 362.216 87.3022 361.6 87.3022 360.368V351.848C87.3022 350.632 87.8942 350.024 89.0782 350.024C90.2622 350.024 90.8542 350.632 90.8542 351.848V352.28C91.4302 350.856 92.6222 350.088 94.4302 349.976C94.8302 349.944 95.1342 350.048 95.3422 350.288C95.5662 350.512 95.6862 350.888 95.7022 351.416C95.7342 351.912 95.6302 352.304 95.3902 352.592C95.1662 352.88 94.7822 353.056 94.2382 353.12L93.6862 353.168C91.8942 353.344 90.9982 354.256 90.9982 355.904V360.368C90.9982 361.6 90.3902 362.216 89.1742 362.216ZM102.646 362.264C101.382 362.264 100.278 362.016 99.3338 361.52C98.4058 361.008 97.6858 360.296 97.1738 359.384C96.6618 358.456 96.4058 357.36 96.4058 356.096C96.4058 354.848 96.6618 353.768 97.1738 352.856C97.6858 351.928 98.4058 351.216 99.3338 350.72C100.278 350.224 101.382 349.976 102.646 349.976C103.91 349.976 105.006 350.224 105.934 350.72C106.878 351.216 107.606 351.928 108.118 352.856C108.646 353.768 108.91 354.848 108.91 356.096C108.91 357.36 108.646 358.456 108.118 359.384C107.606 360.296 106.878 361.008 105.934 361.52C105.006 362.016 103.91 362.264 102.646 362.264ZM102.646 359.552C103.414 359.552 104.038 359.272 104.518 358.712C105.014 358.152 105.262 357.28 105.262 356.096C105.262 354.928 105.014 354.072 104.518 353.528C104.038 352.968 103.414 352.688 102.646 352.688C101.878 352.688 101.254 352.968 100.774 353.528C100.294 354.072 100.054 354.928 100.054 356.096C100.054 357.28 100.294 358.152 100.774 358.712C101.254 359.272 101.878 359.552 102.646 359.552ZM112.987 362.216C111.771 362.216 111.163 361.6 111.163 360.368V351.848C111.163 350.632 111.755 350.024 112.939 350.024C114.123 350.024 114.715 350.632 114.715 351.848V351.92C115.067 351.312 115.547 350.84 116.155 350.504C116.779 350.152 117.499 349.976 118.315 349.976C119.147 349.976 119.851 350.16 120.427 350.528C121.019 350.896 121.467 351.456 121.771 352.208C122.139 351.504 122.667 350.96 123.355 350.576C124.059 350.176 124.835 349.976 125.683 349.976C127.027 349.976 128.027 350.384 128.683 351.2C129.339 352 129.667 353.24 129.667 354.92V360.368C129.667 360.96 129.507 361.416 129.187 361.736C128.883 362.056 128.443 362.216 127.867 362.216C126.651 362.216 126.043 361.6 126.043 360.368V355.04C126.043 354.256 125.915 353.688 125.659 353.336C125.419 352.968 125.003 352.784 124.411 352.784C123.723 352.784 123.187 353.024 122.803 353.504C122.419 353.984 122.227 354.664 122.227 355.544V360.368C122.227 361.6 121.627 362.216 120.427 362.216C119.851 362.216 119.403 362.056 119.083 361.736C118.763 361.416 118.603 360.96 118.603 360.368V355.04C118.603 354.256 118.475 353.688 118.219 353.336C117.963 352.968 117.547 352.784 116.971 352.784C116.283 352.784 115.747 353.024 115.363 353.504C114.979 353.984 114.787 354.664 114.787 355.544V360.368C114.787 361.6 114.187 362.216 112.987 362.216ZM145.506 362.264C144.482 362.264 143.458 362.152 142.434 361.928C141.41 361.704 140.522 361.376 139.77 360.944C139.322 360.704 139.042 360.384 138.93 359.984C138.818 359.568 138.842 359.168 139.002 358.784C139.162 358.4 139.418 358.128 139.77 357.968C140.122 357.808 140.546 357.848 141.042 358.088C141.682 358.456 142.394 358.728 143.178 358.904C143.962 359.08 144.738 359.168 145.506 359.168C146.658 359.168 147.482 358.992 147.978 358.64C148.49 358.272 148.746 357.816 148.746 357.272C148.746 356.808 148.57 356.44 148.218 356.168C147.866 355.896 147.25 355.664 146.37 355.472L143.658 354.896C140.634 354.256 139.122 352.688 139.122 350.192C139.122 349.12 139.41 348.184 139.986 347.384C140.562 346.568 141.362 345.936 142.386 345.488C143.426 345.04 144.626 344.816 145.986 344.816C146.882 344.816 147.762 344.928 148.626 345.152C149.49 345.36 150.25 345.672 150.906 346.088C151.306 346.328 151.554 346.64 151.65 347.024C151.746 347.408 151.714 347.776 151.554 348.128C151.41 348.48 151.154 348.728 150.786 348.872C150.434 349.016 149.994 348.96 149.466 348.704C148.938 348.432 148.378 348.232 147.786 348.104C147.194 347.976 146.586 347.912 145.962 347.912C144.954 347.912 144.17 348.112 143.61 348.512C143.066 348.896 142.794 349.4 142.794 350.024C142.794 350.488 142.962 350.864 143.298 351.152C143.634 351.44 144.218 351.672 145.05 351.848L147.762 352.424C150.866 353.096 152.418 354.616 152.418 356.984C152.418 358.04 152.13 358.968 151.554 359.768C150.994 360.552 150.194 361.168 149.154 361.616C148.13 362.048 146.914 362.264 145.506 362.264ZM158.505 362.264C157.625 362.264 156.849 362.096 156.177 361.76C155.505 361.424 154.969 360.968 154.569 360.392C154.185 359.816 153.993 359.168 153.993 358.448C153.993 357.6 154.217 356.92 154.665 356.408C155.113 355.896 155.841 355.536 156.849 355.328C157.857 355.104 159.193 354.992 160.857 354.992H161.721V354.584C161.721 353.88 161.561 353.384 161.241 353.096C160.921 352.792 160.377 352.64 159.609 352.64C159.177 352.64 158.705 352.696 158.193 352.808C157.681 352.904 157.129 353.072 156.537 353.312C156.089 353.504 155.713 353.52 155.409 353.36C155.105 353.184 154.905 352.928 154.809 352.592C154.713 352.24 154.737 351.888 154.881 351.536C155.041 351.184 155.345 350.928 155.793 350.768C156.545 350.48 157.249 350.28 157.905 350.168C158.577 350.04 159.193 349.976 159.753 349.976C161.577 349.976 162.937 350.392 163.833 351.224C164.729 352.04 165.177 353.312 165.177 355.04V360.368C165.177 361.6 164.617 362.216 163.497 362.216C162.361 362.216 161.793 361.6 161.793 360.368V360.224C161.553 360.848 161.145 361.344 160.569 361.712C160.009 362.08 159.321 362.264 158.505 362.264ZM159.321 359.84C159.993 359.84 160.561 359.608 161.025 359.144C161.489 358.68 161.721 358.08 161.721 357.344V356.864H160.881C159.649 356.864 158.777 356.976 158.265 357.2C157.753 357.408 157.497 357.776 157.497 358.304C157.497 358.752 157.649 359.12 157.953 359.408C158.273 359.696 158.729 359.84 159.321 359.84ZM172.128 362.264C169.296 362.264 167.88 360.688 167.88 357.536V346.712C167.88 345.48 168.488 344.864 169.704 344.864C170.904 344.864 171.504 345.48 171.504 346.712V357.392C171.504 358.048 171.64 358.536 171.912 358.856C172.2 359.16 172.576 359.312 173.04 359.312C173.168 359.312 173.288 359.304 173.4 359.288C173.528 359.272 173.648 359.264 173.76 359.264C174.016 359.248 174.192 359.328 174.288 359.504C174.4 359.68 174.456 360.04 174.456 360.584C174.456 361.512 174.064 362.04 173.28 362.168C173.12 362.184 172.936 362.2 172.728 362.216C172.52 362.248 172.32 362.264 172.128 362.264ZM179.856 362.264C178.976 362.264 178.2 362.096 177.528 361.76C176.856 361.424 176.32 360.968 175.92 360.392C175.536 359.816 175.344 359.168 175.344 358.448C175.344 357.6 175.568 356.92 176.016 356.408C176.464 355.896 177.192 355.536 178.2 355.328C179.208 355.104 180.544 354.992 182.208 354.992H183.072V354.584C183.072 353.88 182.912 353.384 182.592 353.096C182.272 352.792 181.728 352.64 180.96 352.64C180.528 352.64 180.056 352.696 179.544 352.808C179.032 352.904 178.48 353.072 177.888 353.312C177.44 353.504 177.064 353.52 176.76 353.36C176.456 353.184 176.256 352.928 176.16 352.592C176.064 352.24 176.088 351.888 176.232 351.536C176.392 351.184 176.696 350.928 177.144 350.768C177.896 350.48 178.6 350.28 179.256 350.168C179.928 350.04 180.544 349.976 181.104 349.976C182.928 349.976 184.288 350.392 185.184 351.224C186.08 352.04 186.528 353.312 186.528 355.04V360.368C186.528 361.6 185.968 362.216 184.848 362.216C183.712 362.216 183.144 361.6 183.144 360.368V360.224C182.904 360.848 182.496 361.344 181.92 361.712C181.36 362.08 180.672 362.264 179.856 362.264ZM180.672 359.84C181.344 359.84 181.912 359.608 182.376 359.144C182.84 358.68 183.072 358.08 183.072 357.344V356.864H182.232C181 356.864 180.128 356.976 179.616 357.2C179.104 357.408 178.848 357.776 178.848 358.304C178.848 358.752 179 359.12 179.304 359.408C179.624 359.696 180.08 359.84 180.672 359.84ZM191.104 362.216C189.856 362.216 189.232 361.6 189.232 360.368V351.848C189.232 350.632 189.824 350.024 191.008 350.024C192.192 350.024 192.784 350.632 192.784 351.848V352.28C193.36 350.856 194.552 350.088 196.36 349.976C196.76 349.944 197.064 350.048 197.272 350.288C197.496 350.512 197.616 350.888 197.632 351.416C197.664 351.912 197.56 352.304 197.32 352.592C197.096 352.88 196.712 353.056 196.168 353.12L195.616 353.168C193.824 353.344 192.928 354.256 192.928 355.904V360.368C192.928 361.6 192.32 362.216 191.104 362.216ZM203.065 366.536C202.425 366.536 201.969 366.296 201.697 365.816C201.441 365.352 201.457 364.808 201.745 364.184L203.017 361.352L199.105 352.376C198.849 351.752 198.849 351.208 199.105 350.744C199.377 350.264 199.913 350.024 200.713 350.024C201.145 350.024 201.489 350.128 201.745 350.336C202.017 350.528 202.265 350.904 202.489 351.464L204.937 357.704L207.481 351.44C207.705 350.896 207.953 350.528 208.225 350.336C208.513 350.128 208.897 350.024 209.377 350.024C209.985 350.024 210.409 350.264 210.649 350.744C210.905 351.208 210.897 351.744 210.625 352.352L204.985 365.144C204.745 365.688 204.473 366.056 204.169 366.248C203.881 366.44 203.513 366.536 203.065 366.536Z" fill="white"/>
<path d="M124.101 329C123.886 329 123.732 328.953 123.639 328.86C123.546 328.757 123.499 328.622 123.499 328.454C123.499 328.258 123.597 328.057 123.793 327.852L126.929 324.492C127.405 323.979 127.746 323.507 127.951 323.078C128.166 322.639 128.273 322.196 128.273 321.748C128.273 320.6 127.606 320.026 126.271 320.026C125.44 320.026 124.684 320.292 124.003 320.824C123.854 320.936 123.718 320.978 123.597 320.95C123.476 320.913 123.382 320.838 123.317 320.726C123.261 320.614 123.238 320.493 123.247 320.362C123.266 320.222 123.345 320.101 123.485 319.998C123.849 319.699 124.288 319.461 124.801 319.284C125.314 319.097 125.837 319.004 126.369 319.004C127.358 319.004 128.114 319.237 128.637 319.704C129.169 320.161 129.435 320.815 129.435 321.664C129.435 322.252 129.29 322.831 129.001 323.4C128.721 323.96 128.278 324.557 127.671 325.192L125.011 328.02H129.407C129.762 328.02 129.939 328.179 129.939 328.496C129.939 328.832 129.762 329 129.407 329H124.101ZM139.661 329.126C138.746 329.126 137.948 328.921 137.267 328.51C136.595 328.09 136.072 327.502 135.699 326.746C135.335 325.99 135.153 325.094 135.153 324.058C135.153 323.022 135.335 322.126 135.699 321.37C136.063 320.614 136.581 320.031 137.253 319.62C137.934 319.209 138.737 319.004 139.661 319.004C140.594 319.004 141.397 319.209 142.069 319.62C142.75 320.031 143.273 320.614 143.637 321.37C144.01 322.117 144.197 323.008 144.197 324.044C144.197 325.08 144.01 325.981 143.637 326.746C143.263 327.502 142.736 328.09 142.055 328.51C141.383 328.921 140.585 329.126 139.661 329.126ZM139.661 328.104C140.715 328.104 141.532 327.749 142.111 327.04C142.689 326.331 142.979 325.337 142.979 324.058C142.979 322.779 142.689 321.79 142.111 321.09C141.532 320.381 140.715 320.026 139.661 320.026C138.625 320.026 137.817 320.381 137.239 321.09C136.66 321.79 136.371 322.779 136.371 324.058C136.371 325.327 136.66 326.321 137.239 327.04C137.817 327.749 138.625 328.104 139.661 328.104ZM146.865 329.098C146.455 329.098 146.249 328.888 146.249 328.468V319.76C146.249 319.34 146.459 319.13 146.879 319.13H151.961C152.288 319.13 152.451 319.289 152.451 319.606C152.451 319.933 152.288 320.096 151.961 320.096H147.397V323.54H151.667C152.003 323.54 152.171 323.699 152.171 324.016C152.171 324.343 152.003 324.506 151.667 324.506H147.397V328.468C147.397 328.888 147.22 329.098 146.865 329.098ZM160.721 329.126C160.179 329.126 159.643 329.047 159.111 328.888C158.588 328.729 158.117 328.482 157.697 328.146C157.557 328.053 157.473 327.941 157.445 327.81C157.426 327.67 157.449 327.544 157.515 327.432C157.58 327.32 157.673 327.245 157.795 327.208C157.925 327.171 158.07 327.203 158.229 327.306C158.966 327.838 159.792 328.104 160.707 328.104C161.388 328.104 161.925 327.913 162.317 327.53C162.709 327.147 162.905 326.643 162.905 326.018C162.905 325.374 162.718 324.847 162.345 324.436C161.971 324.025 161.458 323.82 160.805 323.82C160.403 323.82 160.03 323.895 159.685 324.044C159.349 324.193 159.045 324.431 158.775 324.758C158.709 324.833 158.63 324.898 158.537 324.954C158.453 325.001 158.355 325.024 158.243 325.024C157.907 325.024 157.739 324.861 157.739 324.534V319.662C157.739 319.307 157.916 319.13 158.271 319.13H163.031C163.385 319.13 163.563 319.293 163.563 319.62C163.563 319.947 163.385 320.11 163.031 320.11H158.873V323.638C159.414 323.097 160.128 322.826 161.015 322.826C161.631 322.826 162.167 322.957 162.625 323.218C163.082 323.479 163.432 323.848 163.675 324.324C163.927 324.791 164.053 325.337 164.053 325.962C164.053 326.578 163.917 327.124 163.647 327.6C163.376 328.076 162.989 328.449 162.485 328.72C161.99 328.991 161.402 329.126 160.721 329.126Z" fill="white"/>
<path d="M234.032 69.9048C252.19 69.9048 266.91 55.1851 266.91 37.0274C266.91 18.8696 252.19 4.1499 234.032 4.1499C215.875 4.1499 201.155 18.8696 201.155 37.0274C201.155 55.1851 215.875 69.9048 234.032 69.9048Z" fill="#FF8500"/>
<path d="M252.543 55.5426C262.768 45.3173 262.768 28.739 252.543 18.514C242.317 8.28906 225.739 8.28935 215.514 18.5147C205.289 28.74 205.289 45.3183 215.515 55.5433C225.74 65.7682 242.318 65.768 252.543 55.5426Z" fill="#3531B3"/>
<path d="M234.032 37.8227C233.593 37.8227 233.237 37.4668 233.237 37.0277V15.7979C233.237 15.3589 233.593 15.0029 234.032 15.0029C234.471 15.0029 234.827 15.3589 234.827 15.7979V37.0277C234.827 37.4668 234.471 37.8227 234.032 37.8227Z" fill="white"/>
<path d="M248.907 47.8629C248.754 47.8629 248.599 47.8188 248.463 47.7267L233.588 37.6864C233.224 37.4408 233.128 36.9467 233.373 36.5828C233.619 36.2188 234.113 36.1229 234.477 36.3685L249.352 46.4088C249.716 46.6544 249.812 47.1485 249.566 47.5124C249.413 47.74 249.162 47.8629 248.907 47.8629Z" fill="white"/>
<circle cx="32" cy="53" r="3" fill="#FFB70A"/>
<circle cx="42" cy="53" r="3" fill="#FFB70A"/>
<circle cx="52" cy="53" r="3" fill="#FFB70A"/>
<circle cx="62" cy="53" r="3" fill="#FFB70A"/>
<circle cx="72" cy="53" r="3" fill="#FFB70A"/>
<circle cx="82" cy="53" r="3" fill="#FFB70A"/>
<circle cx="92" cy="53" r="3" fill="#FFB70A"/>
<circle cx="102" cy="53" r="3" fill="#FFB70A"/>
<circle cx="112" cy="53" r="3" fill="#FFB70A"/>
<circle cx="122" cy="53" r="3" fill="#FFB70A"/>
<rect x="31" y="44" width="2" height="9" rx="1" fill="white"/>
<rect x="41" y="44" width="2" height="9" rx="1" fill="white"/>
<rect x="51" y="44" width="2" height="9" rx="1" fill="white"/>
<rect x="61" y="44" width="2" height="9" rx="1" fill="white"/>
<rect x="71" y="44" width="2" height="9" rx="1" fill="white"/>
<rect x="81" y="44" width="2" height="9" rx="1" fill="white"/>
<rect x="91" y="44" width="2" height="9" rx="1" fill="white"/>
<rect x="101" y="44" width="2" height="9" rx="1" fill="white"/>
<rect x="111" y="44" width="2" height="9" rx="1" fill="white"/>
<rect x="121" y="44" width="2" height="9" rx="1" fill="white"/>
</svg>
