<svg width="219" height="295" viewBox="0 0 219 295" fill="none" xmlns="http://www.w3.org/2000/svg">
<g clip-path="url(#clip0_1_3208)">
<rect x="0.917969" y="34.4292" width="165.595" height="266.392" rx="12" transform="rotate(-12 0.917969 34.4292)" fill="white"/>
<path d="M162.894 2.8572e-05L0.917969 34.4292L56.304 295L218.281 260.571L162.894 2.8572e-05Z" fill="#3532B3"/>
<path d="M7.33936 64.6401C7.33936 64.6401 32.4933 75.0814 42.4009 121.693C52.3085 168.304 33.2079 186.342 37.0605 204.467L7.33936 64.6401Z" fill="#FFC32B"/>
<path d="M200.885 178.728C200.885 178.728 165.585 176.72 164.905 201.937C164.224 227.153 132.331 240.849 132.331 240.849C132.331 240.849 97.2224 254.161 101.383 285.418L218.281 260.571L200.885 178.728Z" fill="#FF8500"/>
<path opacity="0.6" d="M72.6032 291.584C72.6032 291.584 70.5334 230.226 171.829 270.493L72.6032 291.584Z" fill="#540A7F"/>
<path d="M11.8896 32.0972C11.8896 32.0972 18.3452 51.5353 52.5665 44.2613C64.7988 41.6612 71.2968 34.0241 79.1892 25.0574C83.3566 20.3187 88.7215 15.766 95.0478 14.4214L11.8896 32.0972Z" fill="#FF8500"/>
<path d="M130.965 6.78666C137.017 5.50031 139.992 19.6466 139.298 23.4387C137.315 34.2732 134.402 37.9683 132.312 42.5458C129.875 47.8823 128.554 49.135 128.233 52.9287C127.75 58.6465 128.989 64.663 132.472 69.2095C139.194 77.9855 149.443 75.3105 158.775 73.9997C160.078 73.8189 178.049 71.2966 177.86 70.4076L162.894 -0.000160437C162.894 -0.000160437 131.231 6.73017 130.965 6.78666Z" fill="#FFC32B"/>
<path opacity="0.6" d="M61.9974 21.4464C61.9974 21.4464 41.7213 100.094 100.657 86.7733C159.592 73.4526 138.959 64.8689 175.79 60.6713L187.495 115.736C187.495 115.736 11.7923 171.343 52.723 23.4177L61.9974 21.4464Z" fill="#540A7F"/>
<path d="M128.969 114.33C128.205 114.492 127.454 114.003 127.291 113.237L124.017 97.8325C123.854 97.0661 124.341 96.3138 125.105 96.1514C125.869 95.989 126.62 96.4782 126.783 97.2446L130.057 112.649C130.222 113.423 129.733 114.168 128.969 114.33Z" fill="white"/>
<path d="M141.836 111.595C136.839 112.657 131.908 109.444 130.842 104.432C129.777 99.4199 132.975 94.4788 137.972 93.4167C142.968 92.3546 147.9 95.5678 148.965 100.58C150.032 105.6 146.832 110.533 141.836 111.595ZM138.561 96.191C135.085 96.9299 132.861 100.366 133.602 103.853C134.343 107.341 137.773 109.575 141.249 108.836C144.726 108.097 146.95 104.661 146.209 101.174C145.467 97.6868 142.038 95.4521 138.561 96.191Z" fill="white"/>
<path d="M158.518 89.0573C153.521 90.1194 150.323 95.0606 151.389 100.073L153.026 107.775C153.189 108.541 153.939 109.031 154.703 108.868C155.467 108.706 155.954 107.953 155.792 107.187L154.154 99.4848C153.413 95.9978 155.637 92.5613 159.114 91.8223C162.59 91.0834 166.02 93.3182 166.761 96.8052L168.398 104.507C168.561 105.274 169.312 105.763 170.076 105.601C170.84 105.438 171.327 104.686 171.164 103.919L169.527 96.2173C168.446 91.2084 163.515 87.9952 158.518 89.0573Z" fill="white"/>
<path d="M112.24 98.894C109.795 99.4136 107.781 100.867 106.483 102.801L104.422 93.1064C104.259 92.34 103.508 91.8508 102.744 92.0132C101.98 92.1756 101.493 92.9279 101.656 93.6943L105.103 109.911C106.169 114.923 111.1 118.136 116.097 117.074C121.093 116.012 124.292 111.071 123.226 106.059C122.168 101.045 117.237 97.8318 112.24 98.894ZM115.515 114.298C112.038 115.037 108.609 112.802 107.867 109.315C107.126 105.828 109.35 102.392 112.827 101.653C116.303 100.914 119.733 103.149 120.474 106.636C121.215 110.123 118.991 113.559 115.515 114.298Z" fill="white"/>
<path d="M138.793 106.523C138.648 106.554 138.484 106.532 138.348 106.457L135.81 105.074C135.494 104.901 135.378 104.509 135.55 104.192C135.723 103.875 136.113 103.76 136.43 103.933L138.173 104.884C138.522 103.408 139.609 100.518 142.914 98.1492C143.206 97.943 143.611 98.0091 143.817 98.3017C144.023 98.5944 143.958 99.0007 143.666 99.2069C139.641 102.097 139.314 105.779 139.299 105.935C139.282 106.154 139.155 106.35 138.962 106.455C138.914 106.489 138.854 106.51 138.793 106.523Z" fill="white"/>
<path d="M128.206 117.688C128.175 117.543 128.265 117.403 128.41 117.373L129.472 117.147C129.816 117.074 130.088 117.112 130.299 117.243C130.457 117.346 130.561 117.5 130.602 117.692L130.604 117.699C130.68 118.059 130.521 118.286 130.324 118.448C130.701 118.496 130.979 118.637 131.065 119.043L131.067 119.051C131.179 119.579 130.804 119.956 130.147 120.095L129.039 120.331C128.894 120.362 128.755 120.271 128.724 120.125L128.206 117.688ZM129.638 118.417C129.975 118.346 130.168 118.168 130.111 117.9L130.11 117.892C130.059 117.655 129.847 117.556 129.51 117.627L128.762 117.786L128.929 118.576L129.64 118.425L129.638 118.417ZM130.057 119.634C130.408 119.559 130.6 119.374 130.543 119.106L130.542 119.098C130.488 118.845 130.258 118.742 129.853 118.828L129.028 119.003L129.201 119.816L130.057 119.634Z" fill="white"/>
<path d="M132.569 118.379L131.255 117.193C131.213 117.146 131.171 117.098 131.155 117.022C131.125 116.884 131.215 116.745 131.361 116.714C131.475 116.689 131.565 116.734 131.645 116.813L132.723 117.826L133.302 116.453C133.342 116.341 133.407 116.271 133.521 116.246C133.674 116.214 133.798 116.308 133.827 116.446C133.842 116.515 133.826 116.59 133.797 116.644L133.082 118.238L133.279 119.165C133.31 119.311 133.22 119.45 133.075 119.481C132.93 119.512 132.792 119.429 132.76 119.276L132.569 118.379Z" fill="white"/>
<path d="M136.152 115.999C136.121 115.854 136.211 115.714 136.356 115.684L137.418 115.458C137.762 115.385 138.033 115.423 138.245 115.554C138.403 115.657 138.507 115.811 138.548 116.003L138.55 116.01C138.626 116.37 138.467 116.597 138.269 116.759C138.647 116.807 138.925 116.948 139.011 117.354L139.013 117.362C139.125 117.891 138.75 118.267 138.093 118.406L136.985 118.642C136.84 118.673 136.701 118.582 136.67 118.436L136.152 115.999ZM137.577 116.73C137.913 116.658 138.107 116.481 138.05 116.213L138.048 116.205C137.997 115.967 137.785 115.868 137.449 115.94L136.7 116.099L136.868 116.888L137.578 116.737L137.577 116.73ZM137.995 117.946C138.346 117.872 138.539 117.687 138.482 117.418L138.48 117.411C138.426 117.158 138.197 117.055 137.792 117.141L136.966 117.316L137.139 118.128L137.995 117.946Z" fill="white"/>
<path d="M139.802 117.691L140.373 115.006C140.406 114.863 140.495 114.756 140.641 114.725L140.663 114.72C140.809 114.689 140.924 114.745 141.015 114.87L142.636 117.088C142.667 117.122 142.681 117.151 142.69 117.189C142.719 117.327 142.636 117.465 142.499 117.494C142.377 117.52 142.278 117.469 142.208 117.364L141.853 116.862L140.417 117.168L140.287 117.796C140.264 117.913 140.193 117.992 140.086 118.015C139.949 118.044 139.826 117.958 139.799 117.828C139.781 117.783 139.788 117.742 139.802 117.691ZM141.549 116.446L140.776 115.361L140.51 116.667L141.549 116.446Z" fill="white"/>
<path d="M142.994 114.529C142.963 114.383 143.053 114.244 143.199 114.213L143.252 114.202C143.382 114.174 143.464 114.221 143.552 114.298L145.434 115.901L145.048 114.084C145.019 113.946 145.109 113.807 145.246 113.778C145.391 113.747 145.53 113.838 145.56 113.976L146.088 116.459C146.118 116.604 146.036 116.742 145.891 116.773L145.868 116.778C145.746 116.804 145.656 116.759 145.568 116.681L143.629 115.035L144.028 116.913C144.057 117.05 143.967 117.19 143.83 117.219C143.684 117.25 143.545 117.159 143.516 117.021L142.987 114.531L142.994 114.529Z" fill="white"/>
<path d="M146.591 113.757C146.56 113.611 146.651 113.472 146.796 113.441C146.941 113.41 147.078 113.493 147.111 113.646L147.376 114.895L148.475 113.188C148.523 113.114 148.568 113.064 148.668 113.043C148.813 113.012 148.927 113.1 148.955 113.23C148.97 113.299 148.954 113.375 148.904 113.441L148.176 114.525L149.433 115.555C149.491 115.599 149.525 115.648 149.541 115.725C149.572 115.87 149.48 116.002 149.335 116.033C149.236 116.054 149.156 116.015 149.087 115.957L147.883 114.948L147.501 115.518L147.631 116.131C147.662 116.276 147.579 116.414 147.427 116.447C147.281 116.477 147.144 116.394 147.112 116.241L146.584 113.758L146.591 113.757Z" fill="white"/>
<path d="M151.399 112.743C151.368 112.597 151.458 112.458 151.603 112.427L151.657 112.416C151.771 112.391 151.861 112.436 151.923 112.503L153.115 113.716L153.717 112.114C153.75 112.01 153.825 111.947 153.924 111.926L153.978 111.914C154.123 111.883 154.262 111.974 154.293 112.12L154.819 114.595C154.85 114.741 154.76 114.88 154.615 114.911C154.477 114.94 154.33 114.851 154.299 114.705L153.921 112.927L153.435 114.168C153.399 114.264 153.342 114.332 153.242 114.353C153.143 114.374 153.07 114.334 152.999 114.261L152.051 113.333L152.427 115.103C152.458 115.249 152.374 115.379 152.221 115.411C152.076 115.442 151.946 115.358 151.916 115.212L151.391 112.744L151.399 112.743Z" fill="white"/>
<path d="M156.17 114.564C156.025 114.595 155.886 114.504 155.855 114.359L155.337 111.922C155.306 111.776 155.396 111.637 155.542 111.606L157.261 111.241C157.39 111.213 157.511 111.291 157.539 111.422C157.566 111.552 157.488 111.673 157.358 111.7L155.899 112.011L156.062 112.777L157.33 112.507C157.46 112.48 157.582 112.566 157.61 112.696C157.638 112.826 157.559 112.947 157.43 112.975L156.161 113.244L156.331 114.041L157.813 113.726C157.943 113.699 158.063 113.777 158.091 113.908C158.119 114.038 158.041 114.159 157.911 114.186L156.169 114.556L156.17 114.564Z" fill="white"/>
<path d="M158.858 113.648C158.787 113.615 158.734 113.554 158.716 113.47C158.687 113.332 158.773 113.21 158.91 113.181C158.979 113.166 159.028 113.172 159.073 113.194C159.367 113.34 159.642 113.394 159.963 113.325C160.284 113.257 160.45 113.062 160.403 112.839L160.401 112.832C160.357 112.625 160.217 112.527 159.641 112.521C158.983 112.508 158.582 112.385 158.468 111.849L158.466 111.841C158.359 111.335 158.704 110.894 159.292 110.769C159.666 110.689 159.976 110.719 160.291 110.845C160.358 110.862 160.428 110.928 160.449 111.027C160.478 111.165 160.393 111.288 160.255 111.317C160.209 111.327 160.16 111.321 160.109 111.308C159.849 111.211 159.619 111.18 159.382 111.23C159.077 111.295 158.933 111.486 158.976 111.685L158.977 111.693C159.026 111.922 159.185 111.993 159.78 112.011C160.433 112.04 160.807 112.185 160.911 112.675L160.913 112.683C161.032 113.242 160.665 113.657 160.046 113.788C159.633 113.876 159.24 113.831 158.858 113.648Z" fill="white"/>
<path d="M162.1 110.716L161.382 110.869C161.244 110.898 161.122 110.812 161.094 110.681C161.067 110.551 161.151 110.421 161.281 110.394L163.244 109.976C163.374 109.949 163.504 110.033 163.532 110.163C163.559 110.294 163.475 110.424 163.345 110.451L162.627 110.604L163.103 112.842C163.134 112.987 163.044 113.127 162.898 113.158C162.753 113.188 162.616 113.105 162.583 112.952L162.108 110.714L162.1 110.716Z" fill="white"/>
<path d="M164.355 109.98C164.324 109.835 164.414 109.695 164.56 109.665C164.705 109.634 164.842 109.717 164.875 109.87L165.403 112.353C165.434 112.499 165.351 112.636 165.198 112.669C165.053 112.7 164.916 112.617 164.883 112.463L164.355 109.98Z" fill="white"/>
<path d="M165.929 109.646C165.898 109.501 165.988 109.361 166.134 109.33C166.279 109.3 166.416 109.382 166.449 109.536L166.714 110.785L167.813 109.078C167.861 109.003 167.906 108.954 168.006 108.932C168.151 108.902 168.265 108.989 168.293 109.12C168.308 109.189 168.292 109.264 168.242 109.331L167.514 110.415L168.771 111.445C168.828 111.489 168.863 111.538 168.879 111.614C168.91 111.76 168.818 111.892 168.673 111.923C168.574 111.944 168.494 111.905 168.425 111.847L167.221 110.838L166.839 111.407L166.969 112.02C167 112.166 166.917 112.304 166.765 112.336C166.619 112.367 166.482 112.284 166.449 112.131L165.922 109.648L165.929 109.646Z" fill="white"/>
<path d="M169.53 111.372L170.101 108.687C170.135 108.544 170.224 108.437 170.369 108.406L170.392 108.401C170.537 108.37 170.653 108.425 170.743 108.55L172.365 110.769C172.396 110.802 172.41 110.831 172.418 110.87C172.447 111.008 172.365 111.145 172.227 111.175C172.105 111.201 172.006 111.15 171.936 111.044L171.582 110.543L170.146 110.848L170.016 111.477C169.993 111.594 169.922 111.673 169.815 111.696C169.677 111.725 169.555 111.639 169.527 111.508C169.51 111.464 169.517 111.422 169.53 111.372ZM171.286 110.125L170.512 109.04L170.246 110.346L171.286 110.125Z" fill="white"/>
<path d="M37.9073 73.7463C37.9073 73.7463 41.4908 135.143 111.977 132.48" stroke="#FFC32B" stroke-width="5" stroke-miterlimit="10" stroke-linecap="round"/>
<path d="M120.112 134.572C121.175 134.346 121.853 133.298 121.627 132.231C121.4 131.165 120.354 130.483 119.291 130.709C118.227 130.935 117.549 131.983 117.776 133.05C118.002 134.117 119.048 134.798 120.112 134.572Z" fill="#FFC32B"/>
<path d="M127.369 134.303C128.432 134.077 129.111 133.029 128.884 131.962C128.657 130.896 127.611 130.214 126.548 130.44C125.485 130.666 124.806 131.714 125.033 132.781C125.26 133.848 126.306 134.529 127.369 134.303Z" fill="#FFC32B"/>
<path opacity="0.6" d="M144.438 187.763C138.041 174.801 105.442 177.869 71.6203 194.614C58.9625 200.885 47.9356 208.179 39.413 215.534L48.0435 256.137C61.2292 254.904 77.8551 249.944 94.7841 241.564C128.604 224.811 150.835 200.725 144.438 187.763Z" fill="#540A7F"/>
<path fill-rule="evenodd" clip-rule="evenodd" d="M194.162 243.528L195.821 251.33C196.064 252.474 197.084 252.203 198.114 251.876C198.16 251.863 198.166 251.851 198.158 251.812C198.153 251.789 197.111 246.643 197.084 246.516C197.446 246.737 200.459 249.55 201.081 250.101C202.265 251.145 201.928 251.092 203.84 250.686C204.173 250.615 204.167 250.522 204.099 250.203L202.441 242.4C202.38 242.115 202.272 241.916 202.132 241.785C201.662 241.357 200.743 241.674 200.248 241.823C200.186 241.841 200.111 241.911 200.119 241.977C200.244 242.566 201.107 246.601 201.288 247.476C201.133 247.404 200.675 247.016 200.521 246.872C199.174 245.619 197.757 244.263 196.369 243.102C195.783 242.612 195.426 242.829 194.424 243.042C194.083 243.114 194.095 243.196 194.165 243.525L194.162 243.528Z" fill="white"/>
<path fill-rule="evenodd" clip-rule="evenodd" d="M189.189 253.667L189.187 253.657L188.659 250.952L191.269 250.37C193.717 249.88 194.224 246.603 192.6 244.833C191.993 244.171 191.298 244.69 189.966 245.285C189.302 245.583 188.811 245.655 188.889 245.999C189.511 246.073 189.975 245.625 190.614 246.012C191.051 246.277 191.364 246.885 191.326 247.571C191.249 248.9 189.598 248.936 188.29 249.214C187.575 245.85 187.997 246.148 186.48 246.804C185.235 247.34 185.591 247.234 186.273 250.445C186.472 251.379 186.65 252.372 186.878 253.291C187.147 254.389 188.061 254.034 189.032 253.828C189.034 253.828 189.042 253.826 189.047 253.825C189.187 253.798 189.211 253.768 189.188 253.662L189.189 253.667Z" fill="white"/>
<path fill-rule="evenodd" clip-rule="evenodd" d="M178.624 249.615L178.669 249.47C178.752 248.737 179.725 248.015 180.291 247.491C180.602 247.199 182.052 245.932 182.186 245.686C180.074 245.682 178.303 246.354 177.203 247.651C176.287 248.732 176.055 250.79 176.745 252.723C177.386 254.511 178.711 255.442 180.397 255.574C181.958 255.695 184.771 254.907 185.596 253.824L185.085 251.278C184.914 250.471 184.856 249.451 184.006 249.425C183.093 249.397 181.662 250.588 180.729 251.174C180.479 251.33 180.429 251.3 180.52 251.622L183.089 251.12L183.377 252.465C183.527 253.117 183.484 253.031 182.809 253.299C182.012 253.615 181.04 253.773 180.306 253.546C179.028 253.154 178.347 251.217 178.619 249.622L178.624 249.615Z" fill="white"/>
<path fill-rule="evenodd" clip-rule="evenodd" d="M196.295 236.097L197.279 236.023C197.24 236.08 197.295 236.136 196.943 236.257C196.744 236.326 196.694 236.326 196.491 236.339L196.295 236.097ZM182.187 245.683C182.053 245.928 180.604 247.196 180.293 247.487C179.728 248.014 178.754 248.736 178.671 249.467L178.648 249.539L178.717 249.503C179.112 249.346 180.188 248.553 180.608 248.261C181.234 247.827 182.101 247.081 182.623 247.241C182.422 247.702 180.428 248.537 180.627 249.436C181.218 249.234 190.017 244.314 190.893 243.846C191.774 243.374 192.579 242.954 193.256 242.333C193.715 241.913 196.153 238.963 196.609 238.426C196.928 238.047 197.056 237.822 197.677 237.595C198.277 237.375 198.759 237.332 198.762 236.716C198.34 237.015 198.26 237.1 197.794 236.881C197.879 236.614 198.197 236.446 198.559 236.42C199.153 236.376 199.094 236.64 199.408 236.752C199.267 235.47 198.036 235.867 197.807 235.794C197.647 235.741 197.49 235.542 197.245 235.45C196.823 235.293 196.206 235.541 195.732 235.655C195.121 235.801 194.623 235.793 194.055 235.906C194.193 236.166 194.356 236.186 194.569 236.425C194.411 236.575 194.322 236.578 194.056 236.681C193.868 236.753 193.659 236.841 193.535 236.927C193.561 237.309 194.208 237.489 194.057 238.093C193.835 238.018 186.658 232.048 186.147 231.614C185.682 231.222 185.274 230.913 184.812 230.521C183.525 229.431 182.649 229.05 181.295 228.189C181.036 228.024 180.828 227.849 180.568 227.695L176.199 224.978C175.689 224.666 175.238 224.401 174.732 224.088L172.578 222.724C172.294 222.549 171.946 222.251 171.83 222.414C171.73 222.731 172.122 224.28 172.325 224.627C172.679 225.235 173.234 225.461 173.693 225.751C174.696 226.379 175.639 226.959 176.64 227.592C178.024 228.466 179.617 229.529 181.026 230.363C181.358 230.558 182.223 230.979 182.219 231.695C181.997 231.672 178.552 229.468 177.989 229.141L174.312 226.816C174.105 226.694 173.968 226.514 173.676 226.574C173.581 226.86 173.941 228.282 174.096 228.586C174.398 229.183 174.88 229.387 175.289 229.647L180.584 232.957C181.051 233.242 181.4 233.453 181.875 233.794C182.254 234.066 182.878 234.239 182.941 235.039C182.596 235.031 181.521 234.205 181.091 233.947L176.41 231.065C175.372 230.41 175.35 230.309 175.6 231.484C175.82 232.521 175.863 232.746 176.832 233.385C178.372 234.403 179.772 235.198 181.526 236.327C182.603 237.022 183.423 237.257 183.634 238.213C183.332 238.182 179.48 235.704 178.9 235.361C178.336 235.031 177.619 234.406 177.266 234.462C177.157 234.797 177.353 236.325 178.38 236.952C179.665 237.739 181.189 238.765 182.476 239.522C182.83 239.731 183.142 239.922 183.488 240.142C183.824 240.355 184.161 240.611 184.266 241.223C183.958 241.229 183.33 240.712 182.953 240.478C182.499 240.195 182.097 239.957 181.636 239.681L179.704 238.46C179.478 238.326 179.252 238.076 178.961 238.179C178.962 238.97 179.285 239.91 179.815 240.288C180.084 240.483 180.349 240.619 180.634 240.8L183.086 242.353C183.823 242.801 183.962 243.004 184.565 243.147C184.794 243.201 184.658 243.119 184.8 243.246L182.186 245.689L182.187 245.683Z" fill="white"/>
<path fill-rule="evenodd" clip-rule="evenodd" d="M192.115 230.386L192.042 230.326C191.68 229.953 190.018 226.803 189.654 226.626C189.372 226.821 189.198 227.948 189.221 228.266C189.326 229.648 192.1 232.317 191.383 233.253L190.299 231.61C190.077 231.248 189.492 230.12 189.22 229.99C188.995 230.117 188.621 231.403 188.886 232.133C189.011 232.472 189.839 233.814 190.072 234.036C190.522 234.463 191.128 234.928 191.606 235.306L192.766 236.261C192.946 236.412 192.986 236.512 193.229 236.507L194.551 231.416C194.705 230.616 194.382 230.167 194.012 229.56L191.133 224.815C190.847 224.347 190.478 223.653 190.174 223.257C189.867 223.373 189.941 223.488 189.783 224.072C189.697 224.388 189.614 224.669 189.68 225.072C189.778 225.675 191.223 227.87 191.628 228.549C191.909 229.018 192.521 229.809 192.115 230.389L192.115 230.386Z" fill="white"/>
</g>
<rect x="0.621454" y="34.2366" width="166.095" height="266.892" rx="12.25" transform="rotate(-12 0.621454 34.2366)" stroke="white" stroke-opacity="0.5" stroke-width="0.5"/>
<defs>
<clipPath id="clip0_1_3208">
<rect x="0.917969" y="34.4292" width="165.595" height="266.392" rx="12" transform="rotate(-12 0.917969 34.4292)" fill="white"/>
</clipPath>
</defs>
</svg>
