<svg width="288" height="188" viewBox="0 0 288 188" fill="none" xmlns="http://www.w3.org/2000/svg">
<rect width="288" height="188" rx="12" fill="#3531B3"/>
<path d="M103.126 99.112C102.689 99.112 102.47 98.8827 102.47 98.424V88.392C102.47 87.944 102.694 87.72 103.142 87.72H106.934C108.15 87.72 109.078 88.0133 109.718 88.6C110.369 89.1867 110.694 90.024 110.694 91.112C110.694 92.1893 110.369 93.0267 109.718 93.624C109.078 94.2107 108.15 94.504 106.934 94.504H103.782V98.424C103.782 98.8827 103.563 99.112 103.126 99.112ZM103.782 93.4H106.774C108.523 93.4 109.398 92.6373 109.398 91.112C109.398 89.576 108.523 88.808 106.774 88.808H103.782V93.4ZM114.787 99.144C114.019 99.144 113.432 98.9147 113.027 98.456C112.622 97.9867 112.419 97.3093 112.419 96.424V88.264C112.419 87.8267 112.632 87.608 113.059 87.608C113.496 87.608 113.715 87.8267 113.715 88.264V96.328C113.715 97.4693 114.168 98.04 115.075 98.04C115.171 98.04 115.256 98.0347 115.331 98.024C115.406 98.0133 115.48 98.008 115.555 98.008C115.672 97.9973 115.752 98.024 115.795 98.088C115.848 98.152 115.875 98.28 115.875 98.472C115.875 98.8347 115.694 99.0427 115.331 99.096C115.246 99.1173 115.155 99.128 115.059 99.128C114.963 99.1387 114.872 99.144 114.787 99.144ZM119.602 99.144C119.068 99.144 118.588 99.0427 118.162 98.84C117.746 98.6267 117.415 98.3387 117.17 97.976C116.924 97.6133 116.802 97.208 116.802 96.76C116.802 96.1947 116.946 95.7467 117.234 95.416C117.532 95.0853 118.018 94.8507 118.69 94.712C119.372 94.5627 120.3 94.488 121.474 94.488H121.986V93.992C121.986 93.3307 121.847 92.856 121.57 92.568C121.303 92.2693 120.871 92.12 120.274 92.12C119.9 92.12 119.522 92.168 119.138 92.264C118.764 92.36 118.375 92.5147 117.97 92.728C117.788 92.824 117.634 92.8453 117.506 92.792C117.388 92.728 117.303 92.632 117.25 92.504C117.207 92.3653 117.207 92.2267 117.25 92.088C117.303 91.9387 117.41 91.8267 117.57 91.752C118.028 91.5173 118.487 91.3467 118.946 91.24C119.415 91.1333 119.858 91.08 120.274 91.08C121.276 91.08 122.018 91.3253 122.498 91.816C122.988 92.3067 123.234 93.0693 123.234 94.104V98.44C123.234 98.888 123.036 99.112 122.642 99.112C122.226 99.112 122.018 98.888 122.018 98.44V97.656C121.815 98.1147 121.5 98.4773 121.074 98.744C120.658 99.0107 120.167 99.144 119.602 99.144ZM119.81 98.168C120.45 98.168 120.972 97.9493 121.378 97.512C121.783 97.064 121.986 96.4987 121.986 95.816V95.336H121.49C120.626 95.336 119.943 95.3787 119.442 95.464C118.951 95.5387 118.604 95.6773 118.402 95.88C118.21 96.072 118.114 96.3387 118.114 96.68C118.114 97.1173 118.263 97.4747 118.562 97.752C118.871 98.0293 119.287 98.168 119.81 98.168ZM126.278 99.112C125.851 99.112 125.638 98.888 125.638 98.44V91.768C125.638 91.3307 125.846 91.112 126.262 91.112C126.689 91.112 126.902 91.3307 126.902 91.768V92.552C127.158 92.0613 127.521 91.6933 127.99 91.448C128.459 91.2027 128.987 91.08 129.574 91.08C131.419 91.08 132.342 92.104 132.342 94.152V98.44C132.342 98.888 132.129 99.112 131.702 99.112C131.265 99.112 131.046 98.888 131.046 98.44V94.232C131.046 93.5067 130.902 92.9787 130.614 92.648C130.337 92.3067 129.889 92.136 129.27 92.136C128.555 92.136 127.985 92.36 127.558 92.808C127.142 93.2453 126.934 93.832 126.934 94.568V98.44C126.934 98.888 126.715 99.112 126.278 99.112ZM139.753 99C139.273 99 139.033 98.76 139.033 98.28V88.44C139.033 87.96 139.273 87.72 139.753 87.72H142.841C144.665 87.72 146.073 88.2053 147.065 89.176C148.057 90.136 148.553 91.528 148.553 93.352C148.553 95.176 148.057 96.5733 147.065 97.544C146.073 98.5147 144.665 99 142.841 99H139.753ZM140.345 97.88H142.745C145.689 97.88 147.161 96.3707 147.161 93.352C147.161 90.344 145.689 88.84 142.745 88.84H140.345V97.88ZM154.236 99.144C153.009 99.144 152.038 98.7867 151.324 98.072C150.609 97.3467 150.252 96.3653 150.252 95.128C150.252 94.328 150.412 93.624 150.732 93.016C151.052 92.3973 151.489 91.9227 152.044 91.592C152.609 91.2507 153.26 91.08 153.996 91.08C155.052 91.08 155.878 91.4213 156.476 92.104C157.073 92.776 157.372 93.704 157.372 94.888C157.372 95.2187 157.185 95.384 156.812 95.384H151.516C151.558 96.2693 151.814 96.9467 152.284 97.416C152.753 97.8747 153.404 98.104 154.236 98.104C154.588 98.104 154.945 98.0613 155.308 97.976C155.67 97.88 156.022 97.7147 156.364 97.48C156.609 97.32 156.812 97.288 156.972 97.384C157.142 97.48 157.228 97.6293 157.228 97.832C157.238 98.024 157.132 98.1947 156.908 98.344C156.556 98.6 156.134 98.7973 155.644 98.936C155.164 99.0747 154.694 99.144 154.236 99.144ZM154.028 92.04C153.292 92.04 152.71 92.2693 152.284 92.728C151.857 93.1867 151.606 93.7893 151.532 94.536H156.252C156.22 93.7467 156.012 93.1333 155.628 92.696C155.254 92.2587 154.721 92.04 154.028 92.04ZM161.871 99.144C161.391 99.144 160.906 99.0853 160.415 98.968C159.935 98.84 159.487 98.6373 159.071 98.36C158.879 98.2427 158.783 98.0933 158.783 97.912C158.794 97.72 158.869 97.5707 159.007 97.464C159.146 97.3573 159.322 97.3573 159.535 97.464C159.951 97.72 160.351 97.9013 160.735 98.008C161.13 98.104 161.519 98.152 161.903 98.152C162.511 98.152 162.97 98.04 163.279 97.816C163.589 97.592 163.743 97.288 163.743 96.904C163.743 96.6053 163.642 96.3707 163.439 96.2C163.237 96.0187 162.917 95.88 162.479 95.784L161.023 95.464C159.701 95.176 159.039 94.4933 159.039 93.416C159.039 92.712 159.317 92.1467 159.871 91.72C160.437 91.2933 161.173 91.08 162.079 91.08C162.538 91.08 162.981 91.144 163.407 91.272C163.834 91.3893 164.218 91.5813 164.559 91.848C164.741 91.976 164.821 92.1307 164.799 92.312C164.778 92.4933 164.693 92.6373 164.543 92.744C164.405 92.84 164.234 92.824 164.031 92.696C163.711 92.4827 163.386 92.328 163.055 92.232C162.725 92.1253 162.399 92.072 162.079 92.072C161.482 92.072 161.029 92.1893 160.719 92.424C160.41 92.6587 160.255 92.968 160.255 93.352C160.255 93.9493 160.65 94.3333 161.439 94.504L162.895 94.808C163.578 94.9573 164.095 95.1973 164.447 95.528C164.799 95.848 164.975 96.2853 164.975 96.84C164.975 97.5547 164.693 98.12 164.127 98.536C163.562 98.9413 162.81 99.144 161.871 99.144ZM167.59 89.352C167.025 89.352 166.742 89.0853 166.742 88.552C166.742 88.0293 167.025 87.768 167.59 87.768C168.156 87.768 168.438 88.0293 168.438 88.552C168.438 89.0853 168.156 89.352 167.59 89.352ZM167.59 99.08C167.164 99.08 166.95 98.8453 166.95 98.376V91.832C166.95 91.3733 167.164 91.144 167.59 91.144C168.028 91.144 168.246 91.3733 168.246 91.832V98.376C168.246 98.8453 168.028 99.08 167.59 99.08ZM174.109 102.024C173.544 102.024 172.989 101.955 172.445 101.816C171.912 101.688 171.426 101.48 170.989 101.192C170.829 101.096 170.733 100.979 170.701 100.84C170.68 100.712 170.701 100.584 170.765 100.456C170.829 100.339 170.92 100.253 171.037 100.2C171.165 100.147 171.298 100.157 171.437 100.232C171.906 100.52 172.354 100.717 172.781 100.824C173.208 100.931 173.629 100.984 174.045 100.984C175.581 100.984 176.349 100.195 176.349 98.616V97.24C176.125 97.7307 175.773 98.12 175.293 98.408C174.824 98.6853 174.285 98.824 173.677 98.824C172.962 98.824 172.344 98.6587 171.821 98.328C171.298 97.9973 170.893 97.544 170.605 96.968C170.328 96.3813 170.189 95.704 170.189 94.936C170.189 94.168 170.328 93.496 170.605 92.92C170.893 92.3333 171.298 91.88 171.821 91.56C172.344 91.24 172.962 91.08 173.677 91.08C174.285 91.08 174.824 91.2133 175.293 91.48C175.762 91.7467 176.109 92.12 176.333 92.6V91.768C176.333 91.3307 176.546 91.112 176.973 91.112C177.4 91.112 177.613 91.3307 177.613 91.768V98.44C177.613 99.6347 177.314 100.531 176.717 101.128C176.13 101.725 175.261 102.024 174.109 102.024ZM173.917 97.768C174.664 97.768 175.256 97.512 175.693 97C176.13 96.488 176.349 95.8 176.349 94.936C176.349 94.072 176.13 93.3893 175.693 92.888C175.256 92.376 174.664 92.12 173.917 92.12C173.181 92.12 172.594 92.376 172.157 92.888C171.72 93.3893 171.501 94.072 171.501 94.936C171.501 95.8 171.72 96.488 172.157 97C172.594 97.512 173.181 97.768 173.917 97.768ZM180.684 99.112C180.257 99.112 180.044 98.888 180.044 98.44V91.768C180.044 91.3307 180.252 91.112 180.668 91.112C181.095 91.112 181.308 91.3307 181.308 91.768V92.552C181.564 92.0613 181.927 91.6933 182.396 91.448C182.865 91.2027 183.393 91.08 183.98 91.08C185.825 91.08 186.748 92.104 186.748 94.152V98.44C186.748 98.888 186.535 99.112 186.108 99.112C185.671 99.112 185.452 98.888 185.452 98.44V94.232C185.452 93.5067 185.308 92.9787 185.02 92.648C184.743 92.3067 184.295 92.136 183.676 92.136C182.961 92.136 182.391 92.36 181.964 92.808C181.548 93.2453 181.34 93.832 181.34 94.568V98.44C181.34 98.888 181.121 99.112 180.684 99.112Z" fill="white" fill-opacity="0.5"/>
</svg>
