<svg width="258" height="416" viewBox="0 0 258 416" fill="none" xmlns="http://www.w3.org/2000/svg">
<g clip-path="url(#clip0_2_4769)">
<rect width="258" height="416" rx="12" fill="white"/>
<path d="M258 0L0 0L0 416H258V0Z" fill="#3532B3"/>
<path d="M0 48.2314C0 48.2314 34.9517 72.3472 34.9517 146.762C34.9517 221.177 0 242.528 0 271.464L0 48.2314Z" fill="#FFC32B"/>
<path d="M258 285.339C258 285.339 204.855 270.811 195.65 309.107C186.444 347.404 133.404 357.969 133.404 357.969C133.404 357.969 75.5869 366.904 71.8018 416H258V285.339Z" fill="#FF8500"/>
<path opacity="0.6" d="M25.9463 416.073C25.9463 416.073 42.6676 321.678 183.996 416.073H25.9463Z" fill="#540A7F"/>
<path d="M17.4761 0C17.4761 0 21.0175 31.7873 75.5261 31.7873C95.01 31.7873 107.387 22.2315 122.319 11.0974C130.205 5.21223 139.856 0 149.932 0L17.4761 0Z" fill="#FF8500"/>
<path d="M207.142 0C216.782 0 216.733 22.5741 214.447 28.1412C207.916 44.0471 202.28 48.7454 197.611 55.0588C192.169 62.419 189.75 63.9035 188.033 69.5944C185.444 78.1713 185.384 87.7638 189.218 95.8391C196.62 111.427 213.105 110.668 227.751 111.696C229.795 111.843 258 113.825 258 112.406V0C258 0 207.565 0 207.142 0Z" fill="#FFC32B"/>
<path opacity="0.6" d="M97.2892 0C97.2892 0 40.9128 113.55 135.044 112.337C229.174 111.125 200.511 91.3147 258 96.8612V184.772C258 184.772 -27.7778 212.664 82.5168 0L97.2892 0Z" fill="#540A7F"/>
<path d="M169.264 163.623C168.047 163.623 167.061 162.632 167.061 161.408V136.815C167.061 135.592 168.047 134.601 169.264 134.601C170.481 134.601 171.467 135.592 171.467 136.815V161.408C171.467 162.644 170.481 163.623 169.264 163.623Z" fill="white"/>
<path d="M189.758 163.623C181.799 163.623 175.324 157.114 175.324 149.112C175.324 141.11 181.799 134.601 189.758 134.601C197.717 134.601 204.191 141.11 204.191 149.112C204.191 157.126 197.717 163.623 189.758 163.623ZM189.758 139.03C184.22 139.03 179.718 143.557 179.718 149.124C179.718 154.691 184.22 159.218 189.758 159.218C195.295 159.218 199.798 154.691 199.798 149.124C199.798 143.557 195.295 139.03 189.758 139.03Z" fill="white"/>
<path d="M222.482 134.613C214.523 134.613 208.049 141.122 208.049 149.124V161.42C208.049 162.644 209.035 163.635 210.252 163.635C211.469 163.635 212.454 162.644 212.454 161.42V149.124C212.454 143.557 216.957 139.03 222.494 139.03C228.032 139.03 232.535 143.557 232.535 149.124V161.42C232.535 162.644 233.52 163.635 234.737 163.635C235.954 163.635 236.94 162.644 236.94 161.42V149.124C236.916 141.122 230.441 134.613 222.482 134.613Z" fill="white"/>
<path d="M148.77 134.613C144.875 134.613 141.334 136.179 138.73 138.712V123.234C138.73 122.011 137.744 121.02 136.527 121.02C135.31 121.02 134.324 122.011 134.324 123.234V149.124C134.324 157.126 140.799 163.635 148.758 163.635C156.717 163.635 163.191 157.126 163.191 149.124C163.203 141.122 156.729 134.613 148.77 134.613ZM148.77 159.206C143.233 159.206 138.73 154.679 138.73 149.112C138.73 143.545 143.233 139.018 148.77 139.018C154.307 139.018 158.81 143.545 158.81 149.112C158.81 154.679 154.307 159.206 148.77 159.206Z" fill="white"/>
<path d="M186.764 154.887C186.533 154.887 186.289 154.801 186.107 154.642L182.687 151.706C182.261 151.339 182.212 150.702 182.577 150.274C182.942 149.846 183.575 149.797 184.001 150.164L186.35 152.183C187.36 150.042 189.952 145.98 195.757 143.435C196.268 143.214 196.865 143.447 197.084 143.961C197.303 144.475 197.072 145.074 196.561 145.294C189.49 148.402 187.798 153.92 187.725 154.153C187.628 154.483 187.372 154.74 187.044 154.838C186.958 154.875 186.861 154.887 186.764 154.887Z" fill="white"/>
<path d="M167.012 168.504C167.012 168.272 167.195 168.088 167.426 168.088H169.118C169.665 168.088 170.067 168.235 170.347 168.504C170.554 168.712 170.663 168.982 170.663 169.287V169.3C170.663 169.875 170.347 170.168 169.994 170.352C170.554 170.548 170.931 170.854 170.931 171.502V171.514C170.931 172.358 170.237 172.811 169.191 172.811H167.426C167.195 172.811 167.012 172.628 167.012 172.395V168.504ZM168.959 170.083C169.495 170.083 169.848 169.875 169.848 169.446V169.434C169.848 169.055 169.556 168.835 169.02 168.835H167.828V170.095H168.959V170.083ZM169.203 172.077C169.763 172.077 170.116 171.857 170.116 171.429V171.416C170.116 171.013 169.799 170.78 169.154 170.78H167.84V172.077H169.203Z" fill="white"/>
<path d="M173.438 170.976L171.819 168.737C171.77 168.651 171.722 168.566 171.722 168.443C171.722 168.223 171.904 168.04 172.135 168.04C172.318 168.04 172.44 168.137 172.537 168.284L173.851 170.181L175.178 168.272C175.275 168.113 175.397 168.027 175.58 168.027C175.823 168.027 175.981 168.211 175.981 168.431C175.981 168.541 175.932 168.651 175.872 168.725L174.265 170.927V172.408C174.265 172.64 174.083 172.824 173.851 172.824C173.62 172.824 173.438 172.652 173.438 172.408V170.976Z" fill="white"/>
<path d="M179.669 168.504C179.669 168.272 179.851 168.088 180.083 168.088H181.774C182.322 168.088 182.724 168.235 183.003 168.504C183.21 168.712 183.32 168.982 183.32 169.287V169.3C183.32 169.875 183.003 170.168 182.651 170.352C183.21 170.548 183.588 170.854 183.588 171.502V171.514C183.588 172.358 182.894 172.811 181.847 172.811H180.083C179.851 172.811 179.669 172.628 179.669 172.395V168.504ZM181.604 170.083C182.139 170.083 182.492 169.875 182.492 169.446V169.434C182.492 169.055 182.2 168.835 181.665 168.835H180.472V170.095H181.604V170.083ZM181.847 172.077C182.407 172.077 182.76 171.857 182.76 171.429V171.416C182.76 171.013 182.444 170.78 181.799 170.78H180.484V172.077H181.847Z" fill="white"/>
<path d="M184.683 172.273L186.423 168.358C186.52 168.15 186.691 168.015 186.922 168.015H186.959C187.19 168.015 187.348 168.137 187.445 168.358L189.198 172.273C189.234 172.334 189.246 172.383 189.246 172.444C189.246 172.665 189.076 172.848 188.857 172.848C188.662 172.848 188.528 172.738 188.455 172.554L188.078 171.673H185.79L185.389 172.591C185.316 172.762 185.182 172.86 185.011 172.86C184.792 172.86 184.634 172.689 184.634 172.481C184.622 172.408 184.646 172.346 184.683 172.273ZM187.75 170.939L186.922 169.031L186.094 170.939H187.75Z" fill="white"/>
<path d="M190.573 168.48C190.573 168.247 190.755 168.064 190.986 168.064H191.072C191.279 168.064 191.388 168.162 191.498 168.309L193.846 171.367V168.468C193.846 168.247 194.029 168.064 194.248 168.064C194.479 168.064 194.662 168.247 194.662 168.468V172.432C194.662 172.664 194.491 172.848 194.26 172.848H194.224C194.029 172.848 193.907 172.75 193.798 172.603L191.376 169.459V172.456C191.376 172.677 191.193 172.86 190.974 172.86C190.743 172.86 190.561 172.677 190.561 172.456V168.48H190.573Z" fill="white"/>
<path d="M196.305 168.468C196.305 168.235 196.488 168.052 196.719 168.052C196.95 168.052 197.133 168.223 197.133 168.468V170.462L199.36 168.211C199.457 168.113 199.542 168.052 199.7 168.052C199.932 168.052 200.078 168.223 200.078 168.431C200.078 168.541 200.029 168.651 199.932 168.737L198.471 170.156L200.053 172.138C200.126 172.224 200.163 172.31 200.163 172.432C200.163 172.664 199.98 172.836 199.749 172.836C199.591 172.836 199.481 172.75 199.396 172.64L197.887 170.707L197.121 171.453V172.432C197.121 172.664 196.95 172.848 196.707 172.848C196.476 172.848 196.293 172.677 196.293 172.432V168.468H196.305Z" fill="white"/>
<path d="M203.96 168.48C203.96 168.248 204.142 168.064 204.374 168.064H204.459C204.641 168.064 204.763 168.162 204.836 168.284L206.26 170.523L207.696 168.272C207.781 168.125 207.915 168.052 208.073 168.052H208.159C208.39 168.052 208.572 168.235 208.572 168.468V172.42C208.572 172.652 208.39 172.836 208.159 172.836C207.939 172.836 207.745 172.652 207.745 172.42V169.581L206.601 171.319C206.516 171.453 206.406 171.539 206.248 171.539C206.09 171.539 205.992 171.453 205.907 171.319L204.763 169.593V172.42C204.763 172.652 204.593 172.824 204.349 172.824C204.118 172.824 203.948 172.652 203.948 172.42V168.48H203.96Z" fill="white"/>
<path d="M210.641 172.811C210.41 172.811 210.227 172.628 210.227 172.395V168.504C210.227 168.272 210.41 168.088 210.641 168.088H213.379C213.586 168.088 213.744 168.247 213.744 168.455C213.744 168.663 213.586 168.822 213.379 168.822H211.055V170.046H213.075C213.282 170.046 213.44 170.217 213.44 170.425C213.44 170.633 213.282 170.792 213.075 170.792H211.055V172.065H213.416C213.622 172.065 213.781 172.224 213.781 172.432C213.781 172.64 213.622 172.799 213.416 172.799H210.641V172.811Z" fill="white"/>
<path d="M215.034 172.285C214.937 172.212 214.876 172.102 214.876 171.967C214.876 171.747 215.046 171.588 215.265 171.588C215.375 171.588 215.448 171.612 215.509 171.661C215.91 171.979 216.312 172.151 216.823 172.151C217.334 172.151 217.651 171.906 217.651 171.551V171.539C217.651 171.208 217.468 171.013 216.592 170.817C215.594 170.584 215.022 170.266 215.022 169.41V169.398C215.022 168.59 215.691 168.027 216.628 168.027C217.225 168.027 217.687 168.174 218.125 168.468C218.223 168.517 218.308 168.639 218.308 168.798C218.308 169.018 218.137 169.177 217.918 169.177C217.845 169.177 217.772 169.153 217.699 169.116C217.334 168.884 216.994 168.761 216.616 168.761C216.129 168.761 215.85 169.006 215.85 169.324V169.337C215.85 169.704 216.069 169.863 216.969 170.083C217.955 170.34 218.478 170.682 218.478 171.465V171.478C218.478 172.371 217.785 172.885 216.799 172.885C216.142 172.885 215.557 172.689 215.034 172.285Z" fill="white"/>
<path d="M220.925 168.859H219.781C219.562 168.859 219.403 168.688 219.403 168.48C219.403 168.272 219.574 168.101 219.781 168.101H222.908C223.115 168.101 223.286 168.272 223.286 168.48C223.286 168.688 223.115 168.859 222.908 168.859H221.764V172.432C221.764 172.664 221.582 172.848 221.351 172.848C221.119 172.848 220.937 172.677 220.937 172.432V168.859H220.925Z" fill="white"/>
<path d="M224.6 168.468C224.6 168.235 224.782 168.052 225.013 168.052C225.245 168.052 225.427 168.223 225.427 168.468V172.432C225.427 172.664 225.257 172.848 225.013 172.848C224.782 172.848 224.6 172.677 224.6 172.432V168.468Z" fill="white"/>
<path d="M227.107 168.468C227.107 168.235 227.289 168.052 227.521 168.052C227.752 168.052 227.934 168.223 227.934 168.468V170.462L230.162 168.211C230.259 168.113 230.344 168.052 230.502 168.052C230.733 168.052 230.88 168.223 230.88 168.431C230.88 168.541 230.831 168.651 230.733 168.737L229.273 170.156L230.855 172.138C230.928 172.224 230.965 172.31 230.965 172.432C230.965 172.664 230.782 172.836 230.551 172.836C230.393 172.836 230.283 172.75 230.198 172.64L228.689 170.707L227.922 171.453V172.432C227.922 172.664 227.752 172.848 227.508 172.848C227.277 172.848 227.095 172.677 227.095 172.432V168.468H227.107Z" fill="white"/>
<path d="M232.036 172.273L233.776 168.358C233.873 168.15 234.044 168.015 234.275 168.015H234.311C234.543 168.015 234.701 168.137 234.798 168.358L236.551 172.273C236.587 172.334 236.599 172.383 236.599 172.444C236.599 172.665 236.429 172.848 236.21 172.848C236.015 172.848 235.881 172.738 235.808 172.554L235.431 171.673H233.143L232.742 172.591C232.669 172.762 232.535 172.86 232.364 172.86C232.145 172.86 231.987 172.689 231.987 172.481C231.975 172.408 231.999 172.346 232.036 172.273ZM235.115 170.939L234.287 169.031L233.46 170.939H235.115Z" fill="white"/>
<path d="M43.6348 72.0659C43.6348 72.0659 29.2076 167.012 137.488 185.83" stroke="#FFC32B" stroke-width="5" stroke-miterlimit="10" stroke-linecap="round"/>
<path d="M149.208 191.666C150.902 191.666 152.275 190.286 152.275 188.583C152.275 186.88 150.902 185.5 149.208 185.5C147.514 185.5 146.141 186.88 146.141 188.583C146.141 190.286 147.514 191.666 149.208 191.666Z" fill="#FFC32B"/>
<path d="M160.356 193.611C162.05 193.611 163.423 192.231 163.423 190.528C163.423 188.825 162.05 187.445 160.356 187.445C158.662 187.445 157.289 188.825 157.289 190.528C157.289 192.231 158.662 193.611 160.356 193.611Z" fill="#FFC32B"/>
<path opacity="0.6" d="M169.051 280.812C163.501 258.935 112.826 253.038 55.8594 267.635C34.5379 273.104 15.3705 280.665 0 289.132L0 353.955C20.494 356.353 47.4379 354.175 75.9518 346.87C132.919 332.262 174.6 302.689 169.051 280.812Z" fill="#540A7F"/>
<path d="M20.8476 263.809C21.8193 263.809 22.6059 263.515 23.2229 262.912C23.8399 262.294 24.21 261.351 24.21 260.067V253.374C24.21 253.018 23.9633 252.755 23.6085 252.755C23.2538 252.755 22.9915 253.018 22.9915 253.374V260.083C22.9915 261.799 22.097 262.68 20.8785 262.68C19.8759 262.68 19.259 262.263 18.6574 261.459C18.5495 261.351 18.4261 261.242 18.2256 261.242C17.9017 261.242 17.624 261.521 17.624 261.845C17.624 262.015 17.6857 262.155 17.7937 262.263C18.4569 263.175 19.4286 263.809 20.8476 263.809Z" fill="white"/>
<path d="M32.103 263.84C35.3883 263.84 37.6247 261.227 37.6247 258.243V258.212C37.6247 255.229 35.4191 252.647 32.1338 252.647C28.8485 252.647 26.6121 255.26 26.6121 258.243V258.274C26.6121 261.258 28.8177 263.84 32.103 263.84ZM32.1338 262.711C29.666 262.711 27.8768 260.701 27.8768 258.243V258.212C27.8768 255.754 29.6352 253.776 32.103 253.776C34.5708 253.776 36.36 255.785 36.36 258.243V258.274C36.36 260.732 34.6017 262.711 32.1338 262.711Z" fill="white"/>
<path d="M40.1945 263.128C40.1945 263.453 40.4567 263.731 40.7806 263.731C41.1354 263.731 41.3822 263.453 41.3822 263.128V254.749L48.0761 263.329C48.2612 263.561 48.4463 263.7 48.7085 263.7H48.7702C49.0941 263.7 49.3255 263.453 49.3255 263.128V253.358C49.3255 253.033 49.0633 252.755 48.7394 252.755C48.3846 252.755 48.1378 253.033 48.1378 253.358V261.521L41.5827 253.142C41.413 252.91 41.2588 252.786 40.9657 252.786H40.796C40.4721 252.786 40.1945 253.064 40.1945 253.389V263.128Z" fill="white"/>
<path d="M51.6397 263.175C51.6397 263.484 51.8864 263.731 52.1949 263.731C52.4725 263.731 52.6731 263.592 52.781 263.314L53.907 260.794H59.8298L60.9557 263.283C61.0637 263.53 61.2642 263.731 61.5572 263.731C61.8811 263.731 62.1433 263.469 62.1433 263.144C62.1433 263.067 62.1125 262.958 62.0662 262.835L57.6858 253.25C57.547 252.894 57.2848 252.709 56.9301 252.709H56.8684C56.4828 252.709 56.2668 252.894 56.0972 253.25L51.7168 262.85C51.6705 262.958 51.6397 263.067 51.6397 263.175ZM54.3851 259.681L56.8684 254.147L59.3516 259.681H54.3851Z" fill="white"/>
<path d="M66.0031 263.113C66.0031 263.469 66.2653 263.731 66.62 263.731C66.9748 263.731 67.237 263.469 67.237 263.113V253.961H70.368C70.6765 253.961 70.9387 253.714 70.9387 253.404C70.9387 253.095 70.6765 252.832 70.368 252.832H62.872C62.5635 252.832 62.3013 253.095 62.3013 253.404C62.3013 253.714 62.5635 253.961 62.872 253.961H66.0031V263.113Z" fill="white"/>
<path d="M73.1511 263.113C73.1511 263.469 73.4287 263.731 73.7526 263.731C74.1074 263.731 74.3696 263.469 74.3696 263.113V258.784H80.6008V263.113C80.6008 263.469 80.863 263.731 81.2178 263.731C81.5417 263.731 81.8193 263.469 81.8193 263.113V253.374C81.8193 253.018 81.5417 252.755 81.2178 252.755C80.863 252.755 80.6008 253.018 80.6008 253.374V257.64H74.3696V253.374C74.3696 253.018 74.1074 252.755 73.7526 252.755C73.4287 252.755 73.1511 253.018 73.1511 253.374V263.113Z" fill="white"/>
<path d="M84.1293 263.175C84.1293 263.484 84.3761 263.731 84.6845 263.731C84.9622 263.731 85.1627 263.592 85.2707 263.314L86.3966 260.794H92.3194L93.4453 263.283C93.5533 263.53 93.7538 263.731 94.0469 263.731C94.3708 263.731 94.633 263.469 94.633 263.144C94.633 263.067 94.6021 262.958 94.5559 262.835L90.1755 253.25C90.0366 252.894 89.7744 252.709 89.4197 252.709H89.358C88.9724 252.709 88.7565 252.894 88.5868 253.25L84.2064 262.85C84.1601 262.958 84.1293 263.067 84.1293 263.175ZM86.8747 259.681L89.358 254.147L91.8412 259.681H86.8747Z" fill="white"/>
<path d="M96.9648 263.128C96.9648 263.453 97.227 263.731 97.5509 263.731C97.9056 263.731 98.1524 263.453 98.1524 263.128V254.749L104.846 263.329C105.031 263.561 105.217 263.7 105.479 263.7H105.54C105.864 263.7 106.096 263.453 106.096 263.128V253.358C106.096 253.033 105.834 252.755 105.51 252.755C105.155 252.755 104.908 253.033 104.908 253.358V261.521L98.3529 253.142C98.1832 252.91 98.029 252.786 97.7359 252.786H97.5663C97.2424 252.786 96.9648 253.064 96.9648 253.389V263.128Z" fill="white"/>
<path d="M118.787 263.84C122.072 263.84 124.309 261.227 124.309 258.243V258.212C124.309 255.229 122.103 252.647 118.818 252.647C115.533 252.647 113.296 255.26 113.296 258.243V258.274C113.296 261.258 115.502 263.84 118.787 263.84ZM118.818 262.711C116.35 262.711 114.561 260.701 114.561 258.243V258.212C114.561 255.754 116.319 253.776 118.787 253.776C121.255 253.776 123.044 255.785 123.044 258.243V258.274C123.044 260.732 121.286 262.711 118.818 262.711Z" fill="white"/>
<path d="M126.879 263.128C126.879 263.453 127.141 263.731 127.465 263.731C127.82 263.731 128.066 263.453 128.066 263.128V254.749L134.76 263.329C134.945 263.561 135.131 263.7 135.393 263.7H135.454C135.778 263.7 136.01 263.453 136.01 263.128V253.358C136.01 253.033 135.747 252.755 135.424 252.755C135.069 252.755 134.822 253.033 134.822 253.358V261.521L128.267 253.142C128.097 252.91 127.943 252.786 127.65 252.786H127.48C127.156 252.786 126.879 253.064 126.879 253.389V263.128Z" fill="white"/>
<path d="M144.077 263.84C145.681 263.84 147.008 263.252 147.995 262.526C148.272 262.34 148.411 262.093 148.411 261.783V258.491C148.411 258.135 148.133 257.872 147.81 257.872H144.339C144.046 257.872 143.799 258.12 143.799 258.429C143.799 258.723 144.046 258.97 144.339 258.97H147.239V261.66C146.499 262.263 145.357 262.742 144.123 262.742C141.501 262.742 139.851 260.825 139.851 258.243V258.212C139.851 255.801 141.563 253.776 143.954 253.776C145.311 253.776 146.159 254.162 146.946 254.765C147.085 254.873 147.208 254.92 147.331 254.92C147.655 254.92 147.933 254.657 147.933 254.301C147.933 254.069 147.825 253.915 147.686 253.806C146.699 253.08 145.65 252.647 144 252.647C140.761 252.647 138.586 255.275 138.586 258.243V258.274C138.586 261.366 140.684 263.84 144.077 263.84Z" fill="white"/>
<path d="M22.0366 314.194C24.536 314.194 26.2453 312.675 26.2453 310.283V310.251C26.2453 307.713 24.5199 306.631 22.2946 306.631C21.6658 306.631 21.2626 306.711 20.8111 306.825L20.9401 304.869H24.7456C25.3423 304.869 25.8421 304.384 25.8421 303.786C25.8421 303.188 25.3423 302.687 24.7456 302.687H19.8436C19.247 302.687 18.7955 303.156 18.7471 303.754L18.5214 307.584C18.4891 308.021 18.6343 308.344 18.9729 308.586C19.4728 308.958 19.7308 309.087 20.1016 309.087C20.4403 309.087 20.8595 308.796 21.8109 308.796C22.988 308.796 23.8104 309.362 23.8104 310.332V310.364C23.8104 311.382 23.0364 311.932 21.9883 311.932C21.1981 311.932 20.537 311.706 19.8436 311.204C19.6501 311.059 19.4728 310.978 19.1664 310.978C18.5214 310.978 17.9893 311.528 17.9893 312.174C17.9893 312.611 18.1828 312.918 18.4891 313.128C19.3921 313.774 20.4725 314.194 22.0366 314.194Z" fill="white"/>
<path d="M33.0642 314.194C36.0796 314.194 38.0952 311.625 38.0952 308.344V308.311C38.0952 305.014 36.0796 302.493 33.0965 302.493C30.0811 302.493 28.0655 305.063 28.0655 308.344V308.376C28.0655 311.673 30.0327 314.194 33.0642 314.194ZM33.0965 311.948C31.5969 311.948 30.6132 310.413 30.6132 308.344V308.311C30.6132 306.243 31.5807 304.74 33.0642 304.74C34.5477 304.74 35.5475 306.291 35.5475 308.344V308.376C35.5475 310.445 34.5961 311.948 33.0965 311.948Z" fill="white"/>
<path d="M39.5095 312.821C39.5095 313.58 40.0738 314.001 40.8478 314.001H46.9753C47.572 314.001 48.0557 313.532 48.0557 312.934C48.0557 312.336 47.572 311.851 46.9753 311.851H43.0408L44.8791 310.429C46.8786 308.861 47.8461 307.956 47.8461 306.049V306.016C47.8461 303.899 46.282 302.525 43.96 302.525C42.2346 302.525 41.1865 303.14 40.2835 304.19C40.09 304.416 39.9932 304.675 39.9932 304.966C39.9932 305.596 40.4931 306.097 41.122 306.097C41.509 306.097 41.7831 305.92 41.9605 305.742C42.5893 305.047 43.0892 304.756 43.7987 304.756C44.7017 304.756 45.3145 305.257 45.3145 306.227C45.3145 307.18 44.7823 307.778 43.3633 308.942L40.1545 311.576C39.7191 311.916 39.5095 312.336 39.5095 312.821Z" fill="white"/>
<path d="M53.9421 314.162C56.4415 314.162 58.2958 312.934 58.2958 310.833V310.8C58.2958 309.459 57.6186 308.732 56.4737 308.134C57.3606 307.6 57.9088 306.889 57.9088 305.661V305.629C57.9088 303.883 56.3286 302.525 53.9421 302.525C51.5556 302.525 49.9753 303.899 49.9753 305.629V305.661C49.9753 306.889 50.5236 307.6 51.4105 308.134C50.2011 308.699 49.5883 309.491 49.5883 310.865V310.897C49.5883 312.869 51.4427 314.162 53.9421 314.162ZM53.9421 307.309C52.9585 307.309 52.3296 306.711 52.3296 305.92V305.887C52.3296 305.192 52.9101 304.578 53.9421 304.578C54.9741 304.578 55.5546 305.208 55.5546 305.903V305.936C55.5546 306.728 54.9257 307.309 53.9421 307.309ZM53.9421 312.11C52.7166 312.11 51.991 311.479 51.991 310.703V310.671C51.991 309.782 52.7972 309.281 53.9421 309.281C55.087 309.281 55.8932 309.782 55.8932 310.671V310.703C55.8932 311.495 55.1676 312.11 53.9421 312.11Z" fill="white"/>
<path d="M64.5473 312.821C64.5473 313.58 65.1117 314.001 65.8857 314.001H72.0132C72.6098 314.001 73.0935 313.532 73.0935 312.934C73.0935 312.336 72.6098 311.851 72.0132 311.851H68.0787L69.9169 310.429C71.9164 308.861 72.8839 307.956 72.8839 306.049V306.016C72.8839 303.899 71.3198 302.525 68.9978 302.525C67.2724 302.525 66.2243 303.14 65.3213 304.19C65.1278 304.416 65.031 304.675 65.031 304.966C65.031 305.596 65.5309 306.097 66.1598 306.097C66.5468 306.097 66.8209 305.92 66.9983 305.742C67.6272 305.047 68.127 304.756 68.8365 304.756C69.7395 304.756 70.3523 305.257 70.3523 306.227C70.3523 307.18 69.8202 307.778 68.4012 308.942L65.1923 311.576C64.7569 311.916 64.5473 312.336 64.5473 312.821Z" fill="white"/>
<path d="M79.7701 314.194C82.7854 314.194 84.8011 311.625 84.8011 308.344V308.311C84.8011 305.014 82.7854 302.493 79.8023 302.493C76.7869 302.493 74.7713 305.063 74.7713 308.344V308.376C74.7713 311.673 76.7386 314.194 79.7701 314.194ZM79.8023 311.948C78.3027 311.948 77.319 310.413 77.319 308.344V308.311C77.319 306.243 78.2866 304.74 79.7701 304.74C81.2536 304.74 82.2533 306.291 82.2533 308.344V308.376C82.2533 310.445 81.3019 311.948 79.8023 311.948Z" fill="white"/>
<path d="M90.7587 314.162C93.2581 314.162 95.1125 312.934 95.1125 310.833V310.8C95.1125 309.459 94.4352 308.732 93.2904 308.134C94.1772 307.6 94.7255 306.889 94.7255 305.661V305.629C94.7255 303.883 93.1452 302.525 90.7587 302.525C88.3722 302.525 86.792 303.899 86.792 305.629V305.661C86.792 306.889 87.3402 307.6 88.2271 308.134C87.0177 308.699 86.405 309.491 86.405 310.865V310.897C86.405 312.869 88.2594 314.162 90.7587 314.162ZM90.7587 307.309C89.7751 307.309 89.1462 306.711 89.1462 305.92V305.887C89.1462 305.192 89.7267 304.578 90.7587 304.578C91.7907 304.578 92.3712 305.208 92.3712 305.903V305.936C92.3712 306.728 91.7424 307.309 90.7587 307.309ZM90.7587 312.11C89.5332 312.11 88.8076 311.479 88.8076 310.703V310.671C88.8076 309.782 89.6139 309.281 90.7587 309.281C91.9036 309.281 92.7099 309.782 92.7099 310.671V310.703C92.7099 311.495 91.9842 312.11 90.7587 312.11Z" fill="white"/>
<path d="M101.706 314.194C104.721 314.194 106.737 311.625 106.737 308.344V308.311C106.737 305.014 104.721 302.493 101.738 302.493C98.7226 302.493 96.707 305.063 96.707 308.344V308.376C96.707 311.673 98.6742 314.194 101.706 314.194ZM101.738 311.948C100.238 311.948 99.2547 310.413 99.2547 308.344V308.311C99.2547 306.243 100.222 304.74 101.706 304.74C103.189 304.74 104.189 306.291 104.189 308.344V308.376C104.189 310.445 103.238 311.948 101.738 311.948Z" fill="white"/>
<path d="M117.448 314.194C119.948 314.194 121.657 312.675 121.657 310.283V310.251C121.657 307.713 119.931 306.631 117.706 306.631C117.077 306.631 116.674 306.711 116.223 306.825L116.352 304.869H120.157C120.754 304.869 121.254 304.384 121.254 303.786C121.254 303.188 120.754 302.687 120.157 302.687H115.255C114.659 302.687 114.207 303.156 114.159 303.754L113.933 307.584C113.901 308.021 114.046 308.344 114.384 308.586C114.884 308.958 115.142 309.087 115.513 309.087C115.852 309.087 116.271 308.796 117.222 308.796C118.4 308.796 119.222 309.362 119.222 310.332V310.364C119.222 311.382 118.448 311.932 117.4 311.932C116.61 311.932 115.949 311.706 115.255 311.204C115.062 311.059 114.884 310.978 114.578 310.978C113.933 310.978 113.401 311.528 113.401 312.174C113.401 312.611 113.594 312.918 113.901 313.128C114.804 313.774 115.884 314.194 117.448 314.194Z" fill="white"/>
<path d="M123.142 312.821C123.142 313.58 123.707 314.001 124.481 314.001H130.608C131.205 314.001 131.688 313.532 131.688 312.934C131.688 312.336 131.205 311.851 130.608 311.851H126.674L128.512 310.429C130.511 308.861 131.479 307.956 131.479 306.049V306.016C131.479 303.899 129.915 302.525 127.593 302.525C125.867 302.525 124.819 303.14 123.916 304.19C123.723 304.416 123.626 304.675 123.626 304.966C123.626 305.596 124.126 306.097 124.755 306.097C125.142 306.097 125.416 305.92 125.593 305.742C126.222 305.047 126.722 304.756 127.431 304.756C128.334 304.756 128.947 305.257 128.947 306.227C128.947 307.18 128.415 307.778 126.996 308.942L123.787 311.576C123.352 311.916 123.142 312.336 123.142 312.821Z" fill="white"/>
<path d="M138.365 314.194C141.38 314.194 143.396 311.625 143.396 308.344V308.311C143.396 305.014 141.38 302.493 138.397 302.493C135.382 302.493 133.366 305.063 133.366 308.344V308.376C133.366 311.673 135.333 314.194 138.365 314.194ZM138.397 311.948C136.898 311.948 135.914 310.413 135.914 308.344V308.311C135.914 306.243 136.881 304.74 138.365 304.74C139.848 304.74 140.848 306.291 140.848 308.344V308.376C140.848 310.445 139.897 311.948 138.397 311.948Z" fill="white"/>
<path d="M150.144 314.194C153.159 314.194 155.175 311.625 155.175 308.344V308.311C155.175 305.014 153.159 302.493 150.176 302.493C147.161 302.493 145.145 305.063 145.145 308.344V308.376C145.145 311.673 147.112 314.194 150.144 314.194ZM150.176 311.948C148.676 311.948 147.693 310.413 147.693 308.344V308.311C147.693 306.243 148.66 304.74 150.144 304.74C151.627 304.74 152.627 306.291 152.627 308.344V308.376C152.627 310.445 151.676 311.948 150.176 311.948Z" fill="white"/>
<path d="M166.757 314.194C169.772 314.194 171.788 311.625 171.788 308.344V308.311C171.788 305.014 169.772 302.493 166.789 302.493C163.774 302.493 161.758 305.063 161.758 308.344V308.376C161.758 311.673 163.725 314.194 166.757 314.194ZM166.789 311.948C165.289 311.948 164.306 310.413 164.306 308.344V308.311C164.306 306.243 165.273 304.74 166.757 304.74C168.24 304.74 169.24 306.291 169.24 308.344V308.376C169.24 310.445 168.289 311.948 166.789 311.948Z" fill="white"/>
<path d="M178.536 314.194C181.551 314.194 183.567 311.625 183.567 308.344V308.311C183.567 305.014 181.551 302.493 178.568 302.493C175.553 302.493 173.537 305.063 173.537 308.344V308.376C173.537 311.673 175.504 314.194 178.536 314.194ZM178.568 311.948C177.068 311.948 176.085 310.413 176.085 308.344V308.311C176.085 306.243 177.052 304.74 178.536 304.74C180.019 304.74 181.019 306.291 181.019 308.344V308.376C181.019 310.445 180.068 311.948 178.568 311.948Z" fill="white"/>
<path d="M184.981 312.821C184.981 313.58 185.545 314.001 186.319 314.001H192.447C193.043 314.001 193.527 313.532 193.527 312.934C193.527 312.336 193.043 311.851 192.447 311.851H188.512L190.351 310.429C192.35 308.861 193.318 307.956 193.318 306.049V306.016C193.318 303.899 191.753 302.525 189.431 302.525C187.706 302.525 186.658 303.14 185.755 304.19C185.561 304.416 185.465 304.675 185.465 304.966C185.465 305.596 185.965 306.097 186.593 306.097C186.98 306.097 187.255 305.92 187.432 305.742C188.061 305.047 188.561 304.756 189.27 304.756C190.173 304.756 190.786 305.257 190.786 306.227C190.786 307.18 190.254 307.778 188.835 308.942L185.626 311.576C185.191 311.916 184.981 312.336 184.981 312.821Z" fill="white"/>
<path d="M199.801 314.194C202.252 314.194 204.106 312.611 204.106 310.283V310.251C204.106 307.891 202.381 306.647 200.139 306.647C199.027 306.647 198.365 307.002 197.801 307.374C197.978 305.887 198.656 304.756 200.075 304.756C200.768 304.756 201.22 304.901 201.736 305.208C201.913 305.322 202.139 305.386 202.348 305.386C202.993 305.386 203.525 304.885 203.525 304.239C203.525 303.738 203.267 303.414 202.88 303.172C202.187 302.768 201.3 302.493 200.155 302.493C196.785 302.493 195.205 305.176 195.205 308.667V308.699C195.205 310.946 195.721 312.158 196.543 312.982C197.333 313.774 198.317 314.194 199.801 314.194ZM199.704 312.061C198.478 312.061 197.737 311.35 197.737 310.38V310.348C197.737 309.378 198.446 308.716 199.672 308.716C200.897 308.716 201.639 309.394 201.639 310.364V310.396C201.639 311.366 200.929 312.061 199.704 312.061Z" fill="white"/>
<path d="M59.9588 287.583C59.9588 287.939 60.2364 288.202 60.5603 288.202C60.9151 288.202 61.1619 287.939 61.1619 287.583V277.782C61.1619 277.457 60.9151 277.179 60.5603 277.179H60.5295C60.329 277.179 60.113 277.241 59.8663 277.318L58.0925 277.937C57.7995 278.045 57.6606 278.215 57.6606 278.462C57.6606 278.756 57.892 278.988 58.1851 278.988C58.2622 278.988 58.3547 278.972 58.4473 278.941L59.9588 278.447V287.583Z" fill="white"/>
<path d="M63.4045 287.552C63.4045 287.908 63.6667 288.124 64.0214 288.124H70.5149C70.8234 288.124 71.0856 287.877 71.0856 287.568C71.0856 287.259 70.8234 287.011 70.5149 287.011H65.2862L68.1705 284.445C70.0676 282.791 70.9005 281.817 70.9005 280.24V280.209C70.9005 278.447 69.4969 277.148 67.5535 277.148C65.7643 277.148 64.8081 277.906 63.8981 279.142C63.8209 279.251 63.7747 279.359 63.7747 279.483C63.7747 279.792 64.0214 280.039 64.3299 280.039C64.5304 280.039 64.6692 279.946 64.7772 279.823C65.5638 278.787 66.3042 278.246 67.461 278.246C68.6332 278.246 69.6357 279.05 69.6357 280.317C69.6357 281.415 69.0342 282.219 67.3839 283.718L63.6975 286.98C63.497 287.15 63.4045 287.336 63.4045 287.552Z" fill="white"/>
<path d="M71.8974 289.701C71.8974 289.964 72.0979 290.181 72.391 290.181C72.5915 290.181 72.7303 290.072 72.8383 289.871L79.5631 276.453C79.6094 276.375 79.6248 276.282 79.6248 276.19C79.6248 275.927 79.4088 275.71 79.1466 275.71C78.9461 275.71 78.7919 275.819 78.6839 276.02L71.9745 289.438C71.9282 289.516 71.8974 289.593 71.8974 289.701Z" fill="white"/>
<path d="M80.169 287.552C80.169 287.908 80.4312 288.124 80.7859 288.124H87.2794C87.5879 288.124 87.8501 287.877 87.8501 287.568C87.8501 287.259 87.5879 287.011 87.2794 287.011H82.0507L84.9349 284.445C86.8321 282.791 87.665 281.817 87.665 280.24V280.209C87.665 278.447 86.2614 277.148 84.318 277.148C82.5288 277.148 81.5725 277.906 80.6625 279.142C80.5854 279.251 80.5391 279.359 80.5391 279.483C80.5391 279.792 80.7859 280.039 81.0944 280.039C81.2949 280.039 81.4337 279.946 81.5417 279.823C82.3283 278.787 83.0687 278.246 84.2254 278.246C85.3977 278.246 86.4002 279.05 86.4002 280.317C86.4002 281.415 85.7987 282.219 84.1483 283.718L80.462 286.98C80.2615 287.15 80.169 287.336 80.169 287.552Z" fill="white"/>
<path d="M94.98 287.614C94.98 287.939 95.2422 288.202 95.5661 288.202C95.9209 288.202 96.1677 287.939 96.1677 287.614V285.558H97.3861C97.6792 285.558 97.9106 285.357 97.9106 285.063C97.9106 284.77 97.6792 284.538 97.3861 284.538H96.1677V277.782C96.1677 277.426 95.89 277.148 95.5198 277.148C95.1959 277.148 95.0263 277.287 94.8412 277.519L89.2269 284.383C89.0572 284.584 88.9955 284.739 88.9955 284.971C88.9955 285.326 89.2577 285.558 89.6125 285.558H94.98V287.614ZM90.4454 284.538L94.98 278.957V284.538H90.4454Z" fill="white"/>
<path d="M20.6497 280.346C21.0717 280.346 21.3466 280.13 21.5036 279.746L23.7513 274.355C23.7905 274.266 23.8298 274.138 23.8298 274.02C23.8298 273.597 23.5059 273.292 23.0838 273.292C22.7207 273.292 22.4655 273.528 22.3575 273.774L20.6202 278.28L18.9026 273.824C18.7848 273.519 18.5296 273.292 18.137 273.292C17.7149 273.292 17.3812 273.617 17.3812 274.04C17.3812 274.168 17.4205 274.286 17.4695 274.404L19.6976 279.746C19.8546 280.13 20.1295 280.346 20.5515 280.346H20.6497Z" fill="white"/>
<path d="M23.8227 279.589C23.8227 279.982 24.1269 280.297 24.5196 280.297C24.8336 280.297 25.0888 280.13 25.2164 279.825L25.6974 278.693H28.7205L29.1818 279.775C29.329 280.09 29.5548 280.297 29.9081 280.297C30.3105 280.297 30.6246 279.972 30.6246 279.569C30.6246 279.48 30.5952 279.382 30.5461 279.264L28.1512 273.843C27.9843 273.46 27.6997 273.243 27.2776 273.243H27.1893C26.7672 273.243 26.4728 273.46 26.3059 273.843L23.911 279.264C23.8619 279.372 23.8227 279.48 23.8227 279.589ZM26.2568 277.355L27.2089 275.083L28.161 277.355H26.2568Z" fill="white"/>
<path d="M31.8086 279.48C31.8086 279.903 32.1423 280.238 32.5643 280.238H36.1175C36.5003 280.238 36.8045 279.933 36.8045 279.549C36.8045 279.166 36.5003 278.861 36.1175 278.861H33.3201V274.05C33.3201 273.627 32.9864 273.292 32.5643 273.292C32.1423 273.292 31.8086 273.627 31.8086 274.05V279.48Z" fill="white"/>
<path d="M37.9543 279.539C37.9543 279.962 38.288 280.297 38.7101 280.297C39.1321 280.297 39.4658 279.962 39.4658 279.539V274.05C39.4658 273.627 39.1321 273.292 38.7101 273.292C38.288 273.292 37.9543 273.627 37.9543 274.05V279.539Z" fill="white"/>
<path d="M41.1829 279.48C41.1829 279.903 41.5166 280.238 41.9387 280.238H43.8624C46.0218 280.238 47.5137 278.733 47.5137 276.795V276.775C47.5137 274.837 46.0218 273.351 43.8624 273.351H41.9387C41.5166 273.351 41.1829 273.686 41.1829 274.109V279.48ZM42.6944 278.87V274.719H43.8624C45.0893 274.719 45.9334 275.575 45.9334 276.795V276.814C45.9334 278.034 45.0893 278.87 43.8624 278.87H42.6944Z" fill="white"/>
<path d="M19.462 290.783C19.462 291.206 19.7957 291.54 20.2178 291.54C20.6399 291.54 20.9736 291.206 20.9736 290.783V285.992H22.4262C22.809 285.992 23.1231 285.677 23.1231 285.293C23.1231 284.909 22.809 284.595 22.4262 284.595H18.0094C17.6266 284.595 17.3125 284.909 17.3125 285.293C17.3125 285.677 17.6266 285.992 18.0094 285.992H19.462V290.783Z" fill="white"/>
<path d="M24.2267 290.783C24.2267 291.206 24.5604 291.54 24.9825 291.54C25.4045 291.54 25.7382 291.206 25.7382 290.783V288.717H28.5258V290.783C28.5258 291.206 28.8595 291.54 29.2815 291.54C29.7036 291.54 30.0373 291.206 30.0373 290.783V285.293C30.0373 284.87 29.7036 284.536 29.2815 284.536C28.8595 284.536 28.5258 284.87 28.5258 285.293V287.32H25.7382V285.293C25.7382 284.87 25.4045 284.536 24.9825 284.536C24.5604 284.536 24.2267 284.87 24.2267 285.293V290.783Z" fill="white"/>
<path d="M31.684 290.783C31.684 291.206 32.0177 291.54 32.4397 291.54C32.8618 291.54 33.1955 291.206 33.1955 290.783V289.277H34.4028L35.8751 291.147C36.0616 291.373 36.2775 291.54 36.621 291.54C36.9842 291.54 37.3375 291.265 37.3375 290.842C37.3375 290.606 37.2394 290.448 37.0922 290.261L36.0419 288.982C36.8762 288.638 37.4161 287.979 37.4161 286.887V286.867C37.4161 286.208 37.2198 285.687 36.8271 285.293C36.3658 284.831 35.6984 284.595 34.8248 284.595H32.4397C32.0177 284.595 31.684 284.929 31.684 285.352V290.783ZM33.1955 287.939V285.962H34.6972C35.4432 285.962 35.8849 286.287 35.8849 286.946V286.966C35.8849 287.556 35.4726 287.939 34.7267 287.939H33.1955Z" fill="white"/>
<path d="M41.643 291.589C43.4883 291.589 44.6563 290.566 44.6563 288.481V285.293C44.6563 284.87 44.3226 284.536 43.9005 284.536C43.4785 284.536 43.1448 284.87 43.1448 285.293V288.54C43.1448 289.641 42.5951 290.192 41.6627 290.192C40.7302 290.192 40.1806 289.622 40.1806 288.49V285.293C40.1806 284.87 39.8469 284.536 39.4248 284.536C39.0027 284.536 38.669 284.87 38.669 285.293V288.53C38.669 290.566 39.7978 291.589 41.643 291.589Z" fill="white"/>
<path fill-rule="evenodd" clip-rule="evenodd" d="M226.764 382.136V394.593C226.764 396.419 228.406 396.336 230.081 396.17C230.157 396.166 230.169 396.15 230.169 396.088C230.169 396.05 230.249 387.851 230.249 387.648C230.729 388.104 234.41 393.379 235.179 394.423C236.645 396.402 236.148 396.212 239.194 396.212C239.724 396.212 239.745 396.067 239.745 395.557V383.101C239.745 382.646 239.645 382.306 239.474 382.062C238.897 381.254 237.393 381.441 236.591 381.507C236.49 381.515 236.353 381.598 236.344 381.702C236.344 382.642 236.353 389.085 236.344 390.481C236.131 390.319 235.559 389.578 235.371 389.309C233.725 386.957 232.003 384.426 230.265 382.203C229.53 381.263 228.916 381.478 227.32 381.478C226.777 381.478 226.768 381.606 226.768 382.132L226.764 382.136Z" fill="white"/>
<path fill-rule="evenodd" clip-rule="evenodd" d="M215.902 396.009V395.992L215.973 391.69L220.138 391.648C224.028 391.694 225.862 386.853 223.961 383.623C223.251 382.414 222.023 382.981 219.8 383.457C218.693 383.697 217.92 383.648 217.928 384.198C218.851 384.513 219.704 383.979 220.552 384.778C221.133 385.325 221.413 386.356 221.133 387.391C220.585 389.395 218.058 388.915 215.973 388.915C215.973 383.544 216.52 384.136 213.997 384.646C211.924 385.06 212.501 385.014 212.501 390.141C212.501 391.632 212.451 393.205 212.501 394.684C212.555 396.448 214.063 396.203 215.609 396.203C215.614 396.203 215.626 396.203 215.634 396.203C215.856 396.207 215.902 396.17 215.902 396V396.009Z" fill="white"/>
<path fill-rule="evenodd" clip-rule="evenodd" d="M201.111 386.389L201.228 386.182C201.592 385.089 203.309 384.302 204.341 383.685C204.909 383.341 207.529 381.875 207.813 381.544C204.596 380.852 201.68 381.304 199.582 382.927C197.836 384.281 196.817 387.35 197.243 390.526C197.64 393.466 199.357 395.317 201.884 396.067C204.224 396.758 208.766 396.468 210.374 395.081L210.42 391.027C210.42 389.739 210.662 388.161 209.376 387.847C207.993 387.507 205.427 388.861 203.815 389.453C203.384 389.611 203.317 389.549 203.351 390.07L207.429 390.137L207.433 392.286C207.449 393.329 207.412 393.184 206.296 393.375C204.98 393.599 203.447 393.524 202.402 392.94C200.581 391.926 200.171 388.745 201.103 386.397L201.111 386.389Z" fill="white"/>
<path fill-rule="evenodd" clip-rule="evenodd" d="M232.421 371.477L233.946 371.684C233.866 371.759 233.933 371.862 233.357 371.933C233.031 371.974 232.956 371.957 232.642 371.912L232.421 371.477ZM207.817 381.54C207.533 381.871 204.913 383.337 204.345 383.681C203.313 384.302 201.596 385.089 201.232 386.178L201.174 386.281L201.291 386.248C201.943 386.136 203.839 385.275 204.575 384.964C205.669 384.505 207.232 383.648 207.976 384.062C207.52 384.699 204.211 385.329 204.224 386.766C205.189 386.65 220.192 381.991 221.679 381.561C223.175 381.126 224.537 380.745 225.77 380.016C226.605 379.523 231.276 375.809 232.145 375.138C232.755 374.662 233.022 374.359 234.042 374.214C235.028 374.074 235.776 374.165 235.98 373.225C235.241 373.543 235.091 373.647 234.451 373.162C234.669 372.782 235.208 372.628 235.767 372.707C236.687 372.831 236.511 373.216 236.954 373.49C237.154 371.485 235.149 371.692 234.823 371.506C234.598 371.374 234.422 371.017 234.08 370.798C233.486 370.421 232.467 370.599 231.706 370.62C230.729 370.645 229.973 370.471 229.07 370.458C229.195 370.901 229.438 370.984 229.684 371.419C229.396 371.597 229.258 371.572 228.819 371.643C228.51 371.692 228.164 371.759 227.946 371.85C227.863 372.442 228.79 372.926 228.364 373.8C228.051 373.614 219.047 362.164 218.408 361.336C217.827 360.586 217.305 359.982 216.728 359.232C215.12 357.149 213.908 356.284 212.124 354.528C211.782 354.192 211.523 353.857 211.176 353.538L205.398 347.968C204.721 347.326 204.119 346.776 203.451 346.134L200.61 343.351C200.234 342.991 199.799 342.423 199.57 342.635C199.315 343.086 199.411 345.579 199.607 346.175C199.95 347.219 200.723 347.745 201.328 348.337C202.653 349.621 203.902 350.813 205.222 352.105C207.048 353.89 209.133 356.031 211.009 357.762C211.452 358.168 212.634 359.091 212.396 360.184C212.066 360.077 207.529 355.592 206.777 354.909L201.926 350.163C201.65 349.911 201.5 349.592 201.036 349.588C200.798 349.993 200.886 352.283 201.023 352.797C201.291 353.807 201.959 354.275 202.498 354.805L209.496 361.58C210.115 362.168 210.578 362.603 211.193 363.278C211.681 363.816 212.576 364.284 212.413 365.526C211.89 365.402 210.52 363.791 209.948 363.257L203.748 357.335C202.377 355.998 202.377 355.836 202.377 357.712C202.377 359.369 202.369 359.725 203.639 361.017C205.657 363.071 207.533 364.74 209.839 367.034C211.255 368.446 212.429 369.071 212.442 370.599C211.991 370.454 206.923 365.419 206.15 364.706C205.398 364.019 204.508 362.831 203.952 362.802C203.676 363.278 203.48 365.675 204.842 366.967C206.547 368.587 208.535 370.649 210.253 372.222C210.725 372.657 211.138 373.051 211.594 373.498C212.037 373.933 212.467 374.434 212.429 375.403C211.957 375.312 211.168 374.318 210.67 373.837C210.069 373.258 209.534 372.765 208.92 372.193L206.371 369.701C206.07 369.423 205.807 368.968 205.331 369.03C205.076 370.239 205.264 371.779 205.949 372.529C206.296 372.914 206.655 373.208 207.031 373.577L210.265 376.745C211.243 377.668 211.389 378.024 212.262 378.438C212.592 378.596 212.413 378.426 212.588 378.666L207.813 381.548L207.817 381.54Z" fill="white"/>
<path fill-rule="evenodd" clip-rule="evenodd" d="M227.901 361.398L227.809 361.282C227.378 360.594 225.866 355.244 225.369 354.855C224.876 355.062 224.245 356.727 224.178 357.219C223.89 359.365 227.253 364.342 225.858 365.539L224.738 362.677C224.516 362.052 223.99 360.139 223.618 359.853C223.234 359.973 222.248 361.816 222.415 363.017C222.494 363.576 223.322 365.895 223.606 366.309C224.153 367.108 224.926 368.015 225.532 368.748L226.99 370.583C227.215 370.872 227.245 371.038 227.616 371.109L231.28 363.762C231.773 362.59 231.427 361.799 231.059 360.752L228.21 352.569C227.926 351.762 227.587 350.581 227.253 349.877C226.747 349.956 226.823 350.155 226.392 350.996C226.158 351.451 225.941 351.853 225.912 352.49C225.866 353.443 227.357 357.265 227.754 358.433C228.03 359.24 228.707 360.648 227.901 361.402V361.398Z" fill="white"/>
</g>
<defs>
<clipPath id="clip0_2_4769">
<rect width="258" height="416" rx="12" fill="white"/>
</clipPath>
</defs>
</svg>
